<svg width="18px" height="18px" viewBox="0 0 18 18" version="1.1" xmlns="http://www.w3.org/2000/svg" xmlns:xlink="http://www.w3.org/1999/xlink">
    <g id="Page-1" stroke="none" stroke-width="1" fill="none" fill-rule="evenodd">
        <g id="Desktop-HD-Copy-9" transform="translate(-1166.000000, -317.000000)" fill="#E9E9E9" fill-rule="nonzero">
            <g id="linkedin-vecteezy_social-media-icons-set-facebook-instagram-twitter-logos_-[Converti]-01" transform="translate(1166.000000, 317.000000)">
                <path d="M13.7189189,0 L4.28108108,0 C1.92162162,0 0,1.92162162 0,4.28108108 L0,13.7189189 C0,16.0783784 1.92162162,18 4.28108108,18 L13.7189189,18 C16.0783784,18 18,16.0783784 18,13.7189189 L18,4.28108108 C18,1.92162162 16.0783784,0 13.7189189,0 Z M5.83783784,10.3135135 C5.83783784,11.6756757 5.83783784,13.0378378 5.83783784,14.4243243 C5.83783784,14.5702703 5.83783784,14.5702703 5.69189189,14.5702703 C4.88918919,14.5702703 4.11081081,14.5702703 3.30810811,14.5702703 C3.21081081,14.5702703 3.16216216,14.5459459 3.16216216,14.4243243 C3.16216216,11.6756757 3.16216216,8.92702703 3.16216216,6.17837838 C3.16216216,6.05675676 3.21081081,6.03243243 3.30810811,6.03243243 C4.11081081,6.03243243 4.88918919,6.03243243 5.69189189,6.03243243 C5.81351351,6.03243243 5.83783784,6.05675676 5.83783784,6.17837838 C5.83783784,7.56486486 5.83783784,8.92702703 5.83783784,10.3135135 Z M4.52432432,4.91351351 C3.67297297,4.91351351 2.99189189,4.20810811 2.99189189,3.35675676 C2.99189189,2.50540541 3.6972973,1.8 4.54864865,1.82432432 C5.4,1.82432432 6.10540541,2.50540541 6.10540541,3.38108108 C6.08108108,4.20810811 5.37567568,4.91351351 4.52432432,4.91351351 Z M15.6405405,14.5702703 C14.8378378,14.5702703 14.0351351,14.5702703 13.2324324,14.5702703 C13.1108108,14.5702703 13.0864865,14.5459459 13.0864865,14.4243243 C13.0864865,13.0378378 13.0864865,11.6513514 13.0864865,10.2648649 C13.0864865,9.9 13.0864865,9.51081081 12.9891892,9.14594595 C12.8675676,8.68378378 12.6243243,8.31891892 12.1135135,8.22162162 C11.627027,8.12432432 11.1162162,8.17297297 10.7027027,8.51351351 C10.4594595,8.70810811 10.3135135,8.97567568 10.2648649,9.26756757 C10.1918919,9.60810811 10.1432432,9.94864865 10.1432432,10.2891892 C10.1189189,11.6513514 10.1432432,13.0378378 10.1432432,14.4 C10.1432432,14.5459459 10.1432432,14.5459459 9.9972973,14.5459459 C9.21891892,14.5459459 8.41621622,14.5459459 7.63783784,14.5459459 C7.49189189,14.5459459 7.49189189,14.5459459 7.49189189,14.4 C7.49189189,11.6513514 7.49189189,8.92702703 7.49189189,6.17837838 C7.49189189,6.03243243 7.49189189,6.03243243 7.63783784,6.03243243 C8.39189189,6.03243243 9.12162162,6.03243243 9.87567568,6.03243243 C10.0216216,6.03243243 10.0216216,6.03243243 10.0216216,6.2027027 C10.0216216,6.49459459 10.0216216,6.78648649 10.0216216,7.07837838 C10.0216216,7.1027027 10.0216216,7.15135135 10.0216216,7.2 C10.1675676,7.02972973 10.2891892,6.85945946 10.4108108,6.71351351 C10.872973,6.22702703 11.4324324,5.95945946 12.0891892,5.88648649 C12.7702703,5.78918919 13.4513514,5.86216216 14.1081081,6.12972973 C14.6918919,6.37297297 15.1054054,6.81081081 15.3486486,7.39459459 C15.5675676,7.88108108 15.6891892,8.41621622 15.7135135,8.95135135 C15.7378378,9.68108108 15.7621622,10.4351351 15.7621622,11.1648649 C15.7621622,12.2594595 15.7621622,13.3540541 15.7621622,14.4486486 C15.7621622,14.5459459 15.7378378,14.5702703 15.6405405,14.5702703 Z" id="Shape"></path>
            </g>
        </g>
    </g>
</svg>
