<svg width="18px" height="18px" viewBox="0 0 18 18" version="1.1" xmlns="http://www.w3.org/2000/svg" xmlns:xlink="http://www.w3.org/1999/xlink">
    <g id="Page-1" stroke="none" stroke-width="1" fill="none" fill-rule="evenodd">
        <g id="Desktop-HD-Copy-9" transform="translate(-1120.000000, -317.000000)" fill="#E9E9E9">
            <g id="twittter-vecteezy_social-media-icons-set-facebook-instagram-twitter-logos_-[Converti]-01" transform="translate(1120.000000, 317.000000)">
                <path d="M14.0630579,0 L3.96042273,0 C1.77863296,0 0,1.77631579 0,3.95526316 L0,14.0210526 C0,16.2236842 1.77863296,18 3.96042273,18 L14.0393428,18 C16.2211326,18 17.9997656,16.2236842 17.9997656,14.0210526 L17.9997656,3.95526316 C18.0234807,1.77631579 16.2448477,0 14.0630579,0 Z M14.0156277,6.44210526 L14.0156277,6.77368421 C14.0156277,10.1842105 11.4306812,14.0921053 6.66394483,14.0921053 C5.26475357,14.0921053 3.88927741,13.6894737 2.7035221,12.9315789 C2.91695806,12.9552632 3.10667891,12.9789474 3.32011486,12.9789474 C4.48215506,12.9789474 5.62048016,12.6 6.52165419,11.8894737 C5.4070442,11.8657895 4.45843996,11.1552632 4.10271336,10.0894737 C4.48215506,10.1605263 4.88531187,10.1368421 5.26475357,10.0421053 C4.05528315,9.80526316 3.20153933,8.73947368 3.20153933,7.50789474 L3.20153933,7.48421053 C3.55726592,7.67368421 3.96042273,7.79210526 4.36357953,7.81578947 C3.22525444,7.05789474 2.89324295,5.56578947 3.58098103,4.38157895 C4.88531187,5.99210526 6.82995057,6.96315789 8.89316481,7.05789474 C8.84573459,6.86842105 8.82201949,6.67894737 8.82201949,6.46578947 C8.82201949,5.75526316 9.10660076,5.06842105 9.6283331,4.59473684 C10.6717978,3.62368421 12.3081401,3.67105263 13.2804594,4.71315789 C13.849622,4.59473684 14.4187845,4.38157895 14.9168018,4.09736842 C14.7270809,4.68947368 14.3239241,5.21052632 13.7784767,5.51842105 C14.300209,5.44736842 14.7982262,5.32894737 15.2725284,5.11578947 C14.964232,5.61315789 14.5373601,6.06315789 14.0156277,6.44210526 Z" id="Shape"></path>
            </g>
        </g>
    </g>
</svg>
