<svg width="18px" height="18px" viewBox="0 0 18 18" version="1.1" xmlns="http://www.w3.org/2000/svg" xmlns:xlink="http://www.w3.org/1999/xlink">
    <g id="Page-1" stroke="none" stroke-width="1" fill="none" fill-rule="evenodd">
        <g id="Desktop-HD-Copy-9" transform="translate(-1258.000000, -317.000000)" fill="#E9E9E9" fill-rule="nonzero">
            <g id="insta-vecteezy_social-media-icons-set-facebook-instagram-twitter-logos_-[Converti]-01" transform="translate(1258.000000, 317.000000)">
                <path d="M11,9 C11,10.0989011 10.0989011,11 9,11 C7.9010989,11 7,10.0989011 7,9 C7,7.9010989 7.9010989,7 9,7 C10.0989011,7 11,7.9010989 11,9 Z" id="Path"></path>
                <path d="M13.7918919,0 L4.20810811,0 C1.8972973,0 0,1.8972973 0,4.23243243 L0,13.7918919 C0,16.127027 1.8972973,18 4.20810811,18 L13.7675676,18 C16.1027027,18 18,16.127027 18,13.7918919 L18,4.23243243 C18,1.8972973 16.1027027,0 13.7918919,0 Z M15.5918919,11.7972973 C15.5918919,13.9135135 13.8891892,15.6162162 11.772973,15.6162162 L6.2027027,15.6162162 C4.08648649,15.6162162 2.38378378,13.9135135 2.38378378,11.7972973 L2.38378378,6.22702703 C2.38378378,4.11081081 4.08648649,2.40810811 6.2027027,2.40810811 L11.772973,2.40810811 C13.8891892,2.40810811 15.5918919,4.11081081 15.5918919,6.22702703 L15.5918919,11.7972973 Z M11.8459459,3.67297297 L6.12972973,3.67297297 C4.74324324,3.67297297 3.6,4.81621622 3.6,6.2027027 L3.6,11.9189189 C3.6,13.3054054 4.74324324,14.4486486 6.12972973,14.4486486 L11.8459459,14.4486486 C13.2324324,14.4486486 14.3756757,13.3054054 14.3756757,11.9189189 L14.3756757,6.2027027 C14.3756757,4.79189189 13.2324324,3.67297297 11.8459459,3.67297297 Z M9,12.4783784 C7.1027027,12.4783784 5.57027027,10.9459459 5.57027027,9.04864865 C5.57027027,7.15135135 7.1027027,5.61891892 9,5.61891892 C10.8972973,5.61891892 12.4297297,7.15135135 12.4297297,9.04864865 C12.4054054,10.9459459 10.872973,12.4783784 9,12.4783784 Z M12.527027,6.3 C12.0891892,6.3 11.7486486,5.95945946 11.7486486,5.52162162 C11.7486486,5.08378378 12.0891892,4.74324324 12.527027,4.74324324 C12.9648649,4.74324324 13.3054054,5.08378378 13.3054054,5.52162162 C13.3054054,5.93513514 12.9405405,6.3 12.527027,6.3 Z" id="Shape"></path>
            </g>
        </g>
    </g>
</svg>
