<svg id="Calque_1" data-name="Calque 1" xmlns="http://www.w3.org/2000/svg" viewBox="0 0 200 200"><defs><style>.cls-1{fill:#e17b32;}</style></defs><path class="cls-1" d="M194.26,71.27,110.79,39.35a29.88,29.88,0,0,0-21.47,0L5.84,71.27a4.75,4.75,0,0,0,0,8.87L43.49,94.55v33.88a4.71,4.71,0,0,0,2.38,4.12,116.58,116.58,0,0,0,108.37,0,4.68,4.68,0,0,0,2.37-4.12V94.55l16.63-6.34v39.43A14,14,0,0,0,164,140.78v15.36a4.75,4.75,0,0,0,4.75,4.75H187.3a4.75,4.75,0,0,0,4.75-4.75V140.78a14,14,0,0,0-9.31-13.14V84.54l11.52-4.4a4.75,4.75,0,0,0,0-8.87Zm-11.71,80.15h-9.09V140.78a4.56,4.56,0,0,1,9.09,0ZM92.71,48.22a20.55,20.55,0,0,1,14.69,0L179.22,75.7l-71.88,27.49a20.58,20.58,0,0,1-14.7,0L20.88,75.7Zm54.4,77.33a112.53,112.53,0,0,1-47.06,10.86,112.52,112.52,0,0,1-47-10.86V98.16l36.32,13.9a29.88,29.88,0,0,0,21.47,0l36.32-13.9Z"/></svg>