<svg id="Calque_1" data-name="Calque 1" xmlns="http://www.w3.org/2000/svg" viewBox="0 0 200 200"><defs><style>.cls-1{fill:#e17b32;}</style></defs><path class="cls-1" d="M118,28.8c27.85,0,48.06,22.59,49.53,47.29A42.57,42.57,0,0,1,153.94,159H46.16C21.37,159,3.5,142,3.5,120.86c0-16.64,10.88-32.76,27.37-37.26,1.07-13,7.45-23,16.35-28.35a33.73,33.73,0,0,1,28.63-2.67A48.93,48.93,0,0,1,118,28.8Zm0,9A40.25,40.25,0,0,0,81.6,60a4.49,4.49,0,0,1-6,2h0a24.76,24.76,0,0,0-23.71.91c-7.11,4.27-12.42,12.18-12.42,24.28a4.49,4.49,0,0,1-3.72,4.42c-13.49,2.26-23.23,15.73-23.23,29.26,0,16.25,12.82,29.19,33.68,29.19H153.94a33.67,33.67,0,0,0,8.28-66.31,4.5,4.5,0,0,1-3.37-4.42C159.06,58.24,142,37.78,118,37.78Z"/></svg>