<svg id="Calque_1" data-name="Calque 1" xmlns="http://www.w3.org/2000/svg" viewBox="0 0 200 200"><defs><style>.cls-1{fill:none;}.cls-2{fill:#e17b32;}</style></defs><rect class="cls-1" x="131.65" y="142.57" width="6.77" height="17.39"/><path class="cls-1" d="M10.26,160H56V38.5H10.26ZM33.14,57.57a6.81,6.81,0,1,1-6.8,6.8A6.8,6.8,0,0,1,33.14,57.57Zm-12.81,47.6H46a3.94,3.94,0,0,1,0,7.88H20.33a3.94,3.94,0,0,1,0-7.88Zm0,15.76H46a3.95,3.95,0,0,1,0,7.89H20.33a3.95,3.95,0,0,1,0-7.89Zm0,15.77H46a3.94,3.94,0,1,1,0,7.88H20.33a3.94,3.94,0,1,1,0-7.88Z"/><rect class="cls-1" x="95.93" y="68.03" width="78.2" height="50.94"/><path class="cls-1" d="M80.22,134.69H189.84V52.33H80.22Zm7.83-70.6A3.93,3.93,0,0,1,92,60.15h86.09A3.94,3.94,0,0,1,182,64.09v58.83a3.94,3.94,0,0,1-3.94,3.94H92a3.93,3.93,0,0,1-3.94-3.94V64.09Z"/><path class="cls-2" d="M60,30.62H6.32a3.93,3.93,0,0,0-3.94,3.94V163.91a3.93,3.93,0,0,0,3.94,3.94H60a4,4,0,0,0,3.94-3.94V34.56A3.94,3.94,0,0,0,60,30.62ZM56,160H10.26V38.5H56V160Z"/><path class="cls-2" d="M193.78,44.44H76.28a3.94,3.94,0,0,0-3.94,3.94v90.25a3.93,3.93,0,0,0,3.94,3.94h47.48V160h-7.15a3.94,3.94,0,1,0,0,7.88h36.84a3.94,3.94,0,0,0,0-7.88H146.3v-17.4h47.48a3.94,3.94,0,0,0,3.95-3.94V48.38A4,4,0,0,0,193.78,44.44ZM138.42,160h-6.77v-17.4h6.77Zm51.42-25.28H80.22V52.33H189.84v82.36Z"/><path class="cls-2" d="M92,126.86h86.09a3.94,3.94,0,0,0,3.94-3.94V64.09a3.94,3.94,0,0,0-3.94-3.94H92a3.93,3.93,0,0,0-3.94,3.94v58.83A3.93,3.93,0,0,0,92,126.86ZM95.93,68h78.2v51H95.93Z"/><path class="cls-2" d="M20.33,144.58H46a3.94,3.94,0,1,0,0-7.88H20.33a3.94,3.94,0,1,0,0,7.88Z"/><path class="cls-2" d="M20.33,128.82H46a3.95,3.95,0,0,0,0-7.89H20.33a3.95,3.95,0,0,0,0,7.89Z"/><path class="cls-2" d="M20.33,113.05H46a3.94,3.94,0,0,0,0-7.88H20.33a3.94,3.94,0,0,0,0,7.88Z"/><circle class="cls-2" cx="33.14" cy="64.37" r="6.8"/></svg>