<svg id="Calque_1" data-name="Calque 1" xmlns="http://www.w3.org/2000/svg" viewBox="0 0 636 100"><defs><style>.cls-1,.cls-2{fill:#fff;}.cls-1{fill-rule:evenodd;}</style></defs><path class="cls-1" d="M44.78,31.22a2.22,2.22,0,1,1-2.22,2.21,2.21,2.21,0,0,1,2.22-2.21Z"/><path class="cls-2" d="M51.65,35.65H52a2.45,2.45,0,1,0-.33,0Z"/><path class="cls-2" d="M58.08,35.54a1.43,1.43,0,0,0,.5.06,2.09,2.09,0,0,0,1.16-.34,2.52,2.52,0,0,0,1-1.38,2.19,2.19,0,0,0-.28-1.67,2.5,2.5,0,0,0-1.38-1,2.2,2.2,0,0,0-1.66.27,2.53,2.53,0,0,0-1,1.39,2.17,2.17,0,0,0,1.66,2.66Z"/><path class="cls-2" d="M100.43,35.82h0l16-.11a2.44,2.44,0,0,0,0-4.88l-15.91.11a2.45,2.45,0,0,0-2.43,2.44,2.43,2.43,0,0,0,.72,1.72,2.09,2.09,0,0,0,1.66.72Z"/><path class="cls-1" d="M44.78,46.79A2.22,2.22,0,1,1,42.56,49a2.22,2.22,0,0,1,2.22-2.22Z"/><path class="cls-2" d="M51.65,51.17H52a2.24,2.24,0,1,0-2.55-1.88,2.21,2.21,0,0,0,2.22,1.88Z"/><path class="cls-2" d="M58.08,51.12a1.7,1.7,0,0,0,.5.05,2.17,2.17,0,0,0,1.16-.33,2.51,2.51,0,0,0,1-1.39,2.17,2.17,0,0,0-.28-1.66,2.52,2.52,0,0,0-1.38-1,2.2,2.2,0,0,0-1.66.28,2.46,2.46,0,0,0-1,1.39,2.17,2.17,0,0,0,1.66,2.66Z"/><path class="cls-2" d="M100.43,51.39h0l16-.11a2.44,2.44,0,0,0,0-4.88l-15.91.12A2.45,2.45,0,0,0,98.05,49a2.39,2.39,0,0,0,.72,1.72,2.09,2.09,0,0,0,1.66.72Z"/><path class="cls-2" d="M44.78,67a2.22,2.22,0,1,0-2.22-2.22A2.22,2.22,0,0,0,44.78,67Z"/><path class="cls-2" d="M50.32,66.53a2.3,2.3,0,0,0,1.33.44H52a2,2,0,0,0,1.44-.89,2.18,2.18,0,0,0,.39-1.66A2,2,0,0,0,52.92,63a2.21,2.21,0,0,0-1.66-.39,2,2,0,0,0-1.44.89,2.22,2.22,0,0,0-.39,1.66,2.26,2.26,0,0,0,.89,1.39Z"/><path class="cls-2" d="M58.08,66.86a1.7,1.7,0,0,0,.5,0,2.17,2.17,0,0,0,1.16-.33,2.52,2.52,0,0,0,1-1.38,2.26,2.26,0,0,0-1.66-2.67,2.22,2.22,0,0,0-2.39,3.33,2.21,2.21,0,0,0,1.39,1Z"/><path class="cls-2" d="M100.43,67.14h0l16-.11a2.44,2.44,0,0,0,0-4.88l-15.91.11a2.45,2.45,0,0,0-2.43,2.44,2.43,2.43,0,0,0,.72,1.72,2.12,2.12,0,0,0,1.66.72Z"/><path class="cls-2" d="M136.74,84.49a2.59,2.59,0,0,0-1.94-.84h-.06c-4.43,0-6.87,3-8.31,4.77-.17.17-.28.33-.39.44-1.11,1.22-1.33,1.33-1.94,1.39-.78,0-.95-.17-2.22-1.72s-3.38-4.16-6.93-4.71l0-8h10a2.74,2.74,0,0,0,2.11-1,3.6,3.6,0,0,0,.83-2.27V25.67a3.22,3.22,0,0,0-2.94-3.38H36.68a2.68,2.68,0,0,0-2.1,1.06,3.55,3.55,0,0,0-.83,2.27V72.4a3.22,3.22,0,0,0,2.93,3.38h9.7l.06,8.48a12.21,12.21,0,0,0-5.38,4.27l-.38.39c-1.11,1.22-1.28,1.39-1.89,1.39-.78,0-.94-.12-2.22-1.72-1.49-1.78-3.93-4.83-8.48-4.83a3.42,3.42,0,0,0,0,6.77c1.89,0,2.94,1.22,4.1,2.71,1.5,1.83,3.16,3.88,6.6,3.88,3.16,0,4.88-1.94,6.1-3.32a.66.66,0,0,1,.22-.22l.33-.34c1.33-1.66,2.27-2.66,4.05-2.71h0c1.89,0,2.94,1.22,4.11,2.71,1.49,1.83,3.16,3.88,6.59,3.88,3.16,0,4.88-1.94,6.1-3.32a.66.66,0,0,1,.22-.22l.33-.34c1.33-1.66,2.28-2.66,4-2.71H71c1.88,0,2.93,1.22,4.1,2.71,1.49,1.83,3.16,3.88,6.59,3.88,3.16,0,4.88-1.94,6.1-3.32.06-.06.11-.17.22-.22l.34-.34c1.33-1.66,2.27-2.66,4-2.71h.06c1.77,0,2.71,1,4.1,2.71s3.16,3.88,6.54,3.88h.06c3.1,0,4.82-1.94,6-3.32a.66.66,0,0,1,.22-.22l.33-.34c1.33-1.66,2.27-2.66,4.05-2.71h0c1.78,0,2.72,1,4.1,2.71s3.16,3.88,6.6,3.88h.06c3.16,0,4.82-1.94,6-3.32a.66.66,0,0,1,.22-.22l.33-.34c1.17-1.44,2.22-2.71,4.1-2.71a3.13,3.13,0,0,0,2.94-3.33,9.74,9.74,0,0,0-1.49-2.71Zm-32,4.43c-1.11,1.22-1.28,1.39-1.89,1.39-.77,0-.94-.12-2.22-1.72-1.49-1.78-3.93-4.83-8.48-4.83h0c-4.44,0-6.87,3-8.32,4.77-.16.17-.27.33-.38.45-1.11,1.21-1.28,1.38-1.89,1.38-.77,0-.94-.11-2.22-1.72-1.49-1.77-3.93-4.82-8.48-4.82h0c-4.44,0-6.87,3-8.32,4.77A2.54,2.54,0,0,0,62,89c-1.11,1.22-1.28,1.39-1.89,1.39-.78,0-.94-.11-2.22-1.72a12.72,12.72,0,0,0-5.54-4.38l0-8.43h56.76l0,9a13.51,13.51,0,0,0-4,3.66.65.65,0,0,0-.44.33ZM122,60.21v8.87H39.68V60.21Zm0-15.63v8.64H39.68V44.58ZM122,29v8.65H39.68V29Z"/><path class="cls-2" d="M29.26,14.81A3,3,0,0,0,32,16.75a2.72,2.72,0,0,0,1-.17h0A3,3,0,0,0,34.74,15a2.89,2.89,0,0,0,.06-2.27L32,5.28a3.05,3.05,0,0,0-1.55-1.67,2.93,2.93,0,0,0-2.27,0,3,3,0,0,0-1.66,1.55,2.89,2.89,0,0,0-.06,2.27l2.83,7.43Z"/><path class="cls-2" d="M26.37,31.77A3,3,0,0,0,28.09,28a3.05,3.05,0,0,0-1.55-1.67,2.93,2.93,0,0,0-2.27-.05l-7.43,2.83a3,3,0,0,0-1.66,1.55,2.89,2.89,0,0,0-.06,2.27,2.93,2.93,0,0,0,2.77,1.88,2.72,2.72,0,0,0,1-.16l7.48-2.83Z"/><path class="cls-2" d="M16.67,19.58l6.38,2.88a3.08,3.08,0,0,0,1.22.22A3,3,0,0,0,27,21,2.89,2.89,0,0,0,27,18.69a2.79,2.79,0,0,0-1.55-1.61L19.11,14.2a3,3,0,0,0-2.27-.06,3,3,0,0,0-1.72,3.77,3.09,3.09,0,0,0,1.55,1.67Z"/><polygon class="cls-2" points="149.73 76.08 149.73 69.59 155.44 68.53 155.44 29.89 149.73 28.82 149.73 22.34 172 22.34 172 28.82 166.19 29.89 166.19 67.75 181.4 67.75 181.88 60.98 190.11 60.98 190.11 75.98 149.73 75.98 149.73 76.08 149.73 76.08"/><path class="cls-2" d="M217.91,76.08a18.78,18.78,0,0,1-.78-2,18.12,18.12,0,0,1-.48-2.13A14.26,14.26,0,0,1,212,75.5a14.67,14.67,0,0,1-6.29,1.36c-3.88,0-7.07-1.07-9.3-3.2A11.21,11.21,0,0,1,192.92,65a9.94,9.94,0,0,1,4.55-8.72c3-2,7.46-3.1,13.27-3.1h5.52V49.26a6,6,0,0,0-1.64-4.46c-1.07-1.06-2.72-1.55-4.94-1.55a11.45,11.45,0,0,0-3.3.39,8.79,8.79,0,0,0-2.32,1l-.68,4.26h-8.13V40A31.34,31.34,0,0,1,202,36.57a25.42,25.42,0,0,1,8.32-1.36c4.94,0,9,1.26,12.11,3.68s4.65,5.91,4.65,10.37v18.3c0,.58.1,1.07.1,1.55l3.29.48v6.49Zm-9.4-7.26A9.75,9.75,0,0,0,213,67.75a8.34,8.34,0,0,0,3.1-2.61V59h-5.52a7.53,7.53,0,0,0-5.23,1.64,5,5,0,0,0-1.74,3.88,4.08,4.08,0,0,0,1.35,3.19,5.63,5.63,0,0,0,3.58,1.07Z"/><path class="cls-2" d="M274.08,22.24c6.2,0,11,1.55,14.52,4.74a15.71,15.71,0,0,1,5.33,12.4c0,5.13-1.74,9.3-5.33,12.39s-8.42,4.65-14.52,4.65H265V68.33l5.81,1.07v6.49H248.51V69.4l5.71-1.07V29.89l-5.71-1.07V22.33h25.57v-.09Zm-9,26h9.1c3,0,5.23-.77,6.78-2.42a8.72,8.72,0,0,0,2.33-6.29,9,9,0,0,0-2.33-6.4c-1.55-1.64-3.77-2.51-6.78-2.51h-9.1V48.19Z"/><polygon class="cls-2" points="294.7 24.95 294.7 18.46 311.26 18.46 311.26 68.53 316.49 69.59 316.49 76.08 295.29 76.08 295.29 69.59 300.51 68.53 300.51 26.01 294.7 24.95 294.7 24.95"/><path class="cls-2" d="M343.51,76.08a16.82,16.82,0,0,1-.77-2,18.17,18.17,0,0,1-.49-2.13,14.12,14.12,0,0,1-4.64,3.58,14.68,14.68,0,0,1-6.3,1.36c-3.87,0-7.07-1.07-9.3-3.2A11.23,11.23,0,0,1,318.53,65a9.94,9.94,0,0,1,4.55-8.72c3-2,7.46-3.1,13.27-3.1h5.52V49.26a6,6,0,0,0-1.65-4.46c-1.06-1.06-2.71-1.55-4.94-1.55a11.38,11.38,0,0,0-3.29.39,8.65,8.65,0,0,0-2.32,1L329,48.87h-8.14V40a31.57,31.57,0,0,1,6.78-3.39A25.52,25.52,0,0,1,336,35.21c4.94,0,9,1.26,12.11,3.68s4.64,5.91,4.64,10.37v18.3c0,.58.1,1.07.1,1.55l3.29.48v6.49Zm-9.29-7.26a9.71,9.71,0,0,0,4.45-1.07,8.19,8.19,0,0,0,3.1-2.61V59h-5.52A7.55,7.55,0,0,0,331,60.68a5,5,0,0,0-1.74,3.88,4.08,4.08,0,0,0,1.35,3.19,5.29,5.29,0,0,0,3.59,1.07Z"/><path class="cls-2" d="M370.73,26.31v9.78h7v7.55h-7V64a4.45,4.45,0,0,0,1,3.29,3.47,3.47,0,0,0,2.61,1,11.43,11.43,0,0,0,1.94-.1l1.84-.29,1,7.75a23.31,23.31,0,0,1-3.58.87,23.75,23.75,0,0,1-3.87.29c-3.68,0-6.59-1.07-8.62-3.1s-3-5.33-3-9.68V43.64h-5.91V36.09H360V26.31Z"/><path class="cls-2" d="M399.45,76.86c-5.81,0-10.37-1.84-13.85-5.52s-5.13-8.43-5.13-14.05V55.84c0-5.91,1.64-10.84,4.93-14.62s7.65-5.72,13.17-5.72,9.59,1.65,12.59,4.85,4.46,7.65,4.46,13.17v5.91H391.8l-.1.19a10.36,10.36,0,0,0,2.61,6.49,8.07,8.07,0,0,0,6.4,2.52,20.29,20.29,0,0,0,5.9-.68,32.15,32.15,0,0,0,5.14-2.23l2.9,6.68a22.19,22.19,0,0,1-6.39,3.3,36.31,36.31,0,0,1-8.81,1.16Zm-1-33.22A5.59,5.59,0,0,0,393.73,46a12,12,0,0,0-2.13,6l.1.19H405v-1a8.7,8.7,0,0,0-1.65-5.52,5.82,5.82,0,0,0-4.84-2Z"/><path class="cls-2" d="M419.3,69.59l5.23-1.06V43.64h-5.91V36.09h5.91V31.63c0-4.45,1.26-7.94,3.87-10.36s6.2-3.68,11-3.68c.87,0,1.84.1,2.8.19a19.49,19.49,0,0,1,3.1.58l-1,8-1.74-.29a11.31,11.31,0,0,0-1.93-.1,5.14,5.14,0,0,0-4,1.46,6,6,0,0,0-1.35,4.16v4.46h7.94v7.55h-7.94V68.43l5.23,1.07V76H419.3v-6.4Z"/><path class="cls-2" d="M445,55.65c0-6,1.65-10.85,5-14.62s7.94-5.72,13.85-5.72S474.4,37.25,477.7,41s5,8.71,5,14.62v.77c0,6-1.64,11-5,14.72s-7.95,5.72-13.76,5.72S453.39,74.92,450,71.14s-5-8.71-5-14.72v-.77Zm10.75.87a17.7,17.7,0,0,0,1.94,8.81,6.6,6.6,0,0,0,6.2,3.3,6.44,6.44,0,0,0,6.1-3.3,17.55,17.55,0,0,0,1.94-8.71v-.78A17.82,17.82,0,0,0,470,47.13a6.67,6.67,0,0,0-6.2-3.39,6.51,6.51,0,0,0-6.1,3.39,17.55,17.55,0,0,0-1.94,8.71v.68Z"/><path class="cls-2" d="M486.31,69.59l5.14-1.06V43.74l-5.72-1.07V36.18h15.79L502,42a13.41,13.41,0,0,1,3.59-4.84,8,8,0,0,1,5.13-1.74,11.28,11.28,0,0,1,1.74.09c.58.1,1.16.2,1.55.3L513,45.58l-4.46-.1a6.74,6.74,0,0,0-3.87,1,5.14,5.14,0,0,0-2.33,2.61V68.53l5.14,1.06v6.49H486.31V69.59Z"/><path class="cls-2" d="M517.29,42.57V36.09h15.79l.48,5.32A13.32,13.32,0,0,1,538.41,37a13.54,13.54,0,0,1,6.68-1.55,12.15,12.15,0,0,1,6.58,1.74,10.6,10.6,0,0,1,4.17,5.13,14.24,14.24,0,0,1,4.84-5,13.36,13.36,0,0,1,7-1.84,11.36,11.36,0,0,1,9.3,4.07c2.32,2.71,3.39,6.87,3.39,12.39V68.53l5.23,1.06v6.49H564.94V69.59l4.65-1.06V51.77c0-3-.49-5.13-1.45-6.29a5.36,5.36,0,0,0-4.36-1.74,8.47,8.47,0,0,0-4,1,7.43,7.43,0,0,0-2.71,2.8V68.33l4.35,1.07v6.49H542V69.4l4.36-1.07V51.77c0-3-.49-5-1.46-6.29a5.19,5.19,0,0,0-4.45-1.84,7.82,7.82,0,0,0-3.78.87A7.94,7.94,0,0,0,534,46.84V68.43l4.65,1.07V76H517.87V69.5l5.23-1.07V43.74l-5.81-1.17Z"/><path class="cls-2" d="M604,76.86c-5.81,0-10.36-1.84-13.85-5.52S585,62.91,585,57.29V55.84c0-5.91,1.64-10.84,4.94-14.62s7.65-5.72,13.17-5.72,9.58,1.65,12.59,4.85,4.45,7.65,4.45,13.17v5.91H596.32l-.1.19a10.41,10.41,0,0,0,2.61,6.49,8.08,8.08,0,0,0,6.4,2.52,20.25,20.25,0,0,0,5.9-.68,32.15,32.15,0,0,0,5.14-2.23l2.9,6.68a21.93,21.93,0,0,1-6.39,3.3A36.31,36.31,0,0,1,604,76.86Zm-1-33.22A5.62,5.62,0,0,0,598.25,46a12,12,0,0,0-2.13,6l.1.19h13.27v-1a8.7,8.7,0,0,0-1.65-5.52,5.82,5.82,0,0,0-4.84-2Z"/></svg>