<svg id="Calque_1" data-name="Calque 1" xmlns="http://www.w3.org/2000/svg" viewBox="0 0 413 115"><defs><style>.cls-1{fill:#fff;}.cls-2{fill:#f49819;}</style></defs><path class="cls-1" d="M143.59,55.85a27.45,27.45,0,0,0,7.06,2.48,41.77,41.77,0,0,0,9.43,1.08,30.14,30.14,0,0,0,8.67-1.19,19.91,19.91,0,0,0,6.8-3.45A16.44,16.44,0,0,0,180,49.33a15.67,15.67,0,0,0,1.6-7.16,14,14,0,0,0-2.83-8.62q-2.85-3.76-9.48-5.93l-8.68-2.8q-4.92-1.61-6.74-3.39a5.84,5.84,0,0,1-1.82-4.36,5.92,5.92,0,0,1,2.89-5.5q2.9-1.73,8.14-1.72a28.33,28.33,0,0,1,11.78,2.37,6.46,6.46,0,0,0,2.35.75c.93,0,1.39-.64,1.39-1.94V8.12a3.43,3.43,0,0,0-.53-2,5.93,5.93,0,0,0-1.82-1.51,15.4,15.4,0,0,0-2.57-1.08c-1.07-.36-2.23-.68-3.48-1s-2.57-.52-4-.7a32,32,0,0,0-4.12-.27,27,27,0,0,0-7.71,1.08A19.33,19.33,0,0,0,148,5.81a16.61,16.61,0,0,0-4.39,5.06A13.75,13.75,0,0,0,142,17.71,14.65,14.65,0,0,0,145,26.65q3.06,4.09,9.8,6.25l8.89,2.8q4.5,1.52,6.16,3.24a6,6,0,0,1,1.66,4.31,6.54,6.54,0,0,1-3.16,5.81q-3.16,2.05-8.94,2a35.4,35.4,0,0,1-7.29-.76,32.22,32.22,0,0,1-6.74-2.15c-.65-.29-1.17-.5-1.56-.64a3.13,3.13,0,0,0-1.12-.22c-.93,0-1.39.64-1.39,1.94V52.4a3.57,3.57,0,0,0,2.25,3.45"/><path class="cls-1" d="M40.09,26a46.05,46.05,0,0,0-6.48-.48q-9.43,0-15,4.79A15.91,15.91,0,0,0,13,42.92q0,7.44,4.5,11.85t12.21,4.42a22.57,22.57,0,0,0,18-8.51c.64,1.36,1.27,2.57,1.88,3.61a14,14,0,0,0,2.19,2.85,2.53,2.53,0,0,0,1.82.86,3.12,3.12,0,0,0,1.61-.53l3.85-2.59a2.35,2.35,0,0,0,1.18-1.83,2.82,2.82,0,0,0-.43-1.4,29.93,29.93,0,0,1-2-4.42,17.65,17.65,0,0,1-.69-5.49v-20q0-10.12-5.09-15.14t-16-5a37.25,37.25,0,0,0-9.53,1.19,39.56,39.56,0,0,0-7.71,2.8,4.33,4.33,0,0,0-1.71,1.29A4,4,0,0,0,16.69,9v3c0,1.3.43,1.94,1.28,1.94a4.22,4.22,0,0,0,1-.16A17.74,17.74,0,0,0,21.08,13a47.07,47.07,0,0,1,6.58-2.1,28.21,28.21,0,0,1,6.59-.81q7.06,0,10,2.86t2.89,9.86V27.3q-3.65-.86-7-1.35m7,10.83a21,21,0,0,1-.59,5.33,9.69,9.69,0,0,1-2.09,3.94A13.47,13.47,0,0,1,38.64,50a19.69,19.69,0,0,1-6.32,1.13A8.79,8.79,0,0,1,25.9,48.9q-2.25-2.2-2.25-6.52a8.72,8.72,0,0,1,3-7.11c2-1.65,5-2.48,9.1-2.48a45.55,45.55,0,0,1,5.73.38,54.52,54.52,0,0,1,5.62,1Z"/><path class="cls-1" d="M77.83,54.77a4.86,4.86,0,0,0,1.29,2.43,3.82,3.82,0,0,0,2.36.59h5.24a3.79,3.79,0,0,0,2.47-.65,4.61,4.61,0,0,0,1.17-2.48L99.79,15l9.53,39.64a4.61,4.61,0,0,0,1.18,2.48,3.74,3.74,0,0,0,2.46.65h5.25a3.81,3.81,0,0,0,2.35-.59,4.86,4.86,0,0,0,1.29-2.43L136.63,7.16a14,14,0,0,0,.42-1.51,5.24,5.24,0,0,0,.11-1,1.33,1.33,0,0,0-1.5-1.51H130a3.77,3.77,0,0,0-2.41.59,5.13,5.13,0,0,0-1.24,2.42l-10.6,41.27L106.11,6.18a4.38,4.38,0,0,0-1.18-2.42,4.07,4.07,0,0,0-2.47-.59H97.54a4,4,0,0,0-2.46.59A4.31,4.31,0,0,0,93.9,6.18L84.37,46.91,74.09,6.18a5.13,5.13,0,0,0-1.24-2.42,3.77,3.77,0,0,0-2.41-.59h-6A1.33,1.33,0,0,0,63,4.68a11.5,11.5,0,0,0,.53,2.48Z"/><path class="cls-2" d="M168.72,84.61a180.17,180.17,0,0,1-69.46,14.3c-33.1,0-65.15-9.14-91.07-24.31-2.27-1.33-3.95,1-2.07,2.73a134.44,134.44,0,0,0,91,34.92c25.15,0,54.36-8,74.51-22.91,3.33-2.48.48-6.19-2.93-4.73"/><path class="cls-2" d="M156,76.18c-1.78,1.25-1.47,3,.5,2.74,6.49-.78,21-2.53,23.53.79s-2.87,17-5.3,23.11c-.74,1.85.84,2.6,2.51,1.2,10.8-9.1,13.6-28.16,11.38-30.91S167.54,68,156,76.18"/><path class="cls-1" d="M221.87,55V24.44h3l.36,4.44a15.1,15.1,0,0,1,4.53-3.62,11.45,11.45,0,0,1,5-1.07,19.07,19.07,0,0,1,2.49.19v3.1c-1.05-.08-2-.13-2.85-.13a11.34,11.34,0,0,0-5,1,13.19,13.19,0,0,0-4.17,3.34V55Z"/><path class="cls-1" d="M244.12,40.31q.07,6.39,2.8,9.43c1.83,2,4.64,3,8.46,3a24.49,24.49,0,0,0,10-2.13v2.86a20.62,20.62,0,0,1-10.28,2.43q-7.23,0-10.88-4.11T240.6,39.64q0-7.66,3.68-11.89t10.31-4.23c3.69,0,6.51,1.06,8.48,3.17S266,31.82,266,35.75a23.28,23.28,0,0,1-.37,4.56Zm10.16-13.68q-9.61,0-10.16,10.88h18.49c0-.57.07-1.23.07-2,0-2.91-.72-5.12-2.13-6.62S257,26.63,254.28,26.63Z"/><path class="cls-1" d="M268.82,63.79,289.43,9.17H293L272.35,63.79Z"/><path class="cls-1" d="M309.51,47a3.78,3.78,0,0,0-1.19-2.8,11.6,11.6,0,0,0-4-2.19L298.8,40q-6.51-2.45-6.51-8a7.56,7.56,0,0,1,2.83-6.11,11.23,11.23,0,0,1,7.39-2.35A21.86,21.86,0,0,1,307,24a22.13,22.13,0,0,1,4.26,1.34v2.86a29.26,29.26,0,0,0-8.88-1.58,8.11,8.11,0,0,0-5,1.3,4.58,4.58,0,0,0-1.7,3.87A4.2,4.2,0,0,0,296.82,35a15.41,15.41,0,0,0,4.66,2.46l4.86,1.83a11.62,11.62,0,0,1,5,3.13A6.93,6.93,0,0,1,312.85,47a7.91,7.91,0,0,1-3,6.54c-2,1.6-4.73,2.4-8.18,2.4a21.85,21.85,0,0,1-9.91-2.19V50.89a30,30,0,0,0,10.15,2,9.2,9.2,0,0,0,5.66-1.49A5.14,5.14,0,0,0,309.51,47Z"/><path class="cls-1" d="M335.11,54.36a16.33,16.33,0,0,1-6.14,1,7.38,7.38,0,0,1-5.48-1.91,7.64,7.64,0,0,1-1.88-5.57V27.48h-5.72V25l5.84-.54.49-8.94h2.85v8.88h9.74v3h-9.74V47.73a4.81,4.81,0,0,0,1.07,3.53,5,5,0,0,0,3.56,1,22.26,22.26,0,0,0,5.41-.73Z"/><path class="cls-1" d="M360,55l-.3-3.53a17.28,17.28,0,0,1-10.95,4.2,9.12,9.12,0,0,1-6.66-2.41,8.55,8.55,0,0,1-2.46-6.41,8.66,8.66,0,0,1,3-7c2-1.7,4.78-2.55,8.27-2.55a30.17,30.17,0,0,1,8.7,1.4V33.62c0-2.47-.59-4.25-1.76-5.32s-3.13-1.61-5.84-1.61a31.32,31.32,0,0,0-10.4,1.94V25.77a26.36,26.36,0,0,1,5.23-1.64,28.33,28.33,0,0,1,5.72-.61c3.56,0,6.21.75,7.93,2.25s2.59,3.77,2.59,6.82V55Zm-10.76-2.5a15.07,15.07,0,0,0,5-.94A28.31,28.31,0,0,0,359.62,49V41.34a30.42,30.42,0,0,0-7.91-1.09q-8.5,0-8.51,6.57a5.59,5.59,0,0,0,1.52,4.25A6.22,6.22,0,0,0,349.22,52.53Z"/><path class="cls-1" d="M370,55V24.44h3l.37,4.44A15.1,15.1,0,0,1,378,25.26a11.44,11.44,0,0,1,5-1.07,19.33,19.33,0,0,1,2.5.19v3.1c-1.06-.08-2-.13-2.86-.13a11.34,11.34,0,0,0-5,1,13.05,13.05,0,0,0-4.16,3.34V55Z"/><path class="cls-1" d="M407.73,54.36a16.39,16.39,0,0,1-6.15,1,7.37,7.37,0,0,1-5.47-1.91,7.61,7.61,0,0,1-1.89-5.57V27.48h-5.71V25l5.84-.54.48-8.94h2.86v8.88h9.73v3h-9.73V47.73a4.81,4.81,0,0,0,1.07,3.53,5,5,0,0,0,3.55,1,22.28,22.28,0,0,0,5.42-.73Z"/></svg>