<?xml version="1.0" encoding="UTF-8"?>
<svg width="159px" height="96px" viewBox="0 0 159 96" version="1.1" xmlns="http://www.w3.org/2000/svg" xmlns:xlink="http://www.w3.org/1999/xlink">
    <title>logo-credit-agricole</title>
    <defs>
        <polygon id="path-1" points="0 74 148 74 148 0 0 0"></polygon>
    </defs>
    <g id="Page-1" stroke="none" stroke-width="1" fill="none" fill-rule="evenodd">
        <g id="Desktop-HD" transform="translate(-182.000000, -752.000000)">
            <g id="Group-9" transform="translate(188.000000, 763.000000)">
                <path d="M147.990472,56 L145.803374,56 C145.785587,55.8919863 145.773518,55.7827019 145.767801,55.6734175 C145.950747,47.5444365 144.628833,39.6047971 142.751727,31.7331427 C141.913223,28.2201573 140.959742,24.746565 139.422485,21.4591375 C136.250145,14.6682551 131.027281,10.1437535 124.049276,7.54824875 C120.298241,6.21205623 116.444933,5.18338496 112.527468,4.47240092 C109.263019,3.81987134 105.999206,3.16670638 102.709348,2.81407354 C99.418855,2.46144071 95.9949635,2.42268287 92.6365008,2.24922564 L92,2.24922564 L92,0.0851401795 C92.2706081,0.0851401795 92.5482038,0.0457469621 92.8257994,0.0457469621 L147.20088,0.0457469621 C147.468312,0.0457469621 147.732568,0.0165197363 148,0 L147.990472,56 Z" id="Fill-1" fill="#F4BD06"></path>
                <mask id="mask-2" fill="white">
                    <use xlink:href="#path-1"></use>
                </mask>
                <g id="Clip-4"></g>
                <path d="M0,73.6235 L0.0196771853,73.4125 L0.387830976,73.4125 L55.403337,73.4125 C55.5893181,73.4125 55.7752992,73.4125 55.9612804,73.3765 L56,73.6085 L0,73.6235 Z" id="Fill-3" fill="#758CB3" mask="url(#mask-2)"></path>
                <path d="M44.9509839,19.0282627 L55,19.0282627 L55,53.9964163 L52.6238996,53.9964163 C50.8476281,53.9964163 49.077631,53.9739561 47.2950851,53.9964163 C46.8339196,54.0307306 46.3896948,53.8167341 46.1311912,53.4355333 C41.5703584,47.5646668 36.9976043,41.7025349 32.412929,35.8491375 L31.9486263,35.2620508 L31.9486263,53.9452568 L22,53.9452568 L22,19.0026829 L22.966879,19.0026829 L29.7632665,19.0026829 C30.2056089,18.9733598 30.6291282,19.1861085 30.8688088,19.5573269 C35.513718,25.5411187 40.1667839,31.5255344 44.8286339,37.5093262 C44.9415724,37.6534463 45.0576481,37.7882079 45.151136,37.9198501 C45.0865101,31.6078887 45.018747,25.3339851 44.9509839,19.0282627" id="Fill-5" fill="#23366A" mask="url(#mask-2)"></path>
                <path d="M91.645114,22.7334093 L86.1052184,28.7137247 L85.6138861,28.3034049 C82.2291526,25.5212832 78.4293922,24.8680949 74.3461231,26.1655236 C71.824323,26.9631547 70.2175671,28.8549719 69.4110874,31.4197903 C68.5400892,34.0977342 68.4755708,36.985312 69.2262174,39.7022427 C70.4154648,44.0534223 73.7245133,46.5095891 78.2029575,46.3945461 C80.3165548,46.338942 82.3755597,46.0206566 84.2403891,44.8772576 C84.610129,44.7059714 84.8291193,44.3071559 84.7819712,43.8923622 C84.7404065,42.5789553 84.7819712,41.2879179 84.7819712,39.9252982 L76.0099529,39.9252982 L76.0099529,32.0039528 L93,32.0039528 L93,32.6053717 L93,47.3078592 C92.9875926,47.6964487 92.8777873,48.0760904 92.6811303,48.4077975 C91.2245038,50.9067858 89.0122678,52.4732872 86.4110604,53.4223914 C80.609369,55.5372641 74.7698352,55.5935073 69.0512733,53.179523 C64.014497,51.0512286 61.008809,47.0189736 59.7047933,41.6426336 C58.4299349,36.3557715 58.8251099,31.2095174 61.3785489,26.3687662 C64.0845987,21.2359337 68.4073302,18.3918166 73.9186889,17.4037256 C77.2227744,16.758846 80.6248783,16.8879498 83.873751,17.7808108 C86.9594666,18.6679197 89.4905723,20.500298 91.645114,22.7334093" id="Fill-6" fill="#23366B" mask="url(#mask-2)"></path>
                <polygon id="Fill-7" fill="#23366A" mask="url(#mask-2)" points="126.983193 54 98 54 98 19 126.299289 19 126.299289 27.2634543 108.117647 27.2634543 108.117647 32.2478098 125.209438 32.2478098 125.209438 40.324781 108.147382 40.324781 108.147382 45.6620776 127 45.6620776"></polygon>
                <path d="M56,72.9770638 C55.8138247,72.9770638 55.6276494,73 55.4414742,73 L0.369173512,73 L0,73 L0,72.5024119 L0,17.5893328 L0,17 L2.19724958,17 C2.19724958,17.1408028 2.22647846,17.2816055 2.22330141,17.4192227 C2.10892752,24.4083917 2.99087732,31.2867025 4.50887305,38.0923819 C5.40353107,42.0667152 6.27849135,46.0346773 7.77361231,49.8350778 C10.7168338,57.2555748 15.8979712,62.4174934 23.3182953,65.3201966 C27.4484637,66.9403841 31.7514637,67.9189952 36.0805156,68.7733685 C39.1756002,69.382452 42.2840285,69.994721 45.4153315,70.3317557 C48.6800708,70.6853554 52.0102573,70.7082916 55.3080379,70.8752162 L55.9936459,70.8752162 L56,72.9770638 Z" id="Fill-8" fill="#23366A" mask="url(#mask-2)"></path>
            </g>
        </g>
    </g>
</svg>