<?xml version="1.0" encoding="UTF-8"?>
<svg width="146px" height="68px" viewBox="0 0 146 68" version="1.1" xmlns="http://www.w3.org/2000/svg" xmlns:xlink="http://www.w3.org/1999/xlink">
    <title>logo-part-amp</title>
    <defs>
        <polygon id="path-1" points="0 0 42 0 42 31 0 31"></polygon>
    </defs>
    <g id="Page-1" stroke="none" stroke-width="1" fill="none" fill-rule="evenodd">
        <g id="Desktop-HD" transform="translate(-1121.000000, -1003.000000)">
            <g id="Group-17" transform="translate(1138.000000, 1023.000000)">
                <polygon id="Fill-1" fill="#DBDBDB" points="60 6 65 6 65 1 60 1"></polygon>
                <polygon id="Fill-2" fill="#DBDBDB" points="60 19 65 19 65 14 60 14"></polygon>
                <polygon id="Fill-3" fill="#DBDBDB" points="6 6 11 6 11 1 6 1"></polygon>
                <polygon id="Fill-4" fill="#DBDBDB" points="28 6 33 6 33 1 28 1"></polygon>
                <polygon id="Fill-5" fill="#DBDBDB" points="39 6 44 6 44 1 39 1"></polygon>
                <polygon id="Fill-6" fill="#DBDBDB" points="6 19 11 19 11 14 6 14"></polygon>
                <polygon id="Fill-7" fill="#2865AA" points="0 28 6 28 6 1 0 1"></polygon>
                <polygon id="Fill-8" fill="#0A9FDA" points="11 28 17 28 17 1 11 1"></polygon>
                <polygon id="Fill-9" fill="#0FAFAF" points="22 28 28 28 28 1 22 1"></polygon>
                <polygon id="Fill-10" fill="#BDBD06" points="33 28 39 28 39 1 33 1"></polygon>
                <polygon id="Fill-11" fill="#F9B40D" points="43 28 49 28 49 1 43 1"></polygon>
                <polygon id="Fill-12" fill="#EE7D0A" points="54 28 60 28 60 1 54 1"></polygon>
                <polygon id="Fill-13" fill="#E6512A" points="65 19 71 19 71 2 65 2"></polygon>
                <g id="Group-16" transform="translate(76.000000, 0.000000)">
                    <mask id="mask-2" fill="white">
                        <use xlink:href="#path-1"></use>
                    </mask>
                    <g id="Clip-15"></g>
                    <path d="M39.2475588,2.4145664 L38.5215739,2.4145664 L38.5215739,1.44093662 L39.2475588,1.44093662 L39.2475588,0.269565988 L40.7048536,0.269565988 L40.7048536,1.44093662 L41.6420664,1.44093662 L41.6420664,2.4145664 L40.7048536,2.4145664 L40.7048536,6.18316986 C40.7048536,6.79146679 40.9560196,7.04418491 41.3962255,7.04418491 L41.9775459,7.04418491 L41.9775459,8.02047489 L41.3811378,8.02047489 C40.7048536,8.02047489 40.0214693,7.82007386 39.6105513,7.32173147 C39.3478477,6.97590668 39.2164959,6.54761598 39.2404587,6.11311817 L39.2404587,2.40924602 L39.2475588,2.4145664 Z M7.64414147,0.833526412 L9.39697781,0.833526412 L9.39697781,1.34961486e-14 L7.64414147,1.34961486e-14 L7.64414147,0.833526412 Z M16.066631,22.2285533 L16.9914186,27.0736472 L17.0437818,27.0736472 L17.9676819,22.2285533 L19.486215,22.2285533 L17.9827696,28.5376388 L16.0595309,28.5376388 L14.5338977,22.2285533 L16.066631,22.2285533 Z M18.862294,17.0890649 C18.862294,17.6122357 18.9998584,17.9146107 19.5261531,17.9146107 C19.8918081,17.9146107 20.1766994,17.7372647 20.1766994,17.1635502 C20.2290626,16.7920103 20.032035,16.4293376 19.6912303,16.2706129 L18.3688373,15.3971836 C18.2117477,15.2801352 18.0653082,15.1488992 17.9330689,15.0043621 C17.7653291,14.8216957 17.5674139,14.5689776 17.5674139,13.8932892 C17.5674139,12.5747213 18.4735638,12.2794402 19.593604,12.2794402 C20.9736853,12.2794402 21.5150676,12.8318731 21.5150676,13.7177166 L21.5150676,14.3189197 L20.2050998,14.3189197 L20.2050998,13.9287584 C20.1997747,13.8028427 20.1775869,13.6778137 20.1394239,13.5581051 C20.0586603,13.338196 19.8358948,13.2042998 19.6033666,13.2353353 C19.3681759,13.2353353 19.007846,13.2752382 19.007846,13.8409721 C19.007846,14.0262987 19.0247088,14.2736964 19.4782274,14.5689776 L20.9364098,15.527533 C21.0943869,15.6507885 21.2390514,15.7900051 21.3695157,15.9425227 C21.5461306,16.2378039 21.6233441,16.5818552 21.5896186,16.9241331 C21.5896186,17.332029 21.5896186,17.81175 21.3393402,18.1948175 C21.0890618,18.5778849 20.5680923,18.8607519 19.5181655,18.8607519 C17.82568,18.8607519 17.4768877,18.0671283 17.4768877,17.1990194 L17.4768877,16.6607742 L18.8800443,16.6607742 L18.8800443,17.0837445 L18.862294,17.0890649 Z M34.9040747,18.7179883 L36.3720197,18.7179883 L36.3720197,10.1122715 L34.9040747,10.1122715 L34.9040747,18.7179883 Z M2.72199952,13.4100212 L2.03861523,13.4100212 C1.51764564,13.4100212 1.46528243,13.8728944 1.46528243,14.2284732 L1.46528243,18.7330627 L0,18.7330627 L0,14.2284732 C0,12.9648826 0.607945769,12.4372781 1.7128983,12.4372781 L5.1395824,12.4372781 C6.24364742,12.4372781 6.84981817,12.9648826 6.84981817,14.2284732 L6.84981817,18.7330627 L5.38453574,18.7330627 L5.38453574,14.2284732 C5.38453574,13.8728944 5.33483506,13.4100212 4.81120294,13.4100212 L4.12693113,13.4100212 L4.12693113,18.7401566 L2.73974976,18.7401566 L2.73974976,13.3905131 L2.72199952,13.4100212 Z M1.76792405,5.16520356 C1.42978195,5.37713209 1.39250644,5.55979851 1.39250644,6.13794662 C1.39250644,6.6389492 1.48214516,6.92181614 1.82561233,6.92181614 L2.75483747,6.92181614 L2.75483747,4.68725597 L1.76792405,5.16520356 Z M0.585757967,1.92952497 C0.903487289,1.62626323 1.49723286,1.45335084 2.27114339,1.45335084 C2.67673641,1.44271008 3.07966689,1.5225158 3.45064693,1.68656089 C3.91215321,1.87366097 4.21124478,2.32500665 4.20236966,2.82246231 L4.20236966,7.89012554 L1.29488011,7.89012554 C0.00976263278,7.89012554 0.00710009657,6.87127252 0.00710009657,6.25056136 C0.00710009657,5.67773363 0.00710009657,5.38777285 0.132239299,5.1075661 C0.332817027,4.77238207 0.638121179,4.51257012 1.00111362,4.36891982 L2.75483747,3.53273322 L2.75483747,2.98473394 C2.77968781,2.68058547 2.55248472,2.41367967 2.24718056,2.38973796 C2.21700515,2.38707777 2.18682974,2.38707777 2.15576682,2.38973796 C1.85667525,2.36579624 1.59485919,2.58925226 1.57178388,2.88808034 C1.56912134,2.92000263 1.56912134,2.95281165 1.57267139,2.98473394 L1.57267139,3.48573652 L0.225428066,3.48573652 C0.225428066,2.55200959 0.225428066,2.26736919 0.57865787,1.93661881 L0.585757967,1.92952497 Z M28.602739,18.7153281 L30.0751216,18.7153281 L30.0751216,12.4142232 L28.602739,12.4142232 L28.602739,18.7153281 Z M14.1256421,2.75950446 C14.0848166,2.85438459 14.0608537,2.95547184 14.0528661,3.05744582 C14.0431035,3.14877903 14.0386659,3.24099897 14.040441,3.33321892 L14.040441,7.87505113 L12.5751585,7.87505113 L12.5751585,3.34563314 C12.5520832,2.91113533 12.683435,2.4819579 12.9461386,2.13435965 C13.3570567,1.63424381 14.0386659,1.43827643 14.7193877,1.43827643 L15.2501199,1.43827643 L15.2501199,2.41190621 L14.7318129,2.41190621 C14.4762094,2.38530431 14.2312561,2.52540768 14.1256421,2.75950446 L14.1256421,2.75950446 Z M36.4572209,2.75950446 C36.4155078,2.85438459 36.3906575,2.95458511 36.3826698,3.05744582 C36.3773448,3.14966576 36.3773448,3.24099897 36.3826698,3.33321892 L36.3826698,7.87505113 L34.9147249,7.87505113 L34.9147249,3.34563314 C34.8925371,2.91113533 35.0238889,2.4819579 35.2848174,2.13435965 C35.6957355,1.63424381 36.3800073,1.43827643 37.0580665,1.43827643 L37.5169103,1.43827643 L37.5169103,2.41190621 L37.0713792,2.41190621 C36.8157757,2.38530431 36.5725974,2.52540768 36.4669835,2.75950446 L36.4572209,2.75950446 Z M9.17687482,3.01044911 C9.20261267,2.67526509 8.95233426,2.38264412 8.6168547,2.35692894 C8.58401675,2.35426875 8.55117881,2.35426875 8.51834086,2.35692894 C8.18818637,2.33210049 7.90063246,2.57861149 7.87578212,2.90847514 C7.87311958,2.94217089 7.87311958,2.97586664 7.87666963,3.01044911 L7.87666963,4.13127612 L9.17687482,4.13127612 L9.17687482,3.01044911 Z M8.53076603,7.0938418 C8.86003301,7.11955698 9.14758692,6.87215925 9.17243726,6.54318233 C9.17509979,6.50948658 9.17509979,6.4749041 9.17154974,6.44120836 L9.17154974,5.90296311 L10.5392058,5.90296311 L10.5392058,6.35342206 C10.5392058,7.68972451 9.50702931,8.02224835 8.53520359,8.02224835 C7.02022048,8.02224835 6.42381237,7.28714899 6.42381237,6.02089823 L6.42381237,3.3004099 C6.42381237,2.51476692 6.70692872,2.08204257 7.12494691,1.79917563 C7.54740265,1.55000443 8.03020922,1.42320201 8.52011588,1.43384277 C9.10321131,1.41433471 9.67299406,1.60941536 10.1211877,1.98184205 C10.4273793,2.31879954 10.586244,2.76305138 10.5640562,3.21794399 L10.5640562,5.05702247 L7.87666963,5.05702247 L7.87666963,6.43322778 C7.85093178,6.76841181 8.10121019,7.06103278 8.43668975,7.08674796 C8.4695277,7.08940815 8.50236564,7.08940815 8.53520359,7.08674796 L8.53076603,7.0938418 Z M17.940169,3.00778892 L17.940169,6.45362258 C17.9170937,6.77727911 18.1611595,7.05925932 18.4851014,7.08231431 C18.5170519,7.0849745 18.5498898,7.0849745 18.5818402,7.08142758 C18.893357,7.10714275 19.1667107,6.87570617 19.1924485,6.56446386 C19.1951111,6.52722119 19.1942236,6.48997852 19.1906735,6.45362258 L19.1906735,3.00778892 C19.2164114,2.68679258 18.9776706,2.4056991 18.6563912,2.37909719 C18.6226658,2.376437 18.5898278,2.376437 18.5569899,2.37909719 C18.2419231,2.35249529 17.9659069,2.58570534 17.9392815,2.89960784 C17.936619,2.93596378 17.936619,2.97143298 17.940169,3.00778892 L17.940169,3.00778892 Z M18.5889403,1.44093662 C20.4101151,1.44093662 20.6275556,2.48461809 20.6275556,3.24809281 L20.6275556,6.21863907 C20.6275556,6.98122706 20.4101151,8.02224835 18.5889403,8.02224835 C16.7686531,8.02224835 16.4979619,6.97679341 16.4979619,6.21863907 L16.4979619,3.24809281 C16.4979619,2.49703231 16.763328,1.44093662 18.5889403,1.44093662 L18.5889403,1.44093662 Z M30.1860606,3.00778892 L30.1860606,6.45362258 C30.1612102,6.77639238 30.4026135,7.05748586 30.7247804,7.08231431 C30.7585059,7.0849745 30.7913438,7.0849745 30.8241817,7.08142758 C31.1356985,7.10714275 31.4090522,6.87570617 31.4347901,6.56446386 C31.4374526,6.52722119 31.4374526,6.48997852 31.433015,6.45362258 L31.433015,3.00778892 C31.4596404,2.68679258 31.2200121,2.4056991 30.8987328,2.37909719 C30.8658948,2.376437 30.8321694,2.376437 30.7993314,2.37909719 C30.4851521,2.35426875 30.2100234,2.58836553 30.1842855,2.90226803 C30.181623,2.93773724 30.1825105,2.97231971 30.1860606,3.00778892 L30.1860606,3.00778892 Z M30.8241817,1.44093662 C32.6480191,1.44093662 32.862797,2.48461809 32.862797,3.24809281 L32.862797,6.21863907 C32.862797,6.98122706 32.6480191,8.02224835 30.8241817,8.02224835 C29.001232,8.02224835 28.7332033,6.97679341 28.7332033,6.21863907 L28.7332033,3.24809281 C28.7332033,2.49703231 28.9985694,1.44093662 30.8241817,1.44093662 L30.8241817,1.44093662 Z M24.0640023,3.00512873 L24.0640023,6.45096239 C24.039152,6.77373219 24.2805552,7.05482567 24.6036096,7.07965412 C24.6364476,7.08231431 24.670173,7.08231431 24.703011,7.07876739 C25.0145277,7.10448256 25.2878814,6.87304598 25.3136193,6.56180367 C25.3162818,6.524561 25.3162818,6.48820506 25.3118443,6.45096239 L25.3118443,3.00778892 C25.3375821,2.68679258 25.0988414,2.40481237 24.777562,2.37909719 C24.7438365,2.376437 24.7092236,2.376437 24.6754981,2.37909719 C24.3622064,2.35249529 24.0870776,2.58481861 24.0604523,2.89694765 C24.0577897,2.93419032 24.0577897,2.97054625 24.0622273,3.00778892 L24.0640023,3.00512873 Z M22.6191326,3.25518666 C22.6191326,2.50501289 22.8844988,1.44891719 24.7101111,1.44891719 C26.5366109,1.44891719 26.7496138,2.49171193 26.7496138,3.25518666 L26.7496138,6.22573291 C26.7496138,6.98920764 26.5339484,8.03288911 24.7101111,8.03288911 C24.4971082,8.0355493 24.2849928,7.99298625 24.0897401,7.90786015 L24.0897401,10.3552356 L22.6191326,10.3552356 L22.6191326,3.25518666 Z M10.1309503,15.9957265 C9.79280819,16.2076551 9.75553269,16.3903215 9.75553269,16.9666961 C9.75553269,17.466812 9.84517141,17.7523391 10.1886386,17.7523391 L11.0228999,17.7523391 L11.0228999,15.5177789 L10.1309503,15.9957265 Z M8.84849535,12.7600479 C9.16888721,12.4567862 9.75997025,12.2838738 10.5338808,12.2838738 C10.9394738,12.273233 11.3424043,12.3530388 11.7142718,12.5170839 C12.1811032,12.700637 12.4899574,13.1493225 12.4952825,13.6503251 L12.4952825,18.7179883 L9.64725621,18.7179883 C8.36480127,18.7179883 8.36036371,17.7017955 8.36036371,17.0793109 C8.36036371,16.5082566 8.36036371,16.2156356 8.48550291,15.9354289 C8.61064211,15.6552221 8.96919699,15.4202386 9.36413986,15.2145172 L11.0255625,14.3641429 L11.0255625,13.8161436 C11.0495253,13.5111084 10.8223222,13.2442026 10.5179056,13.2202609 C10.4877301,13.2176007 10.4566672,13.2176007 10.4264918,13.2202609 C10.1274002,13.1963192 9.86558418,13.4197752 9.84162136,13.7186033 C9.83895882,13.7514123 9.83984633,13.7833346 9.84250887,13.8161436 L9.84250887,14.3162595 L8.49260301,14.3162595 C8.49260301,13.3825326 8.49260301,13.095232 8.84583281,12.7671418 L8.84849535,12.7600479 Z M15.8092525,13.6051018 C15.7693145,13.699982 15.7444641,13.8010692 15.7364765,13.9030432 C15.732039,13.9943764 15.732039,14.0848229 15.7364765,14.1761561 L15.7364765,18.7206485 L14.2561064,18.7206485 L14.2561064,14.1912305 C14.2330311,13.755846 14.3652704,13.3266686 14.629749,12.979957 C15.0380045,12.4798412 15.7213888,12.2838738 16.4003356,12.2838738 L16.8787046,12.2838738 L16.8787046,13.2575036 L16.4100982,13.2575036 C16.1544947,13.2309017 15.9113164,13.3710051 15.80659,13.6051018 L15.8092525,13.6051018 Z M31.8137577,18.7179883 L33.2817027,18.7179883 L33.2817027,10.1122715 L31.8137577,10.1122715 L31.8137577,18.7179883 Z M1.47238253,23.6499818 L1.47238253,27.0984757 C1.44930721,27.4230189 1.69248552,27.7041124 2.01731494,27.7271674 C2.04837786,27.7298276 2.07944078,27.7298276 2.11139122,27.7271674 C2.42379547,27.7519959 2.6980367,27.5196725 2.72377455,27.2066568 C2.72643708,27.1703008 2.72643708,27.1348316 2.72199952,27.0984757 L2.72199952,23.6650563 C2.74684986,23.3431732 2.50544658,23.061193 2.18239218,23.0372513 C2.15132926,23.0345911 2.11937883,23.0345911 2.0883159,23.0372513 C1.77236161,23.0124228 1.49634535,23.2474063 1.47149501,23.5630823 C1.46883248,23.596778 1.46883248,23.6313605 1.47238253,23.6650563 L1.47238253,23.6499818 Z M0.0292878984,23.9009265 C0.0292878984,23.149866 0.292878984,22.0937703 2.11849131,22.0937703 C3.94410364,22.0937703 4.15976908,23.1374518 4.15976908,23.9009265 L4.15976908,26.870586 C4.15976908,27.6340607 3.94232862,28.6777422 2.11849131,28.6777422 C1.90637593,28.6804024 1.69514806,28.6387261 1.4998954,28.5553734 L1.4998954,31.0000887 L0.0292878984,31.0000887 L0.0292878984,23.9009265 Z M7.39120053,23.4149983 C7.34859995,23.5098785 7.32374961,23.6118524 7.315762,23.7155999 C7.31132444,23.8060464 7.31132444,23.8973796 7.315762,23.9878261 L7.315762,28.530545 L5.84781704,28.530545 L5.84781704,24.0002403 C5.82562924,23.5666292 5.95698102,23.1392252 6.21879708,22.791627 C6.62971517,22.2915111 7.31309947,22.0937703 7.9920462,22.0937703 L8.5431912,22.0937703 L8.5431912,23.0700603 L8.00447137,23.0700603 C7.74975541,23.0425716 7.5065771,23.1817883 7.40096316,23.4149983 L7.39120053,23.4149983 Z M10.8702478,23.6650563 L10.8702478,27.1135501 C10.846285,27.4380934 11.0903508,27.7191868 11.4142927,27.7431286 C11.4462432,27.744902 11.4790811,27.744902 11.5110316,27.7422418 C11.8225483,27.7670703 12.095902,27.5356337 12.1216399,27.2243914 C12.1243024,27.1871487 12.1243024,27.1507928 12.1198648,27.1135501 L12.1198648,23.6650563 C12.1456027,23.3440599 11.9068619,23.0629664 11.5855826,23.0372513 C11.5527446,23.0337043 11.5190192,23.0345911 11.4861812,23.0372513 C11.1702269,23.0124228 10.8942107,23.2474063 10.8684728,23.5630823 C10.8658103,23.596778 10.8666978,23.6313605 10.8702478,23.6650563 L10.8702478,23.6650563 Z M11.5181317,22.0911101 C13.341969,22.0911101 13.5576344,23.1347916 13.5576344,23.8982663 L13.5576344,26.8688126 C13.5576344,27.6314005 13.341969,28.675082 11.5181317,28.675082 C9.69518187,28.675082 9.42715322,27.6269669 9.42715322,26.8688126 L9.42715322,23.9053601 C9.42715322,23.1551864 9.69251933,22.0990907 11.5181317,22.0990907 L11.5181317,22.0911101 Z M28.4980126,22.0911101 C30.3706631,22.0911101 30.5960911,23.1649404 30.5960911,23.9505834 L30.5960911,28.5278848 L29.1290337,28.5278848 L29.1290337,23.6827909 C29.1494465,23.3458334 28.8929555,23.0567593 28.5565884,23.0363645 C28.5255255,23.0345911 28.4953501,23.0345911 28.4651747,23.0372513 C28.1341327,23.0088759 27.8430287,23.2536134 27.8146283,23.5834771 C27.8110783,23.6162861 27.8110783,23.6499818 27.8137408,23.6827909 L27.8137408,28.5349786 L26.3457958,28.5349786 L26.3457958,23.9505834 C26.3457958,23.1702608 26.6191496,22.0911101 28.4980126,22.0911101 L28.4980126,22.0911101 Z M34.443456,22.0990907 C36.316994,22.0990907 36.5397595,23.1720342 36.5397595,23.958564 L36.5397595,24.5012429 L35.072702,24.5012429 L35.072702,23.6827909 C35.0940023,23.3476068 34.8401739,23.0585328 34.5046943,23.0363645 C34.4736314,23.0337043 34.4425685,23.0345911 34.4115055,23.0372513 C34.0804635,23.0088759 33.7893596,23.2536134 33.7600717,23.5834771 C33.7574091,23.6162861 33.7574091,23.6499818 33.7600717,23.6827909 L33.7600717,27.094042 C33.7334463,27.4247924 33.9810622,27.7138665 34.3121042,27.7395816 C34.3449421,27.7422418 34.3777801,27.7422418 34.4115055,27.7395816 C34.7460976,27.7688437 35.0416391,27.5223327 35.070927,27.1871487 C35.0735895,27.1561131 35.0744771,27.1250776 35.072702,27.094042 L35.072702,26.27559 L36.5397595,26.27559 L36.5397595,26.8182689 C36.5397595,27.6039119 36.316994,28.6777422 34.443456,28.6777422 C32.569918,28.6777422 32.2921267,27.5994783 32.2921267,26.8182689 L32.2921267,23.9505834 C32.2921267,23.1702608 32.5654804,22.0911101 34.443456,22.0911101 L34.443456,22.0990907 Z M25.6446613,13.8560465 C25.6712867,13.5208625 25.4201207,13.2282415 25.0855287,13.2025263 C25.0526907,13.1998661 25.0189653,13.1998661 24.9861273,13.2025263 C24.6577479,13.1776979 24.3710815,13.4233221 24.3462311,13.7514123 C24.3435686,13.7859948 24.3435686,13.8205773 24.3471186,13.8560465 L24.3471186,14.9768735 L25.6446613,14.9768735 L25.6446613,13.8560465 Z M25.0038776,17.9447596 C25.3313695,17.9713615 25.6189234,17.7266239 25.6455488,17.3994205 C25.6490989,17.3630645 25.6482113,17.3275953 25.6446613,17.2912394 L25.6446613,16.7538809 L27.0123174,16.7538809 L27.0123174,17.1936991 C27.0123174,18.5326617 25.9801409,18.8634121 25.0083151,18.8634121 C23.5057572,18.8634121 22.8969239,18.127426 22.8969239,16.8611752 L22.8969239,14.1460073 C22.8969239,13.3603643 23.1800403,12.92764 23.5980585,12.644773 C24.0214017,12.3956018 24.5050958,12.2687994 24.99589,12.2794402 C25.5789854,12.2599321 26.1478806,12.4550127 26.5969618,12.8274394 C26.9031534,13.1635102 27.0629056,13.6086488 27.0398303,14.0635414 L27.0398303,15.9026199 L24.3444561,15.9026199 L24.3444561,17.2788252 C24.3204933,17.6157827 24.5734342,17.9084036 24.9098013,17.9323453 C24.9408642,17.9350055 24.9728147,17.9350055 25.0038776,17.9323453 L25.0038776,17.9447596 Z M23.2776666,23.6606226 C23.3051795,23.3254386 23.0557886,23.0319309 22.7211965,23.0044422 C22.6874711,23.001782 22.6546331,23.001782 22.6217952,23.0044422 C22.2934157,22.9778403 22.0058618,23.2225779 21.9792364,23.5497813 C21.9765739,23.587024 21.9765739,23.6233799 21.980124,23.6606226 L21.980124,24.7814496 L23.2776666,24.7814496 L23.2776666,23.6606226 Z M22.6413204,27.7564295 C22.9696999,27.7830314 23.2572538,27.5391806 23.2838792,27.2110904 C23.2865417,27.1756212 23.2865417,27.1392653 23.2829917,27.1037961 L23.2829917,26.5655508 L24.6533103,26.5655508 L24.6533103,27.0160098 C24.6533103,28.3549724 23.6211338,28.6874962 22.6493081,28.6874962 C21.134325,28.6874962 20.5405794,27.9373225 20.5405794,26.6861461 L20.5405794,23.9505834 C20.5405794,23.1676006 20.8210332,22.7348762 21.2390514,22.4493491 C21.6615071,22.1984045 22.1452012,22.071602 22.6368829,22.0813561 C23.2190908,22.0609613 23.787986,22.2578154 24.2344046,22.6320155 C24.5432588,22.9671996 24.7038985,23.4132249 24.6808232,23.8681175 L24.6808232,25.707196 L21.980124,25.707196 L21.980124,27.0816278 C21.9526111,27.4141516 22.2011145,27.7067726 22.534819,27.7342613 C22.5685445,27.7369214 22.6031574,27.7369214 22.6368829,27.7342613 L22.6413204,27.7564295 Z M40.5974647,13.8684607 C40.622315,13.5315032 40.3693741,13.239769 40.033007,13.2149405 C40.0010566,13.2122804 39.9699936,13.2122804 39.9389307,13.2149405 C39.6105513,13.1883386 39.3229973,13.4330762 39.296372,13.7611664 C39.2937094,13.7966356 39.2937094,13.8321048 39.2972595,13.8684607 L39.2972595,14.9892877 L40.5974647,14.9892877 L40.5974647,13.8684607 Z M39.9540184,17.9447596 C40.2832854,17.9713615 40.5717268,17.7257372 40.5983522,17.3967603 C40.6010147,17.3612911 40.6010147,17.3267086 40.5974647,17.2912394 L40.5974647,16.7538809 L41.9580207,16.7538809 L41.9580207,17.1936991 C41.9580207,18.5326617 40.9258441,18.8634121 39.9540184,18.8634121 C38.4514605,18.8634121 37.8452897,18.127426 37.8452897,16.8611752 L37.8452897,14.1460073 C37.8452897,13.3603643 38.1284061,12.92764 38.5437617,12.644773 C38.9662175,12.3947151 39.4507991,12.2687994 39.9415933,12.2794402 C40.5238012,12.2599321 41.0935839,12.4550127 41.5417775,12.8274394 C41.8488567,13.1635102 42.0077214,13.6086488 41.9855336,14.0635414 L41.9855336,15.9026199 L39.2928219,15.9026199 L39.2928219,17.2788252 C39.2590965,17.6131225 39.5040498,17.9110638 39.8377543,17.9447596 C39.8768049,17.9483065 39.9149679,17.9483065 39.9540184,17.9447596 L39.9540184,17.9447596 Z M40.5921396,23.6774705 C40.618765,23.3413997 40.3667115,23.047892 40.0303445,23.0221768 C39.998394,23.0195166 39.9655561,23.0195166 39.9336056,23.0221768 C39.6061137,22.9955749 39.3176723,23.2394257 39.2910469,23.5675159 C39.2883844,23.6038719 39.2883844,23.6411145 39.2928219,23.6774705 L39.2928219,24.7991842 L40.5921396,24.7991842 L40.5921396,23.6774705 Z M39.9540184,27.7519959 C40.2832854,27.7785978 40.5717268,27.5329735 40.5983522,27.2031098 C40.6010147,27.1685274 40.6010147,27.1339449 40.5974647,27.0984757 L40.5974647,26.5611172 L41.9580207,26.5611172 L41.9580207,27.0106894 C41.9580207,28.349652 40.9258441,28.6830626 39.9540184,28.6830626 C38.4514605,28.6830626 37.8452897,27.9320021 37.8452897,26.6808257 L37.8452897,23.9505834 C37.8452897,23.1676006 38.1284061,22.7348762 38.5437617,22.4493491 C38.9715426,22.2028381 39.4605617,22.0813561 39.9540184,22.0990907 C40.5371139,22.0786959 41.1068966,22.2746633 41.5542027,22.6497501 C41.8612819,22.9858209 42.021034,23.4309595 41.9979587,23.8858521 L41.9979587,25.7249306 L39.2928219,25.7249306 L39.2928219,27.0984757 C39.2653091,27.4318862 39.5129249,27.7245072 39.8466295,27.7519959 C39.8812424,27.754656 39.9149679,27.754656 39.9486933,27.7519959 L39.9540184,27.7519959 Z M28.5929764,11.5833569 L30.0653589,11.5833569 L30.0653589,10.1122715 L28.5929764,10.1122715 L28.5929764,11.5833569 Z" id="Fill-14" fill="#020303" mask="url(#mask-2)"></path>
                </g>
            </g>
        </g>
    </g>
</svg>