<?xml version="1.0" encoding="UTF-8"?>
<svg width="99px" height="96px" viewBox="0 0 99 96" version="1.1" xmlns="http://www.w3.org/2000/svg" xmlns:xlink="http://www.w3.org/1999/xlink">
    <title>logo-credit-agricole</title>
    <g id="Page-1" stroke="none" stroke-width="1" fill="none" fill-rule="evenodd">
        <g id="Desktop-HD" transform="translate(-399.000000, -752.000000)">
            <g id="Group-17" transform="translate(405.000000, 757.000000)">
                <polygon id="Fill-1" fill="#EB671C" points="0 87 87 87 87 0 0 0"></polygon>
                <g id="Group-16" transform="translate(5.000000, 63.000000)" fill="#FEFEFE">
                    <path d="M5.99216091,6.83646133 C3.62061013,6.83646133 3.17634388,8.94093333 3.17634388,10.4622233 C3.17634388,11.9828862 3.60718626,14.0917477 5.99216091,14.0917477 C8.37713556,14.0917477 8.81053487,11.9766154 8.81053487,10.4622233 C8.81053487,8.9472041 8.37905326,6.83646133 5.99216091,6.83646133 M5.99216091,16.7292355 C2.84202554,16.7292355 0,14.7620935 0,10.4622233 C0,6.16172596 2.84202554,4.1927027 5.99216091,4.1927027 C9.14229628,4.1927027 11.9824041,6.16172596 11.9824041,10.4622233 C11.9824041,14.7620935 9.14485321,16.7292355 5.99216091,16.7292355" id="Fill-2"></path>
                    <path d="M14.1686415,4.5075583 L17.200519,4.5075583 L17.200519,5.90343275 C17.7783847,5.14843147 19.2013152,4.262371 20.5360316,4.262371 C20.6741058,4.25923562 20.8121799,4.26487931 20.950254,4.2793021 L20.950254,7.21527883 L20.7949206,7.21527883 C19.4084264,7.21527883 17.892168,7.42660394 17.4031555,8.48448363 L17.4031555,16.3844056 L14.1686415,16.3844056 L14.1686415,4.5075583 Z" id="Fill-4"></path>
                    <path d="M24.9540837,12.8479395 C24.9540837,13.6474633 25.4648301,14.3943126 26.3904381,14.3943126 C27.3908362,14.3943126 28.3675827,13.9879664 29.3417723,13.1420389 L29.3417723,10.3289693 C26.3642295,10.6901659 24.9540837,11.443286 24.9540837,12.8479395 L24.9540837,12.8479395 Z M29.4172017,15.3499786 C28.2327047,16.1269276 26.8385397,16.5382905 25.4130523,16.530867 C23.1559241,16.530867 21.816733,15.0496085 21.816733,13.0761957 C21.816733,10.415506 24.3071809,9.01085246 29.4434102,8.44397443 L29.4434102,7.78178062 C29.4434102,6.91892201 28.7773304,6.41349757 27.5436126,6.41349757 C26.3923558,6.38339785 25.2941552,6.8913306 24.5852468,7.78178062 L22.4291173,6.58030018 C23.5573618,5.02953758 25.2762567,4.25384275 27.5845235,4.25384275 C30.7436081,4.25384275 32.5181162,5.59453439 32.5181162,7.77989938 L32.5181162,16.389046 L29.6997422,16.389046 L29.4172017,15.3480974 L29.4172017,15.3499786 Z" id="Fill-6"></path>
                    <path d="M35.045256,4.82272743 L37.684645,4.46717451 L37.9754956,5.87370928 C39.4636277,4.80579634 40.6449285,4.23891831 42.1330606,4.23891831 C44.6235085,4.23891831 45.9128395,5.53571452 45.9128395,8.10359678 L45.9128395,16.3741216 L42.723711,16.3741216 L42.723711,8.64727295 C42.723711,7.19182613 42.3395325,6.53214063 41.186358,6.53214063 C40.2351807,6.53214063 39.2846427,6.95479084 38.199866,7.8496304 L38.199866,16.3678508 L35.045256,16.3678508 L35.045256,4.82272743 Z" id="Fill-8"></path>
                    <path d="M59.395649,4.46316121 L59.395649,15.7116769 C59.395649,17.6938688 59.235841,20.9703486 53.4706075,20.9998213 C51.0984175,21.0148711 48.8796431,20.0798986 48.4398515,18.0387614 L51.5835946,17.541489 C51.7127194,18.1252981 52.0815563,18.7053448 53.8624567,18.7053448 C55.5142322,18.7053448 56.3081584,17.9309041 56.3081584,16.0760089 L56.3081584,14.692676 L56.2672475,14.6500348 C55.7603365,15.5404848 54.9907012,16.3826498 53.1401245,16.3826498 C50.3159975,16.3826498 48.0946662,14.4600303 48.0946662,10.4448532 C48.0946662,6.4704362 50.3869522,4.24556533 52.9592219,4.24305702 C55.378715,4.24305702 56.2710829,5.31974904 56.4826687,5.88662708 L56.4392009,5.88662708 L56.7044822,4.46504244 L59.395649,4.46316121 Z M53.7115979,13.8316987 C56.1266165,13.8147676 56.3337277,11.3992651 56.3337277,9.82969023 C56.3337277,7.96601598 55.4087589,6.45977589 53.6905033,6.45977589 C52.5449995,6.45977589 51.2665355,7.2806203 51.2665355,9.95824111 C51.2665355,11.4199587 51.3720088,13.8523922 53.7115979,13.8316987 L53.7115979,13.8316987 Z" id="Fill-10"></path>
                    <path d="M69.4070451,8.86493154 C69.4070451,7.27842553 68.4776018,6.34345302 66.9664573,6.34345302 C65.5256283,6.34345302 64.6243112,7.25710489 64.499661,8.86493154 L69.4070451,8.86493154 Z M67.0156782,16.6005593 C63.4474851,16.6005593 61.3188425,14.3474699 61.3188425,10.4407772 C61.3188425,6.48768083 63.474972,4.23898101 66.9664573,4.23898101 C70.4573033,4.23898101 72.5354466,6.4218377 72.5354466,10.2821266 C72.5354466,10.4934517 72.5098773,10.6922353 72.5098773,10.8954084 L64.4478832,10.8954084 C64.4689778,13.150379 65.4246297,14.2797455 67.2982187,14.2797455 C68.5038103,14.2797455 69.3015719,13.8019125 70.0494733,12.7590826 L72.3807525,14.0282875 C71.3541459,15.7201425 69.5042084,16.5961697 67.0156782,16.5961697 L67.0156782,16.6005593 Z" id="Fill-12"></path>
                    <path d="M70.6209467,0 L70.6209467,0.520474303 L71.8738415,0.520474303 L71.8738415,3.92613206 L72.5380036,3.92613206 L72.5380036,0.520474303 L73.792816,0.520474303 L73.792816,0 L70.6209467,0 Z M77.9906526,0 L76.8176619,2.97799092 L75.6235765,0 L74.6014445,0 L74.6014445,3.92613206 L75.2630496,3.92613206 L75.2630496,0.649652263 L75.2803089,0.649652263 L76.5939307,3.92613206 L77.0247731,3.92613206 L78.3185787,0.649652263 L78.3403126,0.649652263 L78.3403126,3.92613206 L79,3.92613206 L79,0 L77.9906526,0 Z" id="Fill-14"></path>
                </g>
            </g>
        </g>
    </g>
</svg>