<?xml version="1.0" encoding="UTF-8"?>
<svg width="159px" height="52px" viewBox="0 0 159 52" version="1.1" xmlns="http://www.w3.org/2000/svg" xmlns:xlink="http://www.w3.org/1999/xlink">
    <title>logo-part-vprive</title>
    <defs>
        <polygon id="path-1" points="0 0 10.0185508 0 10.0185508 12.6632234 0 12.6632234"></polygon>
        <polygon id="path-3" points="0 18 148 18 148 0 0 0"></polygon>
    </defs>
    <g id="Page-1" stroke="none" stroke-width="1" fill="none" fill-rule="evenodd">
        <g id="Desktop-HD" transform="translate(-182.000000, -900.000000)">
            <g id="Group-27" transform="translate(188.000000, 918.000000)">
                <polygon id="Fill-1" fill="#1E1E1E" points="45.0695762 6 47 6 42.940544 15 41.059456 15 37 6 38.9803922 6 42.0499684 13.0822453"></polygon>
                <g id="Group-26">
                    <path d="M53.1419549,5.00578718 C56.6460515,5.00578718 58.3240074,7.19744866 58.3240074,9.77865588 C58.3240074,12.3604854 56.5968667,14.5521469 53.1419549,14.5521469 C49.687043,14.5521469 47.9599023,12.3604854 47.9599023,9.77865588 C47.9599023,7.19744866 49.687043,5.00578718 53.1419549,5.00578718 M53.1419549,6.41835719 C50.674521,6.41835719 49.786043,8.12277536 49.786043,9.77865588 C49.786043,11.3859988 50.674521,13.1395769 53.1419549,13.1395769 C55.6093887,13.1395769 56.4978667,11.4345364 56.4978667,9.77865588 C56.547682,8.17131301 55.659204,6.41835719 53.1419549,6.41835719" id="Fill-2" fill="#1E1E1E"></path>
                    <g id="Group-6" transform="translate(58.891965, 5.336777)">
                        <mask id="mask-2" fill="white">
                            <use xlink:href="#path-1"></use>
                        </mask>
                        <g id="Clip-5"></g>
                        <path d="M8.09404065,0 L10.0185508,0 L5.33023727,10.4716864 C4.49094403,12.3708774 3.80046611,12.6633479 2.22087965,12.6633479 C1.77695595,12.6633479 1.38221698,12.6141879 0.937662703,12.6141879 L0.937662703,11.2022402 C1.23403222,11.2022402 1.52977116,11.2507778 1.92451013,11.2507778 C2.96117287,11.2507778 3.25754238,11.0074673 3.80046611,9.88674549 L4.14602036,9.05911637 L0,0 L1.97432544,0 L5.03386776,7.06222775 L8.09404065,0 Z" id="Fill-4" fill="#1E1E1E" mask="url(#mask-2)"></path>
                    </g>
                    <path d="M69.823586,8.12289981 C70.0701402,5.88270068 71.600542,5.00591164 74.2653453,5.00591164 C76.091486,5.00591164 78.3615504,5.44399502 78.3615504,7.53858121 L78.3615504,12.3599876 C78.3615504,12.8957685 78.6087351,13.1397013 79.1516589,13.1397013 C79.3490284,13.1397013 79.5955826,13.0905414 79.7437673,13.0905414 L79.7437673,14.2598009 C79.3490284,14.3083385 78.8061046,14.3568762 78.4113657,14.3568762 C77.5720724,14.3568762 76.979964,14.1135657 76.8809639,13.0905414 C76.190486,14.0158681 74.5118995,14.551649 73.0811284,14.551649 C70.1199555,14.551649 69.428847,13.0420037 69.428847,11.8733665 C69.428847,10.217486 70.4156945,9.3892346 73.2784979,9.09676416 L75.203008,8.90199129 C76.1406707,8.80491599 76.7334097,8.61014312 76.7334097,7.83042937 C76.7334097,6.61325451 75.5485622,6.36932172 74.1669758,6.36932172 C72.6863894,6.36932172 71.4523572,6.75886745 71.4031725,8.12289981 L69.823586,8.12289981 Z M76.7825945,9.58400747 C76.5354097,9.87647791 76.0423013,9.9735532 75.1046385,10.1197884 L73.1794978,10.3630989 C71.8470962,10.5093342 71.1559877,10.8988799 71.1559877,11.8242066 C71.1559877,12.652458 71.9952809,13.2367766 73.2286826,13.2367766 C75.1538233,13.2367766 76.7825945,12.2143746 76.7825945,10.7526447 L76.7825945,9.58400747 Z" id="Fill-7" fill="#1E1E1E"></path>
                    <path d="M88.9159625,5.3 L90.6431031,5.3 L90.6431031,13.4823273 C90.6431031,16.6970131 89.1133319,17.9633479 85.4118659,17.9633479 C83.4867252,17.9633479 81.2658455,17.6708774 80.9209218,15.1867455 L82.6480625,15.1867455 C82.944432,16.356005 83.9804642,16.6484754 85.6092353,16.6484754 C88.0274845,16.6484754 88.9159625,15.4306783 88.9159625,13.9695706 L88.9159625,12.6546982 L88.8667777,12.6546982 C87.929115,14.0181083 86.546898,14.3105787 85.4118659,14.3105787 C83.0428015,14.3105787 80.5255523,12.995084 80.5255523,9.73186061 C80.5255523,6.42009956 83.0428015,5.10522713 85.4118659,5.10522713 C86.8924523,5.10522713 88.224854,5.59247044 88.9159625,6.61487243 L88.9651472,6.61487243 L88.9159625,5.3 Z M85.6092353,6.51779714 C83.5365405,6.51779714 82.3025082,7.88120722 82.3025082,9.73186061 C82.3025082,11.5831363 83.5365405,12.8980087 85.6092353,12.8980087 C87.6819302,12.8980087 88.9159625,11.5831363 88.9159625,9.73186061 C88.9159625,7.88120722 87.6819302,6.51779714 85.6092353,6.51779714 L85.6092353,6.51779714 Z" id="Fill-9" fill="#1E1E1E"></path>
                    <path d="M94.0069602,10.2658992 C94.1551449,12.1165526 95.7839161,13.0910392 97.3136873,13.0910392 C98.3005347,13.0910392 99.633567,12.7500311 100.176491,11.4836963 L102.002001,11.4836963 C101.163338,13.6268202 99.139828,14.5029869 97.4126873,14.5029869 C93.9079601,14.5029869 92.2300042,12.3113255 92.2300042,9.73011823 C92.2300042,7.14891101 93.9577754,4.95724953 97.4126873,4.95724953 C99.7811211,4.95724953 102.249186,6.32065961 102.249186,10.0225887 L102.249186,10.2658992 L94.0069602,10.2658992 Z M100.423045,8.95102676 C100.176491,7.34368388 98.8932737,6.41835719 97.3136873,6.41835719 C95.7341008,6.41835719 94.3033297,7.34368388 94.0561449,8.95102676 L100.423045,8.95102676 Z" id="Fill-11" fill="#1E1E1E"></path>
                    <path d="M112.119867,4.95712508 C110.195357,4.95712508 108.961325,5.78537648 108.369216,6.71070317 L108.369216,5.24959552 L107.283369,5.24959552 L107.283369,17.7175482 L108.369216,17.7175482 L108.369216,12.7499067 C108.862325,13.4319228 109.997357,14.5520224 112.119867,14.5520224 C114.932855,14.5520224 116.956365,12.6036714 116.956365,9.7791537 C116.90718,7.39209708 115.426594,4.95712508 112.119867,4.95712508 M115.821333,9.7791537 C115.821333,12.3603609 113.946008,13.5289981 112.070682,13.5289981 C110.195357,13.5289981 108.221031,12.5065961 108.221031,9.63291848 C108.221031,8.99943995 108.418401,5.93098942 112.169052,5.93098942 C114.389931,5.98014935 115.821333,7.48979465 115.821333,9.7791537" id="Fill-13" fill="#1E1E1E"></path>
                    <path d="M123.125833,4.95712508 C121.546246,4.95712508 120.312845,5.63914126 119.621736,6.80777847 L119.621736,5.24959552 L118.535889,5.24959552 L118.535889,14.259552 L119.621736,14.259552 L119.621736,9.38898569 C119.621736,7.78226509 120.658399,6.02868699 122.879278,6.02868699 C123.372387,6.02868699 123.569756,6.07722464 123.717941,6.12576229 L123.915311,6.22345986 L123.915311,5.1033603 L123.816941,5.05482265 C123.569756,5.00566273 123.372387,4.95712508 123.125833,4.95712508" id="Fill-15" fill="#1E1E1E"></path>
                    <mask id="mask-4" fill="white">
                        <use xlink:href="#path-3"></use>
                    </mask>
                    <g id="Clip-18"></g>
                    <polygon id="Fill-17" fill="#1E1E1E" mask="url(#mask-4)" points="125.494834 3.93403858 126.580681 3.93403858 126.580681 1.79091475 125.494834 1.79091475"></polygon>
                    <polygon id="Fill-19" fill="#1E1E1E" mask="url(#mask-4)" points="125.494834 14.2594897 126.580681 14.2594897 126.580681 5.24891101 125.494834 5.24891101"></polygon>
                    <polygon id="Fill-20" fill="#1E1E1E" mask="url(#mask-4)" points="133.095325 12.9933416 129.344674 5.2490977 128.110642 5.2490977 132.601586 14.2596764 133.589064 14.2596764 138.030823 5.2490977 136.796791 5.2490977"></polygon>
                    <path d="M146.716972,11.1912881 C146.420603,11.9218419 145.77931,13.5777225 143.113876,13.5777225 C140.745442,13.5777225 139.21504,12.26285 139.116671,10.1197262 L148.000189,10.1197262 L148.000189,9.97349098 C147.951004,6.95420037 146.025864,5.00584941 143.015506,5.00584941 C139.017671,5.00584941 137.981008,8.07429994 137.981008,9.73018046 C137.981008,12.7009334 139.906149,14.6007467 143.015506,14.6007467 C145.48294,14.6007467 147.013342,13.5291848 147.753635,11.3375233 L147.80282,11.1427505 L146.716972,11.1912881 Z M146.815972,9.09670193 L139.165855,9.09670193 C139.560594,7.09981332 140.942811,5.97971375 143.015506,5.97971375 C145.088201,5.97971375 146.470418,7.09981332 146.815972,9.09670193 L146.815972,9.09670193 Z" id="Fill-21" fill="#1E1E1E" mask="url(#mask-4)"></path>
                    <polygon id="Fill-22" fill="#1E1E1E" mask="url(#mask-4)" points="143.854484 1.88873678 145.434071 1.88873678 142.916821 4.32370877 141.880159 4.32370877"></polygon>
                    <g id="Group-25" mask="url(#mask-4)" fill="#A5A5A5">
                        <g transform="translate(0.000315, 0.000187)">
                            <path d="M20.1361016,15.9751089 C18.6555152,13.7834474 10.5122898,1.65588052 10.3149203,1.36403236 C9.62381182,0.487243311 8.78451857,0 7.79767114,0 L0,0 L0,0.146235221 C0,0.146235221 1.3815864,0.535780958 2.27006438,1.85065339 C2.61561862,2.38643435 11.6965067,16.2675793 11.9928762,16.6079652 C12.9797237,17.9234599 14.3121253,17.9234599 14.4603101,17.9234599 L22.998905,17.9234599 L22.998905,17.8742999 C22.9490897,17.8742999 21.1727643,17.4362166 20.1361016,15.9751089" id="Fill-23"></path>
                            <path d="M26.3053168,0.0268823895 C25.3676541,0.0268823895 24.5283609,0.319352831 23.7880677,1.39029247 C23.4425134,1.87753578 20.7285254,5.91985065 19.8892321,7.08911014 C19.0505694,8.25774736 17.5201677,8.93976353 17.5201677,8.93976353 L17.5201677,9.03746111 L25.3184694,9.03746111 C26.2063168,9.03746111 27.0947948,8.69645302 27.835088,7.52719353 C28.822566,6.1152458 31.4381846,2.36477909 31.7837389,1.87753578 C32.819771,0.416428127 34.0538033,0.124579963 34.0538033,0.124579963 L34.0538033,0.0268823895 L26.3053168,0.0268823895 Z" id="Fill-24"></path>
                        </g>
                    </g>
                </g>
            </g>
        </g>
    </g>
</svg>