<?xml version="1.0" encoding="UTF-8"?>
<svg width="133px" height="68px" viewBox="0 0 133 68" version="1.1" xmlns="http://www.w3.org/2000/svg" xmlns:xlink="http://www.w3.org/1999/xlink">
    <title>logo-part-seafoodia</title>
    <defs>
        <polygon id="path-1" points="0 0 17 0 17 23 0 23"></polygon>
        <polygon id="path-3" points="0 23 117 23 117 0 0 0"></polygon>
    </defs>
    <g id="Page-1" stroke="none" stroke-width="1" fill="none" fill-rule="evenodd">
        <g id="Desktop-HD" transform="translate(-387.000000, -1003.000000)">
            <g id="Group-21" transform="translate(398.000000, 1026.000000)">
                <g id="Group-3" transform="translate(100.000000, 0.000000)">
                    <mask id="mask-2" fill="white">
                        <use xlink:href="#path-1"></use>
                    </mask>
                    <g id="Clip-2"></g>
                    <path d="M3.39358851,-0.000257230411 C6.15866263,3.07236003 7.73935361,6.69416422 9.27074934,10.802777 C12.3153794,8.64975843 14.4765868,5.90832532 16.9179987,3.35917194 C17.9330916,11.3564654 9.3654481,20.1447424 0,23 C4.39116862,15.7300255 4.0344267,7.9153656 3.39358851,-0.000257230411" id="Fill-1" fill="#E53630" mask="url(#mask-2)"></path>
                </g>
                <path d="M1.92442978,18.6992144 C1.24217781,18.5407684 0.59145319,18.2674333 0,17.891203 L0.850608053,16.2070044 C1.36261231,16.5302089 1.91938541,16.7757686 2.50390258,16.9348459 C3.12688312,17.1172797 3.77193282,17.2100747 4.42139634,17.2119685 C5.13076184,17.2119685 5.65600759,17.1172797 5.99650303,16.927902 C6.29916564,16.7984939 6.49904907,16.5049586 6.50787673,16.1754415 C6.50787673,15.9469258 6.39563935,15.732929 6.20773631,15.6028897 C5.97569497,15.4368686 5.71654011,15.3131419 5.44162157,15.2386533 C5.12634801,15.1464895 4.71460075,15.0467506 4.16413312,14.9356491 C3.48062005,14.7974034 2.80467355,14.6225447 2.1400769,14.411073 C1.62428936,14.2431581 1.15705395,13.950254 0.780617324,13.5595048 C0.392200303,13.1403489 0.188533586,12.5823161 0.215647112,12.0110268 C0.211863829,11.4599378 0.391569756,10.9227366 0.727020819,10.4846429 C1.12804878,9.98721093 1.66023054,9.61224317 2.26366413,9.40266524 C3.07013388,9.11544246 3.92200303,8.9797218 4.77765546,9.00244712 C5.45801579,9.00055335 6.13711503,9.07504189 6.80171169,9.22275646 C7.40577582,9.34963949 7.9890319,9.56300498 8.53193296,9.85654035 L7.7588822,11.5552579 C6.83386959,11.0679261 5.8060778,10.8072162 4.76063069,10.7952223 C4.05883175,10.7952223 3.54115258,10.8974862 3.20696261,11.1013828 C2.9030389,11.2528849 2.70946094,11.5622018 2.70504711,11.901819 C2.70504711,12.2319674 2.89862507,12.4794209 3.2845199,12.6302917 C3.85768723,12.8461823 4.45040151,13.0084158 5.0538351,13.1150985 C5.73797871,13.2533442 6.41455576,13.4282029 7.08041351,13.6396747 C7.58989558,13.8044332 8.0533477,14.0884997 8.43293706,14.467255 C8.82261518,14.879467 9.0262819,15.4337123 8.99727673,16.0005828 C8.99853782,16.5485154 8.81567916,17.0806667 8.478967,17.5124477 C8.07289466,18.013036 7.53440743,18.388635 6.92529892,18.5975817 C6.11693752,18.8835419 5.26317674,19.0192626 4.40626321,18.9977998 C3.57015774,19.0034811 2.73594392,18.903111 1.92442978,18.6992144" id="Fill-4" fill="#2D3F75"></path>
                <polygon id="Fill-6" fill="#2D3F75" points="19 17.1424654 19 19 11 19 11 9 18.8079615 9 18.8079615 10.8575346 13.3742945 10.8575346 13.3742945 13.0310786 18.1716457 13.0310786 18.1716457 14.830504 13.3742945 14.830504 13.3742945 17.145077"></polygon>
                <path d="M27.6670647,15.0992491 L25.9710265,11.273588 L24.2756114,15.1018609 L27.6670647,15.0992491 Z M28.4452983,16.85635 L23.4824238,16.85635 L22.5247417,19 L20,19 L24.7641103,9 L27.2097201,9 L32,19 L29.3942572,19 L28.4452983,16.85635 Z" id="Fill-8" fill="#2D3F75"></path>
                <polygon id="Fill-10" fill="#2D3F75" points="35.4518119 10.8575346 35.4518119 13.5005223 40.3505012 13.5005223 40.3505012 15.3554453 35.4518119 15.3554453 35.4518119 19 33 19 33 9 41 9 41 10.8575346"></polygon>
                <path d="M49.7599009,16.6999479 C50.2637573,16.452352 50.6889662,16.0727471 50.9888503,15.6021886 C51.5822244,14.6143315 51.5822244,13.3851948 50.9888503,12.3973377 C50.6896056,11.925516 50.2643968,11.5452794 49.7599009,11.2976835 C48.6498821,10.7728055 47.3595492,10.7728055 46.2495304,11.2976835 C45.7450346,11.5440162 45.3191863,11.9248843 45.0205811,12.3973377 C44.4246493,13.3845632 44.4246493,14.6155948 45.0205811,15.6021886 C45.3198258,16.0733787 45.745674,16.4529836 46.2495304,16.6999479 C47.3589098,17.227984 48.6511609,17.227984 49.7599009,16.6999479 L49.7599009,16.6999479 Z M44.9246693,18.3510082 C44.057627,17.9581392 43.3146305,17.3397811 42.7768853,16.5616226 C41.7410382,15.0059372 41.7410382,12.9910625 42.7768853,11.4360088 C43.3146305,10.6578503 44.057627,10.0388606 44.9246693,9.64662319 C46.8806298,8.78445894 49.1147344,8.78445894 51.0700555,9.64662319 C51.9351796,10.041387 52.6762578,10.6597451 53.2159214,11.4360088 C54.2613595,12.9885361 54.2613595,15.0090954 53.2159214,16.5616226 C52.6762578,17.3372547 51.9351796,17.9556128 51.0700555,18.3510082 C49.1153739,19.2163306 46.879351,19.2163306 44.9246693,18.3510082 Z" id="Fill-12" fill="#2D3F75"></path>
                <path d="M62.7573998,16.6999479 C63.2618889,16.4529836 63.687092,16.0733787 63.9863328,15.6021886 C64.582896,14.6155948 64.582896,13.3845632 63.9863328,12.3973377 C63.6877315,11.9248843 63.2625283,11.5440162 62.7573998,11.2976835 C61.6473958,10.7728055 60.3570801,10.7728055 59.2470761,11.2976835 C58.7425869,11.5452794 58.3173838,11.925516 58.0181431,12.3973377 C57.4254163,13.3851948 57.4254163,14.6143315 58.0181431,15.6021886 C58.3180232,16.0727471 58.7432263,16.452352 59.2470761,16.6999479 C60.3564407,17.227984 61.6486746,17.227984 62.7573998,16.6999479 L62.7573998,16.6999479 Z M57.9222326,18.3510082 C57.0558412,17.9581392 56.3128547,17.3391495 55.7744772,16.5616226 C54.7418409,15.0053056 54.7418409,12.9923258 55.7744772,11.4360088 C56.3128547,10.6578503 57.0558412,10.0394922 57.9222326,9.64662319 C59.878167,8.78445894 62.1122419,8.78445894 64.067537,9.64662319 C64.9326495,10.0426503 65.6743573,10.6603768 66.2159318,11.4360088 C67.2613561,12.9885361 67.2613561,15.0090954 66.2159318,16.5616226 C65.6743573,17.3372547 64.9326495,17.9549811 64.067537,18.3510082 C62.1128813,19.2163306 59.8768882,19.2163306 57.9222326,18.3510082 Z" id="Fill-14" fill="#2D3F75"></path>
                <path d="M73.844411,17.0889632 C74.9375905,17.0889632 75.8095845,16.8105825 76.4616677,16.254473 C77.6791447,15.1122647 77.7613722,13.1766388 76.644608,11.9307712 C76.5866025,11.8655766 76.52541,11.8029899 76.4616677,11.7430109 C75.8076722,11.1869015 74.9356783,10.9085208 73.844411,10.9085208 L71.5312047,10.9085208 L71.5312047,17.0987423 L73.844411,17.0889632 Z M69,9.00158048 L73.9693458,9.00158048 C75.0497769,8.97941434 76.122559,9.19064465 77.1182129,9.62027667 C77.9736339,9.98862582 78.7098569,10.5968909 79.2427421,11.3746617 C80.2524193,12.971928 80.2524193,15.0262079 79.2427421,16.6228222 C78.7104943,17.4005931 77.9736339,18.0088581 77.1182129,18.3772073 C76.122559,18.8081432 75.0497769,19.0200254 73.9693458,18.9985112 L69,18.9985112 L69,9.00158048 Z" id="Fill-16" fill="#2D3F75"></path>
                <mask id="mask-4" fill="white">
                    <use xlink:href="#path-3"></use>
                </mask>
                <g id="Clip-19"></g>
                <polygon id="Fill-18" fill="#2D3F75" mask="url(#mask-4)" points="82 19 85 19 85 9 82 9"></polygon>
                <path d="M93.6631907,15.0992491 L91.9685603,11.273588 L90.2745525,15.1018609 L93.6631907,15.0992491 Z M94.4407782,16.85635 L89.4795331,16.85635 L88.5226459,19 L86,19 L90.7719844,9 L93.2130739,9 L98,19 L95.3864591,19 L94.4407782,16.85635 Z" id="Fill-20" fill="#2D3F75" mask="url(#mask-4)"></path>
            </g>
        </g>
    </g>
</svg>