<?xml version="1.0" encoding="UTF-8"?>
<svg width="148px" height="89px" viewBox="0 0 148 89" version="1.1" xmlns="http://www.w3.org/2000/svg" xmlns:xlink="http://www.w3.org/1999/xlink">
    <title>logo-part-learning-planet</title>
    <defs>
        <polygon id="path-1" points="0 0 28 0 28 29 0 29"></polygon>
        <polygon id="path-3" points="0 0 13 0 13 13 0 13"></polygon>
        <polygon id="path-5" points="0 29 128 29 128 0 0 0"></polygon>
    </defs>
    <g id="Page-1" stroke="none" stroke-width="1" fill="none" fill-rule="evenodd">
        <g id="Desktop-HD" transform="translate(-566.000000, -1111.000000)">
            <g id="Group-35" transform="translate(574.000000, 1141.000000)">
                <g id="Group-3">
                    <mask id="mask-2" fill="white">
                        <use xlink:href="#path-1"></use>
                    </mask>
                    <g id="Clip-2"></g>
                    <path d="M10.1945073,18.0580654 L16.9732594,18.0580654 C17.0301554,17.9757618 17.073751,17.8853019 17.1033074,17.7896518 C17.122519,17.6280104 17.1033074,17.4582128 17.1033074,17.3062106 C17.1033074,17.1534669 17.1779372,17.0036891 17.1971489,16.8516869 C17.1919765,16.5958783 17.220794,16.3408112 17.2813845,16.0924173 C17.3730092,15.8506968 17.2813845,15.5652292 17.3826151,15.2916252 C17.4838456,15.0187627 17.3826151,14.7644371 17.4786732,14.4893501 C17.5754703,14.2135217 17.5222689,13.9280542 17.5799038,13.6403622 C17.6449278,13.2110486 17.6826121,12.7780277 17.6936958,12.3442653 C17.6936958,12.2960695 17.6715285,12.2308198 17.6936958,12.1989364 C17.8887678,11.9282983 17.7439416,11.6383819 17.7949263,11.3603291 C16.2786848,11.2921134 11.375284,11.3165821 10.9703618,11.3936954 C10.9703618,11.649504 10.9422833,11.9038296 10.8861262,12.152965 C10.8041073,12.4147054 10.8521364,12.7142609 10.7848956,13.0019529 C10.7176549,13.2896449 10.7701175,13.5988396 10.6836651,13.9035855 C10.6164244,14.1453061 10.6592811,14.3996318 10.5876069,14.6561818 C10.5151938,14.9119904 10.5484447,15.1855944 10.4885931,15.4584569 C10.4213524,15.8699751 10.383668,16.2852006 10.37554,16.7019091 L10.37554,16.8005252 C10.2307138,16.9844108 10.2957378,17.2024042 10.2765262,17.4055681 C10.2573145,17.6079906 10.2255414,17.8237596 10.1945073,18.0580654 Z M4.8499777,28.9873949 C4.83741625,28.7493817 4.86918934,28.510627 4.94381916,28.2837359 C4.99923734,28.0709328 4.86180025,27.8269878 5.0450497,27.6312386 C5.06204461,27.6119603 5.0450497,27.5659889 5.0450497,27.5318811 C5.07903952,27.132968 5.09529552,26.7318305 5.14849698,26.3351418 C5.25342207,25.7723629 5.31844607,25.2021692 5.34135226,24.6304926 C5.50539008,24.388772 5.3775588,24.115168 5.45218862,23.8830866 C5.52681844,23.6510052 5.48100608,23.3655376 5.55120244,23.1290074 C5.62139881,22.8116564 5.65243299,22.4861493 5.64282717,22.1613836 L0.025640146,22.1613836 C0.025640146,21.9604441 -0.0637678559,21.7795244 0.0906641473,21.6075023 C0.106181239,21.5785849 0.110614693,21.5452185 0.102486693,21.5133351 C0.0308125097,21.029894 0.216278695,20.5464528 0.208889604,20.0622701 C0.225145605,19.8101689 0.255440878,19.5595506 0.300514334,19.3104153 C0.327115061,19.0686947 0.26209106,18.8025055 0.392139063,18.5511457 C0.4519907,18.4354758 0.392139063,18.2612293 0.392139063,18.0677046 L5.68346717,18.0677046 L5.97976972,18.0677046 C6.10242864,18.0847585 6.21622064,17.9994889 6.23321555,17.8764042 C6.23469337,17.8660236 6.23543228,17.855643 6.23543228,17.8452623 C6.27902791,17.480457 6.30045628,17.1201006 6.33887955,16.7449146 C6.36104682,16.5588046 6.40168682,16.374919 6.43789337,16.1910334 C6.47409992,16.0078893 6.34405191,15.7950862 6.53395155,15.6349278 L6.53395155,15.5867319 C6.4644941,15.2263755 6.64257119,14.8904877 6.63296537,14.537546 C6.6270541,14.2995327 6.65882719,14.0615195 6.72680683,13.833887 C6.7896141,13.6062544 6.64774356,13.3504458 6.83025411,13.130228 C6.84724902,13.1109496 6.83025411,13.0649782 6.83025411,13.0330948 C6.8620272,12.6171278 6.88862792,12.1989364 6.93148465,11.7859353 C6.95586865,11.6532114 6.99355302,11.5234534 7.04232102,11.3988857 C7.02902066,11.3788659 7.01424247,11.3603291 6.99650865,11.3432752 C6.98616393,11.3314116 6.97138574,11.3232554 6.95586865,11.3210309 L1.37488817,11.3210309 C1.44730127,11.0288901 1.27661326,10.7360078 1.48572454,10.4675941 C1.50271945,10.4483158 1.48572454,10.4045688 1.48572454,10.3712025 C1.51971436,9.79062821 1.54631509,9.2078295 1.58695509,8.62799669 C1.60395,8.40777885 1.66454054,8.19275134 1.68079654,7.9725335 C1.69779145,7.75231567 1.68079654,7.51504393 1.68079654,7.2688745 L7.50044466,7.2688745 C7.50044466,6.87218581 7.65192103,6.51405378 7.63049267,6.12255541 C7.63049267,5.96313845 7.72950649,5.80075561 7.72433412,5.61687001 C7.69477776,5.45448716 7.71177267,5.286914 7.77310213,5.13342884 C7.84773194,4.98884137 7.77310213,4.77084796 7.82556467,4.61143101 C7.92679522,4.34301735 7.85955449,4.06274011 7.92975086,3.81063889 C7.99920831,3.55927914 7.96078504,3.2930899 8.02580904,3.05655964 C8.10561122,2.76886765 8.0472374,2.46857061 8.12925631,2.20757169 C8.21127523,1.94657278 8.14625122,1.65369047 8.22088104,1.40233072 C8.35314577,0.95522179 8.29551086,0.488834525 8.46176541,0.0239302095 L12.3779837,0.0239302095 C12.3558164,0.155171141 12.3388215,0.266392269 12.3173931,0.396891726 C12.3173931,0.439897229 12.2715808,0.479195361 12.2671473,0.522200864 C12.2309408,0.938167883 12.20434,1.35635933 12.1629611,1.77010192 C12.1437495,1.97326585 12.1031095,2.17420535 12.0669029,2.37440339 C12.0306964,2.57534289 12.1563109,2.76886765 11.9730615,2.93347492 C11.9464608,2.95497767 11.9730615,3.02764214 11.9730615,3.07806239 C11.9693669,3.46214602 11.9316826,3.8447467 11.8592695,4.22215706 C11.8001568,4.53654212 11.7706004,4.85685897 11.7728171,5.17717582 C11.7580389,5.36328584 11.6449858,5.53011753 11.6715866,5.73328146 C11.71666,5.90678642 11.6826702,6.09215496 11.5799618,6.23896685 C11.5629669,6.25824518 11.5799618,6.30125068 11.5799618,6.3353585 C11.5895677,6.48365333 11.5895677,6.63194817 11.5799618,6.78024301 C11.5533611,6.91667426 11.5149378,7.05088109 11.4669087,7.18138055 C11.8888258,7.27332335 16.4523285,7.30224084 18.4141322,7.22735195 C18.3298965,6.7921066 18.553786,6.38577874 18.5101903,5.94608455 C18.4909787,5.75997453 18.6402384,5.59759168 18.6114209,5.39220333 C18.5545249,5.21943984 18.5885147,5.02962245 18.7008289,4.88725941 C18.7178238,4.8702055 18.7008289,4.82200968 18.7008289,4.79012629 C18.7126514,4.37267632 18.7503358,3.95596783 18.813882,3.54222523 C18.8693002,3.27381158 18.8449162,2.99575875 18.9128958,2.74217458 C18.9668362,2.47672682 18.9971314,2.20757169 19.0045205,1.93693361 C19.0510718,1.77158487 19.0850616,1.60252876 19.1057511,1.43124822 C19.0725002,1.27257274 19.0909729,1.107224 19.1582136,0.960412109 C19.2357991,0.819532013 19.1729918,0.609694818 19.1995925,0.433223961 C19.2335824,0.286412072 19.2786558,0.14256608 19.334074,0.0024274581 L22.5512843,0.0024274581 C22.764829,-0.0124020257 22.9768959,0.0409841159 23.1586675,0.155171141 C23.1202443,0.660115063 23.1032494,1.17766405 23.0264028,1.68779829 C23.0042355,1.83535165 22.9510341,1.98512944 22.9392115,2.14232196 C22.927389,2.29951449 22.9828072,2.44929228 22.8793599,2.62576314 C22.8047301,2.74662343 22.8793599,2.95497767 22.8357643,3.10994578 C22.7249279,3.44064327 22.797341,3.78691171 22.7293613,4.10871151 C22.6739432,4.37934959 22.6887213,4.64998767 22.6355199,4.91098658 C22.5830573,5.1719855 22.602269,5.43372588 22.5298559,5.66061699 C22.472221,5.94237718 22.4441424,6.22932769 22.4456202,6.51701967 C22.4160639,6.75874026 22.3658181,6.98118251 22.3155722,7.26145976 L28,7.26145976 C27.9320204,7.60031346 28.0886691,7.92878653 27.8891636,8.2283421 C27.8721687,8.25058632 27.8891636,8.2943333 27.8891636,8.32547522 C27.9586211,8.80891639 27.8019724,9.29235756 27.7731549,9.7765402 C27.7517265,10.1583994 27.6867025,10.5402586 27.6837469,10.9273081 C27.658624,11.0681882 27.6128116,11.205361 27.5492654,11.333636 L21.8522762,11.333636 C21.8936551,11.736998 21.6911941,12.0973544 21.7562181,12.4895943 C21.6091751,12.7313148 21.7177948,13.0360607 21.643165,13.2874205 C21.5685351,13.5387802 21.6113919,13.8020036 21.5463679,14.0392753 C21.4673046,14.3269673 21.5271562,14.6265229 21.4429206,14.8882633 C21.358685,15.1492622 21.4281424,15.4755108 21.3490791,15.7417 C21.269277,16.0078893 21.317306,16.2926154 21.2478486,16.5447166 C21.1776522,16.7960763 21.211642,17.0911831 21.1488348,17.3469917 C21.0801162,17.582039 21.05721,17.8289499 21.081594,18.0728949 L26.6625745,18.0728949 C26.7268596,18.2071017 26.7194705,18.3650357 26.6433629,18.4933108 C26.6152843,18.5311259 26.601984,18.5770973 26.6042007,18.6238102 C26.6766138,19.13172 26.4741527,19.6151612 26.49632,20.1208466 C26.4859752,20.3410644 26.4542021,20.5597993 26.4017396,20.7733439 C26.3684887,20.9913373 26.4335127,21.2041404 26.3226763,21.4362218 C26.2332683,21.6223318 26.3034647,21.8885211 26.3034647,22.1346905 L20.6404653,22.1346905 C20.504506,22.3222835 20.4424377,22.5528819 20.4646049,22.7827389 C20.4483489,22.9859029 20.4173148,23.1868424 20.3707635,23.384816 C20.3345569,23.5857555 20.471994,23.8156125 20.276922,23.9920833 C20.2599271,24.0061713 20.276922,24.0573331 20.276922,24.088475 C20.2451489,24.504442 20.2089424,24.920409 20.1801249,25.336376 C20.1801249,25.5276764 20.0456435,25.6870933 20.0744609,25.8924817 C20.1261846,26.0659866 20.0944115,26.2543211 19.9872697,26.4003915 C19.9540187,26.4367237 19.9872697,26.5286665 19.9872697,26.5939163 C19.9776638,26.9950538 19.9399795,27.3947084 19.8742166,27.7906556 C19.8320987,27.9908536 19.8032813,28.1940176 19.7877642,28.397923 C19.7707693,28.598121 19.7249569,28.7990605 19.6909671,29 L15.724503,29 C15.6550456,28.5158174 15.8161277,28.0323762 15.8449452,27.548935 C15.8486397,27.2805214 15.8796739,27.0128492 15.9365699,26.7511088 C16.008983,26.4945587 15.9705598,26.2357842 16.0355838,25.999254 C16.1006078,25.7619822 16.0791794,25.4550119 16.1316419,25.194013 C16.1848434,24.9322726 16.1656318,24.6742396 16.2380448,24.446607 C16.3104579,24.2189744 16.2550398,23.9246092 16.3296696,23.6917863 C16.3917379,23.4448754 16.4227721,23.1905497 16.4212943,22.9354826 C16.4212943,22.8146223 16.4981409,22.693762 16.512919,22.579575 C16.521047,22.4431438 16.521047,22.305971 16.512919,22.1687983 L9.72973344,22.1687983 C9.6617538,22.4854078 9.61372471,22.8242615 9.57530144,23.1720129 C9.56569562,23.441168 9.53466143,23.7088402 9.48367671,23.972805 C9.41126361,24.2434431 9.45264252,24.5214959 9.38466289,24.7750801 C9.31742216,25.0294057 9.35584543,25.3245125 9.28638797,25.5758722 C9.21619161,25.8272319 9.25978725,26.1267875 9.18515743,26.3788887 C9.1097887,26.6302485 9.16077343,26.9298041 9.08614361,27.1811638 C9.01151379,27.4325236 9.05732615,27.6964884 8.98934651,27.9330186 C8.92727815,28.2140374 8.89624397,28.5017293 8.89846069,28.7894213 C8.88072688,28.8635687 8.84821487,28.9332673 8.80388033,28.9948097 L4.8499777,28.9873949 Z" id="Fill-1" fill="#BED473" mask="url(#mask-2)"></path>
                </g>
                <path d="M90.8122663,7.67352806 L90.8122663,0.604703312 L90.8122663,0.304967801 C90.8122663,0.0874540018 90.8900524,0.00971711132 91.0949888,0 L91.5437547,0 L94,0 L94,12.9775759 L91.0246821,12.9775759 L85.2243829,5.33843146 L85.2243829,12.9267479 C85.2094241,12.9461822 85.1929693,12.9648689 85.1757666,12.9828082 C85.1637996,12.9925253 85.1488407,12.9985051 85.1338818,13 L82,13 L82,0.604703312 L82,0.304967801 C82,0.0874540018 82.0800299,0 82.2827225,0 L84.8317128,0 C84.9259536,0.00896964121 85.012715,0.0530703772 85.0755423,0.124080037 C85.3193717,0.433532659 85.5632012,0.753449862 85.8070307,1.0726196 C85.9581152,1.27518399 86.0972326,1.48671803 86.2513089,1.68704002 C86.6342558,2.17439052 87.0291698,2.66174103 87.4068811,3.14909154 C87.6656694,3.48844296 87.9094989,3.83900644 88.1608078,4.1850851 C88.6020942,4.80473781 89.0710546,5.40420883 89.5220643,6.01563937 C89.7875841,6.37442502 90.0777861,6.72050368 90.3515333,7.07629945 L90.8122663,7.67352806 Z" id="Fill-4" fill="#020303"></path>
                <path d="M102,12.9977571 L102,0.0121728546 L104.294412,0.0121728546 C104.521982,-0.0147418229 104.752546,0.00320129541 104.973378,0.0637593197 C105.14181,0.139269943 105.246612,0.365801812 105.368631,0.534018546 C105.61267,0.868209125 105.834999,1.21211889 106.079038,1.53883317 C106.594064,2.2288956 107.145771,2.88680994 107.641334,3.59182496 C108.080754,4.21833884 108.586797,4.81046175 109.047925,5.41305147 C109.38928,5.86611521 109.704434,6.34160784 110.043543,6.7976621 C110.217214,7.04138946 110.420081,7.24100665 110.604981,7.46529563 C110.668611,7.55351596 110.726252,7.64472681 110.778653,7.73892818 C110.79063,7.60435479 110.805602,7.49520082 110.805602,7.3972613 L110.805602,0.59980998 C110.799613,0.483179711 110.799613,0.365801812 110.805602,0.249171542 C110.805602,0.113850525 110.914895,0.00469655527 111.049641,0.00469655527 L113.752031,0.00469655527 C113.912977,0.00469655527 113.981847,0.100393186 113.99607,0.249171542 C114.00131,0.315710606 114.00131,0.38224967 113.99607,0.448788734 L113.99607,12.844493 C113.99607,12.8930889 113.99607,12.939442 113.984093,13 L110.998737,13 L105.239875,5.42501355 C105.239875,5.42501355 105.224903,5.42501355 105.215171,5.44669482 C105.206188,5.46015216 105.2002,5.47510475 105.197954,5.49080498 L105.197954,12.9977571 L102,12.9977571 Z" id="Fill-6" fill="#020303"></path>
                <path d="M76.7900618,16 L80,16 L80,28.9947151 L77.0050565,28.9947151 C75.1113053,26.4821418 73.1786004,23.9189848 71.2076909,21.3059992 L71.2076909,29 L68,29 L68,16.0120797 L71.0466321,16.0120797 L76.7900618,23.6721064 L76.7900618,16 Z" id="Fill-8" fill="#020303"></path>
                <path d="M71.5159977,6.70810842 L73.1626915,6.70810842 C73.6854761,6.71633116 74.2090363,6.69016789 74.7287182,6.63036614 C75.2165988,6.557109 75.9480318,5.9964676 76.0845453,5.56963261 C76.1489238,5.23698538 76.1822765,4.89910549 76.1830522,4.56047808 C76.2047702,4.24128625 76.1256545,3.92284193 75.9550126,3.6485014 C75.7130114,3.17008741 75.2197014,2.85612822 74.6674423,2.82996495 C73.6257514,2.76119294 72.5732015,2.80978186 71.5159977,2.80978186 L71.5159977,6.70810842 Z M77.1898391,8.76080347 L80,12.9902822 L75.9953461,12.9902822 C75.9371728,12.8975895 75.8417685,12.7705108 75.7704092,12.6322192 C75.5509017,12.2031417 75.3709521,11.7516385 75.115765,11.3449866 C74.7814621,10.8134985 74.5006787,10.2595848 74.2098119,9.70641864 C74.1361257,9.60101806 74.0515804,9.50309269 73.9569517,9.41413759 L71.5183246,9.41413759 L71.5183246,13 L68,13 L68,0.0118075036 L68.3009502,0.0118075036 C70.2741904,0.0118075036 72.2443281,-0.0225785025 74.2152414,0.0260104191 C75.198759,0.0290005066 76.1714175,0.229336368 77.0703898,0.613562609 C78.0050417,0.998536372 78.7558658,1.70494454 79.1778166,2.59524309 C79.3523366,2.96601393 79.4679077,3.35995796 79.5214272,3.76361977 C79.5733954,4.08131657 79.5989917,4.40200345 79.5974404,4.72343785 C79.5974404,5.01123377 79.5167733,5.29678713 79.5012604,5.58458305 C79.4516192,5.86041862 79.3856894,6.13401162 79.3042467,6.40311949 C79.2414194,6.6767125 79.1227458,6.93535507 78.9552065,7.16409676 C78.7101028,7.63802562 78.3424472,8.04318248 77.8879193,8.3414437 C77.6730657,8.50739356 77.438821,8.64792767 77.1898391,8.76080347 L77.1898391,8.76080347 Z" id="Fill-10" fill="#020303"></path>
                <path d="M42,0 L51.8138931,0 L51.8138931,2.78902832 L45.2770685,2.78902832 L45.2770685,5.08116509 L51.0781216,5.08116509 C51.1105821,5.11259498 51.125009,5.12232328 51.1343865,5.13429657 C51.1444853,5.14626986 51.1502561,5.16048814 51.1509774,5.17620309 L51.1509774,7.88965001 L45.2864459,7.88965001 L45.2864459,10.2985264 L52,10.2985264 L52,13 L42,13 L42,0 Z" id="Fill-12" fill="#020303"></path>
                <path d="M86.283367,26.2907855 L93,26.2907855 L93,29 L83,29 L83,16 L92.8097434,16 L92.8097434,18.689577 L86.3352551,18.689577 C86.3165177,18.7054381 86.2992217,18.7220544 86.283367,18.7416918 C86.2732776,18.7537764 86.2675123,18.7696375 86.2667916,18.7854985 L86.2667916,21.1185801 L92.2432978,21.1185801 L92.2432978,22.1774924 L92.2432978,23.4924471 C92.2432978,23.8225076 92.207985,23.8595166 91.8865667,23.8595166 L86.283367,23.8595166 L86.283367,26.2907855 Z" id="Fill-14" fill="#020303"></path>
                <path d="M61.6632516,8.10298761 C61.0699576,6.5796889 60.5527269,5.07809812 59.9550864,3.5847414 C59.3741074,5.11028576 58.8097899,6.59690554 58.2375039,8.10298761 L61.6632516,8.10298761 Z M56.3808341,13 L53,13 C53.0615751,12.8218452 53.1086619,12.660907 53.1724102,12.5119456 C53.5223016,11.6765641 53.8816103,10.8494166 54.228604,10.0095438 C54.5169202,9.2991701 54.8190003,8.59403624 55.1123875,7.88590819 C55.4050502,7.17778014 55.6861223,6.49435423 55.9744386,5.80119717 C56.1968333,5.26149281 56.4467557,4.7315196 56.6575598,4.19256378 C56.9357342,3.49117268 57.2226017,2.79576997 57.5174376,2.10785276 C57.8101004,1.41394716 58.0839284,0.714053152 58.3700714,0.00367945041 L61.5190934,0.00367945041 C61.6741178,-0.0217712407 61.8190003,0.0875170211 61.8429059,0.247706665 C61.8436303,0.252946513 61.8443548,0.258934911 61.8450792,0.264174759 C61.9428749,0.555360607 62.0558833,0.840558057 62.1826555,1.11901856 C62.4876332,1.90724143 62.8042016,2.69097301 63.1280141,3.46946474 C63.3496844,4.00692345 63.5575908,4.55336476 63.7894029,5.08857782 C63.9994826,5.57663225 64.1581289,6.06468668 64.3754528,6.53851866 C64.5927766,7.0116021 64.7485253,7.58274555 65.0223533,8.06630868 C65.1541964,8.32680399 65.2548898,8.60301884 65.3222602,8.88896484 C65.3983235,9.1576942 65.5750802,9.37701927 65.634482,9.66071962 C65.7105454,9.90624393 65.8119632,10.1427857 65.9365621,10.3658535 C66.2560281,11.0642504 66.4943599,11.796332 66.8109283,12.4947289 C66.8819207,12.645936 66.9311808,12.8091198 67,12.9827834 L63.5032599,12.9827834 L62.6296181,10.7244088 L57.2457829,10.7244088 C56.9596399,11.5014034 56.659733,12.2626785 56.3808341,13 L56.3808341,13 Z" id="Fill-16" fill="#020303"></path>
                <path d="M60.0025303,19.5867788 C59.9338497,19.7021166 59.8919184,19.7661931 59.8543248,19.8325312 C59.6779241,20.2109597 59.5203202,20.5976805 59.382236,20.9926935 C59.24126,21.3469991 59.085102,21.7058278 58.9766589,22.0774717 C58.8118255,22.6451145 58.5595146,23.1758191 58.3708237,23.7314004 C58.3382907,23.8301537 58.3144333,23.9281531 58.2790085,24.0585677 L61.5163956,24.0585677 C61.5308546,24.0563062 61.5453137,24.0495216 61.556158,24.0389678 C61.5756778,24.0186141 61.5937516,23.9975065 61.6103796,23.9748913 C61.0920217,22.5493766 60.5563129,21.0989852 60.0025303,19.5867788 M58.3332301,16 L61.7499096,16 C62.0774077,16.7892723 62.4215337,17.5491447 62.7092693,18.3308785 C63.0439969,19.2279501 63.4163181,20.1054219 63.7561064,21.0055088 C63.9585334,21.5512902 64.2274722,22.0819948 64.4205009,22.6330531 C64.6388329,23.1124964 64.8289698,23.604755 64.9916344,24.1075674 C65.0899561,24.3842273 65.2085205,24.6533488 65.3451588,24.9119165 C65.5027627,25.2978834 65.6300026,25.6959119 65.7977279,26.0766019 C65.9762974,26.4535228 66.1259489,26.8440128 66.2452363,27.2443027 C66.3240382,27.4636706 66.4187452,27.6755001 66.5286341,27.8790374 C66.6862381,28.2454045 66.8373354,28.6162946 67,28.9947231 L63.4633101,28.9947231 C63.1871418,28.2506814 62.9030209,27.4877936 62.6123935,26.7060597 L57.2603666,26.7060597 L56.394991,29 L53,29 C53.2219468,28.4685416 53.4438936,27.9400986 53.6629486,27.409394 C53.8032017,27.1184111 53.9246579,26.819136 54.0280403,26.5123224 C54.110457,26.204755 54.3157759,25.9688026 54.3584302,25.6393737 C54.3960238,25.3612061 54.5941131,25.1086692 54.7141234,24.8403015 C54.971495,24.2432589 55.2144074,23.6432009 55.4594888,23.0431429 C55.7732507,22.271209 56.1079783,21.5068136 56.4210173,20.7371412 C56.7138136,20.0217454 57.0109476,19.3086112 57.3051898,18.5962308 C57.6001549,17.8830965 57.864033,17.1925776 58.1683966,16.4990432 C58.2414149,16.3392288 58.2768397,16.1718759 58.3332301,16" id="Fill-18" fill="#020303"></path>
                <g id="Group-22" transform="translate(115.000000, 0.000000)">
                    <mask id="mask-4" fill="white">
                        <use xlink:href="#path-3"></use>
                    </mask>
                    <g id="Clip-21"></g>
                    <path d="M13.0003094,1.93717544 C12.5887563,2.39830411 12.1679201,2.8050544 11.8321794,3.26835821 C11.6581203,3.5047229 11.365701,3.67003318 11.2643599,3.96585157 C11.2473408,4.02022995 11.1715284,4.0579323 11.1235654,4.10506023 C11.0500738,4.19641591 10.9131473,4.21454203 10.8156742,4.14566275 C10.7994287,4.13478707 10.7847303,4.12101122 10.7723528,4.10506023 C10.4567256,3.78894057 10.0722484,3.53880002 9.64522336,3.3727647 C9.16095223,3.15452613 8.66352997,2.89931026 8.09106889,2.89931026 C7.91700978,2.89931026 7.74062988,2.80722954 7.56657077,2.81230485 C6.68157689,2.82463062 5.82365887,3.09579748 5.1111769,3.58737804 C4.70813336,3.8665204 4.48069612,4.2493442 4.18827681,4.59229052 C3.94846204,4.87143287 3.9360845,5.26658244 3.74887426,5.58342714 C3.72876076,5.62112949 3.74887426,5.677683 3.74887426,5.72771111 C3.75506302,5.96045058 3.72411918,6.19319005 3.65836352,6.41795403 C3.5446449,6.7536499 3.71174164,7.09877136 3.78213889,7.43011696 C3.90823504,7.91444707 4.13644588,8.36977538 4.45284666,8.77072531 C4.73753001,9.15282406 5.11040331,9.47039381 5.5428435,9.69950805 C5.8948297,9.90904608 6.28085413,10.0620306 6.68544487,10.1533863 C6.97476979,10.1874634 7.26564191,10.1961639 7.55574043,10.1794879 C8.24114653,10.1715124 8.91417509,10.0091023 9.51912721,9.7067585 C9.67848799,9.65745544 9.77828188,9.50809615 9.7558476,9.35221146 L9.7558476,6.4223043 L12.8463638,6.4223043 L12.8463638,11.3315845 C12.424754,11.6825063 11.9350677,11.9543982 11.4036072,12.1327593 C11.0423378,12.2415161 10.7120123,12.4474289 10.3314031,12.513408 C10.182099,12.7026448 9.92758592,12.5699615 9.73341331,12.691044 C9.59184523,12.7809496 9.34197371,12.7664487 9.17100898,12.818652 C8.25971283,13.092719 7.32907678,12.9651111 6.39534635,12.9984632 C5.96135896,12.8636048 5.50029572,12.8918815 5.05625158,12.7620985 C4.56888607,12.6178145 4.09389809,12.4387284 3.63592923,12.2270152 C3.1911115,12.0276278 2.78419998,11.7615363 2.42989299,11.4403413 C2.28600412,11.3004076 2.14443604,11.1582988 1.99049043,11.0285157 C1.19059211,10.3223218 0.615810245,9.42181579 0.331126898,8.42777898 C0.189558821,8.0645314 0.118387984,7.68098255 0.121482368,7.29525857 C0.136954289,7.04221784 0.00312217248,6.82252918 0,6.56006286 C-0.00229299988,6.29759654 0.141595866,6.0090286 0.116067196,5.72771111 C0.114520004,5.43334281 0.167898132,5.14114964 0.273107195,4.86418242 C0.344278031,4.6031662 0.432467981,4.34650024 0.537677044,4.09563464 C0.649074876,3.84766922 0.789869357,3.62290525 0.929116646,3.37493983 C1.12793083,3.0044418 1.38244393,2.66294556 1.68569359,2.36060177 C2.20168215,1.84654481 2.78419998,1.39484172 3.41854874,1.0149181 C3.88966874,0.760427278 4.39018538,0.555239521 4.91004193,0.40515519 C5.44846478,0.21954365 6.01628428,0.117312294 6.58951896,0.102086347 C6.74965334,0.0803349947 6.90824053,0.0506081465 7.06450693,0.0121807573 C7.23160368,-0.00449527949 7.40102122,-0.00449527949 7.56889156,0.0121807573 C8.17307008,0.0607587776 8.77260702,0.149939322 9.36208721,0.279722391 C10.4691032,0.488535374 11.5157786,0.915586925 12.4324899,1.53260029 C12.6343985,1.64135705 12.7937593,1.77911561 13.0003094,1.93717544" id="Fill-20" fill="#020303" mask="url(#mask-4)"></path>
                </g>
                <path d="M34.4225668,22.6597496 L36.7865767,22.6597496 C37.2312915,22.6514607 37.6624156,22.5022606 38.0172813,22.2347554 C38.1984894,22.0961048 38.348741,21.9212845 38.4582209,21.720844 C38.6054524,21.5045792 38.6749155,21.2446093 38.6552846,20.9838859 C38.6432041,20.7819383 38.6552846,20.5807443 38.6552846,20.3795502 C38.6809558,19.8460468 38.4091437,19.3434384 37.9485733,19.0721655 C37.6971471,18.8837816 37.401174,18.7647229 37.0893452,18.7255391 C36.2029358,18.6938906 35.3165265,18.7255391 34.4203017,18.7255391 L34.4225668,22.6597496 Z M34.4052011,25.4832483 L34.4052011,29 L31,29 L31,16 L31.5051174,16 C33.4055367,16 35.3089762,16.0150707 37.2101505,16 C37.8534391,16.0090424 38.4921974,16.115291 39.1030195,16.3172386 C39.9509221,16.6043357 40.6946301,17.1355785 41.2405193,17.8431486 C41.4881703,18.2214236 41.6746636,18.6358683 41.7947139,19.0721655 C41.9389253,19.6034083 42.0076334,20.1527359 41.999328,20.7035706 C41.999328,21.3131811 41.8913582,21.9182703 41.6814589,22.490204 C41.5327173,22.9219801 41.3145126,23.3273823 41.0359053,23.6890795 C40.5028516,24.3423951 39.7916101,24.8269186 38.9874994,25.0853814 C38.4302847,25.2941108 37.8390934,25.3973452 37.244127,25.3898099 C36.9390935,25.3898099 36.6310398,25.4636564 36.3260063,25.4809877 C36.0202177,25.498319 35.7204694,25.4809877 35.417701,25.4809877 L34.4052011,25.4832483 Z" id="Fill-23" fill="#020303"></path>
                <polygon id="Fill-25" fill="#020303" points="101.260461 29 97.7804367 29 97.7804367 18.8075046 95.8961671 18.8075046 94 18.8075046 94 16 105 16 105 18.7878717 101.260461 18.7878717"></polygon>
                <path d="M34.417587,10.0840524 L40,10.0840524 L40,12.9316564 C39.5796307,13.0017467 32.5418599,13.0285898 31,12.9607364 L31,0.0342994981 L31.0151758,0.017149749 C31.0273164,0.00820205389 31.0417334,0.00223692379 31.0569092,0 L34.417587,0 L34.417587,10.0840524 Z" id="Fill-27" fill="#020303"></path>
                <path d="M44,16 L47.4308847,16 L47.4308847,26.0538318 L53,26.0538318 L53,28.9246365 C52.5794889,29.0013316 45.8664924,29.0306562 44,28.9592245 L44,16 Z" id="Fill-29" fill="#020303"></path>
                <mask id="mask-6" fill="white">
                    <use xlink:href="#path-5"></use>
                </mask>
                <g id="Clip-32"></g>
                <polygon id="Fill-31" fill="#020303" mask="url(#mask-6)" points="96 13 99 13 99 0 96 0"></polygon>
                <path d="M5,29.435 L9,29.435 C8.97317437,29.481 8.9485842,29.565 8.92175857,29.565 L5.0923994,29.565 C5.05365127,29.565 5.02682563,29.481 5,29.435" id="Fill-33" fill="#BED473" mask="url(#mask-6)"></path>
                <path d="M16,29.435 L20,29.435 C19.9753363,29.481 19.9484305,29.565 19.9215247,29.565 L16.0807175,29.565 C16.0538117,29.565 16.0269058,29.481 16,29.435" id="Fill-34" fill="#BED473" mask="url(#mask-6)"></path>
            </g>
        </g>
    </g>
</svg>