<?xml version="1.0" encoding="UTF-8"?>
<svg width="159px" height="52px" viewBox="0 0 159 52" version="1.1" xmlns="http://www.w3.org/2000/svg" xmlns:xlink="http://www.w3.org/1999/xlink">
    <title>logo-part-compfruit</title>
    <defs>
        <polygon id="path-1" points="0 0 18 0 18 35 0 35"></polygon>
        <polygon id="path-3" points="0 0 18 0 18 35 0 35"></polygon>
    </defs>
    <g id="Page-1" stroke="none" stroke-width="1" fill="none" fill-rule="evenodd">
        <g id="Desktop-HD" transform="translate(-377.000000, -900.000000)">
            <g id="Group-45" transform="translate(382.000000, 909.000000)">
                <path d="M72.5148458,4.09482428 L72.7606316,5.95855534 L72.7798838,6.15182633 L72.7606316,6.23056637 C72.7381708,6.27481697 72.6932491,6.30344971 72.644477,6.30605268 C72.5815866,6.30605268 72.4911015,6.19672768 72.3723799,5.97807766 C71.4149063,4.28939676 70.1205202,3.4440802 68.4898631,3.44212797 C67.1954769,3.44212797 66.1686956,3.84754153 65.4095191,4.6590194 C64.6503427,5.47049728 64.2762093,6.57871445 64.2871188,7.98302019 C64.2871188,9.59686552 64.70104,10.9354461 65.5359416,11.9460517 C66.3105197,12.9423409 67.5009443,13.5123927 68.7516923,13.4850614 C69.5474478,13.4779032 70.3271599,13.2631577 71.0170286,12.8616486 C71.6716017,12.5330228 72.2087367,12.0052694 72.5539919,11.3525731 C72.68619,11.0766576 72.7901516,10.9354461 72.877428,10.9321924 C72.9647044,10.9289387 73,10.9751415 73,11.0799113 L73,11.161905 L72.9679131,11.3356537 L72.7477968,12.2974535 L72.7157099,12.4380142 C72.695816,12.5727182 72.5764527,12.7139297 72.3563365,12.8583949 C71.1992823,13.6139087 69.8497066,14.0102119 68.4738196,13.9998 C66.8341782,13.9998 65.5121973,13.506536 64.5065933,12.5200079 C63.5016311,11.5341307 63.0004335,10.2332932 63.0023587,8.6194479 C62.9587205,7.12078428 63.5221667,5.66962497 64.5617828,4.60305541 C65.5885641,3.53973958 67.0068058,2.95927586 68.4738196,3.00222497 C69.5070183,2.99051157 70.5260988,3.24365102 71.4373672,3.73691504 L71.7608033,3.90155329 L71.8808084,3.95361282 L72.0097978,4.00306937 C72.053436,3.99330821 72.0938655,3.97183365 72.1265941,3.94059794 C72.1914097,3.87942799 72.2703435,3.83582814 72.3563365,3.81240135 C72.4243607,3.79938647 72.4891763,3.89764883 72.5148458,4.09482428" id="Fill-1" fill="#020303"></path>
                <path d="M78.0617454,3.50212545 C76.9911519,3.45464065 75.9558386,3.89891617 75.2451031,4.71201192 C74.5465553,5.52315624 74.1982436,6.6166074 74.200168,7.99171493 C74.1559074,9.43252059 74.6305863,10.8395015 75.5356836,11.9505155 C76.3253185,12.9737152 77.54024,13.5656489 78.8218732,13.5506879 C79.9418589,13.5793089 81.0156596,13.0979562 81.7488462,12.2393271 C82.5346323,11.3182523 82.9470898,10.130482 82.9034706,8.91344027 C82.9483727,7.49344985 82.4531671,6.10988613 81.5192042,5.05025975 C80.6500286,4.03941912 79.3837904,3.472854 78.0617454,3.50212545 Z M78.5531022,3.00386037 C80.0066461,2.94856986 81.4204197,3.48911591 82.4762596,4.50255845 C83.494895,5.50624384 84.0471903,6.9002152 83.9965151,8.33971991 C84.0497562,9.852078 83.4910462,11.3215046 82.4506013,12.4064996 C81.4114393,13.4706793 79.9809878,14.0476521 78.5049929,13.9969149 C76.8551628,13.9969149 75.529269,13.4882422 74.5106337,12.4787025 C73.4919983,11.4685123 73,10.1369867 73,8.49713524 C73.0019244,7.76990241 73.1385549,7.04982481 73.40476,6.37528058 C73.6420995,5.72220208 74.008372,5.12506456 74.4817681,4.62029472 C74.9981418,4.09926296 75.6190732,3.69661795 76.302226,3.43967969 C77.0187346,3.15151856 77.7827111,3.00386037 78.5531022,3.00386037 L78.5531022,3.00386037 Z" id="Fill-3" fill="#020303"></path>
                <path d="M94.3200603,6.67454837 C93.9092006,7.3860156 93.638914,7.88554364 93.5019608,8.15452029 L92.8630468,9.51981689 L92.1239819,11.018401 C92.0871795,11.1060586 91.8868778,11.5509508 91.5152338,12.3626838 C91.3662142,12.6953023 91.238914,12.9678813 91.1291101,13.1858244 C91.0621418,13.310106 91.0229261,13.4037675 90.99819,13.4554014 C90.9010558,13.6793485 90.8039216,13.7910219 90.6941176,13.7910219 C90.584917,13.7910219 90.4690799,13.6733446 90.3628959,13.4403916 C90.3441931,13.3977636 90.2772247,13.267478 90.161991,13.0465329 L90.0190045,12.7439342 L87.3209653,6.9441254 L87.1532428,10.4858513 C87.1532428,10.7734402 87.1321267,11.3576238 87.1321267,12.2293963 C87.1321267,13.1011688 87.4361991,13.5340531 88.0262443,13.6247126 C88.3309201,13.6703426 88.4642534,13.7399883 88.4642534,13.8366518 C88.4642534,13.9333153 88.3942685,14 88.2579186,14 C88.1680241,14.0005595 88.078733,13.9945555 87.9900452,13.9819472 C87.4579186,13.9363173 87.0410256,13.9123015 86.7520362,13.9123015 C86.4165913,13.9111007 86.0811463,13.9327149 85.7481146,13.9759433 C85.6739065,13.989152 85.5984917,13.9975575 85.5230769,14 C85.3800905,14 85.3101056,13.9489255 85.3101056,13.8426558 C85.3101056,13.7369864 85.3650075,13.7153722 85.4832579,13.6913564 C85.786727,13.6427245 86.0533937,13.4644074 86.213273,13.2038362 C86.385822,12.8117788 86.4720965,12.3879004 86.4660633,11.9598193 L86.5722474,9.88305544 C86.6434389,8.37966814 86.6790347,7.42924399 86.6790347,7.03178297 C86.7188537,6.38515832 86.6036199,5.73853367 86.3411765,5.14594451 C86.1064857,4.73167245 85.6895928,4.45128832 85.2159879,4.38884732 C85.0730015,4.36483155 85,4.30719369 85,4.21653416 C85,4.12587462 85.0609351,4.06223282 85.1791855,4.06223282 L85.4168929,4.06223282 C85.5785822,4.0754415 85.7408748,4.08024465 85.9031674,4.07724268 C86.2959276,4.07724268 86.5420814,4.07724268 86.6482655,4.06223282 C86.7363499,4.04842376 86.8244344,4.04061863 86.9131222,4.03821705 C87.1200603,4.03821705 87.2901961,4.18951641 87.4271493,4.48911316 L87.506184,4.65242041 L90.5058824,11.0820428 L90.8708899,11.8205278 C90.9221719,11.9448094 90.961991,12.0054492 90.9861237,12.0054492 C91.0108597,12.0054492 91.0500754,11.9598193 91.092911,11.8721617 L91.1779789,11.6782344 L91.2449472,11.5329389 L94.615083,4.33481183 C94.6579186,4.23394559 94.7122172,4.1384829 94.7761689,4.05022494 C94.8310709,4.0117997 94.8980392,3.99438827 94.9650075,4.001593 C95.0012066,4.001593 95.1110106,4.001593 95.2690799,4.03161272 L95.506184,4.03161272 C95.8108597,4.03161272 96.0479638,4.03161272 96.2301659,4.00759694 L96.4401207,4.00759694 C96.5348416,4.00759694 96.5861237,4.04722297 96.5861237,4.14388645 C96.588537,4.22914244 96.5251885,4.30239054 96.4401207,4.31319764 L96.1360483,4.39184929 C95.8995475,4.44228241 95.7064857,4.61039281 95.6250377,4.83734185 C95.5067873,5.2209938 95.4561086,5.62265758 95.4760181,6.02372096 L95.5218703,7.74925414 L95.652187,11.6392087 L95.6889894,12.5470049 C95.6642534,12.8225859 95.7348416,13.0981668 95.8898944,13.3281179 C96.0907994,13.5112381 96.3502262,13.6187087 96.6229261,13.6307166 C96.8751131,13.6673406 97,13.7309824 97,13.81864 C97,13.9062976 96.9149321,13.9579315 96.7381599,13.9579315 L96.5559578,13.9579315 L95.999095,13.8972916 C95.7969834,13.8762778 95.5936652,13.8672719 95.3909502,13.8696735 C95.2419306,13.8696735 95.0108597,13.8696735 94.6911011,13.8972916 C94.1951735,13.9213074 93.9092006,13.9363173 93.8301659,13.9363173 C93.6932127,13.9363173 93.6232278,13.8912877 93.6232278,13.8096341 C93.6232278,13.7279805 93.6841629,13.6793485 93.8060332,13.6487284 C94.0358974,13.6042992 94.238009,13.4704113 94.3689291,13.2764839 C94.4865762,12.9888951 94.5366516,12.6784912 94.5149321,12.3686878 L94.4841629,11.2033225 L94.3200603,6.67454837 Z" id="Fill-5" fill="#020303"></path>
                <path d="M100.411799,5.23742519 L100.411799,11.2374178 L100.411799,11.9381822 L100.433401,12.5471222 C100.48648,13.1288774 100.704351,13.4611364 101.093187,13.5644387 C101.29069,13.6236412 101.494366,13.6592835 101.699893,13.6713657 C101.846169,13.6713657 101.92085,13.7136532 101.927022,13.7964159 C101.933194,13.8785745 101.849255,13.9788562 101.672119,13.9788562 C101.58818,13.9788562 101.423388,13.9788562 101.180212,13.9516714 C101.024678,13.9516714 100.766688,13.9365687 100.414885,13.9365687 L99.8921175,13.9365687 L99.3193568,13.9365687 C99.1014856,13.9329441 98.8829972,13.9420057 98.6663603,13.9637536 C98.5281078,13.9836891 98.3886208,13.9963754 98.2491339,14 C98.1213737,14 98.0590366,13.9516714 98.0590366,13.8598471 C98.0590366,13.7686269 98.1398896,13.7136532 98.302213,13.6894889 C98.6663603,13.6478055 98.9718738,13.4013298 99.0829696,13.058801 C99.2570197,12.4166351 99.3267632,11.7521171 99.2915829,11.0882033 L99.2915829,6.72050835 C99.2915829,5.71285755 99.2323318,5.07612857 99.1082748,4.81092552 C98.9836006,4.54572246 98.6817903,4.38744638 98.1929687,4.33307673 C98.0590366,4.33307673 97.9942307,4.27508244 98.0004027,4.18688279 C98.0065747,4.09807903 98.0997717,4.02196152 98.2861658,4.02196152 C98.4126916,4.02558617 98.5386002,4.0364601 98.6632744,4.05579153 C98.9163259,4.09264207 99.1724635,4.11378582 99.4286011,4.11982689 C99.7396693,4.11982689 100.193928,4.09203796 100.794462,4.0370642 C101.105531,4.01289992 101.354879,4.00383831 101.550531,4.00383831 C102.439915,3.96517545 103.316337,4.21950458 104.040312,4.7257464 C104.657511,5.1625159 105.016103,5.86871721 104.998822,6.61418548 C105.025978,7.50282716 104.582212,8.34253616 103.825526,8.83427941 C103.283626,9.22392855 102.630629,9.43717839 101.9585,9.44382356 C101.672119,9.44623999 101.386356,9.4130141 101.108617,9.34293766 C100.850627,9.27648587 100.725953,9.2027848 100.738297,9.12968783 C100.751258,9.05659086 100.794462,9.04148818 100.875315,9.04148818 C100.925926,9.04450871 100.975919,9.05115389 101.024678,9.06323603 C101.203048,9.10431532 101.386356,9.12183443 101.569664,9.11458515 C102.18748,9.14297818 102.792953,8.93939406 103.262024,8.54491206 C103.687891,8.15163828 103.91502,7.59465145 103.884778,7.02256194 C103.897122,6.32844278 103.589756,5.6663413 103.047239,5.21930198 C102.452876,4.7335998 101.69619,4.47987478 100.922223,4.50645549 C100.777798,4.49074871 100.633373,4.53001567 100.51734,4.61579889 C100.429081,4.73480801 100.390197,4.88160606 100.408713,5.02719589 L100.411799,5.23742519 Z" id="Fill-7" fill="#020303"></path>
                <path d="M109.610309,8.64008 L108.42168,5.59972943 L108.357309,5.4366802 C108.296125,5.27686607 108.231754,5.18887124 108.16101,5.18563614 C108.090265,5.18240104 108.087079,5.22769249 108.039279,5.33250985 L106.560662,8.65625551 C106.511587,8.74425034 106.477808,8.84065643 106.461237,8.94029763 C106.461237,9.07423093 106.580419,9.138933 106.811772,9.138933 L107.013807,9.138933 L109.305026,9.138933 C109.558685,9.138933 109.687427,9.07746603 109.687427,8.94676784 C109.682328,8.88788895 109.669581,8.82965708 109.649187,8.77401329 L109.610309,8.64008 Z M109.520445,9.87977178 L106.772894,9.87977178 C106.535168,9.85712605 106.29553,9.88947709 106.072463,9.97423681 C105.908668,10.1521675 105.785025,10.3630963 105.709182,10.5940827 L105.208237,11.7296041 C105.025322,12.0906417 104.909327,12.4833833 104.867263,12.8871243 C104.848143,13.0799365 104.914425,13.2708076 105.047628,13.40927 C105.2554,13.5580848 105.495675,13.6538439 105.74806,13.6900771 C105.895921,13.719193 105.976225,13.781307 105.979412,13.8725369 C105.982599,13.9637668 105.915041,14 105.770366,14 L105.51352,14 L104.786958,13.9540615 C104.546046,13.9540615 104.266256,13.937886 103.948226,13.937886 L103.627009,13.937886 L103.199995,13.9805894 C103.06488,13.9805894 103.000509,13.9314158 103.000509,13.8369508 C102.994135,13.7567202 103.048309,13.6849009 103.126064,13.6706664 L103.408403,13.5852597 C103.57411,13.4979119 103.714324,13.3685077 103.816935,13.2106347 C103.983279,13.0003529 104.125405,12.7713076 104.240762,12.5286748 L104.459368,12.0194694 L108.357309,3.23163343 C108.42168,3.07828951 108.498797,3 108.579101,3 C108.659406,3 108.73015,3.07505441 108.78751,3.22516323 L112.052577,11.7063114 L112.222745,12.1210517 C112.349575,12.5396741 112.547786,12.9324157 112.807819,13.282454 C113.09207,13.4869125 113.424759,13.6104935 113.771469,13.6409035 C113.928891,13.6706664 114.006008,13.7353685 113.999635,13.8337157 C113.993262,13.9314158 113.922517,13.9605317 113.784216,13.9605317 C113.742789,13.9605317 113.646551,13.9605317 113.49869,13.9443562 C113.234833,13.9217105 112.765755,13.9120052 112.094003,13.9120052 C111.65488,13.9003588 111.214481,13.9145933 110.776632,13.9540615 C110.69824,13.970237 110.618573,13.9799424 110.538906,13.9838245 C110.406978,13.9838245 110.343244,13.9281807 110.343244,13.8201282 C110.343244,13.7127228 110.403791,13.686842 110.532533,13.6603141 L110.767072,13.6085524 C111.013083,13.5664961 111.18134,13.3335686 111.146286,13.0831716 C111.071718,12.5196165 110.916209,11.9696488 110.683581,11.4520322 L110.307554,10.4342686 C110.256567,10.2550438 110.170527,10.0887595 110.053894,9.94512088 C109.883726,9.87912476 109.700811,9.85712605 109.520445,9.87977178 L109.520445,9.87977178 Z" id="Fill-9" fill="#020303"></path>
                <path d="M122.136276,11.2002957 L122.136276,9.46299162 C122.164057,9.22957389 122.094001,8.99485578 121.944227,8.82385616 C121.713526,8.67626334 121.448402,8.60149164 121.180258,8.60734334 C120.991228,8.58783768 120.893995,8.51891768 120.890976,8.40708523 C120.887956,8.29590297 120.967071,8.26339353 121.134359,8.26339353 L121.423641,8.26339353 L121.965969,8.26339353 C122.705781,8.26339353 123.135174,8.26339353 123.256564,8.24648863 C123.588725,8.21723014 123.780774,8.20422636 123.832108,8.20422636 C123.945043,8.20422636 124,8.25299051 124,8.34856825 C124,8.44349579 123.929944,8.49941202 123.783794,8.53842334 C123.42204,8.62359805 123.183489,8.99615616 123.238446,9.39082068 L123.238446,9.636592 L123.238446,12.1183621 L123.253544,12.3673844 L123.20825,12.4818176 C123.144837,12.5201787 123.073574,12.5403346 123.001102,12.5409848 C122.784896,12.5982014 122.578956,12.6937791 122.391738,12.8231667 L121.91705,13.1216033 C121.00391,13.6983206 119.963945,14.0006583 118.905863,13.9967572 C116.290852,14.0962361 114.095572,11.8946972 114.003171,9.07938031 C113.998943,8.95584446 113.998943,8.83230862 114.003171,8.70877277 C113.960896,7.19643393 114.486917,5.73025848 115.461658,4.64054227 C116.409222,3.56252946 117.737261,2.96695664 119.115426,3.00141664 C119.723582,3.00856872 120.32751,3.09634419 120.915133,3.26409286 C121.452025,3.3941306 121.965969,3.61519474 122.437637,3.91948304 C122.501653,3.9962053 122.611568,4.00335738 122.682832,3.93443738 C122.687663,3.92988606 122.692495,3.92468455 122.696722,3.91948304 L122.86703,3.78164304 C122.895415,3.75433512 122.932254,3.7380804 122.970302,3.73612984 C123.05606,3.73612984 123.098335,3.85706493 123.098335,4.0995853 C123.10377,4.27513624 123.118264,4.45068718 123.141214,4.62428756 L123.214289,5.35184868 C123.237238,5.54820565 123.271058,5.74326225 123.314541,5.9357181 C123.335075,6.00918942 123.346549,6.08526149 123.348361,6.16198376 C123.348361,6.28616979 123.305482,6.3485879 123.20825,6.35508979 C123.110413,6.36159168 123.095315,6.31607847 123.05002,6.22375168 C122.666526,5.38890943 122.066825,4.6906068 121.323389,4.2146687 C120.584784,3.71402342 119.729621,3.44679588 118.856944,3.44419512 C117.826038,3.41623701 116.842843,3.90842983 116.198451,4.77513133 C115.510576,5.6600381 115.172376,6.8076211 115.172376,8.20747731 C115.132517,9.58782785 115.560098,10.9369693 116.375402,12.0032788 C117.081394,12.9733602 118.16605,13.5357734 119.310495,13.5247202 C120.317848,13.575435 121.287153,13.1040482 121.91705,12.255552 C122.095209,11.9389101 122.171908,11.5683025 122.136276,11.2002957" id="Fill-11" fill="#020303"></path>
                <path d="M134.026138,6.83424631 L134.026138,12.8465398 C134.037288,13.1752617 134.023515,13.5045868 133.986131,13.8314992 C133.98154,13.9292111 133.892343,14.004606 133.786093,13.9997807 C133.781502,13.9997807 133.776256,13.9997807 133.771665,13.9991776 C133.705423,13.9991776 133.641804,13.9762575 133.59327,13.9352427 L133.420779,13.7494695 L126.833973,6.83726211 L126.757893,6.75824822 C126.729035,6.72989972 126.687716,6.71421758 126.645741,6.7154239 C126.549329,6.7154239 126.496861,6.82218312 126.496861,7.03811421 L126.496861,11.9038016 L126.496861,12.207794 L126.523095,12.71867 C126.523095,12.9581243 126.615571,13.1897376 126.784128,13.3724949 C127.028763,13.5275069 127.314719,13.6185839 127.611168,13.6372819 C127.783003,13.6553767 127.868921,13.7193116 127.868921,13.8224518 C127.868921,13.9261953 127.815796,13.9654006 127.706923,13.9654006 C127.62822,13.9647975 127.550173,13.959369 127.472125,13.9503216 C127.412442,13.9503216 127.187482,13.9261953 126.793965,13.9044815 L125.997095,13.868292 L125.62719,13.868292 C125.433711,13.8670856 125.240232,13.8773393 125.048065,13.8984499 C124.954277,13.9123226 124.859177,13.9207668 124.764077,13.9231795 C124.625035,13.9231795 124.552234,13.8803551 124.545676,13.7892781 C124.539117,13.6975978 124.611918,13.6614083 124.764077,13.6155681 C125.118898,13.52811 125.430432,13.3320832 125.646866,13.0594551 C125.829195,12.7090195 125.908554,12.3211879 125.878384,11.9339596 L125.878384,7.06827218 C125.913145,6.3939399 125.76492,5.72202026 125.44814,5.11282921 C125.209407,4.66769752 124.743746,4.36189568 124.208564,4.29796077 C124.066242,4.27986599 124,4.22497848 124,4.1339014 C124,4.04282432 124.056404,4 124.168556,4 L124.294481,4 L124.625035,4 L125.144476,4.01507899 L125.269746,4.01507899 L125.557669,4.01507899 C125.713763,4.02955481 125.856085,4.10434659 125.947905,4.22196268 L133.136792,11.6939021 C133.248944,11.8157403 133.318465,11.8730405 133.351258,11.8670089 C133.384707,11.8609773 133.434552,11.8187561 133.441111,11.7300917 L133.441111,7.21423677 L133.347979,5.56942092 C133.337485,5.24673061 133.199754,4.93911928 132.961677,4.70268077 C132.631779,4.48976548 132.248101,4.3600862 131.846714,4.32510295 C131.69521,4.30399237 131.619131,4.24307326 131.619131,4.15199618 C131.619131,4.06091911 131.69521,4.01809478 131.843435,4.01809478 C131.912956,4.01809478 132.025764,4.01809478 132.174644,4.03618957 C132.531432,4.0699665 133.017425,4.08504548 133.619505,4.08504548 C133.877914,4.08866444 134.136979,4.07418861 134.39342,4.04282432 C134.519345,4.01749162 134.647894,4.0030158 134.777099,4 C134.912206,4 134.985006,4.05187171 134.998124,4.15199618 C135.011897,4.25212066 134.948934,4.25875541 134.839405,4.28891338 C134.584931,4.32269031 134.356692,4.45176644 134.207812,4.64477746 C134.083198,4.94394456 134.032697,5.26482539 134.058931,5.58449991 L134.058931,6.35955981 L134.026138,6.83424631 Z" id="Fill-13" fill="#020303"></path>
                <path d="M137.465796,6.19183667 L137.465796,11.5760687 C137.439928,12.0224393 137.481809,12.470018 137.590208,12.9037042 C137.657341,13.1084668 137.7836,13.2890688 137.953588,13.4243692 C138.161762,13.5439651 138.39334,13.6176555 138.63354,13.6406082 C138.878668,13.6714133 139,13.7293992 139,13.817586 C139,13.9057729 138.925476,13.9879196 138.773349,13.9879196 C138.679733,13.9855035 138.586116,13.9776513 138.493731,13.9637588 C138.234438,13.937786 137.974528,13.9281216 137.714003,13.9329538 L136.649114,13.9329538 L135.782545,13.9788593 C135.636577,13.9788593 135.522019,14 135.425323,14 C135.329243,14 135.230083,13.9516784 135.230083,13.8508071 C135.230083,13.7505398 135.304607,13.7136946 135.456734,13.6895338 C135.744359,13.6798695 136.011659,13.540945 136.180415,13.3120215 C136.320224,12.929073 136.375655,12.5207556 136.341781,12.1148544 L136.341781,5.94539661 C136.379351,5.53405916 136.30729,5.12090965 136.133607,4.74520937 C135.903261,4.49574921 135.581762,4.34595231 135.239322,4.32783172 C135.084115,4.30065083 135.006512,4.24266494 135.000353,4.15749815 C134.994194,4.07233137 135.068718,4.00226507 135.214686,4.00226507 C135.259031,3.99924498 135.303375,3.99924498 135.34772,4.00226507 C135.822578,4.04635852 136.299284,4.06568715 136.776605,4.06025097 C137.139986,4.06025097 137.450399,4.06025097 137.707844,4.03850626 L138.198716,4.00226507 L138.381638,4.00226507 C138.515288,4.00226507 138.583652,4.04454646 138.583652,4.13635746 C138.583652,4.22756444 138.518367,4.28555034 138.390876,4.32783172 L138.005939,4.4709844 C137.645639,4.61715718 137.465796,5.18070761 137.465796,6.19183667" id="Fill-15" fill="#020303"></path>
                <path d="M142.532179,5.24008424 L142.532179,8.12281514 C142.515814,8.25900242 142.537215,8.39698954 142.595751,8.52177789 C142.636664,8.56737364 142.766955,8.5913714 142.979701,8.5913714 L144.134697,8.5913714 C144.550118,8.59917067 144.965539,8.56977341 145.375924,8.50377957 C145.567899,8.4863812 145.750433,8.41498786 145.898977,8.29799878 C146.017309,8.11441592 146.091581,7.90743524 146.11487,7.69325524 C146.140677,7.57506627 146.206766,7.51807159 146.308733,7.52407103 C146.410071,7.53007047 146.457907,7.59066481 146.457907,7.71425328 L146.457907,7.8714386 C146.419512,8.33459537 146.397482,8.75515611 146.397482,9.13612055 C146.395594,9.42409366 146.411959,9.71206678 146.445319,9.99824007 L146.445319,10.2040209 C146.445319,10.3216099 146.397482,10.3822042 146.299292,10.3822042 C146.201101,10.3906034 146.11487,10.3222098 146.106058,10.2292185 C146.105429,10.2280186 146.105429,10.2262188 146.105429,10.2250189 L146.054445,10.0252375 C146.033674,9.77206118 145.90716,9.53808302 145.702596,9.37489826 C145.419355,9.23811103 145.102124,9.17871657 144.785523,9.20271433 L143.135169,9.20271433 C142.967742,9.18951556 142.799056,9.21471321 142.642958,9.27530755 C142.551692,9.34190134 142.505744,9.45109114 142.522738,9.55968101 L142.522738,9.795459 L142.522738,12.4298131 C142.522738,12.8353752 142.598899,13.0867518 142.75122,13.1863425 C142.903541,13.2859332 143.290637,13.3375283 143.906216,13.3375283 C145.870653,13.3375283 147.127616,12.9169676 147.685917,12.0764461 C147.719906,12.0122521 147.78096,11.9648565 147.853973,11.9462582 C147.952164,11.9462582 148,12.0038528 148,12.130441 C147.950275,12.5456023 147.757042,12.9325662 147.451141,13.2319382 C147.053973,13.7226924 146.438395,14.0070658 145.788198,13.9998665 C145.639024,13.9998665 145.448308,13.9998665 145.200944,13.972869 C144.244847,13.8882769 143.454917,13.8456809 142.830527,13.8456809 C142.212431,13.8330821 141.594335,13.8612795 140.980645,13.930273 C140.851613,13.9560706 140.721322,13.9722691 140.589772,13.9788685 C140.428009,13.9788685 140.348702,13.9272733 140.348702,13.8216832 C140.348702,13.7154931 140.412274,13.6854959 140.542565,13.6548987 L140.828324,13.5763061 C141.186467,13.4797151 141.367742,13.1437464 141.367742,12.5719998 L141.367742,12.1064433 L141.367742,6.05660802 C141.367742,5.37627153 141.288434,4.91671443 141.132966,4.68033649 C140.913926,4.41876091 140.567113,4.28437345 140.21904,4.32636953 C140.073013,4.32636953 140,4.28137373 140,4.19378191 C140,4.10559014 140.113926,4 140.336113,4 C140.504799,4.00299972 140.673485,4.0149986 140.840913,4.03599664 C141.696932,4.12178863 142.556727,4.16138493 143.417781,4.15418561 C144.027065,4.15418561 144.563336,4.15418561 145.036035,4.12718813 L146.099135,4.07559294 C146.394335,4.07559294 146.57498,4.05759462 146.638552,4.04799552 C146.737372,4.03299692 146.836821,4.02399776 146.9369,4.02099804 C147.10181,4.02099804 147.184264,4.08759182 147.184264,4.22677883 C147.183006,4.28137373 147.176711,4.33596864 147.165382,4.3899636 C147.13454,4.57834601 147.113139,4.76852826 147.10181,4.9587105 L147.076633,5.37927125 C147.065932,5.55205512 147.040755,5.72423904 147.000472,5.89342325 C146.974036,5.96121692 146.905429,6.00621272 146.829268,6.00561278 C146.730448,6.00561278 146.683242,5.93901899 146.683242,5.79083283 L146.683242,5.60305036 C146.683871,5.4536643 146.653659,5.30547813 146.594493,5.16749102 C146.486231,4.94431185 146.270338,4.78532669 146.01668,4.74093083 C145.493627,4.64973935 144.961133,4.61314276 144.429898,4.63234097 L143.256019,4.63234097 C143.048308,4.60894316 142.83871,4.64793952 142.656176,4.74393055 C142.546656,4.88671723 142.502596,5.06550054 142.532179,5.24008424" id="Fill-17" fill="#020303"></path>
                <path d="M71.4781836,20.253047 L71.4781836,23.0877188 L71.4781836,23.2242209 L71.4781836,23.4094306 C71.4966179,23.539318 71.636104,23.6030591 71.8935697,23.6030591 L72.512962,23.6030591 L72.7544512,23.6030591 L73.6159472,23.5880258 C73.9551382,23.6126803 74.2943292,23.5435273 74.5948082,23.3877828 C74.8172487,23.2272275 74.9579638,22.9812834 74.9819284,22.7118873 C75.0009772,22.5994385 75.0532077,22.5423121 75.1306317,22.5423121 C75.2080557,22.5423121 75.2670455,22.6150731 75.2578283,22.7605951 L75.2080557,23.4695637 L75.2080557,23.9061296 C75.2080557,24.4611576 75.2080557,24.8159426 75.2363217,24.9674779 L75.2363217,25.1677209 C75.2363217,25.2795684 75.1957662,25.3403028 75.1029803,25.3403028 C75.0101943,25.3403028 74.9358427,25.222442 74.8799253,24.9885245 C74.8479725,24.807524 74.784067,24.6331381 74.6906665,24.4731842 C74.6058688,24.3697554 74.4842025,24.3006024 74.3502466,24.2795558 C73.8770997,24.1857483 73.3947357,24.1454591 72.9123717,24.1580871 C72.5344686,24.1502698 72.1559511,24.1622964 71.7786626,24.1941669 C71.6053802,24.2188215 71.5089074,24.2735425 71.4904731,24.3583301 C71.4609782,24.5008454 71.4480742,24.6463674 71.4536045,24.7918894 L71.4536045,27.453378 C71.4351702,27.7841098 71.545776,28.1094296 71.7633007,28.363191 C71.9716082,28.5916966 72.2745451,28.7149694 72.5873136,28.6999361 C72.7513788,28.6999361 72.83802,28.7450359 72.8410924,28.8394448 C72.8441648,28.9332523 72.7796447,29 72.6211098,29 C72.5160343,29 72.367331,29 72.1780723,28.9693321 C71.9396554,28.9452789 71.6993951,28.9350563 71.4597493,28.9392656 L70.9546496,28.9392656 L70.3905602,28.9392656 C70.2240371,28.939867 70.057514,28.9488869 69.8922198,28.9663255 L69.5173892,28.9879734 C69.377903,28.9879734 69.3066238,28.9512922 69.3066238,28.863498 C69.3066238,28.7757037 69.3809754,28.7330093 69.5327511,28.6999361 C69.7908312,28.6662616 70.0218744,28.5261516 70.1675053,28.3144833 C70.305148,28.0035954 70.3641378,27.664445 70.3383297,27.3264973 L70.3383297,20.8682081 C70.357993,20.5074098 70.2799545,20.1478142 70.1122024,19.8255011 C70.0415376,19.690803 69.9340042,19.5771516 69.8018918,19.4983773 C69.6046448,19.421407 69.3951084,19.3799152 69.1824995,19.3739019 C69.0675924,19.3739019 69.0030724,19.3221875 69,19.2494265 C69,19.1279577 69.0897136,19.0678247 69.2943342,19.0678247 C69.3588543,19.0678247 69.5075576,19.0678247 69.7465889,19.1008979 C70.1797948,19.1435923 70.9140942,19.1646389 71.9488726,19.1646389 C72.8785755,19.1646389 73.4641715,19.1646389 73.7271675,19.1435923 L74.7435115,19.0918779 C75.0298576,19.0864659 75.3149746,19.064818 75.5988628,19.0281369 C75.6769013,19.0112996 75.7567832,19.0022797 75.8372796,19.001077 C75.9171616,18.9914557 75.9896698,19.0473794 75.9988869,19.1255524 C76.0007304,19.1387817 76.0001159,19.1514096 75.9982725,19.1646389 C75.9952001,19.2446158 75.9822961,19.3239915 75.9614039,19.4009618 C75.8704614,19.8110691 75.8299059,20.2307978 75.840352,20.6499251 C75.840352,20.8682081 75.7752175,20.9776502 75.6449485,20.9776502 C75.5705968,20.9776502 75.5245111,20.9229292 75.5183663,20.7990551 C75.4993176,20.6481211 75.4728951,20.4983899 75.4372555,20.3498612 C75.4089895,20.1742727 75.3254207,20.0113122 75.1988386,19.8832288 C75.0065075,19.7888199 74.7945131,19.7389095 74.5794463,19.7377068 L73.7179503,19.6499126 C73.4426648,19.6282647 73.098558,19.6132314 72.6800996,19.6132314 C72.3384506,19.5855702 71.9949583,19.6210487 71.6674423,19.7196669 C71.5433181,19.7924279 71.4781836,19.9680164 71.4781836,20.253047" id="Fill-19" fill="#020303"></path>
                <path d="M80.1702674,23.8214595 L81.0377084,23.8214595 C81.6198836,23.8514549 82.1910622,23.6666833 82.6263998,23.3073385 C83.0235727,22.9335959 83.2331558,22.4218745 83.2034001,21.897555 C83.2240997,21.2478548 82.9368933,20.6227508 82.4174636,20.1860178 C81.8676315,19.7300879 81.1483217,19.4901247 80.4115466,19.5171206 C80.1929075,19.4973236 79.9736215,19.5465161 79.7886192,19.6562992 C79.6566595,19.7936781 79.5939139,19.9760501 79.6159072,20.1584221 L79.6159072,20.3977853 L79.6159072,23.3073385 C79.5958545,23.4549158 79.6294913,23.6048928 79.710349,23.7338729 C79.8481304,23.811861 80.0104926,23.8424563 80.1702674,23.8214595 Z M82.4271666,23.9756358 L84.556634,26.8791899 L84.8011476,27.2211374 C85.4538307,28.1144002 86.0592929,28.5769291 86.6181811,28.6093242 L86.8691633,28.6093242 C86.9603707,28.6093242 87.0030636,28.6519176 86.9998293,28.7155078 C86.996595,28.7790981 86.8788662,28.8516869 86.6537585,28.9116777 C86.4060106,28.9728683 86.1505004,29.0022638 85.8936964,28.9998642 C85.4512433,29.0046634 85.0178462,28.8810824 84.654957,28.6459185 C84.2060352,28.330367 83.8256807,27.9392271 83.5326526,27.4934955 L81.6153556,24.7711136 L81.5073297,24.6139378 C81.385073,24.4165681 81.1528497,24.2995861 80.9070424,24.3115842 L79.8830609,24.3115842 L79.7135833,24.3415796 C79.6547189,24.3721749 79.6223758,24.4507628 79.6223758,24.5683448 L79.6223758,26.8311972 L79.6223758,27.1155536 C79.612026,27.3969104 79.6327256,27.6782671 79.6844745,27.9560245 C79.7401046,28.1215991 79.8552459,28.264977 80.0104926,28.3615622 C80.3145175,28.5487335 80.6696443,28.6537173 81.0344741,28.6639158 C81.2207702,28.681913 81.3152119,28.7335051 81.3216805,28.8210916 C81.3281492,28.9086782 81.2466446,28.9602703 81.0706983,28.9602703 C80.9956624,28.9602703 80.8455906,28.9602703 80.6140142,28.9302749 C80.3824379,28.8996796 80.0790599,28.8996796 79.6353131,28.8996796 L78.8953037,28.8996796 L78.497484,28.8996796 C78.2859603,28.9008794 78.0744367,28.9116777 77.8642067,28.9332744 C77.662386,28.9512716 77.5381886,28.9572707 77.4469812,28.9572707 C77.3557737,28.9572707 77.2548634,28.9086782 77.2548634,28.8090935 C77.2548634,28.7095088 77.3195495,28.6939112 77.4469812,28.6699148 C77.7949926,28.6393195 78.100958,28.4437496 78.2555578,28.1527943 C78.41792,27.627275 78.4813124,27.080159 78.4450882,26.5348428 L78.4450882,21.3924326 L78.4450882,20.6485468 C78.4450882,19.9046611 78.1656441,19.4901247 77.6067559,19.4055377 L77.2451604,19.3569452 C77.0815045,19.3239502 77,19.2693586 77,19.1847716 C77,19.1001846 77.0879731,19.0395939 77.2645663,19.0395939 C77.303378,19.0395939 77.4832054,19.0395939 77.7995206,19.0635902 C77.9851698,19.0635902 78.2135119,19.084587 78.4838999,19.084587 C78.7549348,19.084587 79.136583,19.0695893 79.6909431,19.0365944 C80.1049344,19.0119982 80.4639424,19 80.7770233,19 C81.9575452,19 82.8443921,19.2087679 83.4446794,19.6203047 C84.057904,20.0558378 84.3962124,20.7469317 84.3451104,21.4620219 C84.3341137,22.5508546 83.6950148,23.3889259 82.4271666,23.9756358 L82.4271666,23.9756358 Z" id="Fill-21" fill="#020303"></path>
                <path d="M94.5855507,25.2938454 L94.5855507,21.2460496 C94.6199098,20.7560636 94.5257404,20.2660777 94.3125868,19.8272549 C94.1007057,19.5176519 93.7571148,19.3313654 93.3887089,19.3274298 C93.2410921,19.3274298 93.1711013,19.2552766 93.1711013,19.1588536 C93.1711013,19.0630866 93.2220037,18.9968369 93.3218996,19.0001166 C93.4841509,19.0125794 93.6457658,19.0335694 93.8061083,19.0630866 C94.0332601,19.0945717 94.262957,19.1090023 94.4926539,19.1063786 C95.0538524,19.1063786 95.4006247,19.1063786 95.5348797,19.0827648 L95.8562008,19.0630866 C95.952279,19.0630866 96,19.1096583 96,19.2021456 C96,19.2815141 95.9459162,19.3412045 95.8396576,19.3871202 C95.5749653,19.4776397 95.357994,19.6757331 95.2402823,19.9361406 C95.1270245,20.3670922 95.0818487,20.8137862 95.105391,21.2591684 L95.105391,25.1252693 C95.105391,26.5473437 94.8292457,27.6421049 94.2775914,28.4088969 C93.8881883,28.9257763 93.3721657,29.3252428 92.7829708,29.5666281 C91.3685215,30.1720593 89.7733688,30.1418861 88.3811893,29.4839799 C87.7480912,29.1933992 87.2199792,28.7040691 86.8732068,28.0848633 C86.4825312,27.2636284 86.2961013,26.3538419 86.3310967,25.4394638 L86.3310967,21.4710365 L86.3310967,21.0276221 C86.3654558,20.6288116 86.2878297,20.2280332 86.1064901,19.8731706 C85.8697941,19.6193224 85.5465641,19.4697684 85.2055183,19.4566497 C85.070627,19.4369715 85,19.3805608 85,19.2946329 C85,19.208705 85.0960782,19.1096583 85.2888709,19.1096583 C85.4167631,19.1096583 85.5904674,19.1096583 85.815074,19.1260567 C86.0396807,19.1424552 86.2159301,19.1457349 86.3247339,19.1457349 L87.4795812,19.1457349 C87.5438454,19.1457349 87.6850995,19.1457349 87.9097062,19.112938 C88.1343128,19.0794851 88.230391,19.0893242 88.2946553,19.0893242 C88.3589195,19.0893242 88.4709047,19.1326161 88.4709047,19.2152644 C88.4709047,19.2979126 88.3875521,19.3740014 88.2240282,19.4035187 C87.9803332,19.4402512 87.7639981,19.5852136 87.6335609,19.8003614 C87.5171217,20.1362019 87.4674919,20.4930323 87.4891254,20.8492069 L87.4891254,21.3680542 L87.4891254,25.3004048 C87.4891254,26.6431107 87.6946437,27.6152114 88.0954998,28.1740709 C88.6700602,28.9848108 89.625752,29.3914926 90.9829361,29.3914926 C92.186777,29.3914926 93.0871124,29.0517165 93.6839426,28.3728203 C94.2839542,27.6847409 94.5855507,26.6595092 94.5855507,25.2938454" id="Fill-23" fill="#020303"></path>
                <path d="M99.4566779,21.1950777 L99.4566779,26.5793675 C99.4325635,27.0280583 99.4746091,27.4779585 99.5815782,27.9145552 C99.6508298,28.1171313 99.777585,28.2967285 99.9463859,28.4327871 C100.154141,28.5549374 100.387247,28.6287114 100.629009,28.6492713 C100.8751,28.6831348 101,28.7411864 101,28.8264498 C101,28.9117131 100.922092,28.9969765 100.769367,28.9969765 C100.675383,28.9957671 100.581399,28.9885106 100.488651,28.9758118 C100.229576,28.9498095 99.9692636,28.9401342 99.7089517,28.9449719 L98.636788,28.9298543 L97.7668144,28.9758118 C97.6542805,28.98972 97.5411282,28.9975812 97.4273577,29 C97.2931827,29 97.2276409,28.9510189 97.2276409,28.8536615 C97.2276409,28.756304 97.305549,28.71337 97.4582736,28.6891818 C97.7451732,28.6752736 98.0116684,28.5380057 98.1847974,28.314265 C98.3214457,27.9284634 98.3758577,27.5196831 98.3437052,27.1127169 L98.3437052,20.9483582 C98.3820409,20.5365544 98.3096977,20.1229364 98.1347137,19.7468102 C97.904081,19.4946484 97.579464,19.3434722 97.2338241,19.3259358 C97.0810995,19.2987241 97.0031914,19.243696 97.0000999,19.1554091 C96.9970083,19.0671222 97.0656416,19 97.2152746,19 L97.346358,19 C97.822463,19.0453528 98.3016596,19.0659128 98.7802378,19.0610752 C99.1450455,19.0610752 99.4597695,19.0610752 99.7151349,19.0362823 L100.214118,19 L100.395285,19 C100.528842,19 100.594383,19.0423293 100.594383,19.1342444 C100.594383,19.2255548 100.531933,19.2836065 100.40456,19.3259358 L100.018111,19.4722743 C99.6458832,19.6065187 99.4585328,20.1809881 99.4566779,21.1950777" id="Fill-25" fill="#020303"></path>
                <path d="M108.554935,19.7619164 L106.52942,19.7619164 C106.390063,19.7436304 106.248889,19.774107 106.129527,19.8478605 C106.05682,19.9776911 106.028343,20.1276362 106.047125,20.2751432 L106.047125,27.3835182 L106.047125,27.6663416 C106.042884,28.2009021 106.456712,28.6446422 106.988084,28.6738998 C107.155918,28.704986 107.241349,28.7567963 107.241349,28.8372547 C107.241349,28.9171035 107.174095,29 107.039585,29 C106.922041,28.9926856 106.804497,28.9780568 106.688165,28.9567232 C106.471859,28.9366086 106.254948,28.9299037 106.038037,28.9353895 L105.512118,28.9353895 L104.947422,28.9353895 C104.775953,28.9335609 104.604484,28.9408753 104.434226,28.9567232 C104.159149,28.9847617 104.000404,29 103.951326,29 C103.807729,29 103.737444,28.9445325 103.737444,28.8372547 C103.737444,28.7293673 103.813788,28.714129 103.972533,28.695843 C104.251851,28.6885286 104.519052,28.5788126 104.723845,28.3880288 C104.878349,28.1350725 104.94621,27.8382299 104.916521,27.5432159 L104.916521,20.3428014 L104.916521,20.1550652 C104.931668,20.0392539 104.904403,19.9210045 104.840178,19.8234792 C104.7911,19.7710594 104.672344,19.7497257 104.488757,19.7497257 L102.582604,19.7497257 C102.282079,19.7241253 101.98216,19.8070218 101.736771,19.9831769 C101.515619,20.2343045 101.373233,20.5451664 101.327185,20.8773619 C101.284166,21.0650981 101.216911,21.1571376 101.13148,21.1510423 C101.046048,21.144947 101,21.0803365 101,20.9541631 C101.012724,20.7670365 101.041201,20.5805193 101.086037,20.3982689 C101.148445,20.1166646 101.182981,19.828965 101.189646,19.5406559 C101.174498,19.3907107 101.20237,19.2395465 101.269018,19.1042302 C101.318096,19.0335243 101.424734,19 101.590144,19 L109.361384,19 C109.621314,19 109.783089,19.027429 109.838225,19.0859442 C109.915174,19.2450323 109.944863,19.423016 109.923657,19.599171 C109.918204,19.8045837 109.92911,20.0099963 109.956981,20.2135804 C109.978188,20.3763257 109.993941,20.4964038 110,20.5701573 C110,20.7115689 109.953952,20.7883701 109.844284,20.7975131 C109.734011,20.8066561 109.697657,20.7268073 109.669786,20.5732049 C109.651003,20.3202487 109.542547,20.0825308 109.364414,19.9033281 C109.114178,19.7777642 108.832436,19.7283921 108.554935,19.7619164" id="Fill-27" fill="#020303"></path>
                <path d="M113.462717,21.1957416 L113.462717,26.5816598 C113.436849,27.0304863 113.47873,27.4805226 113.587128,27.9172514 C113.656109,28.1210985 113.782984,28.3007501 113.953588,28.43564 C114.158682,28.5584321 114.390876,28.6328333 114.630461,28.6521897 C114.875588,28.6860634 115,28.7441326 115,28.8294217 C115,28.9147109 114.925476,29 114.773349,29 C114.678501,28.9987902 114.584268,28.9921365 114.490652,28.9788289 C114.231358,28.9528188 113.971449,28.9425357 113.710924,28.9479797 L112.649114,28.9328575 L111.779465,28.9788289 C111.661828,28.9921365 111.544192,28.9993951 111.425939,29 C111.292289,29 111.227004,28.9510041 111.227004,28.8536172 C111.227004,28.7562303 111.304607,28.7132833 111.453655,28.6890878 C111.740663,28.6800145 112.007964,28.5414953 112.177336,28.3140576 C112.319608,27.929954 112.375655,27.5198403 112.341781,27.1121461 L112.341781,20.9489475 C112.379351,20.5370191 112.306675,20.1226712 112.130527,19.7470361 C111.901413,19.4954029 111.579298,19.3435761 111.236242,19.3260344 C111.084115,19.2988144 111.006512,19.2437697 111.000353,19.1554561 C110.994194,19.0671425 111.068718,19 111.214686,19 L111.34772,19 C111.821346,19.0453666 112.297436,19.0659327 112.773526,19.0610936 C113.139986,19.0610936 113.447319,19.0610936 113.704765,19.0362932 L114.198716,19 L114.381638,19 C114.512208,19 114.580573,19.0423421 114.580573,19.134285 C114.580573,19.225623 114.515288,19.2836922 114.384717,19.3260344 L114.00286,19.4724171 C113.645023,19.6067022 113.464564,20.1813453 113.462717,21.1957416" id="Fill-29" fill="#020303"></path>
                <path d="M117.533176,20.2250766 L117.533176,23.1107861 C117.515545,23.2469724 117.537584,23.3849585 117.596773,23.5097459 C117.713892,23.5703398 117.848642,23.5931375 117.980874,23.5763392 L119.120582,23.5763392 C119.536167,23.5847383 119.951751,23.5565412 120.361669,23.4917477 C120.554978,23.4749494 120.737584,23.4017568 120.885557,23.2829687 C121.006454,23.1005871 121.080126,22.893008 121.101535,22.6782296 C121.12987,22.5570418 121.193467,22.4994476 121.298623,22.506047 C121.403148,22.5120464 121.447855,22.57564 121.447855,22.6992275 L121.447855,22.853412 C121.403148,23.3165653 121.384258,23.737123 121.384258,24.1180846 C121.384258,24.4204542 121.403148,24.6928268 121.428335,24.9801978 C121.428335,25.0737884 121.444707,25.1433814 121.444707,25.1889768 C121.444707,25.306565 121.396852,25.3671589 121.298623,25.3671589 C121.200394,25.375558 121.114128,25.3071649 121.105313,25.2141743 C121.105313,25.2117745 121.104683,25.2093747 121.104683,25.206975 L121.056828,25.0101948 C121.035419,24.7558204 120.906966,24.5206441 120.701692,24.3568606 C120.419599,24.2200744 120.102873,24.1600804 119.787407,24.1846779 L118.136403,24.1846779 C117.967651,24.1714793 117.798268,24.1966767 117.64085,24.2572706 C117.54388,24.3280635 117.498544,24.4456517 117.523731,24.5596402 L117.523731,24.7954164 L117.523731,27.4303511 C117.523731,27.8353103 117.596773,28.086685 117.752302,28.1892747 C117.907832,28.2924643 118.288784,28.3374598 118.907753,28.3374598 C120.869815,28.3374598 122.130421,27.9169021 122.688941,27.0763868 C122.723573,27.0109933 122.785911,26.9635981 122.860213,26.9461999 C122.952145,26.9461999 123,27.0037941 123,27.133981 C122.949626,27.5479393 122.756946,27.9337004 122.450925,28.2318704 C122.05486,28.7238209 121.43778,29.0087922 120.787328,28.9997931 C120.638095,28.9997931 120.447304,28.9997931 120.199843,28.9727958 C119.247776,28.8882043 118.456907,28.8486083 117.828493,28.8486083 C117.210153,28.8360096 116.591814,28.8630068 115.977883,28.9302001 C115.8488,28.9565974 115.718457,28.9739957 115.586856,28.9817949 C115.428178,28.9817949 115.345691,28.9272004 115.345691,28.8246107 C115.345691,28.722021 115.412436,28.6884244 115.542778,28.6524281 L115.82865,28.5768357 C116.186934,28.4826451 116.36828,28.1472789 116.36828,27.5755365 L116.36828,27.1093834 L116.36828,21.0601925 C116.36828,20.3762614 116.288941,19.9197074 116.133412,19.6839311 C115.914915,19.4187578 115.566076,19.2825715 115.215348,19.3269671 C115.069894,19.3269671 115,19.2843714 115,19.1967802 C115,19.109189 115.110823,19 115.336246,19 C115.460291,19 115.628414,19 115.838095,19.0365963 C116.695081,19.1217877 117.557104,19.1613837 118.419126,19.1541845 C119.025502,19.1541845 119.565132,19.1541845 120.038017,19.1241875 L121.098386,19.0755924 C121.396852,19.0755924 121.577568,19.0575942 121.638017,19.0485951 C121.743172,19.0323967 121.848957,19.0221978 121.955372,19.0179982 C122.120346,19.0179982 122.203463,19.0875912 122.203463,19.2237775 C122.202204,19.2801718 122.194648,19.3359662 122.180795,19.3899607 C122.15183,19.5789417 122.13231,19.7685226 122.124124,19.9587035 L122.092011,20.3792611 C122.082566,20.5538435 122.057379,20.7266261 122.015821,20.896409 C121.989374,20.9630023 121.921999,21.006198 121.847698,21.005598 C121.749469,21.005598 121.701614,20.9390048 121.701614,20.7908197 L121.701614,20.6030386 C121.700984,20.4548535 121.67076,20.3078683 121.61283,20.1704821 C121.505785,19.9461047 121.289807,19.7853209 121.034789,19.7409254 C120.511531,19.6503345 119.979457,19.6137382 119.447383,19.6323363 L118.273042,19.6323363 C118.06588,19.6107385 117.856198,19.6497346 117.672963,19.7439251 C117.562771,19.8813113 117.512397,20.0534939 117.533176,20.2250766" id="Fill-31" fill="#020303"></path>
                <path d="M127.180119,23.8214436 L128.046719,23.8214436 C128.627038,23.8514388 129.19637,23.6666678 129.629993,23.3073242 C130.027427,22.9335829 130.236807,22.4218631 130.20708,21.8975454 C130.228406,21.2484472 129.942771,20.6227454 129.425137,20.1860139 C128.875838,19.7300855 128.157225,19.4901231 127.421164,19.5171189 C127.202737,19.497322 126.983664,19.5465143 126.798841,19.656297 C126.66507,19.7924757 126.601093,19.975447 126.623065,20.1584183 L126.623065,20.3977807 L126.623065,23.3073242 C126.603032,23.4549011 126.636636,23.6048775 126.717415,23.7338573 C126.855709,23.812445 127.019853,23.8430402 127.180119,23.8214436 M129.43483,23.9756194 L131.559003,26.8791638 L131.803279,27.2211102 C132.45533,28.11437 133.061497,28.5768975 133.621783,28.6092924 L133.866059,28.6092924 C133.960409,28.6092924 134.003061,28.6518857 133.99983,28.7154757 C133.996598,28.7790657 133.878984,28.8516544 133.657325,28.9116449 C133.409818,28.9728353 133.154555,29.0022307 132.898,28.9998311 C132.454683,29.0052303 132.020414,28.8810497 131.65723,28.6458866 C131.210036,28.3291363 130.83005,27.9385976 130.536014,27.4934674 L128.620575,24.7710946 L128.512654,24.6139192 C128.390516,24.4165502 128.158518,24.2995685 127.912949,24.3115667 L126.893191,24.3115667 L126.723878,24.341562 C126.661839,24.3721572 126.632759,24.4507448 126.632759,24.5683264 L126.632759,26.8311714 L126.632759,27.1155267 C126.621126,27.3968826 126.641806,27.6788384 126.694797,27.9559949 C126.748434,28.1227687 126.86411,28.2661462 127.020499,28.3615313 C127.324229,28.5499017 127.678366,28.6548852 128.043488,28.6638838 C128.229604,28.681881 128.323954,28.7334729 128.330416,28.8210592 C128.336878,28.9086454 128.255453,28.9602373 128.076446,28.9602373 C128.004714,28.9602373 127.854788,28.9602373 127.620205,28.930242 C127.385622,28.8996468 127.082538,28.8996468 126.642452,28.8996468 L125.906391,28.8996468 L125.505726,28.8996468 C125.294407,28.9008466 125.083089,28.9116449 124.873063,28.9332416 C124.674669,28.9512387 124.54736,28.9572378 124.459473,28.9572378 C124.332164,28.9572378 124.267541,28.9086454 124.267541,28.809061 C124.267541,28.7094767 124.328933,28.6938791 124.459473,28.6698829 C124.807147,28.6392877 125.112815,28.4437184 125.267265,28.152764 C125.427532,27.6266465 125.491509,27.0801323 125.456612,26.5348178 L125.456612,21.3924246 L125.440456,20.6485414 C125.440456,19.9046581 125.161929,19.4901231 124.606168,19.4055364 L124.244277,19.356944 C124.081426,19.3239492 124,19.2693577 124,19.184771 C124,19.1001843 124.087888,19.0395938 124.261079,19.0395938 C124.299853,19.0395938 124.47886,19.0395938 124.798099,19.06359 C124.984215,19.06359 125.209104,19.0845867 125.482461,19.0845867 C125.756465,19.0845867 126.134512,19.0695891 126.685104,19.0365943 C127.098693,19.0119981 127.457354,19 127.773362,19 C128.949509,19 129.835496,19.2087672 130.438432,19.6203027 C131.051062,20.0558343 131.389043,20.7469259 131.337344,21.4620137 C131.335406,22.5508429 130.70145,23.3889114 129.43483,23.9756194" id="Fill-33" fill="#020303"></path>
                <path d="M135.544196,20.2224401 L135.544196,23.109007 C135.526581,23.2452338 135.5486,23.3832609 135.607738,23.5080854 C135.645486,23.5506938 135.778861,23.5746985 135.991507,23.5746985 L137.142812,23.5746985 C137.558037,23.5831001 137.973262,23.5548946 138.382825,23.4900819 C138.575967,23.4732786 138.758415,23.4000642 138.90626,23.2812409 C139.025165,23.0976048 139.100031,22.8911642 139.125197,22.676322 C139.147845,22.5550982 139.213904,22.4974869 139.318968,22.5040882 C139.423404,22.5100894 139.464926,22.5737019 139.464926,22.6943256 L139.464926,22.8515565 C139.423404,23.3148475 139.401384,23.7355301 139.401384,24.1166049 C139.401384,24.4046615 139.417112,24.692118 139.448569,24.9789743 L139.448569,25.1878153 C139.448569,25.3024378 139.398238,25.3630497 139.300094,25.3630497 C139.203838,25.3714514 139.118905,25.3042382 139.110098,25.2130203 C139.109468,25.2106198 139.109468,25.2082193 139.109468,25.2058188 L139.061655,25.0089802 C139.041522,24.7545302 138.91318,24.5180838 138.706826,24.3554518 C138.424347,24.218625 138.108525,24.1592133 137.793331,24.183218 L136.143756,24.183218 C135.975779,24.1694153 135.807172,24.1940201 135.651777,24.2558323 C135.553004,24.3248458 135.504561,24.443069 135.528468,24.5582917 L135.528468,24.794138 L135.528468,27.4298557 C135.528468,27.8379358 135.601447,28.0893852 135.756842,28.1890048 C135.912237,28.2892244 136.292859,28.3372339 136.908147,28.3372339 C138.868512,28.3372339 140.127399,27.9177515 140.686065,27.0787867 C140.743316,26.9971707 140.803083,26.9515617 140.860333,26.9485611 C140.917584,26.9455605 141,27.0061724 141,27.136398 C140.94967,27.5498792 140.757785,27.935755 140.454545,28.2346137 C140.055678,28.7255101 139.437244,29.0093659 138.786096,28.999764 C138.643284,28.999764 138.449512,28.999764 138.202265,28.9757593 C137.250393,28.8911427 136.460837,28.8515349 135.836112,28.8515349 C135.217049,28.837132 134.597987,28.8647375 133.983328,28.933751 C133.854986,28.9577557 133.724127,28.9739589 133.593268,28.9817605 C133.434728,28.9817605 133.355458,28.9301503 133.355458,28.8275302 C133.355458,28.7459141 133.419,28.6913034 133.549229,28.6552963 L133.834225,28.5766809 C134.192828,28.4824624 134.370242,28.1499971 134.370242,27.5780848 L134.370242,27.1117932 L134.370242,21.0608047 C134.370242,20.3766704 134.290972,19.9199807 134.132432,19.6841344 C133.91664,19.4182822 133.568732,19.2820554 133.218937,19.3270642 C133.076125,19.3270642 133,19.2844559 133,19.1968387 C133,19.1092215 133.114501,19 133.339729,19 C133.466813,19 133.631645,19 133.840516,19.0366072 C134.696131,19.1218239 135.55615,19.1614317 136.416169,19.1542303 C137.025794,19.1542303 137.564958,19.1542303 138.034288,19.1242244 L139.100031,19.0756149 C139.391947,19.0756149 139.572507,19.0576113 139.639195,19.0486095 C139.737968,19.0330065 139.83737,19.0228045 139.937402,19.0180035 C140.102233,19.0180035 140.184649,19.0876172 140.184649,19.223844 C140.18402,19.280255 140.176471,19.336066 140.16263,19.3900766 C140.146902,19.4566897 140.127399,19.6445266 140.102233,19.9589883 L140.070777,20.379671 C140.063227,20.5543053 140.038691,20.7271392 139.997798,20.8969726 C139.970116,20.9641858 139.901541,21.0073943 139.826046,21.006194 C139.727902,21.006194 139.676942,20.9395809 139.676942,20.7913518 L139.676942,20.6035149 C139.678201,20.4552858 139.648003,20.3082569 139.588235,20.17083 C139.484429,19.9451856 139.268638,19.7843541 139.01447,19.7411456 C138.491664,19.6499276 137.959421,19.6133205 137.428437,19.6325242 L136.257628,19.6325242 C136.050016,19.61092 135.839887,19.6499276 135.654923,19.7441462 C135.55615,19.8845737 135.516515,20.0556073 135.544196,20.2224401" id="Fill-35" fill="#020303"></path>
                <path d="M46,17.5 C46,26.612883 38.6130212,34 29.5003095,34 C20.3875978,34 13,26.612883 13,17.5 C13,8.38711843 20.3875978,1 29.5003095,1 L29.5003095,1 C38.6093073,0.996287415 45.9962861,8.37845247 46,17.4876207 L46,17.5 Z" id="Fill-37" fill="#E85C0C"></path>
                <g id="Group-41">
                    <mask id="mask-2" fill="white">
                        <use xlink:href="#path-1"></use>
                    </mask>
                    <g id="Clip-40"></g>
                    <path d="M17.4638026,-6.23264875e-05 L5.77568254,-6.23264875e-05 C5.77568254,-6.23264875e-05 -0.000122981061,5.99262945 -0.000122981061,16.2054477 C-0.000122981061,26.4182659 5.10605067,35 5.10605067,35 L18,35 C18,35 9.93920636,30.7767572 9.93920636,16.0701992 C9.94228089,14.4359987 10.6770927,6.8789121 17.4638026,-6.23264875e-05" id="Fill-39" fill="#E85C0C" mask="url(#mask-2)"></path>
                </g>
                <g id="Group-44" transform="translate(41.000000, 0.000000)">
                    <mask id="mask-4" fill="white">
                        <use xlink:href="#path-3"></use>
                    </mask>
                    <g id="Clip-43"></g>
                    <path d="M0.520821235,-6.23264875e-05 L12.2088614,-6.23264875e-05 C12.2088614,-6.23264875e-05 18,5.99262945 18,16.2054477 C18,26.4182659 12.8969357,35 12.8969357,35 L0,35 C0,35 8.06073856,30.7767572 8.06073856,16.0701992 C8.04536604,14.4359987 7.30748471,6.8789121 0.520821235,-6.23264875e-05" id="Fill-42" fill="#E85C0C" mask="url(#mask-4)"></path>
                </g>
            </g>
        </g>
    </g>
</svg>