<?xml version="1.0" encoding="UTF-8"?>
<svg width="228px" height="102px" viewBox="0 0 228 102" version="1.1" xmlns="http://www.w3.org/2000/svg" xmlns:xlink="http://www.w3.org/1999/xlink">
    <title>logo-credit-agricole</title>
    <defs>
        <polygon id="path-1" points="0 0 91 0 91 21 0 21"></polygon>
        <polygon id="path-3" points="0 0 24 0 24 32 0 32"></polygon>
    </defs>
    <g id="Page-1" stroke="none" stroke-width="1" fill="none" fill-rule="evenodd">
        <g id="Desktop-HD" transform="translate(-972.000000, -615.000000)">
            <g id="Group-19" transform="translate(992.000000, 641.000000)">
                <g id="Group-3" transform="translate(27.000000, 35.000000)">
                    <mask id="mask-2" fill="white">
                        <use xlink:href="#path-1"></use>
                    </mask>
                    <g id="Clip-2"></g>
                    <path d="M90.1942668,8.3532424 C79.2704381,16.6087272 63.4316081,21.000257 49.7929817,21.000257 C30.6789485,21.000257 13.469541,13.7632935 0.442779576,1.72032308 C-0.582015755,0.774415576 0.330447448,-0.517853438 1.56923862,0.216638597 C15.621423,8.58779147 32.9996424,13.6328457 50.9495633,13.6328457 C63.8865846,13.5698709 76.6836614,10.8895854 88.6059282,5.74621336 C90.4534465,4.93846491 92.0041319,6.98450396 90.1942668,8.3532424" id="Fill-1" fill="#F3991D" mask="url(#mask-2)"></path>
                </g>
                <path d="M121.888995,39.0872544 C120.469856,37.240174 112.504571,38.2122534 108.918471,38.6458708 C107.83531,38.7772504 107.66764,37.8168203 108.643697,37.1197966 C114.999221,32.5927022 125.406242,33.9019677 126.615634,35.4157452 C127.825026,36.9301699 126.298782,47.5414981 120.344263,52.5986412 C119.428134,53.3733277 118.558545,52.9591261 118.962738,51.9326826 C120.309836,48.5206967 123.308135,40.9149191 121.888995,39.0872544" id="Fill-4" fill="#F3991D"></path>
                <path d="M110.094887,6.31452487 L110.094887,2.07738982 C110.078563,1.49948546 110.537497,1.01748332 111.12011,1.00129204 C111.133921,1.00066929 111.147733,1.00066929 111.161545,1.00066929 L130.321221,1.00066929 C130.907601,0.980118815 131.400436,1.43534305 131.421154,2.01760661 C131.421782,2.03504338 131.421782,2.05248015 131.421782,2.07053966 L131.421782,5.69987873 C131.421782,6.31078842 130.899439,7.10478418 129.982829,8.3677045 L120.068993,22.4049269 C123.750503,22.3189885 127.642332,22.8670013 130.986078,24.7302447 C131.596315,25.0634115 131.982421,25.6936262 132,26.3848696 L132,30.9009929 C132,31.5268484 131.312542,32.2461152 130.591182,31.8699791 C124.242083,28.6348356 116.706413,28.6485359 110.369242,31.9067209 C109.704385,32.261061 109.009394,31.5343213 109.009394,30.9271481 L109.009394,26.6339663 C108.94724,25.6157835 109.194599,24.6019599 109.719453,23.723894 L121.207222,7.38003605 L111.199214,7.38003605 C110.612835,7.40307749 110.118744,6.94972148 110.095514,6.36745792 C110.094887,6.35002115 110.094887,6.33196164 110.094887,6.31452487" id="Fill-6" fill="#020304"></path>
                <path d="M39.0007946,31.9955312 L33.061134,31.9955312 C32.5071926,31.9727121 32.0544335,31.5601172 32,31.0284927 L32,1.67504892 C32.0121675,1.08051756 32.5232025,0.607482763 33.1411833,0.619817439 C33.1437449,0.619817439 33.1463065,0.619817439 33.1495084,0.619817439 L38.6825184,0.619817439 C39.2499081,0.637085984 39.7129135,1.06078208 39.7596623,1.605358 L39.7596623,5.43589145 L39.8704506,5.43589145 C41.315181,1.74535657 44.0285332,0 47.6877484,0 C51.3476039,0 53.7311529,1.73055496 55.3936175,5.43589145 C56.8345055,1.74535657 60.1037203,0 63.5983541,0 C66.0926914,0 68.809886,0.989240967 70.4729909,3.21441641 C72.3544705,5.68320169 71.9670317,9.26642489 71.9670317,12.4179345 L71.9670317,30.9402998 C71.9548642,31.5348311 71.4438293,32.0078659 70.8258484,31.9955312 C70.8232868,31.9955312 70.8200849,31.9955312 70.8175233,31.9955312 L64.8855474,31.9955312 C64.2983055,31.9702452 63.8320982,31.5101618 63.820571,30.9440002 L63.820571,15.3813402 C63.820571,14.1454057 63.9313593,11.0561863 63.6515069,9.88254193 C63.2070729,7.90837713 61.8776136,7.35146654 60.1607155,7.35146654 C58.582783,7.3983383 57.1860822,8.34810831 56.6122886,9.76474578 C56.0032732,11.2405897 56.0570664,13.7167758 56.0570664,15.3850406 L56.0570664,30.9440002 C56.0468201,31.5366813 55.5389871,32.0097161 54.9235678,32 C54.9178043,31.9992316 54.9126811,31.9992316 54.9075579,31.9992316 L48.9832668,31.9992316 C48.3941037,31.9757958 47.9253348,31.5150956 47.9138077,30.9477006 L47.9138077,15.3813402 C47.9138077,12.1083341 48.4696703,7.28855969 44.2545925,7.28855969 C40.0395148,7.28855969 40.1541454,11.9825204 40.1541454,15.3813402 L40.1541454,30.9402998 C40.1419779,31.5348311 39.630943,32.0078659 39.0129621,31.996148 C39.0091197,31.9955312 39.004637,31.9955312 39.0007946,31.9955312" id="Fill-8" fill="#020304"></path>
                <path d="M146.946235,6.0639879 C142.719814,6.0639879 142.453428,11.8740096 142.453428,15.4994233 C142.453428,19.1248369 142.397842,26.8723646 146.890616,26.8723646 C151.38339,26.8723646 151.546539,20.62617 151.546539,16.8135577 C151.546539,14.3119599 151.439009,11.3136617 150.69248,8.93873499 C150.048536,6.89265387 148.765592,6.0639879 146.946235,6.0639879 M146.890616,0 C155.395988,0 160,7.37437837 160,16.7499102 C160,25.8121963 154.918901,33 146.890616,33 C138.548393,33 134,25.6256216 134,16.4366645 C134,7.18780373 138.600304,0 146.890616,0" id="Fill-10" fill="#020304"></path>
                <g id="Group-14" transform="translate(165.000000, 0.000000)">
                    <mask id="mask-4" fill="white">
                        <use xlink:href="#path-3"></use>
                    </mask>
                    <g id="Clip-13"></g>
                    <path d="M6.8564769,31.999457 L1.0476223,31.999457 C0.46994963,31.9741678 0.0113392672,31.514028 0,30.9477969 L0,1.57964898 C0.0642558475,1.02020282 0.556254052,0.603239634 1.13077692,0.619893489 L6.54716689,0.619893489 C7.04042501,0.642715438 7.46186778,0.975792537 7.58785963,1.44271728 L7.58785963,5.93123959 L7.69684259,5.93123959 C9.33284686,1.91519332 11.620859,0 15.6582681,0 C18.274489,0 20.8377934,0.926447782 22.4737976,3.4621514 C24.000189,5.80911132 24.000189,9.76224304 24.000189,12.6038841 L24.000189,31.0767101 C23.9164044,31.6201192 23.4307058,32.0167277 22.8694121,31.999457 L17.0076409,31.999457 C16.479735,31.9766351 16.0431732,31.5892788 15.9675781,31.0767101 L15.9675781,15.1358869 C15.9675781,11.9247769 16.3442938,7.23024028 12.3144442,7.23024028 C10.8976657,7.23024028 9.5892403,8.15668806 8.92211341,9.57781701 C8.10442625,11.367798 7.99481334,13.157779 7.99481334,15.1358869 L7.99481334,30.9440961 C7.96646517,31.5380836 7.46375765,32.0037747 6.8564769,31.999457" id="Fill-12" fill="#020304" mask="url(#mask-4)"></path>
                </g>
                <path d="M99.1569728,32.5153472 C98.7711705,32.8442632 98.2174086,32.8978367 97.7741465,32.6492808 C95.8280869,31.0576509 95.4808018,30.3200815 94.4187407,28.8025824 C91.2035118,32.0306943 88.9253213,33 84.7654768,33 C79.8346593,33 76,30.0179522 76,23.9977914 C76,19.3088685 78.5730671,16.1175105 82.2454496,14.5557821 C85.4227928,13.1803149 89.8585711,12.9305131 93.2550198,12.554253 L93.2550198,11.8085853 C93.2550198,10.4331181 93.3648881,8.82653755 92.5408752,7.61926606 C91.8311507,6.55651829 90.4590587,6.12793068 89.254295,6.12793068 C87.0209359,6.12793068 85.0376221,7.24612074 84.55016,9.59836901 C84.4478688,10.1203987 84.062698,10.63433 83.5335617,10.6604938 L77.8664997,10.0531204 C77.3013721,9.97961264 76.9042042,9.46817307 76.9787127,8.91125835 C76.9818698,8.88883226 76.9850269,8.86702911 76.9894469,8.84522596 C78.2971333,2.05385661 84.5122744,0 90.0852536,0 C92.9342546,0 96.6596769,0.745044739 98.9037703,2.87739268 C101.752771,5.48691811 101.476837,9.00532337 101.476837,12.8190055 L101.476837,21.8212142 C101.476837,24.5272964 102.61025,25.7127648 103.687465,27.1735757 C104.065059,27.6993431 104.148407,28.3254049 103.668522,28.7060256 C102.474493,29.6971344 100.347214,31.51614 99.1797042,32.5452486 L99.1569728,32.5153472 Z M93.2550198,18.4473327 C93.2550198,20.6843357 93.3080597,22.5737343 92.159493,24.5758863 C91.2262431,26.2011553 89.7487028,27.1847888 88.1050969,27.1847888 C85.8610035,27.1847888 84.5463714,25.4966021 84.5463714,22.9954695 C84.5463714,18.0748103 89.0200354,17.1802582 93.2550198,17.1802582 L93.2550198,18.4473327 Z" id="Fill-15" fill="#020304"></path>
                <path d="M23.1559778,32.5153472 C22.768298,32.8436403 22.2139284,32.8972137 21.7694226,32.6492808 C19.827235,31.0576509 19.4761764,30.3200815 18.4141609,28.8025824 C15.1990701,32.0306943 12.9247659,33 8.76131178,33 C3.83070615,33 0,30.0179522 0,23.9977914 C0,19.3088685 2.57295658,16.1175105 6.24139283,14.5557821 C9.41859958,13.1803149 13.8541873,12.9305131 17.25049,12.554253 L17.25049,11.8085853 C17.25049,10.4331181 17.3603537,8.82653755 16.5401646,7.61926606 C15.8266821,6.55651829 14.4584375,6.12793068 13.2537255,6.12793068 C11.0204624,6.12793068 9.03344534,7.24612074 8.54600424,9.59836901 C8.44371738,10.1203987 8.06235155,10.63433 7.52944962,10.6604938 L1.86263114,10.0531204 C1.299422,9.98023559 0.903533955,9.47066485 0.9774078,8.91561898 C0.980564802,8.89194699 0.984984604,8.868275 0.989404407,8.84522596 C2.29324621,2.05385661 8.51190862,0 14.08086,0 C16.9297386,0 20.6550009,0.745044739 22.8989979,2.87739268 C25.7478764,5.48691811 25.4757428,9.00532337 25.4757428,12.8190055 L25.4757428,21.8212142 C25.4757428,24.5272964 26.6091065,25.7127648 27.6862756,27.1735757 C28.063853,27.6993431 28.1434095,28.3254049 27.6862756,28.7060256 C26.4885091,29.6971344 24.3651096,31.51614 23.1938618,32.5452486 L23.1559778,32.5153472 Z M17.2580668,18.4473327 C17.2580668,20.6843357 17.3148928,22.5737343 16.1625871,24.5758863 C15.2331657,26.2011553 13.7519004,27.1847888 12.1089966,27.1847888 C9.86436825,27.1847888 8.54979265,25.4966021 8.54979265,22.9954695 C8.54979265,18.0748103 13.0232644,17.1802582 17.2391248,17.1802582 L17.2580668,18.4473327 Z" id="Fill-17" fill="#020304"></path>
            </g>
        </g>
    </g>
</svg>