<?xml version="1.0" encoding="UTF-8"?><svg id="Calque_2" xmlns="http://www.w3.org/2000/svg" viewBox="0 0 889.86 246.19"><defs><style>.cls-1{fill:#1a2445;}.cls-2{fill:#73072f;}</style></defs><g id="artwork"><g><g><path class="cls-1" d="M396.22,245.63h28.42l-51.19-124.43h-37l-51.19,124.43h27.46l8.22-21.39h67.05l8.22,21.39Zm-16.69-43.4h-50.12l25.06-65.19,25.06,65.19Z"/><path class="cls-1" d="M251.02,245.63h24.78V121.21h-26.91l-40.56,68.86-40.56-68.86h-28.07v124.42h24.2s-.14-82.74-.41-87.21c0,0,10.75,19.37,11.93,21.3l32.04,52.5,32.04-52.5c1.18-1.93,11.93-21.26,11.93-21.26-.27,4.48-.41,87.17-.41,87.17Z"/><path class="cls-1" d="M865.08,245.63h24.78V121.21h-26.91l-40.56,68.86-40.56-68.86h-28.07v124.42h24.2s-.14-82.74-.41-87.21c0,0,10.75,19.37,11.93,21.3l32.04,52.5,32.04-52.5c1.18-1.93,11.93-21.26,11.93-21.26-.27,4.48-.41,87.17-.41,87.17Z"/><path class="cls-1" d="M43.67,120.62C12.25,120.62,.01,132.52,.01,163.08v40.65c0,30.56,12.24,42.47,43.66,42.47h35.06c32.88,0,43.51-8.51,43.59-35.01h-26.21c-.12,10.7-6.76,12.74-18.91,12.74h-27.34c-21.8,0-24.82-3.21-24.82-26.39v-28.26c0-23.18,3.02-26.39,24.82-26.39h27.34c11.85,0,18.45,1.94,18.89,11.95h26.22c-.29-25.87-11.04-34.22-43.59-34.22H43.67Z"/><path class="cls-1" d="M510.36,120.62c-31.42,0-43.66,11.91-43.66,42.46v40.65c0,30.56,12.24,42.47,43.66,42.47h35.06c32.88,0,43.51-8.51,43.59-35.01h-26.21c-.12,10.7-6.76,12.74-18.91,12.74h-27.34c-21.8,0-24.82-3.21-24.82-26.39v-28.26c0-23.18,3.01-26.39,24.82-26.39h27.34c11.85,0,18.45,1.94,18.89,11.95h26.22c-.29-25.87-11.04-34.22-43.59-34.22h-35.06Z"/><path class="cls-1" d="M648.99,120.62c-31.42,0-43.66,11.91-43.66,42.46v40.65c0,30.56,12.24,42.47,43.66,42.47h39.28c33,0,43.59-8.58,43.59-35.31v-32.39h-62.17v19.43h37.39v12.97c0,10.96-6.65,13.03-18.91,13.03h-32.99c-21.8,0-24.82-3.21-24.82-26.39v-28.26c0-23.18,3.01-26.39,24.82-26.39h31.56c11.85,0,18.45,1.94,18.89,11.95h26.22c-.29-25.87-11.04-34.22-43.58-34.22h-39.28Z"/></g><g><path class="cls-2" d="M463.1,82.58c-7.87,0-15.11-2.06-21.59-6.14-9.57-6.03-15.49-14.98-17.59-26.59-1.84-10.17-.6-19.63,3.68-28.1,5.89-11.66,15.53-18.7,28.64-20.92,8.63-1.46,16.77-.48,24.2,2.92,4.38,2.01,8.18,4.78,11.35,8.28,0-2.03,0-4.07-.03-6.1,0-.47-.02-1.92,1.12-3.02,.75-.73,1.78-1.07,3.03-1.02,1.64,.07,3.11,.07,4.52,0,1.26-.07,2.26,.28,3.02,1.01,1.14,1.11,1.12,2.59,1.11,3.08-.03,2.02-.03,4.05-.02,6.07v2.38s0,66.17,0,66.17l-3.01,.21c-.34,.03-.65,.05-.95,.05-1.44,0-2.89,0-4.41,0h-4.41v-10.12c-6.05,6.71-14.06,10.61-23.91,11.6-1.61,.16-3.19,.24-4.75,.24Zm-26.95-40.84l.03,.65c.02,.61,.05,1.34,.11,2.06,.54,6.63,2.66,12.02,6.48,16.48,4.97,5.81,11.61,8.94,19.75,9.31,9.63,.44,17.08-2.62,22.79-9.36,3.88-4.57,5.96-10.2,6.39-17.19,.46-7.63-1.05-13.98-4.62-19.41-4.56-6.94-11.24-10.86-19.88-11.65-9.59-.87-17.53,1.93-23.6,8.34-5.01,5.29-7.37,11.89-7.43,20.76Z"/><path class="cls-2" d="M740.97,82.73c-5.84,0-11.63-1.19-17.32-3.57-13.45-5.62-21.44-16.18-23.76-31.39-.23-1.51-.32-3-.4-4.21-.03-.46-.05-.89-.09-1.26v-.14s0-.14,0-.14c.23-13.27,4.45-23.49,12.89-31.24,6.25-5.74,14.01-9.18,23.05-10.22,8.7-1,16.34,0,23.36,3.05,13.79,5.99,21.79,16.87,23.77,32.31,.99,7.69,.04,15.13-2.83,22.12-4.2,10.22-11.47,17.41-21.62,21.36-5.7,2.22-11.4,3.33-17.04,3.33Zm.4-70.27c-1.13,0-2.28,.05-3.46,.16-6.59,.59-12.24,3.07-16.81,7.37-10.09,9.51-10.48,26.09-5.05,36.01,6.23,11.38,16.24,14.08,23.56,14.33,11.39-.03,20.42-4.4,25.42-12.31,4.38-6.93,5.66-14.64,3.89-23.57-1.48-7.48-5.34-13.31-11.47-17.34-4.74-3.12-10.03-4.65-16.08-4.65Z"/><path class="cls-2" d="M129.63,82.65c-8.06,0-15.6-2.13-22.54-6.37-9.68-5.92-15.67-14.87-17.79-26.6-1.75-9.69-.64-18.76,3.3-26.96,5.58-11.63,15.13-18.9,28.38-21.61,2.12-.43,4.24-.63,6.29-.82,.9-.08,1.81-.17,2.71-.27l.2-.02h.2c10.87,.28,19.75,3.36,27.14,9.43,8.48,6.96,13.26,16.42,14.2,28.14,.78,9.62-1.12,18.32-5.65,25.85-5.51,9.16-13.68,15.12-24.28,17.71-4.17,1.02-8.23,1.53-12.16,1.53Zm.83-70.19c-1.14,0-2.3,.05-3.49,.16-6.64,.61-12.25,3.07-16.68,7.32-9.8,9.41-11.49,27.03-3.68,38.47,5.27,7.72,12.98,11.63,23.57,11.94,.33-.02,.66-.04,1-.05,.79-.04,1.53-.07,2.25-.16,11.54-1.36,19.11-6.89,23.14-16.91,3.06-7.61,3.08-15.56,.05-23.64-1.96-5.22-5.32-9.41-10-12.46-4.81-3.13-10.12-4.67-16.17-4.67Z"/><path class="cls-2" d="M337.24,80.9c-2.24,0-4.46,0-6.65-.02-2.12,0-4.23-.02-6.35-.02-.31,0-.63-.02-.98-.04l-3.08-.17V6.28c0-1.1,0-2.34,1.02-3.36,1.02-1.02,2.22-1.01,3.3-1.02,2.43,0,4.86,0,7.29,0,5.59-.01,11.38-.02,17.09,.08,9.15,.16,16.86,2.22,23.56,6.3,12.1,7.37,18.23,18.61,18.21,33.41-.02,19.41-12.75,34.35-32.43,38.04-3.39,.64-7.14,.99-11.45,1.08-3.17,.07-6.36,.09-9.52,.09Zm-4.17-12.31c.89,0,1.78,0,2.67,.01,3.2,.02,6.51,.03,9.74-.04,3.34-.08,6.02-.29,8.44-.66,6.87-1.06,12.24-3.7,16.43-8.05,5.33-5.55,7.71-12.54,7.07-20.76-.69-8.95-4.85-15.78-12.36-20.29-4.49-2.7-9.71-4.19-15.49-4.43-4.15-.17-8.4-.17-12.51-.17-1.33,0-2.66,0-3.99,0v54.42Z"/><path class="cls-2" d="M221.47,80.79h-12.82V1.92h4.23c1.74,0,3.53-.01,5.32,.05,2.19,.07,3.24,2.35,3.25,3.86,.02,1.91,.02,3.82,.02,5.73,6.26-6.85,14.59-10.63,24.87-11.26,6.08-.38,11.29,.45,15.91,2.52,7.01,3.14,11.88,8.83,14.49,16.91,1.51,4.67,2.21,9.77,2.22,16.03,0,9.72,0,19.43,0,29.15v15.89h-12.89v-14.86c0-9,0-18,0-26.99,0-5.77-.53-10.14-1.71-14.17-2.29-7.81-7.78-12.06-15.89-12.28-8.77-.24-15.52,2.63-20.64,8.76-3.69,4.42-5.73,9.82-6.24,16.48-.11,1.38-.12,2.84-.12,4.21,0,8.77,0,17.53,0,26.3v12.55Z"/><path class="cls-2" d="M889.85,80.79h-12.87v-4.37c0-3.87-.01-7.73-.01-11.59,0-9.59-.01-19.51-.09-29.26-.04-5.38-1-9.99-2.92-14.09-2.34-4.98-6.03-7.79-11.27-8.59-10.07-1.54-17.92,1.21-23.98,8.4-3.99,4.73-6.07,10.29-6.19,16.54-.17,9.04-.16,18.26-.15,27.17,0,3.78,0,7.55,0,11.33v1s0,3.44,0,3.44h-12.82V1.97h12.78V11.59c6.29-6.89,14.67-10.69,25.01-11.3,5.1-.3,9.55,.24,13.62,1.66,8.13,2.84,13.74,8.82,16.67,17.75,1.5,4.59,2.21,9.72,2.21,16.16,0,9.81,0,19.62,0,29.43v15.5Z"/><path class="cls-2" d="M12.87,80.76H0V1.99H58.48V13.92h-12.83c-10.95,0-21.89,0-32.84-.02,.03,5.66,.03,11.38,.02,16.93v4.81s42.16,0,42.16,0v11.97H12.87v33.16Z"/><path class="cls-2" d="M580.97,80.78h-12.89V13.92h-4.86c-6.85,0-13.71,0-20.57,.03-.52,0-2.06,.01-3.19-1.19-1.12-1.19-1.03-2.71-1-3.2,.07-1.04,.07-2.17,0-3.66-.07-1.58,.56-2.52,1.11-3.04,.54-.52,1.52-1.1,3.07-.95,.21,.02,.42,0,.62,0,.17,0,.34,0,.51,0h62.41c3.12,0,4.39,1.28,4.39,4.43v7.36l-3.17,.17c-.41,.03-.8,.05-1.19,.05h-25.24s0,41.2,0,41.2v25.67Z"/><path class="cls-2" d="M659.97,80.76h-12.84v-16.25c0-19.44,0-38.89-.03-58.33,0-.52,0-2.1,1.19-3.25,1.19-1.14,2.72-1.07,3.3-1.04,1.21,.06,2.45,.04,3.77,.03,.58,0,1.18-.01,1.78-.01h2.84V80.76Z"/></g></g></g></svg>