<?xml version="1.0" encoding="UTF-8"?>
<svg width="133px" height="68px" viewBox="0 0 133 68" version="1.1" xmlns="http://www.w3.org/2000/svg" xmlns:xlink="http://www.w3.org/1999/xlink">
    <title>logo-part-found-baudouin</title>
    <g id="Page-1" stroke="none" stroke-width="1" fill="none" fill-rule="evenodd">
        <g id="Desktop-HD" transform="translate(-571.000000, -1003.000000)">
            <g id="Group-95" transform="translate(575.000000, 1003.000000)">
                <polygon id="Fill-1" fill="#1E1E1C" points="28.5651 39.846 29.0981 39.846 29.0981 2.761 28.5651 2.761"></polygon>
                <g id="Group-94">
                    <path d="M17.5866,20.0621 C18.5316,21.4081 18.6986,23.1521 18.0236,24.6531 C17.3146,26.0451 15.8756,26.9141 14.3136,26.8951 C13.9506,26.8961 13.5916,26.8311 13.2526,26.7021 L13.0516,27.8361 C13.5136,27.6911 13.9986,27.6291 14.4826,27.6531 C16.4896,27.6531 17.5996,28.7881 18.6306,30.4421 C19.7756,32.5191 19.7096,35.0531 18.4586,37.0681 C17.2476,38.6741 15.6036,39.1351 13.6106,38.7881 C13.1896,38.7301 12.7796,38.6061 12.3966,38.4201 C12.0156,38.2321 12.3066,34.9021 12.2746,32.6601 C12.2276,28.9861 12.2746,26.9111 12.2746,23.2371 C12.2746,21.3821 12.3436,18.4661 12.3436,18.4661 C13.7146,18.1401 15.1576,18.3291 16.3996,18.9961 C16.8506,19.2771 17.2386,19.6491 17.5386,20.0881 L17.5866,20.0621 Z M20.1206,20.0141 C20.7736,21.3581 20.7516,22.9311 20.0596,24.2551 C19.3386,25.8461 16.8416,27.0571 16.5506,27.1711 C18.9166,27.4041 20.9076,29.0451 21.5866,31.3241 C22.2846,33.6481 21.7426,36.1681 20.1526,38.0011 C18.8266,39.3951 17.2366,40.0601 14.3746,40.0071 C12.4656,39.9701 11.4106,39.8141 9.5236,39.8321 C8.7046,39.8321 8.1476,39.8911 8.1476,39.8911 L8.0686,39.2121 C8.6196,39.0851 9.4286,39.2731 9.9236,38.4731 C10.1416,38.1471 10.2866,35.8961 10.3296,34.2321 C10.3846,32.1271 10.4086,28.8351 10.4086,28.8351 C10.4086,28.8351 10.4086,25.1991 10.3296,22.8291 C10.3356,22.5091 10.3236,22.1881 10.2926,21.8701 C10.2396,20.8091 10.0936,19.1181 10.0936,19.1181 C10.0136,18.6941 10.0456,18.3421 9.4256,18.0581 C8.8756,17.8381 8.2826,17.7481 7.6916,17.7931 L7.6916,17.2291 C9.5976,17.3891 11.5126,17.4021 13.4196,17.2661 C16.3356,17.0721 18.9996,17.4881 20.0886,20.0061 L20.1206,20.0141 Z" id="Fill-2" fill="#1E1E1C"></path>
                    <path d="M22.4504,7.3924 C22.4494,7.0164 22.7524,6.7104 23.1294,6.70839753 C23.5054,6.7074 23.8114,7.0104 23.8124098,7.3874 C23.8144,7.7634 23.5104,8.0694 23.1344,8.07140247 C23.1324,8.07140247 23.1304,8.07140247 23.1294,8.07140247 C22.7524,8.0724 22.4454,7.7694 22.4424,7.3924 L22.4504,7.3924 Z M22.5674,5.8574 C22.5684,5.4834 22.8734,5.1804 23.2484,5.18139753 C23.6234,5.1834 23.9254,5.4884 23.9244025,5.8634 C23.9224,6.2364 23.6194,6.53940245 23.2454,6.53940245 C22.8674,6.5404 22.5604,6.2354 22.5594,5.8574 L22.5594,5.8574 L22.5674,5.8574 Z M21.5654,4.6464 C21.6054,4.2694 21.9444,3.9974 22.3214,4.0374 C22.6424,4.0724 22.8954,4.3254 22.9304,4.6464 C22.9314,4.6674 22.9314,4.6884 22.9304,4.7104 C22.9534,5.0884 22.6664,5.4144 22.2874,5.4374 C21.9094,5.4614 21.5834,5.1734 21.5594,4.7954 C21.5584,4.7674 21.5584,4.7384 21.5594,4.7104 C21.5654,4.6884 21.5654,4.6674 21.5654,4.6464 L21.5654,4.6464 Z M18.3634,6.1624 C18.3634,5.7874 18.6674,5.4844 19.0414,5.4844 C19.4164,5.4844 19.7204,5.7874 19.7204,6.1624 C19.7204,6.5374 19.4164,6.8414 19.0414,6.8414 C18.6674,6.8394 18.3644,6.5364 18.3634,6.1624 Z M20.1023902,4.0424 C20.1004,3.6654 20.4044,3.3594 20.7804,3.35839019 C21.1564,3.3564 21.4634,3.6604 21.4644025,4.0364 C21.4654,4.4134 21.1624,4.7194 20.7854,4.7204 C20.7854,4.7204 20.7844,4.7204 20.7834,4.7204 C20.4074,4.7194 20.1034,4.4154 20.1023902,4.0394 L20.1023902,4.0424 Z M18.6974,4.7104 C18.6974,4.3354 19.0014,4.0314 19.3754,4.0314 C19.7504,4.0314 20.0544,4.3354 20.0544,4.7104 C20.0544,5.0844 19.7504,5.3884 19.3754,5.3884 C19.0004,5.3874 18.6974,5.0824 18.6974,4.7074 L18.6974,4.7104 Z M17.6903903,3.5944 L17.6903903,3.5944 C17.6884,3.2154 17.9944,2.9064 18.3734,2.90539025 C18.7534,2.9034 19.0614,3.2094 19.0634024,3.5884 C19.0644,3.9684 18.7584,4.2764 18.3794,4.27840245 C18.3784,4.27840245 18.3774,4.27840245 18.3764,4.27840245 C17.9984,4.2794 17.6914,3.9744 17.6903903,3.5964 C17.6903903,3.5954 17.6903903,3.5934 17.6903903,3.5914 L17.6903903,3.5944 Z M16.1733975,3.4904 C16.1724,3.1144 16.4764,2.8084 16.8524,2.80739019 C17.2284,2.8054 17.5344,3.1094 17.5364025,3.4854 C17.5374,3.8614 17.2344,4.1674 16.8574,4.1694 C16.8564,4.1694 16.8544,4.1694 16.8524,4.1694 C16.4774,4.1664 16.1754,3.8624 16.1733975,3.4884 L16.1733975,3.4904 Z M14.4724,3.8484 C13.8804,3.8564 13.3764,3.4184 13.3004,2.8304 C14.0574,2.5484 14.8904,2.5484 15.6464,2.8304 C15.5684,3.4164 15.0624,3.8484 14.4724,3.8354 L14.4724,3.8484 Z M8.7844,13.7434 C8.7844,13.2824 11.3364,12.9054 14.4824,12.9054 C17.6294,12.9054 20.1864,13.2824 20.1864,13.7434 C20.1864,14.2044 17.6374,14.5674 14.4824,14.5674 C11.3284,14.5674 8.7844,14.1964 8.7844,13.7374 L8.7844,13.7434 Z M5.1424,7.4794 L5.1424,7.4794 C5.1424,7.1024 5.4484,6.7964 5.8264,6.7964 C6.2034,6.7964 6.5104,7.1024 6.5104,7.4794 C6.5104,7.8574 6.2034,8.1634 5.8264,8.1634 C5.4474,8.1684 5.1364,7.8644 5.1314,7.4854 C5.1314,7.4824 5.1314,7.4794 5.1314,7.4774 L5.1424,7.4794 Z M5.0204,5.9294 C5.0204,5.5544 5.3244,5.2504 5.6994,5.2504 C6.0734,5.2504 6.3774,5.5544 6.3774,5.9294 C6.3774,6.3044 6.0734,6.6074 5.6994,6.6074 L5.6994,6.6074 C5.3254,6.6054 5.0234,6.3024 5.0204,5.9294 L5.0204,5.9294 Z M5.98739756,4.6944 L5.98739756,4.6944 C5.9864,4.3154 6.2924,4.0064 6.6714,4.00539025 C7.0504,4.0034 7.3594,4.3094 7.36040975,4.6884 C7.3624,5.0684 7.0564,5.3764 6.6774,5.3784 C6.6764,5.3784 6.6754,5.3784 6.6744,5.3784 C6.2994,5.3734 5.9974,5.0694 5.9954,4.6944 L5.98739756,4.6944 Z M7.42939754,4.1194 C7.4284,3.7424 7.7324,3.4364 8.1084,3.43539019 C8.4844,3.4334 8.7904,3.7374 8.79240246,4.1134 C8.7934,4.4894 8.4894,4.7964 8.1134,4.7974 L8.1114,4.7974 C7.7394,4.7914 7.4404,4.4904 7.4374,4.1194 L7.42939754,4.1194 Z M8.84239756,4.7554 L8.84239756,4.7554 C8.8414,4.3764 9.1474,4.0674 9.5264,4.06639025 C9.9054,4.0644 10.2144,4.3704 10.2154024,4.7494 C10.2164,5.1294 9.9104,5.4374 9.5314,5.4394 L9.5294,5.4394 C9.1494,5.4374 8.84239756,5.1294 8.84239756,4.7494 L8.84239756,4.7554 Z M9.18939754,6.2104 C9.1884,5.8344 9.4924,5.5274 9.8684,5.52639753 C10.2444,5.5254 10.5504,5.8284 10.5524025,6.2054 C10.5534,6.5814 10.2494,6.8874 9.8734,6.8884 L9.8704,6.8884 C9.4964,6.8874 9.1924,6.5844 9.18939754,6.2104 Z M9.8524,3.6284 C9.8524,3.2534 10.1564,2.9504 10.5304,2.9504 C10.9054,2.9504 11.2094,3.2534 11.2094,3.6284 C11.2094,4.0034 10.9054,4.3074 10.5304,4.3074 L10.5304,4.3074 C10.1564,4.3074 9.8524,4.0034 9.8524,3.6284 Z M11.3734,3.5124 C11.3724,3.4904 11.3724,3.4694 11.3734,3.4484 C11.3974,3.0704 11.7234,2.7824 12.1014,2.8054 C12.4474,2.8274 12.7224,3.1024 12.7444,3.4484 C12.7454,3.4694 12.7454,3.4904 12.7444,3.5124 C12.7104,3.8884 12.3794,4.1664 12.0024,4.1334 C11.6724,4.1034 11.4104,3.8424 11.3814,3.5124 L11.3734,3.5124 Z" id="Fill-4" fill="#1E1E1C"></path>
                    <path d="M14.4722,6.417 C14.2022,6.398 13.9312,6.435 13.6772,6.526 C13.7252,5.537 13.4212,4.564 12.8182,3.78 C12.7892,3.554 13.1332,3.427 13.1332,3.427 C13.5472,4.167 14.4822,4.432 15.2222,4.019 C15.4702,3.88 15.6752,3.675 15.8132,3.427 C16.0782,2.942 16.1602,3.554 16.1292,3.777 C15.5262,4.562 15.2222,5.535 15.2702,6.523 C15.0152,6.432 14.7442,6.395 14.4752,6.414 L14.4722,6.417 Z M15.6412,2.409 C15.5592,2.041 15.3102,1.731 14.9682,1.572 L14.6472,1.01 L14.7032,0.941 L15.2332,1.206 L15.2332,0.337 L14.7032,0.602 L14.6312,0.53 L14.9522,0 L13.9822,0 L14.2972,0.53 L14.2252,0.61 L13.6952,0.345 L13.6952,1.211 L14.2252,0.946 L14.2842,1.018 L13.9632,1.588 C13.6202,1.749 13.3712,2.06 13.2902,2.431 C13.2102,2.802 13.3562,2.242 14.1272,2.242 L14.1272,1.635 C14.3292,1.579 14.5432,1.579 14.7452,1.635 L14.7452,2.219 C15.5402,2.219 15.6062,2.431 15.6062,2.431 L15.6412,2.409 Z" id="Fill-6" fill="#1E1E1C"></path>
                    <path d="M14.4722,6.6582 C14.7412,6.6202 15.0132,6.6972 15.2222,6.8702 C15.2222,7.2092 15.0712,7.2602 14.9572,7.3822 C14.9012,7.4492 14.8702,7.5352 14.8702,7.6232 C14.8712,7.7882 14.9772,7.9352 15.1352,7.9862 C15.3012,7.9932 15.4582,7.9102 15.5452,7.7692 C15.6122,7.6712 15.6302,7.5512 15.7522,7.5332 C15.8742,7.5142 15.9832,7.7262 16.0172,7.8962 C16.0522,8.0652 15.9382,8.9192 15.5852,8.8532 C15.3492,8.8052 15.4532,8.5212 15.1562,8.4102 C15.0202,8.3462 14.8632,8.3462 14.7262,8.4102 C14.5012,8.5082 14.5912,9.0172 14.7262,9.3462 C14.7902,9.5362 14.9232,9.6942 15.1002,9.7882 C15.7582,10.0722 16.1822,8.7282 16.2482,8.5272 C16.1182,8.4592 16.0672,8.2992 16.1352,8.1692 C16.1752,8.0922 16.2512,8.0392 16.3382,8.0282 C16.4712,7.9952 16.6082,8.0682 16.6532,8.1982 C16.6872,8.2882 16.6692,8.3902 16.6062,8.4632 C16.5632,8.5192 16.4982,8.5532 16.4282,8.5562 C16.3802,8.8452 16.2852,9.7672 16.7812,9.9232 C16.9932,9.9982 17.3502,9.7302 17.5392,9.4382 C17.7272,9.1472 17.9442,8.6092 17.6422,8.5292 C17.5172,8.4762 17.3732,8.5002 17.2712,8.5902 C17.0592,8.7782 17.0062,8.9852 16.7992,8.9112 C16.5922,8.8372 16.7382,8.5372 16.7992,8.3072 C16.8602,8.0762 16.9692,7.6282 17.1942,7.6202 C17.4192,7.6122 17.3512,8.0152 17.6662,8.1002 C17.7862,8.1202 17.9072,8.0682 17.9762,7.9672 C18.0522,7.8652 18.0822,7.7352 18.0612,7.6102 C18.0612,7.4272 17.9022,7.3442 17.9072,7.1592 C17.9072,6.6452 19.1212,6.8382 19.2322,7.3372 C19.2912,7.6022 18.5332,7.7662 18.5942,8.1852 C18.5942,8.3312 18.8062,8.2992 18.9592,8.2512 C19.2242,8.1712 19.2242,7.9672 19.4502,7.9302 C19.9532,7.8642 19.2142,9.4652 18.9332,9.1422 C18.8372,9.0222 18.8982,8.8632 18.7772,8.7682 C18.7342,8.7312 18.6842,8.7042 18.6312,8.6882 C18.2492,8.5612 17.9762,9.1072 18.0242,9.4992 C18.0242,9.7492 18.0932,9.9922 18.3212,10.0512 C18.6552,10.1362 19.2622,9.6822 19.6672,8.9612 C19.5982,8.8682 19.5982,8.7402 19.6672,8.6462 C19.7222,8.5542 19.8262,8.5042 19.9322,8.5192 C20.0042,8.5212 20.0702,8.5562 20.1122,8.6142 C20.1892,8.7102 20.1892,8.8462 20.1122,8.9432 C20.0582,9.0252 19.9602,9.0682 19.8632,9.0512 C19.7122,9.3852 19.2882,10.2652 19.7922,10.4032 C20.0702,10.4932 20.5872,10.0882 20.6822,10.0162 C20.9312,9.7862 21.3852,9.4092 21.1432,9.2692 C20.9022,9.1282 20.4942,9.6452 20.2582,9.3912 C20.1072,9.2402 20.3012,8.8612 20.4832,8.5802 C20.5922,8.4152 20.6452,8.2512 20.8412,8.2142 C21.1572,8.1562 21.0352,8.7732 21.3422,8.8632 C21.9492,9.0412 21.5152,7.9592 22.0662,7.9062 C22.3072,7.9062 22.4772,7.9062 22.5802,8.1132 C22.6122,8.2322 22.6122,8.3572 22.5802,8.4762 C21.6312,9.3662 20.8102,10.3822 20.1392,11.4952 C19.9402,10.9392 17.6182,10.5252 14.4642,10.5252 C11.3102,10.5252 8.9672,10.9252 8.7652,11.4822 C8.1262,10.3602 7.3072,9.3512 6.3402,8.4952 C6.3082,8.3762 6.3082,8.2512 6.3402,8.1322 C6.4432,7.9362 6.6052,7.9012 6.8702,7.9252 C7.4222,7.9782 6.9602,9.0592 7.5912,8.8822 C7.9012,8.7922 7.7792,8.1742 8.0952,8.2322 C8.2882,8.2702 8.3442,8.4342 8.4532,8.5982 C8.6332,8.8772 8.8292,9.2582 8.6832,9.4092 C8.4392,9.6742 8.1242,9.0752 7.7932,9.2872 C7.4612,9.4992 8.0052,9.8172 8.2592,10.0352 C8.3362,10.1062 8.8632,10.5122 9.1442,10.4222 C9.6452,10.2652 9.2212,9.4042 9.0702,9.0702 C8.9732,9.0822 8.8782,9.0412 8.8212,8.9612 C8.7452,8.8652 8.7452,8.7292 8.8212,8.6332 C8.8672,8.5752 8.9352,8.5402 9.0092,8.5372 C9.1152,8.5222 9.2202,8.5722 9.2742,8.6642 C9.3442,8.7582 9.3442,8.8862 9.2742,8.9802 C9.6742,9.7012 10.2872,10.1542 10.6152,10.0692 C10.9442,9.9842 10.8942,9.7672 10.9122,9.5182 C10.9492,9.1262 10.6682,8.5802 10.3052,8.7072 C10.2512,8.7242 10.2002,8.7512 10.1542,8.7862 C10.0322,8.8822 10.0992,9.0512 9.9952,9.1602 C9.7172,9.4942 8.9772,7.8932 9.4812,7.9492 C9.7122,7.9862 9.7062,8.1902 9.9792,8.2702 C10.1252,8.3172 10.3192,8.3492 10.3372,8.2032 C10.3952,7.7842 9.6402,7.5962 9.7302,7.3552 C9.8522,6.8572 11.0082,6.6632 11.0342,7.1782 C11.0342,7.3662 10.8802,7.4432 10.8802,7.6282 C10.8632,7.7542 10.8932,7.8822 10.9652,7.9862 C11.0362,8.0872 11.1592,8.1392 11.2812,8.1182 C11.5912,8.0342 11.4872,7.6282 11.7502,7.6392 C12.0122,7.6492 12.0812,8.0202 12.1472,8.3252 C12.2142,8.6302 12.2592,8.8872 12.1472,8.9302 C12.0362,8.9722 11.8822,8.7972 11.6812,8.6092 C11.5802,8.5192 11.4372,8.4952 11.3132,8.5482 C11.0022,8.6272 11.2222,9.1552 11.4162,9.4572 C11.6092,9.7592 11.9622,10.0162 12.1662,9.9422 C12.6702,9.7672 12.5662,8.8632 12.5192,8.5742 C12.4512,8.5712 12.3882,8.5372 12.3492,8.4822 C12.2812,8.4112 12.2622,8.3062 12.3012,8.2172 C12.3462,8.0902 12.4782,8.0182 12.6092,8.0472 C12.7362,8.0702 12.8282,8.1822 12.8262,8.3122 C12.8282,8.4052 12.7812,8.4932 12.7012,8.5432 C12.7682,8.7552 13.1972,10.0882 13.8462,9.8042 C14.0232,9.7092 14.1582,9.5512 14.2232,9.3622 C14.3792,9.0332 14.4692,8.5242 14.2232,8.4262 C14.0862,8.3622 13.9282,8.3622 13.7912,8.4262 C13.4942,8.5372 13.5972,8.8212 13.3612,8.8692 C13.0092,8.9352 12.8822,8.1002 12.9322,7.9122 C12.9822,7.7242 13.0272,7.5112 13.1972,7.5492 C13.3672,7.5862 13.3382,7.6862 13.4042,7.7842 C13.4932,7.9262 13.6512,8.0092 13.8172,8.0022 C13.9752,7.9522 14.0822,7.8062 14.0822,7.6412 C14.0822,7.5522 14.0492,7.4652 13.9902,7.3982 C13.8762,7.2762 13.7252,7.2252 13.7252,6.8862 C13.9342,6.7122 14.2082,6.6352 14.4772,6.6742 L14.4722,6.6582 Z" id="Fill-8" fill="#1E1E1C"></path>
                    <path d="M14.4748,10.8673 C17.6268,10.8673 20.1898,11.1823 20.0888,11.8853 C20.0888,12.0783 20.2688,12.3043 20.5658,12.6963 C20.4278,12.8363 20.0358,12.8423 20.0758,13.2263 C19.6378,12.7833 16.6938,12.5293 14.4748,12.5293 C12.2558,12.5293 9.3088,12.7943 8.8768,13.2343 C8.9268,12.8523 8.5218,12.8443 8.3868,12.7043 C8.6778,12.3093 8.8608,12.0973 8.8608,11.8903 C8.7628,11.1883 11.3208,10.8723 14.4748,10.8723 L14.4748,10.8673 Z M9.8228,12.0783 L9.1498,11.9223 L8.6838,12.6383 L9.1158,12.8553 L9.8368,12.0783 L9.8228,12.0783 Z M10.5628,12.3653 L12.3408,12.1533 L12.3408,11.2733 L10.5628,11.4663 L10.5628,12.3653 Z M19.1238,12.0783 L19.8158,11.9223 L20.2738,12.6383 L19.8448,12.8553 L19.1238,12.0783 Z M18.3848,12.3653 L16.6138,12.1533 L16.6138,11.2733 L18.3848,11.4663 L18.3848,12.3653 Z M14.4718,10.9653 L13.3328,11.6363 L14.4718,12.3173 L15.6168,11.6303 L14.4718,10.9653 Z" id="Fill-10" fill="#1E1E1C"></path>
                    <path d="M123.068,49.3295 C122.649,49.3295 122.159,49.6875 121.965,50.5405 C122.226,50.5045 122.481,50.4415 122.729,50.3525 C123.14,50.2145 123.487,50.0555 123.487,49.6685 C123.487,49.4035 123.275,49.3245 123.068,49.3245 L123.068,49.3295 Z M122.959,50.7235 C122.614,50.8425 122.26,50.9315 121.899,50.9885 C121.889,51.0765 121.889,51.1655 121.899,51.2535 C121.899,51.7015 122.079,51.9565 122.503,51.9565 C123.002,51.9165 123.472,51.7025 123.829,51.3515 L124.07,51.7525 C123.611,52.1775 123.017,52.4295 122.392,52.4655 C121.785,52.4655 121.305,52.2005 121.305,51.3145 C121.305,50.1515 121.912,48.8895 123.161,48.8895 C123.691,48.8895 124.062,49.1545 124.062,49.6235 C124.062,50.0925 123.68,50.4585 122.959,50.7235 L122.959,50.7235 Z M121.011,49.6825 C120.897,49.5555 120.739,49.4765 120.569,49.4625 C120.163,49.4625 119.697,49.9925 119.405,51.0025 C119.352,51.1905 119.169,52.3905 119.169,52.3905 L118.599,52.3905 C118.665,51.8395 119.06,49.8515 119.145,48.9455 L119.752,48.9455 C119.706,49.2835 119.644,49.6205 119.564,49.9525 C119.879,49.2845 120.375,48.8925 120.775,48.8925 C120.991,48.8885 121.193,48.9995 121.305,49.1835 L121.011,49.6825 Z M116.969,52.4145 C116.857,52.4205 116.744,52.4115 116.635,52.3855 L116.805,51.4345 C116.674,51.6325 116.515,51.8115 116.333,51.9645 C116.018,52.2555 115.609,52.4255 115.18,52.4435 C114.804,52.4435 114.676,52.2075 114.676,51.8365 C114.676,51.4655 114.968,49.8725 115.127,48.9215 L115.702,48.9215 C115.509,50.0535 115.27,51.3065 115.27,51.6545 C115.27,51.8365 115.27,51.9035 115.466,51.9035 C116.036,51.9035 116.776,51.0175 116.927,50.4665 C116.993,50.2015 117.192,48.9215 117.192,48.9215 L117.78,48.9215 C117.78,48.9215 117.603,49.8915 117.515,50.5115 C117.327,51.5055 117.29,51.8875 117.29,51.8875 C117.502,51.8685 117.709,51.8075 117.897,51.7075 L118.077,52.0805 C117.752,52.3045 117.364,52.4205 116.969,52.4125 L116.969,52.4145 Z M113.033,49.3295 C112.617,49.3295 112.124,49.6875 111.93,50.5405 C112.191,50.5045 112.447,50.4415 112.694,50.3525 C113.107,50.2145 113.452,50.0555 113.452,49.6685 C113.452,49.4035 113.24,49.3245 113.033,49.3245 L113.033,49.3295 Z M112.924,50.7235 C112.579,50.8425 112.225,50.9315 111.864,50.9885 C111.856,51.0765 111.856,51.1655 111.864,51.2535 C111.864,51.7015 112.047,51.9565 112.471,51.9565 C112.97,51.9175 113.44,51.7035 113.796,51.3515 L114.038,51.7525 C113.578,52.1775 112.985,52.4295 112.36,52.4655 C111.753,52.4655 111.273,52.2005 111.273,51.3145 C111.273,50.1515 111.88,48.8895 113.128,48.8895 C113.659,48.8895 114.032,49.1545 114.032,49.6235 C114.032,50.0925 113.645,50.4585 112.924,50.7235 L112.924,50.7235 Z M110.109,52.3905 L109.545,52.3905 L110.443,46.7955 L111,46.7955 L110.109,52.3905 Z M108.368,52.3905 L107.798,52.3905 L108.697,46.7955 L109.267,46.7955 L108.368,52.3905 Z M107.043,47.9035 L107.043,47.9035 C106.863,47.9025 106.718,47.7565 106.717,47.5775 L106.717,47.5165 C106.717,47.2705 106.913,47.0695 107.159,47.0635 C107.385,47.0635 107.475,47.2145 107.475,47.4265 C107.476,47.4385 107.476,47.4515 107.475,47.4635 C107.472,47.6985 107.286,47.8915 107.051,47.9005 L107.043,47.9035 Z M106.6,52.3905 L106.036,52.3905 L106.595,48.9455 L107.178,48.9455 L106.6,52.3905 Z M104.48,49.3295 C104.061,49.3295 103.571,49.6875 103.377,50.5405 C103.637,50.5045 103.893,50.4415 104.14,50.3525 C104.546,50.2145 104.893,50.0555 104.893,49.6685 C104.893,49.4035 104.681,49.3245 104.48,49.3245 L104.48,49.3295 Z M104.366,50.7235 C104.021,50.8455 103.666,50.9335 103.306,50.9885 C103.295,51.0765 103.295,51.1655 103.306,51.2535 C103.306,51.7015 103.486,51.9565 103.91,51.9565 C104.41,51.9195 104.88,51.7055 105.235,51.3515 L105.484,51.7525 C105.025,52.1775 104.432,52.4295 103.806,52.4655 C103.199,52.4655 102.714,52.2005 102.714,51.3145 C102.714,50.1515 103.321,48.8895 104.588,48.8895 C105.103,48.8895 105.49,49.1545 105.49,49.6235 C105.49,50.0925 105.092,50.4585 104.366,50.7235 L104.366,50.7235 Z M101.156,52.3745 C101.029,52.3885 100.901,52.3885 100.774,52.3745 C100.939,51.1635 101.212,50.0235 101.212,49.6765 C101.212,49.4965 101.212,49.4115 101.023,49.4115 C100.416,49.4115 99.682,50.3955 99.574,50.7635 C99.465,51.3705 99.343,52.0115 99.308,52.3935 L98.701,52.3935 C98.866,51.1825 99.152,50.0085 99.152,49.6665 C99.152,49.4855 99.152,49.4015 98.964,49.4015 C98.413,49.4015 97.639,50.2675 97.477,50.8375 C97.424,51.0495 97.212,52.3825 97.212,52.3825 L96.642,52.3825 C96.711,51.8315 97.127,49.6795 97.249,48.9375 L97.856,48.9375 C97.79,49.3455 97.655,49.9315 97.655,49.9315 C97.655,49.9315 98.299,48.8705 99.261,48.8705 C99.645,48.8705 99.778,49.0885 99.778,49.4405 C99.778,49.5545 99.722,49.9125 99.722,49.9125 C99.722,49.9125 100.39,48.8705 101.328,48.8705 C101.705,48.8705 101.858,49.0885 101.858,49.4405 C101.858,49.7935 101.593,51.0315 101.466,51.8665 C101.678,51.8455 101.883,51.7835 102.07,51.6835 L102.253,52.0595 C101.927,52.2815 101.54,52.3965 101.145,52.3885 L101.156,52.3745 Z M93.329,48.5265 L93.032,48.2615 L94.402,47.0505 L94.797,47.3575 L93.329,48.5265 Z M93.594,49.3215 C93.175,49.3215 92.685,49.6795 92.491,50.5325 C92.752,50.4965 93.007,50.4335 93.255,50.3445 C93.66,50.2065 94.007,50.0475 94.007,49.6605 C94.026,49.3955 93.795,49.3165 93.594,49.3165 L93.594,49.3215 Z M93.48,50.7155 C93.136,50.8375 92.781,50.9255 92.42,50.9805 C92.409,51.0685 92.409,51.1575 92.42,51.2455 C92.42,51.6935 92.6,51.9485 93.027,51.9485 C93.527,51.9125 93.997,51.6985 94.352,51.3435 L94.601,51.7445 C94.142,52.1695 93.548,52.4215 92.923,52.4575 C92.316,52.4575 91.831,52.1925 91.831,51.3065 C91.831,50.1435 92.438,48.8815 93.705,48.8815 C94.219,48.8815 94.609,49.1465 94.609,49.6155 C94.609,50.0845 94.203,50.4585 93.477,50.7235 L93.48,50.7155 Z M91.479,49.5045 L90.453,49.5045 L90.233,50.7585 C90.18,51.0305 90.148,51.3055 90.138,51.5825 C90.138,51.8605 90.27,51.9405 90.458,51.9405 C90.736,51.8975 90.994,51.7705 91.198,51.5775 L91.198,52.0805 C90.91,52.3115 90.554,52.4395 90.185,52.4435 L90.138,52.4435 C89.803,52.4425 89.532,52.1715 89.531,51.8365 C89.531,51.5715 89.645,50.9225 89.711,50.4905 C89.777,50.0585 89.87,49.5465 89.87,49.5465 L89.34,49.5465 L89.417,49.0775 L89.947,49.0775 L90.228,48.2055 L90.662,48.2055 L90.517,49.0855 L91.54,49.0855 L91.479,49.5045 Z M87.49,48.5345 L87.193,48.2695 L88.563,47.0575 L88.958,47.3655 L87.49,48.5345 Z M87.755,49.3295 C87.336,49.3295 86.846,49.6875 86.652,50.5405 C86.912,50.5045 87.168,50.4415 87.415,50.3525 C87.821,50.2145 88.173,50.0555 88.173,49.6685 C88.173,49.4035 87.953,49.3245 87.755,49.3245 L87.755,49.3295 Z M87.641,50.7235 C87.296,50.8455 86.941,50.9335 86.581,50.9885 C86.57,51.0765 86.57,51.1655 86.581,51.2535 C86.581,51.7015 86.761,51.9565 87.185,51.9565 C87.684,51.9175 88.154,51.7035 88.51,51.3515 L88.754,51.7525 C88.294,52.1775 87.699,52.4295 87.074,52.4655 C86.469,52.4655 85.984,52.2005 85.984,51.3145 C85.984,50.1515 86.588,48.8895 87.855,48.8895 C88.372,48.8895 88.759,49.1545 88.759,49.6235 C88.759,50.0925 88.372,50.4585 87.646,50.7235 L87.641,50.7235 Z M85.255,47.9035 L85.255,47.9035 C85.078,47.9035 84.935,47.7595 84.935,47.5825 L84.935,47.5435 L84.935,47.5005 C84.934,47.2565 85.13,47.0575 85.375,47.0525 C85.597,47.0525 85.69,47.2035 85.69,47.4155 L85.69,47.4525 C85.694,47.6935 85.504,47.8935 85.263,47.9005 L85.255,47.9035 Z M84.813,52.3905 L84.248,52.3905 L84.805,48.9455 L85.375,48.9455 L84.813,52.3905 Z M83.599,49.5895 C83.34,49.4365 83.046,49.3545 82.745,49.3535 C81.87,49.3535 81.531,50.4745 81.531,51.2455 C81.531,51.6755 81.714,51.9485 82.138,51.9485 C82.638,51.9105 83.109,51.6955 83.463,51.3415 L83.713,51.7415 C83.252,52.1675 82.658,52.4205 82.032,52.4575 C81.425,52.4575 80.94,52.1925 80.94,51.3065 C80.94,50.0925 81.547,48.8815 82.796,48.8815 C83.117,48.8755 83.434,48.9455 83.723,49.0855 L83.599,49.5895 Z M78.804,49.3485 C78.295,49.3485 77.622,49.7725 77.622,50.9545 C77.619,50.9945 77.619,51.0355 77.622,51.0765 C77.626,51.5865 78.042,51.9975 78.552,51.9955073 L78.578,51.9955073 C79.148,51.9955073 79.729,51.4655 79.729,50.3795 C79.721,49.6425 79.31,49.3455 78.817,49.3455 L78.804,49.3485 Z M78.539,52.4515 L78.419,52.4515 C77.658,52.4475 77.041,51.8305 77.039,51.0685 L77.039,50.9015 L77.039,50.7605 C77.047,49.7505 77.855,48.9295 78.865,48.9055 C79.554,48.9055 80.325,49.1705 80.325,50.4325 C80.315,51.4735 79.678,52.4495 78.552,52.4495 L78.539,52.4515 Z M76.471,49.5125 C76.23,49.3925 75.964,49.3345 75.695,49.3425 C75.289,49.3425 75.059,49.4995 75.059,49.7725 C75.059,50.0455 75.247,50.1775 75.666,50.4555 C75.931,50.6205 76.41,50.9305 76.41,51.4445 C76.41,52.1495 75.907,52.4755 75.133,52.4755 C74.768,52.4725 74.412,52.3655 74.107,52.1655 L74.187,51.6035 C74.48,51.8345 74.837,51.9715 75.21,51.9955 C75.66,51.9955 75.817,51.8635 75.817,51.5855 C75.817,51.3065 75.61,51.1185 75.21,50.8745 C74.809,50.6305 74.478,50.3285 74.478,49.8805 C74.478,49.2025 75.008,48.8815 75.689,48.8815 C75.962,48.8685 76.234,48.9185 76.485,49.0275 L76.471,49.5125 Z M71.191,49.3295 C70.773,49.3295 70.282,49.6875 70.089,50.5405 C70.349,50.5045 70.605,50.4415 70.852,50.3525 C71.263,50.2145 71.61,50.0555 71.61,49.6685 C71.592,49.4035 71.398,49.3245 71.191,49.3245 L71.191,49.3295 Z M71.083,50.7235 C70.738,50.8425 70.383,50.9305 70.023,50.9885 C70.015,51.0765 70.015,51.1655 70.023,51.2535 C70.023,51.7015 70.197,51.9565 70.627,51.9565 C71.126,51.9175 71.596,51.7035 71.952,51.3515 L72.196,51.7525 C71.736,52.1775 71.141,52.4295 70.516,52.4655 C69.911,52.4655 69.431,52.2005 69.431,51.3145 C69.431,50.1515 70.038,48.8895 71.287,48.8895 C71.817,48.8895 72.191,49.1545 72.191,49.6235 C72.191,50.0925 71.804,50.4585 71.083,50.7235 L71.083,50.7235 Z M67.857,52.3905 C67.73,52.4045 67.602,52.4045 67.475,52.3905 C67.64,51.1795 67.913,50.0395 67.913,49.6925 C67.913,49.5125 67.913,49.4275 67.724,49.4275 C67.173,49.4275 66.399,50.2945 66.245,50.8645 C66.19,51.0765 65.965,52.4095 65.965,52.4095 L65.403,52.4095 C65.464,51.8585 65.88,49.7055 66.007,48.9635 L66.625,48.9635 C66.564,49.3715 66.431,49.9575 66.431,49.9575 C66.431,49.9575 67.049,48.8975 68.021,48.8975 C68.398,48.8975 68.551,49.1145 68.551,49.4675 C68.551,49.8195 68.286,51.0575 68.157,51.8925 C68.369,51.8715 68.575,51.8095 68.763,51.7095 L68.946,52.0865 C68.622,52.2945 68.242,52.3995 67.857,52.3885 L67.857,52.3905 Z M63.783,52.4145 C63.669,52.4205 63.555,52.4115 63.444,52.3855 L63.619,51.4345 C63.488,51.6325 63.329,51.8115 63.147,51.9645 C62.832,52.2555 62.423,52.4255 61.994,52.4435 C61.612,52.4435 61.49,52.2085 61.49,51.8365 C61.49,51.4655 61.782,49.8725 61.941,48.9215 L62.545,48.9215 C62.347,50.0535 62.111,51.3065 62.111,51.6545 C62.111,51.8365 62.111,51.9035 62.309,51.9035 C62.874,51.9035 63.613,51.0175 63.765,50.4665 C63.839,50.2015 64.043,48.9215 64.043,48.9215 L64.607,48.9215 C64.607,48.9215 64.438,49.8915 64.342,50.5115 C64.154,51.5055 64.112,51.8875 64.112,51.8875 C64.324,51.8685 64.531,51.8075 64.719,51.7075 L64.894,52.0805 C64.568,52.3065 64.179,52.4235 63.783,52.4125 L63.783,52.4145 Z M59.542,49.6825 C59.428,49.5575 59.271,49.4785 59.102,49.4625 C58.689,49.4625 58.228,49.9925 57.936,51.0025 C57.883,51.1905 57.7,52.3905 57.7,52.3905 L57.13,52.3905 C57.191,51.8395 57.586,49.8515 57.676,48.9455 L58.283,48.9455 C58.233,49.3505 58.095,49.9525 58.095,49.9525 C58.41,49.2845 58.906,48.8925 59.306,48.8925 C59.522,48.8885 59.724,48.9995 59.836,49.1835 L59.542,49.6825 Z M55.5,52.4145 C55.388,52.4205 55.276,52.4115 55.166,52.3855 L55.336,51.4345 C55.205,51.6325 55.046,51.8115 54.864,51.9645 C54.549,52.2555 54.14,52.4255 53.711,52.4435 C53.335,52.4435 53.207,52.2085 53.207,51.8365 C53.207,51.4655 53.499,49.8725 53.658,48.9215 L54.233,48.9215 C54.04,50.0535 53.801,51.3065 53.801,51.6545 C53.801,51.8365 53.801,51.9035 53.997,51.9035 C54.567,51.9035 55.307,51.0175 55.458,50.4665 C55.524,50.2015 55.723,48.9215 55.723,48.9215 L56.293,48.9215 C56.293,48.9215 56.115,49.8915 56.014,50.5115 C55.908,50.9795 55.84,51.4555 55.813,51.9345 C56.026,51.9175 56.232,51.8565 56.42,51.7545 L56.6,52.1315 C56.273,52.3335 55.892,52.4315 55.508,52.4125 L55.5,52.4145 Z M50.97,49.3485 C50.461,49.3485 49.759,49.7725 49.759,50.9545 C49.756,50.9945 49.756,51.0355 49.759,51.0765 C49.76,51.5845 50.171,51.9955 50.679,51.9985 L50.737,51.9985 C51.307,51.9985 51.887,51.4685 51.887,50.3815 C51.887,49.6425 51.477,49.3455 50.986,49.3455 L50.97,49.3485 Z M50.705,52.4515 L50.586,52.4515 C49.824,52.4475 49.208,51.8305 49.205,51.0685 C49.201,51.0125 49.201,50.9565 49.205,50.9015 L49.205,50.7285 C49.213,49.7195 50.022,48.8975 51.031,48.8735 C51.723,48.8735 52.497,49.1385 52.497,50.4025 C52.489,51.4735 51.845,52.4495 50.705,52.4495 L50.705,52.4515 Z M47.474,49.4325 C46.912,49.4325 46.263,50.0745 46.056,50.8645 L45.9,51.8155 C46.126,51.9645 46.393,52.0385 46.663,52.0275 C47.493,52.0275 47.941,51.1795 47.941,50.1725 C47.941,49.6605 47.766,49.4145 47.474,49.4145 L47.474,49.4325 Z M46.578,52.4625 C46.322,52.4625 46.068,52.4195 45.826,52.3355 L45.468,54.5985 L44.916,54.5985 C44.916,54.5985 45.208,52.8465 45.391,51.7175 C45.574,50.5885 45.815,48.9475 45.815,48.9475 L46.385,48.9475 L46.25,49.7585 C46.553,49.2715 47.067,48.9555 47.639,48.9055 C48.169,48.9055 48.542,49.3005 48.542,50.1165 C48.553,51.1505 48.015,52.4595 46.578,52.4595 L46.578,52.4625 Z M42.147,49.3295 C41.728,49.3295 41.243,49.6875 41.044,50.5405 C41.304,50.5055 41.56,50.4425 41.807,50.3525 C42.218,50.2145 42.565,50.0555 42.565,49.6685 C42.565,49.4035 42.353,49.3245 42.147,49.3245 L42.147,49.3295 Z M42.038,50.7235 C41.694,50.8455 41.339,50.9335 40.978,50.9885 C40.967,51.0765 40.967,51.1655 40.978,51.2535 C40.978,51.7015 41.158,51.9565 41.582,51.9565 C42.082,51.9195 42.552,51.7055 42.907,51.3515 L43.149,51.7525 C42.691,52.1775 42.1,52.4295 41.476,52.4655 C40.869,52.4655 40.384,52.2005 40.384,51.3145 C40.384,50.1515 40.991,48.8895 42.253,48.8895 C42.783,48.8895 43.162,49.1545 43.162,49.6235 C43.162,50.0925 42.77,50.4585 42.038,50.7235 L42.038,50.7235 Z M39.218,52.3905 L38.653,52.3905 L39.552,46.7955 L40.119,46.7955 L39.218,52.3905 Z M36.97,49.4195 C36.363,49.4195 35.756,50.0745 35.531,50.8645 L35.361,51.7915 C35.6,51.9385 35.876,52.0165 36.156,52.0145 C37.018,52.0145 37.423,51.2375 37.423,50.1595 C37.423,49.6505 37.254,49.4065 36.97,49.4065 L36.97,49.4195 Z M36.066,52.4515053 C35.61,52.4525 35.165,52.3115 34.791,52.0485 L35.685,46.7875 L36.254,46.7875 L35.724,49.7325 C36.025,49.2355 36.545,48.9115 37.124,48.8605 C37.654,48.8605 38.022011,49.2555 38.022011,50.0745 C38.025,51.3755 37.413,52.4495 36.066,52.4495 L36.066,52.4515053 Z M33.151,52.3905 C33.021,52.4045 32.891,52.4045 32.761,52.3905 C32.931,51.1795 33.204,50.0395 33.204,49.6925 C33.204,49.5125 33.204,49.4275 33.015,49.4275 C32.411,49.4275 31.69,50.4105 31.568,50.7795 C31.452,51.3865 31.338,52.0275 31.287,52.4095 L30.683,52.4095 C30.845,51.1985 31.131,50.0235 31.131,49.6825 C31.131,49.5015 31.131,49.4165 30.943,49.4165 C30.391,49.4165 29.617,50.2835 29.458,50.8535 C29.403,51.0655 29.193,52.3985 29.193,52.3985 L28.616,52.3985 C28.677,51.8475 29.093,49.6955 29.22,48.9535 L29.827,48.9535 C29.766,49.3615 29.633,49.9475 29.633,49.9475 C29.633,49.9475 30.27,48.8865 31.224,48.8865 C31.6,48.8865 31.738,49.1045 31.738,49.4565 C31.738,49.5705 31.677,49.9285 31.677,49.9285 C31.677,49.9285 32.35,48.8865 33.267,48.8865 C33.649,48.8865 33.797,49.1045 33.797,49.4565 C33.797,49.8095 33.548,51.0475 33.405,51.8815 C33.616,51.8585 33.821,51.7965 34.009,51.6995 L34.187,52.0755 C33.88,52.2785 33.519,52.3875 33.151,52.3885 L33.151,52.3905 Z M27.105,49.3295 C26.686,49.3295 26.196,49.6875 26.002,50.5405 C26.262,50.5045 26.518,50.4415 26.765,50.3525 C27.171,50.2145 27.518,50.0555 27.518,49.6685 C27.518,49.4035 27.335,49.3245 27.105,49.3245 L27.105,49.3295 Z M26.991,50.7235 C26.646,50.8455 26.291,50.9335 25.931,50.9885 C25.92,51.0765 25.92,51.1655 25.931,51.2535 C25.931,51.7015 26.111,51.9565 26.535,51.9565 C27.035,51.9195 27.505,51.7055 27.86,51.3515 L28.109,51.7525 C27.65,52.1775 27.057,52.4295 26.432,52.4655 C25.825,52.4655 25.339,52.2005 25.339,51.3145 C25.339,50.1515 25.946,48.8895 27.195,48.8895 C27.725,48.8895 28.104,49.1545 28.104,49.6235 C28.104,50.0925 27.717,50.4585 26.991,50.7235 L26.991,50.7235 Z M24.759,49.5125 C24.521,49.3935 24.257,49.3345 23.99,49.3425 C23.577,49.3425 23.383,49.4995 23.383,49.7725 C23.383,50.0455 23.572,50.1775 23.99,50.4555 C24.255,50.6205 24.74,50.9305 24.74,51.4445 C24.74,52.1495 24.237,52.4755 23.455,52.4755 C23.091,52.4725 22.736,52.3645 22.432,52.1655 L22.509,51.6035 C22.803,51.8345 23.161,51.9715 23.534,51.9955 C23.982,51.9955 24.171,51.8635 24.171,51.5855 C24.171,51.3065 23.964,51.1185 23.564,50.8745 C23.163,50.6305 22.832,50.3285 22.832,49.8805 C22.832,49.2025 23.378,48.8815 24.043,48.8815 C24.316,48.8685 24.588,48.9185 24.839,49.0275 L24.759,49.5125 Z M20.844,52.3905 C20.715,52.4045 20.584,52.4045 20.455,52.3905 C20.619,51.1795 20.897,50.0395 20.897,49.6925 C20.897,49.5125 20.897,49.4275 20.709,49.4275 C20.158,49.4275 19.384,50.2945 19.225,50.8645 C19.169,51.0765 18.96,52.4095 18.96,52.4095 L18.384,52.4095 C18.451,51.8585 18.869,49.7055 18.991,48.9635 L19.596,48.9635 C19.529,49.3715 19.397,49.9575 19.397,49.9575 C19.397,49.9575 20.028,48.8975 20.987,48.8975 C21.369,48.8975 21.517,49.1145 21.517,49.4675 C21.517,49.8195 21.268,51.0575 21.122,51.8925 C21.335,51.8715 21.541,51.8095 21.729,51.7095 L21.912,52.0865 C21.595,52.2935 21.223,52.3985 20.844,52.3885 L20.844,52.3905 Z M16.852,49.3295 C16.436,49.3295 15.943,49.6875 15.75,50.5405 C16.01,50.5045 16.266,50.4415 16.513,50.3525 C16.927,50.2145 17.271,50.0555 17.271,49.6685 C17.271,49.4035 17.059,49.3245 16.852,49.3245 L16.852,49.3295 Z M16.744,50.7235 C16.399,50.8425 16.044,50.9315 15.684,50.9885 C15.676,51.0765 15.676,51.1655 15.684,51.2535 C15.684,51.7015 15.858,51.9565 16.291,51.9565 C16.8,51.9175 17.278,51.6965 17.637,51.3335 L17.878,51.7335 C17.418,52.1595 16.824,52.4125 16.198,52.4495 C15.593,52.4495 15.114,52.1845 15.114,51.2965 C15.114,50.1325 15.721,48.8705 16.982,48.8705 C17.512,48.8705 17.883,49.1365 17.883,49.6055 C17.883,50.0745 17.467,50.4585 16.744,50.7235 L16.744,50.7235 Z M13.258,49.6795 C13.144,49.5525 12.986,49.4735 12.816,49.4595 C12.41,49.4595 11.944,49.9895 11.652,50.9995 C11.599,51.1875 11.416,52.3885 11.416,52.3885 L10.846,52.3885 C10.913,51.8365 11.307,49.8495 11.392,48.9425 L11.999,48.9425 C11.949,49.3485 11.806,49.9495 11.806,49.9495 C12.119,49.2815 12.617,48.8895 13.017,48.8895 C13.233,48.8855 13.435,48.9965 13.547,49.1815 L13.258,49.6795 Z M10.112,47.9005 L10.112,47.9005 C9.935,47.9005 9.79,47.7575 9.789,47.5805 C9.787,47.5705 9.787,47.5605 9.789,47.5505 C9.787,47.5365 9.787,47.5225 9.789,47.5085 C9.79,47.2625 9.988,47.0635 10.234,47.0605 C10.451,47.0605 10.549,47.2115 10.549,47.4235 L10.549,47.4585 C10.551,47.6995 10.358,47.8965 10.117,47.9005 L10.112,47.9005 Z M9.677,52.3885 L9.108,52.3885 L9.664,48.9425 L10.234,48.9425 L9.677,52.3885 Z M7.252,49.3135 C6.988,49.3215 6.74,49.4385 6.566,49.6365 C6.165,50.1715 5.952,50.8245 5.961,51.4925 C5.961,51.8505 6.094,51.8975 6.245,51.8975 C6.586,51.8545 6.897,51.6805 7.112,51.4125 C7.381,51.1495 7.589,50.8285 7.719,50.4745 L7.931,49.4995 C7.733,49.3595 7.493,49.2925 7.252,49.3105 L7.252,49.3135 Z M8.235,50.5325 C8.096,51.0305 8.022,51.5435 8.015,52.0595 C8.015,52.2475 8.053,52.6665 8.053,52.8365 C8.116,53.3445 7.934,53.8535 7.562,54.2065 C7.196,54.5015 6.732,54.6465 6.263,54.6125 C5.727,54.6165 5.207,54.4345 4.79,54.0975 L4.973,53.5805 C5.359,53.9025 5.841,54.0885 6.343,54.1115 C6.707,54.1555 7.07,54.0225 7.318,53.7535 C7.475,53.4865 7.541,53.1755 7.507,52.8675 C7.507,52.5025 7.477,52.2615 7.477,52.0725 C7.453,51.8665 7.483,51.6575 7.562,51.4655 C7.202,52.0185 6.612,52.3805 5.956,52.4495 C5.556,52.4495 5.378,52.0965 5.378,51.5505 C5.352,50.6555 5.714,49.7935 6.372,49.1865 C6.649,48.9935 6.981,48.8955 7.318,48.9085 C7.587,48.8975 7.852,48.9715 8.076,49.1205 L8.217,48.9085 L8.593,48.9085 C8.593,48.9085 8.421,49.6895 8.246,50.5275 L8.235,50.5325 Z M2.934,48.1475 L2.012,49.9655 L3.337,49.9655 L2.934,48.1475 Z M3.891,52.3885 L3.462,50.4585 L1.739,50.4585 L0.758,52.3805 L0.096,52.3805 L2.879,47.0795 L3.345,47.0795 L4.556,52.3805 L3.891,52.3885 Z M99.176,39.8375 L99.176,36.7045 C99.179,36.6755 99.179,36.6465 99.176,36.6175 C99.174,36.1135 98.766,35.7045 98.261,35.7035 C98.219,35.7005 98.177,35.7005 98.134,35.7035 C97.724,35.6925 97.323,35.8275 97.002,36.0845 L97.002,39.8295 L96.099,39.8295 L96.099,35.0585 L97.002,35.0585 L97.002,35.5575 C97.448,35.1965 97.994,34.9845 98.566,34.9505 L98.672,34.9505 C99.451,34.9535 100.082,35.5835 100.085,36.3625 L100.085,36.4505 C100.127,37.1795 100.085,39.8215 100.085,39.8215 L99.176,39.8375 Z M92.878,39.8375 L93.787,39.8375 L93.787,35.0665 L92.878,35.0665 L92.878,39.8375 Z M93.316,33.672511 C92.98,33.6745 92.707,33.4035 92.705989,33.0685 C92.704,32.7335 92.975,32.4605 93.31,32.4584972 C93.645,32.4575 93.918,32.7275 93.92,33.0635 C93.92,33.0645 93.92,33.0665 93.92,33.0685 C93.919,33.3975 93.655,33.6655 93.326,33.672511 L93.316,33.672511 Z M89.684,39.8375 L89.684,39.3665 C89.227,39.6985 88.678,39.8835 88.113,39.8965 L87.993,39.8965 C87.238,39.8915 86.627,39.2805 86.623,38.5255 L86.623,38.4175 C86.581,37.6825 86.623,35.0645 86.623,35.0645 L87.532,35.0645 L87.532,38.1995 C87.58,38.8545 87.842,39.1805 88.539,39.1805 C88.96,39.1895 89.368,39.0415 89.684,38.7645 L89.684,35.0535 L90.588,35.0535 L90.588,39.8245 L89.684,39.8375 Z M82.393,35.6365 C81.409,35.6365 80.9,36.4135 80.9,37.3415 C80.9,38.3665 81.404,39.2675 82.538,39.2675 C83.519,39.2675 83.956,38.4865 83.956,37.5475 C83.933,36.4455 83.344,35.6365 82.366,35.6365 L82.393,35.6365 Z M82.393,39.9355 C81.022,39.8475 79.983,38.6655 80.072,37.2945 C80.153,36.0315 81.171,35.0315 82.435,34.9715 L82.557,34.9715 C83.83,34.9775 84.861,36.0075 84.868,37.2805 L84.868,37.4705 L84.868,37.5955 C84.862,38.8885 83.816,39.9355 82.523,39.9415 L82.393,39.9355 Z M77.251,35.8855 C76.961,35.7015 76.623,35.6085 76.28,35.6205 C75.517,35.6205 74.722,36.0265 74.722,37.4395 C74.722,38.5865 75.252,39.2605 76.28,39.2605 C76.638,39.2525 76.982,39.1195 77.251,38.8835 L77.251,35.8855 Z M77.251,39.8375 L77.251,39.4035 C76.855,39.7415 76.348,39.9235 75.827,39.9125 C74.613,39.9125 73.784,38.9655 73.784,37.5765 L73.784,37.3945 C73.789,36.0575 74.872,34.9745 76.209,34.9685 L76.278,34.9685 C76.612,34.9605 76.945,35.0165 77.259,35.1335 L77.259,32.1035 L78.168,32.1035 L78.168,39.8375 L77.251,39.8375 Z M71.075,39.8375 L71.075,39.3665 C70.617,39.6985 70.069,39.8835 69.503,39.8965 L69.384,39.8965 C68.628,39.8935 68.016,39.2815 68.013,38.5255 L68.013,38.4175 C67.971,37.6825 68.013,35.0645 68.013,35.0645 L68.917,35.0645 L68.917,38.1995 C68.96,38.8545 69.219,39.1805 69.916,39.1805 C70.337,39.1905 70.745,39.0415 71.062,38.7645 L71.062,35.0535 L71.971,35.0535 L71.971,39.8245 L71.075,39.8375 Z M64.083,37.6855 C63.624,37.8075 63.24,38.0695 63.24,38.4805 L63.24,38.4965 C63.247,38.9255 63.593,39.2715 64.022,39.2785 L64.083,39.2785 C64.396,39.2575 64.687,39.1115 64.891,38.8735 L64.891,37.5475 C64.619,37.5675 64.349,37.6135 64.085,37.6855 L64.083,37.6855 Z M65.631,39.9125 C65.138,39.9125 64.944,39.3665 64.944,39.3665 C64.616,39.7005 64.177,39.9035 63.709,39.9355 L63.632,39.9355 C62.933,39.9335 62.367,39.3675 62.362,38.6685 C62.389,37.9785 62.895,37.4015 63.576,37.2855 C64.022,37.1535 64.479,37.0645 64.941,37.0205 L64.941,36.6755 C64.981,36.4205 64.927,36.1595 64.788,35.9415 C64.59,35.7465 64.315,35.6485 64.038,35.6765 C63.522,35.6875 63.029,35.8845 62.649,36.2335 L62.503,35.5495 C63.046,35.1915 63.672,34.9825 64.321,34.9425 C65.31,34.9425 65.795,35.4725 65.795,36.1135 C65.795,37.0575 65.747,37.9695 65.747,38.4465 C65.747,39.0105 65.851,39.2285 66.177,39.2285 C66.343,39.2285 66.506,39.1915 66.656,39.1195 L66.656,39.6045 C66.339,39.7745 65.991,39.8785 65.633,39.9125 L65.631,39.9125 Z M59.161,36.6255 C58.699,36.3815 58.178,36.2755 57.658,36.3175 L56.9,36.3175 L56.9,39.0745 C57.275,39.1305 57.655,39.1535 58.034,39.1405 C58.972,39.1405 59.773,38.7595 59.773,37.7355 C59.777,37.2855 59.545,36.8655 59.161,36.6305 L59.161,36.6255 Z M57.742,33.1395 L56.9,33.1395 L56.9,35.6155 L57.695,35.6155 C58.866,35.6155 59.253,35.0085 59.253,34.2905 C59.253,33.5715 58.697,33.1395 57.745,33.1395 L57.742,33.1395 Z M58.008,39.8515 L55.922,39.8515 L55.922,32.4905 L57.878,32.4905 C59.272,32.4905 60.303,32.9515 60.303,34.2315 C60.28,34.9315 59.872,35.5605 59.243,35.8675 C58.612,36.1725 60.854,36.1825 60.854,37.6435 C60.844,39.2575 59.521,39.8565 58.018,39.8565 L58.008,39.8515 Z M49.926,39.8375 L50.83,39.8375 L50.83,35.0665 L49.926,35.0665 L49.926,39.8375 Z M50.374,33.672511 C50.039,33.6745 49.766,33.4035 49.7639972,33.0685 C49.763,32.7335 50.033,32.4605 50.369,32.4584972 C50.704,32.4575 50.977,32.7275 50.978,33.0635 C50.978,33.0645 50.978,33.0665 50.978,33.0685 C50.977,33.4015 50.707,33.6715 50.374,33.672511 Z M45.712,35.6365 C44.878,35.6485 44.208,36.3245 44.203,37.1585 C44.2,37.2195 44.2,37.2805 44.203,37.3415 C44.203,38.3665 44.707,39.2675 45.839,39.2675 C46.822,39.2675 47.26,38.4865 47.26,37.5475 C47.233,36.4455 46.647,35.6365 45.669,35.6365 L45.712,35.6365 Z M45.712,39.9355 C44.337,39.9305 43.228,38.8115 43.2329832,37.4365 C43.239,36.0615 44.358,34.9525 45.733,34.9584758 L45.884,34.9584758 C47.154,34.9645 48.181,35.9915 48.187,37.2615 L48.187,37.4605 L48.187,37.5955 C48.181,38.8885 47.135,39.9355 45.842,39.9415 L45.712,39.9355 Z M39.25,33.5115 C38.873,33.2435 38.417,33.1125 37.956,33.1395 L37.161,33.1395 L37.161,36.1725 C37.451,36.2045 37.742,36.2225 38.033,36.2255 L38.192,36.2255 C39.024,36.2225 39.698,35.5495 39.703,34.7175 L39.703,34.5575 C39.713,34.1595 39.547,33.7765 39.25,33.5115 L39.25,33.5115 Z M42.213,39.8085 C42.033,39.8545 41.847,39.8765 41.662,39.8745 C41.394,39.8865 41.131,39.8055 40.917,39.6445 C40.456,39.2815 40.031,38.8755 39.647,38.4335 C39.138,37.8685 38.375,36.8935 38.375,36.8935 L37.164,36.8935 L37.164,39.9225 L36.194,39.9225 L36.194,32.5015 L38.012,32.5015 C38.613,32.4645 39.213,32.5795 39.758,32.8355 C40.367,33.1495 40.738,33.7885 40.71,34.4735 C40.715,35.3975 40.155,36.2315 39.297,36.5755 C38.439,36.9165 39.867,37.2855 40.509,37.9635 C40.826,38.3185 41.169,38.6485 41.534,38.9525 C41.988,39.3285 42.274,39.2495 42.274,39.2495 L42.213,39.8085 Z M82.668,25.2785 L82.668,22.1565 C82.618,21.5015 82.329,21.1595 81.632,21.1595 C81.218,21.1485 80.814,21.2845 80.492,21.5435 L80.492,25.2785 L79.588,25.2785 L79.588,20.5075 L80.492,20.5075 L80.492,21.0055 C80.941,20.6555 81.487,20.4535 82.056,20.4275 L82.162,20.4275 C82.941,20.4305 83.572,21.0615 83.575,21.8405 L83.575,21.9285 C83.617,22.6565 83.575,25.2995 83.575,25.2995 L82.668,25.2785 Z M75.302,21.0775 C74.319,21.0775 73.81,21.8535 73.81,22.7815 C73.81,23.8045 74.314,24.7085 75.448,24.7085 C76.429,24.7085 76.866,23.9265 76.866,22.9855 C76.842,21.8835 76.254,21.0775 75.276,21.0775 L75.302,21.0775 Z M75.302,25.3765 C73.931,25.3025 72.88,24.1305 72.954,22.7595 C73.023,21.4755 74.06,20.4565 75.345,20.4095 L75.467,20.4095 C76.741,20.4155 77.772,21.4465 77.778,22.7205 L77.778,22.9115 L77.778,23.0365 C77.771,24.3285 76.725,25.3745 75.432,25.3815 L75.302,25.3765 Z M70.184,25.2785 L71.088,25.2785 L71.088,20.5075 L70.184,20.5075 L70.184,25.2785 Z M70.629,19.1135 C70.294,19.1135 70.023,18.8415 70.023,18.5065 C70.023,18.1705 70.294,17.8995 70.629,17.8995 C70.965,17.8995 71.236,18.1705 71.236,18.5065 C71.241,18.8425 70.972,19.1195 70.635,19.1235 C70.63,19.1235 70.626,19.1235 70.622,19.1235 L70.629,19.1135 Z M67.184,25.3765 C66.758,25.4165 66.358,25.1685 66.203,24.7695 C66.086,24.3125 66.045,23.8405 66.081,23.3695 L66.081,21.3025 L65.328,21.3025 L65.328,20.6345 L66.124,20.6345 L66.41,19.4715 L67.017,19.4715 L67.017,20.6475 L68.43,20.6475 L68.43,21.2525 L66.974,21.2525 C66.974,21.2525 66.974,22.1565 66.943,23.0305 C66.92,23.4355 66.942,23.8415 67.009,24.2425 C67.062,24.4665 67.273,24.6165 67.502,24.5945 C67.859,24.5665 68.196,24.4195 68.459,24.1755 L68.567,24.7825 C68.187,25.1335 67.7,25.3465 67.184,25.3875 L67.184,25.3765 Z M62.074,23.1265 C61.618,23.2485 61.236,23.5075 61.236,23.9215 L61.236,23.9535 C61.243,24.3815 61.589,24.7275 62.018,24.7355 L62.074,24.7355 C62.388,24.7145 62.681,24.5675 62.885,24.3265 L62.885,23.0015 C62.61,23.0205 62.339,23.0655 62.073,23.1365 L62.074,23.1265 Z M63.627,25.3495 C63.134,25.3495 62.94,24.8065 62.94,24.8065 C62.607,25.1415 62.163,25.3435 61.692,25.3765 L61.618,25.3765 C60.919,25.3735 60.354,24.8085 60.351,24.1095 C60.375,23.4185 60.883,22.8405 61.565,22.7255 C62.009,22.5925 62.465,22.5035 62.927,22.4605 L62.927,22.1165 C62.97,21.8615 62.916,21.5995 62.776,21.3825 C62.578,21.1865 62.303,21.0895 62.026,21.1175 C61.511,21.1275 61.017,21.3255 60.637,21.6735 L60.473,21.0055 C61.015,20.6485 61.642,20.4405 62.291,20.4015 C63.28,20.4015 63.759,20.9315 63.759,21.5705 C63.759,22.5165 63.717,23.4255 63.717,23.9055 C63.717,24.4675 63.82,24.7005 64.146,24.7005 C64.312,24.6975 64.475,24.6605 64.626,24.5915 L64.626,25.0765 C64.315,25.2355 63.975,25.3325 63.627,25.3605 L63.627,25.3495 Z M57.689,21.3265 C57.401,21.1405 57.062,21.0485 56.719,21.0615 C55.956,21.0615 55.156,21.4665 55.156,22.8795 C55.156,24.0245 55.686,24.6975 56.719,24.6975 C57.077,24.6905 57.421,24.5575 57.689,24.3215 L57.689,21.3265 Z M57.689,25.2785 L57.689,24.8415 C57.294,25.1835 56.784,25.3645 56.261,25.3495 C55.084,25.3495 54.223,24.4065 54.223,23.0175 L54.223,22.8345 C54.228,21.4975 55.311,20.4155 56.648,20.4095 L56.717,20.4095 C57.051,20.4035 57.383,20.4595 57.697,20.5735 L57.697,17.5545 L58.601,17.5545 L58.601,25.2785 L57.689,25.2785 Z M51.548,25.2785 L51.548,22.1565 L51.548,22.0685 C51.547,21.5635 51.139,21.1545 50.634,21.1515 C50.591,21.1485 50.549,21.1485 50.506,21.1515 C50.095,21.1405 49.694,21.2765 49.375,21.5355 L49.375,25.2785 L48.468,25.2785 L48.468,20.5075 L49.38,20.5075 L49.38,21.0055 C49.815,20.6475 50.35,20.4355 50.912,20.3985 L51.023,20.3985 C51.799,20.4015 52.428,21.0305 52.431,21.8065 L52.431,21.9015 C52.473,22.6275 52.431,25.2705 52.431,25.2705 L51.548,25.2785 Z M44.177,21.0875 C43.344,21.0995 42.673,21.7755 42.669,22.6095 C42.665,22.6705 42.665,22.7315 42.669,22.7925 C42.669,23.8155 43.172,24.7195 44.307,24.7195 C45.288,24.7195 45.725,23.9375 45.725,22.9965 C45.706,21.8935 45.118,21.0875 44.148,21.0875 L44.177,21.0875 Z M44.177,25.3875 C42.802,25.3815 41.693,24.2625 41.6989758,22.8875 C41.705,21.5135 42.824,20.4035 44.198,20.4094758 L44.344,20.4094758 C45.617,20.4155 46.647,21.4455 46.653,22.7175 L46.653,22.9085 L46.653,23.0465 C46.645,24.3405 45.598,25.3865 44.304,25.3925 L44.177,25.3875 Z M37.164,22.0155 L37.164,25.2785 L36.194,25.2785 L36.194,17.9415 L40.384,17.9415 L40.384,18.7715 L37.164,18.7715 L37.164,21.1965 L40.384,21.1965 L40.384,22.0155 L37.164,22.0155 Z M7.10542736e-15,39.8555 L0.53,39.8555 L0.53,2.7615 L7.10542736e-15,2.7615 L7.10542736e-15,39.8555 Z" id="Fill-12" fill="#1E1E1C"></path>
                    <path d="M96.8646,61.3259 L96.6576,61.3259 L96.5386,61.3259 C96.5386,61.3259 96.5386,61.2989 96.5596,61.2409 C96.5806,61.1829 96.5966,61.0659 96.6156,60.9949 L96.8066,60.1119 L96.4196,60.2069 L96.2416,60.8119 C96.1936,60.9709 96.1516,61.1299 96.1276,61.2329 C96.1276,61.2539 96.1146,61.3259 96.1146,61.3259 L96.0166,61.3259 L95.4656,61.3259 C95.4246,61.3229 95.3836,61.3229 95.3436,61.3259 C95.3436,61.3259 95.4946,61.1379 95.5926,60.9889 L96.6526,59.4259 L96.1486,59.4259 L94.8366,61.3759 L94.7706,61.7079 L95.8836,61.7079 C95.9336,61.7119 95.9826,61.7119 96.0326,61.7079 C96.0326,61.7079 96.0116,61.7849 96.0006,61.8399 L95.8816,62.3919 L96.3476,62.3119 L96.4356,61.8689 C96.4536,61.7769 96.4616,61.7079 96.4616,61.7079 C96.5026,61.7109 96.5426,61.7109 96.5836,61.7079 L96.7926,61.7079 L96.8646,61.3259 Z" id="Fill-14" fill="#020303"></path>
                    <text id="P" font-family="Arial-ItalicMT, Arial" font-size="4.2409" font-style="italic" font-weight="normal" fill="#020303">
                        <tspan x="0.1721" y="61.4969195">P</tspan>
                    </text>
                    <text id="R" font-family="Arial-ItalicMT, Arial" font-size="4.2409" font-style="italic" font-weight="normal" fill="#020303">
                        <tspan x="2.6379" y="61.4969195">R</tspan>
                    </text>
                    <text id="O" font-family="Arial-ItalicMT, Arial" font-size="4.2409" font-style="italic" font-weight="normal" fill="#020303">
                        <tspan x="5.093" y="61.4969195">O</tspan>
                    </text>
                    <text id="J" font-family="Arial-ItalicMT, Arial" font-size="4.2409" font-style="italic" font-weight="normal" fill="#020303">
                        <tspan x="8.0764" y="61.4969195">J</tspan>
                    </text>
                    <text id="E" font-family="Arial-ItalicMT, Arial" font-size="4.2409" font-style="italic" font-weight="normal" fill="#020303">
                        <tspan x="9.346" y="61.4969195">E</tspan>
                    </text>
                    <text id="T" font-family="Arial-ItalicMT, Arial" font-size="4.2409" font-style="italic" font-weight="normal" fill="#020303">
                        <tspan x="11.5276" y="61.4969195">T</tspan>
                    </text>
                    <text id="R" font-family="Arial-ItalicMT, Arial" font-size="4.2409" font-style="italic" font-weight="normal" fill="#020303">
                        <tspan x="14.5872" y="61.4969195">R</tspan>
                    </text>
                    <text id="É" font-family="Arial-ItalicMT, Arial" font-size="4.2409" font-style="italic" font-weight="normal" fill="#020303">
                        <tspan x="17.0403" y="61.4969195">É</tspan>
                    </text>
                    <text id="A" font-family="Arial-ItalicMT, Arial" font-size="4.2409" font-style="italic" font-weight="normal" fill="#020303">
                        <tspan x="19.2258" y="61.4969195">A</tspan>
                    </text>
                    <text id="L" font-family="Arial-ItalicMT, Arial" font-size="4.2409" font-style="italic" font-weight="normal" fill="#020303">
                        <tspan x="21.7405" y="61.4969195">L</tspan>
                    </text>
                    <text id="I" font-family="Arial-ItalicMT, Arial" font-size="4.2409" font-style="italic" font-weight="normal" fill="#020303">
                        <tspan x="23.7786" y="61.4969195">I</tspan>
                    </text>
                    <text id="S" font-family="Arial-ItalicMT, Arial" font-size="4.2409" font-style="italic" font-weight="normal" fill="#020303">
                        <tspan x="25.0432" y="61.4969195">S</tspan>
                    </text>
                    <text id="É" font-family="Arial-ItalicMT, Arial" font-size="4.2409" font-style="italic" font-weight="normal" fill="#020303">
                        <tspan x="27.596" y="61.4969195">É</tspan>
                    </text>
                    <text id="A" font-family="Arial-ItalicMT, Arial" font-size="4.2409" font-style="italic" font-weight="normal" fill="#020303">
                        <tspan x="30.7336" y="61.4969195">A</tspan>
                    </text>
                    <text id="V" font-family="Arial-ItalicMT, Arial" font-size="4.2409" font-style="italic" font-weight="normal" fill="#020303">
                        <tspan x="33.0803" y="61.4969195">V</tspan>
                    </text>
                    <text id="E" font-family="Arial-ItalicMT, Arial" font-size="4.2409" font-style="italic" font-weight="normal" fill="#020303">
                        <tspan x="35.6213" y="61.4969195">E</tspan>
                    </text>
                    <text id="C" font-family="Arial-ItalicMT, Arial" font-size="4.2409" font-style="italic" font-weight="normal" fill="#020303">
                        <tspan x="37.72" y="61.4969195">C</tspan>
                    </text>
                    <text id="L" font-family="Arial-ItalicMT, Arial" font-size="4.2409" font-style="italic" font-weight="normal" fill="#020303">
                        <tspan x="41.0676" y="61.4969195">L</tspan>
                    </text>
                    <text id="E" font-family="Arial-ItalicMT, Arial" font-size="4.2409" font-style="italic" font-weight="normal" fill="#020303">
                        <tspan x="43.1067" y="61.4969195">E</tspan>
                    </text>
                    <text id="S" font-family="Arial-ItalicMT, Arial" font-size="4.2409" font-style="italic" font-weight="normal" fill="#020303">
                        <tspan x="46.2444" y="61.4969195">S</tspan>
                    </text>
                    <text id="O" font-family="Arial-ItalicMT, Arial" font-size="4.2409" font-style="italic" font-weight="normal" fill="#020303">
                        <tspan x="48.7551" y="61.4969195">O</tspan>
                    </text>
                    <text id="U" font-family="Arial-ItalicMT, Arial" font-size="4.2409" font-style="italic" font-weight="normal" fill="#020303">
                        <tspan x="51.7395" y="61.4969195">U</tspan>
                    </text>
                    <text id="T" font-family="Arial-ItalicMT, Arial" font-size="4.2409" font-style="italic" font-weight="normal" fill="#020303">
                        <tspan x="54.4251" y="61.4969195">T</tspan>
                    </text>
                    <text id="I" font-family="Arial-ItalicMT, Arial" font-size="4.2409" font-style="italic" font-weight="normal" fill="#020303">
                        <tspan x="56.5256" y="61.4969195">I</tspan>
                    </text>
                    <text id="E" font-family="Arial-ItalicMT, Arial" font-size="4.2409" font-style="italic" font-weight="normal" fill="#020303">
                        <tspan x="57.7913" y="61.4969195">E</tspan>
                    </text>
                    <text id="N" font-family="Arial-ItalicMT, Arial" font-size="4.2409" font-style="italic" font-weight="normal" fill="#020303">
                        <tspan x="59.9749" y="61.4969195">N</tspan>
                    </text>
                    <text id="D" font-family="Arial-ItalicMT, Arial" font-size="4.2409" font-style="italic" font-weight="normal" fill="#020303">
                        <tspan x="63.6985" y="61.4969195">D</tspan>
                    </text>
                    <text id="U" font-family="Arial-ItalicMT, Arial" font-size="4.2409" font-style="italic" font-weight="normal" fill="#020303">
                        <tspan x="66.428" y="61.4969195">U</tspan>
                    </text>
                    <text id="F" font-family="Arial-ItalicMT, Arial" font-size="4.2409" font-style="italic" font-weight="normal" fill="#020303">
                        <tspan x="70.1536" y="61.4969195">F</tspan>
                    </text>
                    <text id="O" font-family="Arial-ItalicMT, Arial" font-size="4.2409" font-style="italic" font-weight="normal" fill="#020303">
                        <tspan x="72.0637" y="61.4969195">O</tspan>
                    </text>
                    <text id="N" font-family="Arial-ItalicMT, Arial" font-size="4.2409" font-style="italic" font-weight="normal" fill="#020303">
                        <tspan x="75.0481" y="61.4969195">N</tspan>
                    </text>
                    <text id="D" font-family="Arial-ItalicMT, Arial" font-size="4.2409" font-style="italic" font-weight="normal" fill="#020303">
                        <tspan x="77.8186" y="61.4969195">D</tspan>
                    </text>
                    <text id="S" font-family="Arial-ItalicMT, Arial" font-size="4.2409" font-style="italic" font-weight="normal" fill="#020303">
                        <tspan x="80.4631" y="61.4969195">S</tspan>
                    </text>
                    <text id="R" font-family="Arial-ItalicMT, Arial" font-size="4.2409" font-style="italic" font-weight="normal" fill="#020303">
                        <tspan x="83.97" y="61.4969195">R</tspan>
                    </text>
                    <text id="&amp;" font-family="Arial-ItalicMT, Arial" font-size="4.2409" font-style="italic" font-weight="normal" fill="#020303">
                        <tspan x="86.4055" y="61.4969195">&amp;</tspan>
                    </text>
                    <text id="C" font-family="Arial-ItalicMT, Arial" font-size="4.2409" font-style="italic" font-weight="normal" fill="#020303">
                        <tspan x="89.4036" y="61.4969195">C</tspan>
                    </text>
                    <text id="O" font-family="Arial-ItalicMT, Arial" font-size="4.2409" font-style="italic" font-weight="normal" fill="#020303">
                        <tspan x="91.7092" y="61.4969195">O</tspan>
                    </text>
                    <text id="G" font-family="Arial-ItalicMT, Arial" font-size="4.2409" font-style="italic" font-weight="normal" fill="#020303">
                        <tspan x="96.9924" y="61.4969195">G</tspan>
                    </text>
                    <text id="E" font-family="Arial-ItalicMT, Arial" font-size="4.2409" font-style="italic" font-weight="normal" fill="#020303">
                        <tspan x="99.8254" y="61.4969195">E</tspan>
                    </text>
                    <text id="N" font-family="Arial-ItalicMT, Arial" font-size="4.2409" font-style="italic" font-weight="normal" fill="#020303">
                        <tspan x="102.009" y="61.4969195">N</tspan>
                    </text>
                    <text id="E" font-family="Arial-ItalicMT, Arial" font-size="4.2409" font-style="italic" font-weight="normal" fill="#020303">
                        <tspan x="104.7766" y="61.4969195">E</tspan>
                    </text>
                    <text id="R" font-family="Arial-ItalicMT, Arial" font-size="4.2409" font-style="italic" font-weight="normal" fill="#020303">
                        <tspan x="106.9602" y="61.4969195">R</tspan>
                    </text>
                    <text id="A" font-family="Arial-ItalicMT, Arial" font-size="4.2409" font-style="italic" font-weight="normal" fill="#020303">
                        <tspan x="109.4182" y="61.4969195">A</tspan>
                    </text>
                    <text id="T" font-family="Arial-ItalicMT, Arial" font-size="4.2409" font-style="italic" font-weight="normal" fill="#020303">
                        <tspan x="111.677" y="61.4969195">T</tspan>
                    </text>
                    <text id="I" font-family="Arial-ItalicMT, Arial" font-size="4.2409" font-style="italic" font-weight="normal" fill="#020303">
                        <tspan x="113.7815" y="61.4969195">I</tspan>
                    </text>
                    <text id="O" font-family="Arial-ItalicMT, Arial" font-size="4.2409" font-style="italic" font-weight="normal" fill="#020303">
                        <tspan x="115.0422" y="61.4969195">O</tspan>
                    </text>
                    <text id="N" font-family="Arial-ItalicMT, Arial" font-size="4.2409" font-style="italic" font-weight="normal" fill="#020303">
                        <tspan x="118.0295" y="61.4969195">N</tspan>
                    </text>
                    <text id="S" font-family="Arial-ItalicMT, Arial" font-size="4.2409" font-style="italic" font-weight="normal" fill="#020303">
                        <tspan x="120.7756" y="61.4969195">S</tspan>
                    </text>
                    <text id="," font-family="Arial-ItalicMT, Arial" font-size="4.2409" font-style="italic" font-weight="normal" fill="#020303">
                        <tspan x="123.3059" y="61.4969195">,</tspan>
                    </text>
                    <text id="G" font-family="Arial-ItalicMT, Arial" font-size="4.2409" font-style="italic" font-weight="normal" fill="#020303">
                        <tspan x="24.8577" y="67.1746195">G</tspan>
                    </text>
                    <text id="É" font-family="Arial-ItalicMT, Arial" font-size="4.2409" font-style="italic" font-weight="normal" fill="#020303">
                        <tspan x="27.6877" y="67.1746195">É</tspan>
                    </text>
                    <text id="R" font-family="Arial-ItalicMT, Arial" font-size="4.2409" font-style="italic" font-weight="normal" fill="#020303">
                        <tspan x="29.8723" y="67.1746195">R</tspan>
                    </text>
                    <text id="É" font-family="Arial-ItalicMT, Arial" font-size="4.2409" font-style="italic" font-weight="normal" fill="#020303">
                        <tspan x="32.3264" y="67.1746195">É</tspan>
                    </text>
                    <text id="P" font-family="Arial-ItalicMT, Arial" font-size="4.2409" font-style="italic" font-weight="normal" fill="#020303">
                        <tspan x="35.4661" y="67.1746195">P</tspan>
                    </text>
                    <text id="A" font-family="Arial-ItalicMT, Arial" font-size="4.2409" font-style="italic" font-weight="normal" fill="#020303">
                        <tspan x="37.76" y="67.1746195">A</tspan>
                    </text>
                    <text id="R" font-family="Arial-ItalicMT, Arial" font-size="4.2409" font-style="italic" font-weight="normal" fill="#020303">
                        <tspan x="40.2727" y="67.1746195">R</tspan>
                    </text>
                    <text id="L" font-family="Arial-ItalicMT, Arial" font-size="4.2409" font-style="italic" font-weight="normal" fill="#020303">
                        <tspan x="43.6848" y="67.1746195">L</tspan>
                    </text>
                    <text id="A" font-family="Arial-ItalicMT, Arial" font-size="4.2409" font-style="italic" font-weight="normal" fill="#020303">
                        <tspan x="45.7229" y="67.1746195">A</tspan>
                    </text>
                    <text id="F" font-family="Arial-ItalicMT, Arial" font-size="4.2409" font-style="italic" font-weight="normal" fill="#020303">
                        <tspan x="49.1936" y="67.1746195">F</tspan>
                    </text>
                    <text id="O" font-family="Arial-ItalicMT, Arial" font-size="4.2409" font-style="italic" font-weight="normal" fill="#020303">
                        <tspan x="51.1028" y="67.1746195">O</tspan>
                    </text>
                    <text id="N" font-family="Arial-ItalicMT, Arial" font-size="4.2409" font-style="italic" font-weight="normal" fill="#020303">
                        <tspan x="54.0901" y="67.1746195">N</tspan>
                    </text>
                    <text id="D" font-family="Arial-ItalicMT, Arial" font-size="4.2409" font-style="italic" font-weight="normal" fill="#020303">
                        <tspan x="56.8567" y="67.1746195">D</tspan>
                    </text>
                    <text id="A" font-family="Arial-ItalicMT, Arial" font-size="4.2409" font-style="italic" font-weight="normal" fill="#020303">
                        <tspan x="59.5461" y="67.1746195">A</tspan>
                    </text>
                    <text id="T" font-family="Arial-ItalicMT, Arial" font-size="4.2409" font-style="italic" font-weight="normal" fill="#020303">
                        <tspan x="61.8069" y="67.1746195">T</tspan>
                    </text>
                    <text id="I" font-family="Arial-ItalicMT, Arial" font-size="4.2409" font-style="italic" font-weight="normal" fill="#020303">
                        <tspan x="63.9114" y="67.1746195">I</tspan>
                    </text>
                    <text id="O" font-family="Arial-ItalicMT, Arial" font-size="4.2409" font-style="italic" font-weight="normal" fill="#020303">
                        <tspan x="65.1731" y="67.1746195">O</tspan>
                    </text>
                    <text id="N" font-family="Arial-ItalicMT, Arial" font-size="4.2409" font-style="italic" font-weight="normal" fill="#020303">
                        <tspan x="68.1594" y="67.1746195">N</tspan>
                    </text>
                    <text id="R" font-family="Arial-ItalicMT, Arial" font-size="4.2409" font-style="italic" font-weight="normal" fill="#020303">
                        <tspan x="71.8811" y="67.1746195">R</tspan>
                    </text>
                    <text id="O" font-family="Arial-ItalicMT, Arial" font-size="4.2409" font-style="italic" font-weight="normal" fill="#020303">
                        <tspan x="74.3381" y="67.1746195">O</tspan>
                    </text>
                    <text id="I" font-family="Arial-ItalicMT, Arial" font-size="4.2409" font-style="italic" font-weight="normal" fill="#020303">
                        <tspan x="77.3225" y="67.1746195">I</tspan>
                    </text>
                    <text id="B" font-family="Arial-ItalicMT, Arial" font-size="4.2409" font-style="italic" font-weight="normal" fill="#020303">
                        <tspan x="79.5413" y="67.1746195">B</tspan>
                    </text>
                    <text id="A" font-family="Arial-ItalicMT, Arial" font-size="4.2409" font-style="italic" font-weight="normal" fill="#020303">
                        <tspan x="82.1252" y="67.1746195">A</tspan>
                    </text>
                    <text id="U" font-family="Arial-ItalicMT, Arial" font-size="4.2409" font-style="italic" font-weight="normal" fill="#020303">
                        <tspan x="84.5979" y="67.1746195">U</tspan>
                    </text>
                    <text id="D" font-family="Arial-ItalicMT, Arial" font-size="4.2409" font-style="italic" font-weight="normal" fill="#020303">
                        <tspan x="87.3684" y="67.1746195">D</tspan>
                    </text>
                    <text id="O" font-family="Arial-ItalicMT, Arial" font-size="4.2409" font-style="italic" font-weight="normal" fill="#020303">
                        <tspan x="90.0989" y="67.1746195">O</tspan>
                    </text>
                    <text id="U" font-family="Arial-ItalicMT, Arial" font-size="4.2409" font-style="italic" font-weight="normal" fill="#020303">
                        <tspan x="93.0823" y="67.1746195">U</tspan>
                    </text>
                    <text id="I" font-family="Arial-ItalicMT, Arial" font-size="4.2409" font-style="italic" font-weight="normal" fill="#020303">
                        <tspan x="95.8528" y="67.1746195">I</tspan>
                    </text>
                    <text id="N" font-family="Arial-ItalicMT, Arial" font-size="4.2409" font-style="italic" font-weight="normal" fill="#020303">
                        <tspan x="97.1165" y="67.1746195">N</tspan>
                    </text>
                </g>
            </g>
        </g>
    </g>
</svg>