<?xml version="1.0" encoding="UTF-8"?>
<svg width="175px" height="96px" viewBox="0 0 175 96" version="1.1" xmlns="http://www.w3.org/2000/svg" xmlns:xlink="http://www.w3.org/1999/xlink">
    <title>logo-part-regionsud copy</title>
    <defs>
        <polygon id="path-1" points="0 0 67 0 67 67 0 67"></polygon>
        <polygon id="path-3" points="0 0 6 0 6 9 0 9"></polygon>
    </defs>
    <g id="Page-1" stroke="none" stroke-width="1" fill="none" fill-rule="evenodd">
        <g id="Desktop-HD" transform="translate(-1105.000000, -752.000000)">
            <g id="Group-67" transform="translate(1115.000000, 766.000000)">
                <g id="Group-3">
                    <mask id="mask-2" fill="white">
                        <use xlink:href="#path-1"></use>
                    </mask>
                    <g id="Clip-2"></g>
                    <path d="M67,33.5000936 C67,52.0014857 52.001145,67.0001871 33.4995634,67.0001871 C14.9979818,67.0001871 -0.000249481953,52.0014857 -0.000249481953,33.5000936 C-0.000249481953,14.9987014 14.9979818,0 33.4995634,0 C52.001145,0 67,14.9987014 67,33.5000936" id="Fill-1" fill="#1B2341" mask="url(#mask-2)"></path>
                </g>
                <path d="M59.3882703,44 C58.8985701,44 58.4151562,43.7724906 58.0983283,43.3425363 L44.3244883,24.6424171 C43.7888983,23.9142584 43.9309679,22.880183 44.6425734,22.3319752 C45.3541788,21.7837674 46.3656392,21.9296563 46.9012292,22.657815 L60.6756978,41.3579342 C61.2112878,42.0860929 61.0685895,43.1195256 60.3576127,43.6677334 C60.0671872,43.8920294 59.7264715,44 59.3882703,44" id="Fill-4" fill="#56BAA9"></path>
                <path d="M45.5,43 C44.6710834,43 44,42.3001015 44,41.4369543 L44,32.5636548 C44,31.7005076 44.6710834,31 45.5,31 C46.3289166,31 47,31.7005076 47,32.5636548 L47,41.4369543 C47,42.3001015 46.3289166,43 45.5,43" id="Fill-6" fill="#FEFEFE"></path>
                <path d="M15.4360551,44 C9.68146944,44 5,39.0659071 5,33.0006427 C5,26.9347356 9.68146944,22 15.4360551,22 C16.3006453,22 17,22.738475 17,23.6491966 C17,24.5599182 16.3006453,25.2990359 15.4360551,25.2990359 C11.4069915,25.2990359 8.12971902,28.7536079 8.12971902,33.0006427 C8.12971902,37.2463921 11.4069915,40.7022495 15.4360551,40.7022495 C16.3006453,40.7022495 17,41.4400818 17,42.3514461 C17,43.2628104 16.3006453,44 15.4360551,44" id="Fill-8" fill="#56BAA9"></path>
                <path d="M21.4126744,43 C20.5355007,43 19.8259674,42.3006453 19.8259674,41.4360551 L19.8259674,34.129719 L15.5885628,34.129719 C14.7120077,34.129719 14,33.4285351 14,32.5651644 C14,31.7005742 14.7120077,31 15.5885628,31 L21.4126744,31 C22.2898481,31 23,31.7005742 23,32.5651644 L23,41.4360551 C23,42.3006453 22.2898481,43 21.4126744,43" id="Fill-10" fill="#FEFEFE"></path>
                <path d="M59.5002923,35 C58.6712142,35 58,34.2994258 58,33.4354454 L58,24.5639449 C58,23.7005742 58.6712142,23 59.5002923,23 C60.3293705,23 61,23.7005742 61,24.5639449 L61,33.4354454 C61,34.2994258 60.3293705,35 59.5002923,35" id="Fill-12" fill="#FEFEFE"></path>
                <path d="M39.4662367,43 L28.5337633,43 C27.6858583,43 27,42.3006453 27,41.4360551 L27,32.5651644 C27,31.7005742 27.6858583,31 28.5337633,31 C29.3816683,31 30.0687225,31.7005742 30.0687225,32.5651644 L30.0687225,39.8715004 L39.4662367,39.8715004 C40.3141417,39.8715004 41,40.5714649 41,41.4360551 C41,42.3006453 40.3141417,43 39.4662367,43" id="Fill-14" fill="#56BAA9"></path>
                <path d="M39.2935393,35 L33.7077912,35 C32.7644145,35 32,34.3296318 32,33.5002922 C32,32.6721216 32.7644145,32 33.7077912,32 L39.2935393,32 C40.236916,32 41,32.6721216 41,33.5002922 C41,34.3296318 40.236916,35 39.2935393,35" id="Fill-16" fill="#FEFEFE"></path>
                <path d="M39.4662367,25 L28.5337633,25 C27.6858583,25 27,24.3284629 27,23.5002922 C27,22.6721216 27.6858583,22 28.5337633,22 L39.4662367,22 C40.3141417,22 41,22.6721216 41,23.5002922 C41,24.3284629 40.3141417,25 39.4662367,25" id="Fill-18" fill="#FEFEFE"></path>
                <path d="M82,18.5261212 L82,21.2142137 C82,21.7534458 81.6980408,22.18779 81.0864454,22.5125395 C80.4742103,22.837289 79.6834866,23 78.7072371,23 C77.384886,23 76.2672531,22.5125395 75.3588165,21.5456868 C74.4503798,20.5714382 74,19.3901029 74,18.0063874 C74,16.5917434 74.4503798,15.4030122 75.3460216,14.4422107 C76.2416633,13.4807369 77.3976809,13 78.8063974,13 C79.6406238,13 80.3692923,13.1694345 81.0058377,13.5002353 C81.6417433,13.8384321 81.9577769,14.1887313 81.9577769,14.5457541 C81.9577769,14.7407383 81.9008397,14.8839508 81.7901639,14.9874941 C81.6852459,15.0849862 81.5496202,15.1367579 81.3820072,15.1367579 C81.2527789,15.1367579 81.0672531,15.0654878 80.8267093,14.9289989 C80.5855258,14.7992335 80.2829268,14.6627446 79.9182727,14.5323069 C79.5472211,14.4032139 79.1397041,14.3386674 78.6944422,14.3386674 C77.7309876,14.3386674 76.9345062,14.6889666 76.3107557,15.3962886 C75.6863655,16.1036106 75.3716114,16.9743159 75.3716114,18.0063874 C75.3716114,19.0203053 75.704918,19.8829422 76.3593762,20.5976602 C77.0208717,21.3049822 77.8301479,21.662005 78.794882,21.662005 C79.5286685,21.662005 80.1652139,21.5456868 80.7089964,21.3049822 L80.7089964,19.1561218 L78.6023191,19.1561218 C78.2619752,19.1561218 77.9843263,18.8636455 77.9843263,18.5066227 C77.9843263,18.1428764 78.2619752,17.8571236 78.6023191,17.8571236 L81.3820072,17.8571236 C81.512515,17.8571236 81.6295882,17.8961205 81.7287485,17.9673906 C81.7588165,17.9936126 81.7901639,18.0198346 81.8208717,18.0521078 C81.8829268,18.1166543 81.9328269,18.1885968 81.9577769,18.2793653 C81.969932,18.3183621 81.9820872,18.3640826 81.9872051,18.409803 C81.9942423,18.4487998 82,18.4871243 82,18.5261212" id="Fill-20" fill="#1B2341"></path>
                <path d="M88.0195773,17.2766711 C88.5431966,17.2766711 88.9616246,17.1329909 89.2754456,16.8431318 C89.5886822,16.5538974 89.7458849,16.172208 89.7458849,15.6974387 C89.7458849,15.2226695 89.5886822,14.8416048 89.2754456,14.5579926 C88.9616246,14.2737558 88.5431966,14.1319497 88.0195773,14.1319497 L86.1763904,14.1319497 L86.1763904,17.2766711 L88.0195773,17.2766711 Z M90.7124769,20.9230235 C90.8270186,21.1098077 90.8831207,21.2959672 90.8831207,21.4833761 C90.8831207,21.6320539 90.8328626,21.7557437 90.7335151,21.8531964 C90.6324145,21.950649 90.4991721,22 90.3343723,22 C90.0725626,22 89.8545826,21.8407024 89.6804325,21.5252308 L87.8758157,18.4079961 L86.1898315,18.4079961 L86.1898315,21.3565628 C86.1898315,21.543347 86.1325606,21.6951482 86.0197721,21.8119664 C85.9069835,21.9275352 85.7626376,21.9862567 85.5884874,21.9862567 C85.4137528,21.9862567 85.2723288,21.9256611 85.1630467,21.8038454 C85.0549333,21.6826543 85,21.5339765 85,21.3565628 L85,13.6009579 C85,13.4235441 85.0525957,13.279864 85.1572027,13.1680433 C85.2612253,13.055598 85.3968053,13 85.5627739,13 L87.9412681,13 C88.8564332,13 89.5956949,13.2461304 90.1573001,13.7408898 C90.7194896,14.2343999 91,14.8865829 91,15.6974387 C91,16.3221351 90.8328626,16.8543763 90.4974189,17.297286 C90.1613909,17.7401957 89.6932892,18.054418 89.0919451,18.2412022 L90.7124769,20.9230235 Z" id="Fill-22" fill="#1B2341"></path>
                <path d="M99.2747157,18.5577038 L97.4580182,14.5041349 L95.6413207,18.5577038 L99.2747157,18.5577038 Z M101.932315,21.7185039 C101.83232,21.8953144 101.65716,21.9880777 101.406164,21.9974163 C101.006182,22.025432 100.715591,21.8255863 100.535062,21.3991242 L99.7699956,19.6851824 L95.1306052,19.6851824 L94.3648676,21.4128208 C94.2648721,21.6263631 94.1574943,21.7788934 94.0420632,21.8722792 C93.9273032,21.9650425 93.768921,22.0067549 93.5689299,21.9974163 C93.3286722,21.9880777 93.1615656,21.8971821 93.0662678,21.7253522 C92.97097,21.5541447 92.9783523,21.3424701 93.0890856,21.092196 L96.4224939,13.8498113 C96.5614139,13.5341671 96.7104005,13.3131539 96.8647561,13.1880169 C97.0197827,13.0628798 97.2325249,13 97.5029826,13 C97.7734404,13 97.9868537,13.0628798 98.1412092,13.1880169 C98.2962358,13.3131539 98.442538,13.5341671 98.5841425,13.8498113 L101.902115,21.0504837 C102.020902,21.3200575 102.032311,21.5423159 101.932315,21.7185039 L101.932315,21.7185039 Z" id="Fill-24" fill="#1B2341"></path>
                <path d="M111.816266,13.1883938 C111.938097,13.3040415 112,13.4545078 112,13.6404145 L112,21.2066321 C112,21.4484974 111.936121,21.6406218 111.808364,21.7842487 C111.680606,21.9284974 111.508726,22 111.292723,22 C111.057623,22 110.862693,21.9471503 110.711228,21.840829 C110.558446,21.7326425 110.38459,21.559171 110.187685,21.3185492 L105.340797,15.212228 L105.340797,21.3595855 C105.340797,21.5454922 105.277577,21.6965803 105.14916,21.812228 C105.022061,21.9284974 104.860718,21.9863212 104.663154,21.9863212 C104.477445,21.9863212 104.320053,21.9260104 104.191636,21.8053886 C104.063879,21.6847668 104,21.5361658 104,21.3595855 L104,13.8070466 C104,13.5564767 104.066513,13.36 104.19888,13.2157513 C104.331248,13.0727461 104.520909,13 104.765887,13 C105.130063,13 105.464603,13.2176166 105.768851,13.654715 L110.67435,19.8717098 L110.67435,13.6404145 C110.67435,13.4545078 110.735594,13.3040415 110.858084,13.1883938 C110.98189,13.0727461 111.141258,13.0149223 111.337504,13.0149223 C111.534409,13.0149223 111.693777,13.0727461 111.816266,13.1883938" id="Fill-26" fill="#1B2341"></path>
                <path d="M116.334831,20.8069038 L117.857785,20.8069038 C118.997432,20.8069038 119.91236,20.5043933 120.601284,19.9012552 C121.290851,19.2968619 121.635634,18.4991632 121.635634,17.5075314 C121.635634,16.5058577 121.288283,15.7031381 120.593579,15.0993724 C119.900161,14.4956067 118.983307,14.1937238 117.84366,14.1937238 L116.334831,14.1937238 L116.334831,20.8069038 Z M115.172071,13.1688285 C115.286998,13.0564854 115.435313,13 115.617657,13 L117.814767,13 C119.347352,13 120.593579,13.4186192 121.556661,14.2564854 C122.519101,15.0937238 123,16.1776151 123,17.5075314 C123,18.8368201 122.530658,19.9169456 121.591974,20.7504184 C120.653933,21.5838912 119.442376,22 117.957945,22 L115.617657,22 C115.435313,22 115.286998,21.9435146 115.172071,21.8317992 C115.055859,21.7194561 115,21.5738494 115,21.3962343 L115,13.6043933 C115,13.4261506 115.055859,13.2811715 115.172071,13.1688285 L115.172071,13.1688285 Z" id="Fill-28" fill="#1B2341"></path>
                <path d="M126.172574,13.1688285 C126.288269,13.0564854 126.43822,13 126.621135,13 L131.378865,13 C131.561133,13 131.710438,13.0564854 131.82678,13.1688285 C131.941829,13.2811715 132,13.4261506 132,13.6043933 C132,13.7820084 131.941829,13.9251046 131.82678,14.0324268 C131.710438,14.139749 131.561133,14.1937238 131.378865,14.1937238 L127.314661,14.1937238 L127.314661,16.8893305 L130.799095,16.8893305 C130.982656,16.8893305 131.132608,16.9433054 131.247657,17.05 C131.363352,17.1585774 131.421523,17.3016736 131.421523,17.4792887 C131.421523,17.6562762 131.363352,17.8018828 131.247657,17.9142259 C131.132608,18.0259414 130.982656,18.0824268 130.799095,18.0824268 L127.314661,18.0824268 L127.314661,20.8069038 L131.378865,20.8069038 C131.561133,20.8069038 131.710438,20.8621339 131.82678,20.9751046 C131.941829,21.0868201 132,21.2324268 132,21.4100418 C132,21.5876569 131.941829,21.7307531 131.82678,21.8393305 C131.710438,21.9466527 131.561133,22 131.378865,22 L126.621135,22 C126.43822,22 126.288269,21.9435146 126.172574,21.8317992 C126.056878,21.7188285 126,21.5738494 126,21.3956067 L126,13.6043933 C126,13.4261506 126.056878,13.2811715 126.172574,13.1688285" id="Fill-30" fill="#1B2341"></path>
                <path d="M78.7636794,25.3024159 C78.8457561,25.4769331 78.7998707,25.6570003 78.6260233,25.8407675 L77.4407583,27.3028884 C77.2766049,27.4687722 77.0794916,27.5366058 76.8481258,27.510089 C76.6742783,27.4909723 76.5540715,27.4200554 76.4862128,27.2967217 C76.4190004,27.171538 76.4332184,27.0315543 76.5301594,26.8749205 L77.5124946,25.3702495 C77.6953899,25.0773319 77.9461439,24.9576983 78.2641103,25.0131984 C78.5155106,25.0310818 78.6816028,25.1272821 78.7636794,25.3024159 M74.1738475,28.3240914 C74.2888841,28.2124744 74.4375269,28.1575909 74.6210685,28.1575909 L79.3776389,28.1575909 C79.5611805,28.1575909 79.7111159,28.2124744 79.8267988,28.3240914 C79.9418354,28.4332417 80,28.5769255 80,28.7520593 C80,28.9265765 79.9418354,29.0665602 79.8267988,29.1720105 C79.7111159,29.2780775 79.5611805,29.331111 79.3776389,29.331111 L75.3151659,29.331111 L75.3151659,31.9790854 L78.7998707,31.9790854 C78.9834123,31.9790854 79.1320551,32.0321189 79.247738,32.1381858 C79.3634209,32.2436361 79.4215855,32.3848532 79.4215855,32.5593704 C79.4215855,32.7332709 79.3634209,32.8757213 79.247738,32.986105 C79.1320551,33.0964886 78.9834123,33.1519888 78.7998707,33.1519888 L75.3151659,33.1519888 L75.3151659,35.8283299 L79.3776389,35.8283299 C79.5611805,35.8283299 79.7111159,35.8832134 79.8267988,35.9942137 C79.9418354,36.1039807 80,36.2458145 80,36.4209483 C80,36.5960822 79.9418354,36.7360659 79.8267988,36.8427495 C79.7111159,36.9481998 79.5611805,37 79.3776389,37 L74.6210685,37 C74.4375269,37 74.2888841,36.9451165 74.1738475,36.8359662 C74.056872,36.7249659 74,36.5825155 74,36.4073816 L74,28.7520593 C74,28.5769255 74.056872,28.4332417 74.1738475,28.3240914" id="Fill-32" fill="#1B2341"></path>
                <path d="M83.3519858,29.4438395 C84.2543817,28.4812798 85.4191992,28 86.8490111,28 C87.6639331,28 88.3933108,28.1680446 89.0352147,28.5041339 C89.6784049,28.839551 90,29.1870673 90,29.5486993 C90,29.739598 89.9421129,29.8841164 89.827625,29.9849432 C89.7112076,30.0850978 89.5729217,30.1355112 89.4108378,30.1355112 C89.2854157,30.1355112 89.1059656,30.066949 88.8699148,29.9325133 C88.6351503,29.7967332 88.3379965,29.6636419 87.9784531,29.5339114 C87.6176234,29.404181 87.2233478,29.3383075 86.791124,29.3383075 C85.7832449,29.3383075 84.9638205,29.6918734 84.3309214,30.398333 C83.6980222,31.1054648 83.3822158,31.9752638 83.3822158,33.0070579 C83.3822158,34.0307858 83.6980222,34.8925187 84.3309214,35.5929287 C84.9638205,36.2946831 85.7832449,36.6462324 86.791124,36.6462324 C87.2233478,36.6462324 87.6176234,36.5810311 87.9784531,36.4506285 C88.3379965,36.320898 88.6351503,36.1911676 88.8699148,36.0600928 C89.1059656,35.9303623 89.2854157,35.8644888 89.4108378,35.8644888 C89.5729217,35.8644888 89.7112076,35.9149022 89.827625,36.0143846 C89.9421129,36.1158836 90,36.260402 90,36.4506285 C90,36.8122605 89.6784049,37.1597768 89.0352147,37.4965383 C88.3933108,37.8319554 87.6639331,38 86.8490111,38 C85.4191992,38 84.2543817,37.5187202 83.3519858,36.5561605 C82.4502332,35.5929287 82,34.4112388 82,33.0070579 C82,31.5934664 82.4502332,30.405727 83.3519858,29.4438395" id="Fill-34" fill="#1B2341"></path>
                <path d="M98.5155026,30.4216965 C97.8245315,29.6998252 96.9863714,29.3388896 96.0003407,29.3388896 C95.0245315,29.3388896 94.1911414,29.6971367 93.5008518,30.4136309 C92.8085179,31.1314693 92.4637138,31.9958328 92.4637138,33.0073935 C92.4637138,34.0202984 92.8085179,34.8826455 93.5008518,35.5937626 C94.1911414,36.306224 95.0245315,36.6617825 96.0003407,36.6617825 C96.9863714,36.6617825 97.8245315,36.306224 98.5155026,35.5937626 C99.2064736,34.8826455 99.5512777,34.0250034 99.5512777,33.0228525 C99.5512777,32.0099476 99.2064736,31.1435677 98.5155026,30.4216965 M99.5369676,36.5407985 C98.560477,37.5133755 97.3822828,38 96.0003407,38 C94.6177172,38 93.439523,37.5113591 92.4637138,36.5340772 C91.4879046,35.5567953 91,34.3805619 91,33.0073935 C91,31.6248152 91.4879046,30.4432047 92.4637138,29.4672671 C93.439523,28.4893131 94.6177172,28 96.0003407,28 C97.3822828,28 98.560477,28.4913295 99.5369676,29.4739884 C100.512777,30.4566474 101,31.6396021 101,33.0228525 C101,34.396021 100.512777,35.5688937 99.5369676,36.5407985" id="Fill-36" fill="#1B2341"></path>
                <path d="M103.179018,28.1834933 C103.297722,28.0611644 103.453641,28 103.645492,28 C103.837344,28 103.994546,28.0611644 104.119666,28.1834933 C104.242862,28.3058222 104.305101,28.4609402 104.305101,28.649478 L104.305101,35.8013032 L108.396214,35.8013032 C108.578441,35.8013032 108.724094,35.8580537 108.834456,35.9702936 C108.944819,36.0825335 109,36.2288237 109,36.407903 C109,36.5869824 108.944819,36.7294892 108.834456,36.8379458 C108.724094,36.9464023 108.578441,37 108.396214,37 L103.616619,37 C103.434392,37 103.286814,36.9438801 103.171319,36.830379 C103.057106,36.7181391 103,36.5724795 103,36.3934001 L103,28.649478 C103,28.4609402 103.059673,28.3058222 103.179018,28.1834933" id="Fill-38" fill="#1B2341"></path>
                <path d="M111.173201,28.1694443 C111.288884,28.057109 111.438819,28 111.622361,28 L116.378931,28 C116.561181,28 116.71047,28.057109 116.826799,28.1694443 C116.941835,28.2817795 117,28.4267485 117,28.6049787 C117,28.783209 116.941835,28.9256677 116.826799,29.0323548 C116.71047,29.1402971 116.561181,29.1942682 116.378931,29.1942682 L112.315166,29.1942682 L112.315166,31.8896869 L115.799224,31.8896869 C115.982766,31.8896869 116.132701,31.9430305 116.247738,32.0509727 C116.363421,32.1582874 116.421586,32.3020013 116.421586,32.4796039 C116.421586,32.656579 116.363421,32.8021756 116.247738,32.9145108 C116.132701,33.0262185 115.982766,33.0827 115.799224,33.0827 L112.315166,33.0827 L112.315166,35.806987 L116.378931,35.806987 C116.561181,35.806987 116.71047,35.8628408 116.826799,35.9751761 C116.941835,36.0868838 117,36.2324803 117,36.410083 C117,36.5889408 116.941835,36.7307719 116.826799,36.8393417 C116.71047,36.9466564 116.561181,37 116.378931,37 L111.622361,37 C111.438819,37 111.288884,36.9435186 111.173201,36.8318109 C111.057518,36.7188481 111,36.5738791 111,36.3956488 L111,28.6049787 C111,28.4267485 111.057518,28.2817795 111.173201,28.1694443" id="Fill-40" fill="#1B2341"></path>
                <path d="M127.335581,35.8062762 L128.858014,35.8062762 C129.997753,35.8062762 130.912754,35.5043933 131.601734,34.9006276 C132.291356,34.2974895 132.636167,33.4985356 132.636167,32.5069038 C132.636167,31.5058577 132.289429,30.7018828 131.594028,30.0987448 C130.900554,29.4956067 129.983626,29.1930962 128.84453,29.1930962 L127.335581,29.1930962 L127.335581,35.8062762 Z M126.172084,28.1682008 C126.287021,28.0558577 126.434706,28 126.616422,28 L128.815635,28 C130.3477,28 131.594028,28.4186192 132.55783,29.2564854 C133.519063,30.0937238 134,31.1776151 134,32.5069038 C134,33.8361925 133.531263,34.9169456 132.593146,35.7497908 C131.655028,36.5832636 130.443374,37 128.958183,37 L126.616422,37 C126.434706,37 126.287021,36.9435146 126.172084,36.8311715 C126.056505,36.7194561 126,36.5738494 126,36.3956067 L126,28.6031381 C126,28.425523 126.056505,28.2805439 126.172084,28.1682008 L126.172084,28.1682008 Z" id="Fill-42" fill="#1B2341"></path>
                <path d="M136.173909,28.1917565 C136.289849,28.0648287 136.440695,28 136.62707,28 C136.813446,28 136.966785,28.0648287 137.087711,28.1917565 C137.208638,28.3186843 137.268477,28.4838269 137.268477,28.6878668 L137.268477,34.0004094 C137.268477,34.7947318 137.473553,35.4327829 137.882458,35.9166098 C138.291986,36.4004367 138.831167,36.6413266 139.5,36.6413266 C140.178183,36.6413266 140.719858,36.4004367 141.123776,35.9166098 C141.52894,35.4327829 141.731523,34.7947318 141.731523,34.0004094 L141.731523,28.6878668 C141.731523,28.4838269 141.791986,28.3186843 141.912289,28.1917565 C142.033215,28.0648287 142.181567,28 142.35797,28 C142.544346,28 142.697685,28.0648287 142.818611,28.1917565 C142.939537,28.3186843 143,28.4838269 143,28.6878668 L143,34.0004094 C143,35.2007643 142.677738,36.1684182 142.030098,36.9006415 C141.384328,37.6342296 140.537222,38 139.485663,38 C138.435352,38 137.591986,37.6355944 136.955565,36.9088304 C136.317898,36.1807015 136,35.2110004 136,34.0004094 L136,28.6878668 C136,28.4838269 136.05797,28.3186843 136.173909,28.1917565" id="Fill-44" fill="#1B2341"></path>
                <path d="M81.814949,44.1883938 C81.9367797,44.3040415 82,44.4545078 82,44.6404145 L82,52.2066321 C82,52.4484974 81.9354626,52.6406218 81.8070464,52.7842487 C81.6799473,52.9284974 81.5087257,53 81.2920645,53 C81.0569641,53 80.8626934,52.9471503 80.7105696,52.8402073 C80.5577873,52.7320207 80.383273,52.559171 80.1870267,52.3185492 L75.3407968,46.212228 L75.3407968,52.3595855 C75.3407968,52.5454922 75.2762595,52.6965803 75.1491604,52.8116062 C75.0207442,52.9284974 74.8594007,52.9850777 74.6618373,52.9850777 C74.4761278,52.9850777 74.3187356,52.9260104 74.1903194,52.8053886 C74.0632203,52.6835233 74,52.5361658 74,52.3595855 L74,44.8070466 C74,44.5570984 74.0658545,44.36 74.1982219,44.2157513 C74.3299309,44.0727461 74.5202502,44 74.7652288,44 C75.1287455,44 75.4626276,44.2176166 75.7681923,44.654715 L80.6736911,50.8717098 L80.6736911,44.6404145 C80.6736911,44.4545078 80.7342772,44.3040415 80.8567665,44.1883938 C80.9805729,44.0727461 81.1399407,44.0149223 81.336187,44.0149223 C81.5330919,44.0149223 81.6924597,44.0727461 81.814949,44.1883938" id="Fill-46" fill="#1B2341"></path>
                <path d="M85.1739092,43.1904177 C85.2898486,43.0634726 85.4406946,43 85.6270703,43 C85.8128228,43 85.9667854,43.0634726 86.0870882,43.1904177 C86.2086376,43.3173628 86.2684773,43.482528 86.2684773,43.6865957 L86.2684773,48.9998635 C86.2684773,49.7942943 86.4723063,50.4331149 86.8824577,50.9163254 C87.2919858,51.4002184 87.8299199,51.6411411 88.5,51.6411411 C89.1781834,51.6411411 89.7198575,51.4002184 90.1237756,50.9163254 C90.5289403,50.4331149 90.7315227,49.7942943 90.7315227,48.9998635 L90.7315227,43.6865957 C90.7315227,43.482528 90.7919858,43.3173628 90.9122885,43.1904177 C91.0332146,43.0634726 91.1815672,43 91.3579697,43 C91.5443455,43 91.6970614,43.0634726 91.8179875,43.1904177 C91.939537,43.3173628 92,43.482528 92,43.6865957 L92,48.9998635 C92,50.2010647 91.6764915,51.1681682 91.030098,51.9004914 C90.384951,52.6341796 89.5365984,53 88.4856634,53 C87.4353517,53 86.5919858,52.6355446 85.9549421,51.9086814 C85.3178985,51.1804532 85,50.2113022 85,48.9998635 L85,43.6865957 C85,43.482528 85.0579697,43.3173628 85.1739092,43.1904177" id="Fill-48" fill="#1B2341"></path>
                <path d="M104.78667,43.2030028 C104.930022,43.3375078 105,43.511866 105,43.7248322 L105,51.372933 C105,51.5591227 104.934099,51.709818 104.802296,51.8256417 C104.670494,51.9420881 104.502684,52 104.300224,52 C104.108635,52 103.945581,51.9395973 103.813778,51.8181692 C103.682655,51.6973639 103.617433,51.5497821 103.617433,51.372933 L103.617433,45.1184529 L100.743597,49.3665675 C100.552008,49.6455407 100.30267,49.7844046 100.00034,49.7844046 C99.6959712,49.7844046 99.447313,49.6455407 99.2543651,49.3665675 L96.3825668,45.1458521 L96.3825668,51.372933 C96.3825668,51.5591227 96.3166655,51.709818 96.1848631,51.8256417 C96.0523813,51.9420881 95.8866091,52 95.6834703,52 C95.4803315,52 95.3159182,51.9395973 95.1888715,51.8181692 C95.0625042,51.6973639 95,51.5497821 95,51.372933 L95,43.8225974 C95,43.571646 95.0801685,43.3723794 95.2425437,43.2229295 C95.4042394,43.074725 95.62776,43 95.9117467,43 C96.1542904,43 96.3560704,43.0566664 96.5184455,43.1681312 C96.6815001,43.2789732 96.8431959,43.460804 97.005571,43.7111326 L100.091378,48.307341 L103.282492,43.5299246 C103.525036,43.1768491 103.83416,43 104.209185,43 C104.453088,43 104.646036,43.0672525 104.78667,43.2030028" id="Fill-50" fill="#1B2341"></path>
                <path d="M112.764193,40.3024159 C112.846278,40.4769331 112.800388,40.6570003 112.626522,40.8401508 L111.441129,42.3022718 C111.276958,42.4681556 111.079823,42.5366058 110.849079,42.5094724 C110.67392,42.4909723 110.5537,42.4200554 110.487127,42.2954884 C110.419261,42.171538 110.433481,42.0309376 110.530432,41.8743038 L111.512873,40.3702495 C111.695788,40.0773319 111.946569,39.9576983 112.26457,40.0131984 C112.515997,40.0304651 112.682107,40.1272821 112.764193,40.3024159 M108.173866,43.3234747 C108.288915,43.2130911 108.437574,43.1575909 108.621135,43.1575909 L113.378218,43.1575909 C113.561133,43.1575909 113.711731,43.2130911 113.827426,43.3234747 C113.942475,43.4332417 114,43.5756921 114,43.7514426 C114,43.9265765 113.942475,44.0653269 113.827426,44.1713939 C113.711731,44.2780775 113.561133,44.3304943 113.378218,44.3304943 L109.315308,44.3304943 L109.315308,46.9790854 L112.800388,46.9790854 C112.983949,46.9790854 113.132608,47.0321189 113.247657,47.1375692 C113.364645,47.2430195 113.421523,47.3842366 113.421523,47.5587537 C113.421523,47.7332709 113.364645,47.8757213 113.247657,47.986105 C113.132608,48.0964886 112.983949,48.1519888 112.800388,48.1519888 L109.315308,48.1519888 L109.315308,50.8289466 L113.378218,50.8289466 C113.561133,50.8289466 113.711731,50.8832134 113.827426,50.9935971 C113.942475,51.1039807 114,51.2464311 114,51.4209483 C114,51.5960822 113.942475,51.7354492 113.827426,51.8427495 C113.711731,51.9481998 113.561133,52 113.378218,52 L108.621135,52 C108.437574,52 108.288915,51.9451165 108.173866,51.8353495 C108.056878,51.7249659 108,51.5818988 108,51.4067649 L108,43.7514426 C108,43.5756921 108.056878,43.4332417 108.173866,43.3234747" id="Fill-52" fill="#1B2341"></path>
                <path d="M119.019577,48.2766711 C119.543197,48.2766711 119.961625,48.1323662 120.275446,47.8431318 C120.588682,47.5545221 120.745885,47.172208 120.745885,46.6974387 C120.745885,46.2226695 120.588682,45.8422295 120.275446,45.5579926 C119.961625,45.2743805 119.543197,45.1319497 119.019577,45.1319497 L117.175806,45.1319497 L117.175806,48.2766711 L119.019577,48.2766711 Z M121.713061,51.9236482 C121.826434,52.1098077 121.883121,52.2959672 121.883121,52.4827514 C121.883121,52.6320539 121.832863,52.7557437 121.733515,52.8531964 C121.632415,52.950649 121.499172,53 121.334372,53 C121.072563,53 120.854583,52.8407024 120.680432,52.5252308 L118.875816,49.4086208 L117.189831,49.4086208 L117.189831,52.3571875 C117.189831,52.543347 117.132561,52.6951482 117.019772,52.8119664 C116.906984,52.9281599 116.762638,52.9862567 116.587903,52.9862567 C116.413753,52.9862567 116.272329,52.9256611 116.163047,52.80447 C116.054349,52.6826543 116,52.5346012 116,52.3571875 L116,44.6009579 C116,44.4235441 116.052596,44.279864 116.157203,44.1680433 C116.261225,44.0568474 116.396805,44 116.562774,44 L118.941268,44 C119.855849,44 120.595695,44.246755 121.1573,44.7408898 C121.71949,45.2343999 122,45.8865829 122,46.6974387 C122,47.3221351 121.832863,47.855001 121.497419,48.2966613 C121.161975,48.7401957 120.693289,49.0537933 120.091361,49.2412022 L121.713061,51.9236482 Z" id="Fill-54" fill="#1B2341"></path>
                <path d="M125.274336,44.1740487 C125.456244,44.0580162 125.695182,44 125.989184,44 C126.283186,44 126.52409,44.0580162 126.715831,44.1740487 C126.904621,44.2900811 127,44.441048 127,44.6275733 L127,52.3724267 C127,52.558952 126.904621,52.7105427 126.715831,52.8259513 C126.52409,52.9432314 126.283186,53 125.989184,53 C125.695182,53 125.456244,52.9407361 125.274336,52.819713 C125.091445,52.6974423 125,52.5495945 125,52.3724267 L125,44.6275733 C125,44.441048 125.091445,44.2900811 125.274336,44.1740487" id="Fill-56" fill="#1B2341"></path>
                <path d="M131.500852,51.0402243 C132.191823,51.7014333 133.024532,52.0311031 133.999659,52.0311031 C134.987053,52.0311031 135.824532,51.7014333 136.515503,51.0402243 C137.206474,50.3808849 137.552641,49.5856892 137.552641,48.6571299 C137.552641,47.7173531 137.206474,46.9146791 136.515503,46.2447453 C135.824532,45.5754348 134.987053,45.2401564 133.999659,45.2401564 C133.024532,45.2401564 132.191823,45.5735652 131.500852,46.2385134 C130.808518,46.9028384 130.463032,47.704266 130.463032,48.6434196 C130.463032,49.5807036 130.808518,50.3808849 131.500852,51.0402243 M138.847359,54.4696618 C138.847359,54.6005325 138.797615,54.720809 138.696082,54.832984 C138.593186,54.9439125 138.451448,55 138.268825,55 C138.06644,55 137.846337,54.9345646 137.612606,54.8055634 L134.473254,53.2575491 C134.371039,53.2662739 134.21431,53.2712594 133.999659,53.2712594 C132.618399,53.2712594 131.439523,52.8181973 130.463032,51.912073 C129.487905,51.0053255 129,49.9159821 129,48.6434196 C129,47.3602629 129.487905,46.2653107 130.463032,45.3598096 C131.439523,44.4536853 132.618399,44 133.999659,44 C135.382283,44 136.561158,44.4561781 137.537649,45.3660416 C138.512095,46.2771514 139,47.3739731 139,48.6571299 C139,49.5576455 138.739693,50.3852473 138.215673,51.1380658 C137.692334,51.8902612 137.003407,52.4530055 136.149574,52.8250524 L138.375809,53.8844825 C138.69063,54.0527449 138.847359,54.2471815 138.847359,54.4696618" id="Fill-58" fill="#1B2341"></path>
                <path d="M141.173909,43.1904177 C141.289849,43.0634726 141.441318,43 141.628317,43 C141.812823,43 141.966785,43.0634726 142.087711,43.1904177 C142.208638,43.3173628 142.268477,43.482528 142.268477,43.6865957 L142.268477,48.9998635 C142.268477,49.7942943 142.473553,50.4331149 142.882458,50.9163254 C143.291986,51.4002184 143.830543,51.6411411 144.5,51.6411411 C145.178807,51.6411411 145.720481,51.4002184 146.125022,50.9163254 C146.52894,50.4331149 146.731523,49.7942943 146.731523,48.9998635 L146.731523,43.6865957 C146.731523,43.482528 146.791362,43.3173628 146.912912,43.1904177 C147.033215,43.0634726 147.181567,43 147.358593,43 C147.544346,43 147.697685,43.0634726 147.818611,43.1904177 C147.939537,43.3173628 148,43.482528 148,43.6865957 L148,48.9998635 C148,50.2010647 147.677115,51.1681682 147.030721,51.9004914 C146.385574,52.6341796 145.537222,53 144.48691,53 C143.435352,53 142.591362,52.6355446 141.954942,51.9086814 C141.318522,51.1804532 141,50.2113022 141,48.9998635 L141,43.6865957 C141,43.482528 141.058593,43.3173628 141.173909,43.1904177" id="Fill-60" fill="#1B2341"></path>
                <g id="Group-64" transform="translate(151.000000, 44.000000)">
                    <mask id="mask-4" fill="white">
                        <use xlink:href="#path-3"></use>
                    </mask>
                    <g id="Clip-63"></g>
                    <path d="M0.17385497,0.168828452 C0.288896549,0.0564853556 0.438838382,0 0.622387867,0 L5.37916326,0 C5.56206644,0 5.71136197,0.0564853556 5.82704985,0.168828452 C5.94209143,0.281171548 6.00025852,0.426150628 6.00025852,0.604393305 C6.00025852,0.782635983 5.94209143,0.924476987 5.82704985,1.03179916 C5.71136197,1.14037657 5.56206644,1.19309623 5.37916326,1.19309623 L1.31522254,1.19309623 L1.31522254,3.88933054 L4.80072386,3.88933054 C4.98362704,3.88933054 5.13292257,3.94330544 5.24861045,4.05 C5.36429833,4.15794979 5.42181912,4.30167364 5.42181912,4.47866109 C5.42181912,4.65627615 5.36429833,4.80188285 5.24861045,4.91422594 C5.13292257,5.02656904 4.98362704,5.08242678 4.80072386,5.08242678 L1.31522254,5.08242678 L1.31522254,7.80753138 L5.37916326,7.80753138 C5.56206644,7.80753138 5.71136197,7.86276151 5.82704985,7.9751046 C5.94209143,8.08682008 6.00025852,8.23242678 6.00025852,8.41004184 C6.00025852,8.58891213 5.94209143,8.73075314 5.82704985,8.83933054 C5.71136197,8.94665272 5.56206644,9 5.37916326,9 L0.622387867,9 C0.438838382,9 0.288896549,8.94351464 0.17385497,8.83179916 C0.0575207893,8.71882845 0,8.57384937 0,8.39560669 L0,0.604393305 C0,0.426150628 0.0575207893,0.281171548 0.17385497,0.168828452" id="Fill-62" fill="#1B2341" mask="url(#mask-4)"></path>
                </g>
                <path d="M82.51,18.5575 L82.51,18.5865 C82.51,18.5285 82.501,18.4705 82.49,18.4135 C82.51,18.4605 82.51,18.5085 82.51,18.5575" id="Fill-65" fill="#1B2341"></path>
            </g>
        </g>
    </g>
</svg>