<?xml version="1.0" encoding="UTF-8"?>
<svg width="119px" height="89px" viewBox="0 0 119 89" version="1.1" xmlns="http://www.w3.org/2000/svg" xmlns:xlink="http://www.w3.org/1999/xlink">
    <title>logo-part-voltaire</title>
    <g id="Page-1" stroke="none" stroke-width="1" fill="none" fill-rule="evenodd">
        <g id="Desktop-HD" transform="translate(-950.000000, -1111.000000)" fill-rule="nonzero">
            <g id="Projet_voltaire_color" transform="translate(961.000000, 1122.000000)">
                <path d="M9.48009187,51 C9.24659113,51 9.03551264,50.9412567 8.84840277,50.824624 C8.66129291,50.708589 8.50373574,50.5600231 8.37495811,50.3795241 C8.24626638,50.1997936 8.14704145,50.0040966 8.07754104,49.7917499 C8.00709564,49.5800862 7.97195884,49.3786685 7.97195884,49.1872406 C8.04154516,48.2972116 8.40459672,46.9882953 9.05948126,45.2603209 C9.7143658,43.5338833 10.6731965,41.3558569 11.9358874,38.7270953 C14.3908239,33.6187356 15.654288,30.3441395 15.7246475,28.9032216 L15.7246475,28.7756599 C15.7246475,28.7328832 15.7358157,28.6589418 15.7590111,28.5531527 L15.7590111,28.1081382 C15.7590111,27.1753325 15.2448455,26.7093139 14.2157413,26.7093139 L13.9006269,26.7093139 C13.7831034,26.7093139 13.6654939,26.7193891 13.5496026,26.7404786 C10.6260324,27.1223953 7.76079445,28.6480982 4.95560688,31.3189534 C2.35909234,33.7992346 0.955682415,36.0460795 0.746236199,38.0595736 C0.675876703,38.9068258 0.897350184,39.4692414 1.41151573,39.7446859 C1.48187523,39.7874626 1.58745743,39.8135043 1.72817642,39.8244333 C1.86734905,39.8345939 2.03126348,39.861404 2.21837335,39.9034123 C2.45264727,39.9244164 2.57025673,39.9990409 2.57025673,40.1266026 C2.57025673,40.3172621 2.39354186,40.4441407 2.04329074,40.5071531 C1.80979,40.5071531 1.58745743,40.4230512 1.37715212,40.2534812 C1.23643313,40.2107045 1.09004414,40.1208819 0.938930154,39.9831597 C0.786183898,39.8454375 0.616685381,39.6388968 0.429575513,39.3634523 C0.102519833,38.8336528 -0.0382850675,38.3668658 0.00887899019,37.9638596 C0.336020578,35.4415702 1.93770854,32.887433 4.81488788,30.3013628 C7.64490317,27.7580693 10.4276685,26.3273119 13.1633556,26.0090907 C14.1221004,25.9460783 14.9530126,26.2105938 15.654288,26.8042595 C16.4028134,27.4188439 16.7650058,28.171919 16.7418104,29.061948 C16.7178418,29.8034111 16.4083975,30.9855341 15.8118451,32.606951 C15.216066,34.2282825 14.3564603,36.2895908 13.2337151,38.7908761 C10.7787787,44.1318182 9.41050556,47.5767527 9.12906758,49.1242282 C9.0826767,49.4206768 9.0826767,49.7178085 9.12906758,50.0142571 C9.19942707,50.3962592 9.34014606,50.5868333 9.55131046,50.5868333 C9.76075668,50.5868333 10.0062847,50.4164948 10.2869495,50.0773549 C12.8363,47.0890469 15.1512906,44.4876931 17.2328664,42.2720129 C19.3135831,40.0571011 21.1615723,38.2081394 22.7752875,36.7244448 C28.1066301,31.8915296 32.4447785,29.4751147 35.7897325,29.4751147 C36.4207343,29.4751147 37.0164275,29.5489707 37.5786162,29.6976219 C37.859281,29.8454193 38,29.9411333 38,29.98391 C38,30.0896992 37.859281,30.1114717 37.5786162,30.0469224 C37.3443423,30.0055972 37.1220097,29.9737495 36.9124776,29.9519769 C36.7013991,29.9302897 36.4910938,29.9201292 36.2807885,29.9201292 C33.8481884,29.9201292 30.8438637,31.2660162 27.2654089,33.9579609 C25.9323585,34.9335433 24.4937259,36.1258269 22.9512292,37.5348117 C21.4070144,38.9444795 19.7581624,40.5817776 18.0045013,42.4473889 C16.7650058,43.7621966 15.5431217,45.0805904 14.3380757,46.4055586 C13.1345761,47.7304415 11.912692,49.0604473 10.6731965,50.3962592 C10.2989768,50.7984969 9.90070249,51 9.48009187,51" id="Path" fill="#030002"></path>
                <path d="M18.0613228,49.9446488 C17.8726239,49.8931899 17.7015993,49.8155443 17.5484223,49.7125433 C17.3951586,49.6087941 17.265374,49.4852595 17.1596749,49.3413574 C17.0532827,49.1966239 17,49.0420809 17,48.8769801 C17.0475646,47.1635392 18.6274194,44.6357338 21.7411239,41.2922339 C21.8354733,41.1482486 21.8113011,41.0550573 21.6701669,41.0141562 C21.4580756,40.910407 21.2452046,40.7918603 21.0331133,40.6577678 C20.821022,40.5236753 20.7145432,40.3945708 20.7145432,40.270371 C20.7145432,40.2089362 20.750065,40.1263858 20.821022,40.0233848 C20.891979,39.9203838 21.1984197,39.858284 21.7411239,39.8377503 C22.6137478,39.8166347 23.0613228,39.8067419 23.085495,39.8067419 C23.1798444,39.8067419 23.3089359,39.7650926 23.4742423,39.6825422 C23.9935541,39.2492564 24.5120861,39.0219725 25.0307047,39.001522 C25.4081024,38.9810714 25.9387638,39.1667059 26.6226023,39.5590075 C26.6693871,39.5794581 26.7113202,39.5999918 26.746842,39.6204423 C26.7814975,39.6415579 26.8226508,39.6620916 26.8702154,39.6825422 C27.4129195,39.7037409 28.0669543,39.7241915 28.8330994,39.7438938 C29.6000243,39.7650926 30.4790595,39.7862913 31.4694252,39.8067419 C31.8234305,39.8483912 32,39.8892923 32,39.9301934 C32,40.0543932 31.8234305,40.115828 31.4694252,40.115828 C30.7379356,40.115828 30.2661884,40.2400277 30.0540971,40.4870139 C30.0073123,40.5491138 30.0073123,40.6112137 30.0540971,40.6733135 C30.0774896,40.7354134 30.1007953,40.7975133 30.1250541,40.8589481 C30.1475802,40.9210479 30.1597096,40.9725068 30.1597096,41.0141562 C30.0895323,41.7981773 29.7065031,42.6386454 29.0105353,43.5363085 C28.3145674,44.4346367 27.2588761,45.4099454 25.8444144,46.4620684 C23.085495,48.5466952 20.6677583,49.7223529 18.5927639,49.9912861 C18.4265911,50.0117366 18.2500217,49.9961909 18.0613228,49.9446488 M17.8846667,49.0315231 C17.8846667,49.5262437 18.2621511,49.7125433 19.0169465,49.5890086 C20.6201937,49.3618079 22.5427908,48.3505029 24.7830916,46.5545116 C27.1420007,44.7183674 28.4976348,43.0465758 28.8516401,41.5398851 C29.0161668,40.9210479 28.5685918,40.5596716 27.507269,40.4566706 C26.9411724,40.3945708 26.410511,40.3896659 25.914505,40.4411249 C25.4202318,40.4926669 24.9597477,40.5907631 24.5354785,40.7354134 C24.4879139,40.7149628 24.2870857,40.807406 23.9338601,41.0141562 C21.410511,43.0571336 19.4653879,45.5023886 18.096758,48.3505029 C17.9556237,48.5777867 17.8846667,48.8043224 17.8846667,49.0315231" id="Shape" fill="#030002"></path>
                <path d="M35.4637996,66.0860354 C34.8205884,65.4693211 34.4159794,64.7726798 34.2490978,63.9967111 C34.0830035,63.2200572 34,62.3750412 34,61.4609779 C34,58.4619593 35.3685511,54.1663758 38.1064406,48.572771 C39.3211423,46.1053141 40.5350569,43.8837205 41.7497587,41.9049919 C42.9644604,39.9277197 44.1775003,38.1526207 45.3922021,36.5782388 C45.6779474,36.3018781 45.8204264,35.9833695 45.8204264,35.6212565 C45.8204264,35.2387549 45.6063143,34.9413202 45.1780899,34.7282672 C44.3207666,34.4308325 43.9870035,34.1006732 44.1775003,33.7392456 C44.2491335,33.6119449 44.6008267,33.5159982 45.2310057,33.4526906 C45.8619719,33.3886976 46.7493829,33.3567439 47.8923641,33.3567439 C47.9876125,33.3567439 47.9990703,33.3247046 47.9282243,33.2607116 C47.8565912,33.1974896 47.8443463,33.1334966 47.8923641,33.0695036 C49.0354327,31.473962 50.355966,29.8850167 51.8564131,28.3004404 C53.3560729,26.7158642 54.9273659,25.0731202 56.570292,23.3715233 C56.7135582,23.2231486 57.3795101,22.9461026 58.5705965,22.541756 C59.1421746,22.3723073 59.5524688,22.2399523 59.8024412,22.1440057 C60.0523262,22.0479733 60.3202288,22 60.6067613,22 C60.8681041,22 61,22.0959467 61,22.2872403 C61,22.3723073 60.8794744,22.4464947 60.6426216,22.5104876 C58.403715,22.9140633 54.7017959,26.2853892 49.5352902,32.6230089 C49.1542964,33.1116516 49.2373873,33.3567439 49.7852626,33.3567439 L54.9640134,33.3567439 C56.3675502,33.3567439 57.457703,33.3617983 58.2302736,33.3727636 C59.0053807,33.3836433 59.487308,33.3886976 59.6778048,33.3886976 C59.891917,33.3886976 60.0343961,33.4199659 60.1069038,33.4839589 C60.1069038,33.5268779 60.0409559,33.6381589 59.90906,33.8192582 C59.7779513,33.9995866 59.6061717,34.1006732 59.3920596,34.1225182 C58.0348787,34.1646662 56.4815159,34.2337136 54.7311839,34.3297459 C52.9807644,34.4256925 50.9869322,34.5260939 48.7489002,34.6322349 C48.3442037,34.6962279 48.0470881,34.8664475 47.8565912,35.1427225 C46.5946589,36.8014861 45.4043596,38.4493701 44.2849937,40.086974 C43.1655404,41.7254346 42.0704896,43.5012189 40.9991416,45.4144982 C39.3562155,48.45635 38.0584228,51.2146453 37.1067257,53.6929819 C36.1541539,56.1705474 35.5826633,58.3979663 35.3929536,60.3760096 C35.3685511,60.6522846 35.3563062,60.9068859 35.3563062,61.1416982 L35.3563062,61.9074726 C35.3563062,65.6075014 36.8209804,67.457473 39.7493667,67.457473 C40.5830747,67.457473 41.5111565,67.3192927 42.5353614,67.0430177 C44.0350213,66.6175971 45.5224362,65.9478551 46.9992679,65.0330208 C48.4753124,64.1188718 49.9757595,62.9277625 51.4990347,61.4609779 C53.0711148,59.992737 54.2793442,58.6212137 55.1243351,57.3457227 C55.9694135,56.0694608 56.4872011,54.8572775 56.6777854,53.7090015 C56.6777854,51.7098843 55.8798502,50.8270893 54.2850294,51.0605309 C53.9275635,51.1034499 53.6174157,51.1993966 53.3560729,51.3484566 C53.0939429,51.4968313 52.9034461,51.5717039 52.7853695,51.5717039 C52.5459802,51.5717039 52.4507318,51.4757573 52.4996242,51.2844636 C52.618488,51.1143296 52.7910547,50.9652696 53.0174118,50.837969 C53.2428943,50.709983 53.6662207,50.5288836 54.2850294,50.2955276 C54.3794032,50.274368 54.5227569,50.2634883 54.7140409,50.2634883 C55.4752412,50.2634883 56.2014558,50.7208626 56.8926848,51.6350116 C57.6058672,52.5919939 57.9388431,53.3155345 57.8923997,53.8042628 C57.4153704,56.6112167 55.1422653,59.6633486 51.0708103,62.9597162 C48.9987852,64.6184798 47.0644287,65.8736677 45.2667785,66.724509 C43.470003,67.5745793 41.773374,68 40.1776785,68 C38.2734096,68 36.7021166,67.3615264 35.4637996,66.0860354" id="Path" fill="#030002"></path>
                <path d="M42.8677423,50.5202296 C42.2887659,50.5202296 42,50.1467464 42,49.39978 C42,47.8853082 43.2830451,45.944072 45.8515148,43.5753841 C47.0317327,42.4877625 48.1415013,41.6087106 49.1825202,40.9360799 C50.223539,40.2634492 51.1948733,39.7571929 52.0974579,39.4158503 C52.3054917,39.3516552 52.5309467,39.2932178 52.7745876,39.2392493 C53.0166138,39.1867416 53.2657785,39.1597573 53.5204669,39.1597573 C53.7981853,39.1597573 54.0749688,39.1867416 54.3526871,39.2392493 C54.6303205,39.2932178 54.9087187,39.3625692 55.186352,39.4479049 C55.5787099,39.4909594 55.7986411,39.5011859 55.8452957,39.4792719 C56.2613633,39.4158503 56.5619416,39.2772335 56.7471155,39.0641951 C56.7937701,39.0211406 56.8633697,39 56.9559141,39 C57.0476937,39 57.1291057,39.0532811 57.1987902,39.1597573 C57.2675399,39.2662335 57.2904848,39.3414286 57.2683897,39.3837097 C56.5967839,40.3437146 55.9315516,41.287735 55.2726079,42.2155993 C54.6128994,43.144323 53.9713768,44.0882575 53.3472754,45.0482623 C52.8607584,45.7953147 52.3869886,46.6539136 51.9241814,47.6241449 C51.4614591,48.5951497 51.0390179,49.5762951 50.6577926,50.5684404 C50.2757174,51.5598123 49.9466705,52.5037469 49.6681873,53.40033 C49.390554,54.2961397 49.2062299,55.0534186 49.1136854,55.6719948 C49.0899757,55.778471 49.0789282,55.8754941 49.0789282,55.9601423 L49.0789282,56.2804304 C49.0789282,57.0055687 49.3217192,57.5438796 49.8073864,57.8962222 C50.2931385,58.2478774 50.9528471,58.4243924 51.7849823,58.4243924 C52.6179673,58.4243924 53.439055,58.2967756 54.2490102,58.0406827 C55.4751179,57.6569729 57.0714035,56.7392493 59.0378668,55.288285 C59.9863412,54.5842872 60.8358976,53.8592348 61.5873857,53.1121825 C62.3396387,52.365216 62.9929736,51.6619057 63.5483253,51.000275 C63.7563591,50.7865491 63.8955582,50.6800729 63.9643929,50.6800729 C63.9873378,50.7012134 64,50.733268 64,50.7763226 C64,50.8616582 63.9533454,50.9791344 63.8608009,51.1279777 C63.329159,51.8538036 62.6868716,52.6212231 61.9353834,53.4324705 C61.1831305,54.2429446 60.2861546,55.0534186 59.2459006,55.8645801 C58.2745663,56.5897185 57.4004504,57.1871541 56.6260174,57.6569729 C55.8508195,58.1260184 55.1389326,58.467447 54.4918862,58.6804854 C54.1675133,58.7869616 53.8439901,58.867227 53.5204669,58.9205081 C53.1961789,58.9737032 52.848946,59 52.4795331,59 C51.9241814,59 51.4155693,58.9205081 50.9528471,58.7607507 C50.489275,58.60022 50.0732074,58.4032519 49.7030296,58.1683854 C49.2640171,57.933433 48.9570652,57.5978481 48.7838737,57.1601698 C48.6105971,56.7224915 48.534709,56.2271493 48.5575689,55.6719948 C48.5813636,55.2240899 48.6794319,54.6266543 48.8534732,53.8803754 C49.0266648,53.133323 49.2521197,52.3389193 49.5297531,51.4963047 C49.8073864,50.6537761 50.1080496,49.8163178 50.4315728,48.9839297 C50.7558608,48.1523151 51.079384,47.4162628 51.403672,46.7764601 C51.7968796,46.0082672 52.1836288,45.2933553 52.5665537,44.632498 C52.9477791,43.9707813 53.335378,43.3624317 53.7285007,42.8079647 C53.8907297,42.5730982 53.8788324,42.455622 53.6937435,42.455622 C53.6700337,42.455622 53.6359563,42.4767626 53.5900665,42.5205906 C53.0347998,43.1391668 52.3688027,43.789196 51.5935198,44.4719673 C50.8191717,45.155512 49.9228758,45.9011034 48.9048868,46.712265 C46.8695887,48.2909319 45.1222067,49.4748891 43.6658851,50.2642226 C43.364542,50.434894 43.0979562,50.5202296 42.8677423,50.5202296 M44.0819527,48.2799319 C44.0819527,48.7928053 44.2900715,49.0481248 44.7061391,49.0481248 C44.8682831,49.0481248 45.0423245,48.9948438 45.2274134,48.8883675 C46.5222709,48.1414011 47.8868129,47.133959 49.3217192,45.8638926 C50.7558608,44.5952872 52.2935944,43.0531436 53.9365345,41.2395243 C54.0062191,41.1761026 54.0402115,41.1009934 54.0402115,41.0163453 C54.0402115,40.7814788 53.8898799,40.5625967 53.5893016,40.3597848 C53.2887234,40.1569729 52.9074131,40.055567 52.4446908,40.055567 C52.1900024,40.055567 51.9241814,40.0877075 51.646548,40.1519027 C50.5588745,40.4086831 49.1825202,41.3796019 47.5173999,43.0640576 C46.7311545,43.8745316 46.0659222,44.6536386 45.5224679,45.400605 C44.9782487,46.1468839 44.5447599,46.8611082 44.220387,47.5438796 C44.1278425,47.7788319 44.0819527,48.0239249 44.0819527,48.2799319" id="Shape" fill="#030002"></path>
                <path d="M62.3338324,47.5953161 C61.7674489,47.9978954 61.1433577,48.4171385 60.4624924,48.8524472 C59.7807784,49.2876705 59.0935482,49.6953771 58.400717,50.0776181 C57.7079707,50.4591755 57.1067929,50.7558759 56.5988807,50.9684029 C56.460637,51.0105324 56.2466095,51.0105324 55.958241,50.9684029 C55.6691087,50.9256754 55.3808251,50.8248382 55.0916928,50.6659771 C54.8033244,50.5063468 54.5489864,50.2952725 54.3294428,50.0297632 C54.1098143,49.764254 54,49.4407207 54,49.0591633 C54,48.7196499 54.0924171,48.2793848 54.2772513,47.7381971 C54.4620855,47.1977786 54.6927463,46.6247161 54.9700825,46.0204625 C55.2480975,45.4154399 55.5474984,44.800248 55.8713401,44.1742888 C56.194418,43.5489278 56.4945826,42.9758654 56.7726826,42.4557852 C57.0491701,41.9363886 57.2805947,41.4909962 57.4654289,41.1188389 C57.6502631,40.7481343 57.7537974,40.5203962 57.7774745,40.4347701 C57.8233011,40.1801137 57.9615449,40.0060415 58.1929695,39.9103317 C58.4243942,39.8145364 58.6440227,39.7985563 58.8517702,39.8623913 C59.0595177,39.9262264 59.2088787,40.0750038 59.3020595,40.3078692 C59.3944766,40.5414182 59.3360052,40.8489714 59.1290215,41.2305288 C58.3430943,42.588497 57.7364002,43.6331012 57.3090242,44.3650248 C56.8816482,45.0969484 56.5759674,45.6330942 56.3911332,45.9725222 C56.206299,46.311352 56.0964848,46.5187517 56.0616904,46.5927559 C56.026981,46.6667601 55.9985515,46.736406 55.9748744,46.799472 C55.9519611,46.863307 55.9006182,46.9801242 55.8192335,47.1499237 C55.7386125,47.3196377 55.5592945,47.6692348 55.2820432,48.1995696 C55.0047919,48.729819 54.861032,49.1389784 54.849151,49.4247406 C54.8373549,49.7112718 54.9123748,49.9180733 55.0742957,50.0457434 C55.2354528,50.1726443 55.4384479,50.2314375 55.6802259,50.2198156 C55.9226829,50.2096464 56.1597086,50.1835826 56.3911332,50.1407695 C56.8303053,50.0558271 57.378528,49.8542383 58.0373286,49.5365159 C58.6953655,49.2180245 59.3715633,48.8574891 60.0643096,48.4549097 C60.7571408,48.0515613 61.4040605,47.6482128 62.0052383,47.2449498 C62.6048038,46.842285 63.067653,46.5020879 63.390731,46.2264095 C63.5984785,46.0356736 63.7486032,45.9297091 63.8417841,45.9080035 C63.9342012,45.8876652 63.985544,45.9086872 63.997425,45.9725222 C64.009306,46.0356736 63.9800279,46.1313834 63.9105241,46.2583698 C63.8417841,46.3860398 63.7375709,46.5020879 63.5984785,46.608736 C63.321991,46.863307 62.900216,47.1919676 62.3338324,47.5953161 M60.445859,38.0169867 C59.9371831,38.4623791 59.5105708,38.6532005 59.1638158,38.5893655 C58.655055,38.5051922 58.4014808,38.3245399 58.4014808,38.048947 C58.4014808,37.7522466 58.666936,37.3590673 59.1985252,36.8715455 C59.7294356,36.3623181 60.1567267,36.0757868 60.4806533,36.0119518 C60.7342275,35.9699079 60.9704045,36.0387847 61.1907968,36.2186679 C61.4095766,36.3993202 61.4854452,36.5850143 61.4159414,36.7758357 C61.3464377,37.1363711 61.0225111,37.5505723 60.445859,38.0169867" id="Shape" fill="#030002"></path>
                <path d="M60.0274314,49.9046081 C59.9814636,49.7977897 59.9933812,49.6917417 60.0623328,49.585608 C62.3094731,46.3989452 63.8395171,43.9446046 64.6500812,42.2233565 C64.7896017,41.9043564 64.8593194,41.6391935 64.8593194,41.4263271 C64.8593194,41.3841304 64.824418,41.2672122 64.7547003,41.076086 C64.7317165,40.9910935 64.7317165,40.9162864 64.7547003,40.8523494 C65.032805,40.7680417 65.9020205,40.321938 67.3615806,39.5139528 C67.3845645,39.4718417 67.4305322,39.4500158 67.501016,39.4500158 C67.6396853,39.4500158 67.7323869,39.5037674 67.7791207,39.609901 C67.8719074,39.7370046 67.8599899,39.8540084 67.7435383,39.9600565 C67.0026068,40.8959156 66.3711466,41.7081804 65.8497535,42.3991618 C65.3283604,43.0893728 64.9401034,43.668486 64.6857487,44.1356452 C64.6152649,44.2635191 64.5811296,44.3696528 64.5811296,44.4546453 C64.5811296,44.5606933 64.7079665,44.5716491 64.9630873,44.4858862 C65.1714743,44.4015785 65.3109097,44.3158156 65.3806274,44.2315934 C66.2839782,43.2325677 67.4535161,42.202301 68.8908585,41.1393382 C70.3741686,40.0349492 71.5326402,39.3229122 72.3669543,39.0039121 C73.0848168,38.9828566 73.6181274,39.0467936 73.9659498,39.195723 C73.9881676,39.2167786 74,39.2379197 74,39.25966 C74,39.3229122 73.9596506,39.4129546 73.8787814,39.5299584 C73.7972313,39.6469622 73.7044446,39.7537806 73.6006767,39.8489585 C73.4960576,39.9448212 73.3859905,40.0189435 73.2710712,40.0720104 C73.1546196,40.1257619 73.0618329,40.1308118 72.9929665,40.0879304 C72.5286074,39.8961195 71.9034465,39.9927525 71.1157811,40.3749192 C67.6864192,42.1173085 64.6263312,45.0075674 61.9385818,49.0436417 C61.9385818,49.1082634 61.8458802,49.1823857 61.6613283,49.2666935 C61.4758401,49.3306305 61.2674531,49.4105731 61.0360822,49.5064357 C60.8039453,49.6016137 60.5377581,49.7346231 60.2365845,49.9046081 C60.1201329,50.0317973 60.0511813,50.0317973 60.0274314,49.9046081" id="Path" fill="#030002"></path>
                <path d="M85.7644913,41.9960786 C85.241633,42.3264986 84.6551781,42.5350085 84.005212,42.6196325 C83.609547,42.6838092 83.0223238,42.7268514 82.2436278,42.7472986 C81.4649318,42.7691204 80.6106881,42.7903409 79.6818357,42.8114754 C78.7521297,42.8332972 77.8232774,42.844294 76.8936567,42.844294 L74.4541922,42.844294 C74.1983544,43.1637172 73.925017,43.5210278 73.634948,43.9156245 C73.3441961,44.309448 73.0708586,44.7309354 72.8149355,45.1794853 C72.5598661,45.6264887 72.3390278,46.0911042 72.1531037,46.5709263 C71.9670942,47.0508342 71.8622664,47.546722 71.839218,48.0586753 C71.8161695,48.5276724 71.8685834,48.9112723 71.996545,49.2102483 C72.1236529,49.5085369 72.2977113,49.7382673 72.5185496,49.8979789 C72.7394732,50.0576905 72.995311,50.1649095 73.2853799,50.2174021 C73.5762171,50.2713552 73.8726031,50.2867336 74.175306,50.2655132 C74.9412827,50.1590674 75.7612952,49.9570868 76.6321849,49.6580249 C77.503843,49.3597363 78.2531736,49.0505367 78.8808596,48.7304262 C79.0660154,48.6232073 79.2050744,48.6078289 79.2980364,48.6822292 C79.3918522,48.7566296 79.3449016,48.8470956 79.1598311,48.9543145 C78.903908,49.124937 78.6019734,49.3116252 78.2531736,49.514379 C77.9043738,49.7163596 77.5205745,49.9140446 77.1026293,50.1058016 C76.6845988,50.2976445 76.2483856,50.4734217 75.7955264,50.6338206 C75.3418134,50.7935322 74.9071368,50.90582 74.4891917,50.9699967 C74.1395382,51.0334862 73.7557389,50.996286 73.3377938,50.8577089 C72.9198486,50.7191319 72.5360493,50.5113092 72.1872495,50.234155 C71.839218,49.9570868 71.5483808,49.6318216 71.3163597,49.2583594 C71.0843387,48.884983 70.9794256,48.4853175 71.0033277,48.0586753 C71.0732413,46.8852806 71.4268215,45.7125732 72.0656903,44.5391784 C72.7053274,43.366471 73.4832551,42.2732327 74.40101,41.2602369 C75.3195333,40.247241 76.2841534,39.3728222 77.2941021,38.6362932 C78.3055875,37.9011388 79.2170254,37.3840307 80.0306356,37.0850547 C80.4724828,36.9573885 80.8673795,36.9734542 81.2161793,37.1331658 C81.5642108,37.2936506 81.8375483,37.5277625 82.0346552,37.8369621 C82.2325304,38.1461616 82.3485409,38.4925614 82.383455,38.8769345 C82.4184545,39.2605344 82.3310412,39.6120889 82.1228369,39.9321994 C81.7740371,40.529464 81.1462657,41.0312797 80.2396935,41.4360141 C79.3338042,41.8415217 78.2992705,42.1295868 77.1375434,42.299522 L79.054918,42.299522 C79.7279326,42.299522 80.3675697,42.2943672 80.971439,42.2841436 C81.5753936,42.2732327 82.139483,42.2571671 82.6623412,42.2360325 C83.1851995,42.214898 83.6325954,42.1827667 84.005212,42.1398104 C84.4923024,42.0974555 84.9857953,41.9588784 85.4855197,41.7240792 C85.9845612,41.4892799 86.3746775,41.255168 86.6536491,41.0202829 C86.7696596,40.8715681 86.8689386,40.8175291 86.950035,40.8605713 C87.031046,40.9036135 87.0135463,40.9991484 86.8975358,41.147949 C86.6647465,41.3827483 86.2872642,41.6657445 85.7644913,41.9960786 M81.6691239,38.7492683 C81.6921724,38.4925614 81.6341245,38.2956496 81.4951509,38.1570726 C81.3552383,38.0185814 81.1518144,37.9544047 80.8848792,37.9653156 C80.6170904,37.9755392 80.3096071,38.0659192 79.9615756,38.2366277 C79.1010149,38.6850916 78.2293569,39.2766001 77.346516,40.0124418 C76.4637606,40.7482835 75.6270166,41.5111017 74.8372232,42.299522 C75.4410925,42.299522 76.0680102,42.2360325 76.71883,42.1076791 C77.3695645,41.9800988 77.9853848,41.7933247 78.5662056,41.5483019 C79.1478801,41.3025059 79.676287,41.0202829 80.1522801,40.7001724 C80.6290415,40.3807492 81.0064385,40.0285074 81.2853246,39.6441343 C81.5173457,39.3035766 81.6453072,39.005288 81.6691239,38.7492683" id="Shape" fill="#030002"></path>
                <path d="M59.6046994,31.9468117 C58.65842,32.377971 57.6629677,32.8047621 56.6106008,33.2286412 C53.2989206,34.5686266 49.7670686,35.7588112 46.0151298,36.8014218 C42.2631059,37.8425764 38.268791,38.7673333 34.0306536,39.5750932 C34.0995636,39.4689735 34.1580946,39.3635391 34.2040347,39.2566486 C34.2508254,39.1505289 34.2966804,39.0444093 34.3434711,38.9375188 L34.3085907,38.9375188 C35.5827458,36.2160936 36.9606063,33.6277676 38.4430228,31.17177 C39.9246736,28.7157724 41.5456759,26.3717186 43.3060296,24.1389234 C49.0726085,16.6764593 54.7576015,12.8273736 60.361774,12.5932936 C60.5716518,12.5867843 60.7790625,12.5838722 60.9841762,12.5845574 L61,12 C60.7893565,12.0022269 60.5763309,12.0087362 60.361774,12.0189285 C50.5431147,12.5932936 41.3493248,21.8000086 32.7809999,39.6390733 L32.7809999,39.7350863 C32.2013899,40.9681813 31.7499866,42.185945 31.4253438,43.3870927 C31.1014666,44.5881547 30.9620301,45.7420239 31.0088209,46.8471586 C31.0317909,47.8468588 31.263788,48.5964627 31.7032809,49.0959702 C32.1435395,49.5961629 32.6994989,49.8877136 33.3702232,49.9735344 C34.0424789,50.0578134 34.7947893,49.9408163 35.6286858,49.6223717 C36.4624973,49.3031562 37.2844834,48.813841 38.0954099,48.154426 C38.3503771,47.9427862 38.6220187,47.6978288 38.9110155,47.4215237 C39.200863,47.1452187 39.438475,46.9002613 39.6237665,46.6879363 C39.8090579,46.4537708 39.8605277,46.321528 39.7797924,46.2888099 C39.698972,46.2575479 39.5659161,46.3258105 39.3806246,46.4966811 C39.1256575,46.7519164 38.8762202,46.9911353 38.6330784,47.2143378 C38.3907873,47.4375402 38.1183799,47.6556037 37.8174728,47.8679286 C37.2615134,48.2511242 36.6652289,48.5637446 36.0277685,48.8087877 C35.3910738,49.0530599 34.8011699,49.1439339 34.2563552,49.0799538 C33.7123062,49.0166589 33.260903,48.7615092 32.9022305,48.3151043 C32.5427073,47.8679286 32.3859157,47.1452187 32.433387,46.1462893 C32.4555914,45.2737785 32.6004726,44.2907799 32.8673501,43.1958375 C33.1334619,42.1008951 33.4628689,41.0532312 33.8571875,40.0535309 C37.3771291,39.4369406 40.8337757,38.6931609 44.2261912,37.821421 C47.6186919,36.9504518 50.9707823,35.928911 54.2832282,34.7597962 C56.6652184,33.9338787 58.819125,33.0934007 60.7466493,32.2369064 C60.3713023,32.1372961 59.9919568,32.0399127 59.6046994,31.9468117" id="Path" fill="#030002"></path>
                <path d="M16.7389142,22.9178561 C16.7389142,21.9126264 16.7389142,21.7274196 16.7243394,21.516064 C16.7098563,21.2912177 16.6510072,21.1852068 16.4095607,21.138572 C16.3515365,21.1258307 16.2269634,21.1194184 16.1245732,21.1194184 C16.044366,21.1194184 16,21.1060109 16,21.0593761 C16,21.0134075 16.0511493,21 16.1612393,21 C16.548617,21 17.0093269,21.0197365 17.2141073,21.0197365 C17.5135779,21.0197365 17.9377134,21 18.2746752,21 C19.1884868,21 19.5170154,21.2778102 19.6338887,21.3767426 C19.7952197,21.516064 20,21.8136107 20,22.1642877 C20,23.1030629 19.2397278,23.7646941 18.2013429,23.7646941 C18.1646768,23.7646941 18.0835529,23.7646941 18.0477118,23.7576156 C18.0110457,23.7512866 17.9598964,23.7442081 17.9598964,23.6982395 C17.9598964,23.6452757 18.0110457,23.6254559 18.1646768,23.6254559 C18.5742375,23.6254559 19.1441208,23.2090738 19.1441208,22.5347013 C19.1441208,22.3162672 19.1219378,21.8729868 18.7132938,21.5422128 C18.4496643,21.324445 18.150102,21.2841392 17.9820794,21.2841392 C17.8719894,21.2841392 17.7627243,21.2912177 17.6970919,21.3110375 C17.6603341,21.324445 17.6381511,21.3640845 17.6381511,21.4368681 L17.6381511,24.0821439 C17.6381511,24.6900618 17.6381511,25.2124548 17.6749089,25.4966773 C17.6970919,25.681884 17.7405413,25.8275345 17.9598964,25.8543495 C18.0622866,25.8670908 18.2227009,25.8804983 18.3326993,25.8804983 C18.4129065,25.8804983 18.4496643,25.9003181 18.4496643,25.9335454 C18.4496643,25.979514 18.3916401,26 18.3105163,26 C17.8284483,26 17.3677384,25.979514 17.1774412,25.979514 C17.0093269,25.979514 16.548617,26 16.2559296,26 C16.1612393,26 16.1099984,25.979514 16.1099984,25.9335454 C16.1099984,25.9003181 16.1390563,25.8804983 16.2269634,25.8804983 C16.3361368,25.8804983 16.4248688,25.8670908 16.4905928,25.8543495 C16.6365241,25.8275345 16.6731902,25.681884 16.7021564,25.490265 C16.7389142,25.2124548 16.7389142,24.6900618 16.7389142,24.0821439 L16.7389142,22.9178561 L16.7389142,22.9178561 Z" id="Path" fill="#030002"></path>
                <path d="M21.6332621,22.9130136 C21.6332621,21.9096975 21.6332621,21.7234714 21.6264499,21.5131834 C21.6118128,21.2875283 21.5552896,21.2179715 21.3556173,21.1553907 C21.3059064,21.1399224 21.1996723,21.1321377 21.1071547,21.1321377 C21.0428987,21.1321377 21,21.1089858 21,21.062682 C21,21.0154683 21.0505395,21 21.1422285,21 C21.4695843,21 21.8681003,21.0154683 21.9956917,21.0154683 C22.2090805,21.0154683 22.7780867,21 22.9708547,21 C23.3684501,21 23.8234893,21.0386202 24.1576573,21.2797436 C24.3358803,21.4119824 24.59898,21.7466233 24.59898,22.1895422 C24.59898,22.6795738 24.3427845,23.1146069 23.7309718,23.6518522 C24.2861693,24.3976666 24.7266635,24.9966839 25.1036381,25.4086663 C25.4524432,25.7897121 25.6726443,25.8214575 25.7720661,25.8446093 C25.8363221,25.8600776 25.871488,25.8600776 25.9220275,25.8600776 C25.9717384,25.8600776 26,25.8986978 26,25.9296344 C26,25.9845317 25.9571013,26 25.8791288,26 L25.2819531,26 C24.933148,26 24.7626579,25.9613798 24.59898,25.8677612 C24.329068,25.7201553 24.0934013,25.4086663 23.7455168,24.8954829 C23.4969621,24.537589 23.2331259,24.0947711 23.1550613,23.9934689 C23.119159,23.9548488 23.0839931,23.9470641 23.0410944,23.9470641 L22.4799131,23.9316969 C22.4507309,23.9316969 22.4302022,23.9470641 22.4302022,23.9856842 L22.4302022,24.0793028 C22.4302022,24.6937884 22.4370144,25.2069719 22.465276,25.4867155 C22.4867253,25.6807263 22.5149869,25.8051804 22.7069264,25.8369258 C22.799536,25.8514841 22.9348603,25.8600776 23.0128328,25.8600776 C23.0625437,25.8600776 23.0908053,25.8986978 23.0908053,25.9296344 C23.0908053,25.976747 23.0410944,26 22.9631218,26 C22.6006923,26 22.0813971,25.976747 21.9888795,25.976747 C21.8681003,25.976747 21.4695843,26 21.2211216,26 C21.1422285,26 21.1002504,25.976747 21.1002504,25.9296344 C21.1002504,25.8986978 21.1208712,25.8600776 21.1996723,25.8600776 C21.2921899,25.8600776 21.3633501,25.8514841 21.4198733,25.8369258 C21.5484774,25.8051804 21.5835512,25.6807263 21.6050006,25.4867155 C21.6332621,25.2069719 21.6332621,24.6860037 21.6332621,24.0793028 L21.6332621,22.9130136 L21.6332621,22.9130136 Z M22.4302022,23.426197 C22.4302022,23.4956527 22.4439187,23.5189057 22.4867253,23.5428664 C22.6221416,23.5892713 22.8063483,23.6046385 22.9631218,23.6046385 C23.2125051,23.6046385 23.2973819,23.5814866 23.403616,23.4956527 C23.596384,23.3480467 23.8097728,23.0606195 23.8097728,22.5164995 C23.8097728,21.5827402 23.2262216,21.3424256 22.8568877,21.3424256 C22.7001142,21.3424256 22.5509813,21.3502103 22.4867253,21.3655775 C22.4439187,21.3810458 22.4302022,21.4041977 22.4302022,21.4582862 L22.4302022,23.426197 Z" id="Shape" fill="#030002"></path>
                <path d="M25,23.5000488 C25,22.41114 25.699192,21 27.5305869,21 C29.0537157,21 30,21.9231565 30,23.3873021 C30,24.8515453 29.0264583,26 27.4694131,26 C25.7132203,26 25,24.6335683 25,23.5000488 M29.1016603,23.6202144 C29.1016603,22.2089768 28.3264672,21.337264 27.3529255,21.337264 C26.6801918,21.337264 25.8917695,21.7284122 25.8917695,23.3044259 C25.8917695,24.618633 26.5776436,25.6544386 27.7157063,25.6544386 C28.1413478,25.6544386 29.1016603,25.4365592 29.1016603,23.6202144" id="Shape" fill="#030002"></path>
                <path d="M30.7913054,22.4270631 C30.7913054,21.6786129 30.7913054,21.5396926 30.7852563,21.3828228 C30.7725128,21.2144893 30.7229907,21.1626016 30.5480502,21.1159178 C30.5044965,21.1043788 30.4114207,21.0985716 30.3302819,21.0985716 C30.2739848,21.0985716 30.2364802,21.0813008 30.2364802,21.0467593 C30.2364802,21.011539 30.2800339,21 30.3610921,21 C30.647901,21 31.0465782,21.011539 31.189902,21.011539 C31.320563,21.011539 31.6696375,21 31.8881316,21 C31.9624955,21 32,21.011539 32,21.0467593 C32,21.0813008 31.9684639,21.0985716 31.9001492,21.0985716 C31.8438521,21.0985716 31.8070734,21.1043788 31.7447272,21.1159178 C31.5953543,21.1389203 31.5510747,21.2086821 31.5390571,21.3828228 C31.5263137,21.5396926 31.5263137,21.6786129 31.5263137,22.4270631 L31.5263137,23.3431679 C31.5263137,23.5525288 31.5450256,23.7900207 31.5450256,24.0397303 C31.5450256,24.3175709 31.5263137,24.6312352 31.4144453,24.9097546 C31.2958019,25.2112765 30.9594709,25.5589544 30.4301327,25.8489374 C30.3610921,25.8841577 30.2739848,25.9245064 30.155422,25.9769975 C30.1186434,25.9942682 30.0683147,26 30.0435537,26 C30.0187926,26 30,25.9769975 30,25.9533161 C30,25.9302382 30.0247611,25.9071602 30.1186434,25.8662081 C30.1929266,25.8316666 30.2739848,25.7740471 30.3798847,25.6754755 C30.7972739,25.2983845 30.7913054,24.811183 30.7913054,23.8419084 L30.7913054,22.4270631 L30.7913054,22.4270631 Z" id="Path" fill="#030002"></path>
                <path d="M33.5736915,22.9406393 C33.5736915,21.9512273 33.5736915,21.7675819 33.5675111,21.5602082 C33.5543151,21.3376802 33.502951,21.2690874 33.3217984,21.2073737 C33.2767817,21.1921198 33.1803174,21.184443 33.0963808,21.184443 C33.0380846,21.184443 33,21.1616119 33,21.1159498 C33,21.0693904 33.0451002,21.0541365 33.1290367,21.0541365 C33.4251949,21.0541365 33.7867483,21.0693904 33.9476893,21.0693904 C34.1287584,21.0693904 35.386637,21.0769676 35.4962973,21.0693904 C35.5996938,21.0617136 35.6898107,21.0388826 35.7357461,21.0313055 C35.7675668,21.0236286 35.799471,21 35.825863,21 C35.8577673,21 35.8639477,21.0313055 35.8639477,21.0617136 C35.8639477,21.1074754 35.8321269,21.184443 35.8188474,21.4832406 C35.812667,21.5526311 35.799471,21.8361748 35.7870267,21.9131423 C35.7800111,21.9436502 35.7675668,22.0206177 35.7224666,22.0206177 C35.6836303,22.0206177 35.6773664,21.9893123 35.6773664,21.9359734 C35.6773664,21.8903113 35.6704343,21.7752587 35.6385301,21.6981915 C35.5934298,21.5831389 35.5483296,21.4908177 35.2646158,21.4604096 C35.1673998,21.4451556 34.4903118,21.4299017 34.3736359,21.4299017 C34.3479955,21.4299017 34.3355512,21.4527327 34.3355512,21.4908177 L34.3355512,23.1013539 C34.3355512,23.1394389 34.3418151,23.1707444 34.3736359,23.1707444 C34.5027561,23.1707444 35.2381403,23.1707444 35.3671771,23.1546928 C35.5032294,23.1394389 35.5864143,23.1242847 35.6385301,23.0556918 C35.6836303,23.0091324 35.7030902,22.9710474 35.7287305,22.9710474 C35.7543708,22.9710474 35.7738307,23.0015553 35.7738307,23.0404379 C35.7738307,23.0785229 35.7605512,23.1859983 35.7287305,23.5152041 C35.715451,23.6456103 35.7030902,23.9062232 35.7030902,23.9527826 C35.7030902,24.0061215 35.6968263,24.098343 35.6447105,24.098343 C35.6066258,24.098343 35.5934298,24.075512 35.5934298,24.0450041 C35.5864143,23.9756136 35.5864143,23.8909693 35.5739699,23.8072222 C35.541314,23.6769157 35.4705735,23.5770174 35.2576002,23.5541864 C35.1542038,23.5381348 34.5096882,23.5228809 34.3674555,23.5228809 C34.3418151,23.5228809 34.3355512,23.5541864 34.3355512,23.5922713 L34.3355512,24.1135969 C34.3355512,24.3362246 34.3286192,24.8879584 34.3355512,25.0800782 C34.3479955,25.5244362 34.5221325,25.6242348 35.1029232,25.6242348 C35.2513363,25.6242348 35.4900334,25.6166577 35.6385301,25.5396901 C35.7800111,25.4635202 35.8445713,25.3255369 35.8834076,25.0563498 C35.8966036,24.9878567 35.9090479,24.9573488 35.9479677,24.9573488 C35.9930679,24.9573488 36,25.0419932 36,25.110586 C36,25.2561464 35.9548998,25.7004048 35.9222439,25.8316085 C35.8834076,26 35.8321269,26 35.6190702,26 C35.1930401,26 34.8510301,25.9924229 34.5742483,25.9763714 C34.2967149,25.9695918 34.0837416,25.961915 33.9157851,25.961915 C33.8512249,25.961915 33.7284521,25.9695918 33.5931514,25.9695918 C33.4578508,25.9763714 33.315618,25.9848458 33.1997773,25.9848458 C33.1290367,25.9848458 33.0893653,25.961915 33.0893653,25.9154553 C33.0893653,25.8849475 33.1095768,25.8468625 33.1803174,25.8468625 C33.2643374,25.8468625 33.328814,25.8383881 33.3801782,25.8240314 C33.4967706,25.792726 33.5285913,25.6699966 33.5480512,25.4786744 C33.5736915,25.2028075 33.5736915,24.689059 33.5736915,24.0907659 L33.5736915,22.9406393 L33.5736915,22.9406393 Z" id="Path" fill="#030002"></path>
                <path d="M37.6514234,21.488577 L36.7825154,21.5113039 C36.4436429,21.5189456 36.3045214,21.5652925 36.2182146,21.7101884 C36.1582721,21.8019888 36.1318219,21.8854528 36.1190261,21.9317004 C36.1054575,21.9847959 36.0918889,22.0151644 36.0527288,22.0151644 C36.0127099,22.0151644 36,21.9772533 36,21.9089736 C36,21.8019888 36.1118983,21.1751652 36.125467,21.1221691 C36.1390356,21.0379111 36.1582721,21 36.1918502,21 C36.2381382,21 36.2981665,21.0538894 36.4436429,21.0766162 C36.6162566,21.099343 36.83533,21.1069848 37.0279531,21.1069848 L39.3964533,21.1069848 C39.5819486,21.1069848 39.7081884,21.0918005 39.7945811,21.0766162 C39.8872429,21.0614319 39.9336167,21.0463468 39.9536262,21.0463468 C39.9935592,21.0463468 40,21.084258 40,21.183601 C40,21.3209543 39.9864314,21.8019888 39.9864314,21.9696116 C39.9799906,22.0378913 39.9664219,22.0765963 39.9336167,22.0765963 C39.8872429,22.0765963 39.8736743,22.046327 39.8673193,21.9468847 L39.8601056,21.8778111 C39.8473099,21.7101884 39.6946198,21.5113039 39.1702521,21.5037613 L38.4340246,21.488577 L38.4340246,24.114567 C38.4340246,24.7101288 38.4412384,25.2215319 38.4676027,25.5037812 C38.4876122,25.6865882 38.5203315,25.8087573 38.693031,25.8399198 C38.772983,25.8542109 38.9048907,25.8626466 38.9911976,25.8626466 C39.0575808,25.8626466 39.0839452,25.9005577 39.0839452,25.9309263 C39.0839452,25.9771739 39.0383443,26 38.9720469,26 C38.5867148,26 38.1958006,25.9771739 38.0295418,25.9771739 C37.8968612,25.9771739 37.4987333,26 37.2669501,26 C37.193439,26 37.1534201,25.9771739 37.1534201,25.9309263 C37.1534201,25.9005577 37.1734295,25.8626466 37.2469406,25.8626466 C37.3333333,25.8626466 37.4060715,25.8542109 37.4524454,25.8399198 C37.5715574,25.8087573 37.6050496,25.6865882 37.625059,25.4961394 C37.6514234,25.2215319 37.6514234,24.7101288 37.6514234,24.114567 L37.6514234,21.488577 L37.6514234,21.488577 Z" id="Path" fill="#030002"></path>
                <path d="M60.137802,31.8348132 C66.4401332,29.0938925 70.6727768,26.2675103 72.3685358,23.2245646 C72.5316487,22.8942741 72.6589417,22.5696367 72.7520392,22.2499873 C72.8451367,21.9295897 72.9151521,21.5943943 72.9620856,21.2436529 C73.2175266,19.0559876 72.1822553,17.1258706 69.8555024,15.4540503 C67.6894688,13.8408394 65.0897497,13.0228861 62.0579694,13.0003569 C61.839887,12.9989436 61.6202659,13.0017701 61.399106,13.0080883 L61.376024,13.8111606 L60.7839275,15.4957004 L61.820823,16.4060152 L60.3987997,18.725032 L59.9141628,19.6600376 L59.9595575,21.717848 C59.9595575,21.717848 58.3234699,23.7094008 58.3210762,24.3169425 C58.3186825,24.9245672 56.6516479,28.6238541 54.96307,29.7720979 C53.2752616,30.9216718 54.3192527,30.8419465 54.3192527,30.8419465 C56.5855649,31.1263471 58.6855156,31.5236434 60.6263713,32 L60.137802,31.8348132 L60.137802,31.8348132 Z" id="Path" fill="#A2C437"></path>
                <path d="M81.0208863,15.7451728 L82.9427762,15.5267682 L83,14.5226334 L80.6856811,11.0878557 L80.7171066,9.96407389 L79.5131551,6.45575863 L78.8926964,5.57279936 L78.0586654,4.9766023 L77.0062143,3.42611632 L76.1746074,2.20935124 L74.7176937,0.732402738 L72.7474104,0.0908603977 L70.4734338,0 L68.4442818,0.361148852 L66.1976618,1.0105884 L64.4353235,1.94628067 L62.8075174,3.47732083 L62.4497169,5.03145821 L60.8493541,6.68282471 L60.2958152,9.8847621 L60.1821467,11.2702558 L60.1579932,12.125872 C60.3416982,12.1172106 60.5254031,12.1107569 60.7067707,12.1085491 C63.9034275,12.0682139 66.7222858,12.990829 69.1647307,14.878008 C71.8046455,16.8596138 73.0060864,19.1150746 72.7700056,21.6452395 C72.6523547,22.4676534 72.3928996,23.24693 71.9931985,23.9850221 C70.2888631,26.8892431 66.089707,29.6471533 60,32.2580736 C66.8133591,34.0370692 71.6185165,36.7791001 74.6564876,39 L77.2923335,37.0069305 L78.3736995,36.402072 L79.5236303,35.9782549 L81.0111903,35.7972984 L79.186001,29.8692094 L77.6316077,25.7842278 L76.1230973,24.0664568 L75.7193273,22.8965655 L76.2946822,21.6776775 L76.9990289,21.0562603 L78.2150138,20.8386199 L79.8403092,20.5481214 L81.0063423,20.0917814 L81.4971168,19.135964 L81.2554088,18.0597353 L80.8258405,17.3937371 L80.8549286,16.8920518 L81.0208863,15.7451728 L81.0208863,15.7451728 Z" id="Path" fill="#A2C437"></path>
            </g>
        </g>
    </g>
</svg>