<?xml version="1.0" encoding="UTF-8" standalone="no"?><!DOCTYPE svg PUBLIC "-//W3C//DTD SVG 1.1//EN" "http://www.w3.org/Graphics/SVG/1.1/DTD/svg11.dtd"><svg width="100%" height="100%" viewBox="0 0 1000 450" version="1.1" xmlns="http://www.w3.org/2000/svg" xmlns:xlink="http://www.w3.org/1999/xlink" xml:space="preserve" xmlns:serif="http://www.serif.com/" style="fill-rule:evenodd;clip-rule:evenodd;stroke-linejoin:round;stroke-miterlimit:2;"><g id="april_logo_for-big-prints_RGB"><g id="g13"><g id="g15"><path id="path21" d="M436.236,322.811c0,2.944 0.735,5.298 2.21,7.061c1.474,1.763 3.412,2.643 5.817,2.643c2.465,-0 4.375,-0.821 5.728,-2.463c1.351,-1.643 2.031,-3.974 2.031,-6.999c0,-3.006 -0.711,-5.354 -2.121,-7.046c-1.415,-1.692 -3.353,-2.539 -5.818,-2.539c-2.467,-0 -4.392,0.82 -5.774,2.462c-1.384,1.644 -2.073,3.937 -2.073,6.881m-6.322,27.754l0,-41.945l6.534,0l-0,4.698c0.759,-1.809 1.978,-3.202 3.654,-4.187c1.673,-0.982 3.675,-1.475 6.001,-1.475c3.791,0 6.865,1.4 9.224,4.197c2.357,2.794 3.536,6.467 3.536,11.019c0,4.791 -1.159,8.564 -3.476,11.319c-2.317,2.758 -5.49,4.135 -9.524,4.135c-2.004,0 -3.787,-0.403 -5.34,-1.204c-1.556,-0.803 -2.914,-2.028 -4.075,-3.674l-0,17.117l-6.534,-0Z" style="fill:#C9C7C7;fill-rule:nonzero;"/><path id="path23" d="M466.884,313.21c0.702,-1.89 1.628,-3.289 2.779,-4.194c1.153,-0.904 2.579,-1.36 4.284,-1.36c0.922,0 1.829,0.11 2.72,0.333c0.891,0.217 1.769,0.539 2.628,0.959l-2.342,5.554c-0.561,-0.401 -1.168,-0.695 -1.817,-0.887c-0.654,-0.189 -1.38,-0.284 -2.181,-0.284c-2.163,0 -3.717,0.865 -4.658,2.599c-0.942,1.732 -1.413,4.643 -1.413,8.727l0,12.501l-6.533,-0l-0,-28.573l6.533,-0l0,4.625Z" style="fill:#C9C7C7;fill-rule:nonzero;"/><path id="path25" d="M500.064,322.991c0,-2.64 -0.855,-4.878 -2.563,-6.709c-1.71,-1.831 -3.8,-2.746 -6.273,-2.746c-2.452,-0 -4.538,0.915 -6.259,2.746c-1.718,1.831 -2.578,4.069 -2.578,6.709c-0,2.641 0.86,4.879 2.578,6.709c1.721,1.831 3.807,2.746 6.259,2.746c2.451,0 4.539,-0.915 6.258,-2.746c1.718,-1.83 2.578,-4.068 2.578,-6.709m-24.55,-0.059c0,-2.084 0.396,-4.053 1.191,-5.911c0.792,-1.85 1.929,-3.501 3.415,-4.944c1.465,-1.421 3.151,-2.515 5.058,-3.276c1.904,-0.764 3.904,-1.145 5.99,-1.145c2.146,0 4.168,0.381 6.067,1.145c1.894,0.761 3.593,1.883 5.1,3.366c1.505,1.464 2.647,3.118 3.433,4.962c0.781,1.844 1.173,3.778 1.173,5.803c-0,2.106 -0.387,4.077 -1.16,5.921c-0.772,1.846 -1.901,3.479 -3.386,4.903c-1.567,1.503 -3.301,2.64 -5.209,3.413c-1.905,0.77 -3.91,1.157 -6.018,1.157c-2.068,0 -4.055,-0.387 -5.959,-1.157c-1.907,-0.773 -3.604,-1.891 -5.089,-3.354c-1.503,-1.483 -2.65,-3.146 -3.431,-4.99c-0.783,-1.844 -1.175,-3.809 -1.175,-5.893" style="fill:#C9C7C7;fill-rule:nonzero;"/><path id="path27" d="M514.944,337.158l-6.531,-0l-0,-28.538l6.141,0l0,4.685c1.301,-1.985 2.78,-3.435 4.434,-4.348c1.653,-0.913 3.602,-1.369 5.847,-1.369c2.225,0 4.068,0.467 5.532,1.4c1.463,0.933 2.574,2.352 3.338,4.257c1.501,-1.965 3.102,-3.399 4.797,-4.304c1.692,-0.902 3.624,-1.353 5.789,-1.353c1.886,0 3.53,0.346 4.934,1.039c1.403,0.691 2.495,1.698 3.278,3.023c0.361,0.621 0.627,1.362 0.797,2.227c0.169,0.86 0.255,2.095 0.255,3.699l0,19.582l-6.531,-0l0,-14.649c0,-3.831 -0.407,-6.35 -1.219,-7.565c-0.81,-1.214 -2.26,-1.82 -4.344,-1.82c-2.565,0 -4.394,0.817 -5.487,2.452c-1.092,1.632 -1.638,4.497 -1.638,8.586l0,12.996l-6.601,-0l0,-14.649c0,-3.529 -0.425,-5.976 -1.276,-7.338c-0.852,-1.364 -2.317,-2.047 -4.399,-2.047c-1.281,0 -2.451,0.293 -3.514,0.872c-1.058,0.581 -1.899,1.384 -2.52,2.407c-0.402,0.662 -0.682,1.474 -0.84,2.438c-0.161,0.962 -0.242,2.735 -0.242,5.321l-0,12.996Z" style="fill:#C9C7C7;fill-rule:nonzero;"/><path id="path29" d="M579.353,322.991c0,-2.64 -0.856,-4.878 -2.564,-6.709c-1.707,-1.831 -3.8,-2.746 -6.273,-2.746c-2.451,-0 -4.537,0.915 -6.256,2.746c-1.721,1.831 -2.579,4.069 -2.579,6.709c0,2.641 0.858,4.879 2.579,6.709c1.719,1.831 3.805,2.746 6.256,2.746c2.454,0 4.54,-0.915 6.258,-2.746c1.719,-1.83 2.579,-4.068 2.579,-6.709m-24.548,-0.059c-0,-2.084 0.394,-4.053 1.188,-5.911c0.792,-1.85 1.932,-3.501 3.415,-4.944c1.466,-1.421 3.151,-2.515 5.059,-3.276c1.906,-0.764 3.904,-1.145 5.99,-1.145c2.147,0 4.167,0.381 6.066,1.145c1.895,0.761 3.596,1.883 5.101,3.366c1.505,1.464 2.647,3.118 3.433,4.962c0.781,1.844 1.172,3.778 1.172,5.803c0,2.106 -0.387,4.077 -1.157,5.921c-0.775,1.846 -1.903,3.479 -3.387,4.903c-1.566,1.503 -3.3,2.64 -5.21,3.413c-1.906,0.77 -3.91,1.157 -6.018,1.157c-2.067,0 -4.056,-0.387 -5.959,-1.157c-1.908,-0.773 -3.604,-1.891 -5.09,-3.354c-1.503,-1.483 -2.649,-3.146 -3.43,-4.99c-0.784,-1.844 -1.173,-3.809 -1.173,-5.893" style="fill:#C9C7C7;fill-rule:nonzero;"/><path id="path31" d="M594.028,308.62l-0,16.066c-0,2.768 0.572,4.752 1.712,5.956c1.142,1.204 2.995,1.804 5.56,1.804c2.564,0 4.417,-0.6 5.559,-1.804c1.139,-1.204 1.711,-3.188 1.711,-5.956l0,-16.066l6.534,0l-0,14.109c-0,5.462 -1.092,9.425 -3.279,11.894c-2.183,2.469 -5.673,3.703 -10.465,3.703c-4.874,0 -8.402,-1.226 -10.587,-3.672c-2.187,-2.45 -3.278,-6.424 -3.278,-11.925l-0,-14.109l6.533,0Z" style="fill:#C9C7C7;fill-rule:nonzero;"/><path id="path33" d="M628.537,338.876l-14.954,-30.256l7.127,0l6.232,14.358c0.2,0.444 0.44,1.105 0.722,1.989c0.281,0.883 0.572,1.937 0.873,3.16c0.201,-0.863 0.436,-1.721 0.707,-2.575c0.27,-0.851 0.596,-1.709 0.979,-2.574l6.201,-14.358l7.105,0l-14.992,30.256Z" style="fill:#C9C7C7;fill-rule:nonzero;"/><path id="path35" d="M664.622,322.991c0,-2.64 -0.856,-4.878 -2.565,-6.709c-1.708,-1.831 -3.801,-2.746 -6.272,-2.746c-2.453,-0 -4.539,0.915 -6.258,2.746c-1.72,1.831 -2.576,4.069 -2.576,6.709c-0,2.641 0.856,4.879 2.576,6.709c1.719,1.831 3.805,2.746 6.258,2.746c2.454,0 4.54,-0.915 6.258,-2.746c1.719,-1.83 2.579,-4.068 2.579,-6.709m-24.548,-0.059c0,-2.084 0.394,-4.053 1.188,-5.911c0.793,-1.85 1.932,-3.501 3.416,-4.944c1.463,-1.421 3.151,-2.515 5.056,-3.276c1.906,-0.764 3.904,-1.145 5.992,-1.145c2.145,0 4.168,0.381 6.064,1.145c1.895,0.761 3.598,1.883 5.101,3.366c1.507,1.464 2.649,3.118 3.433,4.962c0.781,1.844 1.175,3.778 1.175,5.803c-0,2.106 -0.388,4.077 -1.16,5.921c-0.772,1.846 -1.903,3.479 -3.386,4.903c-1.565,1.503 -3.301,2.64 -5.209,3.413c-1.905,0.77 -3.912,1.157 -6.018,1.157c-2.068,0 -4.055,-0.387 -5.961,-1.157c-1.906,-0.773 -3.602,-1.891 -5.087,-3.354c-1.506,-1.483 -2.65,-3.146 -3.431,-4.99c-0.783,-1.844 -1.173,-3.809 -1.173,-5.893" style="fill:#C9C7C7;fill-rule:nonzero;"/><path id="path37" d="M673.279,308.62l6.533,0l-0,28.538l-6.533,-0l-0,-28.538Zm-0.86,-12.338c-0,-1.102 0.407,-2.055 1.221,-2.858c0.812,-0.803 1.778,-1.204 2.9,-1.204c1.164,0 2.132,0.387 2.905,1.158c0.772,0.772 1.157,1.74 1.157,2.904c-0,1.164 -0.392,2.139 -1.175,2.933c-0.781,0.793 -1.745,1.189 -2.887,1.189c-1.122,-0 -2.088,-0.407 -2.9,-1.219c-0.814,-0.812 -1.221,-1.781 -1.221,-2.903" style="fill:#C9C7C7;fill-rule:nonzero;"/><path id="path39" d="M690.238,313.21c0.699,-1.89 1.628,-3.289 2.779,-4.194c1.153,-0.904 2.579,-1.36 4.282,-1.36c0.922,0 1.828,0.11 2.72,0.333c0.891,0.217 1.769,0.539 2.629,0.959l-2.343,5.554c-0.561,-0.401 -1.169,-0.695 -1.818,-0.887c-0.651,-0.189 -1.377,-0.284 -2.18,-0.284c-2.164,0 -3.715,0.865 -4.659,2.599c-0.942,1.732 -1.41,4.643 -1.41,8.727l-0,12.501l-6.533,-0l-0,-28.573l6.533,-0l-0,4.625Z" style="fill:#C9C7C7;fill-rule:nonzero;"/><path id="path41" d="M734.834,319.484c-0.262,-2.045 -1.043,-3.607 -2.346,-4.678c-1.302,-1.076 -3.087,-1.613 -5.351,-1.613c-2.146,-0 -3.868,0.521 -5.171,1.564c-1.301,1.045 -2.212,2.621 -2.735,4.727l15.603,-0Zm6.773,4.401l-22.794,-0c0.158,2.66 0.95,4.735 2.374,6.225c1.421,1.489 3.316,2.233 5.681,2.233c2.104,0 3.858,-0.438 5.262,-1.316c1.401,-0.88 2.623,-2.297 3.668,-4.253l5.501,3.056c-1.606,2.861 -3.589,4.993 -5.954,6.395c-2.368,1.401 -5.143,2.101 -8.334,2.101c-4.57,0 -8.207,-1.393 -10.916,-4.179c-2.704,-2.785 -4.055,-6.504 -4.055,-11.156c-0,-4.469 1.397,-8.144 4.194,-11.02c2.796,-2.873 6.392,-4.315 10.782,-4.315c4.594,0 8.172,1.316 10.74,3.946c2.566,2.629 3.851,6.313 3.851,11.048l0,1.235Z" style="fill:#C9C7C7;fill-rule:nonzero;"/><path id="path43" d="M744.525,337.158l-0,-22.83l-4.984,0l-0,-5.708l4.984,0l-0,-10.795l6.533,-0l-0,10.795l4.986,0l0,5.708l-4.986,0l-0,22.83l-6.533,-0Z" style="fill:#C9C7C7;fill-rule:nonzero;"/><path id="path45" d="M789.909,322.811c-0,-2.944 -0.687,-5.237 -2.058,-6.881c-1.375,-1.642 -3.294,-2.462 -5.758,-2.462c-2.467,-0 -4.405,0.847 -5.82,2.539c-1.411,1.692 -2.119,4.04 -2.119,7.046c-0,3.025 0.682,5.356 2.046,6.999c1.362,1.642 3.285,2.463 5.772,2.463c2.363,-0 4.28,-0.885 5.741,-2.658c1.465,-1.772 2.196,-4.122 2.196,-7.046m-0.181,-32.276l6.534,-0l-0,46.623l-6.534,-0l0,-3.708c-1.164,1.646 -2.521,2.869 -4.077,3.672c-1.553,0.801 -3.334,1.204 -5.34,1.204c-4.032,0 -7.207,-1.377 -9.524,-4.135c-2.317,-2.755 -3.474,-6.528 -3.474,-11.319c-0,-4.552 1.183,-8.225 3.549,-11.019c2.368,-2.797 5.459,-4.197 9.268,-4.197c2.328,0 4.317,0.487 5.974,1.464c1.655,0.97 2.863,2.372 3.624,4.198l0,-22.783Z" style="fill:#C9C7C7;fill-rule:nonzero;"/><path id="path47" d="M808.514,304.287l5.712,-8.183l6.766,-0l-8.782,8.183l-3.696,0Zm12.032,15.197c-0.26,-2.045 -1.041,-3.607 -2.344,-4.678c-1.302,-1.076 -3.087,-1.613 -5.351,-1.613c-2.144,-0 -3.869,0.521 -5.169,1.564c-1.303,1.045 -2.216,2.621 -2.737,4.727l15.601,-0Zm6.773,4.401l-22.795,-0c0.161,2.66 0.953,4.735 2.375,6.225c1.423,1.489 3.318,2.233 5.681,2.233c2.104,0 3.857,-0.438 5.261,-1.316c1.402,-0.88 2.625,-2.297 3.668,-4.253l5.502,3.056c-1.607,2.861 -3.589,4.993 -5.955,6.395c-2.365,1.401 -5.142,2.101 -8.329,2.101c-4.572,0 -8.209,-1.393 -10.916,-4.179c-2.709,-2.785 -4.06,-6.504 -4.06,-11.156c0,-4.469 1.4,-8.144 4.197,-11.02c2.798,-2.873 6.39,-4.315 10.784,-4.315c4.59,0 8.17,1.316 10.736,3.946c2.568,2.629 3.851,6.313 3.851,11.048l-0,1.235Z" style="fill:#C9C7C7;fill-rule:nonzero;"/><path id="path49" d="M829.62,337.158l0,-22.83l-5.01,0l-0,-5.708l5.01,0l0,-7.631c0,-3.791 0.79,-6.593 2.366,-8.397c1.575,-1.806 4.022,-2.711 7.336,-2.711c0.704,0 1.426,0.053 2.17,0.152c0.743,0.101 1.496,0.262 2.26,0.482l-0,5.908c-0.522,-0.301 -1.05,-0.526 -1.585,-0.678c-0.532,-0.149 -1.069,-0.224 -1.611,-0.224c-1.568,-0 -2.695,0.482 -3.377,1.441c-0.685,0.964 -1.026,2.586 -1.026,4.868l0,6.79l6.875,0l-0,5.708l-6.875,0l0,22.83l-6.533,-0Z" style="fill:#C9C7C7;fill-rule:nonzero;"/><path id="path51" d="M862.832,319.484c-0.26,-2.045 -1.043,-3.607 -2.344,-4.678c-1.303,-1.076 -3.087,-1.613 -5.351,-1.613c-2.146,-0 -3.869,0.521 -5.171,1.564c-1.301,1.045 -2.214,2.621 -2.736,4.727l15.602,-0Zm6.773,4.401l-22.795,-0c0.161,2.66 0.951,4.735 2.374,6.225c1.422,1.489 3.319,2.233 5.682,2.233c2.104,0 3.857,-0.438 5.261,-1.316c1.402,-0.88 2.625,-2.297 3.668,-4.253l5.501,3.056c-1.606,2.861 -3.588,4.993 -5.954,6.395c-2.368,1.401 -5.142,2.101 -8.331,2.101c-4.57,0 -8.207,-1.393 -10.916,-4.179c-2.707,-2.785 -4.058,-6.504 -4.058,-11.156c0,-4.469 1.397,-8.144 4.196,-11.02c2.797,-2.873 6.391,-4.315 10.783,-4.315c4.592,0 8.172,1.316 10.738,3.946c2.568,2.629 3.851,6.313 3.851,11.048l-0,1.235Z" style="fill:#C9C7C7;fill-rule:nonzero;"/><path id="path53" d="M870.978,337.158l-0,-28.538l6.141,0l0,4.694c1.305,-1.965 2.839,-3.4 4.606,-4.302c1.764,-0.902 3.912,-1.356 6.44,-1.356c2.128,0 3.937,0.337 5.433,1.008c1.494,0.673 2.663,1.67 3.505,2.995c0.502,0.781 0.863,1.692 1.083,2.735c0.22,1.043 0.332,2.867 0.332,5.473l0,17.291l-6.601,-0l-0,-14.644c-0,-3.75 -0.455,-6.241 -1.369,-7.473c-0.911,-1.232 -2.532,-1.848 -4.856,-1.848c-1.525,-0 -2.883,0.281 -4.077,0.842c-1.193,0.561 -2.13,1.354 -2.81,2.375c-0.482,0.682 -0.817,1.56 -1.008,2.631c-0.192,1.074 -0.286,2.782 -0.286,5.125l-0,12.992l-6.533,-0Z" style="fill:#C9C7C7;fill-rule:nonzero;"/><path id="path55" d="M922.276,322.811c0,-2.944 -0.688,-5.237 -2.059,-6.881c-1.375,-1.642 -3.294,-2.462 -5.759,-2.462c-2.466,-0 -4.405,0.847 -5.82,2.539c-1.41,1.692 -2.117,4.04 -2.117,7.046c0,3.025 0.68,5.356 2.045,6.999c1.362,1.642 3.285,2.463 5.771,2.463c2.366,-0 4.282,-0.885 5.743,-2.658c1.466,-1.772 2.196,-4.122 2.196,-7.046m-0.18,-32.276l6.531,-0l-0,46.623l-6.531,-0l0,-3.708c-1.166,1.646 -2.524,2.869 -4.08,3.672c-1.553,0.801 -3.331,1.204 -5.34,1.204c-4.031,0 -7.206,-1.377 -9.524,-4.135c-2.314,-2.755 -3.474,-6.528 -3.474,-11.319c-0,-4.552 1.184,-8.225 3.549,-11.019c2.37,-2.797 5.46,-4.197 9.269,-4.197c2.328,0 4.317,0.487 5.974,1.464c1.654,0.97 2.863,2.372 3.626,4.198l0,-22.783Z" style="fill:#C9C7C7;fill-rule:nonzero;"/><path id="path57" d="M938.747,313.21c0.7,-1.89 1.626,-3.289 2.779,-4.194c1.151,-0.904 2.581,-1.36 4.284,-1.36c0.92,0 1.827,0.11 2.718,0.333c0.893,0.217 1.769,0.539 2.631,0.959l-2.345,5.554c-0.561,-0.401 -1.166,-0.695 -1.818,-0.887c-0.651,-0.189 -1.377,-0.284 -2.178,-0.284c-2.165,0 -3.719,0.865 -4.659,2.599c-0.941,1.732 -1.412,4.643 -1.412,8.727l-0,12.501l-6.533,-0l-0,-28.573l6.533,-0l-0,4.625Z" style="fill:#C9C7C7;fill-rule:nonzero;"/><path id="path59" d="M970.174,319.484c-0.26,-2.045 -1.041,-3.607 -2.344,-4.678c-1.305,-1.076 -3.087,-1.613 -5.351,-1.613c-2.144,-0 -3.869,0.521 -5.169,1.564c-1.305,1.045 -2.216,2.621 -2.738,4.727l15.602,-0Zm6.772,4.401l-22.794,-0c0.159,2.66 0.953,4.735 2.374,6.225c1.424,1.489 3.319,2.233 5.682,2.233c2.104,0 3.857,-0.438 5.261,-1.316c1.402,-0.88 2.625,-2.297 3.668,-4.253l5.501,3.056c-1.604,2.861 -3.589,4.993 -5.954,6.395c-2.365,1.401 -5.142,2.101 -8.329,2.101c-4.572,0 -8.212,-1.393 -10.916,-4.179c-2.707,-2.785 -4.06,-6.504 -4.06,-11.156c0,-4.469 1.4,-8.144 4.196,-11.02c2.797,-2.873 6.39,-4.315 10.785,-4.315c4.59,0 8.17,1.316 10.736,3.946c2.568,2.629 3.85,6.313 3.85,11.048l0,1.235Z" style="fill:#C9C7C7;fill-rule:nonzero;"/><rect id="path61" x="430.222" y="356.548" width="6.533" height="46.623" style="fill:#C9C7C7;fill-rule:nonzero;"/><path id="path63" d="M461.343,385.497c-0.259,-2.044 -1.04,-3.607 -2.343,-4.678c-1.303,-1.076 -3.087,-1.613 -5.352,-1.613c-2.145,-0 -3.868,0.521 -5.171,1.564c-1.3,1.046 -2.211,2.621 -2.735,4.727l15.601,-0Zm6.773,4.401l-22.794,-0c0.161,2.66 0.953,4.735 2.376,6.225c1.422,1.49 3.316,2.233 5.682,2.233c2.104,0 3.857,-0.438 5.261,-1.316c1.4,-0.88 2.625,-2.297 3.666,-4.253l5.501,3.056c-1.604,2.861 -3.589,4.993 -5.954,6.395c-2.366,1.402 -5.14,2.101 -8.329,2.101c-4.572,0 -8.21,-1.393 -10.916,-4.178c-2.707,-2.786 -4.06,-6.505 -4.06,-11.157c-0,-4.469 1.397,-8.143 4.196,-11.019c2.797,-2.874 6.392,-4.315 10.785,-4.315c4.59,-0 8.17,1.315 10.738,3.945c2.565,2.629 3.848,6.313 3.848,11.048l0,1.235Z" style="fill:#C9C7C7;fill-rule:nonzero;"/><rect id="path65" x="482.969" y="356.548" width="6.533" height="46.623" style="fill:#C9C7C7;fill-rule:nonzero;"/><path id="path67" d="M515.846,389.004c0,-2.64 -0.856,-4.878 -2.563,-6.709c-1.71,-1.83 -3.801,-2.746 -6.274,-2.746c-2.451,0 -4.539,0.916 -6.258,2.746c-1.719,1.831 -2.579,4.069 -2.579,6.709c0,2.641 0.86,4.879 2.579,6.71c1.719,1.83 3.807,2.746 6.258,2.746c2.451,-0 4.537,-0.916 6.258,-2.746c1.719,-1.831 2.579,-4.069 2.579,-6.71m-24.55,-0.059c-0,-2.084 0.396,-4.053 1.188,-5.91c0.794,-1.851 1.932,-3.501 3.417,-4.945c1.466,-1.421 3.151,-2.515 5.059,-3.276c1.903,-0.764 3.901,-1.144 5.99,-1.144c2.145,-0 4.167,0.38 6.064,1.144c1.897,0.761 3.596,1.883 5.103,3.366c1.503,1.464 2.647,3.118 3.43,4.962c0.784,1.844 1.175,3.779 1.175,5.803c0,2.106 -0.387,4.077 -1.159,5.921c-0.773,1.847 -1.901,3.479 -3.387,4.903c-1.566,1.503 -3.3,2.641 -5.208,3.413c-1.906,0.77 -3.91,1.157 -6.018,1.157c-2.069,0 -4.056,-0.387 -5.959,-1.157c-1.91,-0.772 -3.604,-1.89 -5.09,-3.354c-1.503,-1.483 -2.649,-3.146 -3.43,-4.99c-0.784,-1.844 -1.175,-3.809 -1.175,-5.893" style="fill:#C9C7C7;fill-rule:nonzero;"/><path id="path69" d="M544.694,388.824c-0,-2.944 -0.689,-5.237 -2.06,-6.881c-1.375,-1.641 -3.294,-2.462 -5.758,-2.462c-2.467,-0 -4.406,0.847 -5.818,2.539c-1.413,1.692 -2.119,4.04 -2.119,7.046c-0,3.026 0.68,5.356 2.044,7c1.364,1.641 3.287,2.462 5.774,2.462c2.343,-0 4.253,-0.891 5.728,-2.671c1.472,-1.785 2.209,-4.126 2.209,-7.033m6.353,12.565c-0,5.573 -1.114,9.501 -3.341,11.776c-2.229,2.276 -5.978,3.413 -11.255,3.413c-3.93,0 -7.07,-0.825 -9.416,-2.478c-2.35,-1.652 -3.542,-3.85 -3.582,-6.599l7.019,-0.028c0.099,1.219 0.672,2.145 1.712,2.783c1.043,0.638 2.507,0.96 4.392,0.96c2.784,-0 4.791,-0.61 6.012,-1.831c1.226,-1.224 1.844,-3.266 1.866,-6.128l0.059,-3.796c-1.164,1.646 -2.523,2.872 -4.079,3.675c-1.554,0.801 -3.332,1.203 -5.338,1.203c-4.032,0 -7.209,-1.377 -9.524,-4.134c-2.317,-2.755 -3.477,-6.529 -3.477,-11.319c0,-4.553 1.186,-8.226 3.552,-11.02c2.368,-2.797 5.457,-4.196 9.268,-4.196c2.326,-0 4.317,0.486 5.972,1.463c1.655,0.97 2.863,2.372 3.626,4.198l0,-4.698l6.534,0l-0,26.756Z" style="fill:#C9C7C7;fill-rule:nonzero;"/><path id="path71" d="M554.939,374.633l6.533,0l0,28.538l-6.533,-0l0,-28.538Zm-0.858,-12.338c-0,-1.102 0.407,-2.055 1.219,-2.858c0.812,-0.803 1.78,-1.204 2.902,-1.204c1.164,0 2.13,0.388 2.905,1.158c0.772,0.772 1.155,1.74 1.155,2.904c0,1.165 -0.389,2.139 -1.173,2.934c-0.781,0.792 -1.745,1.188 -2.887,1.188c-1.122,-0 -2.09,-0.407 -2.902,-1.219c-0.812,-0.812 -1.219,-1.78 -1.219,-2.903" style="fill:#C9C7C7;fill-rule:nonzero;"/><path id="path73" d="M586.683,382.782c-1.006,-1.105 -2.172,-1.948 -3.508,-2.531c-1.333,-0.581 -2.775,-0.873 -4.319,-0.873c-2.667,-0 -4.804,0.862 -6.408,2.587c-1.604,1.723 -2.407,4.009 -2.407,6.857c-0,2.968 0.807,5.298 2.422,6.993c1.613,1.694 3.847,2.541 6.694,2.541c1.587,0 2.999,-0.297 4.245,-0.884c1.243,-0.594 2.334,-1.488 3.281,-2.691l-0,7.494c-1.206,0.689 -2.496,1.204 -3.869,1.549c-1.375,0.344 -2.834,0.515 -4.379,0.515c-4.473,0 -8.119,-1.423 -10.94,-4.269c-2.819,-2.845 -4.227,-6.535 -4.227,-11.066c-0,-4.59 1.459,-8.293 4.379,-11.11c2.92,-2.814 6.735,-4.224 11.451,-4.224c1.485,-0 2.849,0.147 4.093,0.44c1.245,0.292 2.407,0.743 3.492,1.349l-0,7.323Z" style="fill:#C9C7C7;fill-rule:nonzero;"/><path id="path75" d="M588.23,374.633l6.533,0l-0,28.538l-6.533,-0l-0,-28.538Zm-0.861,-12.338c0,-1.102 0.41,-2.055 1.221,-2.858c0.812,-0.803 1.781,-1.204 2.903,-1.204c1.164,0 2.13,0.388 2.904,1.158c0.771,0.772 1.156,1.74 1.156,2.904c-0,1.165 -0.39,2.139 -1.173,2.934c-0.781,0.792 -1.745,1.188 -2.887,1.188c-1.122,-0 -2.091,-0.407 -2.903,-1.219c-0.811,-0.812 -1.221,-1.78 -1.221,-2.903" style="fill:#C9C7C7;fill-rule:nonzero;"/><path id="path77" d="M619.355,385.497c-0.262,-2.044 -1.045,-3.607 -2.348,-4.678c-1.303,-1.076 -3.085,-1.613 -5.349,-1.613c-2.146,-0 -3.869,0.521 -5.171,1.564c-1.303,1.046 -2.214,2.621 -2.735,4.727l15.603,-0Zm6.773,4.401l-22.797,-0c0.161,2.66 0.951,4.735 2.375,6.225c1.423,1.49 3.316,2.233 5.683,2.233c2.104,0 3.855,-0.438 5.259,-1.316c1.404,-0.88 2.625,-2.297 3.668,-4.253l5.502,3.056c-1.605,2.861 -3.589,4.993 -5.955,6.395c-2.365,1.402 -5.142,2.101 -8.331,2.101c-4.57,0 -8.21,-1.393 -10.916,-4.178c-2.704,-2.786 -4.058,-6.505 -4.058,-11.157c0,-4.469 1.398,-8.143 4.197,-11.019c2.796,-2.874 6.392,-4.315 10.782,-4.315c4.594,-0 8.172,1.315 10.74,3.945c2.566,2.629 3.851,6.313 3.851,11.048l-0,1.235Z" style="fill:#C9C7C7;fill-rule:nonzero;"/><rect id="path79" x="627.807" y="356.548" width="6.533" height="46.623" style="fill:#C9C7C7;fill-rule:nonzero;"/><rect id="path81" x="651.712" y="356.548" width="6.533" height="46.623" style="fill:#C9C7C7;fill-rule:nonzero;"/><path id="path83" d="M662.446,374.633l6.533,0l0,28.538l-6.533,-0l0,-28.538Zm-0.86,-12.338c-0,-1.102 0.407,-2.055 1.219,-2.858c0.812,-0.803 1.778,-1.204 2.902,-1.204c1.162,0 2.13,0.388 2.903,1.158c0.772,0.772 1.159,1.74 1.159,2.904c0,1.165 -0.392,2.139 -1.173,2.934c-0.783,0.792 -1.745,1.188 -2.889,1.188c-1.124,-0 -2.09,-0.407 -2.902,-1.219c-0.812,-0.812 -1.219,-1.78 -1.219,-2.903" style="fill:#C9C7C7;fill-rule:nonzero;"/><path id="path85" d="M679.191,388.824c0,2.907 0.746,5.248 2.241,7.033c1.491,1.78 3.421,2.671 5.787,2.671c2.466,-0 4.376,-0.821 5.73,-2.462c1.351,-1.644 2.028,-3.974 2.028,-7c0,-3.006 -0.706,-5.354 -2.119,-7.046c-1.414,-1.692 -3.353,-2.539 -5.82,-2.539c-2.466,-0 -4.39,0.821 -5.772,2.462c-1.384,1.644 -2.075,3.937 -2.075,6.881m0.212,-32.276l-0,22.783c0.759,-1.806 1.98,-3.201 3.655,-4.187c1.676,-0.982 3.677,-1.474 6.002,-1.474c3.792,-0 6.866,1.399 9.223,4.196c2.358,2.794 3.536,6.467 3.536,11.02c-0,4.79 -1.158,8.564 -3.475,11.319c-2.319,2.757 -5.492,4.134 -9.523,4.134c-2.007,0 -3.787,-0.402 -5.343,-1.203c-1.554,-0.803 -2.911,-2.027 -4.075,-3.673l-0,3.708l-6.533,-0l-0,-46.623l6.533,-0Z" style="fill:#C9C7C7;fill-rule:nonzero;"/><path id="path87" d="M709.841,379.223c0.7,-1.89 1.627,-3.289 2.777,-4.194c1.153,-0.904 2.582,-1.359 4.287,-1.359c0.92,-0 1.826,0.11 2.717,0.332c0.892,0.218 1.77,0.539 2.63,0.959l-2.344,5.554c-0.561,-0.4 -1.166,-0.695 -1.817,-0.887c-0.651,-0.189 -1.378,-0.283 -2.179,-0.283c-2.165,-0 -3.718,0.864 -4.66,2.598c-0.94,1.732 -1.411,4.643 -1.411,8.727l0,12.501l-6.533,-0l0,-28.573l6.533,0l0,4.625Z" style="fill:#C9C7C7;fill-rule:nonzero;"/><path id="path89" d="M741.268,385.497c-0.26,-2.044 -1.043,-3.607 -2.343,-4.678c-1.305,-1.076 -3.09,-1.613 -5.352,-1.613c-2.145,-0 -3.868,0.521 -5.171,1.564c-1.305,1.046 -2.216,2.621 -2.735,4.727l15.601,-0Zm6.773,4.401l-22.794,-0c0.158,2.66 0.95,4.735 2.374,6.225c1.421,1.49 3.318,2.233 5.682,2.233c2.103,0 3.857,-0.438 5.259,-1.316c1.403,-0.88 2.627,-2.297 3.668,-4.253l5.501,3.056c-1.602,2.861 -3.587,4.993 -5.955,6.395c-2.365,1.402 -5.142,2.101 -8.328,2.101c-4.571,0 -8.21,-1.393 -10.917,-4.178c-2.704,-2.786 -4.057,-6.505 -4.057,-11.157c-0,-4.469 1.397,-8.143 4.196,-11.019c2.795,-2.874 6.39,-4.315 10.782,-4.315c4.592,-0 8.173,1.315 10.738,3.945c2.568,2.629 3.851,6.313 3.851,11.048l0,1.235Z" style="fill:#C9C7C7;fill-rule:nonzero;"/><path id="path91" d="M859.089,172.822c-5.389,-36.028 -36.902,-66.832 -86.379,-90.016l0,39.683c39.34,22.319 63.342,50.045 65.837,81.042c1.908,23.743 -9.017,46.934 -30.146,68.326c36.856,-30.867 55.779,-64.99 50.688,-99.035m-776.486,71.358c-3.36,-41.81 33.035,-81.902 95.022,-113.474l18.77,-40.282c-112.254,42.412 -181.746,104.297 -172.524,165.955c12.8,85.567 172.876,141.704 371.463,136.159l0,-10.958c-172.721,-5.629 -306.651,-61.806 -312.731,-137.4" style="fill:#C9C7C7;fill-rule:nonzero;"/><path id="path93" d="M639.579,82.505c0,-5.561 2.047,-10.362 6.142,-14.411c4.095,-4.044 8.973,-6.066 14.637,-6.066c5.862,-0 10.745,1.945 14.639,5.84c3.893,3.892 5.84,8.775 5.84,14.637c0,5.866 -1.971,10.795 -5.917,14.789c-3.945,3.996 -8.797,5.992 -14.562,5.992c-5.664,-0 -10.542,-2.047 -14.637,-6.142c-4.095,-4.097 -6.142,-8.975 -6.142,-14.639" style="fill:#C9C7C7;fill-rule:nonzero;"/><rect id="path95" x="717.882" y="33.422" width="33.007" height="235.722" style="fill:#C9C7C7;fill-rule:nonzero;"/><rect id="path97" x="643.98" y="125.015" width="33.007" height="144.129" style="fill:#C9C7C7;fill-rule:nonzero;"/><path id="path99" d="M568.696,147.792c3.543,-9.537 8.226,-16.589 14.046,-21.153c5.82,-4.564 13.035,-6.85 21.639,-6.85c4.654,0 9.235,0.579 13.739,1.732c4.505,1.151 8.936,2.827 13.289,5.028l-11.845,27.785c-2.836,-2.029 -5.895,-3.53 -9.187,-4.491c-3.294,-0.964 -6.96,-1.448 -11.007,-1.448c-10.934,-0 -18.783,4.392 -23.54,13.172c-4.757,8.78 -7.134,23.525 -7.134,44.231l0,63.346l-33.006,0l-0,-144.404l33.006,0l0,23.052Z" style="fill:#C9C7C7;fill-rule:nonzero;"/><path id="path101" d="M394.087,196.576c-0,14.925 3.719,26.856 11.16,35.788c7.445,8.934 17.241,13.4 29.39,13.4c12.452,0 22.094,-4.161 28.929,-12.485c6.832,-8.324 10.254,-20.151 10.254,-35.482c-0,-15.227 -3.572,-27.131 -10.71,-35.711c-7.138,-8.577 -16.934,-12.866 -29.384,-12.866c-12.455,0 -22.172,4.163 -29.161,12.488c-6.988,8.326 -10.478,19.947 -10.478,34.868m-31.942,140.507l0,-212.068l33.007,0l-0,23.448c3.851,-9.149 10.014,-16.215 18.481,-21.201c8.468,-4.982 18.585,-7.473 30.347,-7.473c19.168,0 34.709,7.086 46.623,21.256c11.913,14.169 17.874,32.783 17.874,55.837c-0,24.277 -5.858,43.397 -17.569,57.365c-11.717,13.969 -27.765,20.948 -48.143,20.948c-10.144,0 -19.144,-2.037 -26.999,-6.099c-7.863,-4.067 -14.735,-10.268 -20.614,-18.605l-0,86.592l-33.007,-0Z" style="fill:#C9C7C7;fill-rule:nonzero;"/><path id="path103" d="M213.431,181.677l62.103,-0l-22.83,-50.835c-1.32,-3.246 -2.691,-6.971 -4.11,-11.183c-1.422,-4.211 -2.843,-8.905 -4.263,-14.078c-1.221,4.872 -2.515,9.411 -3.886,13.623c-1.371,4.211 -2.766,8.089 -4.185,11.638l-22.829,50.835Zm100.155,87.467l-25.268,-57.211l-88.284,-0l-25.877,57.211l-38.008,0l107.876,-231.596l107.767,231.596l-38.206,0Z" style="fill:#C9C7C7;fill-rule:nonzero;"/></g></g></g></svg>
