<?xml version="1.0" encoding="UTF-8"?>
<svg width="119px" height="68px" viewBox="0 0 119 68" version="1.1" xmlns="http://www.w3.org/2000/svg" xmlns:xlink="http://www.w3.org/1999/xlink">
    <title>logo-part-found-air-liquide</title>
    <defs>
        <polygon id="path-1" points="0 29.309 101.732 29.309 101.732 0 0 0"></polygon>
    </defs>
    <g id="Page-1" stroke="none" stroke-width="1" fill="none" fill-rule="evenodd">
        <g id="Desktop-HD" transform="translate(-950.000000, -1003.000000)">
            <g id="Group-46" transform="translate(958.000000, 1024.000000)">
                <path d="M43.9748,5.554 L42.2148,5.554 C39.7918,5.6 38.0318,7.725 38.4208,10.079 C38.7178,11.885 40.4088,13.256 42.3288,13.234 C44.2258,13.211 45.9408,11.794 46.1008,9.965 C46.2378,8.594 46.1688,7.222 46.1918,5.851 C46.1918,5.577 46.0318,5.554 45.8258,5.554 C45.2088,5.554 44.5918,5.554 43.9748,5.554 M48.2258,0.023 L48.2258,14.651 L46.5118,14.651 L46.5118,13.416 C46.2608,13.622 46.1008,13.759 45.9178,13.896 C43.0838,16.022 38.5118,15.359 36.8898,11.771 C35.3348,8.342 37.5518,4.32 41.2778,3.908 C42.7178,3.748 44.2038,3.84 45.6658,3.817 C46.2378,3.817 46.2378,3.817 46.2378,3.246 L46.2378,0.457 C46.2378,0.16 46.3058,0.023 46.6488,0.023 C47.1288,0.023 47.6548,0.023 48.2258,0.023" id="Fill-1" fill="#37609C"></path>
                <path d="M57.9855,12.9136 C57.9855,12.8906 57.9855,12.9366 57.9855,12.9136 L59.6995,12.9136 C60.3165,12.9136 60.3165,12.9136 60.3165,12.2736 L60.3165,9.1876 C60.2935,6.6966 58.1225,4.8916 55.6545,5.3026 C54.0085,5.5996 52.6375,7.0626 52.5005,8.6166 C52.2945,10.8336 53.7115,12.3646 55.1975,12.7076 C56.1115,12.9136 57.0715,12.8226 57.9855,12.9136 M60.5915,5.0516 L60.5915,3.8166 L62.3285,3.8166 L62.3285,14.6506 C62.1685,14.6506 62.0315,14.6736 61.8935,14.6736 L56.2485,14.6736 C53.4825,14.6506 51.2655,12.9366 50.6255,10.3076 C49.8945,7.2226 51.9055,4.0916 55.0595,3.5196 C57.0255,3.1766 58.8545,3.5196 60.3855,4.8916 C60.4315,4.9596 60.4765,4.9826 60.5915,5.0516" id="Fill-3" fill="#37609C"></path>
                <path d="M47.0604,27.2214 L47.0604,26.6724 C47.0374,25.2784 47.0834,23.8844 46.9914,22.5134 C46.8314,20.4564 45.0034,18.7414 42.9464,18.6044 C40.7294,18.4674 38.7404,19.9074 38.2604,21.9874 C37.5754,24.8904 39.6784,27.5184 42.6724,27.5184 C44.0434,27.5184 45.4374,27.5184 46.8544,27.6104 C46.4434,27.9074 46.0314,28.2504 45.5974,28.4784 C41.8954,30.5584 37.1864,28.3184 36.4784,24.1584 C36.4324,23.9304 36.3864,23.6784 36.3864,23.4274 L36.3864,17.2334 C36.3864,17.1194 36.4094,17.0044 36.4094,16.8674 C36.5464,16.8444 36.6384,16.8444 36.7524,16.8444 C38.6954,16.8444 40.6604,16.8224 42.6034,16.8444 C45.4604,16.8674 47.9514,18.8334 48.5914,21.5984 C49.0484,23.5874 48.6374,25.3934 47.3574,26.9924 C47.2894,27.0614 47.2204,27.1304 47.1514,27.1984 C47.1294,27.2444 47.0834,27.2444 47.0604,27.2214" id="Fill-5" fill="#37609C"></path>
                <path d="M11.3365,9.0281 C11.1535,11.1311 12.8225,13.0741 14.9935,13.2331 C16.9135,13.3711 19.0845,11.9991 19.1985,9.3481 C19.2905,7.3601 17.8505,5.3941 15.4965,5.2341 C13.3245,5.0741 11.4275,6.7881 11.3365,9.0281 M15.2215,15.0391 C11.9075,15.0161 9.3255,12.4561 9.3255,9.2111 C9.3485,5.9651 11.9995,3.4051 15.3135,3.4281 C18.6275,3.4511 21.2105,6.0341 21.1875,9.2791 C21.1875,12.5021 18.5365,15.0621 15.2215,15.0391" id="Fill-7" fill="#37609C"></path>
                <path d="M82.8528,13.2564 C85.0008,13.2794 86.8528,11.4734 86.8528,9.2564 C86.8528,6.9934 85.1388,5.2794 82.9438,5.2344 C80.7728,5.1884 78.9668,7.0164 78.9448,9.2334 C78.8988,11.3594 80.7048,13.2104 82.8528,13.2564 M82.8988,3.4284 C86.1898,3.4284 88.8178,5.9884 88.8178,9.1884 C88.8178,12.4794 86.2358,15.0394 82.8988,15.0394 C79.5848,15.0394 76.9788,12.4794 76.9328,9.2564 C76.9098,6.0564 79.6528,3.3594 82.8988,3.4284" id="Fill-9" fill="#37609C"></path>
                <path d="M23.5188,3.7941 L25.2328,3.7941 L25.2328,5.0741 C25.4158,4.9371 25.4848,4.8681 25.5758,4.8001 C26.4668,3.9541 27.5648,3.5201 28.7988,3.4511 C29.8958,3.3831 30.9698,3.5201 31.9528,4.0911 C33.4158,4.9601 34.0558,6.3311 34.1008,7.9771 C34.1468,10.1251 34.1238,12.2741 34.1238,14.4221 C34.1238,14.4911 34.1008,14.5591 34.1008,14.6731 L32.0898,14.6731 C32.0898,14.5591 32.0668,14.4221 32.0668,14.3081 C32.0438,12.2741 32.0898,10.2391 32.0208,8.2051 C31.9758,6.5601 30.5128,5.2801 28.8438,5.2801 C27.1068,5.2801 25.6898,6.5371 25.6218,8.2051 C25.5528,10.1021 25.5758,12.0221 25.5528,13.9191 C25.5528,14.8111 25.6668,14.6961 24.7758,14.6961 C24.4558,14.6961 24.1358,14.7191 23.8388,14.6731 C23.7248,14.6511 23.5648,14.4911 23.5418,14.3761 C23.4958,14.1481 23.5188,13.9191 23.5188,13.6911 L23.5188,4.4111 C23.4958,4.2051 23.5188,4.0231 23.5188,3.7941" id="Fill-11" fill="#37609C"></path>
                <path d="M92.8636,3.8169 L92.8636,5.0509 C93.0236,4.9139 93.1146,4.8679 93.1836,4.7999 C94.9206,3.1079 98.0746,2.9029 100.0176,4.3879 C101.2286,5.3249 101.7086,6.6049 101.7086,8.0679 C101.7316,10.1249 101.7086,12.2049 101.7316,14.2619 C101.7316,14.5819 101.6406,14.6959 101.3206,14.6739 C100.9086,14.6509 100.4976,14.6509 100.0636,14.6739 C99.6976,14.6959 99.6286,14.5359 99.6286,14.2159 C99.6286,12.2279 99.6516,10.2619 99.6066,8.2739 C99.5836,6.5599 98.1886,5.2569 96.4516,5.2109 C94.6916,5.1879 93.2296,6.4449 93.1836,8.1819 C93.1146,10.1249 93.1376,12.0679 93.1376,14.0339 C93.1376,14.6509 93.1376,14.6509 92.5436,14.6509 L91.1726,14.6509 L91.1726,3.7939 C91.7206,3.8169 92.2696,3.8169 92.8636,3.8169" id="Fill-13" fill="#37609C"></path>
                <path d="M7.451,7.451 L7.451,9.234 L2.103,9.234 C2.08,9.462 2.057,9.645 2.057,9.828 C2.057,11.291 2.034,12.754 2.057,14.216 C2.057,14.605 1.943,14.719 1.554,14.696 C1.188,14.673 0.8,14.673 0.434,14.696 C0.091,14.719 0,14.605 0,14.262 C0.023,11.885 0.023,9.508 0,7.131 C0,6.034 0.023,4.914 0.503,3.885 C1.668,1.417 3.611,0.137 6.331,0.023 C7.062,3.46944695e-18 7.794,0.023 8.548,0.023 L8.548,1.851 C8.228,1.851 7.908,1.828 7.611,1.851 C6.788,1.897 5.965,1.828 5.188,2.011 C3.337,2.468 2.126,4.228 2.057,6.263 C2.034,7.428 2.034,7.428 3.177,7.428 L6.925,7.428 C7.108,7.428 7.291,7.451 7.451,7.451" id="Fill-15" fill="#37609C"></path>
                <path d="M65.0708,0.0229 C65.7108,0.0229 66.2818,-0.0001 66.8768,0.0459 C66.9448,0.0459 67.0818,0.2739 67.0818,0.4119 C67.1048,1.3719 67.1048,2.3309 67.0818,3.2909 C67.0588,3.7259 67.2188,3.8169 67.6078,3.8169 C68.5218,3.7939 69.4358,3.8169 70.3958,3.8169 L70.3958,5.5999 L69.7108,5.5999 L67.4708,5.5999 C67.1968,5.5999 67.0588,5.6679 67.0588,5.9879 C67.0818,7.6569 67.0588,9.3479 67.0818,11.0169 C67.1048,12.2739 67.8138,12.9369 69.0708,12.9369 L70.3738,12.9369 C70.3738,13.4849 70.3738,13.9879 70.3508,14.5139 C70.3508,14.5819 70.1908,14.6969 70.0988,14.6969 C69.2078,14.6739 68.2938,14.7189 67.4018,14.6049 C66.1448,14.4449 65.3218,13.5539 65.1618,12.2969 C65.1168,11.8619 65.0708,11.4049 65.0708,10.9709 L65.0708,0.6169 C65.0708,0.4119 65.0708,0.2289 65.0708,0.0229" id="Fill-17" fill="#37609C"></path>
                <path d="M53.78,24.0216 L54.809,24.0216 C55.06,24.0216 55.174,23.9306 55.151,23.6786 C55.128,23.2446 55.151,22.8106 55.151,22.3986 C55.151,21.5306 55.243,21.6446 54.397,21.6446 C53.071,21.6446 52.34,22.4216 52.454,23.7246 C52.454,23.8386 52.637,23.9986 52.751,24.0216 C53.094,24.0446 53.437,24.0216 53.78,24.0216 M55.174,27.4726 C55.174,26.8096 55.151,26.1926 55.174,25.5756 C55.197,25.2326 55.083,25.0956 54.717,25.0956 C54.077,25.1186 53.46,25.0956 52.82,25.0956 C52.546,25.0956 52.432,25.1876 52.454,25.4846 C52.477,26.1246 52.454,26.7646 52.454,27.4726 C52.043,27.4726 51.7,27.4956 51.334,27.4496 C51.243,27.4496 51.083,27.2896 51.083,27.1986 C51.083,25.7586 51.014,24.2956 51.129,22.8556 C51.22,21.5756 52.569,20.5246 53.963,20.4786 C54.717,20.4556 55.448,20.4786 56.203,20.4556 C56.454,20.4556 56.523,20.5476 56.523,20.7756 C56.523,22.9016 56.523,25.0276 56.5,27.1296 C56.5,27.2446 56.34,27.4276 56.248,27.4276 C55.928,27.4956 55.586,27.4726 55.174,27.4726" id="Fill-19" fill="#37609C"></path>
                <path d="M45.1633,24.0216 C45.1633,24.4556 45.1863,24.9126 45.1633,25.3476 C45.1633,25.4616 45.0033,25.6446 44.9343,25.6446 C43.9523,25.6446 42.9693,25.7126 42.0323,25.5756 C40.7063,25.3926 39.9293,24.1816 40.0203,22.7646 C40.1123,21.5986 41.1633,20.5706 42.3753,20.4786 C43.6553,20.3876 44.8893,21.2556 45.1173,22.4906 C45.1863,22.9926 45.1633,23.5186 45.1633,24.0216 C45.1863,24.0216 45.1403,24.0216 45.1633,24.0216" id="Fill-21" fill="#37609C"></path>
                <path d="M72.6362,3.8169 L74.6472,3.8169 C74.6472,3.9539 74.6702,4.0909 74.6702,4.2279 C74.6702,7.5429 74.6702,10.8569 74.6932,14.1479 C74.6932,14.6049 74.5562,14.7189 74.1222,14.6959 C73.8022,14.6739 73.4592,14.6509 73.1392,14.6959 C72.7272,14.7419 72.6362,14.5589 72.6362,14.1709 C72.6592,11.9989 72.6362,9.8049 72.6362,7.6339 L72.6362,4.3199 L72.6362,3.8169 Z" id="Fill-23" fill="#37609C"></path>
                <path d="M92.6351,23.5188 L92.0411,23.5188 C91.2181,23.5418 90.6241,24.1358 90.6011,24.9358 C90.5781,25.7358 91.1491,26.3758 91.9041,26.4218 C92.7721,26.4898 93.4351,25.9648 93.5261,25.1188 C93.5491,24.8898 93.5491,24.6618 93.5491,24.4328 C93.5491,23.5188 93.5491,23.5188 92.6351,23.5188 M93.5491,22.3298 C93.5491,21.8728 93.5721,21.4388 93.5491,21.0048 C93.5261,20.6158 93.6181,20.4108 94.0751,20.4788 C94.3491,20.5248 94.6011,20.4788 94.8981,20.4788 L94.8981,27.4498 L93.7091,27.4498 C93.6861,27.2898 93.6641,27.1298 93.6411,26.9928 C93.1841,27.1988 92.7491,27.4728 92.2921,27.5648 C90.9211,27.8158 89.5951,26.8558 89.3671,25.5298 C89.1151,24.0898 89.9611,22.7418 91.3321,22.4678 C91.9261,22.3528 92.5661,22.3988 93.1611,22.3758 C93.2981,22.3528 93.3891,22.3528 93.5491,22.3298" id="Fill-25" fill="#37609C"></path>
                <path d="M77.4816,25.4158 L77.4816,24.8218 C77.4356,24.0218 76.7956,23.4048 75.9956,23.3818 C75.2416,23.3588 74.5786,23.9758 74.5106,24.7068 C74.4416,25.4388 74.9676,26.1248 75.7446,26.2618 C76.0186,26.3068 76.3156,26.3068 76.5906,26.3068 C77.6416,26.3068 77.4586,26.4218 77.4816,25.4158 M77.5506,22.9698 C77.5726,22.7418 77.5956,22.5818 77.6416,22.3988 L78.8076,22.3988 C78.8076,22.5358 78.8296,22.6958 78.8296,22.8558 L78.8296,28.8668 C78.8296,29.1868 78.7386,29.3468 78.3956,29.3008 C78.1216,29.2788 77.8246,29.3008 77.4816,29.3008 L77.4816,27.4958 C77.1616,27.4958 76.9106,27.5188 76.6356,27.4958 C76.1336,27.4498 75.6076,27.4728 75.1046,27.3358 C73.8476,26.9928 73.0476,25.7358 73.2536,24.4788 C73.4356,23.2218 74.5556,22.2388 75.8136,22.2388 C76.4756,22.1928 77.0476,22.4678 77.5506,22.9698" id="Fill-27" fill="#37609C"></path>
                <path d="M100.3375,24.4559 C100.1545,23.6559 99.5605,23.2669 98.7375,23.3359 C98.0295,23.3819 97.4575,23.8619 97.4345,24.4559 L100.3375,24.4559 Z M97.3665,25.3249 C97.4805,25.8499 97.7545,26.1469 98.1435,26.3299 C98.7835,26.6269 99.4465,26.6039 100.0175,26.1929 C100.3145,25.9639 100.5205,25.9639 100.7945,26.1929 C100.9545,26.3069 101.1145,26.4219 101.3205,26.5589 C100.9085,27.0839 100.3835,27.3819 99.7665,27.5189 C98.6465,27.7929 97.6175,27.5869 96.7945,26.7639 C96.0865,26.0559 95.8575,25.1869 96.1325,24.2049 C96.4515,23.1759 97.1605,22.5589 98.1895,22.3079 C99.9715,21.8729 101.4575,22.9479 101.6865,24.7759 C101.7545,25.2789 101.6865,25.3469 101.1605,25.3469 C99.9265,25.3249 98.6915,25.3249 97.3665,25.3249 L97.3665,25.3249 Z" id="Fill-29" fill="#37609C"></path>
                <path d="M85.3212,22.376 L85.3212,27.45 L84.1322,27.45 C84.1102,27.29 84.0872,27.13 84.0642,26.901 C83.9502,26.993 83.8352,27.061 83.7442,27.13 C83.0352,27.656 82.2582,27.793 81.4352,27.404 C80.6132,27.016 80.2012,26.33 80.2012,25.416 L80.2012,22.833 C80.2012,22.696 80.2242,22.559 80.2242,22.399 L81.5502,22.399 L81.5502,24.502 C81.5502,24.867 81.5502,25.256 81.6182,25.599 C81.7332,26.147 82.2582,26.513 82.7842,26.467 C83.3782,26.422 83.8582,26.01 83.9042,25.416 C83.9502,24.593 83.9502,23.793 83.9502,22.97 C83.9502,22.353 83.9502,22.353 84.5442,22.353 C84.8182,22.376 85.0702,22.376 85.3212,22.376" id="Fill-31" fill="#37609C"></path>
                <path d="M66.4879,27.4728 L66.4879,20.5248 C66.5569,20.5018 66.5789,20.4788 66.6249,20.4788 C67.8359,20.4108 67.8359,20.4108 67.8359,21.6218 L67.8359,25.7358 C67.8359,26.2838 67.8359,26.2838 68.4079,26.3068 L69.3449,26.3068 C69.5959,26.3068 69.6879,26.3758 69.7109,26.6498 C69.7559,27.4728 69.7559,27.4728 68.9339,27.4728 L66.4879,27.4728 Z" id="Fill-33" fill="#37609C"></path>
                <path d="M61.1396,22.3988 L62.3286,22.3988 C62.3506,22.6048 62.3736,22.7878 62.3966,23.0388 C62.8306,22.5358 63.2876,22.1478 63.9736,22.2388 L63.9736,23.3358 C63.9056,23.3588 63.8596,23.3818 63.8136,23.3818 C62.9226,23.4728 62.4876,23.9298 62.4656,24.8448 C62.4426,25.5528 62.4656,26.2838 62.4656,26.9928 L62.4656,27.4728 L61.1626,27.4728 C61.1396,25.7818 61.1396,24.1128 61.1396,22.3988" id="Fill-35" fill="#37609C"></path>
                <path d="M58.2141,27.4728 L58.2141,22.3988 L59.5621,22.3988 C59.5851,22.5128 59.6081,22.6278 59.6081,22.7418 L59.6081,27.0618 C59.6081,27.3818 59.5171,27.4958 59.1971,27.4728 C58.8771,27.4498 58.5571,27.4728 58.2141,27.4728" id="Fill-37" fill="#37609C"></path>
                <mask id="mask-2" fill="white">
                    <use xlink:href="#path-1"></use>
                </mask>
                <g id="Clip-40"></g>
                <polygon id="Fill-39" fill="#37609C" mask="url(#mask-2)" points="70.808 27.45 72.088 27.45 72.088 22.399 70.808 22.399"></polygon>
                <path d="M86.8525,22.376 L88.1555,22.376 L88.1555,27.473 C87.7895,27.473 87.4235,27.496 87.0585,27.473 C86.9895,27.473 86.8525,27.336 86.8525,27.267 C86.8525,25.644 86.8525,24.044 86.8525,22.376" id="Fill-41" fill="#37609C" mask="url(#mask-2)"></path>
                <path d="M73.6647,0 C74.6707,0 74.6707,0 74.6707,0.983 C74.6707,1.828 74.6707,1.828 73.8017,1.828 C72.6357,1.828 72.6357,1.828 72.6357,0.663 C72.6357,-0.091 72.6137,0.023 73.2757,0 L73.6647,0 Z" id="Fill-42" fill="#37609C" mask="url(#mask-2)"></path>
                <path d="M58.2369,20.4789 L59.6079,20.4789 C59.6079,20.7989 59.6309,21.0959 59.5849,21.4159 C59.5849,21.4849 59.4249,21.6219 59.3339,21.6219 C58.9679,21.6449 58.6259,21.6219 58.2369,21.6219 L58.2369,20.4789 Z" id="Fill-43" fill="#37609C" mask="url(#mask-2)"></path>
                <polygon id="Fill-44" fill="#37609C" mask="url(#mask-2)" points="70.785 21.599 72.065 21.599 72.065 20.502 70.785 20.502"></polygon>
                <path d="M88.1553,21.6217 L87.1723,21.6217 C86.9443,21.6217 86.8293,21.5527 86.8293,21.3017 C86.8523,21.0277 86.8293,20.7757 86.8293,20.4787 L88.1323,20.4787 C88.1553,20.8677 88.1553,21.2327 88.1553,21.6217" id="Fill-45" fill="#37609C" mask="url(#mask-2)"></path>
            </g>
        </g>
    </g>
</svg>