<?xml version="1.0" encoding="UTF-8"?>
<svg width="146px" height="52px" viewBox="0 0 146 52" version="1.1" xmlns="http://www.w3.org/2000/svg" xmlns:xlink="http://www.w3.org/1999/xlink">
    <title>logo-part-foselev</title>
    <defs>
        <polygon id="path-1" points="0 0 29.4441537 0 29.4441537 18 0 18"></polygon>
    </defs>
    <g id="Page-1" stroke="none" stroke-width="1" fill="none" fill-rule="evenodd">
        <g id="Desktop-HD" transform="translate(-1121.000000, -900.000000)">
            <g id="Group-22" transform="translate(1123.000000, 918.000000)">
                <polygon id="Fill-1" fill="#727172" points="39 1 39 18 45.5491023 18 45.5491023 11.869509 50 11.869509 50 7.70736434 45.805579 7.70736434 45.805579 5.09043928 50 5.09043928 50 1"></polygon>
                <g id="Group-21">
                    <path d="M60.727285,0.259940106 C56.0096167,0.258653592 52.1837028,4.19088291 52.1824514,9.04361282 C52.180576,13.8963427 56.0039885,17.8317883 60.7216568,17.8330755 C65.4393252,17.8350046 69.2652391,13.902132 69.2665458,9.04940213 L69.2665458,9.0468291 C69.2833744,4.20310479 65.4799732,0.26315639 60.7710598,0.245788454 C60.7566766,0.245788454 60.7416682,0.245788454 60.727285,0.245788454 L60.727285,0.259940106 Z M60.727285,12.424571 C58.904379,12.424571 57.4272935,10.904555 57.4272935,9.02946117 C57.4272935,7.15501061 58.904379,5.6349946 60.727285,5.6349946 C62.5501911,5.6349946 64.0272765,7.15501061 64.0272765,9.02946117 C64.0547921,10.8762517 62.6221067,12.3962677 60.8273416,12.424571 C60.7935725,12.4252142 60.7604288,12.4252142 60.727285,12.424571 L60.727285,12.424571 Z" id="Fill-2" fill="#727172"></path>
                    <path d="M80.8972557,5.81883742 L83.5018539,2.42437086 C83.5018539,2.42437086 81.314992,0.245659803 76.9012456,0.602024115 C72.4868738,0.959031684 71.7608381,4.67576994 71.6564041,5.28107467 C71.4831811,6.74641384 71.6564041,9.78194306 75.8919247,10.6760701 C78.4965229,11.2106166 77.4209145,14.4950862 74.9570209,13.0323201 L72.481871,11.2813749 L70.2950091,14.6764847 C70.2950091,14.6764847 73.5956259,17.7120139 77.2039168,17.7120139 C80.6771312,17.7120139 82.9321567,15.4966372 83.4549524,13.3520188 C83.9746213,10.5686462 83.2104391,7.78205742 78.6284725,7.35236182 C75.5729943,7.10342141 76.2658862,4.06789219 78.6284725,4.49758779 C78.7798081,4.60243866 80.1299467,4.78319384 80.8972557,5.81883742" id="Fill-4" fill="#727172"></path>
                    <polygon id="Fill-6" fill="#ED721C" points="96.5239067 0.888016124 85.8641275 0.888016124 85.8641275 17.8166075 96.5239067 17.8166075 96.5239067 13.2108882 91.4522882 13.2108882 91.4522882 11.1035787 95.7590991 11.1035787 95.7590991 7.21058801 91.4522882 7.21058801 91.4522882 5.21070237 96.5239067 5.31812626"></polygon>
                    <polygon id="Fill-8" fill="#727172" points="98.9523427 0.888016124 98.9523427 17.8166075 110.340659 17.8166075 110.340659 12.1752446 104.612419 12.1752446 104.612419 0.888016124"></polygon>
                    <polygon id="Fill-10" fill="#727172" points="122.598592 0.888016124 112.736139 0.888016124 112.736139 17.8166075 122.598592 17.8166075 122.598592 13.2108882 117.631408 13.2108882 117.631408 11.1035787 121.762494 11.1035787 121.762494 7.21058801 117.631408 7.21058801 117.631408 5.21070237 122.598592 5.21070237"></polygon>
                    <polygon id="Fill-12" fill="#727172" points="123.605161 0.961540386 129.435334 0.961540386 131.866709 10.9616119 134.853398 0.961540386 141 0.961540386 134.680175 17.8161572 129.853696 17.8161572"></polygon>
                    <polygon id="Fill-14" fill="#ED731C" points="36.8032535 5.56706668 25.8658173 7.96062553 25.6238054 7.64092686 36.7344646 5.21070237"></polygon>
                    <g id="Group-18" transform="translate(4.721858, 0.000000)">
                        <mask id="mask-2" fill="white">
                            <use xlink:href="#path-1"></use>
                        </mask>
                        <g id="Clip-17"></g>
                        <path d="M14.5488539,-0.000257302752 L0,18 L29.4441537,18 L14.5488539,-0.000257302752 Z M14.4444198,0.678378707 L12.0486898,9.57011857 L11.9442557,9.96314853 L9.85995182,17.6011807 L0.764807577,17.6011807 L14.4444198,0.678378707 Z" id="Fill-16" fill="#727172" mask="url(#mask-2)"></path>
                    </g>
                    <polygon id="Fill-19" fill="#ED731C" points="16.7707356 9.56715959 16.6663015 9.96018955 0.0687889072 13.5675741 0 13.2105666"></polygon>
                </g>
            </g>
        </g>
    </g>
</svg>