<?xml version="1.0" encoding="UTF-8"?>
<svg width="69px" height="89px" viewBox="0 0 69 89" version="1.1" xmlns="http://www.w3.org/2000/svg" xmlns:xlink="http://www.w3.org/1999/xlink">
    <title>logo-part-apprentis</title>
    <defs>
        <polygon id="path-1" points="-1.77635684e-15 0 55.24 0 55.24 56.5296 -1.77635684e-15 56.5296"></polygon>
    </defs>
    <g id="Page-1" stroke="none" stroke-width="1" fill="none" fill-rule="evenodd">
        <g id="Desktop-HD" transform="translate(-228.000000, -1111.000000)">
            <g id="Group-74" transform="translate(234.000000, 1128.000000)">
                <g id="Group-3">
                    <mask id="mask-2" fill="white">
                        <use xlink:href="#path-1"></use>
                    </mask>
                    <g id="Clip-2"></g>
                    <path d="M12.506,24.035 C12.933,23.879 13.304,23.805 13.597,23.612 C13.739,23.519 13.736,23.205 13.798,22.99 C13.6,22.952 13.374,22.833 13.209,22.891 C12.776,23.044 12.393,23.047 11.978,22.826 C11.837,22.751 11.48,22.788 11.44,22.874 C11.363,23.042 11.36,23.384 11.469,23.47 C11.781,23.711 12.163,23.857 12.506,24.035 L12.506,24.035 Z M10.235,19.039 C9.798,19.221 9.296,19.363 8.878,19.636 C8.712,19.744 8.645,20.159 8.694,20.402 C8.758,20.717 9.081,20.668 9.346,20.613 C9.854,20.509 10.365,20.426 10.867,20.299 C11.033,20.258 11.297,20.113 11.3,20.011 C11.304,19.793 11.227,19.504 11.074,19.368 C10.887,19.203 10.587,19.167 10.235,19.039 L10.235,19.039 Z M15.697,19.039 C15.376,19.154 15.031,19.214 14.772,19.396 C14.617,19.507 14.538,19.809 14.542,20.024 C14.544,20.125 14.809,20.271 14.974,20.311 C15.522,20.443 16.084,20.52 16.631,20.653 C17.008,20.743 17.148,20.538 17.209,20.248 C17.285,19.88 17.134,19.561 16.802,19.404 C16.465,19.246 16.092,19.166 15.697,19.039 L15.697,19.039 Z M23.551,18.587 C23.16,18.7 22.84,18.733 22.597,18.885 C22.449,18.978 22.323,19.282 22.365,19.446 C22.405,19.603 22.681,19.81 22.846,19.804 C23.563,19.777 24.189,19.997 24.807,20.33 C24.958,20.411 25.284,20.416 25.368,20.318 C25.502,20.162 25.583,19.866 25.53,19.673 C25.471,19.466 25.265,19.238 25.065,19.146 C24.561,18.916 24.026,18.757 23.551,18.587 L23.551,18.587 Z M28.652,19.682 C28.209,19.794 27.855,19.84 27.539,19.975 C27.232,20.106 27.085,20.4 27.187,20.739 C27.295,21.097 27.575,21.056 27.895,21.049 C28.466,21.036 29.048,21.076 29.608,21.183 C29.95,21.248 30.253,21.364 30.435,20.983 C30.609,20.616 30.392,20.325 30.089,20.188 C29.609,19.97 29.096,19.833 28.652,19.682 L28.652,19.682 Z M13.543,44.857 C13.569,44.833 13.596,44.81 13.623,44.787 C13.44,44.581 13.294,44.289 13.066,44.193 C12.841,44.098 12.412,44.089 12.281,44.232 C11.831,44.726 11.439,45.283 11.089,45.856 C10.869,46.216 11.121,46.594 11.518,46.612 C12.086,46.637 13.48,45.46 13.54,44.902 C13.542,44.888 13.542,44.873 13.543,44.857 L13.543,44.857 Z M12.301,27.041 C13.034,27.005 13.726,26.825 14.302,26.355 C14.43,26.25 14.538,25.933 14.471,25.826 C14.375,25.669 14.123,25.58 13.919,25.527 C13.81,25.5 13.667,25.615 13.538,25.659 C12.497,26.016 11.499,26.024 10.597,25.28 C10.346,25.073 10.067,25 9.825,25.275 C9.591,25.54 9.729,25.787 9.93,26.005 C10.568,26.699 11.376,27.005 12.301,27.041 L12.301,27.041 Z M26.327,26.321 C26.668,26.227 27.316,26.066 27.951,25.863 C28.23,25.774 28.437,25.553 28.31,25.225 C28.187,24.908 27.92,24.822 27.594,24.9 C27.311,24.967 27.03,25.047 26.743,25.087 C25.525,25.254 24.384,25.154 23.522,24.12 C23.456,24.041 23.356,23.941 23.268,23.939 C23.07,23.932 22.82,23.918 22.689,24.026 C22.589,24.108 22.566,24.409 22.637,24.549 C22.778,24.829 22.973,25.102 23.206,25.31 C23.997,26.016 24.966,26.263 26.327,26.321 L26.327,26.321 Z M45.973,38.932 C45.933,38.085 45.908,37.274 45.844,36.465 C45.826,36.221 45.77,35.896 45.606,35.764 C45.078,35.34 44.346,35.636 44.315,36.303 C44.24,37.936 44.213,39.573 44.2089965,41.208 C44.208,41.774 44.421,41.897 45.055,41.889 C45.65,41.882 45.808,41.758 45.85,41.189 C45.906,40.428 45.935,39.663 45.973,38.932 L45.973,38.932 Z M45.776,47.524 C45.715,46.588 45.667,45.655 45.588,44.725 C45.548,44.261 45.367,44.174 44.732,44.151 C44.322,44.136 44.092,44.28 44.08,44.712 C44.032,46.394 43.95,48.077 43.943,49.759 C43.939,50.497 44.074,50.558 44.804,50.5560454 C44.881,50.5560454 44.958,50.5560454 45.034,50.555 C45.374,50.551 45.583,50.414 45.605,50.044 C45.656,49.204 45.719,48.364 45.776,47.524 L45.776,47.524 Z M48.885,49.306 C48.885,49.133 48.888,48.982 48.885,48.832 C48.851,47.483 48.834,46.135 48.771,44.788 C48.747,44.261 48.487,44.127 47.833,44.1229745 C47.388,44.12 47.237,44.382 47.228,44.758 C47.185,46.471 47.136,48.184 47.128,49.897 C47.125,50.463 47.265,50.552 47.837,50.555 C48.909,50.562 49.983,50.559 51.057,50.556 C51.566,50.555 51.765,50.303 51.543,49.844 C51.452,49.656 51.167,49.477 50.95,49.449 C50.284,49.362 49.609,49.35 48.885,49.306 L48.885,49.306 Z M41.776,36.856 C42.28,36.822 42.782,36.779 43.284,36.754 C43.649,36.736 43.707,36.475 43.696,36.21 C43.686,35.95 43.703,35.621 43.292,35.616 C41.838,35.602 40.384,35.589 38.93,35.5779729 C38.579,35.576 38.361,35.684 38.352,36.103 C38.344,36.507 38.494,36.71 38.884,36.746 C39.353,36.789 39.821,36.831 40.301,36.874 C40.29,37.003 40.278,37.109 40.272,37.214 C40.198,38.544 40.118,39.874 40.057,41.203 C40.049,41.372 40.118,41.679 40.194,41.694 C40.6,41.771 41.024,41.823 41.433,41.79 C41.779,41.762 41.729,41.42 41.744,41.165 C41.757,40.951 41.775,40.737 41.775,40.523 C41.777,39.315 41.776,38.107 41.776,36.856 L41.776,36.856 Z M27.789,45.461 C27.778,45.613 27.767,45.749 27.759,45.885 C27.682,47.185 27.603,48.483 27.531,49.782 C27.516,50.05 27.539,50.298 27.857,50.417 C28.698,50.733 29.248,50.397 29.252,49.517 C29.258,48.323 29.246,47.129 29.212,45.934 C29.201,45.553 29.275,45.361 29.706,45.391 C30.054,45.416 30.409,45.367 30.76,45.345 C31.163,45.319 31.205,45.025 31.192,44.719 C31.18,44.423 31.09,44.181 30.712,44.181 C29.273,44.181 27.834,44.178 26.396,44.163 C26.017,44.159 25.843,44.297 25.824,44.693 C25.806,45.07 25.938,45.283 26.313,45.323 C26.795,45.375 27.28,45.414 27.789,45.461 L27.789,45.461 Z M47.89,40.63 C47.889,40.616 47.887,40.604 47.885,40.59 C47.717,40.59 47.548,40.594 47.38,40.589 C47.096,40.579 46.813,40.556 46.756,40.947 C46.701,41.32 46.835,41.602 47.195,41.701 C48.332,42.011 49.47,42.043 50.562,41.535 C51.263,41.208 51.518,40.636 51.409,39.875 C51.318,39.227 50.91,38.844 50.375,38.56 C49.889,38.302 49.377,38.091 48.907,37.806 C48.744,37.707 48.589,37.445 48.598,37.264 C48.604,37.146 48.899,36.97 49.081,36.946 C49.565,36.881 50.058,36.858 50.546,36.867 C50.929,36.874 51.078,36.694 51.093,36.353 C51.107,36.028 50.993,35.73 50.634,35.7309536 C49.797,35.732 48.951,35.718 48.128,35.842 C47.448,35.944 46.915,36.361 46.797,37.121 C46.685,37.854 47.101,38.315 47.66,38.661 C48.179,38.983 48.741,39.236 49.263,39.555 C49.423,39.653 49.63,39.896 49.602,40.026 C49.565,40.2 49.342,40.414 49.159,40.461 C48.748,40.565 48.314,40.579 47.89,40.63 L47.89,40.63 Z M29.398,38.975 C29.939,38.975 30.442,38.986 30.944,38.972 C31.246,38.964 31.672,39.074 31.692,38.598 C31.712,38.128 31.281,38.192 30.978,38.149 C30.798,38.123 30.611,38.14 30.428,38.138 C30.095,38.137 29.764,38.138 29.407,38.138 L29.407,36.636 C29.677,36.659 29.916,36.697 30.157,36.696 C30.659,36.696 31.167,36.713 31.662,36.651 C32.023,36.605 32.079,36.266 32.035,35.966 C32.018,35.843 31.851,35.646 31.75,35.645 C30.587,35.63 29.422,35.631 28.259,35.66 C27.866,35.671 27.675,35.922 27.6779652,36.337 C27.688,37.883 27.675,39.43 27.687,40.977 C27.692,41.572 27.925,41.797 28.535,41.805 C29.547,41.818 30.559,41.801 31.57,41.8150524 C31.843,41.818 31.956,41.692 32.014,41.457 C32.136,40.966 31.94,40.698 31.417,40.687 C30.748,40.675 30.08,40.684 29.398,40.684 L29.398,38.975 Z M18.021,40.028 C18.424,40.006 18.82,40.003 19.21,39.96 C20.395,39.83 21.036,39.165 21.127,38 C21.216,36.863 20.662,35.988 19.515,35.793 C18.61,35.639 17.664,35.714 16.738,35.731 C16.615,35.734 16.396,35.999 16.393,36.147 C16.35,37.768 16.322,39.39 16.331,41.012 C16.336,41.757 16.444,41.816 17.219,41.811 C17.296,41.811 17.373,41.81 17.449,41.808 C17.867,41.796 18.054,41.594 18.026,41.165 C18.001,40.787 18.021,40.407 18.021,40.028 L18.021,40.028 Z M12.592,40.026 C13.006,40.004 13.401,40.005 13.792,39.959 C14.999,39.817 15.67,39.11 15.719,37.952 C15.769,36.78 15.143,35.914 13.961,35.748 C13.123,35.63 12.257,35.709 11.404,35.701 C11.071,35.698 10.95,35.881 10.949,36.195 C10.944,37.893 10.936,39.592 10.9229823,41.291 C10.921,41.617 11.089,41.772 11.39,41.796 C11.618,41.814 11.85,41.816 12.078,41.801 C12.437,41.776 12.633,41.615 12.599,41.209 C12.566,40.82 12.592,40.426 12.592,40.026 L12.592,40.026 Z M33.519,45.194 C33.831,45.218 34.103,45.256 34.374,45.259 C34.832,45.262 35.291,45.268 35.746,45.228 C36.195,45.19 36.244,44.833 36.23,44.479 C36.215,44.094 35.909,44.124 35.656,44.127 C34.69,44.131 33.725,44.153 32.759,44.16 C31.832,44.167 31.696,44.287 31.6969946,45.224 C31.699,46.664 31.721,48.104 31.732,49.544 C31.737,50.323 31.949,50.539 32.745,50.544 C33.711,50.549 34.678,50.53 35.643,50.552 C36.052,50.561 36.183,50.37 36.21,50.008 C36.238,49.616 36.095,49.381 35.681,49.379 C34.965,49.374 34.248,49.378 33.511,49.378 L33.511,47.626 C33.66,47.619 33.749,47.612 33.84,47.611 C34.376,47.602 34.916,47.624 35.448,47.568 C35.608,47.552 35.746,47.323 35.895,47.192 C35.752,47.053 35.625,46.887 35.458,46.788 C35.353,46.726 35.188,46.759 35.051,46.759 C34.549,46.757 34.048,46.758 33.519,46.758 C33.519,46.213 33.519,45.745 33.519,45.194 L33.519,45.194 Z M9.679,41.817 C9.812,41.817 9.936,41.828 10.057,41.815 C10.521,41.767 10.607,41.594 10.412,41.179 C9.62,39.491 8.844,37.796 8.035,36.116 C7.932,35.903 7.686,35.688 7.463,35.62 C7.133,35.519 6.786,35.621 6.586,35.958 C5.64,37.551 4.749,39.173 4.211,40.958 C4.135,41.208 4.118,41.646 4.257,41.747 C4.458,41.894 4.83,41.852 5.12,41.814 C5.272,41.794 5.435,41.636 5.538,41.499 C5.683,41.306 5.818,41.086 5.887,40.857 C6.011,40.441 6.257,40.384 6.648,40.448 C7.021,40.508 7.424,40.548 7.787,40.468 C8.244,40.367 8.412,40.546 8.554,40.924 C8.745,41.444 8.984,41.939 9.679,41.817 L9.679,41.817 Z M17.01,49.058 C17.096,49.252 17.175,49.434 17.257,49.615 C17.654,50.487 17.803,50.573 18.736,50.475 C19.214,50.425 19.297,50.247 19.095,49.806 C18.318,48.109 17.543,46.409 16.782,44.704 C16.639,44.385 16.528,44.086 16.102,44.067 C15.669,44.049 15.369,44.216 15.176,44.603 C14.583,45.796 13.961,46.973 13.4,48.18 C13.143,48.73 12.972,49.326 12.814,49.915 C12.695,50.357 12.879,50.543 13.335,50.554 C13.787,50.566 14.139,50.416 14.338,49.979 C14.489,49.649 14.66,49.328 14.796,49.057 C15.555,49.058 16.256,49.058 17.01,49.058 L17.01,49.058 Z M42.546,45.798 C42.546,45.446 42.534,45.092 42.549,44.741 C42.564,44.392 42.376,44.232 42.065,44.193 C41.868,44.168 41.666,44.164 41.469,44.181 C40.97,44.227 40.879,44.357 40.901,44.864 C40.924,45.383 40.981,45.911 40.924,46.423 C40.838,47.193 40.699,47.962 40.514,48.714 C40.409,49.137 40.086,49.435 39.598,49.402 C39.125,49.371 38.905,49.02 38.8,48.622 C38.69,48.211 38.6,47.781 38.599,47.359 C38.596,46.457 38.674,45.554 38.676,44.651 C38.676,44.469 38.532,44.193 38.38,44.122 C37.88,43.887 37.333,44.177 37.199,44.716 C36.923,45.825 36.796,46.95 37.013,48.084 C37.226,49.198 37.705,50.131 38.904,50.451 C40.327,50.831 41.509,50.215 42.082,48.816 C42.478,47.851 42.577,46.832 42.546,45.798 L42.546,45.798 Z M23.372,45.786 C23.372,46.123 23.422,46.47 23.362,46.796 C23.231,47.512 23.093,48.237 22.849,48.919 C22.769,49.143 22.351,49.379 22.095,49.37 C21.842,49.36 21.518,49.099 21.371,48.86 C21.195,48.575 21.105,48.195 21.1,47.854 C21.085,46.83 21.14,45.806 21.141,44.782 C21.141,44.579 21.091,44.297 20.954,44.186 C20.563,43.866 19.832,44.1 19.698,44.583 C19.317,45.963 19.193,47.36 19.641,48.749 C19.921,49.615 20.474,50.245 21.401,50.462 C22.848,50.802 24.007,50.197 24.557,48.776 C25.072,47.446 25.117,46.053 24.982,44.653 C24.967,44.495 24.763,44.265 24.608,44.228 C24.32,44.16 23.994,44.167 23.704,44.231 C23.57,44.26 23.406,44.486 23.388,44.638 C23.343,45.016 23.374,45.403 23.372,45.786 L23.372,45.786 Z M25.669,39.362 C25.97,39.008 26.336,38.721 26.514,38.343 C27.043,37.217 26.366,35.94 25.089,35.744 C24.237,35.613 23.354,35.688 22.483,35.667 C21.964,35.655 21.811,35.935 21.814,36.415 C21.824,37.992 21.81,39.569 21.809,41.148 C21.809,41.676 21.923,41.79 22.454,41.808 C22.638,41.814 22.823,41.816 23.005,41.797 C23.324,41.766 23.497,41.615 23.482,41.258 C23.46,40.728 23.476,40.197 23.476,39.674 C23.985,39.594 23.98,39.596 24.205,39.968 C24.466,40.4 24.717,40.84 25.005,41.253 C25.389,41.804 25.798,41.931 26.442,41.753 C26.945,41.614 27.027,41.445 26.751,41.007 C26.387,40.425 25.998,39.859 25.669,39.362 L25.669,39.362 Z M4.684,48.173 L4.603,48.173 C4.603,48.693 4.602,49.214 4.603,49.735 C4.605,50.275 4.7,50.418 5.256,50.454 C5.879,50.495 6.51,50.509 7.13,50.455 C9.214,50.276 10.35,48.768 10.007,46.701 C9.844,45.722 9.431,44.924 8.482,44.507 C7.372,44.02 6.21,44.116 5.05,44.251 C4.78,44.282 4.676,44.45 4.678,44.731 C4.691,45.878 4.684,47.025 4.684,48.173 L4.684,48.173 Z M36.2,39.015 C35.989,38.631 35.838,38.35 35.681,38.072 C35.285,37.364 34.895,36.652 34.484,35.952 C34.242,35.541 33.828,35.513 33.432,35.629 C33.274,35.675 33.063,35.899 33.058,36.046 C33,37.761 32.977,39.476 32.943,41.192 C32.935,41.588 33.036,41.891 33.509,41.917 C33.983,41.944 34.274,41.745 34.352,41.271 C34.411,40.911 34.429,40.541 34.441,40.175 C34.456,39.714 34.445,39.253 34.445,38.792 C34.635,38.999 34.739,39.219 34.868,39.424 C35.308,40.122 35.744,40.826 36.208,41.509 C36.449,41.865 36.848,41.887 37.201,41.754 C37.367,41.693 37.553,41.438 37.565,41.26 C37.685,39.549 37.779,37.836 37.845,36.123 C37.851,35.963 37.648,35.702 37.486,35.645 C36.869,35.426 36.454,35.708 36.384,36.396 C36.3,37.227 36.265,38.064 36.2,39.015 L36.2,39.015 Z M44.595,15.701 C43.83,15.815 43.493,16.172 43.323,16.902 C42.847,18.942 42.288,20.965 41.69,22.975 C41.306,24.269 40.753,25.506 39.875,26.561 C38.783,27.869 37.351,28.046 35.96,27.057 C35.123,26.462 34.56,25.646 34.148,24.724 C34.063,24.534 34.052,24.247 34.133,24.057 C35.03,21.943 35.331,19.748 34.966,17.488 C34.856,16.805 34.578,16.139 34.3,15.498 C34.132,15.106 33.816,14.771 33.311,14.794 C32.821,14.816 32.6,15.188 32.421,15.561 C32.257,15.904 32.12,16.267 32.033,16.637 C31.442,19.138 31.604,21.624 32.215,24.1 C32.261,24.286 32.261,24.541 32.168,24.693 C31.396,25.949 30.417,27.019 29.184,27.839 C28.316,28.417 27.371,28.8 26.325,28.891 C24.491,29.05 23.198,28.155 22.282,26.679 C20.713,24.149 20.398,21.424 21.307,18.6 C21.954,16.588 23.357,15.269 25.416,14.759 C26.283,14.544 27.202,14.544 28.096,14.425 C28.425,14.382 28.897,14.488 28.967,14.053 C28.987,13.924 28.498,13.609 28.208,13.551 C25.676,13.044 23.391,13.56 21.482,15.355 C20.969,15.838 20.571,16.445 20.109,17.011 C19.429,15.58 18.283,14.694 16.78,14.329 C16.875,13.802 17.015,13.339 17.03,12.872 C17.051,12.227 16.652,11.98 16.024,12.131 C15.842,12.175 15.634,12.106 15.438,12.104 C15.262,12.102 15.07,12.077 14.911,12.135 C14.686,12.217 14.487,12.365 14.275,12.486 C13.755,12.103 13.525,12.102 13.02,12.525 C12.608,12.869 12.2,13.22 11.818,13.595 C11.569,13.84 11.343,14.118 11.162,14.416 C11.084,14.545 11.08,14.826 11.168,14.92 C11.275,15.034 11.534,15.093 11.695,15.05 C11.998,14.969 12.277,14.798 12.577,14.661 C12.704,15.038 12.709,15.522 13.251,15.577 C13.841,15.636 14.127,15.225 14.378,14.788 C14.497,14.581 14.595,14.362 14.734,14.086 C15.11,14.952 15.828,15.329 16.58,15.645 C18.271,16.358 19.044,17.686 19.016,19.451 C18.954,23.292 17.162,26.282 14.231,28.621 C12.89,29.692 11.737,29.659 10.367,28.61 C7.794,26.636 6.407,24.037 6.567,20.751 C6.643,19.16 7.066,17.666 8.441,16.622 C8.889,16.281 9.228,15.838 9.048,15.22 C9.413,15.203 9.764,15.244 10.077,15.153 C10.292,15.09 10.452,14.842 10.637,14.678 C10.444,14.508 10.27,14.225 10.055,14.189 C9.594,14.112 9.111,14.14 8.64,14.166 C7.756,14.215 7.606,14.448 7.902,15.25 C6.846,15.331 6.776,15.425 7.133,16.308 C6.099,17.003 5.54,18.024 5.237,19.195 C5.146,19.545 4.973,19.728 4.655,19.867 C3.926,20.187 3.42,20.712 3.299,21.536 C3.103,22.879 3.799,23.933 5.209,24.377 C5.487,24.464 5.638,24.6 5.755,24.86 C6.472,26.462 7.458,27.872 8.801,29.018 C10.912,30.821 12.987,30.941 15.268,29.369 C16.993,28.179 18.287,26.599 19.302,24.78 C19.378,24.644 19.458,24.512 19.569,24.317 C19.937,25.541 20.433,26.609 21.178,27.542 C22.554,29.264 24.249,30.374 26.563,30.101 C28.325,29.893 29.815,29.055 31.154,27.931 C31.806,27.384 32.437,26.811 33.04,26.283 C33.276,26.612 33.587,27.127 33.974,27.574 C35.668,29.534 38.392,29.691 40.311,27.951 C41.215,27.13 41.79,26.081 42.267,24.976 C43.134,22.967 43.598,20.842 44.016,18.706 C44.208,17.718 44.396,16.73 44.595,15.701 L44.595,15.701 Z M55.24,10.312 L55.24,56.53 L-1.77635684e-15,56.53 L-1.77635684e-15,0 L55.24,0 L55.24,8.194 C54.492,8.543 53.741,8.886 52.997,9.242 C51.743,9.842 50.492,10.451 49.209,11.072 C49.162,10.834 49.119,10.644 49.086,10.451 C48.656,7.884 48.239,5.313 47.78,2.75 C47.732,2.481 47.486,2.16 47.243,2.03 C46.529,1.649 45.869,2.09 45.746,2.941 C45.424,5.171 45.098,7.399 44.755,9.626 C44.59,10.696 44.387,11.761 44.199,12.842 C44.892,12.694 45.338,12.378 45.305,11.615 C45.293,11.343 45.367,11.067 45.399,10.794 C45.622,8.946 45.846,7.099 46.078,5.17 C46.127,5.303 46.157,5.357 46.166,5.414 C46.491,7.519 46.806,9.625 47.144,11.727 C47.194,12.04 47.039,12.125 46.82,12.232 C45.039,13.09 43.262,13.952 41.485,14.817 C41.321,14.897 41.15,14.979 41.013,15.097 C40.767,15.307 40.684,15.58 40.855,15.878 C41.014,16.155 41.264,16.234 41.565,16.139 C41.71,16.093 41.853,16.037 41.994,15.977 C43.643,15.276 45.291,14.574 46.94,13.873 C47.088,13.81 47.24,13.761 47.403,13.701 C47.443,13.81 47.473,13.864 47.481,13.922 C48.227,18.784 48.97,23.646 49.72,28.506 C49.817,29.141 49.914,29.78 50.084,30.396 C50.229,30.916 50.682,31.21 51.14,31.211 C51.613,31.212 52.082,30.911 52.225,30.435 C52.306,30.166 52.324,29.856 52.28,29.578 C51.948,27.506 51.592,25.437 51.243,23.367 C50.677,19.998 50.116,16.629 49.537,13.263 C49.473,12.892 49.567,12.734 49.918,12.589 C51.701,11.847 53.468,11.073 55.24,10.312 L55.24,10.312 Z" id="Fill-1" fill="#B91733" mask="url(#mask-2)"></path>
                </g>
                <path d="M55.2405,10.3117 C53.4675,11.0737 51.7015,11.8467 49.9195,12.5877 C49.5685,12.7337 49.4745,12.8907 49.5385,13.2617 C50.1175,16.6277 50.6785,19.9967 51.2445,23.3657 C51.5925,25.4357 51.9475,27.5047 52.2815,29.5767 C52.3255,29.8537 52.3065,30.1647 52.2265,30.4337 C52.0835,30.9097 51.6145,31.2107 51.1415,31.2097025 C50.6835,31.2087 50.2305,30.9137 50.0855,30.3947 C49.9145,29.7787 49.8185,29.1387 49.7205,28.5057 C48.9715,23.6447 48.2285,18.7827 47.4825,13.9207 C47.4725,13.8627 47.4425,13.8077 47.4045,13.6997 C47.2415,13.7607 47.0895,13.8087 46.9415,13.8717 C45.2925,14.5717 43.6445,15.2747 41.9945,15.9757 C41.8545,16.0347 41.7115,16.0917 41.5655,16.1387 C41.2645,16.2337 41.0135,16.1547 40.8555,15.8767 C40.6845,15.5797 40.7685,15.3057 41.0135,15.0957 C41.1515,14.9787 41.3215,14.8957 41.4855,14.8157 C43.2625,13.9507 45.0405,13.0887 46.8205,12.2307 C47.0405,12.1247 47.1955,12.0387 47.1455,11.7267 C46.8065,9.6237 46.4915,7.5177 46.1675,5.4127 C46.1585,5.3557 46.1285,5.3017 46.0795,5.1687 C45.8465,7.0977 45.6235,8.9457 45.4005,10.7927 C45.3675,11.0667 45.2945,11.3427 45.3065,11.6137 C45.3385,12.3767 44.8935,12.6937 44.1995,12.8407 C44.3885,11.7607 44.5925,10.6967 44.7565,9.6247 C45.0985,7.3987 45.4245,5.1697 45.7465,2.9407 C45.8695,2.0887 46.5305,1.6477 47.2435,2.0287 C47.4865,2.1597 47.7325,2.4797 47.7805,2.7487 C48.2395,5.3117 48.6575,7.8827 49.0875,10.4497 C49.1195,10.6417 49.1625,10.8327 49.2105,11.0707 C50.4935,10.4497 51.7445,9.8407 52.9985,9.2417 C53.7435,8.8847 54.4945,8.5427 55.2415,8.1927 C55.2405,8.8997 55.2405,9.6047 55.2405,10.3117" id="Fill-4" fill="#FEFEFE"></path>
                <path d="M4.9115,20.8678 C4.1885,21.5818 4.3055,22.6138 5.1035,23.0328 C5.0415,22.3338 4.9785,21.6238 4.9115,20.8678 M33.4135,16.6958 C32.9645,18.4448 32.9505,20.1958 33.3015,21.9538 C33.7385,20.2078 33.8505,18.4558 33.4135,16.6958 M44.5945,15.7018 C44.3965,16.7288 44.2075,17.7178 44.0135,18.7058 C43.5955,20.8418 43.1315,22.9668 42.2645,24.9768 C41.7875,26.0808 41.2125,27.1298 40.3085,27.9508 C38.3895,29.6908 35.6645,29.5338 33.9715,27.5748 C33.5845,27.1268 33.2725,26.6118 33.0385,26.2828 C32.4365,26.8108 31.8045,27.3828 31.1515,27.9308 C29.8125,29.0548 28.3225,29.8928 26.5605,30.1008 C24.2465,30.3748 22.5515,29.2638 21.1755,27.5418 C20.4305,26.6098 19.9345,25.5418 19.5665,24.3178 C19.4555,24.5108 19.3755,24.6438 19.2995,24.7798 C18.2845,26.5998 16.9915,28.1788 15.2655,29.3688 C12.9865,30.9418 10.9105,30.8208 8.7985,29.0178 C7.4555,27.8718 6.4705,26.4628 5.7525,24.8608 C5.6365,24.5998 5.4845,24.4648 5.2065,24.3768 C3.7985,23.9338 3.1005,22.8798 3.2975,21.5358 C3.4175,20.7128 3.9235,20.1868 4.6525,19.8668 C4.9705,19.7278 5.1435,19.5448 5.2345,19.1948 C5.5375,18.0238 6.0985,17.0028 7.1305,16.3078 C6.7745,15.4238 6.8435,15.3308 7.8995,15.2508 C7.6035,14.4488 7.7535,14.2148 8.6375,14.1658 C9.1095,14.1408 9.5925,14.1128 10.0525,14.1888 C10.2675,14.2248 10.4415,14.5078 10.6345,14.6788 C10.4495,14.8438 10.2885,15.0898 10.0745,15.1528 C9.7625,15.2448 9.4115,15.2028 9.0455,15.2198 C9.2255,15.8388 8.8865,16.2818 8.4395,16.6218 C7.0645,17.6668 6.6415,19.1618 6.5645,20.7518 C6.4055,24.0378 7.7915,26.6368 10.3655,28.6098 C11.7345,29.6598 12.8865,29.6918 14.2285,28.6218 C17.1595,26.2818 18.9525,23.2908 19.0135,19.4508 C19.0415,17.6868 18.2685,16.3578 16.5775,15.6458 C15.8265,15.3298 15.1075,14.9518 14.7315,14.0858 C14.5925,14.3628 14.4945,14.5818 14.3765,14.7878 C14.1235,15.2248 13.8375,15.6358 13.2485,15.5768 C12.7055,15.5228 12.7005,15.0378 12.5745,14.6608 C12.2745,14.7998 11.9955,14.9698 11.6925,15.0508 C11.5315,15.0938 11.2735,15.0338 11.1655,14.9208 C11.0775,14.8278 11.0825,14.5448 11.1605,14.4158 C11.3405,14.1188 11.5665,13.8398 11.8155,13.5948 C12.1975,13.2198 12.6055,12.8688 13.0175,12.5248 C13.5215,12.1018 13.7535,12.1028 14.2725,12.4868 C14.4835,12.3668 14.6825,12.2178 14.9085,12.1368 C15.0675,12.0788 15.2595,12.1028 15.4365,12.1048 C15.6325,12.1078 15.8395,12.1758 16.0215,12.1318 C16.6505,11.9808 17.0485,12.2288 17.0275,12.8738 C17.0125,13.3408 16.8725,13.8038 16.7775,14.3298 C18.2805,14.6948 19.4265,15.5818 20.1065,17.0128 C20.5685,16.4478 20.9665,15.8398 21.4805,15.3558 C23.3885,13.5608 25.6735,13.0458 28.2055,13.5518 C28.4945,13.6108 28.9835,13.9258 28.9645,14.0548 C28.8945,14.4888 28.4225,14.3838 28.0935,14.4268 C27.2005,14.5438 26.2805,14.5448 25.4135,14.7598 C23.3545,15.2698 21.9525,16.5898 21.3045,18.6018 C20.3955,21.4258 20.7105,24.1498 22.2795,26.6808 C23.1955,28.1578 24.4885,29.0528 26.3225,28.8928 C27.3675,28.8018 28.3135,28.4178 29.1815,27.8408 C30.4145,27.0198 31.3945,25.9508 32.1655,24.6938 C32.2585,24.5418 32.2595,24.2858 32.2125,24.1018 C31.6015,21.6258 31.4395,19.1408 32.0305,16.6378 C32.1175,16.2688 32.2545,15.9048 32.4185,15.5618 C32.5975,15.1878 32.8195,14.8158 33.3085,14.7948 C33.8145,14.7728 34.1295,15.1078 34.2985,15.4988 C34.5745,16.1408 34.8535,16.8068 34.9645,17.4888 C35.3285,19.7508 35.0275,21.9438 34.1305,24.0588 C34.0505,24.2478 34.0605,24.5348 34.1455,24.7258 C34.5565,25.6468 35.1195,26.4628 35.9575,27.0578 C37.3495,28.0478 38.7825,27.8708 39.8725,26.5618 C40.7515,25.5078 41.3035,24.2698 41.6875,22.9758 C42.2855,20.9678 42.8445,18.9438 43.3215,16.9028 C43.4935,16.1718 43.8305,15.8148 44.5945,15.7018" id="Fill-6" fill="#FEFEFE"></path>
                <path d="M36.1996,39.0148 C36.2646,38.0638 36.2996,37.2268 36.3846,36.3948 C36.4546,35.7068 36.8686,35.4248 37.4866,35.6438 C37.6476,35.7018 37.8516,35.9628 37.8456,36.1218 C37.7796,37.8348 37.6846,39.5488 37.5656,41.2588 C37.5526,41.4368 37.3666,41.6918 37.2016,41.7528 C36.8486,41.8858 36.4486,41.8638 36.2076,41.5078 C35.7436,40.8248 35.3086,40.1228 34.8676,39.4228 C34.7386,39.2178 34.6356,38.9978 34.4446,38.7908 C34.4446,39.2518 34.4566,39.7138 34.4406,40.1738 C34.4296,40.5398 34.4096,40.9098 34.3516,41.2698 C34.2736,41.7448 33.9826,41.9428 33.5086,41.9158 C33.0356,41.8888 32.9356,41.5858 32.9426,41.1908 C32.9766,39.4748 32.9996,37.7598 33.0576,36.0448 C33.0626,35.8968 33.2756,35.6748 33.4326,35.6278 C33.8286,35.5108 34.2426,35.5398 34.4836,35.9508 C34.8956,36.6498 35.2836,37.3628 35.6816,38.0708 C35.8386,38.3498 35.9896,38.6308 36.1996,39.0148" id="Fill-8" fill="#FEFEFE"></path>
                <path d="M6.2063,49.3477 C7.0653,49.3577 7.7433,49.0467 8.2133,48.3537 C8.6793,47.6677 8.6823,46.9267 8.2483,46.2367 C7.7913,45.5087 7.0583,45.2917 6.2053,45.3077 C6.2063,46.6577 6.2063,47.9797 6.2063,49.3477 L6.2063,49.3477 Z M4.6833,48.1727 C4.6833,47.0257 4.6903,45.8787 4.6793,44.7307 C4.6763,44.4497 4.7813,44.2827 5.0513,44.2507 C6.2113,44.1157 7.3733,44.0197 8.4833,44.5067 C9.4313,44.9227 9.8453,45.7227 10.0083,46.7007 C10.3513,48.7687 9.2143,50.2777 7.1313,50.4557 C6.5113,50.5087 5.8793,50.4947 5.2563,50.4547 C4.7013,50.4177 4.6063,50.2757 4.6043,49.7347 C4.6033,49.2137 4.6043,48.6937 4.6043,48.1727 L4.6833,48.1727 Z" id="Fill-10" fill="#FEFEFE"></path>
                <path d="M23.4468,36.5659 L23.4468,38.6719 C24.0398,38.6989 24.6358,38.7239 24.9128,38.1849 C25.0668,37.8829 25.0608,37.3769 24.9128,37.0669 C24.6308,36.4799 24.0048,36.5729 23.4468,36.5659 M25.6688,39.3629 C25.9968,39.8589 26.3878,40.4249 26.7538,41.0069 C27.0288,41.4449 26.9478,41.6139 26.4448,41.7529 C25.8008,41.9319 25.3918,41.8059 25.0078,41.2539 C24.7198,40.8399 24.4678,40.3999 24.2068,39.9679 C23.9828,39.5959 23.9858,39.5939 23.4778,39.6739 C23.4778,40.1969 23.4618,40.7279 23.4838,41.2579 C23.4988,41.6149 23.3248,41.7659 23.0078,41.7979 C22.8248,41.8159 22.6398,41.8139 22.4568,41.8079 C21.9258,41.7909 21.8098,41.6769 21.8117748,41.1479 C21.8128,39.5709 21.8278,37.9919 21.8158,36.4149 C21.8128,35.9339 21.9648,35.6549 22.4858,35.6679 C23.3548,35.6879 24.2398,35.6119 25.0918,35.7439 C26.3688,35.9419 27.0448,37.2179 26.5168,38.3429 C26.3378,38.7209 25.9698,39.0079 25.6688,39.3629" id="Fill-12" fill="#FEFEFE"></path>
                <path d="M23.3735,45.7864 C23.3735,45.4024 23.3435,45.0154 23.3885,44.6384 C23.4075,44.4854 23.5715,44.2604 23.7045,44.2314 C23.9955,44.1684 24.3205,44.1604 24.6095,44.2274 C24.7635,44.2634 24.9685,44.4944 24.9835,44.6534 C25.1185,46.0524 25.0725,47.4464 24.5575,48.7754 C24.0065,50.1974 22.8495,50.8014 21.4025,50.4624 C20.4745,50.2454 19.9225,49.6164 19.6425,48.7494 C19.1935,47.3604 19.3185,45.9634 19.6995,44.5834 C19.8335,44.1004 20.5645,43.8664 20.9545,44.1864 C21.0905,44.2974 21.1415,44.5784 21.1415,44.7824 C21.1405,45.8064 21.0865,46.8314 21.1015,47.8544 C21.1055,48.1944 21.1965,48.5734 21.3725,48.8594 C21.5195,49.0994 21.8425,49.3604 22.0965,49.3694 C22.3515,49.3794 22.7705,49.1424 22.8505,48.9184 C23.0935,48.2364 23.2305,47.5124 23.3635,46.7964 C23.4225,46.4714 23.3725,46.1234 23.3735,45.7864" id="Fill-14" fill="#FEFEFE"></path>
                <path d="M42.5458,45.798 C42.5758,46.831 42.4788,47.849 42.0808,48.816 C41.5068,50.215 40.3258,50.831 38.9028,50.451 C37.7038,50.131 37.2248,49.198 37.0118,48.084 C36.7958,46.95 36.9218,45.825 37.1978,44.716 C37.3328,44.177 37.8808,43.887 38.3788,44.122 C38.5328,44.194 38.6768,44.469 38.6758,44.651 C38.6728,45.554 38.5948,46.456 38.5978,47.359 C38.5988,47.781 38.6888,48.212 38.7988,48.622 C38.9038,49.019 39.1238,49.371 39.5968,49.402 C40.0848,49.435 40.4088,49.137 40.5128,48.714 C40.6978,47.962 40.8368,47.193 40.9228,46.423 C40.9818,45.911 40.9248,45.383 40.8998,44.864 C40.8768,44.357 40.9688,44.227 41.4688,44.181 C41.6648,44.164 41.8668,44.168 42.0638,44.193 C42.3748,44.232 42.5618,44.39 42.5478,44.741 C42.5338,45.094 42.5458,45.446 42.5458,45.798" id="Fill-16" fill="#FEFEFE"></path>
                <path d="M16.5729,48.0378 C16.3729,47.4588 16.1839,46.9118 15.9659,46.2828 C15.6869,46.9108 15.4429,47.4578 15.1849,48.0378 L16.5729,48.0378 Z M17.0099,49.0578 L14.7959,49.0578 C14.6599,49.3288 14.4889,49.6498 14.3379,49.9798 C14.1379,50.4168 13.7869,50.5668 13.3349,50.5558 C12.8789,50.5438 12.6959,50.3578 12.8139,49.9158 C12.9719,49.3268 13.1429,48.7308 13.3999,48.1808 C13.9619,46.9738 14.5829,45.7968 15.1759,44.6048 C15.3689,44.2158 15.6679,44.0488 16.1019,44.0688 C16.5279,44.0868 16.6389,44.3848 16.7819,44.7058 C17.5439,46.4108 18.3159,48.1098 19.0949,49.8068 C19.2969,50.2488 19.2139,50.4268 18.7359,50.4768 C17.8029,50.5738 17.6539,50.4868 17.2579,49.6158 C17.1759,49.4338 17.0969,49.2528 17.0099,49.0578 L17.0099,49.0578 Z" id="Fill-18" fill="#FEFEFE"></path>
                <path d="M7.2838,37.7363 C6.9908,38.3683 6.7548,38.8813 6.4888,39.4553 L7.8838,39.4553 C7.6918,38.9053 7.5118,38.3883 7.2838,37.7363 M9.6798,41.8173 C8.9838,41.9393 8.7448,41.4433 8.5518,40.9243 C8.4108,40.5453 8.2418,40.3663 7.7848,40.4673 C7.4228,40.5483 7.0188,40.5093 6.6458,40.4483 C6.2548,40.3843 6.0098,40.4413 5.8848,40.8573 C5.8158,41.0863 5.6808,41.3053 5.5358,41.4983 C5.4318,41.6363 5.2708,41.7943 5.1168,41.8133 C4.8278,41.8513 4.4558,41.8943 4.2548,41.7473 C4.1168,41.6463 4.1338,41.2083 4.2088,40.9583 C4.7468,39.1733 5.6378,37.5513 6.5838,35.9583 C6.7838,35.6223 7.1308,35.5183 7.4608,35.6193 C7.6848,35.6883 7.9298,35.9023 8.0328,36.1163 C8.8428,37.7953 9.6178,39.4913 10.4088,41.1793 C10.6048,41.5953 10.5188,41.7673 10.0548,41.8153 C9.9358,41.8273 9.8128,41.8173 9.6798,41.8173" id="Fill-20" fill="#FEFEFE"></path>
                <path d="M33.5193,45.1936 L33.5193,46.7576 C34.0483,46.7576 34.5503,46.7566 35.0513,46.7596 C35.1893,46.7606 35.3533,46.7266 35.4583,46.7886 C35.6243,46.8866 35.7513,47.0536 35.8953,47.1916 C35.7463,47.3226 35.6083,47.5516 35.4473,47.5686 C34.9163,47.6226 34.3773,47.6016 33.8403,47.6116 C33.7493,47.6126 33.6603,47.6196 33.5113,47.6266 L33.5113,49.3776 C34.2483,49.3776 34.9653,49.3746 35.6813,49.3786 C36.0953,49.3826 36.2383,49.6176 36.2103,50.0076 C36.1833,50.3706 36.0523,50.5616 35.6433,50.5516 C34.6773,50.5296 33.7113,50.5486 32.7453,50.5436 C31.9493,50.5386 31.7383,50.3226 31.7313,49.5446 C31.7203,48.1036 31.6983,46.6636 31.6972785,45.2236 C31.6953,44.2856 31.8313,44.1676 32.7593,44.1606 C33.7253,44.1526 34.6893,44.1316 35.6553,44.1266 C35.9093,44.1255685 36.2163,44.0936 36.2303,44.4786 C36.2433,44.8336 36.1953,45.1906 35.7463,45.2286 C35.2923,45.2676 34.8313,45.2626 34.3733,45.2586 C34.1013,45.2566 33.8313,45.2196 33.5193,45.1936" id="Fill-22" fill="#FEFEFE"></path>
                <path d="M12.5478,39.073 C13.1538,39.06 13.7178,39.036 14.0328,38.488 C14.2838,38.052 14.2688,37.562 13.9778,37.144 C13.6308,36.647 13.1038,36.605 12.5468,36.669 C12.5478,37.482 12.5478,38.264 12.5478,39.073 M12.5918,40.026 C12.5918,40.426 12.5668,40.821 12.5988,41.209 C12.6338,41.615 12.4378,41.777 12.0778,41.801 C11.8488,41.816 11.6178,41.814 11.3898,41.796 C11.0888,41.773 10.9208,41.618 10.9227823,41.291 C10.9358,39.593 10.9438,37.893 10.9488,36.195 C10.9498,35.881 11.0708,35.698 11.4038,35.701 C12.2568,35.709 13.1228,35.63 13.9608,35.748 C15.1448,35.914 15.7688,36.78 15.7188,37.953 C15.6698,39.11 14.9988,39.817 13.7918,39.959 C13.4018,40.004 13.0058,40.004 12.5918,40.026" id="Fill-24" fill="#FEFEFE"></path>
                <path d="M17.9677,39.0776 C18.5887,39.0556 19.1667,39.0256 19.4787,38.4416 C19.7097,38.0086 19.6847,37.5336 19.3977,37.1346 C19.0427,36.6416 18.5067,36.6116 17.9677,36.6616 L17.9677,39.0776 Z M18.0207,40.0286 C18.0207,40.4086 18.0017,40.7876 18.0257,41.1636 C18.0537,41.5926 17.8677,41.7946 17.4497,41.8066 C17.3727,41.8086 17.2957,41.8106 17.2187,41.8106 C16.4437,41.8146 16.3347,41.7556 16.3307,41.0106 C16.3217,39.3896 16.3497,37.7676 16.3927,36.1466 C16.3967,35.9986 16.6147,35.7326 16.7377,35.7306 C17.6647,35.7126 18.6107,35.6386 19.5147,35.7916 C20.6617,35.9866 21.2147,36.8626 21.1267,37.9986 C21.0347,39.1646 20.3937,39.8286 19.2097,39.9586 C18.8197,40.0026 18.4247,40.0066 18.0207,40.0286 L18.0207,40.0286 Z" id="Fill-26" fill="#FEFEFE"></path>
                <path d="M29.3978,38.9753 L29.3978,40.6853 C30.0808,40.6853 30.7488,40.6753 31.4168,40.6883 C31.9398,40.6993 32.1358,40.9673 32.0138,41.4583 C31.9558,41.6923 31.8428,41.8193 31.5698,41.816352 C30.5588,41.8023 29.5468,41.8193 28.5358,41.8063 C27.9248,41.7993 27.6918,41.5733 27.6868,40.9783 C27.6768,39.4323 27.6878,37.8853 27.6777652,36.3383 C27.6748,35.9233 27.8658,35.6713 28.2588,35.6613 C29.4218,35.6323 30.5868,35.6313 31.7498,35.6463 C31.8518,35.6473 32.0168,35.8443 32.0348,35.9673 C32.0788,36.2663 32.0218,36.6063 31.6618,36.6523 C31.1658,36.7133 30.6588,36.6973 30.1568,36.6973 C29.9158,36.6973 29.6768,36.6593 29.4068,36.6363 L29.4068,38.1393 C29.7638,38.1393 30.0948,38.1383 30.4278,38.1393 C30.6108,38.1393 30.7988,38.1233 30.9788,38.1503 C31.2808,38.1933 31.7118,38.1283 31.6918,38.5983 C31.6708,39.0753 31.2458,38.9653 30.9438,38.9733 C30.4418,38.9853 29.9398,38.9753 29.3978,38.9753" id="Fill-28" fill="#FEFEFE"></path>
                <path d="M47.89,40.6304 C48.314,40.5794 48.748,40.5654 49.158,40.4594 C49.341,40.4114 49.564,40.1984 49.601,40.0244 C49.629,39.8944 49.422,39.6514 49.262,39.5544 C48.741,39.2344 48.178,38.9824 47.659,38.6604 C47.1,38.3144 46.684,37.8524 46.796,37.1204 C46.914,36.3604 47.446,35.9424 48.127,35.8404 C48.95,35.7174 49.796,35.7304 50.633,35.7304 C50.992,35.7304 51.107,36.0264 51.092,36.3524 C51.077,36.6924 50.928,36.8734 50.545,36.8654 C50.057,36.8564 49.564,36.8794 49.08,36.9444 C48.898,36.9694 48.601,37.1444 48.597,37.2634 C48.589,37.4434 48.743,37.7064 48.906,37.8044 C49.374,38.0894 49.887,38.3014 50.374,38.5594 C50.907,38.8424 51.316,39.2264 51.408,39.8734 C51.515,40.6354 51.262,41.2084 50.561,41.5334 C49.468,42.0414 48.331,42.0114 47.194,41.6994 C46.833,41.6014 46.7,41.3184 46.754,40.9454 C46.811,40.5544 47.096,40.5784 47.379,40.5874 C47.547,40.5934 47.716,40.5884 47.884,40.5884 C47.887,40.6034 47.889,40.6164 47.89,40.6304" id="Fill-30" fill="#FEFEFE"></path>
                <path d="M27.7892,45.461 C27.2802,45.414 26.7952,45.375 26.3122,45.325 C25.9362,45.285 25.8042,45.073 25.8222,44.695 C25.8412,44.3 26.0152,44.162 26.3942,44.1649523 C27.8332,44.18 29.2722,44.184 30.7112,44.184 C31.0892,44.184 31.1792,44.425 31.1912,44.722 C31.2042,45.026 31.1622,45.322 30.7592,45.347 C30.4082,45.369 30.0532,45.417 29.7042,45.394 C29.2722,45.363 29.2002,45.556 29.2102,45.936 C29.2442,47.13 29.2562,48.325 29.2512,49.52 C29.2482,50.4 28.6972,50.736 27.8552,50.419 C27.5382,50.3 27.5152,50.052 27.5302,49.785 C27.6022,48.485 27.6812,47.186 27.7582,45.888 C27.7662,45.749 27.7772,45.613 27.7892,45.461" id="Fill-32" fill="#FEFEFE"></path>
                <path d="M41.7763,36.8564 C41.7763,38.1074 41.7773,39.3144 41.7753,40.5224 C41.7753,40.7364 41.7563,40.9504 41.7433,41.1644 C41.7283,41.4184 41.7783,41.7614 41.4333,41.7894 C41.0233,41.8214 40.6003,41.7704 40.1943,41.6924 C40.1173,41.6784 40.0503,41.3704 40.0573,41.2024 C40.1173,39.8724 40.1983,38.5434 40.2723,37.2134 C40.2783,37.1074 40.2913,37.0004 40.3013,36.8724 C39.8213,36.8294 39.3533,36.7894 38.8843,36.7444 C38.4923,36.7084 38.3433,36.5054 38.3523,36.1024 C38.3603,35.6814 38.5783,35.5734 38.9303,35.5763397 C40.3843,35.5884 41.8383,35.6014 43.2923,35.6154 C43.7033,35.6184 43.6873,35.9484 43.6963,36.2094 C43.7073,36.4744 43.6483,36.7344 43.2843,36.7534 C42.7813,36.7784 42.2793,36.8214 41.7763,36.8564" id="Fill-34" fill="#FEFEFE"></path>
                <path d="M48.885,49.3059 C49.61,49.3499 50.284,49.3619 50.949,49.4479 C51.167,49.4759 51.451,49.6549 51.542,49.8429 C51.764,50.3019 51.565,50.5539 51.056,50.5549 C49.982,50.5579 48.909,50.5609 47.835,50.5539 C47.264,50.5509 47.124,50.4619 47.125979,49.8959 C47.135,48.1829 47.183,46.4699 47.226,44.7569 C47.236,44.3819 47.387,44.1199 47.832,44.1218886 C48.485,44.1269 48.744,44.2599 48.77,44.7869 C48.833,46.1339 48.849,47.4819 48.884,48.8309 C48.887,48.9829 48.885,49.1339 48.885,49.3059" id="Fill-36" fill="#FEFEFE"></path>
                <path d="M45.7758,47.5241 C45.7188,48.3641 45.6558,49.2041 45.6058,50.0441 C45.5838,50.4131 45.3738,50.5511 45.0358,50.5551 C44.9588,50.5561454 44.8818,50.5561454 44.8048,50.5561454 C44.0758,50.5581 43.9408,50.4971 43.9438,49.7591 C43.9508,48.0761 44.0338,46.3941 44.0808,44.7121 C44.0938,44.2791 44.3228,44.1361 44.7328,44.1511 C45.3678,44.1741 45.5488,44.2611 45.5888,44.7251 C45.6668,45.6551 45.7158,46.5881 45.7758,47.5241" id="Fill-38" fill="#FEFEFE"></path>
                <path d="M45.9734,38.9323 C45.9354,39.6633 45.9064,40.4283 45.8504,41.1903 C45.8094,41.7583 45.6504,41.8823 45.0554,41.8903 C44.4214,41.8983 44.2074,41.7743 44.2093861,41.2093 C44.2124,39.5743 44.2394,37.9373 44.3144,36.3043 C44.3454,35.6373 45.0784,35.3403 45.6064,35.7653 C45.7704,35.8973 45.8254,36.2223 45.8444,36.4663 C45.9084,37.2733 45.9324,38.0853 45.9734,38.9323" id="Fill-40" fill="#FEFEFE"></path>
                <path d="M26.327,26.3213 C24.965,26.2633 23.997,26.0163 23.207,25.3103 C22.974,25.1023 22.78,24.8273 22.638,24.5483 C22.567,24.4093 22.59,24.1083 22.69,24.0253 C22.82,23.9173 23.071,23.9313 23.269,23.9383 C23.356,23.9413 23.457,24.0413 23.524,24.1203 C24.385,25.1543 25.526,25.2553 26.744,25.0873 C27.031,25.0473 27.313,24.9673 27.595,24.9003 C27.921,24.8223 28.188,24.9083 28.311,25.2253 C28.438,25.5533 28.231,25.7743 27.952,25.8633 C27.316,26.0653 26.669,26.2263 26.327,26.3213" id="Fill-42" fill="#FEFEFE"></path>
                <path d="M12.3014,27.0408 C11.3764,27.0048 10.5684,26.6988 9.9314,26.0068 C9.7314,25.7878 9.5924,25.5418 9.8254,25.2768 C10.0684,25.0008 10.3474,25.0738 10.5984,25.2808 C11.5004,26.0238 12.4964,26.0168 13.5394,25.6598 C13.6694,25.6158 13.8124,25.5008 13.9204,25.5288 C14.1234,25.5798 14.3764,25.6708 14.4724,25.8278 C14.5384,25.9338 14.4304,26.2518 14.3024,26.3558 C13.7274,26.8248 13.0334,27.0048 12.3014,27.0408" id="Fill-44" fill="#FEFEFE"></path>
                <path d="M13.5428,44.8566 C13.5418,44.8716 13.5418,44.8866 13.5408,44.9016 C13.4798,45.4596 12.0868,46.6376 11.5178,46.6116 C11.1218,46.5946 10.8698,46.2166 11.0888,45.8566 C11.4388,45.2846 11.8298,44.7266 12.2808,44.2326 C12.4118,44.0886 12.8408,44.0976 13.0658,44.1926 C13.2948,44.2896 13.4408,44.5816 13.6228,44.7866 C13.5958,44.8106 13.5698,44.8336 13.5428,44.8566" id="Fill-46" fill="#FEFEFE"></path>
                <path d="M28.6516,19.6822 C29.0946,19.8342 29.6096,19.9712 30.0866,20.1882 C30.3896,20.3252 30.6066,20.6152 30.4326,20.9832 C30.2506,21.3642 29.9476,21.2482 29.6056,21.1832 C29.0456,21.0762 28.4646,21.0362 27.8926,21.0492 C27.5746,21.0562 27.2926,21.0972 27.1846,20.7392 C27.0826,20.4002 27.2296,20.1062 27.5366,19.9752 C27.8556,19.8392 28.2096,19.7942 28.6516,19.6822" id="Fill-48" fill="#FEFEFE"></path>
                <path d="M23.5514,18.5873 C24.0264,18.7573 24.5624,18.9153 25.0654,19.1453 C25.2654,19.2373 25.4724,19.4653 25.5304,19.6713 C25.5844,19.8643 25.5034,20.1613 25.3694,20.3173 C25.2854,20.4143 24.9594,20.4093 24.8074,20.3283 C24.1904,19.9963 23.5644,19.7763 22.8474,19.8033 C22.6824,19.8093 22.4064,19.6023 22.3654,19.4453 C22.3224,19.2823 22.4504,18.9763 22.5984,18.8833 C22.8404,18.7323 23.1594,18.7003 23.5514,18.5873" id="Fill-50" fill="#FEFEFE"></path>
                <path d="M15.6965,19.0395 C16.0905,19.1665 16.4645,19.2465 16.8015,19.4055 C17.1345,19.5625 17.2855,19.8815 17.2085,20.2495 C17.1485,20.5385 17.0075,20.7445 16.6305,20.6535 C16.0825,20.5215 15.5205,20.4445 14.9735,20.3125 C14.8075,20.2715 14.5435,20.1265 14.5425,20.0255 C14.5385,19.8115 14.6175,19.5075 14.7725,19.3975 C15.0305,19.2135 15.3755,19.1555 15.6965,19.0395" id="Fill-52" fill="#FEFEFE"></path>
                <path d="M10.2349,19.0395 C10.5869,19.1685 10.8869,19.2045 11.0739,19.3685 C11.2279,19.5035 11.3049,19.7925 11.2999,20.0115 C11.2969,20.1135 11.0329,20.2575 10.8669,20.2995 C10.3649,20.4265 9.8529,20.5085 9.3459,20.6135 C9.0809,20.6675 8.7569,20.7165 8.6939,20.4015 C8.6449,20.1585 8.7119,19.7435 8.8789,19.6355 C9.2959,19.3625 9.7989,19.2205 10.2349,19.0395" id="Fill-54" fill="#FEFEFE"></path>
                <path d="M12.506,24.035 C12.163,23.857 11.781,23.711 11.472,23.47 C11.361,23.385 11.366,23.042 11.442,22.874 C11.482,22.788 11.839,22.752 11.981,22.826 C12.396,23.047 12.778,23.044 13.212,22.891 C13.375,22.833 13.602,22.952 13.801,22.99 C13.738,23.204 13.742,23.519 13.6,23.612 C13.303,23.805 12.933,23.879 12.506,24.035" id="Fill-56" fill="#FEFEFE"></path>
                <path d="M33.4135,16.6963 C33.8505,18.4563 33.7385,20.2073 33.3015,21.9533 C32.9525,20.1963 32.9665,18.4443 33.4135,16.6963" id="Fill-58" fill="#B91733"></path>
                <path d="M4.9115,20.8678 C4.9785,21.6248 5.0415,22.3338 5.1035,23.0328 C4.3075,22.6138 4.1895,21.5798 4.9115,20.8678" id="Fill-60" fill="#B91733"></path>
                <path d="M6.2063,49.3477 L6.2063,45.3067 C7.0593,45.2897 7.7913,45.5087 8.2493,46.2347 C8.6833,46.9257 8.6813,47.6657 8.2143,48.3527 C7.7433,49.0467 7.0653,49.3577 6.2063,49.3477" id="Fill-62" fill="#B91733"></path>
                <path d="M23.4468,36.5659 C24.0058,36.5729 24.6328,36.4799 24.9128,37.0669 C25.0608,37.3769 25.0668,37.8829 24.9128,38.1849 C24.6358,38.7239 24.0398,38.6989 23.4468,38.6719 L23.4468,36.5659 Z" id="Fill-64" fill="#B91733"></path>
                <path d="M16.5729,48.0378 L15.1849,48.0378 C15.4429,47.4578 15.6869,46.9108 15.9659,46.2828 C16.1839,46.9108 16.3729,47.4588 16.5729,48.0378" id="Fill-66" fill="#B91733"></path>
                <path d="M7.2838,37.7363 C7.5118,38.3883 7.6918,38.9053 7.8838,39.4553 L6.4888,39.4553 C6.7538,38.8813 6.9908,38.3683 7.2838,37.7363" id="Fill-68" fill="#B91733"></path>
                <path d="M12.5478,39.073 L12.5478,36.669 C13.1048,36.607 13.6308,36.647 13.9788,37.144 C14.2708,37.561 14.2858,38.051 14.0348,38.488 C13.7178,39.036 13.1538,39.06 12.5478,39.073" id="Fill-70" fill="#B91733"></path>
                <path d="M17.9677,39.0776 L17.9677,36.6626 C18.5067,36.6126 19.0427,36.6426 19.3977,37.1356 C19.6847,37.5356 19.7107,38.0096 19.4787,38.4426 C19.1657,39.0256 18.5877,39.0556 17.9677,39.0776" id="Fill-72" fill="#B91733"></path>
            </g>
        </g>
    </g>
</svg>