<?xml version="1.0" encoding="UTF-8"?>
<svg width="127px" height="96px" viewBox="0 0 127 96" version="1.1" xmlns="http://www.w3.org/2000/svg" xmlns:xlink="http://www.w3.org/1999/xlink">
    <title>logo-part-regionsud</title>
    <defs>
        <polygon id="path-1" points="0 66 110 66 110 0 0 0"></polygon>
    </defs>
    <g id="Page-1" stroke="none" stroke-width="1" fill="none" fill-rule="evenodd">
        <g id="Desktop-HD" transform="translate(-942.000000, -752.000000)">
            <g id="Group-43" transform="translate(950.000000, 768.000000)">
                <path d="M33.0225475,48 C29.7193434,48 27.0225475,50.6742484 27,53.9774525 C27,57.28125 29.6742484,59.9774525 32.9774525,60 C36.28125,60 38.9774525,57.3257516 39,54.0225475 L39,53.9774525 C39,50.6742484 36.3257516,48 33.0225475,48 L33.0225475,48 Z M33.0225475,57.6853244 C30.9998022,57.6853244 29.3372231,56.0452927 29.3372231,54 C29.3372231,51.9553006 30.9778481,50.3146756 33.0225475,50.3146756 C35.0452927,50.3146756 36.7078718,51.9553006 36.7078718,54 C36.7304193,56.0001978 35.1123418,57.6633703 33.112144,57.6853244 L33.0225475,57.6853244 Z" id="Fill-1" fill="#9AC331"></path>
                <path d="M32,62 L32,66.8977657 L32.2474227,66.8977657 L32.2474227,67 L33.7520744,67 L33.7520744,66.8977657 L34,66.8977657 L34,62 L32,62 Z M32.4380186,62.7433988 L33.5046517,62.7433988 L33.5046517,62.6411645 L32.4380186,62.6411645 L32.4380186,62.7433988 Z" id="Fill-3" fill="#9AC331"></path>
                <mask id="mask-2" fill="white">
                    <use xlink:href="#path-1"></use>
                </mask>
                <g id="Clip-6"></g>
                <polygon id="Fill-5" fill="#89CCCB" mask="url(#mask-2)" points="0 60 17 60 17 58 0 58"></polygon>
                <path d="M74.9542338,58.8918668 C74.9542338,58.8017116 74.2930332,51 66.9264869,51 C62.8665462,51 60.859459,53.3064217 59.8333333,55.4773119 C58.7385585,54.0073637 56.9596998,53.1708903 55.112192,53.2389545 C50.5735131,53.2389545 49.1595794,57.1508558 49.0457662,59.2083057 L49,59.9092477 L51.3720122,59.9092477 L51.3720122,59.3438371 C51.3720122,59.1856176 51.623124,55.5680642 55.112192,55.5680642 C57.370391,55.5680642 58.2598203,57.0374154 58.6476283,58.258989 C58.7843246,58.7109593 58.8523717,59.2083057 58.8523717,59.6835611 L58.8523717,59.9773119 L61.2243839,59.9773119 L61.2243839,59.7283402 C61.2243839,58.9372429 61.3387993,58.1228606 61.5893089,57.3765424 C62.1595794,55.5901552 63.55063,53.3971739 66.9264869,53.3971739 C72.2172966,53.3971739 72.6279878,58.8918668 72.6279878,59.0954624 L72.6737539,60 L75,59.9546239 L74.9542338,58.8918668 Z" id="Fill-7" fill="#EA5C2D" mask="url(#mask-2)"></path>
                <polygon id="Fill-8" fill="#020303" mask="url(#mask-2)" points="16.4757558 21.8046022 11.3047212 17 10 17 10 29 11.8361798 29 11.8361798 19.8604583 16.4757558 24.1953978 21.1631822 19.8604583 21.1631822 29 23 29 23 17 21.6952788 17"></polygon>
                <path d="M36,29 L36,21.7100977 C36,19.1083802 33.7619916,17 31.0003143,17 C28.2380084,17 26,19.1083802 26,21.7100977 L26,29 L27.7860062,29 L27.7860062,23.7959728 L34.2378827,23.7959728 L34.2378827,29 L36,29 Z M31.0003143,18.6375481 C31.8571698,18.6150429 32.6668762,18.9514362 33.2622116,19.534202 C33.8808072,20.0950548 34.2146225,20.857862 34.2146225,21.6650874 L34.2146225,22.1140065 L27.7621173,22.1140065 L27.7621173,21.6650874 C27.7382285,20.857862 28.0714151,20.0506367 28.7145282,19.4897838 C29.3098636,18.928931 30.1428302,18.6150429 31.0003143,18.6375481 L31.0003143,18.6375481 Z" id="Fill-9" fill="#020303" mask="url(#mask-2)"></path>
                <path d="M39,29 L40.7767101,29 L40.7767101,23.8061218 L42.2700225,23.8061218 L47.7665631,29 L48.9989993,29 L48.9989993,27.8361504 L44.7811896,23.8510444 L45.3736348,23.8510444 C46.345195,23.8735057 47.2692094,23.5153072 47.9323477,22.8438328 C48.6198844,22.2166899 49.0221466,21.343655 48.9989993,20.4262885 C49.0221466,19.508331 48.6430317,18.6352961 47.9323477,18.0081532 C47.2692094,17.3591401 46.345195,16.9784803 45.3736348,17.0009416 L39.0475458,17.0009416 L39,29 Z M45.3498619,18.6577574 C46.3921151,18.6577574 47.2216636,19.4634084 47.2216636,20.4262885 C47.2454365,20.8962024 47.0321061,21.3211937 46.6767641,21.6350607 C46.345195,21.9707979 45.8472157,22.1723584 45.3498619,22.1498971 L40.800483,22.1498971 L40.800483,18.6577574 L45.3498619,18.6577574 Z" id="Fill-10" fill="#020303" mask="url(#mask-2)"></path>
                <path d="M61.9303672,23.1670573 C61.2656067,22.4968404 60.3387048,22.1393127 59.3653952,22.161732 L56.6336059,22.161732 C56.1350355,22.1841512 55.6835001,21.9829681 55.3511198,21.6478597 C54.9949086,21.3345805 54.8048874,20.9103851 54.8048874,20.4407613 C54.8048874,19.9717275 54.9949086,19.5251129 55.3511198,19.1900045 C55.6835001,18.854306 56.1350355,18.653713 56.6336059,18.6755422 L62.999001,18.6755422 L62.999001,17 L56.6336059,17 C55.659669,17 54.7333943,17.3575277 54.0686338,18.0053253 C53.3800423,18.653713 53,19.5026937 53,20.4189321 C53,22.2956573 54.6386973,23.8148549 56.6336059,23.8372742 L59.3653952,23.8372742 C60.4101979,23.8372742 61.2417757,24.6420064 61.2417757,25.6024933 C61.2656067,26.0721171 61.0517545,26.4963124 60.6955432,26.8090017 C60.3625359,27.1441101 59.8639655,27.3452932 59.3653952,27.3228739 L53,27.3228739 L53,28.9990061 L59.3653952,28.9990061 C60.3387048,29.0214253 61.2656067,28.6638977 61.9303672,27.9936808 C62.6189587,27.3677124 62.999001,26.4963124 62.999001,25.580074 C63.0228321,24.6644256 62.6189587,23.7924357 61.9303672,23.1670573" id="Fill-11" fill="#020303" mask="url(#mask-2)"></path>
                <path d="M16.3502254,33 L10,33 L10,46 L11.7768118,46 L11.7768118,40.3938457 L16.3739996,40.3938457 C17.3456154,40.4180899 18.2696827,40.0314586 18.9328589,39.3066843 C19.6204351,38.6297605 20.0227203,37.6874264 19.998946,36.6972419 C20.0227203,35.7064193 19.6435837,34.7640852 18.9328589,34.0871614 C18.2696827,33.3866313 17.3218412,33 16.3502254,33 L16.3502254,33 Z M11.8005861,34.8361798 L16.3502254,34.8361798 C17.3925383,34.8361798 18.2221342,35.7064193 18.2221342,36.7450923 C18.2459084,37.2529446 18.0325659,37.7116706 17.6772035,38.0504515 C17.3456154,38.4128386 16.8476076,38.6297605 16.3502254,38.6061543 L11.8005861,38.6061543 L11.8005861,34.8361798 Z" id="Fill-12" fill="#020303" mask="url(#mask-2)"></path>
                <path d="M28.3742727,40.3938457 C29.3459301,40.4180899 30.2700369,40.0314586 30.9332416,39.3066843 C32.3553776,37.8564978 32.3316023,35.5367099 30.9332416,34.0871614 C30.2462617,33.4108755 29.3459301,33.0242442 28.3980479,33 L22,33 L22,46 L23.7775136,46 L23.7775136,40.3938457 L25.2703497,40.3938457 L30.7674404,46 L32,46 L32,44.7431292 L27.7817681,40.4423341 L28.3742727,40.4423341 L28.3742727,40.3938457 Z M23.7775136,34.8361798 L28.3267221,34.8361798 C29.3697053,34.8361798 30.1987111,35.7064193 30.1987111,36.7450923 C30.2224864,37.2523066 30.0091347,37.7116706 29.6537571,38.0498135 C29.3221548,38.4122006 28.8247513,38.6297605 28.3267221,38.6055163 L23.7775136,38.6055163 L23.7775136,34.8361798 Z" id="Fill-13" fill="#020303" mask="url(#mask-2)"></path>
                <path d="M39.9876937,33 C37.2088089,33.0224264 35,35.1458507 35,37.7384585 L35,40.3092301 C35,41.5603861 35.5224128,42.7678697 36.4487077,43.6395478 C38.4198282,45.4720193 41.6025952,45.4495929 43.5505113,43.594695 C44.4768062,42.7005906 44.999219,41.5161235 44.999219,40.2643773 L44.999219,37.6936057 C45.0230505,36.4418595 44.5006377,35.234966 43.5505113,34.363288 C42.6003848,33.4916099 41.3178708,33 39.9876937,33 M39.9876937,34.6985034 C40.842494,34.676077 41.6502583,35.0118825 42.2441657,35.5926078 C42.8619047,36.1514969 43.1942922,36.9116332 43.1942922,37.7160321 L43.1942922,40.2868037 C43.1942922,41.9404543 41.7687889,43.3043324 39.9876937,43.3043324 C39.1328934,43.3043324 38.3251291,42.9909532 37.7312217,42.4326543 C37.1134827,41.8737653 36.7810952,41.113629 36.7810952,40.3092301 L36.7810952,37.7384585 C36.8049268,36.0399551 38.2298029,34.6985034 39.9876937,34.6985034" id="Fill-14" fill="#020303" mask="url(#mask-2)"></path>
                <polygon id="Fill-15" fill="#020303" mask="url(#mask-2)" points="53 43.0517766 48.037526 33 46 33 52.4727371 46 53.5513157 46 60 33 57.9865268 33"></polygon>
                <polygon id="Fill-16" fill="#020303" mask="url(#mask-2)" points="62 46 69 46 69 44.1638202 63.7326911 44.1638202 63.7326911 40.3938457 69 40.3938457 69 38.6061543 63.7326911 38.6061543 63.7326911 34.8368178 69 34.8368178 69 33 62 33"></polygon>
                <polygon id="Fill-17" fill="#020303" mask="url(#mask-2)" points="84.170554 42.9069494 74.2999364 33 73 33 73 46 74.829446 46 74.829446 36.0930506 84.7000636 46 86 46 86 33 84.170554 33"></polygon>
                <path d="M91.7552684,35.5701977 C92.3492223,34.9888786 93.1570497,34.6760876 94.0119167,34.6760876 C94.7482439,34.6760876 95.4607376,34.9221892 96.0070246,35.3689491 C96.577145,35.7938727 97.0048921,36.3746017 97.1710988,37.0456268 L97.2187657,37.2462852 L99,37.2462852 L98.9529604,36.9334942 C98.7861264,35.8162992 98.1689664,34.8100565 97.2425991,34.117195 C96.3400652,33.4019069 95.175991,33 93.9880833,33 C91.2089814,33.0218364 89,35.145274 89,37.7384884 L89,40.3086861 C89,41.5604402 89.5224536,42.7673413 90.4488209,43.6390248 C92.4200953,45.4720981 95.6031109,45.4496715 97.5750125,43.594762 C98.2875063,42.9013102 98.7861264,42.0296267 98.9529604,41.0688272 L99,40.7560362 L97.2187657,40.7560362 L97.1710988,40.9566946 C97.0048921,41.6277198 96.6009784,42.2308752 96.0070246,42.6333723 C95.4369042,43.0582959 94.7244104,43.3038073 94.0119167,43.3262338 C93.1570497,43.3486604 92.3492223,43.0134429 91.7552684,42.4321237 C91.1374812,41.8732312 90.8050677,41.1136802 90.8050677,40.3086861 L90.8050677,37.7384884 C90.7812343,36.9334942 91.1136478,36.1290902 91.7552684,35.5701977" id="Fill-18" fill="#020303" mask="url(#mask-2)"></path>
                <path d="M11.7621173,7.39400725 L18.2146225,7.39400725 L18.2146225,13 L20,13 L20,5.09852962 C20,3.74535895 19.4763312,2.44067531 18.5478091,1.49836834 C16.5952097,-0.483219625 13.4286792,-0.507463136 11.4767084,1.47412483 C10.5242975,2.44067531 10,3.74535895 10,5.09852962 L10,13 L11.7621173,13 L11.7621173,7.39400725 Z M14.9764255,1.83650151 C16.7385428,1.83650151 18.1907336,3.28664622 18.1907336,5.09852962 L18.1907336,5.58212385 L11.7621173,5.58212385 L11.7621173,5.09852962 C11.7382285,4.22895318 12.0714151,3.35873876 12.7145282,2.75456497 C13.3098636,2.15039117 14.1189413,1.812258 14.9764255,1.83650151 L14.9764255,1.83650151 Z" id="Fill-19" fill="#020303" mask="url(#mask-2)"></path>
                <polygon id="Fill-20" fill="#020303" mask="url(#mask-2)" points="30.2856784 12 34 8.28567836 33.6190117 7.90469005 32.9287061 7.21375582 32.7143216 7 31.8096316 7.90469005 29 10.7143216 29 11.9522193"></polygon>
                <polygon id="Fill-21" fill="#020303" mask="url(#mask-2)" points="41 12 41 10.7503173 37.2503173 7 36.865702 7.38461538 36.2164255 8.03389185 36 8.25031734 39.7503173 12"></polygon>
                <polygon id="Fill-22" fill="#020303" mask="url(#mask-2)" points="36.3588124 4.08658119 37.0524321 4.78354704 37.2678459 5 41 1.24984131 41 0 39.7561592 0 36.9090335 2.83673988 36 3.75015869"></polygon>
                <path d="M33.0865812,4.61538462 C33.3030342,4.39895913 33.4712454,4.23076923 33.783547,3.96610815 L34,3.75031734 L32.9183699,2.6681899 L30.2498413,0 L29,0 L29,1.25031734 L32.7501587,5 L33.0865812,4.61538462 Z" id="Fill-23" fill="#020303" mask="url(#mask-2)"></path>
                <polygon id="Fill-24" fill="#020303" mask="url(#mask-2)" points="74 27.3242366 68.7383726 27.3242366 68.7383726 23.8157545 74 23.8157545 74 22.1394011 68.7383726 22.1394011 68.7383726 18.6757634 74 18.6757634 74 17 67 17 67 29 74 29"></polygon>
                <polygon id="Fill-25" fill="#020303" mask="url(#mask-2)" points="77 19.8766112 77 29 79 29 79 19.8766112 78.026757 19"></polygon>
                <polygon id="Fill-26" fill="#020303" mask="url(#mask-2)" points="90 27.2145275 84.7326911 27.2145275 84.7326911 16.9046813 83.8663456 16 83 16.9046813 83 29 90 29"></polygon>
                <polygon id="Fill-27" fill="#020303" mask="url(#mask-2)" points="94.7098134 16.9046376 93.8434678 16 93 16.9046376 93 29 100 29 100 27.2139852 94.7098134 27.2139852"></polygon>
                <polygon id="Fill-28" fill="#020303" mask="url(#mask-2)" points="103 46 110 46 110 44.1638202 104.709813 44.1638202 104.709813 40.3938457 110 40.3938457 110 38.6061543 104.709813 38.6061543 104.709813 34.8368178 110 34.8368178 110 33 103 33"></polygon>
                <polygon id="Fill-29" fill="#020303" mask="url(#mask-2)" points="110 18.6757634 110 17 103 17 103 29 110 29 110 27.3242366 104.709813 27.3242366 104.709813 23.8157545 110 23.8157545 110 22.1394011 104.709813 22.1394011 104.709813 18.6757634"></polygon>
                <polygon id="Fill-30" fill="#020303" mask="url(#mask-2)" points="77 17 77 18.9426631 79 19 79 17"></polygon>
                <polygon id="Fill-31" fill="#020303" mask="url(#mask-2)" points="23 2.85283444 23 12 25 12 25 2.90038794 24.026757 2"></polygon>
                <polygon id="Fill-32" fill="#020303" mask="url(#mask-2)" points="23 2 25 2 25 0 23 0"></polygon>
                <polygon id="Fill-33" fill="#020303" mask="url(#mask-2)" points="0 42 0 42.4508636 1.06015485 43.5116141 0 44.5938058 0 45 3 45 3 44.4359738 1.01488982 44.4359738 1.91721263 43.5116141 1.01488982 42.6092912 3 42.6092912 3 42"></polygon>
                <polygon id="Fill-34" fill="#020303" mask="url(#mask-2)" points="2.41334127 37 2.41334127 38.333116 1.80405003 38.333116 1.80405003 37 1.19535438 37 1.19535438 38.333116 0.586063133 38.333116 0.586063133 37 0 37 0 39 3 39 3 37"></polygon>
                <polygon id="Fill-35" fill="#020303" mask="url(#mask-2)" points="0 32 0 34 0.586658725 34 0.586658725 33.3161765 3 33.3161765 3 32.6330214 0.586658725 32.6330214 0.586658725 32"></polygon>
                <path d="M1.84954347,28.0181686 C1.80428742,27.7703488 1.71437078,27.5225291 1.55657007,27.3299419 C1.39876935,27.1373547 1.17308456,27.0276163 0.947399762,27.0276163 C0.699086939,27.0276163 0.473997618,27.1373547 0.293568877,27.3851744 C0.113140135,27.6053779 0.022628027,27.880814 0,28.1831395 L0,30 L3,30 L3,29.2565407 L1.78165939,29.2565407 L1.78165939,29.0363372 L3,27.5501453 L3,27 L2.59388646,27 L1.84954347,28.0181686 Z M1.24037316,29.2289244 L0.631798333,29.2289244 L0.631798333,28.1555233 C0.631798333,27.962936 0.76697102,27.7979651 0.924771735,27.7979651 C0.992655816,27.7979651 1.05994442,27.8255814 1.1278285,27.9084302 C1.17308456,28.0181686 1.21834061,28.0457849 1.21834061,28.1555233 L1.21834061,29.2565407 L1.24037316,29.2289244 Z" id="Fill-36" fill="#020303" mask="url(#mask-2)"></path>
                <path d="M1.80011735,21 L1.19988265,21 C0.533346372,21 0,21.6667482 0,22.5 C0,23.3332518 0.533346372,24 1.19988265,24 L1.80011735,24 C2.46665363,24 3,23.3332518 3,22.5 C3,21.6667482 2.44435752,21 1.80011735,21 M2.22256992,22.9723716 C2.11108938,23.1110024 1.95560336,23.194621 1.77782124,23.1667482 L1.17817328,23.1667482 C1.02210053,23.1667482 0.88891062,23.0831296 0.77801682,22.9723716 C0.66653628,22.8337408 0.600234696,22.6665037 0.622530804,22.4721271 C0.622530804,22.2777506 0.688832388,22.1112469 0.77801682,21.9726161 C0.88891062,21.8332518 1.02210053,21.7503667 1.17817328,21.7775061 L1.77782124,21.7775061 C1.93330726,21.7775061 2.08879327,21.8332518 2.22256992,21.9726161 C2.33346372,22.1112469 2.40035204,22.2777506 2.37805594,22.4721271 C2.37805594,22.6665037 2.33346372,22.8337408 2.22256992,22.9723716" id="Fill-37" fill="#020303" mask="url(#mask-2)"></path>
                <path d="M1.84954347,16.7475944 C1.84954347,16.5418209 1.75962684,16.3552924 1.55657007,16.2057735 C1.37614133,16.0750062 1.15045653,16 0.902143708,16 C0.65442636,16 0.428741564,16.0750062 0.248312823,16.2057735 C0.090512108,16.3552924 0,16.5418209 0,16.7475944 L0,18 L3,18 L3,17.4951887 L1.78165939,17.4951887 L1.78165939,16.7475944 L1.84954347,16.7475944 Z M1.24037316,17.4951887 L0.631798333,17.4951887 L0.631798333,16.7475944 C0.631798333,16.616827 0.76697102,16.5048113 0.924771735,16.5048113 C1.08257245,16.5048113 1.21834061,16.616827 1.21834061,16.7475944 L1.21834061,17.4951887 L1.24037316,17.4951887 Z" id="Fill-38" fill="#020303" mask="url(#mask-2)"></path>
                <path d="M1.80011735,10 L1.19988265,10 C0.533346372,10 0,10.6667482 0,11.5 C0,12.3332518 0.533346372,13 1.19988265,13 L1.80011735,13 C2.46665363,13 3,12.3332518 3,11.5 C3,10.6667482 2.44435752,10 1.80011735,10 M2.22256992,12.0002445 C2.11108938,12.1388753 1.97789947,12.2224939 1.82241346,12.194621 L1.17817328,12.194621 C1.02210053,12.194621 0.88891062,12.1110024 0.77801682,12.0002445 C0.66653628,11.8616137 0.600234696,11.6943765 0.622530804,11.5 C0.622530804,11.3056235 0.688832388,11.1112469 0.77801682,10.9447433 C0.88891062,10.805379 1.02210053,10.7224939 1.17817328,10.7503667 L1.77782124,10.7503667 C1.93330726,10.7503667 2.06649716,10.805379 2.1779777,10.9447433 C2.2888715,11.0833741 2.35575983,11.2777506 2.33346372,11.5 C2.37805594,11.6665037 2.33346372,11.8616137 2.22256992,12.0002445" id="Fill-39" fill="#020303" mask="url(#mask-2)"></path>
                <polygon id="Fill-40" fill="#020303" mask="url(#mask-2)" points="2.41334127 5 2.41334127 6.33311604 0 6.33311604 0 7 3 7 3 5"></polygon>
                <polygon id="Fill-41" fill="#020303" mask="url(#mask-2)" points="2.41334127 0 2.41334127 1.33311604 1.80405003 1.33311604 1.80405003 0 1.19535438 0 1.19535438 1.33311604 0.586063133 1.33311604 0.586063133 0 0 0 0 2 3 2 3 0"></polygon>
                <path d="M107.540459,54.78052 L107.494327,55.3450128 C107.448195,55.7962494 107.195686,57.1738026 105.724331,57.1738026 C104.965588,57.1958577 104.276042,56.7219699 104.069057,55.9995145 L104.069057,55.9095056 C103.99986,55.6835893 103.954335,55.457673 103.908204,55.2097015 C103.816548,54.8258225 103.701219,54.4419436 103.540365,54.0807159 C102.873885,52.7484652 101.448662,51.9360009 99.954242,52.0039547 C97.218518,52.0039547 96.2758556,54.0807159 95.9772144,54.9611339 C95.908017,55.1190965 95.8849512,55.2770591 95.8618854,55.457673 L95.8163608,55.7735982 C95.8163608,55.8642031 95.7702293,55.9768633 95.7702293,56.0901195 L95.7702293,56.1801284 C95.7702293,56.2254308 95.7240977,56.2933846 95.7240977,56.338091 C95.6779661,56.5187048 95.6093757,56.6766674 95.5171126,56.83463 L95.470981,56.925235 C95.1723397,57.4444253 94.597516,57.7603505 93.9771677,57.7376993 C93.2184246,57.805653 92.5058131,57.2864627 92.3218938,56.5640073 L92.3218938,56.4734023 C92.2526965,56.2254308 92.2065649,55.9995145 92.1610403,55.751543 C92.0918429,55.4350217 92.0001868,55.1190965 91.861792,54.8258225 C91.2183779,53.4262142 89.793155,52.5678514 88.2295373,52.6358051 C85.1265817,52.6358051 84.1377877,55.2770591 84.0455246,56.6540162 L84,57.2638115 L86.3448195,57.2638115 L86.3909511,56.7672724 C86.3909511,56.5640073 86.5518046,54.9384826 88.1609469,54.9384826 C88.9421488,54.8931802 89.6323014,55.4123705 89.8162208,56.1574771 C89.9078769,56.3607422 89.9770743,56.7219699 90.0687304,56.9705375 C90.1609936,57.3764716 90.2987813,57.7376993 90.4827007,58.098927 C91.1953121,59.3405727 92.5519447,60.0630281 94.0002335,59.9956704 C95.7240977,60.0403768 97.2646496,58.979345 97.8388663,57.3991228 C97.9311295,57.1285001 98.0003268,56.8572813 98.0458514,56.5866585 C98.091983,56.338091 98.1611804,56.0221657 98.206705,55.8189007 C98.3681655,55.1190965 98.7815287,54.3292835 99.9311762,54.3292835 C100.735444,54.283981 101.448662,54.8258225 101.632582,55.5929843 C101.747304,55.8642031 101.83896,56.1574771 101.885091,56.4513472 C101.954289,56.7672724 102.045945,57.0605464 102.183733,57.3544164 C102.850819,58.686071 104.276042,59.4985353 105.770463,59.4311776 C108.874025,59.4311776 109.862212,56.7899236 109.954475,55.4123705 L110,54.7125663 L107.540459,54.78052 Z" id="Fill-42" fill="#2EAAE1" mask="url(#mask-2)"></path>
            </g>
        </g>
    </g>
</svg>