<?xml version="1.0" encoding="UTF-8"?>
<svg width="184px" height="96px" viewBox="0 0 184 96" version="1.1" xmlns="http://www.w3.org/2000/svg" xmlns:xlink="http://www.w3.org/1999/xlink">
    <title>logo-part-regionsud</title>
    <defs>
        <path d="M0,30.9577856 C0,30.9577856 9.47086688,34.851408 11.2061091,35.421252 L11.2061091,35.421252 L15.0124265,37 L16.0486012,36.6462608 L17.1746288,36.1997273 C19.7102619,35.1590615 20.1302122,35.0108397 23.0532957,33.8175927 L23.0532957,33.8175927 C24.7299106,33.1344027 30,31.0213092 30,31.0213092 L30,31.0213092 L30,0.0597869081 L0.0286764237,0.0597869081 L0.0286764237,0 C0.0286764237,0 0,25.9879989 0,30.9577856 L0,30.9577856 Z" id="path-1"></path>
        <path d="M0,30.9577856 C0,30.9577856 9.47086688,34.851408 11.2061091,35.421252 L11.2061091,35.421252 L15.0124265,37 L16.0486012,36.6462608 L17.1746288,36.1997273 C19.7102619,35.1590615 20.1302122,35.0108397 23.0532957,33.8175927 L23.0532957,33.8175927 C24.7299106,33.1344027 30,31.0213092 30,31.0213092 L30,31.0213092 L30,0.0597869081 L0.0286764237,0.0597869081 L0.0286764237,0 C0.0286764237,0 0,25.9879989 0,30.9577856 L0,30.9577856 Z" id="path-3"></path>
        <path d="M0,30.9577856 C0,30.9577856 9.47086688,34.851408 11.2061091,35.421252 L11.2061091,35.421252 L15.0124265,37 L16.0486012,36.6462608 L17.1746288,36.1997273 C19.7102619,35.1590615 20.1302122,35.0108397 23.0532957,33.8175927 L23.0532957,33.8175927 C24.7299106,33.1344027 30,31.0213092 30,31.0213092 L30,31.0213092 L30,0.0597869081 L0.0286764237,0.0597869081 L0.0286764237,0 C0.0286764237,0 0,25.9879989 0,30.9577856 L0,30.9577856 Z" id="path-5"></path>
        <polygon id="path-7" points="0 41 180 41 180 0 0 0"></polygon>
    </defs>
    <g id="Page-1" stroke="none" stroke-width="1" fill="none" fill-rule="evenodd">
        <g id="Desktop-HD" transform="translate(-550.000000, -752.000000)">
            <g id="Group-137" transform="translate(552.000000, 778.000000)">
                <g id="Group-12" transform="translate(76.000000, 3.000000)">
                    <g id="Group-3">
                        <mask id="mask-2" fill="white">
                            <use xlink:href="#path-1"></use>
                        </mask>
                        <g id="Clip-2"></g>
                        <polygon id="Fill-1" fill="#F6B40D" mask="url(#mask-2)" points="31.0032288 37.3574759 30.9127387 -3.78027638 -1.0359836 -3.78027638 -0.945493553 37.3574759"></polygon>
                    </g>
                    <g id="Group-6">
                        <mask id="mask-4" fill="white">
                            <use xlink:href="#path-3"></use>
                        </mask>
                        <g id="Clip-5"></g>
                        <polygon id="Fill-4" fill="#FEFEFE" mask="url(#mask-4)" points="29.8768188 33.2196613 30.9129936 15.5389288 15.1358625 15.5389288 15.1645389 37.1768073"></polygon>
                    </g>
                    <mask id="mask-6" fill="white">
                        <use xlink:href="#path-5"></use>
                    </mask>
                    <g id="Clip-8"></g>
                    <polygon id="Fill-7" fill="#E20718" mask="url(#mask-6)" points="1.67342864 32.5932066 3.3175436 32.5932066 3.3175436 -3.78027638 1.67342864 -3.78027638"></polygon>
                    <polygon id="Fill-9" fill="#E20718" mask="url(#mask-6)" points="4.99479576 33.9346754 6.63891072 33.9346754 6.63891072 -3.78027638 4.99479576 -3.78027638"></polygon>
                    <polygon id="Fill-10" fill="#E20718" mask="url(#mask-6)" points="8.34483931 35.3932268 9.98895427 35.3932268 9.98895427 -3.78027638 8.34483931 -3.78027638"></polygon>
                    <polygon id="Fill-11" fill="#E20718" mask="url(#mask-6)" points="11.6623829 36.5540893 13.3103214 36.5540893 13.3103214 -3.78027638 11.6623829 -3.78027638"></polygon>
                </g>
                <g id="Group-136">
                    <polygon id="Stroke-13" stroke="#241916" stroke-width="0.38" stroke-linecap="round" stroke-linejoin="round" points="105.982963 34.6217395 105.982963 3.76761789 76.4959517 3.76761789 76.4959517 34.6217395 91.4035845 40.6151692"></polygon>
                    <g id="Group-18" transform="translate(99.201534, 28.748290)">
                        <path d="M3.9597615,3.08299145 C3.72063182,1.18490652 2.91098016,0 1.98019457,0 C1.04878134,0 0.242895498,1.39346 0,3.38278707" id="Fill-15" fill="#241916"></path>
                        <path d="M3.9597615,3.08299145 C3.72063182,1.18490652 2.91098016,0 1.98019457,0 C1.04878134,0 0.242895498,1.39346 0,3.38278707" id="Stroke-17" stroke="#FEFEFE" stroke-width="0.03"></path>
                    </g>
                    <g id="Group-22" transform="translate(94.221988, 28.775973)">
                        <path d="M3.9308902,3.38340777 C3.72063182,1.30532132 2.88210886,0 1.92245197,0 C1.01991004,0 0.271139161,1.27739005 0,3.11526758" id="Fill-19" fill="#241916"></path>
                        <path d="M3.9308902,3.38340777 C3.72063182,1.30532132 2.88210886,0 1.92245197,0 C1.01991004,0 0.271139161,1.27739005 0,3.11526758" id="Stroke-21" stroke="#FEFEFE" stroke-width="0.03"></path>
                    </g>
                    <g id="Group-26" transform="translate(96.879340, 29.784975)">
                        <path d="M3.58506224,2.16622512 C3.22856445,0.800696389 2.53251508,0 1.7837442,0 C1.03434569,0 0.374699257,0.889455757 0,2.28601923" id="Fill-23" fill="#241916"></path>
                        <path d="M3.58506224,2.16622512 C3.22856445,0.800696389 2.53251508,0 1.7837442,0 C1.03434569,0 0.374699257,0.889455757 0,2.28601923" id="Stroke-25" stroke="#FEFEFE" stroke-width="0.06"></path>
                    </g>
                    <polygon id="Fill-27" fill="#E20718" points="97.0149099 22.4579199 97.0149099 22.5460586 97.1040343 22.8141988 97.1931588 22.9023374 97.2540395 22.9339929 97.4931692 22.9339929 97.5534224 22.9023374 97.6425468 22.9023374 97.7316713 22.8744062 97.913686 22.8744062 98.0028104 22.9023374 98.124572 22.9625448 98.1816869 23.0221316 98.2419401 23.0221316 98.2739496 22.9625448 98.2419401 22.8744062 98.2136964 22.8141988 98.1528156 22.7862675 98.124572 22.7260601 98.0636912 22.7539914 97.9745668 22.7260601 97.7316713 22.7260601 97.5534224 22.8141988 97.4040448 22.8141988 97.343164 22.7862675 97.2540395 22.7862675 97.2220301 22.7260601 97.1649151 22.6658527 97.1040343 22.577714 97.1040343 22.4579199 97.0720248 22.4299886"></polygon>
                    <polygon id="Stroke-29" stroke="#241916" stroke-width="0.08" points="98.0636912 22.7542396 97.9745668 22.7263084 97.7316713 22.7263084 97.5534224 22.8144471 97.4040448 22.8144471 97.343164 22.7858951 97.2540395 22.7858951 97.2220301 22.7263084 97.1649151 22.666101 97.1329056 22.5779623 97.1040343 22.5177549 97.1040343 22.4581682 97.0720248 22.4296162 97.0149099 22.4581682 97.0149099 22.5463069 97.1040343 22.8144471 97.1931588 22.9025857 97.2540395 22.9342412 97.4931692 22.9342412 97.5534224 22.9025857 97.6425468 22.9025857 97.7316713 22.8740338 97.913686 22.8740338 98.0028104 22.9025857 98.124572 22.9621724 98.1816869 23.0223798 98.2419401 23.0223798 98.2739496 22.9621724 98.2419401 22.8740338 98.124572 22.7542396"></polygon>
                    <polygon id="Fill-31" fill="#E20718" points="97.5535479 22.0733994 97.432414 22.1336068 97.3432895 22.2217455 97.3144182 22.3098842 97.2541651 22.4296783 97.2824087 22.6059556 97.3144182 22.7257498 97.3715332 22.6376111 97.432414 22.5780244 97.4926671 22.5463689 97.6144287 22.5780244 97.7638063 22.6059556 98.0029359 22.7257498 98.0920604 22.8145091 98.1811848 22.8740958 98.2131943 22.9938899 98.1811848 23.0826493 98.0920604 23.0503732 97.9746923 22.9938899 97.7926776 22.9622345 97.6746818 22.9938899 97.432414 23.1105806 97.4926671 23.1105806 97.5817916 23.0826493 97.7035531 23.0826493 97.8246871 23.1105806 97.9746923 23.170788 98.0349454 23.2303747 98.1240699 23.2589267 98.6343387 23.1987192 98.6023292 22.7859572 98.3349559 22.4898857 98.1240699 22.4898857 98.0638167 22.1615381 97.9426828 22.2217455 97.8529307 22.1013307 97.6746818 22.041744"></polygon>
                    <polyline id="Stroke-33" stroke="#241916" stroke-width="0.08" points="98.1813731 23.082339 98.0922487 23.0506835 97.9742529 22.9942003 97.7922382 22.9625448 97.6748701 22.9942003 97.4319746 23.1102702 97.5248649 23.1102702 97.5819798 23.082339 97.7031138 23.082339 97.8248753 23.1102702 97.9742529 23.1704776 98.0351337 23.230685 98.1242582 23.2586163 98.634527 23.1990296 98.6025175 22.7862675 98.3345165 22.4895754 98.1242582 22.4895754 98.0922487 22.1618485 97.9422435 22.2214352 97.853119 22.1016411 97.6748701 22.0414337 97.5537362 22.0730891 97.4646117 22.1332965 97.3428502 22.2214352 97.3146065 22.3095738 97.2537257 22.4299886 97.282597 22.606266 97.3146065 22.7260601 97.3717215 22.6379214 97.4319746 22.577714 97.5248649 22.5460586 97.6139893 22.577714 97.7639946 22.606266 97.8819903 22.6379214 98.0031242 22.7260601 98.0922487 22.8141988 98.1813731 22.8744062 98.2133826 22.9942003 98.1813731 23.082339"></polyline>
                    <polygon id="Fill-35" fill="#E20718" points="99.5619234 21.5407191 99.2625405 21.9255499 99.3227937 21.3607176 99.083664 21.8336871 99.1125353 21.2725789 98.9022769 21.7772038 98.9022769 21.1844402 98.7234004 21.6890652 98.7234004 21.1242328 98.5413857 21.6574097 98.513142 21.0925774 98.3631368 21.6288578 98.3348931 21.6288578 98.2740123 21.0925774 98.1528784 21.5972023 98.0348827 21.0925774 97.9746295 21.6288578 97.8246243 21.1242328 97.8534956 21.6890652 97.8534956 22.0732753 98.063754 22.1018273 98.9945396 22.338312 99.2336692 22.3978987 99.2625405 22.2818288 99.3227937 22.0732753 99.3548032 22.0416199"></polygon>
                    <polygon id="Stroke-37" stroke="#241916" stroke-width="0.08" points="99.5619234 21.5407191 99.2625405 21.9255499 99.3227937 21.3607176 99.083664 21.8336871 99.1125353 21.2725789 98.9022769 21.7772038 98.9022769 21.1844402 98.7234004 21.6890652 98.7234004 21.1242328 98.5413857 21.6574097 98.513142 21.0925774 98.3631368 21.6288578 98.3348931 21.6288578 98.2740123 21.0925774 98.1528784 21.5972023 98.0348827 21.0925774 97.9746295 21.6288578 97.8246243 21.1242328 97.8534956 21.6890652 97.8534956 22.0732753 98.063754 22.1018273 98.9945396 22.338312 99.2336692 22.3978987 99.2625405 22.2818288 99.3227937 22.0732753 99.3548032 22.0416199"></polygon>
                    <path d="M103.464507,31.9511998 L103.464507,31.8314056 C103.2486,31.8084399 103.081649,31.633404 103.072234,31.4186436 C103.072234,31.5949209 102.861348,31.7711982 102.593975,31.8314056 L102.083706,31.8314056 C101.812567,31.7749224 101.602308,31.5949209 101.602308,31.3869881 C101.602308,31.5949209 101.39205,31.7395428 101.124677,31.8314056 L100.642651,31.8314056 C100.371512,31.7749224 100.16502,31.5949209 100.16502,31.3869881 C100.16502,31.5949209 99.9541337,31.7749224 99.6547509,31.8314056 L99.2336065,31.8314056 C98.9342236,31.7749224 98.7233376,31.6265763 98.7233376,31.4186436 C98.7233376,31.6265763 98.5130793,31.7711982 98.2136964,31.8314056 L97.792552,31.8314056 C97.4931692,31.7749224 97.2822832,31.6265763 97.2822832,31.4186436 C97.2195195,31.6377488 97.0324837,31.7991295 96.8046515,31.8314056 L96.3226263,31.8314056 C96.0514872,31.7749224 95.8449946,31.6265763 95.8449946,31.4186436 C95.7659123,31.6644387 95.5349419,31.8314056 95.273845,31.8314056 L94.9424527,31.8314056 C94.6819833,31.8332677 94.4510129,31.6650594 94.3750689,31.4186436 C94.3430594,31.6265763 94.1930542,31.7711982 93.8936713,31.8314056 L93.8936713,32.7518961 L103.493378,32.7518961 L103.493378,31.9511998 L103.464507,31.9511998 Z" id="Fill-39" fill="#004A87"></path>
                    <path d="M103.464507,31.9511998 L103.464507,31.8314056 C103.2486,31.8084399 103.081649,31.633404 103.072234,31.4186436 C103.072234,31.5949209 102.861348,31.7711982 102.593975,31.8314056 L102.083706,31.8314056 C101.812567,31.7749224 101.602308,31.5949209 101.602308,31.3869881 C101.602308,31.5949209 101.39205,31.7395428 101.124677,31.8314056 L100.642651,31.8314056 C100.371512,31.7749224 100.16502,31.5949209 100.16502,31.3869881 C100.16502,31.5949209 99.9541337,31.7749224 99.6547509,31.8314056 L99.2336065,31.8314056 C98.9342236,31.7749224 98.7233376,31.6265763 98.7233376,31.4186436 C98.7233376,31.6265763 98.5130793,31.7711982 98.2136964,31.8314056 L97.792552,31.8314056 C97.4931692,31.7749224 97.2822832,31.6265763 97.2822832,31.4186436 C97.2195195,31.6377488 97.0324837,31.7991295 96.8046515,31.8314056 L96.3226263,31.8314056 C96.0514872,31.7749224 95.8449946,31.6265763 95.8449946,31.4186436 C95.7659123,31.6644387 95.5349419,31.8314056 95.273845,31.8314056 L94.9424527,31.8314056 C94.6819833,31.8332677 94.4510129,31.6650594 94.3750689,31.4186436 C94.3430594,31.6265763 94.1930542,31.7711982 93.8936713,31.8314056 L93.8936713,32.7518961 L103.493378,32.7518961 L103.493378,31.9511998 L103.464507,31.9511998 Z" id="Stroke-41" stroke="#241916" stroke-width="0.17"></path>
                    <polygon id="Fill-43" fill="#E20718" points="97.8531818 25.7528787 97.5249276 25.4245311 97.4640469 25.3363924 97.4640469 25.3965998 97.2537885 25.3649444 97.4037937 24.9801135 96.6223857 24.7721808 95.7838628 24.4475573 95.3915897 23.8231383 94.7921964 23.8516903 94.6748283 24.4475573 94.6139475 24.5959034 94.4319328 24.6238347 94.4319328 25.0682522 94.3145647 25.5132904 94.3145647 25.8410173 94.2825552 26.1377095 94.2825552 26.4337809 94.3145647 26.6417137 94.2825552 26.9067504 94.3145647 27.2344773 94.2825552 27.5311695 94.3428083 28.1233124 94.4319328 28.3033139 94.4319328 28.5118674 94.4928136 28.8079388 94.524823 29.0723549 94.581938 29.3125638 94.6139475 29.5490485 94.7030719 29.4888411 94.7357091 29.2523564 94.7357091 28.4795912 94.7639527 28.0351737 94.9139579 28.0953811 94.9742111 27.8588964 94.9742111 27.6788949 95.0633355 27.7391023 95.15246 27.5907562 95.1850971 27.4107547 95.2422121 27.5026175 95.363346 27.3828234 95.4235991 27.1463387 95.4844799 27.2065461 95.6344852 27.0861313 95.6947383 26.8781985 95.6947383 26.8502672 95.7236096 26.8781985 95.8447435 26.8502672 95.8447435 27.0582 95.933868 27.1742699 96.0229924 27.1463387 96.1121169 27.2630293 96.2621221 27.322616 96.2941316 27.2344773 96.3230029 27.3542714 96.4441368 27.4424101 96.5941421 27.4107547 96.7723909 27.4709621 96.8615154 27.2630293 96.8615154 26.9663371 96.8326441 26.6702657 96.8044004 26.582127 96.8615154 26.582127 96.8326441 26.7298524 96.9223962 26.8781985 97.0435301 26.8502672 97.1326546 26.9979926 97.2826598 27.0582 97.3146693 26.8781985 97.3429129 26.5219196 97.3429129 26.3139868 97.4037937 26.5535751 97.4929182 26.6417137 97.5820426 26.405229 97.5820426 26.0775021 97.5537989 25.9012247 97.7031765 26.5535751 97.8249381 26.6702657 97.8814254 26.4337809 97.8814254 26.0775021"></polygon>
                    <polygon id="Stroke-45" stroke="#241916" stroke-width="0.08" points="97.8531818 25.7528787 97.5249276 25.4245311 97.4640469 25.3363924 97.4640469 25.3965998 97.2537885 25.3649444 97.4037937 24.9801135 96.6223857 24.7721808 95.7838628 24.4475573 95.3915897 23.8231383 94.7921964 23.8516903 94.6748283 24.4475573 94.6139475 24.5959034 94.4319328 24.6238347 94.4319328 25.0682522 94.3145647 25.5132904 94.3145647 25.8410173 94.2825552 26.1377095 94.2825552 26.4337809 94.3145647 26.6417137 94.2825552 26.9067504 94.3145647 27.2344773 94.2825552 27.5311695 94.3428083 28.1233124 94.4319328 28.3033139 94.4319328 28.5118674 94.4928136 28.8079388 94.524823 29.0723549 94.581938 29.3125638 94.6139475 29.5490485 94.7030719 29.4888411 94.7357091 29.2523564 94.7357091 28.4795912 94.7639527 28.0351737 94.9139579 28.0953811 94.9742111 27.8588964 94.9742111 27.6788949 95.0633355 27.7391023 95.15246 27.5907562 95.1850971 27.4107547 95.2422121 27.5026175 95.363346 27.3828234 95.4235991 27.1463387 95.4844799 27.2065461 95.6344852 27.0861313 95.6947383 26.8781985 95.6947383 26.8502672 95.7236096 26.8781985 95.8447435 26.8502672 95.8447435 27.0582 95.933868 27.1742699 96.0229924 27.1463387 96.1121169 27.2630293 96.2621221 27.322616 96.2941316 27.2344773 96.3230029 27.3542714 96.4441368 27.4424101 96.5941421 27.4107547 96.7723909 27.4709621 96.8615154 27.2630293 96.8615154 26.9663371 96.8326441 26.6702657 96.8044004 26.582127 96.8615154 26.582127 96.8326441 26.7298524 96.9223962 26.8781985 97.0435301 26.8502672 97.1326546 26.9979926 97.2826598 27.0582 97.3146693 26.8781985 97.3429129 26.5219196 97.3429129 26.3139868 97.4037937 26.5535751 97.4929182 26.6417137 97.5820426 26.405229 97.5820426 26.0775021 97.5537989 25.9012247 97.7031765 26.5535751 97.8249381 26.6702657 97.8814254 26.4337809 97.8814254 26.0775021"></polygon>
                    <path d="M103.371742,26.2255999 L103.343499,25.9574597 L103.343499,25.604905 L103.221737,25.21635 L103.221737,24.7123458 L103.161484,24.7123458 C103.126964,24.504413 103.057296,24.3039285 102.954364,24.1195822 C102.83323,23.9433048 102.112703,24.2679282 101.841564,24.2995837 C101.570424,24.3312391 101.213299,24.3877224 101.213299,24.3877224 C101.144887,24.5956551 100.992998,24.7669669 100.792782,24.8600712 C100.529802,24.9345545 100.256153,24.9655893 99.9831305,24.951934 L99.8331253,25.4844902 L99.5331148,25.7811823 L99.5048712,26.133737 L99.5048712,26.4869124 L99.5619861,26.7227765 L99.6831201,26.6346378 L99.7722445,26.2504277 L99.7722445,26.5464991 L99.8331253,26.7829839 L99.9542592,26.6948452 L100.104264,26.0102188 L100.104264,26.5464991 L100.164518,26.7829839 L100.282513,26.6948452 L100.314523,26.4546363 L100.314523,26.6631898 L100.343394,27.0157445 L100.403647,27.195746 L100.553652,27.1355386 L100.642777,26.9878132 L100.763911,27.0157445 L100.853035,26.8673984 L100.853035,26.719673 L100.881907,26.719673 L100.853035,26.8078117 L100.824792,27.1038831 L100.824792,27.4005753 L100.881907,27.6085081 L101.063921,27.5520248 L101.213299,27.5799561 L101.331295,27.4918174 L101.363304,27.3720233 L101.392175,27.460162 L101.513309,27.4005753 L101.602434,27.2838846 L101.723568,27.3124366 L101.812692,27.195746 L101.784449,27.0157445 L101.901817,27.0473999 L101.934454,27.0157445 L101.990941,27.2522292 L102.144712,27.344092 L102.201827,27.2838846 L102.26208,27.5203694 L102.383842,27.6085081 L102.444095,27.5520248 L102.472966,27.7283022 L102.562091,27.8766482 L102.651215,27.8164408 L102.651215,27.9964424 L102.712096,28.2329271 L102.861474,28.1727197 L102.893483,28.6171372 L102.893483,29.3899024 L102.922354,29.6263871 L103.011479,29.7145258 L103.132613,29.2415563 L103.161484,29.0056922 L103.221737,28.7058966 L103.221737,28.4694119 L103.310862,28.2931345 L103.371742,28.0249943 L103.403752,27.7283022 L103.371742,27.4322307 L103.403752,27.1038831 L103.343499,26.8394671 L103.403752,26.5992582 L103.403752,26.2150481 L103.371742,26.2255999 Z" id="Fill-47" fill="#E20718"></path>
                    <path d="M103.371742,26.2255999 L103.343499,25.9574597 L103.343499,25.604905 L103.221737,25.21635 L103.221737,24.7123458 L103.161484,24.7123458 C103.126964,24.504413 103.057296,24.3039285 102.954364,24.1195822 C102.83323,23.9433048 102.112703,24.2679282 101.841564,24.2995837 C101.570424,24.3312391 101.213299,24.3877224 101.213299,24.3877224 C101.144887,24.5956551 100.992998,24.7669669 100.792782,24.8600712 C100.529802,24.9345545 100.256153,24.9655893 99.9831305,24.951934 L99.8331253,25.4844902 L99.5331148,25.7811823 L99.5048712,26.133737 L99.5048712,26.4869124 L99.5619861,26.7227765 L99.6831201,26.6346378 L99.7722445,26.2504277 L99.7722445,26.5464991 L99.8331253,26.7829839 L99.9542592,26.6948452 L100.104264,26.0102188 L100.104264,26.5464991 L100.164518,26.7829839 L100.282513,26.6948452 L100.314523,26.4546363 L100.314523,26.6631898 L100.343394,27.0157445 L100.403647,27.195746 L100.553652,27.1355386 L100.642777,26.9878132 L100.763911,27.0157445 L100.853035,26.8673984 L100.853035,26.719673 L100.881907,26.719673 L100.853035,26.8078117 L100.824792,27.1038831 L100.824792,27.4005753 L100.881907,27.6085081 L101.063921,27.5520248 L101.213299,27.5799561 L101.331295,27.4918174 L101.363304,27.3720233 L101.392175,27.460162 L101.513309,27.4005753 L101.602434,27.2838846 L101.723568,27.3124366 L101.812692,27.195746 L101.784449,27.0157445 L101.901817,27.0473999 L101.934454,27.0157445 L101.990941,27.2522292 L102.144712,27.344092 L102.201827,27.2838846 L102.26208,27.5203694 L102.383842,27.6085081 L102.444095,27.5520248 L102.472966,27.7283022 L102.562091,27.8766482 L102.651215,27.8164408 L102.651215,27.9964424 L102.712096,28.2329271 L102.861474,28.1727197 L102.893483,28.6171372 L102.893483,29.3899024 L102.922354,29.6263871 L103.011479,29.7145258 L103.132613,29.2415563 L103.161484,29.0056922 L103.221737,28.7058966 L103.221737,28.4694119 L103.310862,28.2931345 L103.371742,28.0249943 L103.403752,27.7283022 L103.371742,27.4322307 L103.403752,27.1038831 L103.343499,26.8394671 L103.403752,26.5992582 L103.403752,26.2150481 L103.371742,26.2255999 Z" id="Stroke-49" stroke="#241916" stroke-width="0.08"></path>
                    <path d="M104.120827,32.5391719 C103.942578,32.4561719 103.812657,32.2131719 103.788807,31.9191719 C103.788807,32.3461719 103.461181,32.6361719 103.075812,32.6361719 C102.690442,32.6361719 102.362188,32.3001719 102.362188,31.9191719 C102.362188,32.3461719 102.030168,32.6361719 101.648565,32.6361719 C101.266962,32.6361719 100.93557,32.3001719 100.93557,31.9191719 C100.93557,32.3461719 100.60355,32.6811719 100.221946,32.6811719 C99.8403431,32.6811719 99.5083232,32.3461719 99.5083232,31.9191719 C99.5083232,32.3461719 99.180069,32.6811719 98.7947,32.6811719 C98.4099585,32.6811719 98.0817044,32.3461719 98.0817044,31.9191719 C98.0817044,32.3461719 97.7496844,32.6811719 97.3680812,32.6811719 C96.9864779,32.6811719 96.654458,32.3461719 96.654458,31.9191719 L96.3550751,32.4881719 M101.181603,32.5451719 C101.00461,32.4591719 100.876572,32.2171719 100.853349,31.9251719 C100.853349,32.3511719 100.521329,32.6871719 100.139726,32.6871719 C99.7581227,32.6871719 99.4261027,32.3511719 99.4261027,31.9251719 C99.4261027,32.3511719 99.0978486,32.6871719 98.7131072,32.6871719 C98.3277381,32.6871719 97.9994839,32.3511719 97.9994839,31.9251719 C97.9994839,32.3511719 97.667464,32.6411719 97.2858607,32.6411719 C96.9042575,32.6411719 96.5722375,32.3061719 96.5722375,31.9251719 C96.5722375,32.3511719 96.244611,32.6871719 95.859242,32.6871719 C95.4738729,32.6871719 95.1456187,32.3511719 95.1456187,31.9251719 C95.1456187,32.3511719 94.8173646,32.6411719 94.4319955,32.6411719 C94.0466265,32.6411719 93.719,32.3061719 93.719,31.9251719 L93.4189895,32.4941719" id="Stroke-51" stroke="#FEFEFE" stroke-width="0.19"></path>
                    <polygon id="Fill-53" fill="#E20718" points="102.294404 28.9560987 102.17327 28.8363046 102.084145 28.7760972 102.023264 28.7481659 101.93414 28.7165105 101.784135 28.7165105 101.873259 28.6600273 101.991255 28.6600273 101.991255 28.6277511 102.023264 28.6277511 102.112389 28.5998198 102.17327 28.5998198 102.233523 28.6600273 102.294404 28.6879585 102.322647 28.7760972 102.351519 28.7165105 102.322647 28.5998198 102.322647 28.5116812 102.294404 28.4514738 102.233523 28.3918871 102.14126 28.3316797 102.14126 28.3037484 102.052136 28.214989 101.962384 28.214989 101.873259 28.2714723 101.784135 28.3037484 101.691244 28.3918871 101.573876 28.4514738 101.480986 28.5116812 101.363618 28.5998198 101.241856 28.6600273 101.152732 28.6879585 101.003354 28.6600273 100.764225 28.5396124 100.614219 28.4800257 100.371952 28.3633351 100.161066 28.1554023 100.103951 28.0672636 99.8936922 27.8587102 99.8045678 27.7109848 99.4443042 27.6191219 99.6834339 28.243541 100.043697 28.5116812 100.221946 28.6277511 100.371952 28.6879585 100.493086 28.7481659 100.642463 28.7760972 100.764225 28.8077526 100.913602 28.8642359 100.974483 28.8958913 100.824478 28.9244433 100.732215 28.9560987 100.521329 28.9560987 100.432205 28.98403 100.34308 29.0442374 100.2822 29.1044448 100.253956 29.2205147 100.253956 29.4005162 100.221946 29.4886549 100.253956 29.5767936 100.2822 29.637001 100.34308 29.6972084 100.403961 29.7251397 100.553339 29.7251397 100.614219 29.6972084 100.493086 29.6972084 100.432205 29.637001 100.403961 29.5767936 100.403961 29.4886549 100.432205 29.4607236 100.521329 29.4607236 100.58221 29.3409295 100.614219 29.2521702 100.642463 29.1925835 100.732215 29.2205147 100.942474 29.2205147 101.031598 29.1925835 101.092479 29.1640315 101.181603 29.1044448 101.213613 29.1044448 101.302737 29.1640315 101.363618 29.1925835 101.541867 29.3123776 101.634757 29.4005162 101.60212 29.4607236 101.60212 29.5488623 101.634757 29.608449 101.723882 29.637001 101.723882 29.6972084 101.784135 29.7853471 101.813006 29.8734857 101.784135 29.9330724 101.723882 29.9932798 101.663001 30.0249353 101.573876 30.0534872 101.634757 30.0814185 101.752125 30.0814185 101.813006 30.0249353 101.873259 29.9932798 101.93414 29.9051412 101.962384 29.8170025 101.962384 29.608449 101.93414 29.5767936 101.93414 29.5488623 101.962384 29.4886549 101.93414 29.4005162 101.873259 29.3688608 101.873259 29.2807221 101.84125 29.2205147 101.784135 29.1925835 101.723882 29.1044448 101.634757 29.0442374 101.752125 29.0442374 101.813006 29.0163061 101.991255 29.0163061 102.023264 29.0442374 101.991255 29.0727893 101.991255 29.1640315 102.023264 29.2521702 102.112389 29.2807221 102.112389 29.3123776 102.14126 29.3688608 102.14126 29.5203103 102.084145 29.5767936 102.14126 29.5767936 102.233523 29.4886549 102.262394 29.4005162 102.294404 29.3409295 102.294404 29.2521702 102.262394 29.1925835 102.294404 29.1640315 102.322647 29.1044448 102.322647 29.0163061"></polygon>
                    <polygon id="Stroke-55" stroke="#241916" stroke-width="0.08" points="102.294404 28.9560987 102.17327 28.8363046 102.084145 28.7760972 102.023264 28.7481659 101.93414 28.7165105 101.784135 28.7165105 101.873259 28.6600273 101.991255 28.6600273 101.991255 28.6277511 102.023264 28.6277511 102.112389 28.5998198 102.17327 28.5998198 102.233523 28.6600273 102.294404 28.6879585 102.322647 28.7760972 102.351519 28.7165105 102.322647 28.5998198 102.322647 28.5116812 102.294404 28.4514738 102.233523 28.3918871 102.14126 28.3316797 102.14126 28.3037484 102.052136 28.214989 101.962384 28.214989 101.873259 28.2714723 101.784135 28.3037484 101.691244 28.3918871 101.573876 28.4514738 101.480986 28.5116812 101.363618 28.5998198 101.241856 28.6600273 101.152732 28.6879585 101.003354 28.6600273 100.764225 28.5396124 100.614219 28.4800257 100.371952 28.3633351 100.161066 28.1554023 100.103951 28.0672636 99.8936922 27.8587102 99.8045678 27.7109848 99.4443042 27.6191219 99.6834339 28.243541 100.043697 28.5116812 100.221946 28.6277511 100.371952 28.6879585 100.493086 28.7481659 100.642463 28.7760972 100.764225 28.8077526 100.913602 28.8642359 100.974483 28.8958913 100.824478 28.9244433 100.732215 28.9560987 100.521329 28.9560987 100.432205 28.98403 100.34308 29.0442374 100.2822 29.1044448 100.253956 29.2205147 100.253956 29.4005162 100.221946 29.4886549 100.253956 29.5767936 100.2822 29.637001 100.34308 29.6972084 100.403961 29.7251397 100.553339 29.7251397 100.614219 29.6972084 100.493086 29.6972084 100.432205 29.637001 100.403961 29.5767936 100.403961 29.4886549 100.432205 29.4607236 100.521329 29.4607236 100.58221 29.3409295 100.614219 29.2521702 100.642463 29.1925835 100.732215 29.2205147 100.942474 29.2205147 101.031598 29.1925835 101.092479 29.1640315 101.181603 29.1044448 101.213613 29.1044448 101.302737 29.1640315 101.363618 29.1925835 101.541867 29.3123776 101.634757 29.4005162 101.60212 29.4607236 101.60212 29.5488623 101.634757 29.608449 101.723882 29.637001 101.723882 29.6972084 101.784135 29.7853471 101.813006 29.8734857 101.784135 29.9330724 101.723882 29.9932798 101.663001 30.0249353 101.573876 30.0534872 101.634757 30.0814185 101.752125 30.0814185 101.813006 30.0249353 101.873259 29.9932798 101.93414 29.9051412 101.962384 29.8170025 101.962384 29.608449 101.93414 29.5767936 101.93414 29.5488623 101.962384 29.4886549 101.93414 29.4005162 101.873259 29.3688608 101.873259 29.2807221 101.84125 29.2205147 101.784135 29.1925835 101.723882 29.1044448 101.634757 29.0442374 101.752125 29.0442374 101.813006 29.0163061 101.991255 29.0163061 102.023264 29.0442374 101.991255 29.0727893 101.991255 29.1640315 102.023264 29.2521702 102.112389 29.2807221 102.112389 29.3123776 102.14126 29.3688608 102.14126 29.5203103 102.084145 29.5767936 102.14126 29.5767936 102.233523 29.4886549 102.262394 29.4005162 102.294404 29.3409295 102.294404 29.2521702 102.262394 29.1925835 102.294404 29.1640315 102.322647 29.1044448 102.322647 29.0163061"></polygon>
                    <polygon id="Fill-57" fill="#E20718" points="97.7319223 27.7107986 97.6427979 27.8591447 97.5248021 27.9472833 97.4325395 28.0670774 97.3716587 28.1552161 97.1645385 28.3631489 96.9222707 28.4798395 96.7722654 28.5679782 96.6548973 28.6281856 96.5048921 28.659841 96.3837582 28.6877723 96.2946337 28.659841 96.055504 28.5400469 95.9337425 28.4519083 95.844618 28.3917009 95.7523554 28.3035622 95.6626033 28.2719067 95.5414694 28.2154235 95.4523449 28.2154235 95.3920918 28.3035622 95.3920918 28.3314935 95.3632205 28.3314935 95.2420865 28.4519083 95.1849716 28.6281856 95.1849716 28.7163243 95.2132152 28.775911 95.2420865 28.6877723 95.3023397 28.659841 95.3349768 28.6281856 95.4241013 28.5996336 95.5132257 28.659841 95.5132257 28.6281856 95.5734789 28.659841 95.6626033 28.659841 95.7523554 28.7163243 95.6023502 28.7163243 95.4241013 28.775911 95.3632205 28.8646704 95.3023397 28.8963258 95.2420865 28.9559125 95.2132152 29.0161199 95.2132152 29.1042586 95.2420865 29.164466 95.2420865 29.3407433 95.274096 29.40033 95.274096 29.4890894 95.3920918 29.6088835 95.4241013 29.6088835 95.3920918 29.5486761 95.3920918 29.3686746 95.4241013 29.3121914 95.4241013 29.2805359 95.4843544 29.2526046 95.5414694 29.164466 95.5414694 29.0726031 95.5132257 29.0440512 95.5414694 29.0161199 95.7234841 29.0161199 95.7843649 29.0440512 95.901733 29.0440512 95.8126085 29.1042586 95.7523554 29.1923972 95.6952404 29.2209492 95.6626033 29.2805359 95.6626033 29.3686746 95.6023502 29.40033 95.5734789 29.4890894 95.6023502 29.5772281 95.5734789 29.6088835 95.5734789 29.8168163 95.6023502 29.904955 95.6626033 29.9930936 95.7234841 30.0247491 95.7843649 30.0812323 95.901733 30.0812323 95.9626138 30.053301 95.844618 30.0247491 95.7843649 29.9930936 95.7234841 29.8732995 95.7843649 29.6970222 95.8126085 29.6684702 95.901733 29.6088835 95.9337425 29.5486761 95.9337425 29.4605374 95.901733 29.40033 95.9946232 29.3121914 96.1728721 29.1923972 96.2337529 29.164466 96.3228774 29.1042586 96.351121 29.1042586 96.4120018 29.164466 96.5940165 29.2209492 96.8042749 29.2209492 96.8933994 29.1923972 96.9222707 29.2526046 96.9542801 29.3407433 97.0151609 29.4605374 97.1042854 29.4605374 97.132529 29.4890894 97.132529 29.5772281 97.0722759 29.6368148 97.0434046 29.6970222 96.9222707 29.6970222 96.9825238 29.7249534 97.132529 29.7249534 97.1934098 29.6970222 97.253663 29.6368148 97.2825343 29.5772281 97.3145437 29.4890894 97.2825343 29.40033 97.253663 29.2805359 97.2825343 29.2209492 97.253663 29.1042586 97.1645385 29.0440512 97.1042854 28.9844645 97.0151609 28.9559125 96.8042749 28.9559125 96.562007 28.8963258 96.6222602 28.8646704 96.7722654 28.8081871 96.8933994 28.775911 97.0434046 28.7479797 97.1645385 28.6877723 97.3145437 28.6281856 97.4927926 28.5400469 97.6139266 28.4196321 97.8530562 28.2433548 98.0921859 27.6189357"></polygon>
                    <polygon id="Stroke-59" stroke="#241916" stroke-width="0.08" points="97.7319223 27.7107986 97.6427979 27.8591447 97.5248021 27.9472833 97.4325395 28.0670774 97.3716587 28.1552161 97.1645385 28.3631489 96.9222707 28.4798395 96.7722654 28.5679782 96.6548973 28.6281856 96.5048921 28.659841 96.3837582 28.6877723 96.2946337 28.659841 96.055504 28.5400469 95.9337425 28.4519083 95.844618 28.3917009 95.7523554 28.3035622 95.6626033 28.2719067 95.5414694 28.2154235 95.4523449 28.2154235 95.3920918 28.3035622 95.3920918 28.3314935 95.3632205 28.3314935 95.2420865 28.4519083 95.1849716 28.6281856 95.1849716 28.7163243 95.2132152 28.775911 95.2420865 28.6877723 95.3023397 28.659841 95.3349768 28.6281856 95.4241013 28.5996336 95.5132257 28.659841 95.5132257 28.6281856 95.5734789 28.659841 95.6626033 28.659841 95.7523554 28.7163243 95.6023502 28.7163243 95.4241013 28.775911 95.3632205 28.8646704 95.3023397 28.8963258 95.2420865 28.9559125 95.2132152 29.0161199 95.2132152 29.1042586 95.2420865 29.164466 95.2420865 29.3407433 95.274096 29.40033 95.274096 29.4890894 95.3920918 29.6088835 95.4241013 29.6088835 95.3920918 29.5486761 95.3920918 29.3686746 95.4241013 29.3121914 95.4241013 29.2805359 95.4843544 29.2526046 95.5414694 29.164466 95.5414694 29.0726031 95.5132257 29.0440512 95.5414694 29.0161199 95.7234841 29.0161199 95.7843649 29.0440512 95.901733 29.0440512 95.8126085 29.1042586 95.7523554 29.1923972 95.6952404 29.2209492 95.6626033 29.2805359 95.6626033 29.3686746 95.6023502 29.40033 95.5734789 29.4890894 95.6023502 29.5772281 95.5734789 29.6088835 95.5734789 29.8168163 95.6023502 29.904955 95.6626033 29.9930936 95.7234841 30.0247491 95.7843649 30.0812323 95.901733 30.0812323 95.9626138 30.053301 95.844618 30.0247491 95.7843649 29.9930936 95.7234841 29.8732995 95.7843649 29.6970222 95.8126085 29.6684702 95.901733 29.6088835 95.9337425 29.5486761 95.9337425 29.4605374 95.901733 29.40033 95.9946232 29.3121914 96.1728721 29.1923972 96.2337529 29.164466 96.3228774 29.1042586 96.351121 29.1042586 96.4120018 29.164466 96.5940165 29.2209492 96.8042749 29.2209492 96.8933994 29.1923972 96.9222707 29.2526046 96.9542801 29.3407433 97.0151609 29.4605374 97.1042854 29.4605374 97.132529 29.4890894 97.132529 29.5772281 97.0722759 29.6368148 97.0434046 29.6970222 96.9222707 29.6970222 96.9825238 29.7249534 97.132529 29.7249534 97.1934098 29.6970222 97.253663 29.6368148 97.2825343 29.5772281 97.3145437 29.4890894 97.2825343 29.40033 97.253663 29.2805359 97.2825343 29.2209492 97.253663 29.1042586 97.1645385 29.0440512 97.1042854 28.9844645 97.0151609 28.9559125 96.8042749 28.9559125 96.562007 28.8963258 96.6222602 28.8646704 96.7722654 28.8081871 96.8933994 28.775911 97.0434046 28.7479797 97.1645385 28.6877723 97.3145437 28.6281856 97.4927926 28.5400469 97.6139266 28.4196321 97.8530562 28.2433548 98.0921859 27.6189357"></polygon>
                    <path d="M103.403877,24.8321399 L103.371868,24.5956551 L103.310987,24.3877224 L103.221863,24.2393763 L103.104495,24.0593748 L102.92248,23.7633033 C102.761805,23.6273711 102.562216,23.544198 102.35133,23.5268186 C102.187517,23.5274393 102.037512,23.6186814 101.962823,23.7633033 L101.812818,24.2393763 L101.484564,24.1195822 L101.153171,24.0314435 C101.03141,24.1195822 101.1243,24.6521384 100.882032,24.7719325 L100.614031,24.7123458 L100.132634,24.8600712 L99.7761358,24.5360684 L99.5652498,24.3560669 L99.4478817,24.2393763 L99.3870009,24.1475134 L99.3870009,24.1195822 L99.2978765,23.6751646 L99.3267478,23.0221936 L99.265867,22.5461207 L99.2376233,22.3698433 L99.1478713,22.2500492 L99.0556086,22.1612898 L98.9984937,22.1333586 L98.9664842,22.1017031 L98.5773493,21.9533571 L98.3953346,21.9533571 L98.2779665,21.9254258 L98.0670804,21.9254258 L97.977956,21.9533571 L97.9459465,22.0135645 L97.9177028,22.1017031 L98.0068273,22.1898418 L98.1279612,22.3698433 L98.3382196,22.7857089 L98.3953346,22.8421921 L98.4562153,22.9626069 L98.4562153,23.082401 L98.3670909,23.1426084 L98.195746,23.1426084 L98.4631194,23.4070244 L98.4631194,23.5268186 L98.4348757,23.6466127 L98.3739949,23.7347513 L98.3457512,23.851442 L98.3457512,23.9433048 L98.1348652,24.1195822 L97.9528505,24.3877224 L97.7746016,24.475861 L97.625224,24.6521384 L97.2323233,24.5360684 L97.0258307,24.5639997 L96.7226821,24.3560669 L96.63293,23.851442 L96.3335472,23.851442 L95.9124028,23.9997881 L95.6739008,23.4070244 C95.5414694,23.2729544 95.3418808,23.2276436 95.1636319,23.2903338 C94.9703197,23.3406101 94.8071341,23.4684732 94.7142439,23.6435092 L94.6251194,23.8197865 L94.5033579,23.9960639 L94.4142334,24.14441 L94.3539803,24.3523427 L94.325109,24.5925517 L94.2717598,24.8712437 L94.3037693,25.1673151 L94.3646501,25.3752479 L94.4537745,25.4354553 L94.5140277,25.3473166 L94.6320234,24.9941412 L94.7531574,24.5782757 L94.8140381,24.7582772 L94.8711531,24.8743471 L94.992287,24.9345545 L95.113421,24.8743471 L95.2025454,24.7260011 L95.2634262,24.5782757 L95.2916699,24.3697222 L95.3525506,24.6099311 L95.4134314,24.7862085 L95.5025559,24.8743471 L95.6236898,24.9060026 L95.7416856,24.8147604 L95.7416856,24.6378624 L95.8910631,24.7862085 L96.0128247,24.8743471 L96.1339586,24.9941412 L96.2513268,25.0829006 L96.4120018,25.0829006 L96.5048921,25.230626 L96.5940165,25.2026947 L96.683141,25.2908334 L96.8042749,25.2908334 L96.8933994,25.2026947 L96.9542801,25.0543486 L97.1042854,25.1710393 L97.2216535,25.1424873 L97.3145437,25.2622814 L97.5248021,25.3789721 L97.7036786,25.5869049 L97.9748178,25.6471123 L97.9748178,25.8233896 L98.0030615,25.9717357 L98.0313051,26.0313224 L98.0313051,26.2398759 L98.0639423,26.2994626 L98.0639423,26.3280145 L98.0313051,26.4198774 L98.0313051,26.624086 L97.9748178,26.7159488 L97.7319223,26.9524336 L97.6748074,27.0722277 L97.6427979,27.1889183 L97.6427979,27.3087124 L97.4821228,27.3087124 L97.3321176,27.3689198 L97.2718644,27.4570585 L97.2718644,27.5451972 L97.3038739,27.4570585 L97.3929984,27.3968511 L97.4821228,27.3403679 L97.6032567,27.3403679 L97.4821228,27.3968511 L97.4218697,27.488714 L97.4821228,27.4285065 L97.5430036,27.3968511 L97.7212525,27.3968511 L97.632128,27.488714 L97.5430036,27.6047839 L97.4821228,27.75313 L97.5141323,27.8449928 L97.5712473,27.6649913 L97.632128,27.6364393 L97.7212525,27.6047839 L97.8392482,27.6047839 L97.9283727,27.5768526 L97.8066111,27.75313 L97.746358,27.8133374 L97.6572335,27.8729241 L97.8392482,27.8729241 L97.9283727,27.8449928 L98.0174971,27.75313 L97.9566163,27.8449928 L97.9283727,27.9331315 L97.8392482,28.0460979 L97.7494961,28.1342366 L97.8392482,28.1342366 L97.9283727,28.0740292 L98.0174971,27.9579593 L98.1103874,27.8698206 L98.0495066,27.9858905 L98.0174971,28.1056847 L97.9603822,28.2260995 L97.8392482,28.3142381 L97.7494961,28.3421694 L97.7783674,28.3738248 L97.9603822,28.3738248 L98.0495066,28.3421694 L98.1706405,28.3142381 L98.3206458,28.1658921 L98.2277555,28.4303081 L98.2886363,28.3421694 L98.3206458,28.2825827 L98.3777607,28.1342366 L98.3777607,28.2260995 L98.3488894,28.3421694 L98.2886363,28.5221709 L98.1386311,28.670517 L98.0495066,28.7270002 L97.9283727,28.7586557 L97.4821228,28.7586557 L97.3609889,28.6984483 L97.2429931,28.670517 L97.3038739,28.7270002 L97.3609889,28.8182424 L97.4538791,28.9070017 L97.5430036,28.9665884 L97.632128,28.9951404 L97.9886258,28.9951404 L98.0777503,28.9665884 L98.1706405,28.9070017 L98.259765,28.8182424 L98.259765,28.9665884 L98.1706405,29.2310045 L97.8995014,29.4991447 L97.7174867,29.5593521 L97.6001186,29.587904 L97.0898497,29.587904 L96.9687158,29.6195595 L96.8795913,29.6474907 L96.7578298,29.7076981 L96.6687053,29.7672848 L96.6084522,29.8554235 L96.5795809,29.9441829 L96.5795809,30.1521157 L96.6084522,30.2402543 L96.6687053,30.3004617 L96.7295861,30.3321172 L96.8187106,30.3321172 L96.907835,30.3004617 L96.9687158,30.2123231 L96.907835,30.2719098 L96.85072,30.3004617 L96.7904669,30.3004617 L96.7295861,30.2719098 L96.6975766,30.1837711 L96.6975766,30.0037696 L96.7295861,29.9156309 L96.8187106,29.8274922 L97.0578402,29.7672848 L97.2680986,29.7672848 L97.1789742,29.8274922 L97.1180934,29.9156309 L97.0898497,30.0323216 L97.0898497,30.1235637 L97.1507305,30.2123231 L97.2398549,30.2719098 L97.3572231,30.2719098 L97.3001081,30.2402543 L97.2398549,30.1521157 L97.2078455,30.063977 L97.2398549,29.9758383 L97.3001081,29.8839755 L97.3892325,29.8554235 L97.5109941,29.8554235 L97.6283622,29.8274922 L97.7494961,29.7672848 L97.8995014,29.7356294 L98.1386311,29.5593521 L98.3488894,29.3514193 L98.4380139,29.2030732 L98.4380139,29.4569374 L98.3777607,29.573628 L98.3206458,29.6654909 L97.964148,30.0180456 L97.8712577,30.078253 L97.753262,30.1099084 L97.5430036,30.1099084 L97.4538791,30.078253 L97.3327452,29.9615623 L97.4218697,30.078253 L97.5141323,30.1694951 L97.632128,30.2259784 L97.7212525,30.2576338 L97.8392482,30.2576338 L97.9886258,30.2259784 L98.0777503,30.1694951 L98.1706405,30.078253 L98.259765,30.0180456 L98.3488894,29.9013549 L98.4380139,29.8132163 L98.4097702,29.8696995 L98.4097702,30.1980471 L98.3777607,30.3178412 L98.3206458,30.3743244 L98.2277555,30.4059799 L98.1103874,30.4059799 L98.1995118,30.4661873 L98.3777607,30.4661873 L98.470651,30.4059799 L98.470651,30.6139126 L98.4988947,30.7622587 L98.527766,30.8503974 L98.5597754,30.7622587 L98.5880191,30.6424646 L98.6200286,30.4941185 L98.6488999,30.3743244 L98.6488999,30.2861858 L98.709153,30.3743244 L98.7982775,30.4345318 L98.8880296,30.4661873 L99.0091635,30.4345318 L98.9200391,30.4059799 L98.8880296,30.3457725 L98.8309146,30.2576338 L98.7982775,30.1694951 L98.7700338,30.049701 L98.7700338,29.9615623 L98.7982775,29.8417682 L98.8880296,29.9299069 L98.9482827,30.0180456 L99.0694166,30.078253 L99.2482932,30.1378397 L99.3694271,30.1378397 L99.6085568,30.078253 L99.6976812,29.9894936 L99.7905715,29.9299069 L99.8470588,29.8132163 L99.8188152,29.8696995 L99.6976812,29.9299069 L99.6085568,29.9615623 L99.5194323,29.9615623 L99.3976708,29.9299069 L99.1591687,29.8132163 L98.9802922,29.6934221 L98.8591583,29.4569374 L98.7982775,29.2769359 L98.7700338,29.0690031 L98.7380243,28.8325184 L98.709153,28.5364469 L98.7700338,28.684793 L98.8309146,28.8045871 L98.9200391,28.9529332 L99.2194219,29.2490046 L99.3374176,29.309212 L99.4585516,29.3973507 L99.5796855,29.4569374 L99.6976812,29.4854894 L99.7905715,29.5171448 L99.8796959,29.573628 L99.9079396,29.6332147 L99.9399491,29.7536296 L99.9399491,29.8696995 L99.9079396,29.9615623 L99.7579344,30.049701 L99.8796959,30.049701 L99.9688204,29.9894936 L100.029074,29.9013549 L100.089954,29.7815608 L100.089954,29.6934221 L100.057945,29.573628 L99.9970641,29.4569374 L99.9079396,29.3650746 L99.7579344,29.309212 L100.23996,29.309212 L100.389337,29.3371433 L100.539342,29.3973507 L100.628467,29.4569374 L100.717591,29.5450761 L100.778472,29.6332147 L100.810482,29.7815608 L100.810482,29.9894936 L100.867596,29.8417682 L100.867596,30.2576338 L100.839353,30.1099084 L100.778472,29.9894936 L100.689348,29.9013549 L100.568214,29.8132163 L100.418208,29.7536296 L100.300213,29.6934221 L99.6405663,29.6934221 L99.4585516,29.6654909 L99.3374176,29.6052835 L99.2194219,29.5171448 L99.0091635,29.309212 L98.9482827,29.1608659 L98.8880296,29.0410718 L98.7700338,28.8927258 L98.8880296,28.9808644 L98.9802922,29.0690031 L99.0982879,29.1608659 L99.2803027,29.2173492 L99.6223648,29.2173492 L99.7441264,29.1887972 L99.8614945,29.1006585 L99.9826284,28.9523125 L100.071753,28.7729316 L100.0115,28.8927258 L99.9223753,28.9808644 L99.8332508,29.0410718 L99.7114892,29.0690031 L99.5941211,29.0690031 L99.4121064,29.0410718 L99.2621012,29.0125199 L99.1447331,28.9523125 L99.0235991,28.8325184 L98.9338471,28.684793 L98.8447226,28.5643782 L98.7844695,28.3881008 L98.8447226,28.5078949 L98.9338471,28.6245856 L99.0518428,28.7127242 L99.1447331,28.7443797 L99.0235991,28.656241 L98.9018376,28.4762395 L98.8127131,28.2397547 L98.9018376,28.3881008 L98.9947278,28.5078949 L99.1729767,28.6245856 L99.2941107,28.6245856 L99.3838628,28.5960336 L99.4121064,28.5643782 L99.2338575,28.5643782 L99.1447331,28.5078949 L99.0838523,28.4166528 L99.0229715,28.2999622 L99.0229715,28.1199606 L99.0518428,28.0038907 L99.0518428,27.8555446 L99.0838523,28.031822 L99.2621012,28.2683067 L99.3838628,28.3881008 L99.4729872,28.656241 L99.5049967,28.5364469 L99.4729872,28.4166528 L99.4121064,28.2683067 L99.5049967,28.3881008 L99.5621116,28.5078949 L99.6223648,28.7127242 L99.6223648,28.4166528 L99.5621116,28.180168 L99.6223648,28.2397547 L99.7114892,28.3601696 L99.8332508,28.5364469 L99.8614945,28.656241 L99.893504,28.7443797 L99.9223753,28.6245856 L99.9223753,28.4762395 L99.893504,28.3601696 L99.8332508,28.2683067 L99.7441264,28.1199606 L99.8332508,28.180168 L99.893504,28.2397547 L99.9543847,28.3278934 L100.0115,28.4762395 L100.043509,28.4762395 L100.0115,28.2999622 L99.9826284,28.180168 L99.9223753,28.0603739 L99.893504,27.9716146 L100.071753,28.031822 L100.193514,28.1199606 L100.10439,27.9716146 L99.9826284,27.7953372 L99.893504,27.6476118 L99.77237,27.3509197 L99.6550019,27.2025736 L99.5621116,27.0827795 L99.4729872,27.0548482 L99.5332404,26.8748467 L99.5621116,26.7265006 L99.5621116,26.4900159 L99.5941211,26.3702218 L99.6223648,26.1939444 L99.6223648,26.0455984 L100.071753,25.9860117 L100.253768,25.7774582 L100.464654,25.6576641 L100.553778,25.5409734 L100.671146,25.5695254 L100.824917,25.4497313 L100.882032,25.6011808 L100.974295,25.6893195 L101.092291,25.6893195 L101.181415,25.6011808 L101.274305,25.6291121 L101.36343,25.4813867 L101.513435,25.4813867 L101.634569,25.3932481 L101.784574,25.2728332 L101.901942,25.1846946 L102.051947,25.0369692 L102.051947,25.2132465 L102.173081,25.3013852 L102.323087,25.2728332 L102.412211,25.1846946 L102.473092,25.0046931 L102.533345,24.768829 L102.562216,24.9767618 L102.622469,25.1251079 L102.711594,25.2728332 L102.833355,25.3330406 L102.954489,25.2728332 L103.011604,25.1530391 L103.043614,24.9767618 L103.16161,25.3932481 L103.282743,25.7458027 L103.342997,25.8339414 L103.432121,25.773734 L103.493002,25.5658012 L103.521873,25.2697298 L103.403877,24.8253122 L103.403877,24.8321399 Z" id="Fill-61" fill="#E20718"></path>
                    <path d="M103.403877,24.8321399 L103.371868,24.5956551 L103.310987,24.3877224 L103.221863,24.2393763 L103.104495,24.0593748 L102.92248,23.7633033 C102.761805,23.6273711 102.562216,23.544198 102.35133,23.5268186 C102.187517,23.5274393 102.037512,23.6186814 101.962823,23.7633033 L101.812818,24.2393763 L101.484564,24.1195822 L101.153171,24.0314435 C101.03141,24.1195822 101.1243,24.6521384 100.882032,24.7719325 L100.614031,24.7123458 L100.132634,24.8600712 L99.7761358,24.5360684 L99.5652498,24.3560669 L99.4478817,24.2393763 L99.3870009,24.1475134 L99.3870009,24.1195822 L99.2978765,23.6751646 L99.3267478,23.0221936 L99.265867,22.5461207 L99.2376233,22.3698433 L99.1478713,22.2500492 L99.0556086,22.1612898 L98.9984937,22.1333586 L98.9664842,22.1017031 L98.5773493,21.9533571 L98.3953346,21.9533571 L98.2779665,21.9254258 L98.0670804,21.9254258 L97.977956,21.9533571 L97.9459465,22.0135645 L97.9177028,22.1017031 L98.0068273,22.1898418 L98.1279612,22.3698433 L98.3382196,22.7857089 L98.3953346,22.8421921 L98.4562153,22.9626069 L98.4562153,23.082401 L98.3670909,23.1426084 L98.195746,23.1426084 L98.4631194,23.4070244 L98.4631194,23.5268186 L98.4348757,23.6466127 L98.3739949,23.7347513 L98.3457512,23.851442 L98.3457512,23.9433048 L98.1348652,24.1195822 L97.9528505,24.3877224 L97.7746016,24.475861 L97.625224,24.6521384 L97.2323233,24.5360684 L97.0258307,24.5639997 L96.7226821,24.3560669 L96.63293,23.851442 L96.3335472,23.851442 L95.9124028,23.9997881 L95.6739008,23.4070244 C95.5414694,23.2729544 95.3418808,23.2276436 95.1636319,23.2903338 C94.9703197,23.3406101 94.8071341,23.4684732 94.7142439,23.6435092 L94.6251194,23.8197865 L94.5033579,23.9960639 L94.4142334,24.14441 L94.3539803,24.3523427 L94.325109,24.5925517 L94.2717598,24.8712437 L94.3037693,25.1673151 L94.3646501,25.3752479 L94.4537745,25.4354553 L94.5140277,25.3473166 L94.6320234,24.9941412 L94.7531574,24.5782757 L94.8140381,24.7582772 L94.8711531,24.8743471 L94.992287,24.9345545 L95.113421,24.8743471 L95.2025454,24.7260011 L95.2634262,24.5782757 L95.2916699,24.3697222 L95.3525506,24.6099311 L95.4134314,24.7862085 L95.5025559,24.8743471 L95.6236898,24.9060026 L95.7416856,24.8147604 L95.7416856,24.6378624 L95.8910631,24.7862085 L96.0128247,24.8743471 L96.1339586,24.9941412 L96.2513268,25.0829006 L96.4120018,25.0829006 L96.5048921,25.230626 L96.5940165,25.2026947 L96.683141,25.2908334 L96.8042749,25.2908334 L96.8933994,25.2026947 L96.9542801,25.0543486 L97.1042854,25.1710393 L97.2216535,25.1424873 L97.3145437,25.2622814 L97.5248021,25.3789721 L97.7036786,25.5869049 L97.9748178,25.6471123 L97.9748178,25.8233896 L98.0030615,25.9717357 L98.0313051,26.0313224 L98.0313051,26.2398759 L98.0639423,26.2994626 L98.0639423,26.3280145 L98.0313051,26.4198774 L98.0313051,26.624086 L97.9748178,26.7159488 L97.7319223,26.9524336 L97.6748074,27.0722277 L97.6427979,27.1889183 L97.6427979,27.3087124 L97.4821228,27.3087124 L97.3321176,27.3689198 L97.2718644,27.4570585 L97.2718644,27.5451972 L97.3038739,27.4570585 L97.3929984,27.3968511 L97.4821228,27.3403679 L97.6032567,27.3403679 L97.4821228,27.3968511 L97.4218697,27.488714 L97.4821228,27.4285065 L97.5430036,27.3968511 L97.7212525,27.3968511 L97.632128,27.488714 L97.5430036,27.6047839 L97.4821228,27.75313 L97.5141323,27.8449928 L97.5712473,27.6649913 L97.632128,27.6364393 L97.7212525,27.6047839 L97.8392482,27.6047839 L97.9283727,27.5768526 L97.8066111,27.75313 L97.746358,27.8133374 L97.6572335,27.8729241 L97.8392482,27.8729241 L97.9283727,27.8449928 L98.0174971,27.75313 L97.9566163,27.8449928 L97.9283727,27.9331315 L97.8392482,28.0460979 L97.7494961,28.1342366 L97.8392482,28.1342366 L97.9283727,28.0740292 L98.0174971,27.9579593 L98.1103874,27.8698206 L98.0495066,27.9858905 L98.0174971,28.1056847 L97.9603822,28.2260995 L97.8392482,28.3142381 L97.7494961,28.3421694 L97.7783674,28.3738248 L97.9603822,28.3738248 L98.0495066,28.3421694 L98.1706405,28.3142381 L98.3206458,28.1658921 L98.2277555,28.4303081 L98.2886363,28.3421694 L98.3206458,28.2825827 L98.3777607,28.1342366 L98.3777607,28.2260995 L98.3488894,28.3421694 L98.2886363,28.5221709 L98.1386311,28.670517 L98.0495066,28.7270002 L97.9283727,28.7586557 L97.4821228,28.7586557 L97.3609889,28.6984483 L97.2429931,28.670517 L97.3038739,28.7270002 L97.3609889,28.8182424 L97.4538791,28.9070017 L97.5430036,28.9665884 L97.632128,28.9951404 L97.9886258,28.9951404 L98.0777503,28.9665884 L98.1706405,28.9070017 L98.259765,28.8182424 L98.259765,28.9665884 L98.1706405,29.2310045 L97.8995014,29.4991447 L97.7174867,29.5593521 L97.6001186,29.587904 L97.0898497,29.587904 L96.9687158,29.6195595 L96.8795913,29.6474907 L96.7578298,29.7076981 L96.6687053,29.7672848 L96.6084522,29.8554235 L96.5795809,29.9441829 L96.5795809,30.1521157 L96.6084522,30.2402543 L96.6687053,30.3004617 L96.7295861,30.3321172 L96.8187106,30.3321172 L96.907835,30.3004617 L96.9687158,30.2123231 L96.907835,30.2719098 L96.85072,30.3004617 L96.7904669,30.3004617 L96.7295861,30.2719098 L96.6975766,30.1837711 L96.6975766,30.0037696 L96.7295861,29.9156309 L96.8187106,29.8274922 L97.0578402,29.7672848 L97.2680986,29.7672848 L97.1789742,29.8274922 L97.1180934,29.9156309 L97.0898497,30.0323216 L97.0898497,30.1235637 L97.1507305,30.2123231 L97.2398549,30.2719098 L97.3572231,30.2719098 L97.3001081,30.2402543 L97.2398549,30.1521157 L97.2078455,30.063977 L97.2398549,29.9758383 L97.3001081,29.8839755 L97.3892325,29.8554235 L97.5109941,29.8554235 L97.6283622,29.8274922 L97.7494961,29.7672848 L97.8995014,29.7356294 L98.1386311,29.5593521 L98.3488894,29.3514193 L98.4380139,29.2030732 L98.4380139,29.4569374 L98.3777607,29.573628 L98.3206458,29.6654909 L97.964148,30.0180456 L97.8712577,30.078253 L97.753262,30.1099084 L97.5430036,30.1099084 L97.4538791,30.078253 L97.3327452,29.9615623 L97.4218697,30.078253 L97.5141323,30.1694951 L97.632128,30.2259784 L97.7212525,30.2576338 L97.8392482,30.2576338 L97.9886258,30.2259784 L98.0777503,30.1694951 L98.1706405,30.078253 L98.259765,30.0180456 L98.3488894,29.9013549 L98.4380139,29.8132163 L98.4097702,29.8696995 L98.4097702,30.1980471 L98.3777607,30.3178412 L98.3206458,30.3743244 L98.2277555,30.4059799 L98.1103874,30.4059799 L98.1995118,30.4661873 L98.3777607,30.4661873 L98.470651,30.4059799 L98.470651,30.6139126 L98.4988947,30.7622587 L98.527766,30.8503974 L98.5597754,30.7622587 L98.5880191,30.6424646 L98.6200286,30.4941185 L98.6488999,30.3743244 L98.6488999,30.2861858 L98.709153,30.3743244 L98.7982775,30.4345318 L98.8880296,30.4661873 L99.0091635,30.4345318 L98.9200391,30.4059799 L98.8880296,30.3457725 L98.8309146,30.2576338 L98.7982775,30.1694951 L98.7700338,30.049701 L98.7700338,29.9615623 L98.7982775,29.8417682 L98.8880296,29.9299069 L98.9482827,30.0180456 L99.0694166,30.078253 L99.2482932,30.1378397 L99.3694271,30.1378397 L99.6085568,30.078253 L99.6976812,29.9894936 L99.7905715,29.9299069 L99.8470588,29.8132163 L99.8188152,29.8696995 L99.6976812,29.9299069 L99.6085568,29.9615623 L99.5194323,29.9615623 L99.3976708,29.9299069 L99.1591687,29.8132163 L98.9802922,29.6934221 L98.8591583,29.4569374 L98.7982775,29.2769359 L98.7700338,29.0690031 L98.7380243,28.8325184 L98.709153,28.5364469 L98.7700338,28.684793 L98.8309146,28.8045871 L98.9200391,28.9529332 L99.2194219,29.2490046 L99.3374176,29.309212 L99.4585516,29.3973507 L99.5796855,29.4569374 L99.6976812,29.4854894 L99.7905715,29.5171448 L99.8796959,29.573628 L99.9079396,29.6332147 L99.9399491,29.7536296 L99.9399491,29.8696995 L99.9079396,29.9615623 L99.7579344,30.049701 L99.8796959,30.049701 L99.9688204,29.9894936 L100.029074,29.9013549 L100.089954,29.7815608 L100.089954,29.6934221 L100.057945,29.573628 L99.9970641,29.4569374 L99.9079396,29.3650746 L99.7579344,29.309212 L100.23996,29.309212 L100.389337,29.3371433 L100.539342,29.3973507 L100.628467,29.4569374 L100.717591,29.5450761 L100.778472,29.6332147 L100.810482,29.7815608 L100.810482,29.9894936 L100.867596,29.8417682 L100.867596,30.2576338 L100.839353,30.1099084 L100.778472,29.9894936 L100.689348,29.9013549 L100.568214,29.8132163 L100.418208,29.7536296 L100.300213,29.6934221 L99.6405663,29.6934221 L99.4585516,29.6654909 L99.3374176,29.6052835 L99.2194219,29.5171448 L99.0091635,29.309212 L98.9482827,29.1608659 L98.8880296,29.0410718 L98.7700338,28.8927258 L98.8880296,28.9808644 L98.9802922,29.0690031 L99.0982879,29.1608659 L99.2803027,29.2173492 L99.6223648,29.2173492 L99.7441264,29.1887972 L99.8614945,29.1006585 L99.9826284,28.9523125 L100.071753,28.7729316 L100.0115,28.8927258 L99.9223753,28.9808644 L99.8332508,29.0410718 L99.7114892,29.0690031 L99.5941211,29.0690031 L99.4121064,29.0410718 L99.2621012,29.0125199 L99.1447331,28.9523125 L99.0235991,28.8325184 L98.9338471,28.684793 L98.8447226,28.5643782 L98.7844695,28.3881008 L98.8447226,28.5078949 L98.9338471,28.6245856 L99.0518428,28.7127242 L99.1447331,28.7443797 L99.0235991,28.656241 L98.9018376,28.4762395 L98.8127131,28.2397547 L98.9018376,28.3881008 L98.9947278,28.5078949 L99.1729767,28.6245856 L99.2941107,28.6245856 L99.3838628,28.5960336 L99.4121064,28.5643782 L99.2338575,28.5643782 L99.1447331,28.5078949 L99.0838523,28.4166528 L99.0229715,28.2999622 L99.0229715,28.1199606 L99.0518428,28.0038907 L99.0518428,27.8555446 L99.0838523,28.031822 L99.2621012,28.2683067 L99.3838628,28.3881008 L99.4729872,28.656241 L99.5049967,28.5364469 L99.4729872,28.4166528 L99.4121064,28.2683067 L99.5049967,28.3881008 L99.5621116,28.5078949 L99.6223648,28.7127242 L99.6223648,28.4166528 L99.5621116,28.180168 L99.6223648,28.2397547 L99.7114892,28.3601696 L99.8332508,28.5364469 L99.8614945,28.656241 L99.893504,28.7443797 L99.9223753,28.6245856 L99.9223753,28.4762395 L99.893504,28.3601696 L99.8332508,28.2683067 L99.7441264,28.1199606 L99.8332508,28.180168 L99.893504,28.2397547 L99.9543847,28.3278934 L100.0115,28.4762395 L100.043509,28.4762395 L100.0115,28.2999622 L99.9826284,28.180168 L99.9223753,28.0603739 L99.893504,27.9716146 L100.071753,28.031822 L100.193514,28.1199606 L100.10439,27.9716146 L99.9826284,27.7953372 L99.893504,27.6476118 L99.77237,27.3509197 L99.6550019,27.2025736 L99.5621116,27.0827795 L99.4729872,27.0548482 L99.5332404,26.8748467 L99.5621116,26.7265006 L99.5621116,26.4900159 L99.5941211,26.3702218 L99.6223648,26.1939444 L99.6223648,26.0455984 L100.071753,25.9860117 L100.253768,25.7774582 L100.464654,25.6576641 L100.553778,25.5409734 L100.671146,25.5695254 L100.824917,25.4497313 L100.882032,25.6011808 L100.974295,25.6893195 L101.092291,25.6893195 L101.181415,25.6011808 L101.274305,25.6291121 L101.36343,25.4813867 L101.513435,25.4813867 L101.634569,25.3932481 L101.784574,25.2728332 L101.901942,25.1846946 L102.051947,25.0369692 L102.051947,25.2132465 L102.173081,25.3013852 L102.323087,25.2728332 L102.412211,25.1846946 L102.473092,25.0046931 L102.533345,24.768829 L102.562216,24.9767618 L102.622469,25.1251079 L102.711594,25.2728332 L102.833355,25.3330406 L102.954489,25.2728332 L103.011604,25.1530391 L103.043614,24.9767618 L103.16161,25.3932481 L103.282743,25.7458027 L103.342997,25.8339414 L103.432121,25.773734 L103.493002,25.5658012 L103.521873,25.2697298 L103.403877,24.8253122 L103.403877,24.8321399 Z" id="Stroke-63" stroke="#241916" stroke-width="0.08"></path>
                    <polygon id="Fill-65" fill="#241916" points="98.1528784 22.3979608 98.2740123 22.3979608 98.2137592 22.3098221"></polygon>
                    <path d="M98.3026954,9.04880024 C98.3554169,9.3324578 98.3660867,9.622943 98.3347048,9.90970403 C98.3026954,10.0580501 98.3918198,10.5341231 97.8533073,10.4739157 C97.9650267,10.318742 98.0089613,10.1257059 97.9744412,9.9376353 C97.9430594,9.65459844 97.8507968,9.3814927 97.7033021,9.13693891 L97.5250532,8.96066157 L97.5821681,9.25673303 L97.5532968,9.76135796 C97.4453433,9.89418666 97.274626,9.96060101 97.1039088,9.9376353 C97.2576798,9.84639316 97.3304857,9.66452956 97.2821577,9.49321777 C97.2181387,9.16797366 97.0750375,8.86321247 96.8647791,8.60438271 L97.824436,8.78438423 L98.3026954,9.04880024 Z" id="Fill-67" fill="#E20718"></path>
                    <path d="M98.3026954,9.04880024 C98.3554169,9.3324578 98.3660867,9.622943 98.3347048,9.90970403 C98.3026954,10.0580501 98.3918198,10.5341231 97.8533073,10.4739157 C97.9650267,10.318742 98.0089613,10.1257059 97.9744412,9.9376353 C97.9430594,9.65459844 97.8507968,9.3814927 97.7033021,9.13693891 L97.5250532,8.96066157 L97.5821681,9.25673303 L97.5532968,9.76135796 C97.4453433,9.89418666 97.274626,9.96060101 97.1039088,9.9376353 C97.2576798,9.84639316 97.3304857,9.66452956 97.2821577,9.49321777 C97.2181387,9.16797366 97.0750375,8.86321247 96.8647791,8.60438271 L97.824436,8.78438423 L98.3026954,9.04880024 L98.3026954,9.04880024 Z" id="Stroke-69" stroke="#241916" stroke-width="0.07" stroke-linejoin="round"></path>
                    <path d="M101.049486,12.4001802 L101.527745,12.2239028 L101.859137,12.5199743 L102.130277,11.9272107 L102.757913,11.8676239 C102.452254,11.7192779 102.208731,11.4691378 102.070023,11.1618939 C101.827128,10.7776837 101.620008,10.5095436 101.559755,10.3611975 L101.527745,10.5976822 L101.348869,11.2221013 L101.049486,12.1711437 L101.049486,12.4070078 L101.049486,12.4001802 Z" id="Fill-71" fill="#E20718"></path>
                    <path d="M101.049486,12.4001802 L101.527745,12.2239028 L101.859137,12.5199743 L102.130277,11.9272107 L102.757913,11.8676239 C102.452254,11.7192779 102.208731,11.4691378 102.070023,11.1618939 C101.827128,10.7776837 101.620008,10.5095436 101.559755,10.3611975 L101.527745,10.5976822 L101.348869,11.2221013 L101.049486,12.1711437 L101.049486,12.4070078 L101.049486,12.4001802 Z" id="Stroke-73" stroke="#241916" stroke-width="0.07" stroke-linejoin="round"></path>
                    <path d="M99.233732,10.946761 C99.0234736,11.3346953 98.7843439,12.3122898 98.3631996,12.6083612 C97.9426828,12.9044327 97.8246871,12.9962955 97.4644234,13.0248475 C97.7638063,13.0844342 98.2131943,13.1446416 98.1240699,13.2929877 L98.0638167,13.3811263 L98.2740751,13.3811263 L98.3631996,13.6771978 L98.452324,13.7653365 L99.2946128,12.1955991 L99.233732,10.946761" id="Fill-75" fill="#E20718"></path>
                    <path d="M99.233732,10.946761 C99.0234736,11.3346953 98.7843439,12.3122898 98.3631996,12.6083612 C97.9426828,12.9044327 97.8246871,12.9962955 97.4644234,13.0248475 C97.7638063,13.0844342 98.2131943,13.1446416 98.1240699,13.2929877 L98.0638167,13.3811263 L98.2740751,13.3811263 L98.3631996,13.6771978 L98.452324,13.7653365 L99.2946128,12.1955991 L99.233732,10.946761 L99.233732,10.946761 Z" id="Stroke-77" stroke="#241916" stroke-width="0.07" stroke-linejoin="round"></path>
                    <path d="M101.049486,12.54834 C100.992371,13.2006903 100.692988,14.0051109 100.721232,14.7462206 C100.701775,15.3507774 100.814122,15.9522307 101.049486,16.5102354 L100.871237,16.5418908 C100.810356,16.4220967 100.600098,15.5928484 100.389839,15.3849156 C100.178953,15.1763621 99.9398236,15.1763621 99.9398236,15.3849156 C99.9398236,15.5928484 99.7615747,15.5928484 99.7295652,15.3526395 C99.6975557,15.1130512 99.7013215,14.8802907 99.015942,14.9684293 C98.8094494,14.9814639 98.6111161,15.0540852 98.44542,15.1763621 L101.053252,12.534064 L101.049486,12.54834 Z" id="Fill-79" fill="#E20718"></path>
                    <path d="M101.049486,12.54834 C100.992371,13.2006903 100.692988,14.0051109 100.721232,14.7462206 C100.701775,15.3507774 100.814122,15.9522307 101.049486,16.5102354 L100.871237,16.5418908 C100.810356,16.4220967 100.600098,15.5928484 100.389839,15.3849156 C100.178953,15.1763621 99.9398236,15.1763621 99.9398236,15.3849156 C99.9398236,15.5928484 99.7615747,15.5928484 99.7295652,15.3526395 C99.6975557,15.1130512 99.7013215,14.8802907 99.015942,14.9684293 C98.8094494,14.9814639 98.6111161,15.0540852 98.44542,15.1763621 L101.053252,12.534064 L101.049486,12.54834 Z" id="Stroke-81" stroke="#241916" stroke-width="0.07" stroke-linejoin="round"></path>
                    <path d="M96.7437707,14.5380395 C97.4931692,14.3301067 99.2624778,13.7373431 99.201597,11.8076028 C99.1407162,9.87786239 98.5130793,9.22861555 97.6143031,8.75254258 C97.3801946,8.64454167 97.1228634,8.59364469 96.8649046,8.6041965 L96.7437707,8.45585043 C96.7437707,8.45585043 96.5335123,8.36771176 96.1732487,8.24791764 C95.8004324,8.16039967 95.4150633,8.13991674 95.0353429,8.18771024 L95.0027058,8.03998486 L96.504641,8.03998486 C96.504641,7.89163879 96.1732487,7.68680948 95.7521043,7.62722277 C95.3309599,7.56701537 94.703323,7.56701537 94.5533178,7.35908258 L94.4321838,7.0059072 L95.1847205,7.15425327 L95.6629799,6.94632049 C95.4646466,6.80231928 95.4119251,6.53169631 95.5418459,6.32500492 C95.6341086,6.11707214 96.0841243,5.67265461 97.2220301,5.84893195 C98.3599358,6.0252093 100.104139,7.21446068 100.671523,7.89536296 C101.238279,8.57626523 101.902319,9.30620241 101.663189,10.8337325 C101.493727,12.0925017 100.858559,13.2438907 99.8794449,14.06507 C99.2254472,14.6236954 98.603459,15.2189418 98.0172461,15.847085 L97.8672408,14.8378351 L96.7293351,14.5417637 L96.7437707,14.5380395 Z" id="Fill-83" fill="#004A87"></path>
                    <path d="M95.6735869,6.91447884 L95.8556017,6.91447884 L95.6735869,6.91447884 Z M96.7437079,14.5378533 C97.4931065,14.3299205 99.262415,13.7371569 99.2015342,11.8074165 C99.1406534,9.87767618 98.5130165,9.22842934 97.6142404,8.75235637 C97.3801318,8.64497616 97.1234283,8.59407918 96.8648419,8.60401029 L96.7437079,8.45628491 C96.7437079,8.45628491 96.5334496,8.36814624 96.173186,8.24773144 C95.8003696,8.16021346 95.4150005,8.13973053 95.0352802,8.18814473 L95.002643,8.03979865 L96.5045783,8.03979865 C96.5045783,7.89145258 96.173186,7.68724396 95.7520416,7.62703656 C95.3308972,7.56682916 94.7032602,7.56682916 94.553255,7.35889637 L94.4321211,7.00634168 L95.1846578,7.15406707 L95.6629171,6.94613428 C95.4645838,6.80213307 95.4118623,6.5321308 95.5417832,6.32543941 C95.6340458,6.11688593 96.0840615,5.6724684 97.2219673,5.84936644 C98.3598731,6.02564378 100.104076,7.21427447 100.67146,7.89517675 C101.238216,8.57607903 101.902256,9.3060162 101.663126,10.8335463 C101.493664,12.0923155 100.858496,13.2437045 99.8793821,14.0655045 C99.2253844,14.6241299 98.6033962,15.2187556 98.0171833,15.8468988 L97.8671781,14.8376489 L96.7292723,14.5415775 L96.7437079,14.5378533 Z" id="Stroke-85" stroke="#241916" stroke-width="0.07" stroke-linejoin="round"></path>
                    <polygon id="Fill-87" fill="#241916" points="96.5939538 7.06263871 96.6548345 7.15077738 96.743959 7.06263871 96.6548345 6.97077587"></polygon>
                    <path d="M99.233732,13.737219 C98.163611,14.4181213 96.8041494,15.0108849 95.4239757,13.7055635 C94.5534433,12.8763152 94.7316922,12.8763152 94.4643188,12.8483839 C94.2641027,12.7987283 94.0532166,12.8676255 93.9220405,13.0246613 C94.1322989,13.0246613 94.4323094,12.9365226 94.6745772,13.2928015 C94.9174727,13.6490803 94.9745877,13.9737037 94.8534537,14.0934978 L94.7034485,14.0934978 L94.8534537,14.4460525 L95.1528366,14.5943986 L95.5093344,15.1269548 C96.2298616,15.4354402 97.0564594,15.380819 97.7286586,14.9792294 C97.1317759,15.5012338 96.3666864,15.7948225 95.5702151,15.8078571 C96.1407371,15.9878586 96.4689912,16.048066 96.7081209,16.3441375 C96.9472506,16.6408296 96.7401304,16.8487624 96.9792601,16.8487624 C97.2183898,16.8487624 97.0401409,16.6408296 97.1292653,16.6408296 C97.3633739,16.6880024 97.5692388,16.8264174 97.6997873,17.0250397 C97.7889117,17.2652487 97.938917,17.7661494 98.4491858,17.8859435 C98.958827,18.0057376 99.0805886,17.7661494 99.1088322,17.6780107 C98.8697026,17.6780107 98.8414589,17.9461509 98.4811953,17.6178033 C98.1209317,17.2894558 97.7286586,16.5204148 98.2991806,15.5012338 C98.8697026,14.4814321 99.3693016,14.1394293 99.4088427,13.7831504 L99.0805886,13.9314965 L99.2299662,13.722943 L99.233732,13.737219 Z" id="Fill-89" fill="#E20718"></path>
                    <path d="M99.233732,13.737219 C98.163611,14.4181213 96.8041494,15.0108849 95.4239757,13.7055635 C94.5534433,12.8763152 94.7316922,12.8763152 94.4643188,12.8483839 C94.2641027,12.7987283 94.0532166,12.8676255 93.9220405,13.0246613 C94.1322989,13.0246613 94.4323094,12.9365226 94.6745772,13.2928015 C94.9174727,13.6490803 94.9745877,13.9737037 94.8534537,14.0934978 L94.7034485,14.0934978 L94.8534537,14.4460525 L95.1528366,14.5943986 L95.5093344,15.1269548 C96.2298616,15.4354402 97.0564594,15.380819 97.7286586,14.9792294 C97.1317759,15.5012338 96.3666864,15.7948225 95.5702151,15.8078571 C96.1407371,15.9878586 96.4689912,16.048066 96.7081209,16.3441375 C96.9472506,16.6408296 96.7401304,16.8487624 96.9792601,16.8487624 C97.2183898,16.8487624 97.0401409,16.6408296 97.1292653,16.6408296 C97.3633739,16.6880024 97.5692388,16.8264174 97.6997873,17.0250397 C97.7889117,17.2652487 97.938917,17.7661494 98.4491858,17.8859435 C98.958827,18.0057376 99.0805886,17.7661494 99.1088322,17.6780107 C98.8697026,17.6780107 98.8414589,17.9461509 98.4811953,17.6178033 C98.1209317,17.2894558 97.7286586,16.5204148 98.2991806,15.5012338 C98.8697026,14.4814321 99.3693016,14.1394293 99.4088427,13.7831504 L99.0805886,13.9314965 L99.2299662,13.722943 L99.233732,13.737219 Z" id="Stroke-91" stroke="#241916" stroke-width="0.07" stroke-linejoin="round"></path>
                    <path d="M96.5047666,5.785559 C96.7118867,5.75762773 97.7035531,5.84576641 98.1240699,5.31258951 L97.8246871,5.75762773 C98.1039855,5.79052456 98.3870498,5.77935206 98.66321,5.7253516 C98.9713798,5.68252365 99.2513058,5.52300507 99.4439904,5.28093407 C99.4113533,5.48824616 99.2782942,5.66638559 99.0874926,5.75762773 C98.9889536,5.90473242 98.8157258,5.98542275 98.6381045,5.96556052 C98.9374874,6.02204375 99.297751,6.17038983 99.5657519,6.20204527 C100.005098,6.2951495 100.463273,6.17287261 100.79592,5.87369768 C100.741944,6.16045871 100.515367,6.38452956 100.225398,6.43790932 C100.053426,6.50556506 99.8714111,6.54591023 99.6868859,6.55832412 C99.9260156,6.79480887 100.168283,7.06232836 100.496538,7.38695178 C100.824792,7.7115752 101.36707,8.21992431 102.087597,7.77550677 C101.994707,8.07157823 101.695324,8.1597169 101.33506,8.12806146 C101.021242,8.09206116 100.716838,8.00143971 100.435657,7.85992128 C100.242972,7.75067898 100.102382,7.56881538 100.047149,7.35529634 C100.089201,7.60171221 100.170166,7.83943835 100.286279,8.06102642 L99.8080198,7.52474604 L99.5368806,7.73267883 L99.5368806,7.26033003 L99.0554831,6.75570509 C99.1188744,6.93570661 99.1502563,7.12563924 99.1483734,7.31681326 L98.8772342,7.70474756 L98.9374874,7.4086761 L98.727229,7.73267883 C98.6663482,7.79288623 98.5169706,7.8810249 98.0958262,7.8810249 C98.4272185,7.73267883 98.6663482,7.61660889 98.6381045,7.26033003 C98.6324558,6.91087881 98.4673873,6.58253122 98.1887165,6.3677708 C97.938917,6.15238968 97.6401618,5.99969874 97.318184,5.92335327 C97.0953729,5.91838771 96.8744447,5.88859435 96.65791,5.83521459 L96.5085324,5.77500719" id="Fill-93" fill="#E20718"></path>
                    <path d="M96.5047666,5.785559 C96.7118867,5.75762773 97.7035531,5.84576641 98.1240699,5.31258951 L97.8246871,5.75762773 C98.1039855,5.79052456 98.3870498,5.77935206 98.66321,5.7253516 C98.9713798,5.68252365 99.2513058,5.52300507 99.4439904,5.28093407 C99.4113533,5.48824616 99.2782942,5.66638559 99.0874926,5.75762773 C98.9889536,5.90473242 98.8157258,5.98542275 98.6381045,5.96556052 C98.9374874,6.02204375 99.297751,6.17038983 99.5657519,6.20204527 C100.005098,6.2951495 100.463273,6.17287261 100.79592,5.87369768 C100.741944,6.16045871 100.515367,6.38452956 100.225398,6.43790932 C100.053426,6.50556506 99.8714111,6.54591023 99.6868859,6.55832412 C99.9260156,6.79480887 100.168283,7.06232836 100.496538,7.38695178 C100.824792,7.7115752 101.36707,8.21992431 102.087597,7.77550677 C101.994707,8.07157823 101.695324,8.1597169 101.33506,8.12806146 C101.021242,8.09206116 100.716838,8.00143971 100.435657,7.85992128 C100.242972,7.75067898 100.102382,7.56881538 100.047149,7.35529634 C100.089201,7.60171221 100.170166,7.83943835 100.286279,8.06102642 L99.8080198,7.52474604 L99.5368806,7.73267883 L99.5368806,7.26033003 L99.0554831,6.75570509 C99.1188744,6.93570661 99.1502563,7.12563924 99.1483734,7.31681326 L98.8772342,7.70474756 L98.9374874,7.4086761 L98.727229,7.73267883 C98.6663482,7.79288623 98.5169706,7.8810249 98.0958262,7.8810249 C98.4272185,7.73267883 98.6663482,7.61660889 98.6381045,7.26033003 C98.6324558,6.91087881 98.4673873,6.58253122 98.1887165,6.3677708 C97.938917,6.15238968 97.6401618,5.99969874 97.318184,5.92335327 C97.0953729,5.91838771 96.8744447,5.88859435 96.65791,5.83521459 L96.5085324,5.77500719 L96.5047666,5.785559 Z" id="Stroke-95" stroke="#241916" stroke-width="0.07" stroke-linejoin="round"></path>
                    <path d="M4.17008264,6.75924306 L3.53867987,6.75924306 L3.53867987,10.4666535 C3.53867987,10.4666535 4.17008264,10.4952055 4.85860037,10.4952055 C5.91114753,10.4952055 6.64234457,9.9024419 6.64234457,8.73119067 C6.61033509,7.32035122 5.6218069,6.77351904 4.18075247,6.77351904 M5.91114753,14.6402059 L4.91948115,12.919019 L3.49223474,12.919019 L3.49223474,17.282504 L6.27636947e-05,17.282504 L6.27636947e-05,4.05673757 L4.04894871,4.05673757 C7.76958053,4.05673757 10.230545,5.46819771 10.230545,8.47732647 C10.2895429,9.84347589 9.52319816,11.1140383 8.27984937,11.7123882 L9.21063496,13.1654349 C10.1414206,14.6507577 10.5305555,14.855587 11.4902124,14.9753811 L11.2190732,17.378091 C7.91895812,17.3178836 7.25931169,17.1099508 5.91114753,14.6191023" id="Fill-97" fill="#241916"></path>
                    <polygon id="Fill-99" fill="#241916" points="13.1988284 17.2367588 13.1988284 4.03582015 21.1503609 4.03582015 21.1503609 6.88294754 16.7092019 6.88294754 16.7092019 9.19689804 20.8183409 9.19689804 20.8183409 11.9875422 16.7092019 11.9875422 16.7092019 14.3579759 21.7171171 14.3579759 21.5106245 17.2367588"></polygon>
                    <path d="M30.6890617,17.4166982 C25.9805293,17.4166982 23.0695491,15.1908864 23.0695491,10.590296 C23.0695491,6.29012187 26.1587782,3.85948074 30.6890617,3.85948074 C32.0441299,3.86630838 33.3929216,4.05189615 34.6984065,4.4094164 L34.3990237,7.23171599 C33.1870567,6.89654076 31.9368039,6.71715994 30.6783919,6.69915979 C28.1276753,6.69915979 26.6866209,7.884687 26.6866209,10.3469836 C26.6866209,13.0457649 28.2488092,14.4994323 30.4681335,14.4994323 C30.9049688,14.5062599 31.3405488,14.4466732 31.7591827,14.3225343 L31.7591827,10.8305049 L35.2657903,10.8305049 L35.2657903,14.8941942 C35.2657903,15.8115813 35.2977998,16.5843464 35.2977998,16.5843464 C33.8090449,17.111937 32.2418355,17.3931118 30.660818,17.4166982" id="Fill-101" fill="#241916"></path>
                    <mask id="mask-8" fill="white">
                        <use xlink:href="#path-7"></use>
                    </mask>
                    <g id="Clip-104"></g>
                    <polygon id="Fill-103" fill="#241916" mask="url(#mask-8)" points="37.5879215 17.2366967 41.0982949 17.2366967 41.0982949 4.03575808 37.5879215 4.03575808"></polygon>
                    <path d="M49.7667143,6.69928393 C47.6264723,6.69928393 46.4063461,8.24109 46.4063461,10.3185557 C46.4063461,12.6014715 47.7262666,14.5523155 49.8558388,14.5523155 L49.9769727,14.5523155 C52.2283064,14.5523155 53.3982217,12.7423692 53.3982217,10.5196609 C53.3982217,8.23364166 52.0462917,6.69245629 49.7667143,6.69245629 M49.794958,17.4168223 C45.6287039,17.4168223 42.7786046,14.6578336 42.7786046,10.5022814 C42.7786046,6.41004012 45.6858189,3.85960487 50.005844,3.85960487 C54.2367447,3.85960487 56.9977196,6.41004012 56.9977196,10.3539354 C56.9977196,14.5659708 54.1438544,17.409374 49.794958,17.409374" id="Fill-105" fill="#241916" mask="url(#mask-8)"></path>
                    <polygon id="Fill-106" fill="#241916" mask="url(#mask-8)" points="58.6777154 4.03575808 62.5765961 4.03575808 68.1845322 12.1358262 68.1845322 4.03575808 71.5160292 4.03575808 71.5160292 17.2366967 67.5568953 17.2366967 62.0343178 9.1689047 62.0343178 17.2366967 58.6777154 17.2366967"></polygon>
                    <path d="M37.6166672,35.214441 C36.3023955,35.2138203 34.9969106,35.0046461 33.749796,34.5937461 L33.6569057,31.7428946 C34.8807978,32.1370358 36.1523903,32.3666929 37.4384184,32.427521 C38.7583389,32.427521 39.1186025,31.8633094 39.1186025,31.298477 C39.1186025,30.8540595 38.9365877,30.4698494 37.8589351,30.0217077 L37.0781547,29.6970842 C34.3171798,28.7163863 33.749796,27.2943744 33.7780397,25.7811203 C33.806911,23.7030338 35.3088462,21.6286076 38.9365877,21.6286076 C40.0939503,21.6249474 41.2456641,21.7838453 42.3578367,22.1016411 L42.0866976,24.7718704 C41.1690924,24.5149027 40.2219882,24.3752464 39.2686077,24.3560048 C37.8878064,24.3560048 37.4848635,24.8606298 37.4848635,25.4142896 C37.4848635,25.8903626 37.6951219,26.2751934 39.1330381,26.8077496 L39.9138185,27.1038211 C42.464535,28.0249323 43.0030475,29.4183922 43.0030475,30.871439 C42.9748039,32.7130406 41.8048886,35.2038892 37.6022316,35.2038892" id="Fill-107" fill="#241916" mask="url(#mask-8)"></path>
                    <path d="M50.7263084,35.2461585 C46.4954078,35.2461585 44.7581087,33.129589 44.7581087,28.8958292 L44.7581087,21.8652184 L48.2540465,21.8652184 L48.2540465,29.0441753 C48.2540465,31.1607448 49.003445,32.307789 51.1079117,32.307789 C52.8916559,32.307789 53.5374943,31.2104004 53.5374943,29.1925214 L53.5374943,21.8652184 L56.8689912,21.8652184 L56.8689912,28.867898 C56.8369818,32.9601393 54.8574148,35.2461585 50.7476481,35.2461585" id="Fill-108" fill="#241916" mask="url(#mask-8)"></path>
                    <path d="M63.8038146,24.68398 C63.2332927,24.68398 62.9332822,24.68398 62.5127654,24.7119113 L62.5127654,32.1875604 C62.994163,32.2192158 63.4717947,32.2192158 64.0429443,32.2192158 C66.4718993,32.2192158 67.8809442,30.9424464 67.8809442,28.599944 C67.9135814,25.9011627 66.0978277,24.68398 63.8038146,24.68398 M64.1358346,35.0663432 C62.4556505,35.0663432 61.2819694,35.0663432 59.066411,35.0377912 L59.066411,21.8368526 L63.5935563,21.8368526 C68.062959,21.8368526 71.4804421,24.0316297 71.4804421,28.3032518 C71.4804421,32.8119794 68.6014715,35.0663432 64.1320688,35.0663432" id="Fill-109" fill="#241916" mask="url(#mask-8)"></path>
                    <path d="M111.562153,3.79939747 L113.242338,3.79939747 C114.922522,3.79939747 116.303323,4.66030126 116.303323,6.26914238 C116.303323,7.8773628 115.072527,8.75937022 113.602601,8.75937022 C113.4118,8.76557717 113.220998,8.75626675 113.032079,8.73143895 L113.032079,8.02570888 L113.481467,8.05364015 C114.533387,8.05364015 115.37191,7.40128983 115.37191,6.33617743 C115.37191,5.14692605 114.441124,4.57216259 113.121204,4.57216259 L112.464695,4.57216259 L112.464695,11.6629808 L111.565919,11.6629808 L111.565919,3.79939747 L111.562153,3.79939747 Z" id="Fill-110" fill="#241916" mask="url(#mask-8)"></path>
                    <path d="M119.203194,4.57911437 L118.543548,4.57911437 L118.543548,7.81417607 C118.543548,7.81417607 119.203194,7.84210733 119.86284,7.84210733 C120.722703,7.8942457 121.462059,7.24810234 121.514781,6.39775036 C121.518547,6.33630157 121.518547,6.27423208 121.514781,6.21278329 C121.482771,5.02725607 120.523114,4.57911437 119.203194,4.57911437 M121.072297,9.99778064 L120.169755,8.51618197 L118.493337,8.51618197 L118.493337,11.6593808 L117.590795,11.6593808 L117.590795,3.79952161 L119.33186,3.79952161 C121.114976,3.79952161 122.392217,4.56856256 122.392217,6.11347211 C122.433014,7.02899705 121.893874,7.87314208 121.040287,8.23066233 L121.849939,9.53536296 C122.602476,10.7208902 122.991611,10.928823 123.651257,11.0175823 L123.562133,11.6699326 C122.392217,11.6699326 121.942829,11.4936553 121.065393,10.0083325" id="Fill-111" fill="#241916" mask="url(#mask-8)"></path>
                    <path d="M128.160577,4.48029975 C126.49985,4.40395428 125.090177,5.6732753 125.012978,7.31563394 C125.009212,7.38887594 125.008585,7.46211793 125.010468,7.53535993 C125.010468,9.49303156 126.273273,11.0069064 128.099697,11.0069064 L128.192587,11.0069064 C130.233035,11.0069064 131.431821,9.67303308 131.431821,7.74329271 C131.431821,5.81355234 130.172781,4.48029975 128.160577,4.48029975 M128.121036,11.8181546 C125.752962,11.8181546 124.072778,10.0541397 124.072778,7.66570585 C124.072778,5.32320339 125.855895,3.72181061 128.242798,3.72181061 C130.739538,3.72181061 132.380808,5.32320339 132.380808,7.66570585 C132.380808,10.1354508 130.671753,11.8181546 128.121036,11.8181546" id="Fill-112" fill="#241916" mask="url(#mask-8)"></path>
                    <polygon id="Fill-113" fill="#241916" mask="url(#mask-8)" points="135.740988 11.6910983 132.740884 3.79958368 133.728784 3.79958368 136.279501 10.7706078 138.769336 3.79958368 139.70075 3.79958368 136.78977 11.6594429"></polygon>
                    <polygon id="Fill-114" fill="#241916" mask="url(#mask-8)" points="140.571031 11.6593187 140.571031 3.79945954 144.741051 3.79945954 144.741051 4.56850049 141.441564 4.56850049 141.441564 7.29893725 144.498783 7.29893725 144.498783 8.04004693 141.441564 8.04004693 141.441564 10.9182091 145.008424 10.9182091 144.9193 11.6593187"></polygon>
                    <polygon id="Fill-115" fill="#241916" mask="url(#mask-8)" points="146.62823 3.79939747 147.587887 3.79939747 152.45019 10.3260041 152.45019 3.79939747 153.288085 3.79939747 153.288085 11.6592567 152.3573 11.6592567 147.469891 5.10471879 147.469891 11.6592567 146.62823 11.6592567"></polygon>
                    <path d="M158.960166,11.7792991 C156.349196,11.7792991 154.640141,10.237493 154.640141,7.77519643 C154.640141,5.22103701 156.320325,3.71150708 158.960166,3.71150708 C159.816263,3.70281735 160.664828,3.86357732 161.457533,4.18385588 L161.364643,4.98455227 C160.585118,4.66427371 159.750989,4.49296193 158.906817,4.48054803 C156.744608,4.48054803 155.546449,5.69710998 155.546449,7.71498902 C155.546449,9.47900386 156.744608,10.9786027 159.024185,10.9786027 C159.959992,10.969913 160.88199,10.7563939 161.724907,10.3541836 L161.664026,11.1865355 C160.822365,11.5844009 159.900366,11.7873681 158.96707,11.7792991" id="Fill-116" fill="#241916" mask="url(#mask-8)"></path>
                    <polygon id="Fill-117" fill="#241916" mask="url(#mask-8)" points="163.308686 11.6593187 163.308686 3.79945954 167.507577 3.79945954 167.507577 4.56850049 164.207462 4.56850049 164.207462 7.29893725 167.236438 7.29893725 167.236438 8.04004693 164.207462 8.04004693 164.207462 10.9182091 167.746079 10.9182091 167.688964 11.6593187"></polygon>
                    <path d="M112.942704,20.0555204 L115.73255,20.0555204 L114.305304,16.1997638 L112.957139,20.0555204 L112.942704,20.0555204 Z M116.003689,20.7966301 L112.703574,20.7966301 L111.861913,23.142236 L110.9305,23.142236 L113.813236,15.2786526 L114.772893,15.2507214 L117.862122,23.1068564 L116.902465,23.1068564 L116.003689,20.7929059 L116.003689,20.7966301 Z" id="Fill-118" fill="#241916" mask="url(#mask-8)"></path>
                    <polygon id="Fill-119" fill="#241916" mask="url(#mask-8)" points="119.031975 23.1422981 119.031975 15.2787147 119.902507 15.2787147 119.902507 22.369533 123.441124 22.369533 123.380243 23.1422981"></polygon>
                    <path d="M124.760982,15.2788388 L126.441166,15.2788388 C128.12135,15.2788388 129.502151,16.1397426 129.502151,17.7485838 C129.502151,19.3568042 128.271355,20.2388116 126.80143,20.2388116 C126.610628,20.2450185 126.419826,20.2357081 126.230908,20.2108803 L126.230908,19.5051503 L126.680296,19.5368057 C127.732215,19.5368057 128.570738,18.8844554 128.570738,17.8156188 C128.570738,16.6300916 127.639953,16.051604 126.320032,16.051604 L125.663524,16.051604 L125.663524,23.1424222 L124.764748,23.1424222 L124.764748,15.2788388 L124.760982,15.2788388 Z" id="Fill-120" fill="#241916" mask="url(#mask-8)"></path>
                    <polygon id="Fill-121" fill="#241916" mask="url(#mask-8)" points="130.850253 23.1422981 130.850253 15.2787147 135.020273 15.2787147 135.020273 16.0514798 131.720785 16.0514798 131.720785 18.7781924 134.781143 18.7781924 134.781143 19.5230263 131.720785 19.5230263 131.720785 22.369533 135.291412 22.369533 135.202287 23.1422981"></polygon>
                    <path d="M138.530583,23.2587404 C137.821354,23.2723957 137.117145,23.1414291 136.461892,22.8739096 L136.429255,22.0415578 C137.110869,22.3053531 137.837672,22.4375611 138.570124,22.4294921 C139.922054,22.4294921 140.353241,21.7454863 140.353241,21.0645841 C140.353241,20.4997517 140.146748,20.0553342 139.065958,19.5792612 L138.405684,19.2831898 C137.114634,18.7220816 136.697256,18.0976626 136.697256,17.1659995 C136.697256,16.0406797 137.564022,15.1201609 139.337097,15.1201609 C139.926448,15.1183272 140.512661,15.2083279 141.073768,15.3883294 L141.013515,16.1890258 C140.481279,16.0121278 139.926448,15.9121959 139.36534,15.8929544 C138.134544,15.8929544 137.656913,16.3969586 137.656913,17.0778609 C137.656913,17.6426932 137.895415,18.0269033 138.976206,18.489321 L139.63648,18.7853925 C140.9564,19.3502248 141.344907,20.0590584 141.344907,20.9516176 C141.344907,22.0769374 140.564127,23.2339126 138.555689,23.2339126" id="Fill-122" fill="#241916" mask="url(#mask-8)"></path>
                    <path d="M115.493232,35.1015366 C112.882262,35.1015366 111.173207,33.5597305 111.173207,31.097434 C111.173207,28.5469987 112.853391,27.0337446 115.493232,27.0337446 C116.349329,27.0262963 117.198522,27.1876769 117.990599,27.5098176 L117.897709,28.310514 C117.118184,27.9902354 116.284055,27.8189236 115.439883,27.805889 C113.277674,27.805889 112.079515,29.0230717 112.079515,31.0372266 C112.079515,32.8192415 113.277674,34.3008402 115.557251,34.3008402 C116.493058,34.2940126 117.415056,34.0817349 118.257973,33.6801453 L118.197092,34.508773 C117.355431,34.9066384 116.433432,35.1096056 115.500136,35.1015366" id="Fill-123" fill="#241916" mask="url(#mask-8)"></path>
                    <path d="M123.13785,25.3048611 L121.5788,26.4934918 L121.129412,26.0174188 L123.226974,24.4476815 L125.206541,26.0174188 L124.668029,26.5220438 L123.13785,25.3048611 Z M123.226974,27.7988131 C121.566247,27.7224676 120.156574,28.9917887 120.079375,30.634768 C120.075609,30.7073893 120.074982,30.7806313 120.076865,30.8538733 C120.076865,32.8121656 121.336532,34.3254197 123.166094,34.3254197 L123.258984,34.3254197 C125.296293,34.3254197 126.498218,32.988443 126.498218,31.0624268 C126.498218,29.1357899 125.239178,27.7988131 123.226974,27.7988131 L123.226974,27.7988131 Z M123.166094,35.1261161 C120.798019,35.1261161 119.117835,33.3621013 119.117835,30.9742881 C119.117835,28.6280615 120.900952,27.0266687 123.287855,27.0266687 C125.784595,27.0266687 127.425866,28.6280615 127.425866,30.9742881 C127.457875,33.4434123 125.74882,35.1261161 123.166094,35.1261161 L123.166094,35.1261161 Z" id="Fill-124" fill="#241916" mask="url(#mask-8)"></path>
                    <polygon id="Fill-125" fill="#241916" mask="url(#mask-8)" points="131.239074 27.8872001 131.239074 35.0065703 130.340298 35.0065703 130.340298 27.8872001 127.732466 27.8872001 127.732466 27.1460904 133.882681 27.1460904 133.8218 27.8872001"></polygon>
                    <polygon id="Fill-126" fill="#241916" mask="url(#mask-8)" points="134.931211 35.0062599 134.931211 27.1464007 139.101231 27.1464007 139.101231 27.8868897 135.801743 27.8868897 135.801743 30.6179472 138.858963 30.6179472 138.858963 31.3584362 135.801743 31.3584362 135.801743 34.237219 139.368604 34.237219 139.27948 35.0062599"></polygon>
                    <path d="M145.194205,27.8872001 L143.632016,27.8872001 L143.632016,34.2375293 C144.263419,34.2375293 144.744817,34.2654606 145.461578,34.2654606 C147.623787,34.2654606 148.971952,33.0799334 148.971952,31.0303989 C148.971952,28.8076906 147.262896,27.8872001 145.194205,27.8872001 M145.401325,35.0065703 C144.498783,35.0065703 143.66026,35.0065703 142.761484,34.9780183 L142.761484,27.1144349 L145.283329,27.1144349 C147.802036,27.1144349 149.902737,28.3316176 149.902737,30.914329 C149.902737,33.5529029 148.101419,35.0065703 145.404463,35.0065703" id="Fill-127" fill="#241916" mask="url(#mask-8)"></path>
                    <path d="M150.919572,29.6687185 L150.381059,29.3403709 C150.980453,28.7159519 151.158701,28.2150511 151.158701,27.8587722 C151.154308,27.5484248 151.011834,27.2560775 150.769567,27.0580758 C150.870616,26.8520051 151.077109,26.7173144 151.308707,26.7055212 C151.790104,26.7055212 152.057478,27.17787 152.057478,27.6545636 C152.057478,28.0071183 151.968353,28.6315374 150.919572,29.6724427" id="Fill-128" fill="#241916" mask="url(#mask-8)"></path>
                    <path d="M153.409533,31.9264961 L156.199379,31.9264961 L154.772133,28.0670154 L153.409533,31.9264961 Z M156.470518,32.6322262 L153.170403,32.6322262 L152.328742,34.9778321 L151.397329,34.9778321 L154.280066,27.1148694 L155.239722,27.0863175 L158.328951,34.9461767 L157.369295,34.9461767 L156.470518,32.6322262 Z" id="Fill-129" fill="#241916" mask="url(#mask-8)"></path>
                    <polygon id="Fill-130" fill="#241916" mask="url(#mask-8)" points="158.867401 35.0062599 158.867401 34.2937022 163.187426 27.9154417 158.899411 27.9154417 158.899411 27.1464007 164.357342 27.1464007 164.357342 27.7670956 159.948192 34.2055635 164.778486 34.2055635 164.689362 35.0062599"></polygon>
                    <path d="M169.098323,35.1262403 C166.879626,35.1262403 165.948213,33.969265 165.948213,31.5982106 L165.948213,27.1465869 L166.847617,27.1465869 L166.847617,31.446761 C166.847617,33.2567073 167.389895,34.3255439 169.187447,34.3255439 C170.839388,34.3255439 171.438153,33.2883627 171.438153,31.5348997 L171.438153,27.1143108 L172.276676,27.1143108 L172.276676,31.7428325 C172.276676,33.8209189 171.256766,35.1262403 169.098323,35.1262403" id="Fill-131" fill="#241916" mask="url(#mask-8)"></path>
                    <path d="M175.52294,27.8978139 L174.891537,27.8978139 L174.891537,31.1328756 C174.891537,31.1328756 175.551184,31.1608069 176.211458,31.1608069 C177.070693,31.2110832 177.808794,30.5630777 177.859632,29.7127258 C177.862771,29.6525184 177.862771,29.5916903 177.859632,29.5314829 C177.830761,28.3738869 176.871104,27.8978139 175.551184,27.8978139 M177.438488,33.3164802 L176.535946,31.8311574 L174.855762,31.8311574 L174.855762,35.0060117 L173.956986,35.0060117 L173.956986,27.1461524 L175.697423,27.1461524 C177.481167,27.1461524 178.758409,27.9151934 178.758409,29.4607236 C178.799205,30.3762486 178.260065,31.2203936 177.406479,31.5772932 L178.21613,32.8826145 C178.965529,34.0681417 179.357802,34.2760745 179.999874,34.3642132 L179.91075,35.0171842 C178.708198,35.0171842 178.287681,34.8086307 177.413383,33.327032" id="Fill-132" fill="#241916" mask="url(#mask-8)"></path>
                    <polygon id="Fill-133" fill="#F6B40D" mask="url(#mask-8)" points="21.1502354 3.08683975 13.1987029 3.08683975 21.1502354 0.772889259"></polygon>
                    <path d="M95.7841766,6.7345394 L96.0515499,6.82267807 C96.3377524,6.7463326 96.6283483,6.68736659 96.9220824,6.64640073 C97.3036856,6.70164257 97.6131106,6.98095526 97.7034904,7.3521308 C97.7637435,6.93564454 97.6746191,6.84750587 97.5534851,6.72771176 L97.1040971,6.51915828 L97.4323512,6.46267504 C97.1587015,6.38446749 96.8674779,6.38446749 96.5938282,6.46267504 C96.4061648,6.53653773 96.2247777,6.6252971 96.0515499,6.72771176 L95.7841766,6.72771176" id="Fill-134" fill="#E20718" mask="url(#mask-8)"></path>
                    <path d="M95.7841766,6.7345394 L96.0515499,6.82267807 C96.3377524,6.7463326 96.6283483,6.68736659 96.9220824,6.64640073 C97.3036856,6.70164257 97.6131106,6.98095526 97.7034904,7.3521308 C97.7637435,6.93564454 97.6746191,6.84750587 97.5534851,6.72771176 L97.1040971,6.51915828 L97.4323512,6.46267504 C97.1587015,6.38446749 96.8674779,6.38446749 96.5938282,6.46267504 C96.4061648,6.53653773 96.2247777,6.6252971 96.0515499,6.72771176 L95.7841766,6.7345394 Z" id="Stroke-135" stroke="#241916" stroke-width="0.07" stroke-linejoin="round" mask="url(#mask-8)"></path>
                </g>
            </g>
        </g>
    </g>
</svg>