<?xml version="1.0" encoding="UTF-8"?>
<svg width="375px" height="102px" viewBox="0 0 375 102" version="1.1" xmlns="http://www.w3.org/2000/svg" xmlns:xlink="http://www.w3.org/1999/xlink">
    <title>logo-credit-agricole</title>
    <g id="Page-1" stroke="none" stroke-width="1" fill="none" fill-rule="evenodd">
        <g id="Desktop-HD" transform="translate(-178.000000, -614.000000)">
            <g id="Group-21" transform="translate(206.000000, 634.000000)">
                <polygon id="Fill-1" fill="#52837F" points="57.4034724 9 36 49.3539987 36.7514741 49.2751536 37.541876 49.1495211 39.3985586 48.9060542 41.4473411 48.4659075 43.5418214 47.9789736 45.5965276 47.3742051 47.7290893 46.7226494 49.8624973 45.9532592 51.4813824 45.4282023 52.1490773 45.1058902 52.7846145 44.7038664 53.3372188 44.1779432 53.8508954 43.6121641 54.2427113 42.921619 64.4756224 20.929881 80.861651 62.7377501 81.0613671 63.2238176 81.3380924 63.6648307 81.6901343 64.0729194 82.0887202 64.3943651 82.5575453 64.6776879 83.0331404 64.8423097 83.546817 64.9601442 84.0613398 64.9601442 98 65 72.4921926 9"></polygon>
                <polygon id="Fill-2" fill="#CD3B26" points="108 12.0909734 108 2 83.2527459 15.8853593 83.0233479 16.0107721 82.5124542 16.207108 81.964588 16.3714421 81.4536943 16.3714421 81.0201068 16.2927347 80.5487066 16.1284007 80.158814 15.970986 80 15.8853593 80.1974671 16.5357761 80.5865194 17.821906 81.0965728 19.1547413 81.7662805 20.4875767 82.5511074 21.7019185 83.3737471 22.7069508 84.1585739 23.4352099 84.8660945 23.835666 85.5299202 24 86.1996279 24 86.8248004 23.9212927 87.2962007 23.7569586 87.685253 23.599544 87.8449073 23.4749961"></polygon>
                <polygon id="Fill-3" fill="#1E1E1C" points="158.479763 47.2817171 158.200343 47.2817171 157.959493 47.327886 157.725501 47.3679571 157.562649 47.4472281 157.36037 47.572668 157.204374 47.6920102 157.041522 47.8566501 156.924955 48.0552632 155.005873 51.3480609 163.684169 51.3480609 163.684169 57.1601101 163.001048 57.3656922 162.402781 57.5303321 161.843084 57.6496742 161.244818 57.7751141 160.679121 57.8944563 159.924002 57.9737273 159.325736 58.0590961 158.805466 58.0991672 158.238913 58.0991672 157.640646 58.0991672 157.08095 58.0991672 156.482683 58.0198962 155.643567 57.9336562 155.122441 57.8543852 154.602171 57.7359141 154.081902 57.6096031 153.561633 57.451061 153.079934 57.24635 152.481667 56.9153281 151.999968 56.631346 151.603124 56.3072929 151.199422 55.9832398 150.802578 55.6199868 150.44516 55.2497648 150.080886 54.8464406 149.80061 54.3960765 149.443192 53.7880414 149.202343 53.2984773 149.000921 52.7697132 148.844068 52.2409492 148.720644 51.7121851 148.604076 51.1433499 148.519222 50.6206836 148.479794 50.0518485 148.479794 49.4769156 148.479794 48.9481515 148.479794 48.4254852 148.564649 47.8967211 148.682074 47.407157 148.844068 46.878393 149.000921 46.3888289 149.202343 45.9001359 149.443192 45.4166696 149.644614 45.1326876 149.963461 44.6831945 150.321736 44.2729015 150.679153 43.8695773 151.082855 43.5063243 151.479699 43.1753023 152.045395 42.8120492 152.520237 42.5271961 153.040507 42.243214 153.600203 42.0385031 154.120472 41.8398899 154.881591 41.6351789 155.480715 41.509739 156.078982 41.4295969 156.644678 41.3503258 157.243802 41.3111258 157.842069 41.264957 158.440335 41.2248859 159.000032 41.2248859 159.605155 41.264957 160.203422 41.3111258 160.802546 41.3903969 161.400813 41.4696679 161.999079 41.548939 162.604203 41.6743789 163.203327 41.75365 163.801594 41.879961 164.39986 42.0385031 165.004984 42.163943 165.604108 42.3224851 166.162947 42.4879961 166.762071 42.6535071 167.041491 42.7327781 167.041491 38.5009234 166.365227 38.3023102 165.798673 38.0975992 165.200406 37.9320882 164.60214 37.8127461 164.042443 37.6942751 163.444176 37.5688352 162.845053 37.449493 161.765087 37.283982 161.159963 37.204711 160.561696 37.118471 159.96343 37.0792711 159.364306 37.0392 158.805466 37 158.200343 37 157.601219 37 157.002952 37 156.319831 37 155.760135 37 155.161868 37.0392 154.563601 37.0792711 153.964477 37.1585421 153.398781 37.244782 152.845941 37.3240531 152.240818 37.488693 151.681121 37.6481062 150.920003 37.8528172 150.360306 38.0183282 149.840037 38.2160702 149.28034 38.4608523 148.798641 38.7056343 148.285229 38.9504164 147.80353 39.2744695 147.321831 39.5584515 146.762992 39.9687446 146.319863 40.3319976 145.884448 40.6961218 145.480747 41.1055437 145.083902 41.548939 144.681058 41.959232 144.362211 42.408725 144.043364 42.8913203 143.724517 43.3808844 143.44424 43.8695773 143.079966 44.5577546 142.8854 45.0464476 142.683121 45.6152828 142.481699 46.1440468 142.364274 46.712882 142.202279 47.2817171 142.123425 47.8566501 142.045427 48.4254852 142 49.1528625 142 49.7216976 142 50.2905328 142.084854 50.8654657 142.162852 51.4735008 142.240849 52.042336 142.403701 52.6111711 142.521126 53.1800063 142.722548 53.7087703 142.923971 54.2375344 143.204247 54.8464406 143.44424 55.3752047 143.724517 55.8638977 144.003936 56.347364 144.322783 56.836057 144.681058 57.28555 145.005905 57.7359141 145.402749 58.1392383 145.884448 58.5887313 146.35929 58.9519844 146.840989 59.2760375 147.361258 59.6000906 147.881528 59.8840726 148.401797 60.1689257 148.922923 60.4529078 149.481762 60.6584898 150.002889 60.9024008 150.561728 61.1079829 151.199422 61.3057249 151.804546 61.432036 152.402813 61.550507 153.001936 61.6367469 153.600203 61.716018 154.205327 61.795289 154.843021 61.8353601 155.402717 61.9207289 156.040411 61.9608 156.644678 61.9608 157.679217 62 158.28434 61.9608 158.844037 61.9608 159.442303 61.9207289 160.079997 61.881529 160.679121 61.8353601 161.283388 61.7560891 161.882512 61.676818 162.480778 61.5966758 163.125329 61.550507 163.684169 61.432036 164.283293 61.3527649 164.881559 61.2264539 165.479826 61.1079829 166.07895 61.0287118 166.684074 60.8632008 167.28234 60.6976898 167.880607 60.5783477 168.479731 60.4137078 169 60.2551657 169 47.2817171 158.805466 47.2817171"></polygon>
                <polygon id="Fill-4" fill="#1E1E1C" points="182.813378 8.89522936 183.247735 8.9399633 183.765721 9.05559633 184.166798 9.17038532 184.484246 9.29277064 184.840948 9.49111927 185.119141 9.68355963 185.398188 9.91988991 185.676382 10.1958899 185.954575 10.5546055 186.116713 10.9065688 186.272023 11.2205505 186.356505 11.5733578 186.43416 11.970055 186.43416 12.2840367 186.43416 12.521211 186.395759 12.8740183 186.317251 13.1939083 186.194368 13.5467156 185.99383 13.8606972 185.760864 14.1746789 185.521071 14.4886606 185.119141 14.8473761 184.763293 15.0837064 184.361363 15.2761468 183.96626 15.3976881 183.56433 15.5521468 183.169227 15.6348624 182.728896 15.6736881 178.945976 15.6736881 178.790666 15.6736881 178.590127 15.7116697 178.350335 15.7884771 178.188197 15.834055 177.994486 15.948844 177.832349 16.109211 177.715439 16.2628257 177.63181 16.339633 175.844033 19.5748257 181.498359 19.5300917 187.231193 28 194 28 187.431732 18.1146422 187.988972 17.9610275 188.468557 17.7618349 188.947289 17.5246606 189.582185 17.2106789 190.016542 16.9355229 190.417618 16.660367 190.812722 16.339633 191.175397 15.9876697 191.492845 15.5968807 191.894775 15.0837064 192.166995 14.6870092 192.406787 14.2573945 192.568071 13.8218716 192.723382 13.4310826 192.847118 12.9955596 192.885519 12.4832294 192.924774 12.0088807 192.924774 11.6560734 192.885519 11.1825688 192.807864 10.7082202 192.684981 10.2338716 192.52967 9.76627523 192.367533 9.29277064 192.127741 8.81842202 191.849547 8.38289908 191.532099 7.9532844 191.214651 7.55658716 190.857949 7.20377982 190.495274 6.85181651 190.100171 6.53783486 189.65984 6.21710092 189.226336 5.9866789 188.746751 5.74950459 188.267166 5.55115596 187.78758 5.39078899 187.308849 5.23717431 186.796836 5.11563303 186.272023 5.07680734 185.760864 5.03882569 185.242024 5 184.801694 5.03882569 168 5.03882569 168 28 174.049429 28 174.049429 8.89522936 182.450702 8.85640367"></polygon>
                <polygon id="Fill-5" fill="#1E1E1C" points="208.989116 0 207 4 211.019955 4 211.488889 4 215 0"></polygon>
                <polygon id="Fill-6" fill="#1E1E1C" points="272.393179 28 278.606821 28 278.606821 9.0291909 285.560699 9.0291909 285.759257 8.99024516 286.003971 8.95214606 286.169436 8.91320032 286.33403 8.83615549 286.453339 8.75233748 286.532588 8.63719355 286.657993 8.52120297 286.698053 8.39928587 286.777302 8.23842303 286.816491 8.16137819 286.856551 8.1232791 288 5 265.809419 5 265.643954 5 265.439301 5.08297136 265.280803 5.1219171 265.115338 5.23706103 264.95684 5.35982478 264.830564 5.47496871 264.712126 5.63583155 264.62591 5.78992123 264.586721 5.87373923 263 9.0291909 272.393179 9.0291909"></polygon>
                <polygon id="Fill-7" fill="#1E1E1C" points="193.763248 49.9610275 194.253946 49.8006606 194.743771 49.6470459 195.188193 49.4098716 195.804621 49.0899817 196.208879 48.8528073 196.579958 48.5388257 196.944053 48.224844 197.268856 47.8720367 197.554369 47.4753394 197.839009 47.0845505 198.084358 46.6490275 198.250252 46.1746789 198.409161 45.7070826 198.534892 45.2327339 198.614346 44.7204037 198.65451 44.2080734 198.65451 43.7725505 198.614346 43.2593761 198.534892 42.7917798 198.448452 42.3182752 198.289543 41.8439266 198.124521 41.4084037 197.879173 40.9408073 197.680099 40.6200734 197.388475 40.1904587 197.063671 39.7937615 196.699577 39.4409541 196.334609 39.0889908 195.718181 38.6534679 195.234468 38.3774679 194.743771 38.1411376 194.213782 37.9039633 193.35899 37.6279633 192.788837 37.4743486 192.179394 37.3528073 191.609242 37.2371743 191.032977 37.160367 190.422661 37.0776514 189.813218 37.0388257 189.203775 37 174 37 174 60 180.236752 60 180.236752 41.1771376 188.547182 41.1771376 188.832695 41.2159633 189.243065 41.254789 189.647324 41.3315963 190.018403 41.4531376 190.502116 41.6903119 190.833904 41.8439266 191.079253 42.0422752 191.317617 42.2406239 191.562966 42.5934312 191.72886 42.9074128 191.887769 43.2593761 192.0135 43.6180917 192.092955 43.9320734 192.133118 44.246055 192.133118 44.4452477 192.092955 44.7592294 192.053664 45.1111927 191.934045 45.3863486 191.768151 45.7450642 191.562966 46.0978716 191.317617 46.3730275 190.913359 46.8085505 190.549265 47.0077431 190.178185 47.2381651 189.813218 47.3985321 189.362684 47.5588991 188.958426 47.6357064 188.547182 47.7125138 188.103634 47.7125138 184.763047 47.7125138 184.557862 47.7125138 184.391967 47.7504954 184.233058 47.834055 184.027873 47.9108624 183.861979 47.9876697 183.703069 48.109211 183.537175 48.224844 183.417557 48.3463853 183.291826 48.4620183 183.212372 48.6223853 181.582242 51.5756697 187.003493 51.5756697 193.233259 60 200 60 193.193096 50.1146422"></polygon>
                <polygon id="Fill-8" fill="#1E1E1C" points="122.909527 37 111 60 117.581174 60 120.026665 54.813519 126.960141 54.813519 127.16207 54.813519 127.442193 54.7359956 127.723175 54.6534164 127.964631 54.537974 128.205228 54.3778714 128.408016 54.1798498 128.60393 53.9877267 128.766333 53.751786 128.80586 53.6683642 130.651579 50.681187 121.950578 50.681187 126.84242 40.6141051 135.667156 59.9233193 142 59.9233193 131.173157 37"></polygon>
                <polygon id="Fill-9" fill="#1E1E1C" points="255 28 261 28 261 5 255 5"></polygon>
                <polygon id="Fill-10" fill="#1E1E1C" points="142.46245 23.9994808 142.91857 24.4001385 143.374691 24.7679128 143.824623 25.1296296 144.321406 25.450675 144.817304 25.7725857 145.314087 26.1014192 145.850647 26.3835237 146.38102 26.6266874 146.796478 26.7841814 147.373701 26.9485981 147.950923 27.1519557 148.528145 27.310315 149.145145 27.4738664 149.729439 27.5924195 150.346439 27.6711665 150.923662 27.7957771 151.661764 27.8745241 152.284952 27.9143302 152.902836 27.953271 153.519836 27.953271 154.136836 28 154.760908 28 155.378792 27.953271 156.283962 27.9143302 156.901846 27.8745241 157.525918 27.8355832 158.102256 27.7568363 158.72014 27.6711665 159.297362 27.5526134 159.873701 27.4349256 160.491585 27.310315 161.067923 27.1917619 161.685807 26.9884043 162.269217 26.8698512 162.846439 26.6664936 163.423662 26.4622707 163.872711 26.3445829 163.872711 21.9373486 163.872711 21.8975424 163.624319 22.022153 163.047981 22.2194531 162.470759 22.4626168 161.893537 22.6270336 161.316314 22.8303911 160.739092 22.9878851 160.122092 23.1124957 159.2567 23.2699896 158.72014 23.3556594 158.102256 23.4344064 157.525918 23.5131533 156.941624 23.5529595 156.324623 23.5919003 155.707623 23.5919003 155.089739 23.5919003 154.513401 23.6386293 153.975956 23.5919003 153.398734 23.5529595 152.862174 23.4742125 152.284952 23.3556594 151.748391 23.1912426 151.124319 23.0276912 150.634609 22.8693319 150.13871 22.6659744 149.681706 22.4228107 149.232657 22.1407061 148.816314 21.8577362 148.407043 21.5366909 147.870483 21.0503634 147.541652 20.6497058 147.205749 20.2421253 146.877802 19.8025268 146.629411 19.3560055 146.427869 18.8696781 146.22014 18.3833506 146.011527 17.6218415 145.891309 17.0957079 145.803797 16.5314988 145.803797 16.0053652 145.803797 15.4800969 145.803797 14.9150225 145.891309 14.3897542 146.011527 13.6213223 146.1397 13.1349948 146.30058 12.6097265 146.468531 12.1233991 146.716038 11.6838006 146.96443 11.2372793 147.373701 10.6722049 147.743194 10.2715472 148.118874 9.90377293 148.567923 9.54205607 148.984266 9.22014538 149.434198 8.89823468 150.178488 8.49151956 150.67527 8.24835583 151.252493 8.04499827 151.789053 7.88750433 152.366275 7.72308757 153.151227 7.56559363 153.727565 7.52578747 154.345449 7.44011769 154.96245 7.44011769 155.586521 7.44011769 156.163744 7.44011769 157.029135 7.47992385 157.646135 7.52578747 158.26402 7.60453444 158.88102 7.68328141 159.41758 7.76202838 160.041652 7.88750433 160.618874 8.00519211 161.235874 8.16960886 161.813097 8.28816199 162.390319 8.49151956 162.967541 8.65593631 163.25571 8.77362409 163.960222 8.97784701 164 4.57667013 163.624319 4.49100035 163.047981 4.3335064 162.470759 4.13014884 161.853759 3.96573209 161.276536 3.84717895 160.658652 3.68362755 160.082314 3.56507442 159.46443 3.44046383 158.759918 3.3219107 158.142918 3.24316372 157.565695 3.15749394 156.941624 3.07874697 156.324623 3.03980616 155.707623 3 155.089739 3 154.513401 3 153.936178 3 153.312107 3 152.734884 3.03980616 152.117884 3.07874697 151.5 3.15749394 150.923662 3.24316372 150.346439 3.36171686 149.769217 3.48632745 149.185807 3.64382139 148.608585 3.80823814 147.950923 4.01159571 147.414362 4.20889581 146.877802 4.41225337 146.30058 4.6554171 145.803797 4.93752163 145.273425 5.22049152 144.777526 5.50259605 144.280744 5.82450675 143.824623 6.19228107 143.374691 6.55399792 142.959232 6.91484943 142.549961 7.32242991 142.133619 7.72308757 141.76501 8.16960886 141.395517 8.61613015 141.060498 9.09553479 140.731667 9.54205607 140.483276 10.0681897 140.194222 10.5536518 139.865391 11.3160263 139.657662 11.8412946 139.496782 12.3665628 139.328831 12.9316372 139.208613 13.4967117 139.08044 14.0678435 139.040662 14.8760817 139 15.4411561 139 16.0053652 139 16.5704396 139.08044 17.135514 139.167951 17.7005884 139.248391 18.2647975 139.416343 18.7909311 139.577222 19.3560055 139.865391 20.1633783 140.113783 20.6886466 140.362174 21.174974 140.651227 21.7002423 140.939396 22.1796469 141.268227 22.6270336 141.597058 23.0735549 141.972739 23.5529595"></polygon>
                <polygon id="Fill-11" fill="#1E1E1C" points="204 60 210 60 210 37 204.04424 37"></polygon>
                <polygon id="Fill-12" fill="#1E1E1C" points="277.44349 37 272 37 272 60 289.321754 60 291 55.8995001 277.44349 55.8995001"></polygon>
                <polygon id="Fill-13" fill="#1E1E1C" points="223 24.0533745 211.534843 24.0533745 204.017422 24.0533745 204.017422 8.9466255 211.534843 8.9466255 222.107143 8.9466255 220.600174 5 211.534843 5 198 5 198 28 211.534843 28 220.963415 28"></polygon>
                <polygon id="Fill-14" fill="#1E1E1C" points="306.769841 37 293 37 293 60 306.769841 60 316.146998 60 318 55.8675963 306.769841 55.8675963 299.161146 55.8675963 299.161146 41.0167706 306.769841 41.0167706 317.07695 41.0167706 315.669082 37"></polygon>
                <polygon id="Fill-15" fill="#1E1E1C" points="303.72524 46 303.560483 46.0386636 303.356705 46.0386636 303.119975 46.0764867 302.91533 46.1529733 302.75144 46.2740071 302.546795 46.3891574 302.388975 46.5488548 302.349954 46.6253415 300 50 307.003035 50 310.194983 50 310.320718 50 310.484608 49.9621769 310.682317 49.9176298 310.886095 49.8403026 311.09074 49.7638159 311.24856 49.6495062 311.413317 49.4898088 311.492227 49.3746585 314 46 307.003035 46"></polygon>
                <path d="M262.597458,49.4413389 L262.597458,49.926156 L262.559563,50.4886128 L262.484598,51.0519324 L262.403866,51.4970669 L262.291006,52.0603865 L262.172379,52.623706 L261.984554,53.147343 L261.790962,53.67098 L261.59737,54.1954796 L261.327988,54.7122153 L261.059431,55.1573499 L260.715084,55.5567633 L260.364971,55.9233954 L260.021448,56.283989 L259.640031,56.6506211 L259.177057,56.9318496 L258.751979,57.2139406 L258.289005,57.410628 L257.832622,57.5736715 L257.369649,57.7375776 L256.907499,57.8557626 L256.175969,57.9730849 L255.63803,58.0188061 L254.637118,58.0188061 L254.100003,57.934265 L253.599135,57.8557626 L253.099091,57.7375776 L252.604813,57.5736715 L252.104769,57.410628 L251.604725,57.2139406 L251.023125,56.8861284 L250.604637,56.6048999 L250.216629,56.283989 L249.835211,55.9233954 L249.490865,55.5567633 L248.947159,54.9020014 L248.678602,54.502588 L248.452882,54.0574534 L248.222219,53.573499 L248.027803,53.0886818 L247.834211,52.5650449 L247.68428,52.0405452 L247.565654,51.5238095 L247.452794,50.757764 L247.371238,50.1944444 L247.371238,49.1074879 L247.452794,48.4199448 L247.527759,47.8169427 L247.602724,47.2544859 L247.721351,46.7299862 L247.872106,46.1675293 L248.065698,45.6827122 L248.25929,45.1590752 L248.528671,44.7199793 L248.759334,44.2360248 L249.103681,43.8297101 L249.410133,43.4302968 L249.760246,43.0636646 L250.141663,42.7427536 L250.716673,42.3036577 L251.141752,42.0621118 L251.604725,41.8197032 L252.061108,41.6161146 L252.524081,41.4591097 L252.987055,41.3348861 L253.755656,41.2167012 L254.487187,41.1321601 L254.987231,41.1321601 L255.218718,41.0924776 L255.988143,41.1778813 L256.907499,41.3348861 L257.369649,41.4591097 L257.870517,41.6161146 L258.332666,41.8197032 L258.751979,42.0224293 L259.214952,42.3036577 L259.602136,42.5857488 L259.983554,42.9066598 L260.364971,43.2663906 L260.715084,43.6330228 L261.059431,44.0324362 L261.327988,44.4775707 L261.59737,44.9166667 L261.790962,45.4014838 L261.984554,45.8854382 L262.172379,46.3702553 L262.291006,46.8481712 L262.365971,47.2544859 L262.440937,47.8169427 L262.522493,48.3802622 L262.597458,48.9047619 L262.597458,49.4672188 L262.597458,49.4413389 Z M268.900321,48.4328847 L268.86325,47.8695652 L268.788284,47.431332 L268.712495,46.8611111 L268.593869,46.3443754 L268.443938,45.7810559 L268.287417,45.2574189 L268.05593,44.7329193 L267.862338,44.2092823 L267.59378,43.7253278 L267.324399,43.2405107 L266.980876,42.7556936 L266.637353,42.3174603 L266.286416,41.8714631 L265.904999,41.4332298 L265.517815,41.0269151 L265.098502,40.6275017 L264.673424,40.2608696 L264.17338,39.9011387 L263.710406,39.5802277 L263.210362,39.2593168 L262.716085,38.9772257 L262.172379,38.7356798 L261.672335,38.4535887 L261.178058,38.2508627 L260.640119,38.0481366 L260.096414,37.844548 L259.558475,37.6875431 L259.020536,37.523637 L258.445526,37.4063147 L257.907588,37.2820911 L257.332578,37.1639061 L256.757569,37.1242236 L256.21963,37.0854037 L255.675101,37.0396825 L255.175057,37.0396825 L254.987231,37 L254.718674,37 L254.2557,37.0396825 L253.793551,37.0396825 L253.255612,37.0854037 L252.717673,37.1242236 L252.142664,37.1639061 L251.604725,37.2424086 L251.023125,37.3666322 L250.485186,37.4848171 L249.948071,37.6021394 L249.410133,37.7660455 L248.872194,37.9299517 L248.37215,38.1266391 L247.872106,38.3690476 L247.334167,38.6105935 L246.871194,38.8530021 L246.333255,39.2135956 L245.914767,39.494824 L245.45756,39.8614562 L245.032481,40.2220497 L244.613993,40.5817805 L244.225985,40.9880952 L243.844567,41.4332298 L243.494454,41.8326432 L243.113037,42.3562802 L242.806584,42.8014148 L242.500132,43.2793306 L242.231575,43.7641477 L242.000088,44.2877847 L241.806496,44.8114217 L241.57501,45.3359213 L241.418488,45.8983782 L241.230663,46.6652864 L241.149931,47.2277433 L241.074965,47.8307453 L241,48.3932022 L241,50.0046584 L241.074965,50.6067978 L241.112036,51.1701173 L241.230663,51.7334369 L241.343523,52.302795 L241.46215,52.8203934 L241.649975,53.4285714 L241.843567,53.991891 L242.075054,54.515528 L242.30654,54.9943064 L242.575098,55.5179434 L242.88155,56.0027605 L243.344523,56.7291235 L243.688046,57.1682195 L244.076054,57.5736715 L244.457472,58.0188061 L244.845479,58.4182195 L245.263968,58.778813 L245.764012,59.184265 L246.226985,59.505176 L246.689959,59.7872671 L247.190003,60.1081781 L247.690047,60.3505866 L248.227986,60.631815 L248.72803,60.8345411 L249.265968,61.0769496 L249.997499,61.2796756 L250.535438,61.4375431 L251.110447,61.5617667 L251.686281,61.679089 L252.223396,61.7575914 L252.799229,61.8429952 L253.336344,61.8826777 L253.917944,61.9611801 L254.493777,61.9611801 L254.993822,62 L255.619083,62 L256.194092,61.9611801 L256.775692,61.9214976 L257.351525,61.8826777 L257.88864,61.797274 L258.807997,61.6402692 L259.345935,61.5160455 L259.889641,61.3978606 L260.42758,61.2339545 L260.965518,61.0769496 L261.503457,60.8345411 L262.003501,60.631815 L262.503545,60.3894065 L263.229309,59.9899931 L263.729354,59.7087647 L264.191503,59.4266736 L264.617406,59.1057626 L265.035894,58.7391304 L265.460973,58.3793996 L265.848981,57.9730849 L266.230398,57.5736715 L266.730442,56.9189096 L267.036894,56.4340925 L267.343346,55.950138 L267.611904,55.426501 L267.843391,54.9416839 L268.074877,54.4180469 L268.268469,53.8547274 L268.462885,53.3310904 L268.574921,52.7677709 L268.731443,52.2044513 L268.806408,51.6411318 L268.881373,51.0786749 L268.956339,50.4756729 L269,49.9123533 L269,49.592305 L268.956339,49.0289855 L268.919268,48.4199448 L268.900321,48.4328847 Z" id="Fill-16" fill="#1E1E1C"></path>
                <polygon id="Fill-17" fill="#1E1E1C" points="207.825265 14 207.63269 14 207.402421 14.0394173 207.134455 14.0848329 206.941881 14.201371 206.711611 14.2793488 206.562468 14.4421594 206.369894 14.6435304 204 18 210.5 18 213.36731 18 213.441881 18 213.672151 17.9614396 213.902421 17.9220223 214.094995 17.8440446 214.325265 17.7206512 214.512103 17.5646958 214.667801 17.4404456 214.82268 17.2390746 214.934947 17.1216795 217 14 210.5 14"></polygon>
                <path d="M240.343117,23.6498349 L239.859388,23.8102018 L239.368674,23.9249908 L238.878833,24.0017982 L238.388118,24.0853578 L231.097256,24.0853578 L231.097256,8.83783486 L237.062666,8.83783486 L237.631964,8.88256881 L237.877321,8.88256881 L238.162844,8.92055046 L238.646573,9.03618349 L239.176579,9.15772477 L239.667294,9.31133945 L240.157135,9.51053211 L240.647849,9.74770642 L241.092286,9.9840367 L241.542835,10.2600367 L241.993384,10.5740183 L242.357491,10.9259817 L242.682305,11.2019817 L243.047285,11.5986789 L243.331934,11.9894679 L243.623569,12.4249908 L243.822648,12.8613578 L244.068006,13.3289541 L244.233905,13.7644771 L244.352655,14.2768073 L244.432112,14.590789 L244.557847,15.1031193 L244.638177,15.6154495 L244.638177,17.0697248 L244.557847,17.5828991 L244.478389,18.0952294 L244.313363,18.6075596 L244.19374,19.0430826 L244.02784,19.5562569 L243.822648,20.0685872 L243.577291,20.5361835 L243.292642,21.0105321 L243.00712,21.4840367 L242.682305,21.9195596 L242.357491,22.3103486 L242.033549,22.663156 L241.622292,22.9383119 L241.218021,23.2202202 L240.767472,23.4506422 L240.316922,23.6498349 L240.343117,23.6498349 Z M241.814387,27.5518165 L242.629916,27.3526239 L243.199214,27.1542752 L243.730094,26.9618349 L244.2601,26.7634862 L244.790106,26.4883303 L245.605635,26.0519633 L246.109447,25.7962202 L246.559996,25.5202202 L247.05071,25.2062385 L247.454982,24.8542752 L247.865366,24.4567339 L248.230346,24.1047706 L248.720187,23.5536147 L249.045001,23.1180917 L249.330524,22.6825688 L249.615173,22.2149725 L249.899822,21.7026422 L250.105887,21.1894679 L250.351244,20.6003303 L250.469994,20.0044404 L250.635893,19.4532844 L250.755516,18.9029725 L250.841085,18.3518165 L250.881251,17.8006606 L250.920543,17.2115229 L250.960708,16.6983486 L251,16.1860183 L251,15.7504954 L250.960708,15.2381651 L250.881251,14.6870092 L250.794808,14.1358532 L250.675186,13.6235229 L250.510159,13.072367 L250.351244,12.5600367 L250.145179,12.0477064 L249.899822,11.5353761 L249.655338,11.0669358 L249.369816,10.5934312 L249.045001,10.1190826 L248.640729,9.56792661 L248.269638,9.13240367 L247.865366,8.74161468 L247.454982,8.34491743 L247.010545,7.99211009 L246.559996,7.71695413 L246.109447,7.40297248 L245.66501,7.12697248 L245.174296,6.85181651 L244.723747,6.6146422 L244.240017,6.37746789 L243.749303,6.17911927 L243.219297,5.9866789 L242.729456,5.82715596 L242.198576,5.66678899 L241.708735,5.51317431 L241.177855,5.39078899 L240.647849,5.276 L240.124828,5.19919266 L239.634114,5.11563303 L239.104107,5.07680734 L238.613393,5.03882569 L238.083387,5 L237.924472,5 L237.592672,5.03882569 L225,5.03882569 L225,28 L238.918125,28 L239.488296,27.9620183 L240.058468,27.885211 L240.627766,27.8084037 L241.244215,27.6860183 L241.814387,27.5712294 L241.814387,27.5518165 Z" id="Fill-18" fill="#1E1E1C"></path>
                <polygon id="Fill-19" fill="#1E1E1C" points="237.306052 56.2215159 236.877218 56.381322 236.297127 56.5481526 235.754435 56.7079587 235.167696 56.8747893 234.587606 56.9942048 234.044914 57.1215229 233.463993 57.2409385 232.883902 57.281329 232.37944 57.3682565 231.79935 57.4481596 231.250009 57.4876721 230.707317 57.534209 230.127227 57.534209 229.584535 57.4876721 229.004444 57.4481596 228.26645 57.407769 227.761987 57.327866 227.219295 57.2409385 226.752231 57.1215229 226.247769 56.9143018 225.787353 56.7544956 225.244661 56.4682495 224.777597 56.2215159 224.386992 55.9352697 223.963975 55.6481455 223.572538 55.3153625 223.106305 54.7815046 222.797145 54.3749649 222.487986 53.9684251 222.217055 53.5153484 221.983523 53.0622717 221.787389 52.5758289 221.554688 51.7495785 221.440831 51.1762082 221.402602 50.6098623 221.365203 50.0768826 221.365203 49.4964878 221.402602 48.9231174 221.440831 48.3901377 221.516459 47.8641824 221.592087 47.3303245 221.749991 46.8377353 221.907895 46.3442681 222.096549 45.8911913 222.412358 45.317821 222.683288 44.8708907 222.992448 44.417814 223.339837 44.0516648 223.693044 43.6784911 224.077832 43.3114639 224.506667 42.9848272 224.967082 42.6985811 225.434146 42.4518474 225.938609 42.2051138 226.443071 41.9987707 226.947534 41.8389646 227.528455 41.7125246 228.071147 41.6317435 228.613008 41.5518404 229.199747 41.5053035 229.742439 41.465791 230.480434 41.5053035 231.023126 41.5518404 231.641445 41.6317435 232.221536 41.672134 232.764228 41.798574 233.350967 41.8784771 233.931057 41.9987707 234.473749 42.1656013 235.053839 42.3315538 235.596531 42.492238 236.176621 42.6581905 236.719313 42.8583872 237.262005 43.0647303 237.306052 43.0647303 237.924372 43.3114639 237.924372 38.7192329 237.72907 38.6393299 237.306052 38.4795237 237.186378 38.4329868 236.643686 38.2327901 236.063595 38.026447 235.520903 37.8596165 234.820307 37.6998103 234.278446 37.5733703 233.697525 37.4530767 233.117435 37.3731736 232.530696 37.2862461 231.407913 37.1668306 230.827823 37.12644 230.246902 37.0799031 229.660163 37.0403906 228.966215 37 228.386125 37 227.837615 37 227.256694 37.0403906 226.676603 37.0799031 225.787353 37.2063431 225.200614 37.2862461 224.657922 37.4135642 224.11523 37.5329798 223.572538 37.6998103 223.068076 37.9061534 222.374128 38.1932776 221.869666 38.3925962 221.365203 38.6797204 220.898139 38.9659666 220.393677 39.2530908 219.964842 39.5858738 219.42215 40.0328042 218.999133 40.4059778 218.608528 40.772127 218.18551 41.1786668 217.832304 41.6317435 217.485745 42.0856982 216.980452 42.7380936 216.672123 43.2719514 216.400361 43.7645406 216.129431 44.2983984 215.933297 44.8313782 215.737995 45.237918 215.548509 45.8112883 215.391436 46.3442681 215.27093 46.9176384 215.157904 47.4901307 215.038229 48.4366746 215 49.010045 215 49.5834153 215 50.1567856 215.038229 50.8961085 215.119675 51.4624543 215.233532 52.0428491 215.353207 52.6162194 215.467064 53.1887117 215.737995 53.9218882 215.933297 54.455746 216.166829 54.9887258 216.438591 55.481315 216.709521 56.0151728 217.094309 56.6684462 217.447516 57.1215229 217.794905 57.5745996 218.141463 58.0206519 218.570298 58.4342161 219.11299 58.9206589 219.541825 59.2938325 220.00224 59.6608598 220.469304 59.9471059 221.011996 60.3202796 221.516459 60.5599888 222.059151 60.8067224 222.601843 61.0139435 223.106305 61.2202866 223.648997 61.3800927 224.740199 61.6268264 225.320289 61.7137539 225.900379 61.7936569 226.481301 61.87356 227.061391 61.9130725 227.95729 61.9534631 228.53738 62 229.118302 62 229.698392 62 230.285131 61.9534631 230.865221 61.9534631 231.483541 61.87356 232.026233 61.8331694 232.530696 61.7936569 233.117435 61.7137539 233.697525 61.6268264 234.278446 61.5065327 234.820307 61.3800927 235.401229 61.2202866 235.981319 61.053456 236.529828 60.8936499 237.07252 60.7268193 237.306052 60.6469163 237.344282 60.6074038 237.961771 60.4001826 238 55.9352697 237.41991 56.1811253"></polygon>
                <polygon id="Fill-20" fill="#0385BA" points="40.5287596 9.07884517 38.3703776 9.3613015 35.93192 9.88722479 33.4163772 10.6176257 30.7766419 11.5845621 28.2217001 12.6762644 25.7772469 13.8138876 23.4235828 15.0641468 21.1024658 16.3984497 18.7488017 17.8913094 16.3043485 19.5487909 13.9129984 21.292049 11.793159 23.0275092 9.91485282 24.6061455 8.23696783 26.2237711 6.59248637 27.9211084 5.07733652 29.782201 3.67952727 31.7221388 2.43760117 33.701066 1.43635178 35.8454814 0.637236567 37.9898968 0.201277679 40.1733016 0 42.2778612 0.162735145 44.5401111 0.558438497 46.927127 1.19567506 49.3080779 2.04104132 51.5772593 2.99689617 53.6350316 4.11548616 55.4571349 5.43535384 57.2333173 6.95564269 58.8500766 8.59498515 60.2710225 10.3499552 61.4814259 12.313055 62.4544273 14.62732 63.3026627 17.3835395 64.0729194 20.3427496 64.5988427 23.3850403 64.9211548 26.3819365 65 29.25464 64.8353782 31.8558328 64.6378321 34.3328331 64.2695991 36.8098333 63.8294524 39.292829 63.3425185 41.6079505 62.7767394 43.8896686 62.2109603 46.2887272 61.4814259 48.7657274 60.7518914 51.2427276 59.941779 53.7591268 59.0545542 56.2806651 58.0876178 58.7970643 57.0747606 61.3134636 55.9830582 63.8744008 54.7665898 66.5920778 53.4374855 68.1517656 52.5831851 70.187668 51.4914827 72.9832864 49.9596336 77.0653691 47.7363731 82.6960051 44.5791005 90.1724002 40.4159021 99.1245462 35.3594139 109 29.8610462 109 17.8913094 100.685091 22.6662077 92.6494004 27.2366283 85.1344628 31.4396825 78.3012997 35.2008571 72.1447722 38.5158201 66.6314768 41.3828385 61.5926828 43.855631 57.0806368 45.9142698 52.842671 47.7363731 48.8042699 49.2292327 44.8061244 50.5644021 40.9321714 51.6950938 37.05051 52.6291059 33.2930411 53.4374855 29.73685 54.0431204 26.3819365 54.5231229 23.3850403 54.8523664 20.7059059 55.0100568 18.4635869 55.1348228 16.5064827 55.0499126 13.5481291 54.726734 11.5130832 54.247598 10.0304804 53.6350316 8.83480536 52.826652 7.87209851 51.8995714 7.11238233 50.807869 6.67727994 49.5974657 6.5145448 48.1765197 6.67727994 46.4800489 7.27511747 44.5401111 8.23696783 42.4346851 9.51144096 40.2980676 11.1105279 38.1536522 12.911749 36.0889484 14.7506561 34.1879999 16.6298188 32.5313849 18.6648646 30.9128928 20.9465826 29.1774326 23.3002467 27.5987963 25.5819648 26.1839153 27.9424809 24.8496124 30.3809385 23.5932883 32.8176832 22.5015859 35.2955399 21.4956601 37.6551995 20.6864141 39.8529805 19.995869 41.8092282 19.5487909 43.6095928 19.2663345 45.4048184 19.1874894 47.2839811 19.3521112 48.284374 19.4699457 47.764478 17.6088531 46.8480222 14.4585119 46.125992 12.2352513 45.5666971 10.900082 45.1255992 10.1705476 44.6896403 9.722603 44.2082868 9.4011573 43.4477142 9.11783454 42.2520391 9"></polygon>
            </g>
        </g>
    </g>
</svg>