<?xml version="1.0" encoding="UTF-8"?>
<svg width="133px" height="68px" viewBox="0 0 133 68" version="1.1" xmlns="http://www.w3.org/2000/svg" xmlns:xlink="http://www.w3.org/1999/xlink">
    <title>logo-part-marbour</title>
    <defs>
        <polygon id="path-1" points="0 0 8.6146 0 8.6146 10.8871133 0 10.8871133"></polygon>
    </defs>
    <g id="Page-1" stroke="none" stroke-width="1" fill="none" fill-rule="evenodd">
        <g id="Desktop-HD" transform="translate(-753.000000, -1003.000000)">
            <g id="Group-24" transform="translate(758.000000, 1025.000000)">
                <path d="M40.0224,10.5004 C40.8624,9.7504 41.3594,9.3094 41.5124,9.1774 C41.8744,8.8894 42.2784,8.6574 42.7104,8.4904 C43.1264,8.3334 43.5674,8.2524 44.0124,8.2504 C44.6794,8.2334 45.3344,8.4344 45.8764,8.8234 C46.4154,9.2384 46.7854,9.8334 46.9184,10.5004 C47.5414,9.7744 48.2854,9.1614 49.1164,8.6874 C49.6904,8.4064 50.3214,8.2594 50.9604,8.2604 C51.5344,8.2504 52.1004,8.3984 52.5954,8.6874 C53.1224,9.0204 53.5274,9.5134 53.7524,10.0944 C53.9714,10.7654 54.0664,11.4714 54.0334,12.1774 L54.0334,16.7194 C53.9934,17.1854 54.0394,17.6554 54.1684,18.1044 C54.2764,18.2924 54.4404,18.4414 54.6374,18.5324 C54.9914,18.6744 55.3724,18.7344 55.7524,18.7094 L55.7524,19.1254 L50.0644,19.1254 L50.0644,18.7504 L50.3044,18.7504 C50.7064,18.7734 51.1064,18.6834 51.4604,18.4904 C51.6664,18.3484 51.8134,18.1384 51.8774,17.8964 C51.9074,17.5254 51.9074,17.1524 51.8774,16.7814 L51.8774,12.1984 C51.9374,11.5904 51.8404,10.9764 51.5954,10.4174 C51.2444,9.8884 50.6354,9.5894 50.0024,9.6354 C49.5374,9.6394 49.0794,9.7424 48.6584,9.9374 C48.0634,10.2394 47.5134,10.6214 47.0224,11.0734 L47.0224,11.1984 L47.0224,11.6984 L47.0224,16.7404 C46.9904,17.1964 47.0364,17.6544 47.1584,18.0944 C47.2704,18.2944 47.4464,18.4524 47.6584,18.5424 C48.0724,18.7034 48.5164,18.7744 48.9604,18.7504 L48.9604,19.1674 L43.0744,19.1674 L43.0744,18.7504 C43.5254,18.7854 43.9794,18.7144 44.3974,18.5424 C44.6404,18.4094 44.8204,18.1844 44.8974,17.9174 C44.9574,17.5384 44.9784,17.1544 44.9604,16.7714 L44.9604,12.1984 C45.0134,11.5524 44.8674,10.9054 44.5434,10.3444 C44.1804,9.8554 43.5994,9.5784 42.9914,9.6044 C42.5204,9.6074 42.0564,9.7224 41.6374,9.9374 C41.0304,10.2134 40.4824,10.6024 40.0224,11.0834 L40.0224,16.7504 C39.9884,17.2074 40.0414,17.6674 40.1784,18.1044 C40.2794,18.3084 40.4444,18.4724 40.6474,18.5734 C41.0534,18.7074 41.4814,18.7614 41.9074,18.7294 L41.9074,19.1464 L36.1894,19.1464 L36.1894,18.7504 C36.5674,18.7754 36.9464,18.7224 37.3034,18.5944 C37.5154,18.4874 37.6844,18.3104 37.7824,18.0944 C37.9224,17.6684 37.9784,17.2194 37.9494,16.7714 L37.9494,12.6984 C37.9724,11.9354 37.9304,11.1724 37.8244,10.4174 C37.7934,10.2164 37.6934,10.0324 37.5434,9.8964 C37.3904,9.7914 37.2074,9.7394 37.0224,9.7504 C36.7334,9.7624 36.4484,9.8224 36.1784,9.9274 L35.9914,9.5104 L39.4804,8.2504 L40.0224,8.2504 L40.0224,10.5004 Z" id="Fill-1" fill="#2D2E81"></path>
                <path d="M62.9712,17.584 C62.2622,18.118 61.5172,18.602 60.7422,19.032 C60.2842,19.226 59.7912,19.325 59.2942,19.324 C58.5602,19.351 57.8462,19.081 57.3152,18.574 C56.8082,18.07 56.5292,17.381 56.5442,16.667 C56.5312,16.195 56.6622,15.73 56.9192,15.334 C57.3912,14.702 58.0092,14.195 58.7212,13.855 C60.0952,13.182 61.5192,12.618 62.9812,12.167 L62.9812,11.75 C63.0622,10.985 62.8662,10.217 62.4292,9.584 C62.0122,9.157 61.4322,8.929 60.8362,8.959 C60.3752,8.939 59.9242,9.087 59.5652,9.375 C59.2742,9.583 59.0972,9.914 59.0852,10.271 L59.0852,10.938 C59.1112,11.243 59.0002,11.544 58.7832,11.761 C58.5772,11.96 58.2992,12.065 58.0122,12.053 C57.7282,12.06 57.4542,11.951 57.2522,11.75 C57.0432,11.529 56.9342,11.232 56.9502,10.927 C57.0022,10.174 57.4182,9.494 58.0652,9.105 C58.9882,8.495 60.0852,8.203 61.1902,8.271 C62.0542,8.238 62.9152,8.399 63.7112,8.74 C64.1962,8.97 64.5842,9.365 64.8042,9.855 C65.0012,10.513 65.0782,11.201 65.0342,11.886 L65.0342,15.469 C65.0162,16.088 65.0372,16.707 65.0962,17.324 C65.1112,17.496 65.1842,17.658 65.3042,17.782 C65.3992,17.858 65.5172,17.898 65.6382,17.897 C65.7612,17.899 65.8832,17.87 65.9922,17.813 C66.3632,17.563 66.7122,17.28 67.0342,16.969 L67.0342,17.615 C66.4342,18.562 65.4462,19.195 64.3362,19.344 C63.9642,19.363 63.6032,19.218 63.3462,18.949 C63.0652,18.563 62.9322,18.09 62.9712,17.615 M62.9712,16.855 L62.9712,12.834 C62.1352,13.118 61.3152,13.445 60.5132,13.813 C59.9682,14.054 59.4812,14.409 59.0852,14.855 C58.8092,15.197 58.6592,15.623 58.6582,16.063 C58.6432,16.576 58.8392,17.073 59.2002,17.438 C59.5222,17.788 59.9752,17.988 60.4502,17.99 C61.3862,17.863 62.2642,17.461 62.9712,16.834" id="Fill-3" fill="#2D2E81"></path>
                <path d="M71.0236,8.2503 L71.0236,10.6253 C71.9886,9.0423 72.9686,8.2503 73.9616,8.2503 C74.3776,8.2353 74.7846,8.3723 75.1066,8.6353 C75.3896,8.8473 75.5586,9.1783 75.5656252,9.5313 C75.5676,9.8183 75.4506,10.0943 75.2426,10.2923 C75.0346,10.4963 74.7526,10.6083 74.4616,10.6043 C74.0806,10.5893 73.7146,10.4503 73.4196,10.2083 C73.1896,10.0053 72.9086,9.8683 72.6066,9.8133 C72.4216,9.8283 72.2486,9.9103 72.1176,10.0423 C71.6366,10.4863 71.2386,11.0113 70.9406,11.5943 L70.9406,16.6673 C70.9156,17.1213 70.9976,17.5743 71.1796,17.9903 C71.3146,18.2213 71.5186,18.4033 71.7636,18.5113 C72.1426,18.6683 72.5516,18.7393 72.9616,18.7193 L72.9616,19.1363 L67.1176,19.1363 L67.1176,18.7503 C67.5686,18.7813 68.0206,18.6953 68.4296,18.5003 C68.6416,18.3653 68.7966,18.1583 68.8676,17.9173 C68.9266,17.5493 68.9476,17.1753 68.9296,16.8023 L68.9296,12.6563 C68.9596,11.9093 68.9346,11.1613 68.8566,10.4173 C68.8216,10.2163 68.7136,10.0343 68.5546,9.9063 C68.3936,9.7923 68.1996,9.7343 68.0026,9.7403 C67.6996,9.7493 67.4006,9.8093 67.1176,9.9173 L66.9926,9.5003 L70.4816,8.2083 L71.0236,8.2503 Z" id="Fill-5" fill="#2D2E81"></path>
                <path d="M79.1698,10.4171 C79.9828,9.1911 81.3258,8.4191 82.7948,8.3341 C83.9868,8.3271 85.1248,8.8321 85.9198,9.7191 C86.8458,10.7621 87.3218,12.1291 87.2428,13.5211 C87.2908,15.2741 86.5208,16.9481 85.1598,18.0531 C84.0678,18.9731 82.6808,19.4691 81.2528,19.4491 C80.5458,19.4491 79.8418,19.3361 79.1698,19.1151 C78.4358,18.8531 77.7368,18.5031 77.0868,18.0741 L77.0868,7.1671 C77.1118,6.4261 77.0798,5.6841 76.9928,4.9481 C76.9598,4.7311 76.8528,4.5321 76.6908,4.3861 C76.5438,4.2841 76.3688,4.2331 76.1908,4.2401 C75.8868,4.2541 75.5878,4.3171 75.3048,4.4271 L75.1278,4.0211 L78.5968,2.7291 L79.1698,2.7291 L79.1698,10.4171 Z M79.1698,11.1251 L79.1698,17.4491 C79.5628,17.8111 80.0138,18.1071 80.5028,18.3241 C80.9468,18.5161 81.4258,18.6151 81.9098,18.6151 C82.7588,18.5711 83.5438,18.1461 84.0448,17.4591 C84.7858,16.5031 85.1558,15.3121 85.0868,14.1051 C85.1488,12.9681 84.7768,11.8511 84.0448,10.9801 C83.4818,10.3221 82.6608,9.9421 81.7948,9.9381 C81.3328,9.9421 80.8778,10.0491 80.4618,10.2501 C79.9898,10.4981 79.5558,10.8101 79.1698,11.1771 L79.1698,11.1251 Z" id="Fill-7" fill="#2D2E81"></path>
                <path d="M94.3058,8.2503 C97.2848,8.1583 99.7738,10.4983 99.8658,13.4773 C99.8678,13.5333 99.8688,13.5903 99.8688,13.6463 C99.8568,14.6503 99.6028,15.6363 99.1288,16.5213 C98.6708,17.4433 97.9448,18.2063 97.0458,18.7093 C96.1578,19.2063 95.1558,19.4613 94.1388,19.4483 C92.5258,19.5143 90.9778,18.8063 89.9718,17.5423 C89.1278,16.5353 88.6658,15.2623 88.6697742,13.9483 C88.6838,12.9353 88.9568,11.9413 89.4618,11.0633 C89.9368,10.1793 90.6618,9.4543 91.5448,8.9793 C92.3838,8.5263 93.3218,8.2893 94.2748,8.2923 M93.8998,9.0003 C93.4268,9.0113 92.9648,9.1403 92.5558,9.3753 C92.0808,9.6763 91.7158,10.1213 91.5138,10.6463 C91.2108,11.3893 91.0688,12.1883 91.0978,12.9903 C91.0718,14.3873 91.4328,15.7643 92.1388,16.9693 C92.6358,17.9813 93.6578,18.6293 94.7848,18.6463 C95.5338,18.6333 96.2398,18.2903 96.7118,17.7093 C97.3208,16.7863 97.6008,15.6853 97.5038,14.5843 C97.6098,12.9823 97.1448,11.3953 96.1908,10.1043 C95.6488,9.3953 94.8028,8.9853 93.9098,9.0003" id="Fill-9" fill="#2D2E81"></path>
                <path d="M111.4627,8.5629 L111.4627,14.9589 C111.4367,15.7069 111.4687,16.4559 111.5567,17.1989 C111.5897,17.4179 111.6957,17.6209 111.8587,17.7719 C111.9987,17.8779 112.1717,17.9329 112.3477,17.9279 C112.6527,17.9179 112.9537,17.8509 113.2337,17.7299 L113.4107,18.1359 L109.9527,19.4379 L109.3797,19.4379 L109.3797,17.2089 C108.7147,17.9319 107.9497,18.5569 107.1087,19.0629 C106.5937,19.3179 106.0267,19.4498864 105.4517,19.4489 C104.8497,19.4649 104.2577,19.2859 103.7647,18.9379 C103.2837,18.6209 102.9177,18.1569 102.7227,17.6149 C102.5107,16.8739 102.4157,16.1049 102.4417,15.3339 L102.4417,10.6149 C102.4707,10.2589 102.4097,9.8999 102.2647,9.5729 C102.1407,9.3739 101.9587,9.2179 101.7437,9.1259 C101.3367,8.9969 100.9087,8.9469 100.4827,8.9799 L100.4827,8.5629 L104.5357,8.5629 L104.5357,15.6259 C104.4407,16.3219 104.6457,17.0259 105.0977,17.5629 C105.4807,17.8709 105.9607,18.0329 106.4517,18.0219 C106.8797,18.0049 107.2977,17.8989 107.6817,17.7089 C108.3057,17.4079 108.8787,17.0109 109.3797,16.5319 L109.3797,10.5419 C109.4117,10.1169 109.2727,9.6969 108.9937,9.3759 C108.5427,9.1049 108.0177,8.9849 107.4937,9.0319 L107.4937,8.5629 L111.4627,8.5629 Z" id="Fill-11" fill="#2D2E81"></path>
                <g id="Group-15" transform="translate(113.306400, 8.249187)">
                    <mask id="mask-2" fill="white">
                        <use xlink:href="#path-1"></use>
                    </mask>
                    <g id="Clip-14"></g>
                    <path d="M4.042,0.0011133407 L4.042,2.37611334 C4.98,0.793113341 5.969,0.0011133407 7.011,0.0011133407 C7.427,-0.0138866593 7.835,0.123113341 8.157,0.386113341 C8.439,0.598113341 8.609,0.929113341 8.61502523,1.28211334 C8.617,1.56911334 8.5,1.84511334 8.292,2.04311334 C8.083,2.24611334 7.802,2.35811334 7.511,2.35511334 C7.13,2.34011334 6.764,2.20111334 6.469,1.95911334 C6.239,1.75611334 5.958,1.62011334 5.657,1.56411334 C5.471,1.57911334 5.298,1.66111334 5.167,1.79311334 C4.686,2.23711334 4.288,2.76211334 3.99,3.34511334 L3.99,8.41811334 C3.965,8.87211334 4.047,9.32511334 4.23,9.74111334 C4.363,9.97211334 4.568,10.1551133 4.813,10.2621133 C5.192,10.4191133 5.601,10.4901133 6.011,10.4701133 L6.011,10.8871133 L0.136,10.8871133 L0.136,10.5011133 C0.587,10.5321133 1.039,10.4461133 1.448,10.2511133 C1.66,10.1161133 1.815,9.90911334 1.886,9.66811334 C1.945,9.30011334 1.966,8.92611334 1.948,8.55311334 L1.948,4.40711334 C1.972,3.67411334 1.944,2.93911334 1.865,2.20911334 C1.829,2.00811334 1.722,1.82711334 1.563,1.69911334 C1.402,1.58511334 1.208,1.52611334 1.011,1.53211334 C0.708,1.54111334 0.408,1.60111334 0.125,1.70911334 L0,1.29311334 L3.49,0.0011133407 L4.042,0.0011133407 Z" id="Fill-13" fill="#2D2E81" mask="url(#mask-2)"></path>
                </g>
                <path d="M15.886,0 C24.772,0 31.116,6.167 31.116,12.5 C31.116,19.678 23.605,25.001 16.157,25.001 C4.813,25.001 0,18.105 0,12.282 C0,6.459 5.938,0 15.886,0 M15.219,4.792 C7.636,4.792 1.563,9.698 1.563,10.105 C1.563,10.698 4.563,12.563 4.563,12.563 C4.563,12.563 1.24,14.105 1.563,14.844 C1.615,14.969 6.771,20.24 16.334,20.24 C23.918,20.24 29.272,15.032 29.272,14.782 C29.272,14.063 26.657,12.511 26.657,12.511 C26.657,12.511 29.251,10.875 29.251,10.136 C29.251,9.948 24.584,4.792 15.209,4.792" id="Fill-16" fill="#2D2E81"></path>
                <path d="M15.511,16.4173 C18.428,16.5033 21.312,15.7823 23.845,14.3343 C24.605,13.7403 25.563,14.4693 24.959,15.1673 C22.688,16.9483 19.105,17.8233 15.49,17.8023 C11.907,17.8023 8.354,16.9483 6.115,15.1673 C5.521,14.4693 6.469,13.7403 7.229,14.3343 C9.758,15.7933 12.645,16.5153 15.563,16.4173 L15.511,16.4173 Z" id="Fill-18" fill="#2D2E81"></path>
                <path d="M15.511,8.3337 C18.428,8.2477 21.312,8.9687 23.845,10.4167 C24.605,11.0107 25.563,10.2817 24.959,9.5837 C22.72,7.8127 19.136,6.9377 15.521,6.9587 C11.938,6.9587 8.386,7.8127 6.146,9.5937 C5.552,10.2917 6.5,11.0217 7.261,10.4277 C9.789,8.9677 12.676,8.2467 15.594,8.3437 L15.511,8.3337 Z" id="Fill-20" fill="#2D2E81"></path>
                <path d="M9.2504,12.5943 C10.9174,11.4593 15.3344,9.3753 21.9484,12.3963 C16.9694,15.1363 10.7194,13.7923 9.2504,12.5943" id="Fill-22" fill="#2D2E81"></path>
            </g>
        </g>
    </g>
</svg>