<?xml version="1.0" encoding="UTF-8"?>
<svg width="260px" height="102px" viewBox="0 0 260 102" version="1.1" xmlns="http://www.w3.org/2000/svg" xmlns:xlink="http://www.w3.org/1999/xlink">
    <title>logo-credit-agricole</title>
    <defs>
        <polygon id="path-1" points="0 87 197 87 197 0 0 0"></polygon>
    </defs>
    <g id="Page-1" stroke="none" stroke-width="1" fill="none" fill-rule="evenodd">
        <g id="Desktop-HD" transform="translate(-607.000000, -615.000000)">
            <g id="Group-40" transform="translate(638.000000, 622.000000)">
                <polygon id="Fill-1" fill="#1E1E1C" points="5 0 5 2.74637412 15.8708152 2.74637412 15.8657041 30 19.1342959 30 19.1342959 2.74637412 30 2.74637412 30 0"></polygon>
                <g id="Group-39">
                    <path d="M66.7010585,15.4113767 C66.7010585,8.18047459 61.2818997,2.85560522 53.9963578,2.85560522 C46.7108159,2.85560522 41.2013482,8.18047459 41.2013482,15.4113767 C41.2013482,22.6422788 46.66817,27.9671482 53.9963578,27.9671482 C61.3251727,27.9671482 66.7010585,22.6422788 66.7010585,15.4113767 M38.0361481,15.4113767 C38.0361481,6.57875588 44.8011597,0.000313080278 53.9963578,0.000313080278 C63.101247,0.000313080278 69.9095316,6.53555081 69.9095316,15.4113767 C69.9095316,24.2872026 63.101247,30.8268234 53.9963578,30.8268234 C44.8011597,30.8268234 38.0361481,24.2527637 38.0361481,15.4113767" id="Fill-2" fill="#1E1E1C"></path>
                    <path d="M103.313713,10.6493004 C103.313713,5.8015654 100.10524,3.0314311 94.0369863,3.0314311 L85.9555975,3.0314311 L85.9555975,18.1851427 L94.0238162,18.1851427 C100.092697,18.1851427 103.300543,15.4112515 103.300543,10.6493004 L103.313713,10.6493004 Z M106.522186,10.6493004 C106.522186,17.0906141 101.843058,20.9978559 94.1229051,20.9978559 L85.9512075,20.9978559 L85.9512075,30.5649631 L82.7427344,30.5649631 L82.7427344,0.257539837 L94.1059722,0.257539837 C101.829888,0.257539837 106.522186,4.15664162 106.522186,10.6493004 L106.522186,10.6493004 Z" id="Fill-4" fill="#1E1E1C"></path>
                    <path d="M154.562048,27.7954549 L154.562048,30.5649631 L133.268598,30.5649631 L133.268598,28.3577471 L145.88738,16.0167487 C149.327896,12.6417433 149.964449,10.6060953 149.964449,8.52786846 C149.964449,5.02011703 147.491616,2.85547998 142.850744,2.85547998 C139.298596,2.85547998 136.56299,3.93748543 134.567415,6.23486851 L132.356729,4.32820961 C134.700997,1.55870147 138.472646,0.000187848167 143.109128,0.000187848167 C149.267691,0.000187848167 153.168532,3.11784126 153.168532,8.1590599 C153.168532,11.0613141 152.256663,13.6592542 148.183984,17.64414 L137.861807,27.7741655 L154.562048,27.7954549 Z" id="Fill-6" fill="#1E1E1C"></path>
                    <path d="M184.960073,15.4113767 C184.960073,7.31699918 181.316988,2.85560522 176.027648,2.85560522 C170.737054,2.85560522 167.094597,7.31699918 167.094597,15.4113767 C167.094597,23.5057542 170.737054,27.9671482 176.027648,27.9671482 C181.316988,27.9671482 184.960073,23.5101373 184.960073,15.4113767 M163.929397,15.4113767 C163.929397,5.75848556 169.004253,0.000313080278 176.027648,0.000313080278 C183.050417,0.000313080278 188.168546,5.75848556 188.168546,15.4113767 C188.168546,25.0642678 183.054807,30.8268234 176.027648,30.8268234 C168.999863,30.8268234 163.929397,25.0686509 163.929397,15.4113767" id="Fill-8" fill="#1E1E1C"></path>
                    <mask id="mask-2" fill="white">
                        <use xlink:href="#path-1"></use>
                    </mask>
                    <g id="Clip-11"></g>
                    <polygon id="Fill-10" fill="#D12A33" mask="url(#mask-2)" points="1.42361885 69.5332513 196.473198 69.5332513 196.473198 43.2194801 1.42361885 43.2194801"></polygon>
                    <polygon id="Stroke-12" stroke="#D12A33" stroke-width="1.68" mask="url(#mask-2)" points="1.42361885 69.5332513 196.473198 69.5332513 196.473198 43.2194801 1.42361885 43.2194801"></polygon>
                    <polygon id="Fill-13" fill="#FEFEFE" mask="url(#mask-2)" points="54.435171 50.811489 56.1554294 50.811489 56.1554294 61.4261627 62.7316705 61.4261627 62.7316705 62.9333312 54.435171 62.9333312"></polygon>
                    <polygon id="Fill-14" fill="#FEFEFE" mask="url(#mask-2)" points="77.022985 61.4264132 77.022985 62.9335816 68.2103453 62.9335816 68.2103453 50.8117394 76.7777714 50.8117394 76.7777714 52.3189079 69.9650967 52.3189079 69.9650967 56.0289092 76.0553005 56.0289092 76.0553005 57.5016388 69.9650967 57.5016388 69.9650967 61.4132638"></polygon>
                    <path d="M90.4457666,56.8875632 C90.4457666,53.3021678 93.1895254,50.6829382 96.8972059,50.6829382 C98.6362786,50.6165652 100.319535,51.305968 101.511738,52.5720646 L100.384758,53.6628363 C99.5055014,52.7148292 98.2593645,52.1907328 96.9655647,52.2239193 C94.2261959,52.2239193 92.1961279,54.1994559 92.1961279,56.8875632 C92.1961279,59.5756704 94.2261959,61.5468239 96.9655647,61.5468239 C98.2618731,61.5737488 99.5073828,61.0433908 100.384758,60.0910006 L101.511738,61.1817723 C100.318281,62.4585136 98.6281257,63.1548042 96.8796458,63.0884311 C93.1895254,63.0752818 90.4457666,60.4604353 90.4457666,56.8875632" id="Fill-15" fill="#FEFEFE" mask="url(#mask-2)"></path>
                    <polygon id="Fill-16" fill="#FEFEFE" mask="url(#mask-2)" points="107.446786 50.811489 109.167044 50.811489 109.167044 61.4261627 115.738895 61.4261627 115.738895 62.9333312 107.446786 62.9333312"></polygon>
                    <path d="M120.908325,57.7034504 L120.908325,50.8332167 L122.628583,50.8332167 L122.628583,57.6564883 C122.628583,60.3402125 123.862805,61.5549639 126.047777,61.5549639 C128.23275,61.5549639 129.488294,60.3402125 129.488294,57.6564883 L129.488294,50.8113011 L131.170297,50.8113011 L131.170297,57.6821609 C131.170297,61.1986786 129.24308,63.0539923 126.034607,63.0539923 C122.826761,63.0539923 120.908325,61.219968 120.908325,57.7034504" id="Fill-17" fill="#FEFEFE" mask="url(#mask-2)"></path>
                    <path d="M146.893759,59.5112385 C146.893759,58.1073865 145.852699,57.4843568 143.92611,57.4843568 L139.93935,57.4843568 L139.93935,61.5205877 L143.93928,61.5205877 C145.852699,61.5337371 146.893759,60.9238567 146.893759,59.5243879 L146.893759,59.5112385 Z M139.93935,52.2114587 L139.93935,56.0761217 L143.509058,56.0761217 C145.276352,56.0761217 146.28292,55.4192793 146.28292,54.135024 C146.28292,52.8513948 145.276352,52.1939262 143.509058,52.1939262 L139.93935,52.2114587 Z M148.669833,59.661517 C148.669833,61.7397439 147.087547,62.9338321 144.020808,62.9338321 L138.201531,62.9338321 L138.201531,50.8113637 L143.650793,50.8113637 C146.442215,50.8113637 148.003178,51.9879194 148.003178,53.9459235 C148.047706,55.090545 147.407391,56.1518871 146.373229,56.6471801 C147.773016,56.9577558 148.743836,58.2319925 148.669833,59.661517 L148.669833,59.661517 Z" id="Fill-18" fill="#FEFEFE" mask="url(#mask-2)"></path>
                    <path d="M5.68136807,84.262113 L3.85763079,80.1914432 L2.03828353,84.262113 L5.68136807,84.262113 Z M5.97361758,84.9108153 L1.74603402,84.9108153 L0.834165388,86.9458371 L6.27144867e-05,86.9458371 L3.4662924,79.3711729 L4.25774922,79.3711729 L7.72836891,86.9458371 L6.8685533,86.9458371 L5.97361758,84.9108153 Z" id="Fill-19" fill="#1E1E1C" mask="url(#mask-2)"></path>
                    <polygon id="Fill-20" fill="#1E1E1C" mask="url(#mask-2)" points="11.15628 86.9461502 11.9565169 86.9461502 11.9565169 79.3583366 11.15628 79.3583366"></polygon>
                    <polygon id="Fill-21" fill="#1E1E1C" mask="url(#mask-2)" points="21.3663866 86.9458997 18.9148773 83.6134732 16.4677581 86.9458997 15.5471094 86.9458997 18.4288401 83.0511811 15.7277271 79.3712355 16.6352057 79.3712355 18.9236574 82.4669733 21.1989389 79.3712355 22.0587546 79.3712355 19.3664216 83.0298916 22.2606952 86.9458997"></polygon>
                    <polygon id="Fill-22" fill="#1E1E1C" mask="url(#mask-2)" points="38.767399 79.3583366 38.767399 86.9461502 37.9972651 86.9461502 37.9972651 80.8742713 35.0170727 85.9712182 34.6389043 85.9712182 31.6580848 80.904327 31.6580848 86.9160945 30.888578 86.9160945 30.888578 79.3583366 31.546453 79.3583366 34.845235 84.9749968 38.105134 79.3583366"></polygon>
                    <path d="M47.87649,84.262113 L46.0527528,80.1914432 L44.2334055,84.262113 L47.87649,84.262113 Z M48.1687395,84.9108153 L43.941156,84.9108153 L43.0292873,86.9458371 L42.1951847,86.9458371 L45.6614144,79.3711729 L46.4528712,79.3711729 L49.9234909,86.9458371 L49.0636753,86.9458371 L48.1687395,84.9108153 Z" id="Fill-23" fill="#1E1E1C" mask="url(#mask-2)"></path>
                    <path d="M58.4908542,81.969113 C58.4908542,80.7537354 57.6868545,80.0624541 56.1685367,80.0624541 L54.1516389,80.0624541 L54.1516389,83.8626225 L56.1685367,83.8626225 C57.6868545,83.8500993 58.4908542,83.1456687 58.4908542,81.9559636 L58.4908542,81.969113 Z M58.5341272,86.9458371 L56.8132417,84.5113249 C56.6119282,84.5338666 56.4099875,84.5457637 56.2074197,84.5457637 L54.1685718,84.5457637 L54.1685718,86.9458371 L53.3683349,86.9458371 L53.3683349,79.3580235 L56.2030297,79.3580235 C58.1340088,79.3580235 59.3036339,80.3329555 59.3036339,81.9559636 C59.3594498,83.0536231 58.6445047,84.0429568 57.5833756,84.3353738 L59.4372158,86.9333139 L58.5341272,86.9458371 Z" id="Fill-24" fill="#1E1E1C" mask="url(#mask-2)"></path>
                    <path d="M62.65403,86.0141102 L62.9682295,85.3954636 C63.658716,86.0028393 64.5511432,86.3315736 65.4711647,86.3190504 C66.8903935,86.3190504 67.5093855,85.7223194 67.5093855,84.9746837 C67.5093855,82.8964568 62.8346477,84.176329 62.8346477,81.372382 C62.8346477,80.2559377 63.6950904,79.2941551 65.6342224,79.2941551 C66.4670708,79.2853889 67.2842405,79.5176944 67.9872699,79.9635207 L67.7163433,80.6034568 C67.0960971,80.2002094 66.3742533,79.9810532 65.6342224,79.972287 C64.2450965,79.972287 63.6261045,80.5909336 63.6261045,81.3504664 C63.6261045,83.4293194 68.3008423,82.1707367 68.3008423,84.9321048 C68.3008423,86.048549 67.4109238,86.9971823 65.4711647,86.9971823 C64.44202,87.0341258 63.4360796,86.6828497 62.65403,86.0141102" id="Fill-25" fill="#1E1E1C" mask="url(#mask-2)"></path>
                    <polygon id="Fill-26" fill="#1E1E1C" mask="url(#mask-2)" points="77.5605736 86.2417196 77.5605736 86.9461502 72.1934678 86.9461502 72.1934678 79.3583366 77.3968888 79.3583366 77.3968888 80.0496178 72.9761446 80.0496178 72.9761446 82.7464913 76.9026986 82.7464913 76.9026986 83.4290063 72.9761446 83.4290063 72.9761446 86.2417196"></polygon>
                    <polygon id="Fill-27" fill="#1E1E1C" mask="url(#mask-2)" points="81.6119294 79.3583366 82.4378792 79.3583366 82.4378792 86.9461502 81.6332524 86.9461502"></polygon>
                    <polygon id="Fill-28" fill="#1E1E1C" mask="url(#mask-2)" points="87.0567385 79.3583366 87.8569753 79.3583366 87.8569753 86.2285702 92.1058818 86.2285702 92.1058818 86.9461502 87.0567385 86.9461502"></polygon>
                    <polygon id="Fill-29" fill="#1E1E1C" mask="url(#mask-2)" points="95.6109945 79.3583366 96.4112313 79.3583366 96.4112313 86.2285702 100.660138 86.2285702 100.660138 86.9461502 95.6109945 86.9461502"></polygon>
                    <polygon id="Fill-30" fill="#1E1E1C" mask="url(#mask-2)" points="109.53267 86.2417196 109.53267 86.9461502 104.165564 86.9461502 104.165564 79.3583366 109.368985 79.3583366 109.368985 80.0496178 104.965174 80.0496178 104.965174 82.7464913 108.891728 82.7464913 108.891728 83.4290063 104.965174 83.4290063 104.965174 86.2417196"></polygon>
                    <path d="M123.733926,81.9562141 C123.733926,80.7408365 122.929927,80.0495552 121.411609,80.0495552 L119.398474,80.0495552 L119.398474,83.8372004 L121.411609,83.8372004 C122.929927,83.8372004 123.725146,83.1459192 123.725146,81.9562141 L123.733926,81.9562141 Z M124.534163,81.9562141 C124.534163,83.5666991 123.363911,84.5328648 121.432932,84.5328648 L119.398474,84.5328648 L119.398474,86.9460876 L118.594474,86.9460876 L118.594474,79.358274 L121.432932,79.358274 C123.363911,79.358274 124.534163,80.3332059 124.534163,81.9562141 L124.534163,81.9562141 Z" id="Fill-31" fill="#1E1E1C" mask="url(#mask-2)"></path>
                    <path d="M133.574143,81.969113 C133.574143,80.7537354 132.770143,80.0624541 131.251825,80.0624541 L129.23869,80.0624541 L129.23869,83.8626225 L131.251825,83.8626225 C132.756973,83.8500993 133.578533,83.1456687 133.578533,81.9559636 L133.574143,81.969113 Z M133.617416,86.9458371 L131.89653,84.5113249 C131.695217,84.5338666 131.493276,84.5457637 131.290708,84.5457637 L129.25625,84.5457637 L129.25625,86.9458371 L128.456014,86.9458371 L128.456014,79.3580235 L131.294471,79.3580235 C133.226077,79.3580235 134.395703,80.3329555 134.395703,81.9559636 C134.451519,83.0536231 133.735946,84.0429568 132.675444,84.3353738 L134.528657,86.9333139 L133.617416,86.9458371 Z" id="Fill-32" fill="#1E1E1C" mask="url(#mask-2)"></path>
                    <path d="M144.941144,83.1456687 C144.967484,81.3861575 143.559543,79.9384743 141.797893,79.9128017 C140.035616,79.886503 138.585657,81.2916073 138.559317,83.0511185 C138.533604,84.8106296 139.940918,86.2583128 141.703195,86.2839854 C141.723263,86.2846116 141.742705,86.2846116 141.762773,86.2846116 C143.460455,86.3422183 144.882819,85.014758 144.939889,83.3197413 C144.942398,83.2621346 144.942398,83.2039016 144.941144,83.1456687 Z M137.771623,83.1456687 C137.771623,80.9384527 139.466169,79.2810057 141.762773,79.2810057 C143.893184,79.1069331 145.762076,80.6904932 145.936422,82.8175606 C146.110769,84.944628 144.524719,86.8105864 142.394308,86.9846591 C142.184215,87.0015654 141.972867,87.0015654 141.762773,86.9846591 C139.466169,86.9971823 137.771623,85.3528847 137.771623,83.1456687 L137.771623,83.1456687 Z" id="Fill-33" fill="#1E1E1C" mask="url(#mask-2)"></path>
                    <polygon id="Fill-34" fill="#1E1E1C" mask="url(#mask-2)" points="155.792067 79.3583366 152.428689 86.9461502 151.637232 86.9461502 148.278871 79.3714859 149.138687 79.3714859 152.04174 85.9499287 154.970507 79.3714859"></polygon>
                    <polygon id="Fill-35" fill="#1E1E1C" mask="url(#mask-2)" points="164.419448 86.2417196 164.419448 86.9461502 159.056105 86.9461502 159.056105 79.3583366 164.260153 79.3583366 164.260153 80.0496178 159.851952 80.0496178 159.851952 82.7464913 163.778506 82.7464913 163.778506 83.4290063 159.851952 83.4290063 159.851952 86.2417196"></polygon>
                    <polygon id="Fill-36" fill="#1E1E1C" mask="url(#mask-2)" points="174.818764 79.3583366 174.818764 86.9461502 174.156499 86.9461502 169.279193 80.8010105 169.279193 86.9461502 168.475194 86.9461502 168.475194 79.3583366 169.137459 79.3583366 174.044867 85.5072332 174.044867 79.3583366"></polygon>
                    <path d="M178.775546,83.1456687 C178.775546,80.9259295 180.465702,79.2810057 182.753526,79.2810057 C183.793333,79.2384268 184.802409,79.6397957 185.528015,80.3843006 L185.020028,80.8914907 C184.430512,80.292255 183.616478,79.9666516 182.775476,79.9935765 C181.038912,79.9923241 179.630345,81.3968023 179.629091,83.1300147 C179.627209,84.8638533 181.033895,86.2702099 182.770459,86.2714622 L182.775476,86.2714622 C183.618986,86.2996394 184.434902,85.9684005 185.020028,85.3616509 L185.528015,85.8725979 C184.798646,86.6208598 183.785807,87.0247333 182.740983,86.9846591 C180.640675,87.0723215 178.866482,85.4436779 178.778682,83.3466662 C178.775546,83.2796671 178.774919,83.2126679 178.775546,83.1456687" id="Fill-37" fill="#1E1E1C" mask="url(#mask-2)"></path>
                    <polygon id="Fill-38" fill="#1E1E1C" mask="url(#mask-2)" points="194.78737 86.2417196 194.78737 86.9461502 189.424027 86.9461502 189.424027 79.3583366 194.623685 79.3583366 194.623685 80.0496178 190.224264 80.0496178 190.224264 82.7464913 194.150818 82.7464913 194.150818 83.4290063 190.224264 83.4290063 190.224264 86.2417196"></polygon>
                </g>
            </g>
        </g>
    </g>
</svg>