<?xml version="1.0" encoding="UTF-8"?>
<svg width="174px" height="96px" viewBox="0 0 174 96" version="1.1" xmlns="http://www.w3.org/2000/svg" xmlns:xlink="http://www.w3.org/1999/xlink">
    <title>logo-part-regionsud</title>
    <defs>
        <polygon id="path-1" points="0 0 5.73259949 0 5.73259949 3.87361333 0 3.87361333"></polygon>
        <polygon id="path-3" points="0 39 172 39 172 0 0 0"></polygon>
    </defs>
    <g id="Page-1" stroke="none" stroke-width="1" fill="none" fill-rule="evenodd">
        <g id="Desktop-HD" transform="translate(-737.000000, -752.000000)">
            <g id="Group-210" transform="translate(738.000000, 782.000000)">
                <polygon id="Fill-1" fill="#FEFEFE" points="7 39 43 39 43 3 7 3"></polygon>
                <polygon id="Fill-2" fill="#0572B6" points="8 37 43 37 43 2 8 2"></polygon>
                <g id="Group-209">
                    <path d="M10.0902482,15.8967398 C4.44489223,16.4698154 1.57849813,17.3898852 1.57849813,17.3898852 C1.57849813,17.3898852 1.49169489,18.4780991 1.2551875,20.0002131 C1.2551875,20.0002131 5.04056377,19.1387105 7.3307856,18.9088505 L9.65371591,17.8754251 L10.0839581,15.8967398 L10.0902482,15.8967398 Z" id="Fill-3" fill="#14AADF"></path>
                    <path d="M5.73259949,21.4644528 C2.46489764,22.0375285 0.718139596,22.4978782 0.718139596,22.4978782 C1.00308068,21.1470571 1.26160339,19.9713075 1.26160339,19.9713075 C1.26160339,19.9713075 5.04697966,19.1098048 7.33720149,18.8799448 L5.7193903,21.4707504 L5.73259949,21.4644528 Z" id="Fill-5" fill="#FEFEFE"></path>
                    <g id="Group-9" transform="translate(0.000000, 21.464453)">
                        <mask id="mask-2" fill="white">
                            <use xlink:href="#path-1"></use>
                        </mask>
                        <g id="Clip-8"></g>
                        <path d="M5.73259949,0 L5.73259949,2.63992637 C5.73259949,2.63992637 1.32010123,3.50142906 -0.000188702705,3.87361333 C0.287897428,2.92772368 0.517485719,1.97868527 0.718139596,1.03342537 C0.718139596,1.03342537 2.46489764,0.573075619 5.73259949,0" id="Fill-7" fill="#DE2C1C" mask="url(#mask-2)"></path>
                    </g>
                    <path d="M9.77322762,19.8579518 C9.77322762,19.8579518 5.89098396,19.7124788 5.93312756,19.2099356 C5.92935351,19.0745386 5.99414144,18.9454391 6.10484703,18.86672 C6.36336973,18.63686 7.73838345,18.0052173 10.3487709,16.9717919 L9.77322762,19.8711767 L9.77322762,19.8579518 Z" id="Fill-10" fill="#FEFEFE"></path>
                    <path d="M24.4217154,35.2266434 C32.9064181,35.2266434 39.7852607,28.3402897 39.7852607,19.844916 C39.7852607,11.350172 32.9064181,4.46318849 24.4217154,4.46318849 C15.9370128,4.46318849 9.05817017,11.350172 9.05817017,19.844916 L9.05817017,19.8480647 C9.05817017,28.3415492 15.9351258,35.2266434 24.4185704,35.2266434 L24.4217154,35.2266434 Z" id="Fill-12" fill="#FEDE0D"></path>
                    <path d="M5.59025475,21.5778085 C5.677687,21.9795911 6.16265296,22.0960955 7.91318505,22.2258247 C9.66308814,22.3549242 15.305299,22.4846534 22.1281599,22.0249334 C30.1543149,21.4808264 39.0088749,19.155147 45.9449573,16.9170033 C45.7732342,17.3767233 45.3429957,18.4649373 45.1712762,18.9542557 C45.0580546,19.2779489 44.9712514,19.5858984 44.8838191,19.9001453 C38.0641033,22.053902 29.5234189,24.2630771 21.8111393,24.7813641 C17.0772174,25.1050574 12.3269413,25.085535 7.59616451,24.7227971 C5.87834088,24.5804728 5.36066646,24.4639684 5.2732342,24.0747808 L5.59654484,21.5778085 L5.59025475,21.5778085 Z" id="Fill-14" fill="#FEFEFE"></path>
                    <path d="M5.90400445,19.0806472 C5.9914367,19.4855786 6.4795477,19.5989343 8.22693475,19.7286635 C9.97369279,19.8577629 15.6221938,19.7286635 22.4419096,19.2979121 C30.8983068,18.7242068 40.2994756,16.1718161 47.4066485,13.817168 C46.8600396,14.8172165 46.3813638,15.8525311 45.9737659,16.9168144 C39.0087491,19.1549581 30.1541891,21.4806375 22.1280341,22.0247445 C15.3051732,22.4844645 9.63088288,22.3679601 7.91305925,22.2256358 C6.19523562,22.0833115 5.6775612,21.9668072 5.59012895,21.5776195 L5.91343958,19.0806472 L5.90400445,19.0806472 Z" id="Fill-16" fill="#14AADF"></path>
                    <path d="M4.98848182,26.5722569 C5.07276903,26.9740396 5.56088003,27.0873952 7.31141213,27.2202732 C12.0327538,27.7146297 16.786804,27.8229472 21.5263869,27.5439665 C29.063802,27.0288282 37.4038326,24.9336385 44.1392611,22.8088505 C44.341173,21.8377707 44.5990667,20.879286 44.9129422,19.9390641 C38.0932265,22.0928208 29.552542,24.3019958 21.8402624,24.8165044 C17.1069696,25.1433464 12.3560645,25.1250836 7.62528763,24.7617158 C5.90431895,24.6162428 5.38978957,24.5028872 5.30235732,24.1136996 L4.97904669,26.5817032 L4.98848182,26.5722569 Z" id="Fill-18" fill="#DE2C1C"></path>
                    <path d="M24.4217154,34.0606012 C32.202557,34.0694085 38.5178075,27.7617982 38.5266229,19.9711185 C38.5354198,12.1810686 32.2352655,5.85834423 24.4537949,5.84951845 C16.6729533,5.84071114 10.3577028,12.1489512 10.3488875,19.9390011 C10.3488875,19.9402606 10.3488875,19.9408904 10.3488875,19.9421499 C10.3400905,27.7303105 16.6389869,34.0517754 24.4185704,34.0606012 L24.4217154,34.0606012 Z" id="Fill-20" fill="#FEDE0D"></path>
                    <path d="M20.1513732,8.86510197 C19.7758548,15.6034636 19.7758548,22.3569394 20.1513732,29.0953011 L16.1659721,30.1029066 C15.881031,25.4805164 15.5187218,18.0765054 16.1659721,10.2448917 L20.1513732,8.86510197 Z" id="Fill-22" fill="#0572B6"></path>
                    <path d="M35.8868515,22.5948602 C35.8868515,22.5948602 33.476489,28.4509374 23.7035758,32.9593421 L23.017956,28.7488107 C28.4041602,26.1964201 31.105125,22.4947294 31.105125,22.4947294 C29.4137197,21.632597 25.3729658,20.85863 22.7946578,20.9171971 L22.7946578,17.2734438 C26.9775678,15.6959114 28.9413339,12.7681878 28.9413339,12.7681878 C27.7084763,12.0811268 24.2954733,11.8512668 22.0599753,12.4438647 L22.1184731,8.5123141 C25.8453516,7.88067141 31.1472686,8.91346703 32.4707035,9.71703241 C32.4707035,9.71703241 33.2469007,13.6196144 33.2469007,13.7071501 C33.2469007,13.7071501 31.525932,16.1461851 29.2614995,17.5517948 C29.2614995,17.5517948 32.645568,18.0115148 35.3075342,19.4756915 C35.3075342,19.5015114 35.8547721,22.5721891 35.9126409,22.5721891" id="Fill-24" fill="#0572B6"></path>
                    <path d="M52.4504831,24.2790728 L52.4504831,15.0349222 L57.2674342,15.0349222 C59.5318666,15.0349222 61.3371225,15.5242407 61.3371225,17.3606017 C61.2918339,18.2195853 60.7873686,18.9872548 60.0174616,19.3688853 C61.0175859,19.5716659 61.722705,20.4722133 61.6799324,21.4936734 C61.6799324,23.5598944 59.9621088,24.275924 57.3517214,24.275924 L52.4504831,24.2790728 Z M55.7471194,17.1924575 L55.7471194,18.7403914 L57.1252781,18.7403914 C57.7718994,18.7403914 58.2411401,18.4815628 58.2411401,17.9374558 C58.2411401,17.2214261 57.5945188,17.2214261 56.8956898,17.2214261 L55.7471194,17.2214261 L55.7471194,17.1924575 Z M55.7471194,20.4312794 L55.7471194,22.151136 L57.1932111,22.151136 C57.9951976,22.151136 58.6260936,22.0088117 58.6260936,21.2927821 C58.6260936,20.4892167 57.8530416,20.4312794 56.8208378,20.4312794 L55.7471194,20.4312794 Z" id="Fill-26" fill="#0572B6"></path>
                    <path d="M72.9512708,19.5988713 C72.9512708,22.7533062 70.6579039,24.50591 67.6782882,24.50591 C64.523808,24.50591 62.4046766,22.6985177 62.4046766,19.5699026 C62.4046766,16.654774 64.5527424,14.7793683 67.6782882,14.7793683 C71.2592366,14.8051882 72.9512708,17.1888049 72.9512708,19.5988713 M65.6950228,19.5988713 C65.6950228,20.7746209 66.0963305,22.2387977 67.6713691,22.2387977 C69.1048807,22.2387977 69.6483445,21.1209853 69.6483445,19.5988713 C69.6483445,18.3355859 69.0759463,17.0074359 67.6424347,17.0433319 C66.1510543,17.0433319 65.7013129,18.4520903 65.7013129,19.5988713" id="Fill-28" fill="#0572B6"></path>
                    <path d="M74.015617,15.0352371 L77.3122532,15.0352371 L77.3122532,20.5739185 C77.3122532,21.4933585 77.5129071,22.2679552 78.8583574,22.2679552 C80.0327172,22.2679552 80.4082356,21.5777455 80.4082356,20.5739185 L80.4082356,15.0352371 L83.7017268,15.0352371 L83.7017268,20.2596716 C83.7017268,23.2132151 82.2134915,24.5060989 78.8489223,24.5060989 C75.7240055,24.5060989 73.9961177,23.4141065 73.9961177,20.2307029 L73.9961177,15.0484619 L74.015617,15.0352371 Z" id="Fill-30" fill="#0572B6"></path>
                    <path d="M91.4300462,18.5656348 C91.3457589,17.6197452 90.6859285,17.0435208 89.6537247,17.0435208 C88.5089283,17.0435208 87.7906,17.9629608 87.7906,19.7413845 C87.7906,21.0367873 88.1139106,22.2679552 89.7707204,22.2679552 C90.8280845,22.2679552 91.3457589,21.5777455 91.4589806,20.6904229 L94.6423952,20.6904229 C94.3543091,23.0708909 92.4911844,24.5060989 89.8254441,24.5060989 C86.5030185,24.5060989 84.4939637,22.6401395 84.4939637,19.6280289 C84.4939637,16.6159182 86.7036724,14.7694812 89.5115686,14.7694812 C92.5786166,14.7694812 94.2964402,16.1750908 94.554963,18.5265901 L91.4300462,18.5265901 L91.4300462,18.5561885 L91.4300462,18.5656348 Z" id="Fill-32" fill="#0572B6"></path>
                    <polygon id="Fill-34" fill="#0572B6" points="95.5580436 24.2758611 95.5580436 15.035489 98.8546799 15.035489 98.8546799 18.1641041 101.950662 18.1641041 101.950662 15.035489 105.247299 15.035489 105.247299 24.2758611 101.950662 24.2758611 101.950662 20.6906748 98.8546799 20.6906748 98.8546799 24.2758611"></polygon>
                    <polygon id="Fill-36" fill="#0572B6" points="106.822652 24.2758611 106.822652 15.035489 115.020526 15.035489 115.020526 17.1892457 110.119288 17.1892457 110.119288 18.5073197 114.276409 18.5073197 114.276409 20.6906748 110.119288 20.6906748 110.119288 22.1252531 115.22118 22.1252531 115.22118 24.2758611"></polygon>
                    <path d="M121.571403,17.7365015 C121.534292,17.4531124 121.347476,17.2119169 121.082663,17.1048588 C120.810303,16.9908734 120.517813,16.9323064 120.222179,16.9329361 C119.507625,16.9329361 119.164186,17.1338274 119.164186,17.4480744 C119.164186,18.8278642 124.952327,17.9663615 124.952327,21.3349126 C124.952327,23.4855205 123.011205,24.5189459 120.251743,24.5189459 C117.586002,24.5189459 115.868179,23.0837378 115.809681,21.4192995 L118.983031,21.4192995 C119.039013,21.732287 119.240925,21.9999322 119.527124,22.1384779 C119.819613,22.28647 120.142924,22.3645594 120.471267,22.3651892 C121.302817,22.3651892 121.849425,22.1384779 121.849425,21.6781282 C121.849425,20.2725185 116.058768,21.2473768 116.058768,17.7169791 C116.058768,15.77356 117.892959,14.7634355 120.416543,14.7634355 C123.195505,14.7634355 124.486231,16.0815095 124.712675,17.6779344 L121.571403,17.6779344 L121.571403,17.7365015 Z" id="Fill-38" fill="#0572B6"></path>
                    <path d="M52.2693285,37.1019861 L52.2693285,27.8647629 L56.2842931,27.8647629 C59.2343454,27.8647629 61.0396012,29.2414039 61.0396012,32.2824832 C61.0396012,35.7543138 59.1211237,37.1019861 56.1867967,37.1019861 L52.2693285,37.1019861 Z M55.2520893,34.9513782 L55.8993395,34.9513782 C57.3032877,34.9513782 58.0474053,34.2032311 58.0474053,32.4544059 C58.0474053,30.5305091 57.4001551,30.0153708 55.8119073,30.0153708 L55.2388801,30.0153708 L55.2684435,34.9513782 L55.2520893,34.9513782 Z" id="Fill-40" fill="#0572B6"></path>
                    <path d="M61.9972675,27.8645739 L65.0058176,27.8645739 L65.0058176,33.4001066 C65.0058176,34.3195466 65.1775371,35.0941433 66.4097657,35.0941433 C67.5004674,35.0941433 67.8137139,34.4070823 67.8137139,33.4001066 L67.8137139,27.8645739 L70.7964746,27.8645739 L70.7964746,33.0858596 C70.7964746,36.042552 69.4478793,37.3316572 66.4097657,37.3316572 C63.5729351,37.3316572 61.9972675,36.2434433 61.9972675,33.0562612 L61.9972675,27.8740202 L61.9972675,27.8645739 Z" id="Fill-42" fill="#0572B6"></path>
                    <path d="M79.3373478,33.8889212 L79.3373478,37.1019232 L76.354587,37.1019232 L76.354587,27.8646999 L80.6538637,27.8646999 C83.6919772,27.8646999 84.6946176,28.6934554 84.6946176,30.5039965 C84.6946176,31.5632418 84.238586,32.4474156 83.1485134,32.7717386 C84.1190743,33.1149542 84.6946176,33.3737829 84.6946176,35.2101439 C84.6946176,36.4154919 84.6688282,36.8298697 85.0179282,36.8298697 L85.0179282,37.115148 L81.9741536,37.115148 C81.8521258,36.5842659 81.8036921,36.0395291 81.8282235,35.4954222 C81.8282235,34.2907039 81.6275696,33.8756964 80.2110413,33.8756964 L79.3373478,33.8889212 Z M79.3373478,31.8516688 L80.5117076,31.8516688 C81.4269157,31.8516688 81.9445902,31.6218088 81.9445902,30.9901662 C81.9445902,30.3585235 81.4269157,30.0442765 80.7412959,30.0442765 L79.3373478,30.0442765 L79.3373478,31.8516688 Z" id="Fill-44" fill="#0572B6"></path>
                    <polygon id="Fill-46" fill="#0572B6" points="86.1277517 37.1019861 86.1277517 27.8616141 89.1105125 27.8616141 89.1105125 30.9902291 91.9479722 30.9902291 91.9479722 27.8616141 94.9565223 27.8616141 94.9565223 37.1019861 91.9479722 37.1019861 91.9479722 33.5167999 89.1105125 33.5167999 89.1105125 37.1019861"></polygon>
                    <path d="M105.738869,32.4249334 C105.738869,35.5831468 103.649301,37.3319721 100.953997,37.3319721 C98.0876034,37.3319721 96.1659809,35.5245798 96.1659809,32.3959647 C96.1659809,29.5003585 98.1071027,27.6054304 100.953997,27.6054304 C104.188991,27.6343991 105.738869,29.9858984 105.738869,32.4249334 L105.738869,32.4249334 Z M99.9155036,25.1374267 L102.008846,25.1374267 L103.55495,27.0323548 L101.691825,27.0323548 L100.976642,26.0606453 L100.258943,27.0323548 L98.3951888,27.0323548 L99.9155036,25.1374267 Z M99.1424515,32.4249334 C99.1424515,33.600683 99.4852614,35.0648598 100.918773,35.0648598 C102.212645,35.0648598 102.724029,33.9470474 102.724029,32.4249334 C102.724029,31.161648 102.209499,29.833498 100.88921,29.8725428 C99.5695486,29.9115875 99.1424515,31.2781524 99.1424515,32.4249334 L99.1424515,32.4249334 Z" id="Fill-48" fill="#0572B6"></path>
                    <polygon id="Fill-50" fill="#0572B6" points="112.95637 32.9140629 112.843149 30.8182435 112.843149 27.8615511 115.709543 27.8615511 115.709543 37.1019232 112.897872 37.1019232 109.659734 32.0815288 109.776101 34.1773483 109.776101 37.1019232 106.909706 37.1019232 106.909706 27.8615511 109.718232 27.8615511"></polygon>
                    <polygon id="Fill-52" fill="#0572B6" points="117.368994 37.1019861 117.368994 27.8616141 124.822751 27.8616141 124.822751 30.0153708 120.380689 30.0153708 120.380689 31.3365935 124.133357 31.3365935 124.133357 33.4872015 120.380689 33.4872015 120.380689 34.9513782 124.993842 34.9513782 124.993842 37.1019861"></polygon>
                    <path d="M52.1657936,8.99136753 L52.1657936,2.70768784 L54.2817799,2.70768784 C54.9705448,2.70768784 55.6303753,2.73350773 56.2034025,3.16425907 C57.0343234,3.7669331 57.2349773,5.00124982 57.2349773,5.8331541 C57.2349773,6.66568813 57.0638868,7.58575788 56.4908596,8.21740057 C55.9184614,8.84904326 55.1164749,8.99136753 54.2817799,8.99136753 L52.1657936,8.99136753 Z M52.7381918,8.49260282 L54.1421399,8.49260282 C54.6466052,8.52597975 55.1504414,8.42773822 55.6045859,8.20732452 C56.4361358,7.77657317 56.6367897,6.71417914 56.6367897,5.85267645 C56.6367897,4.93638522 56.4361358,3.9319285 55.5756515,3.4722085 C55.122765,3.28202296 54.631509,3.20330378 54.1421399,3.2423485 L52.7381918,3.2423485 L52.7381918,8.49260282 Z" id="Fill-54" fill="#0572B6"></path>
                    <path d="M59.6421319,9.01082691 L59.6421319,2.69817856 L63.7703181,2.69817856 L63.7703181,3.21331686 L60.2113851,3.21331686 L60.2113851,5.4804292 L63.4237341,5.4804292 L63.4237341,5.9955675 L60.2113851,5.9955675 L60.2113851,8.49253984 L63.8250419,8.49253984 L63.8250419,9.01082691 L59.6421319,9.01082691 Z M61.0750144,2.23845856 L62.022931,1.0331105 L62.6701813,1.0331105 L61.4958215,2.23845856 L61.0750144,2.23845856 Z" id="Fill-56" fill="#0572B6"></path>
                    <path d="M66.1802403,8.99136753 L66.1802403,2.70768784 L68.4446728,2.70768784 C70.062484,2.70768784 70.479517,3.51125321 70.479517,4.45714286 C70.479517,5.86275251 69.2472883,6.20911689 68.1018629,6.20911689 L66.782202,6.20911689 L66.782202,8.99136753 L66.1802403,8.99136753 Z M68.1018629,5.75254566 C69.1887905,5.75254566 69.8781844,5.52268566 69.8781844,4.45714286 C69.8781844,3.68254614 69.3894444,3.2517948 68.2603732,3.2517948 L66.7400584,3.2517948 L66.7400584,5.75254566 L68.1018629,5.75254566 Z" id="Fill-58" fill="#0572B6"></path>
                    <path d="M71.540781,8.99136753 L73.9769329,2.70768784 L74.6235542,2.70768784 L77.0018373,8.99136753 L76.3998757,8.99136753 L75.6846924,7.01268227 L72.8447167,7.01268227 L72.1427426,8.99136753 L71.540781,8.99136753 Z M73.0453706,6.5132878 L75.4846675,6.5132878 L74.2775992,3.21337984 L73.0453706,6.5132878 Z" id="Fill-60" fill="#0572B6"></path>
                    <path d="M79.7093437,6.05369375 L79.7093437,8.96882236 L79.1369455,8.96882236 L79.1369455,2.68514266 L81.5724684,2.68514266 C82.9185477,2.68514266 83.6915998,3.17131231 83.6915998,4.32061231 C83.7620488,5.00200552 83.3424998,5.63805648 82.6889594,5.84020733 C83.4362221,6.09903599 83.4620115,6.87300295 83.4909459,7.5336143 C83.5205094,8.47950395 83.6073126,8.73896236 83.7500976,8.85231798 L83.7500976,8.91025529 L83.1192016,8.91025529 C82.8896133,8.47950395 82.9474821,7.29115923 82.8342605,6.81506564 C82.6889594,6.12800465 82.2033645,6.04046892 81.6020318,6.04046892 L79.7093437,6.05369375 Z M81.543534,5.65191106 C82.4040183,5.65191106 83.0902672,5.27972678 83.0902672,4.4182241 C83.0902672,3.47233445 82.3750839,3.24247445 81.5724684,3.24247445 L79.7093437,3.24247445 L79.7093437,5.65191106 L81.543534,5.65191106 Z" id="Fill-62" fill="#0572B6"></path>
                    <polygon id="Fill-64" fill="#0572B6" points="85.4419432 2.72733614 89.9708081 2.72733614 89.9708081 3.21287604 87.9913167 3.21287604 87.9913167 8.98141743 87.4182895 8.98141743 87.4182895 3.21287604 85.4419432 3.21287604"></polygon>
                    <polygon id="Fill-66" fill="#0572B6" points="92.0900024 8.98166933 92.0900024 2.72758804 96.2181886 2.72758804 96.2181886 3.21312794 92.6624006 3.21312794 92.6624006 5.48024028 95.8753787 5.48024028 95.8753787 5.99537858 92.6624006 5.99537858 92.6624006 8.49235092 96.3056209 8.49235092 96.3056209 8.98166933"></polygon>
                    <polygon id="Fill-68" fill="#0572B6" points="98.5957798 8.98166933 98.5957798 2.72758804 99.514762 2.72758804 101.549606 8.26249092 103.554887 2.72758804 104.444935 2.72758804 104.444935 8.98166933 103.842973 8.98166933 103.842973 3.38505062 101.808129 8.98166933 101.26152 8.98166933 99.1977414 3.38505062 99.1977414 8.98166933"></polygon>
                    <polygon id="Fill-70" fill="#0572B6" points="107.081426 8.98166933 107.081426 2.72758804 111.209612 2.72758804 111.209612 3.21312794 107.683388 3.21312794 107.683388 5.48024028 110.863028 5.48024028 110.863028 5.99537858 107.683388 5.99537858 107.683388 8.49235092 111.29327 8.49235092 111.29327 8.98166933"></polygon>
                    <polygon id="Fill-72" fill="#0572B6" points="114.218036 3.53058664 114.218036 8.98173231 113.616075 8.98173231 113.616075 2.72765102 114.276534 2.72765102 117.857483 8.20776534 117.886417 8.20776534 117.886417 2.72765102 118.459444 2.72765102 118.459444 8.98173231 117.798985 8.98173231"></polygon>
                    <polygon id="Fill-74" fill="#0572B6" points="120.581469 2.72733614 125.110334 2.72733614 125.110334 3.21287604 123.130843 3.21287604 123.130843 8.98141743 122.557815 8.98141743 122.557815 3.21287604 120.581469 3.21287604"></polygon>
                    <mask id="mask-4" fill="white">
                        <use xlink:href="#path-3"></use>
                    </mask>
                    <g id="Clip-77"></g>
                    <path d="M126.886844,21.3480114 L127.947982,21.3480114 L127.947982,18.1350094 L126.886844,18.1350094 L126.886844,21.3480114 Z M74.1192777,34.0312455 L73.0449303,34.0312455 L73.0449303,30.8182435 L74.1060685,30.8182435 L74.1060685,34.0312455 L74.1192777,34.0312455 Z" id="Fill-76" fill="#0572B6" mask="url(#mask-4)"></path>
                    <path d="M155.374851,34.3780507 C155.374851,35.2653733 156.494487,37.1313327 156.694512,37.247837 L156.895166,37.3611927 C156.778799,37.2736569 156.895166,37.0374994 156.895166,36.645163 C156.775654,35.8541927 156.503294,35.0940803 156.09318,34.4070193 C155.720806,33.8887323 155.403786,33.4353098 155.520152,32.8849053 C155.637148,32.3345008 155.345917,31.3627913 155.119474,30.90622 C154.788615,30.2399409 154.667845,29.4886451 154.77289,28.7518336 C154.831388,27.9199293 156.206401,25.8826769 156.578146,25.4223272 C157.119093,24.9103376 157.75565,24.5104442 158.451334,24.2465775 C158.797289,24.1628203 160.201867,24.1628203 160.544676,24.0752846 C160.887486,23.9877489 161.663684,23.1035751 161.806469,22.8409679 C161.948625,22.5789905 162.721677,21.2054982 163.009763,21.0046069 C163.297849,20.8037155 164.730731,21.1469312 164.986109,21.1211113 C165.242116,21.0952914 166.306399,19.9422129 166.620275,19.6569346 C167.328539,18.9900257 168.085866,18.3760161 168.884707,17.8205736 C168.460126,17.9314102 168.054415,18.1052221 167.681413,18.3357119 C166.765576,19.0252919 165.905091,19.7998886 165.044607,20.5738555 C164.701797,20.9170712 164.154559,20.0876859 163.268286,20.1431042 C162.382012,20.1978927 161.346663,22.2382939 160.974919,22.6400765 C160.602545,23.0418592 159.625694,23.3850748 159.140728,23.4726106 C158.655133,23.5601463 157.765715,23.5601463 156.646079,23.7314392 C155.527072,23.9033619 153.521162,26.5722569 153.521162,26.5722569 C153.811764,25.6767476 154.00487,24.7528993 154.096705,23.8158262 C154.172815,22.7433561 154.016192,21.6671075 153.637528,20.6613913 C153.330572,19.9170227 153.219237,19.1059003 153.314218,18.3067432 C153.370829,17.7796396 153.615513,17.2909509 154.002983,16.9301022 C154.232571,16.7292109 156.06739,15.9256455 156.914665,15.4948942 C157.475741,15.1661629 157.963852,14.7253355 158.347548,14.1994914 C158.891641,13.684353 158.719921,11.0450564 158.862077,10.4423824 C158.978444,9.9826624 159.492973,9.40895703 160.411956,8.63499007 C160.813263,8.28862568 160.211302,6.22240469 160.211302,6.22240469 C160.211302,6.22240469 160.182367,7.427123 160.211302,7.94541007 C160.240236,8.46369714 159.78106,8.66080996 159.29232,8.94923703 C158.804209,9.2376641 158.577765,9.92094657 158.347548,10.4423824 C158.11796,10.9638182 158.205392,12.3341617 158.060091,13.166066 C157.914161,13.9986 156.626579,14.4620985 156.225901,14.7177784 C155.824593,14.9734583 154.478513,16.1233881 153.637528,16.3828465 C152.796543,16.6416751 152.434234,16.5251708 152.317868,16.437635 C152.201501,16.3500993 151.974429,15.0905925 151.832273,14.4003827 C151.631619,13.3669573 151.185651,13.6553844 150.829632,13.5974471 C150.473613,13.53888 149.422539,12.6515574 149.021231,12.162239 C148.562055,11.5104442 148.22239,10.7824493 148.017962,10.0116311 C147.934304,9.52231265 147.788374,6.85404738 147.788374,6.85404738 C147.788374,6.85404738 147.675152,7.80245604 147.617283,8.89129971 C147.558785,9.97951364 147.675152,11.3038851 148.105394,12.0488834 C148.535636,12.7938817 149.826363,13.8273071 150.693766,14.2580584 C151.560541,14.6888098 151.441029,15.1774984 151.441029,15.7216054 C151.392595,16.4382648 151.40203,17.1574432 151.469963,17.8728431 C151.583185,18.503856 152.327303,20.4863198 152.615389,21.3736424 C152.791511,22.0594439 152.811011,22.7754735 152.673258,23.4694618 C152.499022,23.9846001 152.3858,24.0135688 152.3858,24.0135688 C152.3858,24.0135688 152.272579,23.2975391 152.185147,22.9253548 C152.167534,22.7635082 152.022862,22.6463741 151.861207,22.6633774 C151.854917,22.6640072 151.848627,22.6652667 151.842337,22.6658964 C151.812773,22.6658964 151.783839,22.6658964 151.783839,22.6954948 C151.495753,22.6658964 151.495753,21.7464564 151.583185,21.4611781 C151.680052,20.9819358 151.641054,20.4844306 151.469963,20.0265998 C151.266164,19.3074214 149.147033,18.7047474 148.629359,18.5624231 C148.112313,18.4200988 146.080614,17.8174248 146.080614,17.8174248 C146.080614,17.8174248 145.433364,16.667495 145.190566,16.1819551 C144.948398,15.6957855 144.618168,14.9476384 144.476012,14.8601027 C144.02061,14.6844015 143.55074,14.550264 143.072064,14.4589498 C142.72548,14.371414 140.37676,14.4589498 140.005016,14.3159957 C139.632643,14.1736715 138.626857,12.2497747 138.626857,12.2497747 C138.691645,12.6899724 138.826882,13.1163155 139.028165,13.5130601 C139.428844,14.4589498 139.976082,14.7467471 140.289328,14.8601027 C140.603204,14.9734583 141.981362,14.8021654 142.72548,14.8021654 C143.407326,14.8368018 144.038222,15.1743497 144.446449,15.7222351 C144.876691,16.2109238 145.39122,17.8174248 145.39122,17.8174248 C145.062877,17.7286296 144.727616,17.6700625 144.38858,17.6423533 C143.674026,17.5485201 142.948778,17.5680424 142.240514,17.7009204 C141.38003,17.9018118 139.574774,19.1940658 139.028165,19.5958485 C138.480927,19.9970014 136.792667,22.5109771 136.792667,22.5109771 C136.792667,22.5109771 137.423563,21.9630916 137.71102,21.6488446 C137.999106,21.3352274 138.655792,20.7583733 138.943878,20.473095 C139.693028,19.7923315 140.476773,19.149983 141.292597,18.5491983 C141.615908,18.3779053 142.812912,17.9761227 142.812912,17.9761227 C143.555772,17.8835489 144.308067,17.893625 145.04841,18.0050913 C145.710128,18.2022041 146.358636,18.4415104 146.989532,18.721121 C147.335487,18.8634452 148.710501,19.4402994 148.88222,19.5246863 C149.053311,19.6084435 149.742705,20.557482 150.143383,21.1437824 C150.458517,21.6312115 150.628349,22.1986194 150.632123,22.779252 C150.603189,23.1035751 151.602684,25.6200698 151.347307,26.1673255 C151.0913,26.7145812 150.974933,28.8362205 151.117718,29.5522502 C151.259874,30.2676501 151.89077,32.9396938 151.664327,33.4390883 C151.437884,33.937853 150.402535,35.822705 149.855926,36.4253791 C149.309317,37.0274233 146.332847,36.8819503 145.673016,37.2831032 C145.012557,37.6848859 143.294733,37.7138546 142.437394,37.973313 C141.720953,38.1792424 140.968658,38.2277334 140.231459,38.1156373 C140.231459,38.1156373 143.670252,37.3416703 144.071559,37.3127016 C144.472867,37.2831032 144.873546,37.4002374 144.986767,37.1697476 C145.099989,36.9398876 146.335992,36.910919 146.507711,36.8819503 C146.732267,36.8309403 146.965001,36.8221237 147.193331,36.8561304 L147.539286,36.6552391 C147.697167,36.6319382 147.83492,36.5362157 147.911659,36.3957807 C148.254469,35.907092 148.23497,36.136952 148.655777,35.993998 C149.075955,35.8516737 149.626338,35.822705 149.74585,35.6703047 C149.894925,35.3774694 149.973551,35.0537761 149.975438,34.7244151 C150.033936,34.2936637 150.033936,34.0770285 150.08866,33.4907281 C150.143383,32.9044277 151.23723,30.3066948 151.23723,30.3066948 C151.23723,30.3066948 151.40832,32.05552 151.40832,32.3149784 C151.437884,33.1764811 151.291954,33.0014097 150.978078,33.8339437 C150.861712,34.157637 150.434615,34.6375091 150.376746,35.1847648 C150.375488,35.5147556 150.185527,35.8157777 149.888006,35.9587318 C149.687352,36.101056 149.687352,36.3605145 149.173451,36.4738701 C148.824351,36.5343264 148.492864,36.6716127 148.202891,36.875023 C148.051299,36.9801918 147.907256,37.0960665 147.772648,37.2220171 C147.537399,37.3045148 147.307811,37.3996076 147.083254,37.5066657 C147.112189,37.3353728 147.083254,37.5652328 147.083254,37.5942014 C146.995822,37.7950928 146.539791,37.8240614 146.310202,37.8826285 C146.080614,37.9411956 145.908895,38.3681684 145.821462,38.5690597 C145.73403,38.7699511 144.55967,38.8285181 144.55967,38.8285181 C144.947769,38.9141646 145.341528,38.9714722 145.737175,38.9998111 C146.138483,38.9998111 146.481293,38.3524246 146.824732,38.1679068 C147.167542,37.9827593 147.972673,37.937417 148.402915,37.8240614 C148.991039,37.75101 149.587968,37.8102068 150.150302,37.9959841 C150.686218,38.113748 151.235343,38.1616093 151.783839,38.1383084 C152.473233,38.1383084 153.56016,38.0249528 153.789749,37.9959841 C154.019337,37.9670155 154.993043,38.2844112 155.251566,38.3196774 C155.510717,38.3555733 155.995683,37.9959841 156.112679,37.9474931 C156.229046,37.8990021 157.287039,38.118786 157.946869,38.2063218 C158.472092,38.2636293 159.002346,38.244107 159.521908,38.1483844 C159.088521,38.1238241 158.656391,38.0765925 158.228036,38.0054304 C158.688471,37.8057986 159.19671,37.7466018 159.690482,37.8341375 C160.425794,38.0035412 161.173056,38.1181563 161.92598,38.1773531 C162.443655,38.2063218 165.652859,38.0639975 165.652859,38.0639975 C164.97919,37.9663857 164.297973,37.927341 163.618015,37.9474931 C162.857543,37.9689047 162.0977,37.9015211 161.352953,37.7466018 C161.352953,37.7466018 160.864842,37.6332461 159.949005,37.3737877 C159.033797,37.1149591 158.143749,37.6332461 157.885226,37.6981107 C157.512224,37.7044083 157.141109,37.6363949 156.795154,37.4972194 C156.795154,37.4972194 155.850382,37.2119411 155.620794,36.9241438 C155.379254,36.6678341 155.162246,36.3888534 154.973544,36.0916097 C154.77289,35.7483941 154.630734,34.6564017 154.543301,34.1481907 C154.455869,33.6393499 153.896051,33.7174393 153.741315,33.516548 C153.58595,33.3156566 153.94134,32.742581 153.770249,32.139907 C153.59853,31.5378627 152.909765,30.3583345 152.967634,30.158073 C153.026132,29.9571816 153.340007,29.7852589 153.711751,29.2701206 C154.171557,28.6384779 154.229426,28.4086179 154.113059,28.1787579 C153.970274,27.9293756 153.774652,27.7139999 153.540661,27.5471152 C153.397876,27.4627283 152.278869,27.6894395 152.278869,27.2038996 C152.278869,26.9154726 152.709111,25.5841738 152.624824,25.33857 C152.565068,25.1924672 152.535505,25.0356586 152.537392,24.8782202 L152.337367,24.2144601 L152.307803,24.1590418 L152.337367,24.2144601 C152.406558,24.3523761 152.483297,24.4865136 152.566955,24.6162428 C152.825478,25.0469941 152.890266,24.9626072 152.967634,25.3643899 C153.056953,25.7724701 153.171433,26.1748825 153.311073,26.5691082 C153.368942,26.7699995 153.799184,26.6534951 154.200492,27.1132151 C154.344535,27.3978637 154.459643,27.6963668 154.543301,28.0036865 C154.572865,28.2839268 154.544559,28.5673158 154.459014,28.8362205 C154.372211,29.0660805 153.770249,29.9830015 153.741315,30.3003972" id="Fill-78" fill="#0572B6" mask="url(#mask-4)"></path>
                    <path d="M159.790746,5.75248268 C159.645445,5.23419561 159.703314,3.85755462 160.162491,3.16104733 C160.48643,2.70447609 160.33421,2.32914305 160.50593,2.15722037 C160.671359,2.53003439 160.768855,2.92929807 160.793387,3.33611878 C160.793387,4.30782832 160.104622,5.3154338 159.790746,5.74618515" id="Fill-79" fill="#0572B6" mask="url(#mask-4)"></path>
                    <path d="M160.33421,6.31283728 C160.848739,6.19948166 162.055179,5.88208594 163.17167,6.1409146 C163.676135,6.28449838 164.158585,6.49672528 164.604552,6.77255728 C164.186261,6.82734583 163.764825,6.85568474 163.34276,6.85694424 C162.317475,6.83364337 161.302255,6.65038512 160.33421,6.31283728" id="Fill-80" fill="#0572B6" mask="url(#mask-4)"></path>
                    <path d="M159.421958,6.31283728 C159.020651,6.05400862 157.962657,5.27941191 157.704135,4.50544495 C157.532415,3.95818922 157.445612,3.55640653 157.380824,3.3296953 C157.720489,3.48524439 158.031219,3.69810105 158.299177,3.95818922 C158.946427,4.60620549 159.302447,5.79455021 159.415668,6.31283728" id="Fill-81" fill="#0572B6" mask="url(#mask-4)"></path>
                    <path d="M161.249796,5.79461319 C160.906986,6.08304026 160.476743,6.17057598 160.305024,5.96968464 C160.133934,5.7687933 160.27609,5.36701061 160.647834,5.07858354 C161.020207,4.79078622 161.42466,4.70639926 161.595751,4.90729061 C161.76747,5.10818195 161.595751,5.48036623 161.249796,5.79461319" id="Fill-82" fill="#0572B6" mask="url(#mask-4)"></path>
                    <path d="M155.119285,7.3719566 C155.546382,7.45634355 156.60752,7.3719566 157.296285,8.40538197 C157.52839,8.72340745 157.776848,9.02946762 158.040403,9.32167321 C157.700738,9.25995737 157.365476,9.1730514 157.037762,9.06284455 C156.322579,8.8619532 155.419951,7.76681199 155.119285,7.3719566" id="Fill-83" fill="#0572B6" mask="url(#mask-4)"></path>
                    <path d="M160.447432,8.17841883 C160.936172,8.06191445 162.281622,7.77663615 163.087383,8.14945018 C163.630846,8.40827884 164.002591,8.60917018 164.232179,8.7225258 C164.002591,8.78109286 163.543414,8.52163445 162.99995,8.63813884 C162.123741,8.71056048 161.243757,8.55186262 160.447432,8.17841883" id="Fill-84" fill="#0572B6" mask="url(#mask-4)"></path>
                    <path d="M149.642252,9.89827544 C149.270508,9.9272441 148.956632,9.81388849 148.927069,9.61299714 C148.898134,9.41273555 149.18622,9.21184421 149.557965,9.1822458 C149.930338,9.15327714 150.244213,9.26663276 150.273148,9.4675241 C150.302082,9.66841544 150.01777,9.8434869 149.625898,9.89827544" id="Fill-85" fill="#0572B6" mask="url(#mask-4)"></path>
                    <path d="M147.775605,8.43756237 C148.12156,7.97784237 149.095266,6.80209272 150.068972,6.54263431 C150.716222,6.37134137 151.217542,6.25483699 151.502483,6.19941869 C151.240186,6.53633677 150.931972,6.83546965 150.586646,7.08674127 C149.737484,7.70075086 148.785164,8.15795185 147.775605,8.43756237" id="Fill-86" fill="#0572B6" mask="url(#mask-4)"></path>
                    <path d="M147.293595,6.57191784 C147.09357,5.77402025 147.064007,4.94337548 147.206163,4.13288282 C147.312465,3.74180594 147.466573,3.36521339 147.665339,3.01255147 C147.768497,3.35009931 147.845236,3.69583394 147.895557,4.04534709 C148.008778,5.10774112 147.494249,6.08259943 147.293595,6.57191784" id="Fill-87" fill="#0572B6" mask="url(#mask-4)"></path>
                    <path d="M149.156971,5.07877247 C148.868885,5.30863247 148.55501,5.36719953 148.409709,5.19212808 C148.263779,5.01705663 148.409709,4.70658819 148.697795,4.47609844 C148.985252,4.24623843 149.299127,4.18830112 149.441912,4.35959405 C149.584069,4.53151674 149.441912,4.84891246 149.156971,5.07877247" id="Fill-88" fill="#0572B6" mask="url(#mask-4)"></path>
                    <path d="M147.665591,9.69744708 C148.037335,9.75601415 149.069539,9.98587415 149.499781,10.5003827 C149.713644,10.7491353 149.914927,11.0085937 150.101743,11.2781282 C149.811141,11.2264884 149.524313,11.1591048 149.241259,11.0772368 C148.668231,10.9317638 148.383919,10.1867655 147.665591,9.69744708" id="Fill-89" fill="#0572B6" mask="url(#mask-4)"></path>
                    <path d="M144.110243,3.67309984 C144.540486,3.95837814 145.689056,4.6769268 146.119298,6.02459914 C146.319952,6.67261541 146.57533,6.80171487 146.691696,7.05802451 C146.491042,6.91507048 146.145088,6.68521048 145.689056,6.34199487 C145.041806,5.82370779 144.368766,4.24617546 144.110243,3.67309984" id="Fill-90" fill="#0572B6" mask="url(#mask-4)"></path>
                    <path d="M145.459279,7.63103716 C145.135968,7.43014581 144.970539,7.11589885 145.116469,6.91500751 C145.26177,6.71411617 145.572501,6.77268323 145.889521,6.97357458 C146.206542,7.17446592 146.375116,7.48871288 146.232331,7.68960422 C146.144899,7.86089716 145.773154,7.86089716 145.459279,7.63103716" id="Fill-91" fill="#0572B6" mask="url(#mask-4)"></path>
                    <path d="M143.194721,9.0399845 C143.566465,8.78115584 144.398015,8.06827496 145.688741,8.39196822 C146.203271,8.50532384 146.462423,8.22067529 146.720945,8.22067529 C146.549226,8.33403091 146.261769,8.54436855 145.801963,8.79375091 C145.171067,9.16656494 143.738185,9.07902921 143.194721,9.05320932" id="Fill-92" fill="#0572B6" mask="url(#mask-4)"></path>
                    <path d="M159.502786,7.43020879 C159.179475,7.54671317 158.269928,7.86096013 157.810752,7.63110013 C157.571099,7.51711476 157.341511,7.38297728 157.125132,7.22931744 C157.267288,7.1745289 157.52644,7.08699317 157.86925,6.9446689 C158.357361,6.77274621 159.18891,7.22931744 159.486432,7.43020879" id="Fill-93" fill="#0572B6" mask="url(#mask-4)"></path>
                    <path d="M135.999864,11.9647483 C135.540687,11.9099598 135.197877,11.6215327 135.226812,11.3620743 C135.255746,11.1032457 135.657054,10.9609214 136.116231,11.0188587 C136.575407,11.0774258 136.918846,11.3431817 136.889283,11.6215327 C136.860348,11.8998837 136.459041,12.0233154 135.999864,11.9647483" id="Fill-94" fill="#0572B6" mask="url(#mask-4)"></path>
                    <path d="M157.668533,6.62695829 C157.296788,6.54257133 157.021282,6.30326503 157.096135,6.11181999 C157.170358,5.9210047 157.467879,5.82339292 157.840252,5.91092864 C158.211997,5.99846437 158.470519,6.23525166 158.41265,6.42606695 C158.354153,6.61751199 158.040277,6.71449402 157.668533,6.62695829" id="Fill-95" fill="#0572B6" mask="url(#mask-4)"></path>
                    <path d="M161.194757,12.4538149 C160.823013,12.1301216 159.790809,11.3328538 159.703377,10.3875939 C159.644879,9.6973841 159.615945,9.41588432 159.615945,9.1822458 C159.946174,9.3755801 160.238035,9.62811122 160.476429,9.9272441 C160.994103,10.6464225 161.165823,11.9097079 161.194757,12.4538149" id="Fill-96" fill="#0572B6" mask="url(#mask-4)"></path>
                    <path d="M162.482339,10.2869593 C162.139529,10.2611394 161.223692,10.1736036 160.864528,9.77182096 C160.692179,9.57029986 160.529895,9.35933246 160.379562,9.14017827 C160.521718,9.14017827 160.780869,9.16977668 161.152614,9.19874534 C161.667143,9.25353389 162.242686,10.001681 162.46913,10.2869593" id="Fill-97" fill="#0572B6" mask="url(#mask-4)"></path>
                    <path d="M161.50857,11.2586688 C161.250047,10.9702417 161.16576,10.6559948 161.307916,10.5105217 C161.450072,10.3644189 161.767093,10.5105217 162.026244,10.7693504 C162.284767,11.0288088 162.369054,11.3720244 162.226898,11.5174975 C162.084113,11.6636003 161.767093,11.5439471 161.50857,11.2586688" id="Fill-98" fill="#0572B6" mask="url(#mask-4)"></path>
                    <path d="M147.723837,6.80190379 C148.008778,6.425941 148.869263,5.4806811 149.664959,5.27978976 C150.211568,5.13683573 150.612876,5.07889842 150.839319,5.02033135 C150.649987,5.31946423 150.419141,5.5902582 150.153699,5.82389672 C149.380018,6.425941 148.778685,6.25464806 147.717547,6.79560626" id="Fill-99" fill="#0572B6" mask="url(#mask-4)"></path>
                    <path d="M157.581163,10.2869593 C157.325786,10.5168193 156.953412,11.1774306 156.035059,11.064075 C155.774649,11.0300683 155.516756,10.9809475 155.261378,10.9186019 C155.3746,10.8052463 155.585318,10.6333236 155.908628,10.374495 C156.309936,10.0312794 157.254079,10.2025723 157.597518,10.2869593" id="Fill-100" fill="#0572B6" mask="url(#mask-4)"></path>
                    <path d="M157.008514,10.0440634 C156.636769,9.95652764 156.377618,9.75563629 156.406552,9.55474495 C156.436115,9.35385361 156.778925,9.26694763 157.153815,9.35385361 C157.529333,9.44138933 157.781566,9.64228068 157.755776,9.84317202 C157.729987,10.0440634 157.380258,10.0988519 157.008514,10.0440634" id="Fill-101" fill="#0572B6" mask="url(#mask-4)"></path>
                    <path d="M167.098825,19.1097418 C167.558001,19.1972775 168.615994,19.1097418 169.363257,20.0814513 C169.61549,20.4001066 169.882819,20.7061667 170.165873,20.9977426 C169.965219,20.9687739 169.592845,20.884387 169.104734,20.7678826 C168.389551,20.5965896 167.441635,19.5045972 167.098825,19.1034443" id="Fill-102" fill="#0572B6" mask="url(#mask-4)"></path>
                    <path d="M167.412637,20.7163058 C167.183049,20.4310275 167.15726,20.0878118 167.32835,19.9713075 C167.500069,19.8548031 167.813945,19.9713075 168.014599,20.2597345 C168.214624,20.5481616 168.273122,20.8913772 168.101402,21.0047328 C167.930312,21.1180885 167.613291,21.0337015 167.412637,20.7163058" id="Fill-103" fill="#0572B6" mask="url(#mask-4)"></path>
                    <path d="M166.839987,19.3980429 C166.92742,19.7998256 167.128074,20.9459768 166.726766,21.4642639 C166.52737,21.7262413 166.310991,21.9749939 166.079516,22.2092622 C166.021647,21.885569 165.963149,21.5776195 165.908425,21.2633726 C165.620339,20.291663 166.539321,19.7122899 166.823633,19.3980429" id="Fill-104" fill="#0572B6" mask="url(#mask-4)"></path>
                    <path d="M167.613165,17.8498571 C167.383577,17.5034927 166.840113,16.5544543 166.840113,15.8384246 C166.836339,15.4845032 166.855838,15.1305818 166.897982,14.7791794 C167.150844,15.0348593 167.380432,15.3125805 167.584231,15.6085646 C167.907542,16.184789 167.6421,17.3901371 167.613165,17.8498571" id="Fill-105" fill="#0572B6" mask="url(#mask-4)"></path>
                    <path d="M167.040578,18.0765683 C166.717268,18.1930727 165.837284,18.5073197 165.348544,18.2774597 C165.122101,18.1641041 164.892513,18.0217798 164.662924,17.875677 C164.80508,17.8208884 165.064232,17.7333527 165.407042,17.6199971 C165.924716,17.4449256 166.726703,17.875677 167.024224,18.0765683" id="Fill-106" fill="#0572B6" mask="url(#mask-4)"></path>
                    <path d="M165.093041,17.0886741 C164.721296,17.0042872 164.462145,16.7649809 164.517497,16.5735358 C164.572221,16.3827205 164.892387,16.2857385 165.26476,16.3726445 C165.636504,16.4601802 165.911381,16.6969675 165.837158,16.8877828 C165.762935,17.0792278 165.435851,17.1762099 165.093041,17.0886741" id="Fill-107" fill="#0572B6" mask="url(#mask-4)"></path>
                    <path d="M170.709148,18.1348835 C170.337403,18.2224192 169.993964,18.1348835 169.96503,17.9339922 C169.936096,17.7331008 170.194618,17.5032408 170.566992,17.4446737 C170.938736,17.3867364 171.252611,17.4446737 171.311109,17.6455651 C171.368978,17.8464564 171.080892,18.0504965 170.709148,18.1348835" id="Fill-108" fill="#0572B6" mask="url(#mask-4)"></path>
                    <path d="M168.561082,17.7915419 C169.081272,16.9155549 169.773811,16.154183 170.595926,15.5533982 C171.024281,15.2983481 171.503586,15.1415395 171.999874,15.0936782 C171.855831,15.4362641 171.63442,15.7416945 171.353253,15.9841496 C170.573911,16.8021993 169.611527,17.4212469 168.544728,17.7915419" id="Fill-109" fill="#0572B6" mask="url(#mask-4)"></path>
                    <path d="M168.703364,18.1639781 C169.133606,18.1350094 169.965156,17.9051494 170.644486,18.8800078 C170.903008,19.2553408 171.275382,19.1678051 171.391748,19.3397278 C171.191094,19.3397278 170.874074,19.3686964 170.421187,19.3686964 C169.773937,19.3686964 168.988305,18.5071937 168.700219,18.1639781" id="Fill-110" fill="#0572B6" mask="url(#mask-4)"></path>
                    <path d="M136.028987,9.15334012 C136.371797,9.38320012 137.322859,9.49655573 137.46187,10.8184082 C137.520996,11.1691808 137.607171,11.5142857 137.721021,11.8512038 C137.549302,11.7346994 137.319714,11.5634065 136.947969,11.2781282 C136.430295,10.8473768 136.116419,9.64265853 136.028987,9.15334012" id="Fill-111" fill="#0572B6" mask="url(#mask-4)"></path>
                    <path d="M138.694727,10.9898271 C138.552571,11.3330427 138.29342,11.533934 138.122329,11.4791455 C137.95061,11.4237272 137.892741,11.0773628 138.005962,10.7309984 C138.119184,10.3840043 138.406641,10.1868914 138.607295,10.2448288 C138.807949,10.3033958 138.836883,10.6466114 138.694727,10.9898271" id="Fill-112" fill="#0572B6" mask="url(#mask-4)"></path>
                    <path d="M138.180324,11.8804873 C138.435701,11.679596 139.150885,10.9314489 139.755991,11.1033716 C140.039674,11.1613089 140.332164,11.1613089 140.616476,11.1033716 C140.500109,11.1909073 140.292536,11.3622003 140.014514,11.5630916 C139.555337,11.8867849 138.552068,11.909456 138.180324,11.8867849" id="Fill-113" fill="#0572B6" mask="url(#mask-4)"></path>
                    <path d="M136.316947,12.2821441 C136.488667,12.1946083 137.002567,11.9099598 137.287508,12.0233154 C137.488162,12.1102214 137.630318,12.1656397 137.71775,12.1946083 C137.564901,12.231134 137.425261,12.3111127 137.316443,12.4244683 C136.886201,12.9137868 136.484893,12.366531 136.313802,12.2821441" id="Fill-114" fill="#0572B6" mask="url(#mask-4)"></path>
                    <path d="M141.761587,14.0603158 C142.020109,13.7718888 142.677424,12.764913 143.307691,13.0268905 C143.585713,13.1219832 143.885121,13.1320593 144.168804,13.0564889 C144.054953,13.1988132 143.844864,13.3997045 143.595777,13.6881316 C143.165535,14.1188829 142.162894,14.0892845 141.761587,14.0603158" id="Fill-115" fill="#0572B6" mask="url(#mask-4)"></path>
                    <path d="M142.075399,13.1695926 C142.020675,13.4932859 141.820022,13.7168483 141.619368,13.6878797 C141.418714,13.658911 141.360216,13.3641864 141.418714,13.0398634 C141.477212,12.7161701 141.674091,12.4957564 141.874745,12.5253548 C142.075399,12.5543235 142.162831,12.8685705 142.075399,13.1727414" id="Fill-116" fill="#0572B6" mask="url(#mask-4)"></path>
                    <path d="M140.156985,12.512067 C140.441926,12.6543913 141.243912,12.6543913 141.272847,13.5454924 C141.293604,13.7791309 141.342667,14.0096207 141.418777,14.2319237 C141.30241,14.1733566 141.072822,14.060001 140.771526,13.888708 C140.370219,13.658848 140.199128,12.826314 140.14063,12.512067" id="Fill-117" fill="#0572B6" mask="url(#mask-4)"></path>
                    <path d="M136.05811,15.8676452 C136.381421,15.6377852 136.70536,14.8638182 137.999232,14.9803226 C138.352106,15.0061425 138.706867,15.0061425 139.06037,14.9803226 C138.918214,15.0936782 138.659062,15.2649712 138.316253,15.5244296 C137.798578,15.8676452 136.539931,15.8966139 136.05182,15.8676452" id="Fill-118" fill="#0572B6" mask="url(#mask-4)"></path>
                    <path d="M137.805057,14.0894734 C138.005711,14.0605048 138.581254,14.0605048 138.807697,14.2613961 C138.953627,14.4037204 139.066849,14.5491934 139.131637,14.6046117 C138.978159,14.5737538 138.820277,14.5838299 138.671831,14.6335804 C138.099433,14.892409 137.957277,14.2317977 137.811347,14.0894734" id="Fill-119" fill="#0572B6" mask="url(#mask-4)"></path>
                    <path d="M139.32556,14.8927239 C139.610502,15.0350482 140.415633,15.0350482 140.441422,15.9261493 C140.476018,16.1585283 140.525081,16.3890181 140.587353,16.6157293 C140.379151,16.5130795 140.178497,16.3978346 139.985391,16.2693649 C139.555149,16.0395049 139.384058,15.2069709 139.33877,14.8927239" id="Fill-120" fill="#0572B6" mask="url(#mask-4)"></path>
                    <path d="M139.209068,16.0975682 C139.154344,16.4212614 138.95369,16.6416751 138.753036,16.6158553 C138.552383,16.5900354 138.493885,16.292162 138.552383,15.967839 C138.61088,15.6441457 138.80776,15.4205832 139.008414,15.4495519 C139.209068,15.4791503 139.2965,15.796546 139.209068,16.0975682" id="Fill-121" fill="#0572B6" mask="url(#mask-4)"></path>
                    <path d="M162.4273,20.1721358 C161.997058,20.0587802 160.809489,19.7413845 160.220737,19.1387105 C159.820058,18.7375575 159.574116,18.4522792 159.389816,18.2513879 C159.784205,18.266502 160.176706,18.3143632 160.564176,18.3937122 C161.27873,18.6242019 162.081345,19.7703531 162.4273,20.1721358" id="Fill-122" fill="#0572B6" mask="url(#mask-4)"></path>
                    <path d="M161.79653,18.6789905 C161.738032,18.3068062 161.825465,17.9925592 162.026119,17.9339922 C162.226772,17.8760548 162.427426,18.1638522 162.48215,18.5366662 C162.537503,18.9088505 162.456361,19.2262462 162.255707,19.2816645 C162.055053,19.336453 161.855028,19.0807731 161.79653,18.6789905" id="Fill-123" fill="#0572B6" mask="url(#mask-4)"></path>
                    <path d="M164.061026,18.0214649 C164.002528,18.3646805 163.860372,19.3168677 163.413775,19.5989972 C163.184187,19.7413215 162.954599,19.8867946 162.72501,20.0001502 C162.753945,19.8288572 162.782879,19.5693988 162.841377,19.2261832 C162.954599,18.6789275 163.757214,18.1933876 164.074235,18.0214649" id="Fill-124" fill="#0572B6" mask="url(#mask-4)"></path>
                    <path d="M158.412587,14.0894734 C158.758542,14.2317977 159.932902,14.6046117 159.84547,15.2652231 C159.844841,15.5549097 159.914032,15.840188 160.046124,16.0977571 C159.875033,16.03919 159.615882,15.8968658 159.273072,15.7249431 C158.758542,15.4371458 158.50002,14.4616577 158.412587,14.0894734" id="Fill-125" fill="#0572B6" mask="url(#mask-4)"></path>
                    <path d="M158.813707,13.9178026 C159.043295,13.7169113 159.38925,12.9687642 160.191865,13.3151286 C160.413276,13.3982561 160.643494,13.4561934 160.877485,13.4870513 C160.764264,13.5714383 160.593173,13.7169113 160.305087,13.9178026 C159.903779,14.1734825 159.101793,14.0021896 158.813707,13.9178026" id="Fill-126" fill="#0572B6" mask="url(#mask-4)"></path>
                    <path d="M160.305087,14.3193964 C160.593173,14.4617207 160.764264,14.7211791 160.676831,14.892472 C160.590028,15.0643947 160.305087,15.0643947 159.991211,14.9220704 C159.677336,14.7791164 159.532035,14.5202877 159.616322,14.3483651 C159.69998,14.1770721 160.020146,14.1739234 160.305087,14.3193964" id="Fill-127" fill="#0572B6" mask="url(#mask-4)"></path>
                    <path d="M151.010724,11.3914208 C151.15288,11.6502495 151.842274,12.1105992 151.353534,12.8555975 C151.240941,13.0634162 151.144703,13.2800513 151.065448,13.5029841 C151.010724,13.3864797 150.894357,13.1792908 150.742137,12.8555975 C150.541483,12.3952478 150.855359,11.6212808 151.001289,11.3624522" id="Fill-128" fill="#0572B6" mask="url(#mask-4)"></path>
                    <path d="M152.395299,12.7388413 C152.16571,12.9687013 151.877624,13.0625345 151.748048,12.9428814 C151.619101,12.8232282 151.690179,12.51213 151.919768,12.2948651 C152.149356,12.0782299 152.437442,11.9711718 152.567018,12.0946035 C152.695965,12.2174054 152.624887,12.5253548 152.395299,12.74199" id="Fill-129" fill="#0572B6" mask="url(#mask-4)"></path>
                    <path d="M151.450653,13.4578937 C151.773963,13.2570024 152.7093,12.4861842 153.226974,12.9427554 C153.476062,13.1052318 153.761632,13.2028436 154.057895,13.2280337 C153.912594,13.3155694 153.657216,13.4868624 153.310632,13.6587851 C152.767169,13.9472121 151.793463,13.600218 151.450653,13.4578937" id="Fill-130" fill="#0572B6" mask="url(#mask-4)"></path>
                    <path d="M157.325597,6.94441699 C156.477693,6.85688127 155.667529,6.54956159 154.973732,6.05394565 C154.656712,5.79196822 154.394415,5.47079397 154.20068,5.108056 C154.58186,5.0809766 154.964297,5.13954367 155.319687,5.27934893 C156.097771,5.68742915 156.781504,6.25420724 157.325597,6.94441699" id="Fill-131" fill="#0572B6" mask="url(#mask-4)"></path>
                    <path d="M156.005684,3.2714431 C156.293771,3.50130311 157.325345,4.15876568 157.095757,4.79040837 C157.022792,5.07316766 157.022792,5.36978152 157.095757,5.65191106 C156.868056,5.47495035 156.652306,5.2835053 156.449136,5.07883544 C156.018894,4.67705275 156.018894,3.64362738 156.018894,3.2714431" id="Fill-132" fill="#0572B6" mask="url(#mask-4)"></path>
                    <path d="M154.918694,4.70633629 C154.689106,4.41790922 154.630608,4.05832001 154.773393,3.93236933 C154.915549,3.80578889 155.261504,3.95818922 155.491092,4.25606259 C155.72068,4.55393596 155.776033,4.90407886 155.633877,5.03002955 C155.491092,5.15660999 155.174072,5.00106089 154.918694,4.70633629" id="Fill-133" fill="#0572B6" mask="url(#mask-4)"></path>
                    <path d="M168.444589,17.5032408 C168.27287,17.1795475 167.842628,16.3564598 168.014347,15.8381727 C168.10178,15.5824929 168.215001,15.3526329 168.337658,15.0931744 C168.421945,15.2361285 168.538312,15.4659885 168.710031,15.8092041 C168.968554,16.2985225 168.622599,17.1889938 168.45088,17.5032408" id="Fill-134" fill="#0572B6" mask="url(#mask-4)"></path>
                    <path d="M142.363297,6.62695829 C142.735041,6.54257133 143.883611,6.11181999 144.226421,6.68552536 C144.427075,7.02874098 144.770514,7.1162767 144.915815,7.22963232 C144.740951,7.25860098 144.456639,7.3461367 144.055331,7.40407402 C143.482933,7.48846098 142.651383,6.85681829 142.363297,6.62695829" id="Fill-135" fill="#0572B6" mask="url(#mask-4)"></path>
                    <path d="M138.093017,13.4287361 C137.314304,13.7140144 136.477722,13.8028097 135.656865,13.6875648 C135.26059,13.5956208 134.875636,13.4614833 134.508295,13.2864119 C134.825944,13.1069321 135.17756,12.9960955 135.540499,12.9620888 C136.416079,12.9010028 137.293547,13.0590709 138.093017,13.4224386" id="Fill-136" fill="#0572B6" mask="url(#mask-4)"></path>
                    <path d="M138.895318,10.4164995 C139.00854,9.89821247 139.726868,8.69349416 140.470986,8.32068013 C140.98866,8.06185148 141.017595,7.68903745 141.244038,7.60528024 C141.188685,7.83514024 141.101882,8.23692293 140.920727,8.78102989 C140.69051,9.55499685 139.373994,10.2156082 138.885883,10.400126" id="Fill-137" fill="#0572B6" mask="url(#mask-4)"></path>
                    <path d="M138.293545,7.69583878 C138.380978,7.95466744 138.808075,8.38541879 138.380978,9.13041709 C138.272788,9.33571671 138.17655,9.54668411 138.092891,9.76205978 C138.063957,9.64870416 138.005459,9.43836652 137.921801,9.1600155 C137.834369,8.75823281 138.151389,7.98426585 138.293545,7.69583878" id="Fill-138" fill="#0572B6" mask="url(#mask-4)"></path>
                    <path d="M146.158045,4.41803517 C145.873104,4.21714383 145.128986,3.61509955 145.100052,3.07036283 C145.07615,2.80334738 145.066085,2.53570218 145.071118,2.26742722 C145.289384,2.41856804 145.500102,2.58041467 145.702014,2.75296711 C146.132256,3.1289299 146.158045,4.07481955 146.158045,4.41803517" id="Fill-139" fill="#0572B6" mask="url(#mask-4)"></path>
                    <path d="M145.229628,16.6417381 C145.142196,16.2985225 144.906317,15.3816015 145.229628,14.9218815 C145.36801,14.693281 145.531552,14.4816839 145.718368,14.2902388 C145.798252,14.5446592 145.865556,14.8028581 145.918393,15.0642058 C146.00268,15.6083127 145.430282,16.3860582 145.229628,16.6417381" id="Fill-140" fill="#0572B6" mask="url(#mask-4)"></path>
                    <path d="M163.714882,23.8450467 C163.391571,23.987371 162.511588,24.3047667 162.025993,24.0459381 C161.796404,23.9325825 161.566816,23.7864797 161.337228,23.6441554 C161.479384,23.5862181 161.738536,23.4728625 162.081345,23.3595069 C162.569456,23.1844354 163.401006,23.6441554 163.698528,23.8450467" id="Fill-141" fill="#0572B6" mask="url(#mask-4)"></path>
                    <path d="M161.078265,25.9115196 C160.906545,25.568304 160.906545,25.2219396 161.078265,25.1375527 C161.249984,25.0531657 161.537441,25.2509083 161.725515,25.5972727 C161.91296,25.9436371 161.896606,26.2837039 161.725515,26.3712396 C161.553796,26.4587754 161.23992,26.2289154 161.078265,25.9115196" id="Fill-142" fill="#0572B6" mask="url(#mask-4)"></path>
                    <path d="M160.822698,24.1883883 C161.194443,24.2469554 162.226647,24.4182483 162.540522,24.9075667 C162.77011,25.2507823 162.912266,25.509611 162.999699,25.652565 C162.828608,25.6229666 162.741176,25.5681781 162.353077,25.4806423 C161.751116,25.3672867 161.006998,24.5089328 160.835908,24.1852395" id="Fill-143" fill="#0572B6" mask="url(#mask-4)"></path>
                    <path d="M160.563924,24.3632708 C160.792254,25.0522211 160.651985,25.8104442 160.19218,26.3715545 C159.933028,26.7147701 160.02046,27.018941 159.904094,27.2040886 C159.84937,26.9093639 159.811629,26.6121203 159.790872,26.3129875 C159.70344,25.7109432 160.305401,24.7354551 160.563924,24.3695684" id="Fill-144" fill="#0572B6" mask="url(#mask-4)"></path>
                    <path d="M156.034808,23.2717822 C156.176964,22.9285666 156.493984,21.7496682 157.180233,21.8076055 C157.470206,21.7906021 157.75326,21.711883 158.011154,21.5777455 C157.910512,21.8510585 157.796033,22.1193334 157.668344,22.3813109 C157.409821,22.8995979 156.436115,23.1842465 156.034808,23.2717822" id="Fill-145" fill="#0572B6" mask="url(#mask-4)"></path>
                    <path d="M156.063931,22.3519014 C156.092865,22.6755946 155.976498,22.9577242 155.805408,22.9835441 C155.633689,23.0093639 155.433035,22.7536841 155.4041,22.4394371 C155.375166,22.1251901 155.491533,21.8367631 155.662623,21.8077944 C155.834342,21.7788258 156.005433,22.0376544 156.063931,22.3519014" id="Fill-146" fill="#0572B6" mask="url(#mask-4)"></path>
                    <path d="M154.029024,22.3519014 C154.352334,22.4104684 155.090162,22.1251901 155.404037,22.9577242 C155.497131,23.1699511 155.612239,23.3714722 155.746847,23.5597684 C155.604691,23.5307998 155.375103,23.5018311 155.061227,23.4432641 C154.601422,23.3299084 154.17118,22.61073 154.029024,22.3519014" id="Fill-147" fill="#0572B6" mask="url(#mask-4)"></path>
                    <path d="M142.706232,18.4781621 C142.706232,18.4781621 141.848893,19.6860292 141.360153,19.6570605 C141.075841,19.6690258 140.795303,19.7269631 140.529232,19.8289832 C140.616664,19.7124788 140.75882,19.4857676 140.988409,19.1973405 C141.331219,18.7955578 142.334488,18.5656978 142.706232,18.4781621" id="Fill-148" fill="#0572B6" mask="url(#mask-4)"></path>
                    <path d="M134.654099,25.9406143 C134.738386,25.5388316 134.883687,24.3208884 135.398217,23.7024706 C135.683158,23.4115245 135.990114,23.1426198 136.317199,22.899535 C136.287636,23.0997965 136.200203,23.4140435 136.086982,23.8447948 C135.915891,24.4928111 134.996909,25.5388316 134.654099,25.9406143" id="Fill-149" fill="#0572B6" mask="url(#mask-4)"></path>
                    <path d="M135.055218,23.213467 C134.709263,23.3299714 134.366453,23.2424357 134.307956,23.0415443 C134.249458,22.8412828 134.48282,22.610793 134.82563,22.4974374 C135.16844,22.3840818 135.514395,22.4684687 135.569748,22.6693601 C135.624471,22.8702514 135.398028,23.1001114 135.055218,23.213467" id="Fill-150" fill="#0572B6" mask="url(#mask-4)"></path>
                    <path d="M133.880921,20.9170712 C134.223731,21.0046069 135.313804,21.1469312 135.456589,21.7785739 C135.553456,22.0518868 135.698757,22.3056775 135.886831,22.5267209 C135.740901,22.4977523 135.485523,22.4102165 135.113779,22.2968609 C134.596105,22.1249382 134.052641,21.2634355 133.880921,20.9170712" id="Fill-151" fill="#0572B6" mask="url(#mask-4)"></path>
                    <path d="M133.392433,19.7413845 C133.906962,19.6280289 135.368779,19.3692002 136.116671,19.8578889 C136.487786,20.0789323 136.841289,20.3276849 137.174035,20.6028872 C136.947592,20.6614542 136.488415,20.3440585 135.916017,20.4309645 C135.023453,20.4693795 134.141583,20.2281839 133.392433,19.7413845" id="Fill-152" fill="#0572B6" mask="url(#mask-4)"></path>
                    <path d="M138.523259,24.9365984 C138.293671,24.5644141 137.520619,23.3848859 137.69171,22.6405174 C137.765933,22.243143 137.785432,21.8375817 137.750207,21.4351693 C137.863429,21.607092 138.034519,21.8955191 138.264737,22.3262704 C138.588047,22.9579131 138.552194,24.3924914 138.523259,24.9365984" id="Fill-153" fill="#0572B6" mask="url(#mask-4)"></path>
                    <path d="M140.299329,21.836952 C139.956519,21.9244877 139.005458,22.0957807 138.581506,21.7494163 L137.976399,21.234278 C138.151264,21.2053093 138.406641,21.147372 138.78216,21.0919537 C139.325623,20.9754493 140.040807,21.5781233 140.299329,21.836952" id="Fill-154" fill="#0572B6" mask="url(#mask-4)"></path>
                    <path d="M138.924441,22.7535581 C138.723788,22.5526668 138.665919,22.2969869 138.782285,22.1804825 C138.898652,22.0639781 139.125095,22.1804825 139.325749,22.3813738 C139.526403,22.5816354 139.584272,22.8410938 139.467905,22.9575982 C139.351539,23.0741026 139.125095,22.9575982 138.924441,22.7535581" id="Fill-155" fill="#0572B6" mask="url(#mask-4)"></path>
                    <path d="M136.601637,18.9672286 C136.773356,19.2556557 136.802291,19.5403042 136.630571,19.6568086 C136.459481,19.7739427 136.200329,19.6278399 136.029239,19.3331153 C135.857519,19.0383907 135.828585,18.7600397 135.999675,18.6466841 C136.171395,18.5333285 136.429917,18.7014727 136.601637,18.9703774" id="Fill-156" fill="#0572B6" mask="url(#mask-4)"></path>
                    <path d="M137.261593,20.3438066 C137.261593,20.0881267 136.938283,19.5988083 137.520116,18.938197 C137.669191,18.7580875 137.803799,18.5666424 137.921424,18.3651213 L137.921424,18.9671656 C137.950358,19.4268856 137.462247,20.0881267 137.274802,20.3438066" id="Fill-157" fill="#0572B6" mask="url(#mask-4)"></path>
                    <path d="M135.339908,20.8037155 C135.631768,20.6525747 135.961998,20.5927481 136.287824,20.6317929 C136.438786,20.6689483 136.583459,20.7268856 136.718066,20.8037155 C136.630634,20.8326842 136.831288,20.8622826 136.718066,20.9756382 C136.342548,21.3478225 135.540562,20.8912513 135.339908,20.8037155" id="Fill-158" fill="#0572B6" mask="url(#mask-4)"></path>
                    <path d="M142.599489,19.4563581 C142.599489,19.1326648 142.741646,18.8536841 142.9228,18.8536841 C143.103955,18.8536841 143.269384,19.1099937 143.269384,19.4273894 C143.269384,19.397791 143.123454,20.0294337 142.945444,20.0294337 C142.767435,20.0294337 142.602635,19.770605 142.602635,19.4563581" id="Fill-159" fill="#0572B6" mask="url(#mask-4)"></path>
                    <path d="M144.627855,19.5113985 C144.369332,19.3980429 143.738436,19.4855786 143.453495,18.6788645 C143.362918,18.4609698 143.254728,18.2512619 143.130184,18.0503706 C143.325806,18.1246815 143.517025,18.210328 143.702583,18.3066802 C144.10389,18.4779732 144.47878,19.2261202 144.621565,19.5113985" id="Fill-160" fill="#0572B6" mask="url(#mask-4)"></path>
                    <path d="M140.587227,11.9938429 C140.872168,11.5920603 141.674154,10.5296662 142.47677,10.3287749 C143.023379,10.2154193 143.424686,10.1285133 143.683209,10.0989149 C143.536021,10.448428 143.315239,10.762675 143.035959,11.0189846 C142.088042,11.6670009 141.632011,11.4207673 140.600436,11.9906942" id="Fill-161" fill="#0572B6" mask="url(#mask-4)"></path>
                    <path d="M134.595853,15.1226469 C134.796507,14.9507242 134.967597,14.3486799 135.828711,14.3744998 C136.058928,14.3707213 136.289145,14.3524585 136.517475,14.3190815 C136.430043,14.4034685 136.287887,14.5495713 136.058299,14.7504626 C135.734359,15.0351112 134.912873,15.0936782 134.595853,15.1226469" id="Fill-162" fill="#0572B6" mask="url(#mask-4)"></path>
                    <path d="M157.209105,20.1721358 C157.755713,20.0002131 159.272883,19.6280289 159.991211,20.1135688 C160.362327,20.3465775 160.71583,20.6066657 161.049205,20.8913142 C160.793827,20.9750715 160.363585,20.6318558 159.755333,20.7748099 C158.923783,20.9750715 157.661991,20.5153515 157.202814,20.1721358" id="Fill-163" fill="#0572B6" mask="url(#mask-4)"></path>
                    <path d="M163.744005,21.3770431 C164.08996,21.6654701 165.037877,22.5269728 165.235385,23.3204621 C165.377541,23.8645691 165.436039,24.2663518 165.493908,24.4962118 C165.215257,24.2802064 164.956734,24.0396406 164.720856,23.7770334 C163.973593,23.0610037 164.261679,22.4589595 163.750295,21.3675968" id="Fill-164" fill="#0572B6" mask="url(#mask-4)"></path>
                    <path d="M140.700448,4.78083612 C141.218123,4.72604757 142.363548,4.52515623 143.337254,5.03966478 C143.724095,5.24181563 144.089549,5.48301119 144.427327,5.75884319 C144.197738,5.78466308 143.737933,5.50001453 143.194469,5.52898319 C142.392483,5.58377174 141.159625,5.09823185 140.700448,4.78083612" id="Fill-165" fill="#0572B6" mask="url(#mask-4)"></path>
                    <path d="M142.8777,4.10385118 C142.677046,3.78015792 142.677046,3.41364143 142.851911,3.30091556 C143.026775,3.18693019 143.336877,3.35570411 143.537531,3.67309984 C143.738185,3.99049557 143.738185,4.35953108 143.566465,4.4470668 C143.395375,4.61898949 143.078354,4.4470668 142.8777,4.10385118" id="Fill-166" fill="#0572B6" mask="url(#mask-4)"></path>
                    <path d="M133.279211,11.9647483 C133.534589,11.8803614 134.281852,11.7090684 134.654225,11.9647483 C134.83538,12.0749552 135.007099,12.1996464 135.168754,12.3369326 C135.055533,12.366531 134.825315,12.223577 134.537858,12.2821441 C134.09252,12.3325243 133.644665,12.2172795 133.279211,11.9584508" id="Fill-167" fill="#0572B6" mask="url(#mask-4)"></path>
                    <path d="M143.767308,11.9355908 C144.474314,11.5709635 145.268752,11.4128954 146.060675,11.4790195 C146.455692,11.513656 146.847565,11.5709635 147.235034,11.6503125 C146.936884,11.7825607 146.631186,11.8971758 146.319826,11.9941578 C145.630432,12.1944194 144.256048,12.0231265 143.767308,11.9355908" id="Fill-168" fill="#0572B6" mask="url(#mask-4)"></path>
                    <path d="M146.433048,16.6157923 C146.144962,16.7581166 145.831086,16.7581166 145.744283,16.5868236 C145.656851,16.4149009 145.831086,16.1560723 146.119172,16.0099695 C146.407258,15.8644964 146.721134,15.8676452 146.804792,16.0395679 C146.889079,16.2108608 146.721134,16.4703192 146.433048,16.6157923" id="Fill-169" fill="#0572B6" mask="url(#mask-4)"></path>
                    <path d="M135.941681,10.6464855 C135.540373,10.5299811 134.595601,9.95627574 134.308144,9.38320012 C134.10749,8.98141743 133.822549,8.92348011 133.735117,8.75155743 C134.057799,8.81201376 134.374819,8.89891973 134.683034,9.01101584 C135.284995,9.21190718 135.769961,10.2447028 135.941681,10.6464855" id="Fill-170" fill="#0572B6" mask="url(#mask-4)"></path>
                    <path d="M162.68293,18.5073197 C162.65714,18.1641041 162.628206,17.2119169 163.028885,16.8422516 C163.2157,16.6463983 163.416983,16.4643996 163.630846,16.2981446 C163.630846,16.4700673 163.659781,16.728896 163.659781,17.10171 C163.630846,17.645817 162.941452,18.2774597 162.68922,18.5073197" id="Fill-171" fill="#0572B6" mask="url(#mask-4)"></path>
                    <path d="M163.488439,13.3444751 C163.915536,13.5453665 165.064106,14.0894734 165.293695,14.7790534 C165.406916,15.1228988 165.494348,15.4661144 165.578007,15.8382987 C165.377982,15.7539117 165.177328,15.5146054 164.721296,15.2941917 C164.074046,14.9509761 163.60166,13.830015 163.488439,13.3507727" id="Fill-172" fill="#0572B6" mask="url(#mask-4)"></path>
                    <path d="M165.950317,14.8214358 C165.924528,14.4782202 165.895593,13.526033 166.273628,13.1305479 C166.474282,12.9296565 166.674935,12.7552148 166.875589,12.5832922 C166.875589,12.7552148 166.904524,13.0140435 166.904524,13.3868575 C166.904524,13.9341133 166.215759,14.5947246 165.956607,14.8214358" id="Fill-173" fill="#0572B6" mask="url(#mask-4)"></path>
                    <path d="M164.921573,13.7169743 C164.834141,13.3706099 164.947362,13.0273943 165.148016,12.9977959 C165.34867,12.9688272 165.578258,13.1986872 165.66569,13.5715012 C165.753123,13.9436855 165.636756,14.2610812 165.436102,14.2900499 C165.235448,14.3196483 165.00586,14.0891586 164.921573,13.7169743" id="Fill-174" fill="#0572B6" mask="url(#mask-4)"></path>
                    <path d="M167.901126,23.8158892 C167.642603,23.4921959 166.839987,22.6691082 166.956354,22.0374655 C167.040012,21.7036962 167.155121,21.3787434 167.299164,21.0657559 C167.412386,21.20871 167.441949,21.497137 167.700472,21.8693213 C168.072845,22.3844596 167.988558,23.4172552 167.901126,23.8127404" id="Fill-175" fill="#0572B6" mask="url(#mask-4)"></path>
                    <path d="M144.084391,1.0333624 C144.139115,1.29219106 144.456135,1.66500509 144.084391,2.43897205 C143.996959,2.63986339 143.909527,2.86972339 143.825868,3.08698833 C143.785612,2.89617304 143.756677,2.70409824 143.738436,2.51013419 C143.654149,2.10898125 143.968024,1.33438454 144.084391,1.02013758" id="Fill-176" fill="#0572B6" mask="url(#mask-4)"></path>
                    <path d="M169.075423,13.3153805 C169.217579,13.6006588 169.877409,14.0603788 169.363509,14.8053771 C169.238336,15.0062685 169.130146,15.2178656 169.039569,15.4370198 C168.984845,15.3236642 168.868479,15.0938042 168.755257,14.8053771 C168.583538,14.3488059 168.926347,13.6006588 169.078568,13.3153805" id="Fill-177" fill="#0572B6" mask="url(#mask-4)"></path>
                    <path d="M164.746897,7.66019474 C164.461956,7.77669912 164.261931,8.37937315 163.258662,7.77669912 C162.970576,7.60540619 162.770551,7.48827205 162.657329,7.40451485 C162.799485,7.34594778 163.000139,7.28801046 163.30395,7.17465485 C163.79269,7.05752071 164.507245,7.49834811 164.737462,7.66019474" id="Fill-178" fill="#0572B6" mask="url(#mask-4)"></path>
                    <path d="M164.546306,10.7306835 C164.203496,10.6462966 163.543666,10.8471879 162.769985,9.9277479 L162.08122,9.24068692 C162.352952,9.28728867 162.621538,9.35467229 162.883206,9.44157826 C163.400881,9.6424696 164.232431,10.4454052 164.546306,10.7369811" id="Fill-179" fill="#0572B6" mask="url(#mask-4)"></path>
                    <path d="M164.274574,9.67156421 C163.90283,9.67156421 163.585809,9.49649276 163.585809,9.29560141 C163.585809,9.09533982 163.90912,8.9523858 164.274574,8.9523858 C164.640028,8.9523858 164.960194,9.12430848 164.960194,9.32519983 C164.960194,9.52609117 164.636883,9.67156421 164.274574,9.67156421" id="Fill-180" fill="#0572B6" mask="url(#mask-4)"></path>
                    <path d="M146.691885,15.6085017 C147.235349,15.4661774 148.726729,15.0933634 149.470847,15.5826818 C149.838817,15.8200988 150.193578,16.0782977 150.531985,16.3566487 C150.272833,16.4410357 149.842591,16.0978201 149.238114,16.2401444 C148.380774,16.4152158 147.118982,15.9548661 146.68874,15.6085017" id="Fill-181" fill="#0572B6" mask="url(#mask-4)"></path>
                    <path d="M149.299316,14.202829 C149.557839,14.3483021 150.360454,14.4037204 150.360454,15.2941917 C150.361083,15.5265708 150.389389,15.75832 150.444742,15.9844015 C150.33152,15.9258344 150.120802,15.7835101 149.84278,15.6084387 C149.471036,15.3237901 149.328251,14.5202248 149.299316,14.202829" id="Fill-182" fill="#0572B6" mask="url(#mask-4)"></path>
                    <path d="M136.889534,17.2441602 C137.404064,17.1308046 138.782222,17.2731289 139.438908,17.791416 C139.898084,18.1346316 140.240894,18.021276 140.409469,18.1931987 C140.012564,18.2895509 139.609369,18.3563048 139.2024,18.39409 C138.400414,18.5364143 137.283923,17.620123 136.883244,17.2441602" id="Fill-183" fill="#0572B6" mask="url(#mask-4)"></path>
                    <path d="M157.839938,16.4149639 C158.412336,16.3859953 159.962214,16.3859953 160.564176,17.0434578 C160.964854,17.5031778 161.249796,17.8205736 161.42466,18.0504336 C161.165508,18.0762535 160.822698,17.6455021 160.220737,17.6455021 C159.309932,17.5195514 158.470205,17.0850216 157.839938,16.4149639" id="Fill-184" fill="#0572B6" mask="url(#mask-4)"></path>
                    <path d="M161.738221,15.3526329 C161.880377,15.6379112 162.540208,16.0976312 162.026307,16.8426295 C161.901763,17.0498183 161.793574,17.2664535 161.702368,17.490016 C161.647644,17.3766604 161.531277,17.1468004 161.418055,16.8590031 C161.217402,16.3728334 161.589146,15.6246863 161.741366,15.339408" id="Fill-185" fill="#0572B6" mask="url(#mask-4)"></path>
                    <path d="M162.333515,14.432752 C162.656826,14.4617207 163.394653,14.1474737 163.737463,14.9510391 C163.845653,15.1588577 163.980261,15.3515623 164.138771,15.5241147 C163.907925,15.5140387 163.678965,15.4844402 163.453151,15.436579 C162.964411,15.3817904 162.505235,14.6915807 162.333515,14.432752" id="Fill-186" fill="#0572B6" mask="url(#mask-4)"></path>
                    <path d="M153.226723,2.92816451 C153.656965,2.7241244 154.80239,2.12145037 155.633311,2.29652182 C156.064182,2.40987744 156.494424,2.55220171 156.927812,2.69830451 C156.559212,2.77324517 156.195016,2.86833794 155.837739,2.98295306 C155.122556,3.24241147 153.744397,3.07048879 153.229868,2.92816451" id="Fill-187" fill="#0572B6" mask="url(#mask-4)"></path>
                    <path d="M151.981222,2.92816451 C151.23962,2.5496827 150.608095,1.98605338 150.147032,1.29269486 C149.939459,0.940032941 149.775287,0.564070145 149.658292,0.17173376 C149.986634,0.313428281 150.294849,0.496686528 150.577274,0.715840721 C151.178606,1.20515913 151.780568,2.4388461 151.981222,2.92816451" id="Fill-188" fill="#0572B6" mask="url(#mask-4)"></path>
                    <path d="M153.48556,2.43903502 C153.162249,2.78225064 152.767232,2.92835344 152.566578,2.72431333 C152.365924,2.52027322 152.479145,2.1216393 152.767232,1.77842368 C153.055318,1.43520806 153.48556,1.29225403 153.686214,1.49314538 C153.886868,1.69403672 153.799435,2.09581941 153.48556,2.43903502" id="Fill-189" fill="#0572B6" mask="url(#mask-4)"></path>
                    <path d="M152.252954,4.01644141 C151.770504,4.35839752 151.175461,4.5019813 150.589854,4.4182241 C150.320638,4.36469505 150.065889,4.2544882 149.842591,4.09390108 C149.988521,4.00699511 150.21811,3.89363949 150.56092,3.7217168 C151.046514,3.52082546 151.935933,3.86404108 152.252954,4.00699511" id="Fill-190" fill="#0572B6" mask="url(#mask-4)"></path>
                    <path d="M151.046263,3.53058664 C150.703453,3.44305091 150.444301,3.18422225 150.502799,3.01229957 C150.561297,2.84037688 150.874543,2.7238725 151.246917,2.81140823 C151.618661,2.89894395 151.852023,3.15462384 151.793526,3.3296953 C151.735028,3.50476675 151.392218,3.6149736 151.046263,3.53058664" id="Fill-191" fill="#0572B6" mask="url(#mask-4)"></path>
                    <path d="M151.334223,5.88202296 C150.991413,5.5583297 150.875047,5.13702466 151.046137,4.96510197 C151.217857,4.79380904 151.651244,4.878196 151.994054,5.19244296 C152.336864,5.50606017 152.453859,5.94059003 152.278995,6.11188296 C152.10413,6.28380565 151.677033,6.19941869 151.334223,5.88202296" id="Fill-192" fill="#0572B6" mask="url(#mask-4)"></path>
                    <path d="M153.310821,3.73141501 C153.398253,4.10359928 153.912783,4.67730466 153.339756,5.8530543 C153.1976,6.19941869 153.084378,6.50044083 152.968011,6.88584992 C152.939077,6.71455699 152.880579,6.42612992 152.796292,5.99537858 C152.70886,5.36688466 153.139102,4.18798624 153.310821,3.72826624" id="Fill-193" fill="#0572B6" mask="url(#mask-4)"></path>
                    <path d="M154.113122,6.65611587 C153.789812,6.85700722 153.485371,6.88597588 153.369004,6.68508453 C153.252638,6.48419319 153.427502,6.22536453 153.711814,6.03769801 C153.996755,5.84940173 154.34271,5.80720825 154.459077,5.98227971 C154.575444,6.15735116 154.401208,6.46844935 154.113122,6.6693407" id="Fill-194" fill="#0572B6" mask="url(#mask-4)"></path>
                    <path d="M152.453545,0.000188926028 C152.595701,0.285467229 153.25616,0.745187231 152.738486,1.4933343 C152.613942,1.69359589 152.505753,1.90393354 152.414546,2.12182822 C152.356677,2.00847261 152.243456,1.7786126 152.127089,1.4933343 C151.95537,1.0336143 152.29818,0.259017585 152.4504,0.000188926028" id="Fill-195" fill="#0572B6" mask="url(#mask-4)"></path>
                    <path d="M152.679988,9.81407741 C153.11023,9.64215473 154.229866,9.094899 155.031853,9.26682168 C155.462095,9.38332607 155.863403,9.49668168 156.293645,9.64215473 C156.092991,9.72654168 155.721247,9.72654168 155.232507,9.87264448 C154.543113,10.0993557 153.197662,9.92743303 152.679988,9.81407741" id="Fill-196" fill="#0572B6" mask="url(#mask-4)"></path>
                    <path d="M152.252954,10.4456571 C151.929643,10.1868285 151.075449,9.47394759 150.959082,8.78058906 C150.87165,8.32086906 150.842716,7.97765344 150.816297,7.7767621 C150.959082,7.89011772 151.217605,8.10045536 151.53148,8.37943613 C152.02022,8.81018747 152.220874,10.0149058 152.249809,10.4456571" id="Fill-197" fill="#0572B6" mask="url(#mask-4)"></path>
                    <path d="M153.598781,9.09502495 C153.340259,9.38345202 152.99682,9.49680763 152.825729,9.35385361 C152.65401,9.21152933 152.738297,8.86516495 152.99682,8.57988664 C153.255972,8.2952381 153.598781,8.17810396 153.770501,8.32105799 C153.941591,8.46338226 153.857304,8.80974665 153.598781,9.09502495" id="Fill-198" fill="#0572B6" mask="url(#mask-4)"></path>
                    <path d="M152.19477,7.17433997 C152.307992,7.40419997 152.842021,7.80598266 152.424359,8.40865669 C152.31554,8.56735455 152.228108,8.74053674 152.165836,8.92316524 C152.075259,8.74809378 151.997891,8.56609504 151.936248,8.37905828 C151.793463,8.03584266 152.078404,7.37523131 152.19477,7.17433997" id="Fill-199" fill="#0572B6" mask="url(#mask-4)"></path>
                    <path d="M155.74691,14.0020007 C155.775845,13.6298164 155.692186,12.4540668 156.322453,12.0812527 C156.586008,11.8778424 156.817484,11.6353873 157.008702,11.3620743 C156.996751,11.6605774 156.968446,11.9578211 156.924415,12.2531754 C156.836983,12.8552197 156.063931,13.7167224 155.74691,14.0020007" id="Fill-200" fill="#0572B6" mask="url(#mask-4)"></path>
                    <path d="M155.319813,13.1695926 C155.491533,13.4284213 155.520467,13.745817 155.374537,13.8591726 C155.229236,13.9725282 154.944295,13.8302039 154.773204,13.5713753 C154.601485,13.3119169 154.57255,12.9976699 154.714706,12.8843143 C154.857491,12.7709587 155.144949,12.9139127 155.319813,13.1695926" id="Fill-201" fill="#0572B6" mask="url(#mask-4)"></path>
                    <path d="M153.511412,14.118568 C153.799498,14.0020637 154.342962,13.4283583 155.002793,14.0020637 C155.180173,14.1607615 155.383972,14.2867122 155.604754,14.3742479 C155.461969,14.432815 155.261315,14.4907523 154.957504,14.6041079 C154.501472,14.7212421 153.783144,14.2804147 153.524621,14.118568" id="Fill-202" fill="#0572B6" mask="url(#mask-4)"></path>
                    <path d="M146.060989,10.9606695 C145.737678,10.7597781 145.601812,10.4455312 145.718179,10.2446398 C145.834546,10.0437485 146.174211,10.0991668 146.491231,10.3000581 C146.808252,10.5009495 146.950408,10.8183452 146.834041,11.0192365 C146.717674,11.2194981 146.374865,11.1905295 146.060989,10.9606695" id="Fill-203" fill="#0572B6" mask="url(#mask-4)"></path>
                    <path d="M147.063881,12.0230005 C147.063881,12.3466938 147.494123,13.0268275 146.721071,13.4871773 C146.52482,13.623204 146.342408,13.7774936 146.174462,13.9468973 L146.174462,13.2277188 C146.203397,12.7679988 146.821084,12.2238919 147.063881,12.0230005" id="Fill-204" fill="#0572B6" mask="url(#mask-4)"></path>
                    <path d="M143.738247,15.725132 C143.508659,15.9260233 143.194784,16.6710217 142.363234,16.3567747 C142.140564,16.2799448 141.909089,16.2320835 141.674469,16.2144504 C141.790835,16.1269147 141.961926,15.9839607 142.221078,15.7836991 C142.622385,15.495272 143.424372,15.6665649 143.738247,15.725132" id="Fill-205" fill="#0572B6" mask="url(#mask-4)"></path>
                    <path d="M157.982282,18.3842659 C157.639473,18.1833745 156.778988,18.1833745 156.293393,16.9200891 C156.148092,16.5768735 155.970083,16.2727026 155.805282,15.9162622 C155.976373,16.0006491 156.235524,16.1750908 156.607269,16.4055806 C157.180296,16.7777649 157.781629,17.9535145 157.982282,18.3842659" id="Fill-206" fill="#0572B6" mask="url(#mask-4)"></path>
                    <path d="M155.403974,17.4125563 C155.403974,17.0888631 155.520341,16.8098823 155.727285,16.8098823 C155.934229,16.8098823 156.070095,17.0661919 156.099658,17.3835877 C156.128593,17.7009834 155.983292,17.9856319 155.775719,17.9856319 C155.568775,17.9856319 155.403974,17.7268033 155.403974,17.4125563" id="Fill-207" fill="#0572B6" mask="url(#mask-4)"></path>
                    <path d="M155.53984,16.2141985 C155.426619,16.5378918 155.168096,17.5322724 154.5372,17.6752265 C154.26421,17.7570944 154.011348,17.8937509 153.793082,18.0763794 C153.850951,17.9340551 153.935238,17.7041951 154.116393,17.3609795 C154.317047,16.8716611 155.206466,16.38927 155.549276,16.2141985" id="Fill-208" fill="#0572B6" mask="url(#mask-4)"></path>
                </g>
            </g>
        </g>
    </g>
</svg>