<?xml version="1.0" encoding="UTF-8"?>
<svg width="110px" height="89px" viewBox="0 0 110 89" version="1.1" xmlns="http://www.w3.org/2000/svg" xmlns:xlink="http://www.w3.org/1999/xlink">
    <title>logo-part-upe13</title>
    <defs>
        <polygon id="path-1" points="0 0 8.39429178 0 8.39429178 11.751969 0 11.751969"></polygon>
        <polygon id="path-3" points="0 -7.10542736e-15 4.94909258 -7.10542736e-15 4.94909258 11.7975796 0 11.7975796"></polygon>
        <polygon id="path-5" points="-7.10542736e-15 -3.55271368e-15 2.558 -3.55271368e-15 2.558 3.9369 -7.10542736e-15 3.9369"></polygon>
        <polygon id="path-7" points="0 44.755 82.264 44.755 82.264 0 0 0"></polygon>
    </defs>
    <g id="Page-1" stroke="none" stroke-width="1" fill="none" fill-rule="evenodd">
        <g id="Desktop-HD" transform="translate(-770.000000, -1111.000000)">
            <g id="Group-45" transform="translate(783.000000, 1133.000000)">
                <path d="M53.7911,17.1703 L57.8501,17.1703 C58.0531,17.1703 58.2551,17.1703 58.4561,17.1573 C59.9331,17.0253 61.0601,15.7803 61.0441,14.2973 C61.0591,12.8533 59.9761,11.6333 58.5411,11.4783 C57.7691,11.4113 56.9921,11.4113 56.2201,11.4783 C54.9291,11.6023 53.9131,12.6363 53.8111,13.9293 C53.7441,14.9753 53.7911,16.0153 53.7911,17.1703 M24.9301,14.7813 L30.9031,14.7813 C31.2331,15.1173 31.1021,15.5103 31.1041,15.8643 C31.1151,17.9923 31.1041,20.1213 31.1041,22.2493 C31.1151,24.5383 32.6641,26.1373 34.8621,26.1523 C37.0591,26.1683 38.6511,24.6233 38.6801,22.3193 C38.7201,19.6443 38.7131,16.9813 38.6801,14.3133 C38.6601,12.4943 37.5651,11.4553 35.7331,11.4513 C31.5121,11.4403 27.2901,11.4403 23.0671,11.4513 C21.7921,11.4513 21.5841,11.6563 21.5841,12.9133 L21.5841,22.9433 C21.5711,28.3703 17.5321,32.4083 12.0941,32.4023 C10.4781,32.4023 8.8531,32.5673 7.2491,32.1993 C3.0321,31.2733 0.0241,27.5433 0.0141,23.2263 C-0.0129,17.1103 0.0141,10.9963 0.0141,4.8823 C0.0141,4.5913 -0.0749,4.2723 0.1971,4.0243 C0.5781,3.9243 0.8251,4.2073 1.1061,4.3683 C2.5751,5.1973 4.0191,6.0733 5.5061,6.8683 C6.1011,7.1853 6.2771,7.5733 6.2721,8.2283 C6.2431,12.9913 6.2551,17.7543 6.2571,22.5173 C6.2571,25.0363 7.3711,26.1483 9.9121,26.1523 C10.6541,26.1523 11.3991,26.1663 12.1411,26.1523 C14.0671,26.1103 15.3011,24.8933 15.3101,22.9603 C15.3301,18.6703 15.3101,14.3803 15.3101,10.0913 C15.3101,7.0153 17.1451,5.1883 20.2291,5.1883 L35.7351,5.1883 C41.0841,5.1883 44.9251,9.0283 44.9601,14.3733 L44.9601,17.1213 C45.7691,17.1973 46.5831,17.2013 47.3921,17.1323 C47.5531,16.2813 47.4611,15.4403 47.4681,14.6073 C47.5061,9.0353 51.3571,5.2013 56.9161,5.1813 C58.5091,5.1813 60.0831,5.2103 61.5961,5.8233 C65.6671,7.4843 67.9941,11.7923 67.1511,16.1073 C66.3391,20.3493 62.6371,23.4223 58.3181,23.4373 C56.8361,23.4513 55.3511,23.4373 53.8601,23.4373 C53.9231,24.9243 54.9751,26.1123 56.4701,26.1993 C57.8991,26.2813 59.3851,26.5223 60.7291,25.7203 C60.9321,25.5873 61.1951,25.5873 61.3981,25.7203 C63.0861,26.7093 64.7721,27.7003 66.4551,28.6913 C66.5041,28.7203 66.5201,28.8043 66.5961,28.9493 C65.3561,30.6423 63.5341,31.8163 61.4801,32.2463 C59.2591,32.7223 56.9621,32.7263 54.7381,32.2593 C50.7381,31.4103 47.8871,28.0803 47.5031,24.0123 C47.4881,23.8503 47.5371,23.6713 47.3451,23.4893 L44.9671,23.4893 C44.4901,26.7583 42.9231,29.3333 40.0771,31.0293 C37.2311,32.7253 34.2641,32.7963 31.0501,31.7383 L31.0501,43.9323 C30.6491,44.1213 30.4601,43.9323 30.2681,43.8253 C28.6571,42.9043 27.0521,41.9683 25.4401,41.0503 C25.0681,40.8383 24.8251,40.6243 24.8251,40.1223 C24.8431,31.8133 24.8491,23.5043 24.8431,15.1933 C24.8611,15.0543 24.8901,14.9163 24.9301,14.7813" id="Fill-1" fill="#164286"></path>
                <g id="Group-5" transform="translate(73.869708, 0.157600)">
                    <mask id="mask-2" fill="white">
                        <use xlink:href="#path-1"></use>
                    </mask>
                    <g id="Clip-4"></g>
                    <path d="M5.60419178,4.694 C5.63319178,4.73 5.67119178,4.759 5.71319178,4.779 C7.81119178,5.447 8.46619178,6.292 8.38819178,8.24 C8.31619178,9.981 7.18919178,11.287 5.33219178,11.632 C3.67819178,11.94 2.10319178,11.67 0.716191781,10.647 C-0.029808219,10.097 -0.192808219,9.43 0.226191781,8.826 C0.672191781,8.173 1.35819178,8.104 2.15619178,8.69 C2.74819178,9.147 3.46319178,9.414 4.20919178,9.457 C5.12719178,9.499 5.81419178,8.967 5.90019178,8.198 C5.98719178,7.429 5.45519178,6.816 4.49419178,6.66 C4.13119178,6.602 3.75419178,6.62 3.38019178,6.591 C2.87819178,6.555 2.45919178,6.368 2.26519178,5.866 C2.07919178,5.411 2.21319178,4.888 2.59519178,4.578 C3.34219178,3.863 4.11319178,3.169 4.87519178,2.47 L4.70819178,2.202 L1.72419178,2.202 C0.848191781,2.191 0.311191781,1.756 0.319191781,1.088 C0.328191781,0.419 0.868191781,0.007 1.75319178,0 L6.81619178,0 C7.42519178,0 7.98719178,0.105 8.25219178,0.724 C8.51719178,1.344 8.25219178,1.839 7.84819178,2.285 C7.11719178,3.094 6.37719178,3.867 5.60419178,4.694" id="Fill-3" fill="#15AED2" mask="url(#mask-2)"></path>
                </g>
                <g id="Group-8" transform="translate(67.373087, 0.000000)">
                    <mask id="mask-4" fill="white">
                        <use xlink:href="#path-3"></use>
                    </mask>
                    <g id="Clip-7"></g>
                    <path d="M2.44331268,2.6116 C2.04831268,2.7266 1.64631268,2.8136 1.23931268,2.8726 C0.712312677,2.9536 0.208312677,2.6286 0.0653126766,2.1146 C-0.115687323,1.5286 0.0783126766,1.0006 0.662312677,0.7776 C1.56731268,0.4016 2.51731268,0.1436 3.48831268,0.0106 C4.34231268,-0.0834 4.92431268,0.4276 4.93031268,1.3126 C4.95731268,4.3496 4.95331268,7.3876 4.93031268,10.4256 C4.93031268,11.2906 4.37831268,11.8236 3.64031268,11.7966 C2.90231268,11.7696 2.45031268,11.2346 2.44331268,10.3326 C2.43231268,7.9696 2.44331268,5.6076 2.44331268,3.2446 L2.44331268,2.6116 Z" id="Fill-6" fill="#15AED2" mask="url(#mask-4)"></path>
                </g>
                <path d="M53.7911,17.1703 C53.7911,16.0153 53.7441,14.9753 53.8021,13.9403 C53.9041,12.6473 54.9201,11.6133 56.2121,11.4893 C56.9831,11.4223 57.7601,11.4223 58.5321,11.4893 C59.9711,11.6403 61.0581,12.8613 61.0441,14.3083 C61.0601,15.7913 59.9331,17.0363 58.4561,17.1683 C58.2551,17.1863 58.0531,17.1813 57.8501,17.1813 L53.7911,17.1703 Z" id="Fill-9" fill="#FDFDFE"></path>
                <polygon id="Fill-11" fill="#164286" points="35.0654 42.9402 37.0084 42.9402 37.0084 43.2782 34.6964 43.2782 34.6964 39.6492 36.9464 39.6492 36.9464 39.9872 35.0654 39.9872 35.0654 41.2232 36.8234 41.2232 36.8234 41.5612 35.0654 41.5612"></polygon>
                <path d="M37.9358,40.8794 C37.9428,40.9444 37.9468,41.0084 37.9488,41.0714 C37.9508,41.1354 37.9508,41.1994 37.9508,41.2644 L37.9618,41.2644 C37.9988,41.1994 38.0468,41.1394 38.1048,41.0844 C38.1628,41.0294 38.2278,40.9834 38.2998,40.9434 C38.3718,40.9044 38.4478,40.8734 38.5278,40.8514 C38.6078,40.8294 38.6878,40.8184 38.7668,40.8184 C39.0738,40.8184 39.3008,40.8994 39.4478,41.0614 C39.5948,41.2234 39.6688,41.4554 39.6688,41.7564 L39.6688,43.2784 L39.3298,43.2784 L39.3298,41.9514 C39.3298,41.6844 39.2838,41.4804 39.1918,41.3384 C39.0998,41.1964 38.9288,41.1254 38.6788,41.1254 C38.6618,41.1254 38.6138,41.1324 38.5358,41.1464 C38.4568,41.1594 38.3738,41.1974 38.2868,41.2584 C38.1998,41.3204 38.1218,41.4124 38.0538,41.5354 C37.9858,41.6584 37.9508,41.8294 37.9508,42.0484 L37.9508,43.2784 L37.6128,43.2784 L37.6128,41.4074 C37.6128,41.3424 37.6098,41.2604 37.6048,41.1614 C37.5998,41.0624 37.5938,40.9684 37.5868,40.8794 L37.9358,40.8794 Z" id="Fill-13" fill="#164286"></path>
                <path d="M41.7038,41.1871 L41.0118,41.1871 L41.0118,42.6021 C41.0118,42.6911 41.0198,42.7631 41.0378,42.8201 C41.0548,42.8761 41.0788,42.9201 41.1088,42.9511 C41.1398,42.9811 41.1768,43.0031 41.2198,43.0151 C41.2618,43.0261 41.3088,43.0331 41.3608,43.0331 C41.4188,43.0331 41.4778,43.0241 41.5398,43.0071 C41.6008,42.9901 41.6578,42.9681 41.7088,42.9401 L41.7248,43.2531 C41.5978,43.3111 41.4458,43.3401 41.2678,43.3401 C41.2028,43.3401 41.1358,43.3311 41.0658,43.3141 C40.9958,43.2971 40.9308,43.2651 40.8728,43.2171 C40.8148,43.1691 40.7668,43.1041 40.7298,43.0221 C40.6918,42.9401 40.6738,42.8331 40.6738,42.6991 L40.6738,41.1871 L40.1658,41.1871 L40.1658,40.8791 L40.6738,40.8791 L40.6738,40.2031 L41.0118,40.2031 L41.0118,40.8791 L41.7038,40.8791 L41.7038,41.1871 Z" id="Fill-15" fill="#164286"></path>
                <path d="M42.2005,41.628 C42.2005,41.522 42.1985,41.414 42.1925,41.305 C42.1875,41.196 42.1835,41.054 42.1805,40.879 L42.5135,40.879 L42.5135,41.325 L42.5235,41.325 C42.5475,41.261 42.5815,41.198 42.6255,41.138 C42.6705,41.079 42.7245,41.025 42.7875,40.977 C42.8505,40.929 42.9245,40.891 43.0075,40.862 C43.0915,40.832 43.1865,40.818 43.2925,40.818 C43.3885,40.818 43.4715,40.828 43.5435,40.849 L43.4775,41.182 C43.4325,41.165 43.3675,41.156 43.2825,41.156 C43.1525,41.156 43.0415,41.181 42.9495,41.231 C42.8565,41.28 42.7795,41.343 42.7185,41.42 C42.6565,41.497 42.6115,41.58 42.5825,41.669 C42.5535,41.758 42.5385,41.843 42.5385,41.925 L42.5385,43.279 L42.2005,43.279 L42.2005,41.628 Z" id="Fill-17" fill="#164286"></path>
                <path d="M45.6397,41.8945 C45.6397,41.6655 45.5717,41.4805 45.4347,41.3385 C45.2977,41.1965 45.1067,41.1255 44.8607,41.1255 C44.7517,41.1255 44.6457,41.1465 44.5427,41.1895 C44.4407,41.2325 44.3507,41.2895 44.2737,41.3615 C44.1967,41.4335 44.1347,41.5155 44.0887,41.6075 C44.0427,41.6995 44.0197,41.7955 44.0197,41.8945 L45.6397,41.8945 Z M44.0097,42.1715 C44.0197,42.2905 44.0487,42.4035 44.0967,42.5095 C44.1447,42.6155 44.2077,42.7065 44.2867,42.7835 C44.3647,42.8605 44.4557,42.9215 44.5587,42.9655 C44.6607,43.0105 44.7717,43.0325 44.8917,43.0325 C45.0727,43.0325 45.2287,42.9905 45.3607,42.9065 C45.4917,42.8235 45.5917,42.7265 45.6607,42.6175 L45.9217,42.8325 C45.7787,43.0135 45.6197,43.1435 45.4477,43.2225 C45.2747,43.3005 45.0897,43.3395 44.8917,43.3395 C44.7137,43.3395 44.5487,43.3085 44.3967,43.2455 C44.2447,43.1825 44.1137,43.0935 44.0047,42.9815 C43.8947,42.8685 43.8087,42.7355 43.7457,42.5815 C43.6827,42.4275 43.6507,42.2605 43.6507,42.0795 C43.6507,41.8975 43.6817,41.7305 43.7427,41.5765 C43.8047,41.4225 43.8897,41.2895 43.9997,41.1765 C44.1087,41.0635 44.2367,40.9765 44.3837,40.9125 C44.5307,40.8495 44.6897,40.8175 44.8607,40.8175 C45.0417,40.8175 45.2037,40.8505 45.3477,40.9155 C45.4907,40.9805 45.6117,41.0665 45.7087,41.1745 C45.8067,41.2815 45.8807,41.4085 45.9317,41.5535 C45.9827,41.6985 46.0087,41.8535 46.0087,42.0175 L46.0087,42.1715 L44.0097,42.1715 Z" id="Fill-19" fill="#164286"></path>
                <g id="Group-23" transform="translate(46.624100, 40.818100)">
                    <mask id="mask-6" fill="white">
                        <use xlink:href="#path-5"></use>
                    </mask>
                    <g id="Clip-22"></g>
                    <path d="M2.189,1.261 C2.189,1.128 2.168,1.003 2.125,0.887 C2.082,0.77 2.021,0.67 1.943,0.584 C1.864,0.499 1.769,0.431 1.658,0.382 C1.547,0.332 1.422,0.308 1.282,0.308 C1.141,0.308 1.013,0.332 0.897,0.382 C0.781,0.431 0.68,0.499 0.595,0.584 C0.509,0.67 0.443,0.77 0.395,0.887 C0.347,1.003 0.323,1.128 0.323,1.261 C0.323,1.394 0.347,1.519 0.395,1.635 C0.443,1.751 0.509,1.852 0.595,1.938 C0.68,2.023 0.781,2.091 0.897,2.14 C1.013,2.19 1.141,2.214 1.282,2.214 C1.422,2.214 1.547,2.19 1.658,2.14 C1.769,2.091 1.864,2.023 1.943,1.938 C2.021,1.852 2.082,1.751 2.125,1.635 C2.168,1.519 2.189,1.394 2.189,1.261 L2.189,1.261 Z M-7.10542736e-15,0.061 L0.338,0.061 L0.338,0.461 L0.349,0.461 C0.403,0.379 0.468,0.309 0.543,0.251 C0.619,0.193 0.697,0.145 0.779,0.107 C0.861,0.07 0.946,0.043 1.033,0.025 C1.12,0.008 1.203,-3.55271368e-15 1.282,-3.55271368e-15 C1.469,-3.55271368e-15 1.641,0.032 1.797,0.095 C1.952,0.158 2.086,0.246 2.199,0.359 C2.312,0.472 2.4,0.605 2.463,0.759 C2.526,0.912 2.558,1.08 2.558,1.261 C2.558,1.442 2.526,1.61 2.463,1.763 C2.4,1.917 2.312,2.05 2.199,2.163 C2.086,2.276 1.952,2.364 1.797,2.427 C1.641,2.49 1.469,2.522 1.282,2.522 C1.203,2.522 1.12,2.513 1.033,2.496 C0.946,2.479 0.861,2.452 0.779,2.414 C0.697,2.377 0.619,2.329 0.543,2.271 C0.468,2.213 0.403,2.143 0.349,2.061 L0.338,2.061 L0.338,3.937 L-7.10542736e-15,3.937 L-7.10542736e-15,0.061 Z" id="Fill-21" fill="#164286" mask="url(#mask-6)"></path>
                </g>
                <path d="M49.7941,41.628 C49.7941,41.522 49.7921,41.414 49.7861,41.305 C49.7811,41.196 49.7771,41.054 49.7741,40.879 L50.1071,40.879 L50.1071,41.325 L50.1171,41.325 C50.1411,41.261 50.1751,41.198 50.2191,41.138 C50.2641,41.079 50.3181,41.025 50.3811,40.977 C50.4441,40.929 50.5181,40.891 50.6011,40.862 C50.6851,40.832 50.7801,40.818 50.8861,40.818 C50.9821,40.818 51.0651,40.828 51.1371,40.849 L51.0711,41.182 C51.0261,41.165 50.9611,41.156 50.8761,41.156 C50.7461,41.156 50.6351,41.181 50.5431,41.231 C50.4501,41.28 50.3731,41.343 50.3121,41.42 C50.2501,41.497 50.2051,41.58 50.1761,41.669 C50.1471,41.758 50.1321,41.843 50.1321,41.925 L50.1321,43.279 L49.7941,43.279 L49.7941,41.628 Z" id="Fill-24" fill="#164286"></path>
                <path d="M53.2333,41.8945 C53.2333,41.6655 53.1653,41.4805 53.0283,41.3385 C52.8913,41.1965 52.7003,41.1255 52.4543,41.1255 C52.3453,41.1255 52.2393,41.1465 52.1363,41.1895 C52.0343,41.2325 51.9443,41.2895 51.8673,41.3615 C51.7903,41.4335 51.7283,41.5155 51.6823,41.6075 C51.6363,41.6995 51.6133,41.7955 51.6133,41.8945 L53.2333,41.8945 Z M51.6033,42.1715 C51.6133,42.2905 51.6423,42.4035 51.6903,42.5095 C51.7383,42.6155 51.8013,42.7065 51.8803,42.7835 C51.9583,42.8605 52.0493,42.9215 52.1523,42.9655 C52.2543,43.0105 52.3653,43.0325 52.4853,43.0325 C52.6663,43.0325 52.8223,42.9905 52.9543,42.9065 C53.0853,42.8235 53.1853,42.7265 53.2543,42.6175 L53.5153,42.8325 C53.3723,43.0135 53.2133,43.1435 53.0413,43.2225 C52.8683,43.3005 52.6833,43.3395 52.4853,43.3395 C52.3073,43.3395 52.1423,43.3085 51.9903,43.2455 C51.8383,43.1825 51.7073,43.0935 51.5983,42.9815 C51.4883,42.8685 51.4023,42.7355 51.3393,42.5815 C51.2763,42.4275 51.2443,42.2605 51.2443,42.0795 C51.2443,41.8975 51.2753,41.7305 51.3363,41.5765 C51.3983,41.4225 51.4833,41.2895 51.5933,41.1765 C51.7023,41.0635 51.8303,40.9765 51.9773,40.9125 C52.1243,40.8495 52.2833,40.8175 52.4543,40.8175 C52.6353,40.8175 52.7973,40.8505 52.9413,40.9155 C53.0843,40.9805 53.2053,41.0665 53.3023,41.1745 C53.4003,41.2815 53.4743,41.4085 53.5253,41.5535 C53.5763,41.6985 53.6023,41.8535 53.6023,42.0175 L53.6023,42.1715 L51.6033,42.1715 Z" id="Fill-26" fill="#164286"></path>
                <path d="M54.5406,40.8794 C54.5476,40.9444 54.5516,41.0084 54.5536,41.0714 C54.5556,41.1354 54.5556,41.1994 54.5556,41.2644 L54.5666,41.2644 C54.6036,41.1994 54.6516,41.1394 54.7096,41.0844 C54.7676,41.0294 54.8326,40.9834 54.9046,40.9434 C54.9766,40.9044 55.0526,40.8734 55.1326,40.8514 C55.2126,40.8294 55.2926,40.8184 55.3716,40.8184 C55.6786,40.8184 55.9056,40.8994 56.0526,41.0614 C56.1996,41.2234 56.2736,41.4554 56.2736,41.7564 L56.2736,43.2784 L55.9346,43.2784 L55.9346,41.9514 C55.9346,41.6844 55.8886,41.4804 55.7966,41.3384 C55.7046,41.1964 55.5336,41.1254 55.2836,41.1254 C55.2666,41.1254 55.2186,41.1324 55.1406,41.1464 C55.0616,41.1594 54.9786,41.1974 54.8916,41.2584 C54.8046,41.3204 54.7266,41.4124 54.6586,41.5354 C54.5906,41.6584 54.5556,41.8294 54.5556,42.0484 L54.5556,43.2784 L54.2176,43.2784 L54.2176,41.4074 C54.2176,41.3424 54.2146,41.2604 54.2096,41.1614 C54.2046,41.0624 54.1986,40.9684 54.1916,40.8794 L54.5406,40.8794 Z" id="Fill-28" fill="#164286"></path>
                <path d="M57.2729,42.0791 C57.2729,42.2121 57.2939,42.3371 57.3369,42.4531 C57.3799,42.5691 57.4399,42.6701 57.5189,42.7561 C57.5979,42.8411 57.6919,42.9091 57.8029,42.9581 C57.9139,43.0081 58.0399,43.0321 58.1799,43.0321 C58.3169,43.0321 58.4439,43.0081 58.5619,42.9581 C58.6799,42.9091 58.7819,42.8411 58.8669,42.7561 C58.9529,42.6701 59.0189,42.5691 59.0669,42.4531 C59.1149,42.3371 59.1389,42.2121 59.1389,42.0791 C59.1389,41.9461 59.1149,41.8211 59.0669,41.7051 C59.0189,41.5881 58.9529,41.4881 58.8669,41.4021 C58.7819,41.3171 58.6799,41.2491 58.5619,41.2001 C58.4439,41.1501 58.3169,41.1261 58.1799,41.1261 C58.0399,41.1261 57.9139,41.1501 57.8029,41.2001 C57.6919,41.2491 57.5979,41.3171 57.5189,41.4021 C57.4399,41.4881 57.3799,41.5881 57.3369,41.7051 C57.2939,41.8211 57.2729,41.9461 57.2729,42.0791 L57.2729,42.0791 Z M59.4619,43.2781 L59.1239,43.2781 L59.1239,42.8791 L59.1129,42.8791 C59.0589,42.9611 58.9939,43.0311 58.9189,43.0891 C58.8429,43.1471 58.7649,43.1951 58.6829,43.2321 C58.6009,43.2701 58.5159,43.2971 58.4289,43.3141 C58.3419,43.3311 58.2589,43.3401 58.1799,43.3401 C57.9919,43.3401 57.8209,43.3081 57.6649,43.2451 C57.5099,43.1821 57.3759,43.0941 57.2629,42.9811 C57.1499,42.8681 57.0619,42.7351 56.9989,42.5811 C56.9349,42.4281 56.9039,42.2601 56.9039,42.0791 C56.9039,41.8981 56.9349,41.7301 56.9989,41.5771 C57.0619,41.4231 57.1499,41.2901 57.2629,41.1771 C57.3759,41.0641 57.5099,40.9761 57.6649,40.9131 C57.8209,40.8501 57.9919,40.8181 58.1799,40.8181 C58.2589,40.8181 58.3419,40.8261 58.4289,40.8431 C58.5159,40.8611 58.6009,40.8881 58.6829,40.9251 C58.7649,40.9631 58.8429,41.0111 58.9189,41.0691 C58.9939,41.1271 59.0589,41.1971 59.1129,41.2791 L59.1239,41.2791 L59.1239,39.4031 L59.4619,39.4031 L59.4619,43.2781 Z" id="Fill-30" fill="#164286"></path>
                <path d="M60.2361,41.628 C60.2361,41.522 60.2341,41.414 60.2281,41.305 C60.2231,41.196 60.2191,41.054 60.2161,40.879 L60.5491,40.879 L60.5491,41.325 L60.5591,41.325 C60.5831,41.261 60.6171,41.198 60.6611,41.138 C60.7061,41.079 60.7601,41.025 60.8231,40.977 C60.8861,40.929 60.9601,40.891 61.0431,40.862 C61.1271,40.832 61.2221,40.818 61.3281,40.818 C61.4241,40.818 61.5071,40.828 61.5791,40.849 L61.5131,41.182 C61.4681,41.165 61.4031,41.156 61.3181,41.156 C61.1881,41.156 61.0771,41.181 60.9851,41.231 C60.8921,41.28 60.8151,41.343 60.7541,41.42 C60.6921,41.497 60.6471,41.58 60.6181,41.669 C60.5891,41.758 60.5741,41.843 60.5741,41.925 L60.5741,43.279 L60.2361,43.279 L60.2361,41.628 Z" id="Fill-32" fill="#164286"></path>
                <path d="M63.6752,41.8945 C63.6752,41.6655 63.6072,41.4805 63.4702,41.3385 C63.3332,41.1965 63.1422,41.1255 62.8962,41.1255 C62.7872,41.1255 62.6812,41.1465 62.5782,41.1895 C62.4762,41.2325 62.3862,41.2895 62.3092,41.3615 C62.2322,41.4335 62.1702,41.5155 62.1242,41.6075 C62.0782,41.6995 62.0552,41.7955 62.0552,41.8945 L63.6752,41.8945 Z M62.0452,42.1715 C62.0552,42.2905 62.0842,42.4035 62.1322,42.5095 C62.1802,42.6155 62.2432,42.7065 62.3222,42.7835 C62.4002,42.8605 62.4912,42.9215 62.5942,42.9655 C62.6962,43.0105 62.8072,43.0325 62.9272,43.0325 C63.1082,43.0325 63.2642,42.9905 63.3962,42.9065 C63.5272,42.8235 63.6272,42.7265 63.6962,42.6175 L63.9572,42.8325 C63.8142,43.0135 63.6552,43.1435 63.4832,43.2225 C63.3102,43.3005 63.1252,43.3395 62.9272,43.3395 C62.7492,43.3395 62.5842,43.3085 62.4322,43.2455 C62.2802,43.1825 62.1492,43.0935 62.0402,42.9815 C61.9302,42.8685 61.8442,42.7355 61.7812,42.5815 C61.7182,42.4275 61.6862,42.2605 61.6862,42.0795 C61.6862,41.8975 61.7172,41.7305 61.7782,41.5765 C61.8402,41.4225 61.9252,41.2895 62.0352,41.1765 C62.1442,41.0635 62.2722,40.9765 62.4192,40.9125 C62.5662,40.8495 62.7252,40.8175 62.8962,40.8175 C63.0772,40.8175 63.2392,40.8505 63.3832,40.9155 C63.5262,40.9805 63.6472,41.0665 63.7442,41.1745 C63.8422,41.2815 63.9162,41.4085 63.9672,41.5535 C64.0182,41.6985 64.0442,41.8535 64.0442,42.0175 L64.0442,42.1715 L62.0452,42.1715 Z" id="Fill-34" fill="#164286"></path>
                <mask id="mask-8" fill="white">
                    <use xlink:href="#path-7"></use>
                </mask>
                <g id="Clip-37"></g>
                <polygon id="Fill-36" fill="#164286" mask="url(#mask-8)" points="66.162 43.279 66.5 43.279 66.5 39.404 66.162 39.404"></polygon>
                <polygon id="Fill-38" fill="#164286" mask="url(#mask-8)" points="67.5714 40.8538 67.2334 40.8538 67.5764 39.6488 67.9914 39.6488"></polygon>
                <path d="M70.0113,42.0842 C69.9263,42.0842 69.8193,42.0882 69.6913,42.0972 C69.5633,42.1052 69.4393,42.1262 69.3223,42.1582 C69.2043,42.1912 69.1033,42.2412 69.0193,42.3092 C68.9353,42.3782 68.8943,42.4722 68.8943,42.5912 C68.8943,42.6702 68.9103,42.7382 68.9423,42.7942 C68.9753,42.8502 69.0183,42.8962 69.0733,42.9322 C69.1283,42.9682 69.1883,42.9942 69.2553,43.0092 C69.3223,43.0252 69.3893,43.0322 69.4583,43.0322 C69.5803,43.0322 69.6873,43.0122 69.7783,42.9712 C69.8683,42.9302 69.9443,42.8742 70.0063,42.8042 C70.0683,42.7342 70.1133,42.6522 70.1423,42.5582 C70.1713,42.4642 70.1853,42.3642 70.1853,42.2582 L70.1853,42.0842 L70.0113,42.0842 Z M70.1853,41.8072 L70.1853,41.7462 C70.1853,41.3322 69.9803,41.1252 69.5703,41.1252 C69.2903,41.1252 69.0463,41.2192 68.8373,41.4072 L68.6323,41.1662 C68.8583,40.9342 69.1963,40.8182 69.6473,40.8182 C69.7633,40.8182 69.8753,40.8352 69.9833,40.8692 C70.0913,40.9032 70.1843,40.9552 70.2623,41.0252 C70.3413,41.0952 70.4043,41.1832 70.4523,41.2892 C70.5003,41.3952 70.5243,41.5222 70.5243,41.6692 L70.5243,42.7402 C70.5243,42.8322 70.5283,42.9292 70.5373,43.0302 C70.5453,43.1312 70.5543,43.2142 70.5653,43.2782 L70.2373,43.2782 C70.2263,43.2202 70.2193,43.1572 70.2143,43.0892 C70.2083,43.0202 70.2063,42.9542 70.2063,42.8892 L70.1963,42.8892 C70.0963,43.0502 69.9803,43.1652 69.8453,43.2352 C69.7093,43.3052 69.5453,43.3402 69.3503,43.3402 C69.2443,43.3402 69.1413,43.3252 69.0423,43.2962 C68.9433,43.2672 68.8553,43.2232 68.7783,43.1632 C68.7013,43.1032 68.6403,43.0302 68.5943,42.9432 C68.5483,42.8562 68.5243,42.7542 68.5243,42.6382 C68.5243,42.4432 68.5753,42.2902 68.6763,42.1792 C68.7763,42.0682 68.9033,41.9852 69.0553,41.9302 C69.2073,41.8762 69.3703,41.8412 69.5423,41.8282 C69.7143,41.8142 69.8733,41.8072 70.0163,41.8072 L70.1853,41.8072 Z" id="Fill-39" fill="#164286" mask="url(#mask-8)"></path>
                <polygon id="Fill-40" fill="#164286" mask="url(#mask-8)" points="72.3643 43.2786 71.9853 43.2786 71.0113 40.8796 71.4113 40.8796 72.1793 42.8996 72.1903 42.8996 72.9533 40.8796 73.3383 40.8796"></polygon>
                <path d="M75.6451,41.8945 C75.6451,41.6655 75.5771,41.4805 75.4401,41.3385 C75.3031,41.1965 75.1121,41.1255 74.8661,41.1255 C74.7571,41.1255 74.6511,41.1465 74.5481,41.1895 C74.4461,41.2325 74.3561,41.2895 74.2791,41.3615 C74.2021,41.4335 74.1401,41.5155 74.0941,41.6075 C74.0481,41.6995 74.0251,41.7955 74.0251,41.8945 L75.6451,41.8945 Z M74.0151,42.1715 C74.0251,42.2905 74.0541,42.4035 74.1021,42.5095 C74.1501,42.6155 74.2131,42.7065 74.2921,42.7835 C74.3701,42.8605 74.4611,42.9215 74.5641,42.9655 C74.6661,43.0105 74.7771,43.0325 74.8971,43.0325 C75.0781,43.0325 75.2341,42.9905 75.3661,42.9065 C75.4971,42.8235 75.5971,42.7265 75.6661,42.6175 L75.9271,42.8325 C75.7841,43.0135 75.6251,43.1435 75.4531,43.2225 C75.2801,43.3005 75.0951,43.3395 74.8971,43.3395 C74.7191,43.3395 74.5541,43.3085 74.4021,43.2455 C74.2501,43.1825 74.1191,43.0935 74.0101,42.9815 C73.9001,42.8685 73.8141,42.7355 73.7511,42.5815 C73.6881,42.4275 73.6561,42.2605 73.6561,42.0795 C73.6561,41.8975 73.6871,41.7305 73.7481,41.5765 C73.8101,41.4225 73.8951,41.2895 74.0051,41.1765 C74.1141,41.0635 74.2421,40.9765 74.3891,40.9125 C74.5361,40.8495 74.6951,40.8175 74.8661,40.8175 C75.0471,40.8175 75.2091,40.8505 75.3531,40.9155 C75.4961,40.9805 75.6171,41.0665 75.7141,41.1745 C75.8121,41.2815 75.8861,41.4085 75.9371,41.5535 C75.9881,41.6985 76.0141,41.8535 76.0141,42.0175 L76.0141,42.1715 L74.0151,42.1715 Z" id="Fill-41" fill="#164286" mask="url(#mask-8)"></path>
                <path d="M76.9522,40.8794 C76.9592,40.9444 76.9632,41.0084 76.9652,41.0714 C76.9672,41.1354 76.9672,41.1994 76.9672,41.2644 L76.9782,41.2644 C77.0152,41.1994 77.0632,41.1394 77.1212,41.0844 C77.1792,41.0294 77.2442,40.9834 77.3162,40.9434 C77.3882,40.9044 77.4642,40.8734 77.5442,40.8514 C77.6242,40.8294 77.7042,40.8184 77.7832,40.8184 C78.0902,40.8184 78.3172,40.8994 78.4642,41.0614 C78.6112,41.2234 78.6852,41.4554 78.6852,41.7564 L78.6852,43.2784 L78.3462,43.2784 L78.3462,41.9514 C78.3462,41.6844 78.3002,41.4804 78.2082,41.3384 C78.1162,41.1964 77.9452,41.1254 77.6952,41.1254 C77.6782,41.1254 77.6302,41.1324 77.5522,41.1464 C77.4732,41.1594 77.3902,41.1974 77.3032,41.2584 C77.2162,41.3204 77.1382,41.4124 77.0702,41.5354 C77.0022,41.6584 76.9672,41.8294 76.9672,42.0484 L76.9672,43.2784 L76.6292,43.2784 L76.6292,41.4074 C76.6292,41.3424 76.6262,41.2604 76.6212,41.1614 C76.6162,41.0624 76.6102,40.9684 76.6032,40.8794 L76.9522,40.8794 Z" id="Fill-42" fill="#164286" mask="url(#mask-8)"></path>
                <path d="M79.557,43.279 L79.895,43.279 L79.895,40.88 L79.557,40.88 L79.557,43.279 Z M79.972,39.957 C79.972,40.028 79.946,40.087 79.895,40.134 C79.844,40.18 79.787,40.203 79.726,40.203 C79.664,40.203 79.608,40.18 79.557,40.134 C79.505,40.087 79.48,40.028 79.48,39.957 C79.48,39.885 79.505,39.826 79.557,39.78 C79.608,39.734 79.664,39.711 79.726,39.711 C79.787,39.711 79.844,39.734 79.895,39.78 C79.946,39.826 79.972,39.885 79.972,39.957 L79.972,39.957 Z" id="Fill-43" fill="#164286" mask="url(#mask-8)"></path>
                <path d="M80.7456,41.628 C80.7456,41.522 80.7436,41.414 80.7376,41.305 C80.7326,41.196 80.7286,41.054 80.7256,40.879 L81.0586,40.879 L81.0586,41.325 L81.0686,41.325 C81.0926,41.261 81.1266,41.198 81.1706,41.138 C81.2156,41.079 81.2696,41.025 81.3326,40.977 C81.3956,40.929 81.4696,40.891 81.5526,40.862 C81.6366,40.832 81.7316,40.818 81.8376,40.818 C81.9336,40.818 82.0166,40.828 82.0886,40.849 L82.0226,41.182 C81.9776,41.165 81.9126,41.156 81.8276,41.156 C81.6976,41.156 81.5866,41.181 81.4946,41.231 C81.4016,41.28 81.3246,41.343 81.2636,41.42 C81.2016,41.497 81.1566,41.58 81.1276,41.669 C81.0986,41.758 81.0836,41.843 81.0836,41.925 L81.0836,43.279 L80.7456,43.279 L80.7456,41.628 Z" id="Fill-44" fill="#164286" mask="url(#mask-8)"></path>
            </g>
        </g>
    </g>
</svg>