<?xml version="1.0" encoding="UTF-8"?>
<svg width="165px" height="52px" viewBox="0 0 165 52" version="1.1" xmlns="http://www.w3.org/2000/svg" xmlns:xlink="http://www.w3.org/1999/xlink">
    <title>logo-part-richardson</title>
    <g id="Page-1" stroke="none" stroke-width="1" fill="none" fill-rule="evenodd">
        <g id="Desktop-HD" transform="translate(-838.000000, -901.000000)">
            <g id="Group-27" transform="translate(839.000000, 914.000000)">
                <polygon id="Fill-1" fill="#A9AC19" points="8.24254184 4.12175223 0 8.08560311 13.1508957 9 18 4"></polygon>
                <polygon id="Fill-2" fill="#BB2353" points="15 10.57382 16.4457533 24 20 15.3870403 19.7588345 5"></polygon>
                <polygon id="Fill-3" fill="#E84B38" points="4.61071278 19.7232002 15 24 13.2785744 10.213216 0 9"></polygon>
                <g id="Group-26" transform="translate(26.000000, 0.000000)" fill="#56575B">
                    <path d="M8.1409736,13.5602206 C10.0241325,13.1269216 11.3608503,11.9506421 11.3608503,10.3404265 C11.3608503,7.73999509 9.59898377,6.68733333 5.95395834,6.68733333 L3.037938,6.68733333 C1.64057405,6.68733333 0.303856322,6.56371567 0.0606462206,6.56371567 L0,6.56371567 L0,7.30669606 C1.57930261,7.30669606 1.70122027,7.49212256 1.70122027,8.54478432 L1.70122027,17.8326765 C1.70122027,18.8853382 1.57930261,19.0707647 0,19.0707647 L0,19.8137451 C0.668358865,19.7519363 1.76186649,19.6901275 3.09858422,19.6901275 C4.43467673,19.6901275 5.5894558,19.7519363 6.19654322,19.8137451 L6.19654322,19.0707647 C4.43467673,19.0707647 4.31338429,18.8853382 4.31338429,17.8326765 L4.31338429,13.869902 L5.40689192,13.869902 C7.10811219,16.0370343 8.50547614,17.9562941 10.085404,19.6901275 L11.9079167,19.6901275 C12.9407781,19.6901275 13.4872193,19.8137451 13.7304294,19.8137451 L13.7910756,19.8137451 L13.7910756,19.0707647 C13.0014243,19.0089559 12.1505016,18.6374657 11.4214965,17.7090588 L8.1409736,13.5602206 Z M4.37403051,7.55393139 L5.5894558,7.55393139 C7.41196851,7.55393139 8.62676858,8.42116666 8.62676858,10.2168088 C8.62676858,12.0742598 7.16875841,12.879049 5.16430704,12.879049 L4.37403051,12.879049 L4.37403051,7.55393139 Z" id="Fill-4"></path>
                    <path d="M19.2589889,17.8326128 C19.2589889,18.8852745 19.3802813,19.070701 21.2640655,19.070701 L21.2640655,19.8143186 C20.5957066,19.7518726 19.3802813,19.6900638 17.9829174,19.6900638 C16.5855534,19.6900638 15.3707534,19.7518726 14.7023945,19.8143186 L14.7023945,19.070701 C16.5855534,19.070701 16.7074711,18.8852745 16.7074711,17.8326128 L16.7074711,8.5447206 C16.7074711,7.49205884 16.5855534,7.30663234 14.7023945,7.30663234 L14.7023945,6.56365195 C15.3707534,6.62546078 16.5855534,6.68726961 17.9829174,6.68726961 C19.3802813,6.68726961 20.5957066,6.62546078 21.2640655,6.56365195 L21.2640655,7.30663234 C19.3802813,7.30663234 19.2589889,7.49205884 19.2589889,8.5447206 L19.2589889,17.8326128 Z" id="Fill-6"></path>
                    <path d="M34.1436972,10.3404265 C33.9004871,10.2786176 33.7185484,10.2786176 33.5359845,10.2786176 C33.2933997,10.2786176 33.1108358,10.3404265 32.9288971,10.3404265 C32.6250408,8.42116666 31.774118,7.24425003 29.8303129,7.24425003 C27.5820262,7.24425003 26.0027236,9.59744608 26.0027236,12.9408579 C26.0027236,16.2224608 27.2787951,18.7610834 30.0122515,18.7610834 C31.5921794,18.7610834 33.0501896,17.7708676 34.0224047,16.0988432 L34.6294922,16.4085245 C33.5966308,18.6992745 31.8347643,19.9998088 29.5871028,19.9998088 C26.0027236,19.9998088 23.0867032,17.6466128 23.0867032,13.1887304 C23.0867032,9.34957355 25.9420774,6.37765197 29.647749,6.37765197 C31.4702617,6.37765197 32.8676257,6.93520586 34.2043434,7.98723042 L34.2043434,10.3404265 L34.1436972,10.3404265 Z" id="Fill-8"></path>
                    <path d="M40.4621581,17.8326128 C40.4621581,18.8852745 40.5834505,19.070701 42.2846708,19.070701 L42.2846708,19.8143186 C41.6769581,19.7518726 40.5228043,19.6900638 39.1860866,19.6900638 C37.849994,19.6900638 36.7558612,19.7518726 36.0881276,19.8143186 L36.0881276,19.070701 C37.7280764,19.070701 37.9106403,18.8852745 37.9106403,17.8326128 L37.9106403,8.5447206 C37.9106403,7.49205884 37.7887226,7.30663234 36.0881276,7.30663234 L36.0881276,6.56365195 C36.695215,6.62546078 37.849994,6.68726961 39.1860866,6.68726961 C40.5228043,6.68726961 41.6163119,6.62546078 42.2846708,6.56365195 L42.2846708,7.30663234 C40.6447219,7.30663234 40.4621581,7.49205884 40.4621581,8.5447206 L40.4621581,12.6935588 L46.5374088,12.6935588 L46.5374088,8.5447206 C46.5374088,7.49205884 46.4161164,7.30663234 44.7148961,7.30663234 L44.7148961,6.56365195 C45.3226088,6.62546078 46.4767626,6.68726961 47.8134804,6.68726961 C49.1501981,6.68726961 50.2437057,6.62546078 50.9120646,6.56365195 L50.9120646,7.30663234 C49.2714905,7.30663234 49.0889266,7.49205884 49.0889266,8.5447206 L49.0889266,17.8326128 C49.0889266,18.8852745 49.2108443,19.070701 50.9120646,19.070701 L50.9120646,19.8143186 C50.3043519,19.7518726 49.1501981,19.6900638 47.8134804,19.6900638 C46.4767626,19.6900638 45.383255,19.7518726 44.7148961,19.8143186 L44.7148961,19.070701 C46.3554702,19.070701 46.5374088,18.8852745 46.5374088,17.8326128 L46.5374088,13.5601569 L40.4621581,13.5601569 L40.4621581,17.8326128 Z" id="Fill-10"></path>
                    <path d="M52.1269272,19.0709559 L52.1269272,19.8139363 C52.4914297,19.7521275 53.1597886,19.6903186 53.8887937,19.6903186 C54.6177987,19.6903186 55.2861576,19.7521275 55.6506602,19.8139363 L55.6506602,19.0709559 C54.7390912,19.0709559 54.5571525,18.8230834 54.5571525,18.4515932 C54.5571525,18.2661667 54.8003626,17.6468039 55.4680963,15.7275441 L59.9033982,15.7275441 C60.6324033,17.7704216 60.8149672,18.2043578 60.8149672,18.4515932 C60.8149672,19.0091471 60.5717571,19.0709559 59.1137469,19.0709559 L59.1137469,19.8139363 C59.6601881,19.7521275 60.6930495,19.6903186 61.9084748,19.6903186 C63.0626287,19.6903186 64.0954901,19.7521275 64.7032027,19.8139363 L64.7032027,19.0709559 C63.7309875,19.0091471 63.4877774,18.575848 63.1232749,17.3989314 L59.4176032,6.50146079 L59.356957,6.50146079 C58.9918293,6.56326962 58.5060343,6.62507846 58.0808855,6.62507846 L57.6557367,6.62507846 C57.5338191,6.93475982 57.2299628,7.80199509 57.2299628,7.80199509 L53.5849373,17.7086128 C53.1597886,18.8848922 52.795286,19.0091471 52.0662809,19.0709559 L52.1269272,19.0709559 Z M55.6506602,14.7985 L57.5950905,9.16370101 L57.6557367,9.16370101 L59.4782495,14.7985 L55.6506602,14.7985 Z" id="Fill-12"></path>
                    <path d="M73.7553076,13.5602206 C75.6384666,13.1269216 76.9751843,11.9506421 76.9751843,10.3404265 C76.9751843,7.73999509 75.2133178,6.68733333 71.5682924,6.68733333 L68.7129183,6.68733333 C67.3155543,6.68733333 65.9788366,6.56371567 65.7356265,6.56371567 L65.6749803,6.56371567 L65.6749803,7.30669606 C67.2549081,7.30669606 67.3762005,7.49212256 67.3762005,8.54478432 L67.3762005,17.8326765 C67.3762005,18.8853382 67.2549081,19.0707647 65.6749803,19.0707647 L65.6749803,19.8137451 C66.3433391,19.7519363 67.4368467,19.6901275 68.7735645,19.6901275 C70.1102822,19.6901275 71.2644361,19.7519363 71.8721487,19.8137451 L71.8721487,19.0707647 C70.1102822,19.0707647 69.9883645,18.8853382 69.9883645,17.8326765 L69.9883645,13.869902 L71.0818722,13.869902 C72.7830924,16.0370343 74.1804564,17.9562941 75.7603842,19.6901275 L77.5828969,19.6901275 C78.6157583,19.6901275 79.1621995,19.8137451 79.4054096,19.8137451 L79.4660559,19.8137451 L79.4660559,19.0707647 C78.6764046,19.0089559 77.826107,18.6374657 77.097102,17.7090588 L73.7553076,13.5602206 Z M70.0490108,7.55393139 L71.2644361,7.55393139 C73.0869488,7.55393139 74.3023741,8.42116666 74.3023741,10.2168088 C74.3023741,12.0742598 72.8437387,12.879049 70.8392873,12.879049 L70.0490108,12.879049 L70.0490108,7.55393139 Z" id="Fill-14"></path>
                    <path d="M82.2609088,17.8326128 C82.2609088,18.8852745 82.1396164,19.070701 80.5596885,19.070701 L80.5596885,19.8143186 L80.6203348,19.8143186 C80.8028986,19.8143186 82.0783449,19.6900638 83.233124,19.6900638 L86.8175032,19.6900638 C91.49539,19.6900638 93.6824053,16.9035687 93.6824053,13.1886667 C93.6824053,9.4737647 91.4347438,6.62546078 86.8175032,6.62546078 L83.233124,6.62546078 C82.0783449,6.62546078 80.8028986,6.50120591 80.6203348,6.50120591 L80.5596885,6.50120591 L80.5596885,7.24482351 C82.1396164,7.24482351 82.2609088,7.43025001 82.2609088,8.48291177 L82.2609088,17.8326128 Z M84.8124266,7.61631371 L86.5136469,7.61631371 C89.1870823,7.61631371 90.7057387,9.72100003 90.7057387,13.1886667 C90.7057387,16.7181422 89.5515849,18.7616569 86.5136469,18.7616569 L84.8124266,18.7616569 L84.8124266,7.61631371 Z" id="Fill-16"></path>
                    <path d="M95.6875444,15.8511618 C95.9307545,15.9129706 96.1126932,15.9129706 96.3559033,15.9129706 C96.5991134,15.9129706 96.781052,15.8511618 97.0242621,15.8511618 C97.4494109,18.0182941 98.9074211,19.0709559 101.03379,19.0709559 C102.4918,19.0709559 103.828518,18.3279755 103.828518,16.7177598 C103.828518,13.8694559 96.1126932,14.6748824 96.1126932,10.2163628 C96.1126932,7.80199509 98.1177698,6.25358826 100.791205,6.25358826 C102.4918,6.25358826 103.767872,6.62507846 105.10459,7.30625002 L105.286528,9.78306374 C105.10459,9.72125491 104.861379,9.72125491 104.679441,9.72125491 C104.436231,9.72125491 104.253667,9.78306374 104.071728,9.78306374 C103.585308,8.17348529 102.674364,7.18263236 100.851851,7.18263236 C99.5151337,7.18263236 98.2997084,7.92561275 98.2997084,9.28795588 C98.2997084,12.1980686 106.137451,10.8975343 106.137451,16.0372255 C106.137451,18.2043578 104.071728,20 101.216354,20 C98.9680673,20 97.0242621,19.3806373 95.8701083,18.575848 L95.6875444,15.8511618 Z" id="Fill-18"></path>
                    <path d="M107.838359,13.1267941 C107.838359,17.5846765 110.754379,19.9378726 114.338758,19.9378726 C117.984409,19.9378726 120.839783,17.5846765 120.839783,13.1267941 C120.839783,8.66891175 117.923763,6.31571569 114.338758,6.31571569 C110.754379,6.31571569 107.899005,8.66891175 107.838359,13.1267941 M110.754379,13.188603 C110.754379,9.34944611 111.726594,7.24475979 114.338758,7.24475979 C116.951547,7.24475979 117.923763,9.34944611 117.923763,13.188603 C117.923763,17.0277598 116.951547,19.1330833 114.338758,19.1330833 C111.78724,19.1330833 110.815025,17.0277598 110.754379,13.188603" id="Fill-20"></path>
                    <path d="M17.9831675,3.96277452 C19.0566681,3.96277452 19.9275978,3.07578591 19.9275978,1.98170586 C19.9275978,0.887625808 19.0579185,0 17.9837927,0 L17.9831675,0 C16.9096668,0 16.0393623,0.887625808 16.0393623,1.98170586 C16.0393623,3.07578591 16.9096668,3.96277452 17.9831675,3.96277452" id="Fill-22"></path>
                    <path d="M134.023333,15.6654167 L134.023333,8.48284805 C134.023333,7.43018629 133.902041,7.24475979 132.200821,7.24475979 L132.200821,6.50114219 C132.808533,6.56358823 133.962687,6.62539706 135.299405,6.62539706 C136.635497,6.62539706 136.332266,6.56358823 137,6.50114219 L137,7.24475979 C135.360051,7.24475979 135.177487,7.43018629 135.177487,8.48284805 L135.177487,19.69 L134.08398,19.69 L124.363703,9.90700001 L124.363703,17.7707402 C124.363703,18.823402 124.484996,19.0088285 126.186216,19.0088285 L126.186216,19.7518089 C125.578504,19.69 125.578504,19.6281912 124.241786,19.6281912 C122.905068,19.6281912 121.994124,19.69 121.325765,19.7518089 L121.325765,19.0088285 C122.966339,19.0088285 123.148278,18.823402 123.148278,17.7707402 L123.148278,8.48284805 C123.148278,7.43018629 123.026986,7.24475979 121.325765,7.24475979 L121.325765,6.50114219 C121.933478,6.56358823 123.695345,6.62539706 124.970791,6.62539706 L134.023333,15.6654167 Z" id="Fill-24"></path>
                </g>
            </g>
        </g>
    </g>
</svg>